
CASCADE Topology V1, (c) Matra-Datavision
Locations 49
1
1.000000000000000 0.000000000000000 0.000000000000000 0.000000000000000 
0.000000000000000 1.000000000000000 0.000000000000000 0.000000000000000 
0.000000000000000 0.000000000000000 1.000000000000000 0.000000000000000 
1
1.000000000000000 0.000000000000000 0.000000000000000 0.000000000000000 
0.000000000000000 1.000000000000000 0.000000000000000 0.000000000000000 
0.000000000000000 0.000000000000000 1.000000000000000 0.000000000000000 
1
1.000000000000000 0.000000000000000 0.000000000000000 0.000000000000000 
0.000000000000000 1.000000000000000 0.000000000000000 0.000000000000000 
0.000000000000000 0.000000000000000 1.000000000000000 0.000000000000000 
2  2 1 3 -1 0
1
1.000000000000000 0.000000000000000 0.000000000000000 0.000000000000000 
0.000000000000000 1.000000000000000 0.000000000000000 0.000000000000000 
0.000000000000000 0.000000000000000 1.000000000000000 0.000000000000000 
1
1.000000000000000 0.000000000000000 0.000000000000000 0.000000000000000 
0.000000000000000 1.000000000000000 0.000000000000000 0.000000000000000 
0.000000000000000 0.000000000000000 1.000000000000000 0.000000000000000 
2  5 1 6 -1 0
1
1.000000000000000 0.000000000000000 0.000000000000000 0.000000000000000 
0.000000000000000 1.000000000000000 0.000000000000000 0.000000000000000 
0.000000000000000 0.000000000000000 1.000000000000000 0.000000000000000 
1
1.000000000000000 0.000000000000000 0.000000000000000 0.000000000000000 
0.000000000000000 1.000000000000000 0.000000000000000 0.000000000000000 
0.000000000000000 0.000000000000000 1.000000000000000 0.000000000000000 
1
1.000000000000000 0.000000000000000 0.000000000000000 0.000000000000000 
0.000000000000000 1.000000000000000 0.000000000000000 0.000000000000000 
0.000000000000000 0.000000000000000 1.000000000000000 0.000000000000000 
2  8 1 9 1 10 -1 5 1 6 -1 0
2  10 1 9 -1 8 -1 0
1
1.000000000000000 0.000000000000000 0.000000000000000 0.000000000000000 
0.000000000000000 1.000000000000000 0.000000000000000 0.000000000000000 
0.000000000000000 0.000000000000000 1.000000000000000 2.000000000000000 
2  13 -1 10 1 9 -1 8 -1 0
2  9 -1 8 -1 0
1
1.000000000000000 0.000000000000000 0.000000000000000 0.000000000000000 
0.000000000000000 1.000000000000000 0.000000000000000 0.000000000000000 
0.000000000000000 0.000000000000000 1.000000000000000 0.000000000000000 
1
1.000000000000000 0.000000000000000 0.000000000000000 0.000000000000000 
0.000000000000000 1.000000000000000 0.000000000000000 0.000000000000000 
0.000000000000000 0.000000000000000 1.000000000000000 0.000000000000000 
2  16 1 17 1 5 -1 10 1 9 -1 8 -1 0
2  16 1 17 1 6 -1 0
2  8 1 9 1 10 -1 13 1 5 1 6 -1 0
2  6 1 5 -1 13 -1 10 1 9 -1 8 -1 0
2  8 1 9 1 10 -1 0
2  8 1 9 1 10 -1 13 1 0
2  10 -1 5 1 6 -1 0
2  6 1 17 -1 16 -1 0
1
1.000000000000000 0.000000000000000 0.000000000000000 0.000000000000000 
0.000000000000000 1.000000000000000 0.000000000000000 0.000000000000000 
0.000000000000000 0.000000000000000 1.000000000000000 10.000000000000000 
2  26 -1 6 1 17 -1 16 -1 0
2  17 -1 16 -1 0
2  5 1 17 -1 16 -1 0
2  16 1 17 1 6 -1 26 1 0
2  10 -1 13 1 5 1 6 -1 0
2  5 1 6 -1 2 1 3 -1 0
2  6 -1 2 1 3 -1 0
2  16 1 17 1 0
2  16 1 17 1 6 -1 26 1 2 1 3 -1 0
1
1.000000000000000 0.000000000000000 0.000000000000000 0.000000000000000 
0.000000000000000 1.000000000000000 0.000000000000000 0.000000000000000 
0.000000000000000 0.000000000000000 1.000000000000000 0.000000000000000 
1
1.000000000000000 0.000000000000000 0.000000000000000 0.000000000000000 
0.000000000000000 0.000000000000000 -1.000000000000000 89.000000000000000 
0.000000000000000 1.000000000000000 0.000000000000000 0.000000000000000 
2  36 1 37 1 2 -1 26 -1 6 1 17 -1 16 -1 0
2  36 1 37 1 3 -1 0
2  3 1 37 -1 36 -1 0
1
1.000000000000000 0.000000000000000 0.000000000000000 0.000000000000000 
0.000000000000000 1.000000000000000 0.000000000000000 -1.000000000000000 
0.000000000000000 0.000000000000000 1.000000000000000 0.000000000000000 
2  41 -1 3 1 37 -1 36 -1 0
2  37 -1 36 -1 0
2  2 1 37 -1 36 -1 0
2  8 1 9 1 10 -1 13 1 5 1 6 -1 2 1 3 -1 0
2  6 -1 26 1 2 1 3 -1 0
2  36 1 37 1 3 -1 41 1 0
2  3 -1 41 1 0
2  36 1 37 1 0
Curve2ds 76
1 0.00000000000000000 0.00000000000000000 1.00000000000000000 0.00000000000000000 
1 0.00000000000000000 -2.00000000000000000 1.00000000000000000 0.00000000000000000 
1 -59.50000000000000000 44.50000000000000000 1.00000000000000000 0.00000000000000000 
1 30.00000000000000000 0.00000000000000000 0.00000000000000000 -1.00000000000000000 
1 0.00000000000000000 0.00000000000000000 0.00000000000000000 -1.00000000000000000 
1 42.50000000000000000 0.00000000000000000 0.00000000000000000 -1.00000000000000000 
1 0.00000000000000000 0.00000000000000000 0.00000000000000000 -1.00000000000000000 
1 0.00000000000000000 -0.00000000000000000 1.00000000000000000 0.00000000000000000 
1 0.00000000000000000 -10.00000000000000000 1.00000000000000000 0.00000000000000000 
1 15.00000000000000000 44.50000000000000000 -1.00000000000000000 0.00000000000000000 
1 72.50000000000000000 0.00000000000000000 -1.00000000000000000 0.00000000000000000 
1 59.50000000000000000 44.50000000000000000 0.00000000000000000 -1.00000000000000000 
1 0.00000000000000000 -0.00000000000000000 1.00000000000000000 0.00000000000000000 
1 0.00000000000000000 -2.00000000000000000 1.00000000000000000 0.00000000000000000 
1 59.50000000000000000 -44.50000000000000000 -1.00000000000000000 0.00000000000000000 
1 0.00000000000000000 0.00000000000000000 1.00000000000000000 0.00000000000000000 
1 0.00000000000000000 -10.00000000000000000 1.00000000000000000 0.00000000000000000 
1 -15.00000000000000000 -44.50000000000000000 1.00000000000000000 0.00000000000000000 
1 76.50000000000000000 0.00000000000000000 -1.00000000000000000 -0.00000000000000000 
1 -59.50000000000000000 -44.50000000000000000 0.00000000000000000 1.00000000000000000 
1 2.00000000000000000 0.00000000000000000 0.00000000000000000 -1.00000000000000000 
1 0.00000000000000000 0.00000000000000000 1.00000000000000000 0.00000000000000000 
1 0.00000000000000000 -10.00000000000000000 1.00000000000000000 0.00000000000000000 
1 -15.00000000000000000 44.50000000000000000 0.00000000000000000 1.00000000000000000 
1 72.50000000000000000 -2.00000000000000000 -1.00000000000000000 -0.00000000000000000 
1 76.50000000000000000 -2.00000000000000000 -1.00000000000000000 0.00000000000000000 
1 119.00000000000000000 0.00000000000000000 0.00000000000000000 -1.00000000000000000 
1 -15.00000000000000000 46.50000000000000000 1.00000000000000000 0.00000000000000000 
1 0.00000000000000000 0.00000000000000000 1.00000000000000000 0.00000000000000000 
1 0.00000000000000000 -10.00000000000000000 1.00000000000000000 0.00000000000000000 
1 15.00000000000000000 46.50000000000000000 0.00000000000000000 -1.00000000000000000 
1 119.00000000000000000 0.00000000000000000 0.00000000000000000 -1.00000000000000000 
1 2.00000000000000000 0.00000000000000000 0.00000000000000000 -1.00000000000000000 
1 0.00000000000000000 -0.00000000000000000 0.00000000000000000 -1.00000000000000000 
1 72.50000000000000000 0.00000000000000000 0.00000000000000000 -1.00000000000000000 
1 0.00000000000000000 -0.00000000000000000 0.00000000000000000 -1.00000000000000000 
1 30.00000000000000000 0.00000000000000000 0.00000000000000000 -1.00000000000000000 
1 0.00000000000000000 0.00000000000000000 0.00000000000000000 -1.00000000000000000 
1 46.50000000000000000 0.00000000000000000 0.00000000000000000 -1.00000000000000000 
1 0.00000000000000000 0.00000000000000000 1.00000000000000000 0.00000000000000000 
1 0.00000000000000000 -10.00000000000000000 1.00000000000000000 0.00000000000000000 
1 15.00000000000000000 -44.50000000000000000 0.00000000000000000 -1.00000000000000000 
1 15.00000000000000000 -46.50000000000000000 -1.00000000000000000 0.00000000000000000 
1 0.00000000000000000 0.00000000000000000 1.00000000000000000 0.00000000000000000 
1 0.00000000000000000 -10.00000000000000000 1.00000000000000000 0.00000000000000000 
1 -15.00000000000000000 -46.50000000000000000 0.00000000000000000 1.00000000000000000 
1 0.00000000000000000 0.00000000000000000 0.00000000000000000 -1.00000000000000000 
1 2.00000000000000000 0.00000000000000000 0.00000000000000000 -1.00000000000000000 
1 76.50000000000000000 0.00000000000000000 0.00000000000000000 -1.00000000000000000 
1 0.00000000000000000 0.00000000000000000 1.00000000000000000 0.00000000000000000 
1 -0.00000000000000022 -1.00000000000000000 1.00000000000000000 0.00000000000000000 
1 -1.50000000000000000 -10.00000000000000000 1.00000000000000000 0.00000000000000000 
1 25.00000000000000000 -7.00000000000000000 0.00000000000000000 -1.00000000000000000 
1 -1.50000000000000000 10.00000000000000000 0.00000000000000000 -1.00000000000000000 
1 0.00000000000000000 0.00000000000000000 1.00000000000000000 0.00000000000000000 
1 0.00000000000000000 -1.00000000000000000 1.00000000000000000 0.00000000000000000 
1 5.00000000000000000 -7.00000000000000000 1.00000000000000000 0.00000000000000000 
1 0.00000000000000000 0.00000000000000000 1.00000000000000000 0.00000000000000000 
1 0.00000000000000022 -1.00000000000000000 1.00000000000000000 0.00000000000000000 
1 1.50000000000000000 10.00000000000000000 -1.00000000000000000 0.00000000000000000 
1 5.00000000000000000 -10.00000000000000000 0.00000000000000000 1.00000000000000000 
1 0.00000000000000000 0.00000000000000000 0.00000000000000000 -1.00000000000000000 
1 0.00000000000000000 0.00000000000000000 1.00000000000000000 0.00000000000000000 
1 0.00000000000000000 -1.00000000000000000 1.00000000000000000 0.00000000000000000 
1 1.50000000000000000 -10.00000000000000000 0.00000000000000000 1.00000000000000000 
1 25.00000000000000000 -10.00000000000000000 -1.00000000000000000 -0.00000000000000000 
1 2.00000000000000000 0.00000000000000000 0.00000000000000000 -1.00000000000000000 
1 0.00000000000000000 0.00000000000000000 0.00000000000000000 -1.00000000000000000 
1 0.00000000000000000 0.00000000000000000 0.00000000000000000 -1.00000000000000000 
1 20.00000000000000000 0.00000000000000000 0.00000000000000000 -1.00000000000000000 
1 0.00000000000000000 0.00000000000000000 0.00000000000000000 -1.00000000000000000 
1 3.00000000000000000 -0.00000000000000067 0.00000000000000000 -1.00000000000000000 
1 3.00000000000000000 0.00000000000000067 0.00000000000000000 -1.00000000000000000 
1 0.00000000000000000 0.00000000000000000 0.00000000000000000 -1.00000000000000000 
1 20.00000000000000000 0.00000000000000000 0.00000000000000000 -1.00000000000000000 
1 0.00000000000000000 0.00000000000000000 0.00000000000000000 -1.00000000000000000 
Curves 32
1 0.00000000000000000 89.00000000000000000 0.00000000000000000 1.00000000000000000 0.00000000000000000 0.00000000000000000 
1 42.50000000000000000 89.00000000000000000 0.00000000000000000 0.00000000000000000 0.00000000000000000 1.00000000000000000 
1 0.00000000000000000 89.00000000000000000 0.00000000000000000 0.00000000000000000 0.00000000000000000 1.00000000000000000 
1 72.50000000000000000 89.00000000000000000 0.00000000000000000 -1.00000000000000000 0.00000000000000000 0.00000000000000000 
1 119.00000000000000000 89.00000000000000000 0.00000000000000000 0.00000000000000000 -1.00000000000000000 0.00000000000000000 
1 119.00000000000000000 0.00000000000000000 0.00000000000000000 -1.00000000000000000 0.00000000000000000 0.00000000000000000 
1 42.50000000000000000 0.00000000000000000 0.00000000000000000 1.00000000000000000 0.00000000000000000 0.00000000000000000 
1 0.00000000000000000 0.00000000000000000 0.00000000000000000 0.00000000000000000 1.00000000000000000 0.00000000000000000 
1 42.50000000000000000 91.00000000000000000 0.00000000000000000 0.00000000000000000 0.00000000000000000 1.00000000000000000 
1 42.50000000000000000 89.00000000000000000 0.00000000000000000 0.00000000000000000 1.00000000000000000 0.00000000000000000 
1 0.00000000000000000 0.00000000000000000 0.00000000000000000 0.00000000000000000 0.00000000000000000 1.00000000000000000 
1 42.50000000000000000 91.00000000000000000 0.00000000000000000 1.00000000000000000 0.00000000000000000 0.00000000000000000 
1 72.50000000000000000 91.00000000000000000 0.00000000000000000 0.00000000000000000 -1.00000000000000000 0.00000000000000000 
1 119.00000000000000000 89.00000000000000000 0.00000000000000000 0.00000000000000000 0.00000000000000000 1.00000000000000000 
1 72.50000000000000000 89.00000000000000000 0.00000000000000000 0.00000000000000000 0.00000000000000000 1.00000000000000000 
1 119.00000000000000000 0.00000000000000000 0.00000000000000000 0.00000000000000000 0.00000000000000000 1.00000000000000000 
1 72.50000000000000000 0.00000000000000000 0.00000000000000000 0.00000000000000000 0.00000000000000000 1.00000000000000000 
1 72.50000000000000000 0.00000000000000000 0.00000000000000000 0.00000000000000000 -1.00000000000000000 0.00000000000000000 
1 72.50000000000000000 -2.00000000000000000 0.00000000000000000 -1.00000000000000000 0.00000000000000000 0.00000000000000000 
1 42.50000000000000000 -2.00000000000000000 0.00000000000000000 0.00000000000000000 1.00000000000000000 0.00000000000000000 
1 42.50000000000000000 0.00000000000000000 0.00000000000000000 0.00000000000000000 0.00000000000000000 1.00000000000000000 
1 47.50000000000000000 7.00000000000000000 0.00000000000000000 0.00000000000000000 1.00000000000000000 0.00000000000000000 
1 67.50000000000000000 7.00000000000000000 0.00000000000000000 -1.00000000000000000 0.00000000000000000 0.00000000000000000 
1 67.50000000000000000 10.00000000000000000 0.00000000000000000 0.00000000000000000 -1.00000000000000000 0.00000000000000000 
1 72.50000000000000000 91.00000000000000000 0.00000000000000000 0.00000000000000000 0.00000000000000000 1.00000000000000000 
1 47.50000000000000000 10.00000000000000000 0.00000000000000000 1.00000000000000000 0.00000000000000000 0.00000000000000000 
1 72.50000000000000000 -2.00000000000000000 0.00000000000000000 0.00000000000000000 0.00000000000000000 1.00000000000000000 
1 42.50000000000000000 -2.00000000000000000 0.00000000000000000 0.00000000000000000 0.00000000000000000 1.00000000000000000 
1 47.50000000000000000 89.00000000000000000 7.00000000000000000 0.00000000000000000 -1.00000000000000000 0.00000000000000022 
1 47.50000000000000000 89.00000000000000000 10.00000000000000000 0.00000000000000000 -1.00000000000000000 0.00000000000000022 
1 67.50000000000000000 89.00000000000000000 7.00000000000000000 0.00000000000000000 -1.00000000000000000 0.00000000000000022 
1 67.50000000000000000 89.00000000000000000 10.00000000000000000 0.00000000000000000 -1.00000000000000000 0.00000000000000022 
Polygon3D 0
PolygonOnTriangulations 0
Surfaces 20
1 0.00000000000000000 89.00000000000000000 0.00000000000000000 0.00000000000000000 1.00000000000000000 0.00000000000000000 1.00000000000000000 0.00000000000000000 0.00000000000000000 0.00000000000000000 0.00000000000000000 -1.00000000000000000 
1 59.50000000000000000 44.50000000000000000 0.00000000000000000 0.00000000000000000 0.00000000000000000 1.00000000000000000 1.00000000000000000 0.00000000000000000 -0.00000000000000000 -0.00000000000000000 1.00000000000000000 0.00000000000000000 
1 72.50000000000000000 89.00000000000000000 0.00000000000000000 0.00000000000000000 -1.00000000000000000 0.00000000000000000 -1.00000000000000000 0.00000000000000000 0.00000000000000000 -0.00000000000000000 -0.00000000000000000 -1.00000000000000000 
1 42.50000000000000000 89.00000000000000000 0.00000000000000000 -1.00000000000000000 0.00000000000000000 0.00000000000000000 0.00000000000000000 1.00000000000000000 0.00000000000000000 0.00000000000000000 0.00000000000000000 -1.00000000000000000 
1 57.50000000000000000 44.50000000000000000 0.00000000000000000 0.00000000000000000 0.00000000000000000 1.00000000000000000 1.00000000000000000 0.00000000000000000 -0.00000000000000000 -0.00000000000000000 1.00000000000000000 0.00000000000000000 
1 119.00000000000000000 0.00000000000000000 0.00000000000000000 0.00000000000000000 -1.00000000000000000 0.00000000000000000 -1.00000000000000000 0.00000000000000000 0.00000000000000000 -0.00000000000000000 -0.00000000000000000 -1.00000000000000000 
1 42.50000000000000000 0.00000000000000000 0.00000000000000000 0.00000000000000000 1.00000000000000000 0.00000000000000000 1.00000000000000000 0.00000000000000000 0.00000000000000000 0.00000000000000000 0.00000000000000000 -1.00000000000000000 
1 57.50000000000000000 44.50000000000000000 0.00000000000000000 0.00000000000000000 0.00000000000000000 1.00000000000000000 1.00000000000000000 0.00000000000000000 -0.00000000000000000 -0.00000000000000000 1.00000000000000000 0.00000000000000000 
1 0.00000000000000000 0.00000000000000000 0.00000000000000000 -1.00000000000000000 0.00000000000000000 0.00000000000000000 0.00000000000000000 1.00000000000000000 0.00000000000000000 0.00000000000000000 0.00000000000000000 -1.00000000000000000 
1 72.50000000000000000 91.00000000000000000 0.00000000000000000 1.00000000000000000 0.00000000000000000 -0.00000000000000000 0.00000000000000000 -1.00000000000000000 0.00000000000000000 0.00000000000000000 -0.00000000000000000 -1.00000000000000000 
1 119.00000000000000000 89.00000000000000000 0.00000000000000000 1.00000000000000000 0.00000000000000000 -0.00000000000000000 0.00000000000000000 -1.00000000000000000 0.00000000000000000 0.00000000000000000 -0.00000000000000000 -1.00000000000000000 
1 72.50000000000000000 0.00000000000000000 0.00000000000000000 1.00000000000000000 0.00000000000000000 -0.00000000000000000 0.00000000000000000 -1.00000000000000000 0.00000000000000000 0.00000000000000000 -0.00000000000000000 -1.00000000000000000 
1 42.50000000000000000 -2.00000000000000000 0.00000000000000000 -1.00000000000000000 0.00000000000000000 0.00000000000000000 0.00000000000000000 1.00000000000000000 0.00000000000000000 0.00000000000000000 0.00000000000000000 -1.00000000000000000 
1 47.50000000000000000 89.00000000000000000 7.00000000000000000 -1.00000000000000000 0.00000000000000000 0.00000000000000000 0.00000000000000000 0.00000000000000022 1.00000000000000000 0.00000000000000000 1.00000000000000000 -0.00000000000000022 
1 57.50000000000000000 89.00000000000000000 8.50000000000000000 0.00000000000000000 1.00000000000000000 0.00000000000000000 0.00000000000000000 -0.00000000000000000 1.00000000000000000 1.00000000000000000 0.00000000000000000 -0.00000000000000000 
1 67.50000000000000000 89.00000000000000000 7.00000000000000000 -0.00000000000000000 -0.00000000000000022 -1.00000000000000000 -1.00000000000000000 0.00000000000000000 0.00000000000000000 0.00000000000000000 1.00000000000000000 -0.00000000000000022 
1 67.50000000000000000 89.00000000000000000 10.00000000000000000 1.00000000000000000 0.00000000000000000 0.00000000000000000 0.00000000000000000 -0.00000000000000022 -1.00000000000000000 0.00000000000000000 1.00000000000000000 -0.00000000000000022 
1 42.50000000000000000 91.00000000000000000 0.00000000000000000 0.00000000000000000 1.00000000000000000 0.00000000000000000 1.00000000000000000 0.00000000000000000 0.00000000000000000 0.00000000000000000 0.00000000000000000 -1.00000000000000000 
1 47.50000000000000000 89.00000000000000000 10.00000000000000000 -0.00000000000000000 0.00000000000000022 1.00000000000000000 1.00000000000000000 0.00000000000000000 0.00000000000000000 0.00000000000000000 1.00000000000000000 -0.00000000000000022 
1 72.50000000000000000 -2.00000000000000000 0.00000000000000000 0.00000000000000000 -1.00000000000000000 0.00000000000000000 -1.00000000000000000 0.00000000000000000 0.00000000000000000 -0.00000000000000000 -0.00000000000000000 -1.00000000000000000 
Triangulations 0

TShapes 116
Ve
0.000000100000000
0.000000000000000 89.000000000000000 0.000000000000000
0 0

0101101
*
Ve
0.000000100000000
42.500000000000000 89.000000000000000 0.000000000000000
0 0

0101101
*
Ed
 0.000000100000000 1 1 0
1  1 0 0.000000000000000 42.500000000000000
2  1 1 12 0.000000000000000 42.500000000000000
2  2 1 14 0.000000000000000 42.500000000000000
2  3 2 15 0.000000000000000 42.500000000000000
0

0101000
+116 0 -115 18 *
Ve
0.000000100000000
42.500000000000000 89.000000000000000 2.000000000000000
0 0

0101101
*
Ed
 0.000000100000000 1 1 0
1  2 0 0.000000000000000 2.000000000000000
2  4 3 0 0.000000000000000 2.000000000000000
2  5 4 0 0.000000000000000 2.000000000000000
2  6 1 7 0.000000000000000 2.000000000000000
0

0101000
+115 19 -113 0 *
Ed
 0.000000100000000 1 1 0
1  1 0 0.000000000000000 42.500000000000000
2  1 1 12 0.000000000000000 42.500000000000000
2  2 1 14 0.000000000000000 42.500000000000000
2  3 2 15 0.000000000000000 42.500000000000000
0

0101000
+116 0 -113 21 *
Ed
 0.000000100000000 1 1 0
1  3 0 0.000000000000000 2.000000000000000
2  7 1 0 0.000000000000000 2.000000000000000
0

0101000
+116 22 -116 23 *
Wi

0101100
-114 11 -112 0 +111 20 +110 7 *
Fa
0  0.000000100000000 1 7

0111000
+109 0 *
Ve
0.000000100000000
72.500000000000000 89.000000000000000 0.000000000000000
0 0

0101101
*
Ed
 0.000000100000000 1 1 0
1  4 0 0.000000000000000 30.000000000000000
2  8 3 25 0.000000000000000 30.000000000000000
2  9 3 27 0.000000000000000 30.000000000000000
2  10 5 28 0.000000000000000 30.000000000000000
2  11 1 29 0.000000000000000 30.000000000000000
0

0101000
+107 0 -115 0 *
Ve
0.000000100000000
119.000000000000000 89.000000000000000 0.000000000000000
0 0

0101101
*
Ed
 0.000000100000000 1 1 0
1  1 0 72.500000000000000 119.000000000000000
2  1 1 12 72.500000000000000 119.000000000000000
2  2 1 14 72.500000000000000 119.000000000000000
2  3 2 15 72.500000000000000 119.000000000000000
0

0101000
+107 18 -105 0 *
Ve
0.000000100000000
119.000000000000000 0.000000000000000 0.000000000000000
0 0

0101101
*
Ed
 0.000000100000000 1 1 0
1  5 0 0.000000000000000 89.000000000000000
2  12 2 15 0.000000000000000 89.000000000000000
0

0101000
+105 0 -103 0 *
Ve
0.000000100000000
72.500000000000000 0.000000000000000 0.000000000000000
0 0

0101101
*
Ed
 0.000000100000000 1 1 0
1  6 0 0.000000000000000 46.500000000000000
2  13 6 12 0.000000000000000 46.500000000000000
2  14 6 14 0.000000000000000 46.500000000000000
2  15 2 15 0.000000000000000 46.500000000000000
0

0101000
+103 0 -101 18 *
Ve
0.000000100000000
42.500000000000000 0.000000000000000 0.000000000000000
0 0

0101101
*
Ed
 0.000000100000000 1 1 0
1  7 0 0.000000000000000 30.000000000000000
2  16 7 25 0.000000000000000 30.000000000000000
2  17 7 27 0.000000000000000 30.000000000000000
2  18 8 28 0.000000000000000 30.000000000000000
2  19 6 29 0.000000000000000 30.000000000000000
0

0101000
+99 0 -101 0 *
Ve
0.000000100000000
0.000000000000000 0.000000000000000 0.000000000000000
0 0

0101101
*
Ed
 0.000000100000000 1 1 0
1  6 0 76.500000000000000 119.000000000000000
2  13 6 12 76.500000000000000 119.000000000000000
2  14 6 14 76.500000000000000 119.000000000000000
2  15 2 15 76.500000000000000 119.000000000000000
0

0101000
+99 18 -97 0 *
Ed
 0.000000100000000 1 1 0
1  8 0 0.000000000000000 89.000000000000000
2  20 2 15 0.000000000000000 89.000000000000000
0

0101000
+97 0 -116 0 *
Wi

0101100
+114 11 -106 19 +104 11 +102 11 +100 11 -98 19 +96 11 +95 11 *
Fa
0  0.000000100000000 2 24

0111000
-94 0 *
Ed
 0.000000100000000 1 1 0
1  2 0 2.000000000000000 10.000000000000000
2  4 3 0 2.000000000000000 10.000000000000000
2  5 4 0 2.000000000000000 10.000000000000000
0

0101000
+113 0 -115 30 *
Ve
0.000000100000000
42.500000000000000 91.000000000000000 0.000000000000000
0 0

0101101
*
Ed
 0.000000100000000 1 1 0
1  9 0 0.000000000000000 10.000000000000000
2  21 4 0 0.000000000000000 10.000000000000000
0

0101000
+91 19 -91 30 *
Ed
 0.000000100000000 1 1 0
1  10 0 0.000000000000000 2.000000000000000
2  22 4 25 0.000000000000000 2.000000000000000
2  23 4 27 0.000000000000000 2.000000000000000
2  24 5 28 0.000000000000000 2.000000000000000
0

0101000
+115 0 -91 0 *
Wi

0101100
+112 0 +92 0 -90 0 -89 19 +89 30 *
Fa
0  0.000000100000000 4 0

0111000
+88 0 *
Ve
0.000000100000000
72.500000000000000 89.000000000000000 2.000000000000000
0 0

0101101
*
Ed
 0.000000100000000 1 1 0
1  1 0 42.500000000000000 72.500000000000000
2  1 1 12 42.500000000000000 72.500000000000000
2  2 1 14 42.500000000000000 72.500000000000000
2  3 2 15 42.500000000000000 72.500000000000000
2  25 3 21 42.500000000000000 72.500000000000000
0

0101000
+113 21 -86 21 *
Ed
 0.000000100000000 1 1 0
1  1 0 72.500000000000000 119.000000000000000
2  1 1 12 72.500000000000000 119.000000000000000
2  2 1 14 72.500000000000000 119.000000000000000
2  3 2 15 72.500000000000000 119.000000000000000
0

0101000
+86 21 -105 0 *
Ve
0.000000100000000
72.500000000000000 0.000000000000000 2.000000000000000
0 0

0101101
*
Ed
 0.000000100000000 1 1 0
1  6 0 0.000000000000000 46.500000000000000
2  13 6 12 0.000000000000000 46.500000000000000
2  14 6 14 0.000000000000000 46.500000000000000
2  15 2 15 0.000000000000000 46.500000000000000
0

0101000
+103 0 -83 21 *
Ve
0.000000100000000
42.500000000000000 0.000000000000000 2.000000000000000
0 0

0101101
*
Ed
 0.000000100000000 1 1 0
1  6 0 46.500000000000000 76.500000000000000
2  13 6 12 46.500000000000000 76.500000000000000
2  14 6 14 46.500000000000000 76.500000000000000
2  15 2 15 46.500000000000000 76.500000000000000
2  26 7 21 46.500000000000000 76.500000000000000
0

0101000
+83 21 -81 21 *
Ed
 0.000000100000000 1 1 0
1  6 0 76.500000000000000 119.000000000000000
2  13 6 12 76.500000000000000 119.000000000000000
2  14 6 14 76.500000000000000 119.000000000000000
2  15 2 15 76.500000000000000 119.000000000000000
0

0101000
+81 21 -97 0 *
Wi

0101100
+111 20 +85 20 +84 20 +102 20 +82 20 +80 20 +79 20 +95 20 *
Fa
0  0.000000100000000 2 31

0111000
-78 0 *
Ed
 0.000000100000000 1 1 0
1  11 0 0.000000000000000 2.000000000000000
2  27 6 0 0.000000000000000 2.000000000000000
0

0101000
+97 22 -97 23 *
Wi

0101100
+76 0 -110 0 -95 22 +95 23 *
Fa
0  0.000000100000000 9 0

0111000
+75 0 *
Ve
0.000000100000000
72.500000000000000 91.000000000000000 0.000000000000000
0 0

0101101
*
Ed
 0.000000100000000 1 1 0
1  12 0 0.000000000000000 30.000000000000000
2  28 5 28 0.000000000000000 30.000000000000000
0

0101000
+91 0 -73 0 *
Ed
 0.000000100000000 1 1 0
1  13 0 0.000000000000000 2.000000000000000
2  29 10 25 0.000000000000000 2.000000000000000
2  30 10 27 0.000000000000000 2.000000000000000
2  31 5 28 0.000000000000000 2.000000000000000
0

0101000
+73 0 -107 0 *
Wi

0101100
+72 0 +71 0 +106 0 +89 0 *
Fa
0  0.000000100000000 5 0

0111000
-70 34 *
Ed
 0.000000100000000 1 1 0
1  14 0 0.000000000000000 2.000000000000000
2  32 1 0 0.000000000000000 2.000000000000000
0

0101000
+105 22 -105 23 *
Ed
 0.000000100000000 1 1 0
1  15 0 0.000000000000000 2.000000000000000
2  33 10 0 0.000000000000000 2.000000000000000
2  34 3 0 0.000000000000000 2.000000000000000
2  35 1 7 0.000000000000000 2.000000000000000
0

0101000
+107 19 -86 0 *
Wi

0101100
-104 11 -68 7 +84 20 +67 0 *
Fa
0  0.000000100000000 1 7

0111000
+66 0 *
Ed
 0.000000100000000 1 1 0
1  16 0 0.000000000000000 2.000000000000000
2  36 6 0 0.000000000000000 2.000000000000000
0

0101000
+103 22 -103 23 *
Wi

0101100
+68 0 -64 0 -102 22 +102 23 *
Fa
0  0.000000100000000 11 0

0111000
+63 0 *
Ed
 0.000000100000000 1 1 0
1  17 0 0.000000000000000 2.000000000000000
2  37 7 0 0.000000000000000 2.000000000000000
2  38 12 0 0.000000000000000 2.000000000000000
2  39 6 7 0.000000000000000 2.000000000000000
0

0101000
+101 19 -83 0 *
Wi

0101100
-100 11 -61 0 +82 20 +64 7 *
Fa
0  0.000000100000000 6 7

0111000
+60 0 *
Ve
0.000000100000000
72.500000000000000 -2.000000000000000 0.000000000000000
0 0

0101101
*
Ed
 0.000000100000000 1 1 0
1  18 0 0.000000000000000 2.000000000000000
2  40 12 25 0.000000000000000 2.000000000000000
2  41 12 27 0.000000000000000 2.000000000000000
2  42 8 28 0.000000000000000 2.000000000000000
0

0101000
+101 0 -58 0 *
Ve
0.000000100000000
42.500000000000000 -2.000000000000000 0.000000000000000
0 0

0101101
*
Ed
 0.000000100000000 1 1 0
1  19 0 0.000000000000000 30.000000000000000
2  43 8 28 0.000000000000000 30.000000000000000
0

0101000
+58 0 -56 0 *
Ed
 0.000000100000000 1 1 0
1  20 0 0.000000000000000 2.000000000000000
2  44 13 25 0.000000000000000 2.000000000000000
2  45 13 27 0.000000000000000 2.000000000000000
2  46 8 28 0.000000000000000 2.000000000000000
0

0101000
+56 0 -99 0 *
Wi

0101100
+98 0 +57 0 +55 0 +54 0 *
Fa
0  0.000000100000000 8 0

0111000
-53 34 *
Ed
 0.000000100000000 1 1 0
1  21 0 0.000000000000000 2.000000000000000
2  47 7 0 0.000000000000000 2.000000000000000
2  48 13 0 0.000000000000000 2.000000000000000
2  49 6 7 0.000000000000000 2.000000000000000
0

0101000
+99 19 -81 0 *
Wi

0101100
-96 11 -76 7 +79 20 +51 0 *
Fa
0  0.000000100000000 6 7

0111000
+50 0 *
Ve
0.000000100000000
47.500000000000000 10.000000000000000 0.000000000000000
0 0

0101101
*
Ed
 0.000000100000000 1 1 0
1  4 0 25.000000000000000 30.000000000000000
2  8 3 25 25.000000000000000 30.000000000000000
2  9 3 27 25.000000000000000 30.000000000000000
2  10 5 28 25.000000000000000 30.000000000000000
2  11 1 29 25.000000000000000 30.000000000000000
0

0101000
+48 38 -115 0 *
Ve
0.000000100000000
47.500000000000000 7.000000000000000 0.000000000000000
0 0

0101101
*
Ed
 0.000000100000000 1 1 0
1  22 0 0.000000000000000 3.000000000000000
2  50 14 40 0.000000000000000 3.000000000000000
2  51 14 42 0.000000000000000 3.000000000000000
2  52 15 43 0.000000000000000 3.000000000000000
2  53 3 44 0.000000000000000 3.000000000000000
0

0101000
+46 0 -48 0 *
Ve
0.000000100000000
67.500000000000000 7.000000000000000 0.000000000000000
0 0

0101101
*
Ed
 0.000000100000000 1 1 0
1  23 0 0.000000000000000 20.000000000000000
2  54 15 43 0.000000000000000 20.000000000000000
2  55 16 40 0.000000000000000 20.000000000000000
2  56 16 42 0.000000000000000 20.000000000000000
2  57 3 44 0.000000000000000 20.000000000000000
0

0101000
+44 0 -46 0 *
Ve
0.000000100000000
67.500000000000000 10.000000000000000 0.000000000000000
0 0

0101101
*
Ed
 0.000000100000000 1 1 0
1  24 0 0.000000000000000 3.000000000000000
2  58 17 40 0.000000000000000 3.000000000000000
2  59 17 42 0.000000000000000 3.000000000000000
2  60 15 43 0.000000000000000 3.000000000000000
2  61 3 44 0.000000000000000 3.000000000000000
0

0101000
+42 0 -44 0 *
Ed
 0.000000100000000 1 1 0
1  4 0 0.000000000000000 5.000000000000000
2  8 3 25 0.000000000000000 5.000000000000000
2  9 3 27 0.000000000000000 5.000000000000000
2  10 5 28 0.000000000000000 5.000000000000000
2  11 1 29 0.000000000000000 5.000000000000000
0

0101000
+107 0 -42 38 *
Ed
 0.000000100000000 1 1 0
1  15 0 2.000000000000000 10.000000000000000
2  33 10 0 2.000000000000000 10.000000000000000
2  34 3 0 2.000000000000000 10.000000000000000
0

0101000
+86 0 -107 30 *
Wi

0101100
-92 4 +47 35 +45 39 +43 39 +41 39 +40 35 +39 4 +85 45 *
Fa
0  0.000000100000000 3 4

0111000
+38 0 *
Ed
 0.000000100000000 1 1 0
1  25 0 0.000000000000000 10.000000000000000
2  62 10 0 0.000000000000000 10.000000000000000
0

0101000
+73 19 -73 30 *
Wi

0101100
+90 0 -36 0 -72 19 +72 30 *
Fa
0  0.000000100000000 18 0

0111000
+35 0 *
Ed
 0.000000100000000 1 1 0
1  26 0 0.000000000000000 20.000000000000000
2  63 19 40 0.000000000000000 20.000000000000000
2  64 19 42 0.000000000000000 20.000000000000000
2  65 15 43 0.000000000000000 20.000000000000000
2  66 3 44 0.000000000000000 20.000000000000000
0

0101000
+48 0 -42 0 *
Wi

0101100
+72 35 +71 35 +40 35 -33 39 +47 35 +89 35 *
Fa
0  0.000000100000000 5 46

0111000
-32 0 *
Ed
 0.000000100000000 1 1 0
1  17 0 2.000000000000000 10.000000000000000
2  37 7 0 2.000000000000000 10.000000000000000
2  38 12 0 2.000000000000000 10.000000000000000
0

0101000
+83 0 -101 30 *
Ed
 0.000000100000000 1 1 0
1  21 0 2.000000000000000 10.000000000000000
2  47 7 0 2.000000000000000 10.000000000000000
2  48 13 0 2.000000000000000 10.000000000000000
0

0101000
+81 0 -99 30 *
Wi

0101100
+80 20 -30 0 +98 30 +29 0 *
Fa
0  0.000000100000000 7 0

0111000
+28 0 *
Wi

0101100
+36 0 -67 0 -39 0 -71 19 +71 30 *
Fa
0  0.000000100000000 10 0

0111000
+26 0 *
Ed
 0.000000100000000 1 1 0
1  27 0 0.000000000000000 10.000000000000000
2  67 12 0 0.000000000000000 10.000000000000000
0

0101000
+58 19 -58 30 *
Wi

0101100
+61 0 +30 0 -24 0 -57 19 +57 30 *
Fa
0  0.000000100000000 12 0

0111000
+23 0 *
Ed
 0.000000100000000 1 1 0
1  28 0 0.000000000000000 10.000000000000000
2  68 13 0 0.000000000000000 10.000000000000000
0

0101000
+56 19 -56 30 *
Wi

0101100
+24 0 -21 0 -55 19 +55 30 *
Fa
0  0.000000100000000 20 0

0111000
+20 0 *
Wi

0101100
+21 0 -51 0 -29 0 -54 19 +54 30 *
Fa
0  0.000000100000000 13 0

0111000
+18 0 *
Ed
 0.000000100000000 1 1 0
1  29 0 0.000000000000000 1.000000000000000
2  69 14 0 0.000000000000000 1.000000000000000
2  70 16 0 0.000000000000000 1.000000000000000
0

0101000
+46 39 -46 47 *
Ed
 0.000000100000000 1 1 0
1  30 0 0.000000000000000 1.000000000000000
2  71 19 0 0.000000000000000 1.000000000000000
2  72 14 0 0.000000000000000 1.000000000000000
0

0101000
+48 39 -48 47 *
Wi

0101100
+16 0 -15 0 -45 39 +45 47 *
Fa
0  0.000000100000000 14 0

0111000
+14 0 *
Ed
 0.000000100000000 1 1 0
1  31 0 0.000000000000000 1.000000000000000
2  73 17 0 0.000000000000000 1.000000000000000
2  74 16 0 0.000000000000000 1.000000000000000
0

0101000
+44 39 -44 47 *
Wi

0101100
+12 0 -16 0 -43 39 +43 47 *
Fa
0  0.000000100000000 16 0

0111000
+11 0 *
Ed
 0.000000100000000 1 1 0
1  32 0 0.000000000000000 1.000000000000000
2  75 19 0 0.000000000000000 1.000000000000000
2  76 17 0 0.000000000000000 1.000000000000000
0

0101000
+42 39 -42 47 *
Wi

0101100
+9 0 -12 0 -41 39 +41 47 *
Fa
0  0.000000100000000 17 0

0111000
+8 0 *
Wi

0101100
+15 0 -9 0 -33 39 +33 47 *
Fa
0  0.000000100000000 19 0

0111000
+6 0 *
Wi

0101100
+33 0 +41 0 +43 0 +45 0 *
Fa
0  0.000000100000000 15 0

0111000
+4 49 *
Sh

0101100
+108 4 -93 4 +87 4 +77 4 +74 32 -69 33 +65 4 +62 32 +59 4 -52 33 
+49 4 +37 0 +34 4 +31 0 +27 4 +25 4 +22 4 +19 4 +17 4 +13 0 
+10 0 +7 0 +5 0 +52 46 -3 48 *
So

0100000
+2 0 *

+1 1 