
CASCADE Topology V1, (c) Matra-Datavision
Locations 56
1
1.000000000000000 0.000000000000000 0.000000000000000 0.000000000000000 
0.000000000000000 1.000000000000000 0.000000000000000 0.000000000000000 
0.000000000000000 0.000000000000000 1.000000000000000 0.000000000000000 
1
1.000000000000000 0.000000000000000 0.000000000000000 0.000000000000000 
0.000000000000000 1.000000000000000 0.000000000000000 0.000000000000000 
0.000000000000000 0.000000000000000 1.000000000000000 0.000000000000000 
1
1.000000000000000 0.000000000000000 0.000000000000000 0.000000000000000 
0.000000000000000 1.000000000000000 0.000000000000000 0.000000000000000 
0.000000000000000 0.000000000000000 1.000000000000000 0.000000000000000 
1
1.000000000000000 0.000000000000000 0.000000000000000 0.000000000000000 
0.000000000000000 1.000000000000000 0.000000000000000 0.000000000000000 
0.000000000000000 0.000000000000000 1.000000000000000 0.000000000000000 
2  2 1 3 1 4 -1 0
1
1.000000000000000 0.000000000000000 0.000000000000000 0.000000000000000 
0.000000000000000 1.000000000000000 0.000000000000000 0.000000000000000 
0.000000000000000 0.000000000000000 1.000000000000000 0.000000000000000 
1
1.000000000000000 0.000000000000000 0.000000000000000 0.000000000000000 
0.000000000000000 1.000000000000000 0.000000000000000 0.000000000000000 
0.000000000000000 0.000000000000000 1.000000000000000 0.000000000000000 
1
1.000000000000000 0.000000000000000 0.000000000000000 0.000000000000000 
0.000000000000000 1.000000000000000 0.000000000000000 0.000000000000000 
0.000000000000000 0.000000000000000 1.000000000000000 0.000000000000000 
2  6 1 7 1 8 -1 0
2  2 -1 0
2  6 1 7 1 8 -1 2 1 0
1
1.000000000000000 0.000000000000000 0.000000000000000 0.000000000000000 
0.000000000000000 1.000000000000000 0.000000000000000 0.000000000000000 
0.000000000000000 0.000000000000000 1.000000000000000 0.000000000000000 
1
1.000000000000000 0.000000000000000 0.000000000000000 0.000000000000000 
0.000000000000000 0.000000000000000 -1.000000000000000 -2.000000000000000 
0.000000000000000 1.000000000000000 0.000000000000000 0.000000000000000 
2  12 1 13 1 8 -1 2 1 0
2  8 1 13 -1 12 -1 0
1
1.000000000000000 0.000000000000000 0.000000000000000 0.000000000000000 
0.000000000000000 1.000000000000000 0.000000000000000 1.000000000000000 
0.000000000000000 0.000000000000000 1.000000000000000 -0.000000000000000 
2  16 -1 8 1 13 -1 12 -1 0
2  13 -1 12 -1 0
2  6 1 7 1 13 -1 12 -1 0
2  7 1 8 -1 0
1
1.000000000000000 0.000000000000000 0.000000000000000 0.000000000000000 
0.000000000000000 1.000000000000000 0.000000000000000 0.000000000000000 
0.000000000000000 0.000000000000000 1.000000000000000 0.000000000000000 
1
1.000000000000000 0.000000000000000 0.000000000000000 0.000000000000000 
0.000000000000000 1.000000000000000 0.000000000000000 0.000000000000000 
0.000000000000000 0.000000000000000 1.000000000000000 30.000000000000000 
2  21 -1 22 1 6 1 0
2  21 -1 6 1 0
2  12 1 13 1 8 -1 16 1 0
2  12 1 13 1 8 -1 16 1 2 1 0
2  3 1 4 -1 0
2  6 1 7 1 8 -1 2 1 3 1 4 -1 0
2  6 -1 0
2  21 -1 22 1 6 1 7 1 8 -1 2 1 3 1 4 -1 0
2  6 -1 22 -1 21 1 0
1
1.000000000000000 0.000000000000000 0.000000000000000 0.000000000000000 
0.000000000000000 1.000000000000000 0.000000000000000 0.000000000000000 
0.000000000000000 0.000000000000000 1.000000000000000 0.000000000000000 
1
1.000000000000000 0.000000000000000 0.000000000000000 0.000000000000000 
0.000000000000000 1.000000000000000 0.000000000000000 0.000000000000000 
0.000000000000000 0.000000000000000 1.000000000000000 0.000000000000000 
2  32 1 33 1 21 -1 22 1 6 1 0
2  33 -1 32 -1 0
2  21 1 33 -1 32 -1 0
2  22 -1 21 1 33 -1 32 -1 0
2  21 -1 6 1 7 1 8 -1 2 1 3 1 4 -1 0
2  6 -1 21 1 0
2  8 -1 16 1 2 1 3 1 4 -1 0
2  12 1 13 1 0
2  7 1 8 -1 2 1 3 1 4 -1 0
1
1.000000000000000 0.000000000000000 0.000000000000000 0.000000000000000 
0.000000000000000 1.000000000000000 0.000000000000000 0.000000000000000 
0.000000000000000 0.000000000000000 1.000000000000000 0.000000000000000 
1
-1.000000000000000 0.000000000000000 0.000000000000000 0.000000000000000 
0.000000000000000 0.000000000000000 1.000000000000000 87.000000000000000 
0.000000000000000 1.000000000000000 -0.000000000000000 0.000000000000000 
2  43 1 44 1 4 -1 0
2  4 1 44 -1 43 -1 0
1
1.000000000000000 0.000000000000000 0.000000000000000 0.000000000000000 
0.000000000000000 1.000000000000000 0.000000000000000 -1.000000000000000 
0.000000000000000 0.000000000000000 1.000000000000000 0.000000000000000 
2  47 -1 4 1 44 -1 43 -1 0
2  44 -1 43 -1 0
2  6 1 7 1 8 -1 2 1 3 1 44 -1 43 -1 0
2  32 1 33 1 21 -1 0
2  32 1 33 1 21 -1 22 1 0
2  43 1 44 1 4 -1 47 1 0
2  32 1 33 1 0
2  4 -1 47 1 0
2  43 1 44 1 0
Curve2ds 112
1 46.50000000000000000 -11.50000000000000000 0.00000000000000000 1.00000000000000000 
1 11.50000000000000000 0.00000000000000255 1.00000000000000000 -0.00000000000000022 
1 0.00000000000000000 0.00000000000000000 1.00000000000000000 0.00000000000000000 
1 -0.00000000000000022 -1.00000000000000000 1.00000000000000000 0.00000000000000000 
1 1.50000000000000000 11.00000000000000000 -1.00000000000000000 0.00000000000000000 
1 46.50000000000000000 -23.00000000000000000 0.00000000000000000 1.00000000000000000 
1 0.00000000000000000 -0.21213203435596562 1.00000000000000000 0.00000000000000000 
1 46.50000000000000000 -19.69999999999999929 1.00000000000000000 0.00000000000000000 
1 46.50000000000000000 -11.50000000000000000 0.00000000000000000 -1.00000000000000000 
1 11.50000000000000000 0.00000000000000255 -1.00000000000000000 0.00000000000000022 
1 68.50000000000000000 -10.00000000000000000 -0.00000000000000000 1.00000000000000000 
1 -10.00000000000000000 0.00000000000000222 -1.00000000000000000 -0.00000000000000022 
1 0.00000000000000000 -0.21213203435596384 1.00000000000000000 0.00000000000000000 
1 68.50000000000000000 -23.30000000000000071 -1.00000000000000000 -0.00000000000000000 
1 0.00000000000000000 0.00000000000000000 1.00000000000000000 0.00000000000000000 
1 0.00000000000000022 -1.00000000000000000 1.00000000000000000 0.00000000000000000 
1 -1.50000000000000000 -11.00000000000000000 1.00000000000000000 0.00000000000000000 
1 68.50000000000000000 -20.00000000000000000 0.00000000000000000 -1.00000000000000000 
1 68.50000000000000000 -10.00000000000000000 0.00000000000000000 -1.00000000000000000 
1 -10.00000000000000000 0.00000000000000222 1.00000000000000000 0.00000000000000022 
8 -10000000.00000000000000000 10000000.00000000000000000
1 117.00000000000000000 0.00000000000000000 0.00000000000000000 1.00000000000000000 
8 -10000000.00000000000000000 10000000.00000000000000000
1 -2.00000000000000000 0.00000000000000000 -0.00000000000000000 1.00000000000000000 
8 -9999971.25000000000000000 9999971.25000000000000000
1 28.75000000000000000 -44.50000000000000000 1.00000000000000000 0.00000000000000000 
8 -9999971.25000000000000000 9999971.25000000000000000
1 28.75000000000000000 -30.00000000000000000 -1.00000000000000000 0.00000000000000000 
8 -9999971.25000000000000000 9999971.25000000000000000
1 28.75000000000000000 2.00000000000000000 1.00000000000000000 0.00000000000000000 
8 -9999971.25000000000000000 9999971.25000000000000000
1 28.75000000000000000 -44.50000000000000000 -1.00000000000000000 0.00000000000000000 
8 -10000000.00000000000000000 10000000.00000000000000000
1 87.00000000000000000 0.00000000000000000 0.00000000000000000 1.00000000000000000 
8 -10000000.00000000000000000 10000000.00000000000000000
1 -2.00000000000000000 -0.00000000000000000 0.00000000000000000 1.00000000000000000 
1 22.00000000000000000 0.00000000000000000 0.00000000000000000 -1.00000000000000000 
1 0.00000000000000000 0.00000000000000000 0.00000000000000000 -1.00000000000000000 
1 22.00000000000000000 0.00000000000000126 0.00000000000000000 1.00000000000000000 
1 -0.14999999999999861 -0.14999999999999655 0.70710678118654824 -0.70710678118654691 
1 3.00000000000000000 0.00000000000000000 0.00000000000000000 -1.00000000000000000 
1 0.00000000000000000 0.00000000000000000 0.00000000000000000 -1.00000000000000000 
1 0.00000000000000000 1.06066017177982452 0.00000000000000000 1.00000000000000000 
1 2.39999999999999503 -0.89999999999999603 -0.70710678118654846 -0.70710678118654668 
1 0.00000000000000000 0.21213203435596384 1.00000000000000000 0.00000000000000000 
1 0.00000000000000000 -0.29999999999999560 1.00000000000000000 0.00000000000000000 
1 22.00000000000000000 0.00000000000000110 0.00000000000000000 1.00000000000000000 
1 -0.14999999999999855 -0.14999999999999705 0.70710678118654846 -0.70710678118654668 
1 22.00000000000000000 0.00000000000000000 0.00000000000000000 -1.00000000000000000 
1 0.00000000000000000 0.00000000000000000 0.00000000000000000 -1.00000000000000000 
1 0.00000000000000000 0.00000000000000000 0.00000000000000000 -1.00000000000000000 
1 3.00000000000000000 0.00000000000000000 0.00000000000000000 -1.00000000000000000 
1 0.00000000000000000 1.06066017177982230 0.00000000000000000 1.00000000000000000 
1 2.39999999999999858 -0.89999999999999647 -0.70710678118654824 -0.70710678118654691 
1 0.00000000000000000 0.21213203435596739 1.00000000000000000 0.00000000000000000 
1 0.00000000000000000 -0.29999999999999494 1.00000000000000000 0.00000000000000000 
8 -9999978.75000000000000000 9999978.75000000000000000
1 21.25000000000000000 2.00000000000000000 1.00000000000000000 0.00000000000000000 
8 -9999978.75000000000000000 9999978.75000000000000000
1 -59.50000000000000000 -21.25000000000000000 0.00000000000000000 1.00000000000000000 
8 -9999978.75000000000000000 9999978.75000000000000000
1 -59.50000000000000000 -21.25000000000000000 0.00000000000000000 -1.00000000000000000 
8 -9999978.75000000000000000 9999978.75000000000000000
1 21.25000000000000000 -30.00000000000000000 -1.00000000000000000 0.00000000000000000 
8 -10000000.00000000000000000 10000000.00000000000000000
1 -2.00000000000000000 0.00000000000000000 0.00000000000000000 -1.00000000000000000 
8 -10000000.00000000000000000 10000000.00000000000000000
1 87.00000000000000000 0.00000000000000000 0.00000000000000000 -1.00000000000000000 
1 -57.50000000000000000 42.50000000000000000 1.00000000000000000 0.00000000000000000 
1 0.00000000000000000 0.00000000000000000 1.00000000000000000 0.00000000000000000 
1 0.00000000000000000 -30.00000000000000000 1.00000000000000000 0.00000000000000000 
1 57.50000000000000000 42.50000000000000000 0.00000000000000000 -1.00000000000000000 
1 57.50000000000000000 -42.50000000000000000 -1.00000000000000000 0.00000000000000000 
1 0.00000000000000000 -0.00000000000000000 1.00000000000000000 0.00000000000000000 
1 0.00000000000000000 -30.00000000000000000 1.00000000000000000 0.00000000000000000 
1 -57.50000000000000000 -42.50000000000000000 0.00000000000000000 1.00000000000000000 
1 0.00000000000000000 0.00000000000000000 1.00000000000000000 0.00000000000000000 
1 0.00000000000000000 -30.00000000000000000 1.00000000000000000 0.00000000000000000 
8 -9999971.25000000000000000 9999971.25000000000000000
1 -28.75000000000000000 44.50000000000000000 -1.00000000000000000 0.00000000000000000 
8 -9999971.25000000000000000 9999971.25000000000000000
1 28.75000000000000000 -30.00000000000000000 -1.00000000000000000 0.00000000000000000 
8 -9999978.75000000000000000 9999978.75000000000000000
1 59.50000000000000000 21.25000000000000000 0.00000000000000000 1.00000000000000000 
8 -9999978.75000000000000000 9999978.75000000000000000
1 21.25000000000000000 -30.00000000000000000 -1.00000000000000000 0.00000000000000000 
8 -9999971.25000000000000000 9999971.25000000000000000
1 28.75000000000000000 2.00000000000000000 1.00000000000000000 0.00000000000000000 
8 -9999971.25000000000000000 9999971.25000000000000000
1 -28.75000000000000000 44.50000000000000000 1.00000000000000000 0.00000000000000000 
8 -9999978.75000000000000000 9999978.75000000000000000
1 21.25000000000000000 2.00000000000000000 1.00000000000000000 0.00000000000000000 
8 -9999978.75000000000000000 9999978.75000000000000000
1 59.50000000000000000 21.25000000000000000 0.00000000000000000 -1.00000000000000000 
8 -10000000.00000000000000000 10000000.00000000000000000
1 117.00000000000000000 0.00000000000000000 0.00000000000000000 1.00000000000000000 
8 -10000000.00000000000000000 10000000.00000000000000000
1 -2.00000000000000000 0.00000000000000000 0.00000000000000000 1.00000000000000000 
1 0.00000000000000000 0.00000000000000000 1.00000000000000000 0.00000000000000000 
1 0.00000000000000000 -1.00000000000000000 1.00000000000000000 0.00000000000000000 
1 1.50000000000000000 -11.00000000000000000 0.00000000000000000 1.00000000000000000 
1 68.50000000000000000 -23.00000000000000000 -1.00000000000000000 -0.00000000000000000 
1 0.00000000000000000 0.00000000000000000 1.00000000000000000 0.00000000000000000 
1 0.00000000000000000 -1.00000000000000000 1.00000000000000000 0.00000000000000000 
1 -1.50000000000000000 11.00000000000000000 0.00000000000000000 -1.00000000000000000 
1 46.50000000000000000 -20.00000000000000000 1.00000000000000000 0.00000000000000000 
1 0.00000000000000000 0.00000000000000000 1.00000000000000000 0.00000000000000000 
1 -0.00000000000000022 -1.00000000000000000 1.00000000000000000 0.00000000000000000 
1 -1.50000000000000000 11.00000000000000000 1.00000000000000000 0.00000000000000000 
1 68.50000000000000000 -20.00000000000000000 0.00000000000000000 -1.00000000000000000 
1 0.00000000000000000 0.00000000000000000 1.00000000000000000 0.00000000000000000 
1 0.00000000000000000 -1.00000000000000000 1.00000000000000000 0.00000000000000000 
1 -1.50000000000000000 -11.00000000000000000 0.00000000000000000 1.00000000000000000 
1 46.50000000000000000 -20.00000000000000000 1.00000000000000000 0.00000000000000000 
1 0.00000000000000000 0.00000000000000000 1.00000000000000000 0.00000000000000000 
1 0.00000000000000022 -1.00000000000000000 1.00000000000000000 0.00000000000000000 
1 1.50000000000000000 -11.00000000000000000 -1.00000000000000000 0.00000000000000000 
1 46.50000000000000000 -23.00000000000000000 0.00000000000000000 1.00000000000000000 
1 0.00000000000000000 0.00000000000000000 1.00000000000000000 0.00000000000000000 
1 0.00000000000000000 -1.00000000000000000 1.00000000000000000 0.00000000000000000 
1 1.50000000000000000 11.00000000000000000 0.00000000000000000 -1.00000000000000000 
1 68.50000000000000000 -23.00000000000000000 -1.00000000000000000 0.00000000000000000 
1 0.00000000000000000 0.00000000000000000 0.00000000000000000 -1.00000000000000000 
1 85.00000000000000000 0.00000000000000000 0.00000000000000000 -1.00000000000000000 
1 115.00000000000000000 0.00000000000000000 0.00000000000000000 -1.00000000000000000 
1 0.00000000000000000 -0.00000000000000000 0.00000000000000000 -1.00000000000000000 
1 115.00000000000000000 0.00000000000000000 0.00000000000000000 -1.00000000000000000 
1 0.00000000000000000 0.00000000000000000 0.00000000000000000 -1.00000000000000000 
1 22.00000000000000000 0.00000000000000000 0.00000000000000000 -1.00000000000000000 
1 0.00000000000000000 0.00000000000000000 0.00000000000000000 -1.00000000000000000 
1 0.00000000000000000 0.00000000000000000 0.00000000000000000 -1.00000000000000000 
1 3.00000000000000000 -0.00000000000000067 0.00000000000000000 -1.00000000000000000 
1 3.00000000000000000 0.00000000000000067 0.00000000000000000 -1.00000000000000000 
1 0.00000000000000000 0.00000000000000000 0.00000000000000000 -1.00000000000000000 
1 22.00000000000000000 0.00000000000000000 0.00000000000000000 -1.00000000000000000 
1 0.00000000000000000 0.00000000000000000 0.00000000000000000 -1.00000000000000000 
Curves 48
8 -8.50000000000000000 -8.19999999999999929
1 68.50000000000000000 -2.00000000000000000 11.50000000000000000 -0.00000000000000000 -0.00000000000000000 -1.00000000000000000 
1 68.50000000000000000 23.00000000000000000 0.00000000000000000 0.00000000000000000 -1.00000000000000000 0.00000000000000000 
1 68.50000000000000000 -2.00000000000000000 19.69999999999999929 -1.00000000000000000 0.00000000000000000 0.00000000000000000 
8 11.50000000000000000 11.80000000000000071
1 68.50000000000000000 -2.00000000000000000 11.50000000000000000 0.00000000000000000 0.00000000000000000 1.00000000000000000 
8 -10.00000000000000000 -9.69999999999999929
1 46.50000000000000000 -2.00000000000000000 10.00000000000000000 0.00000000000000000 -0.00000000000000000 -1.00000000000000000 
1 46.50000000000000000 -2.00000000000000000 23.30000000000000071 1.00000000000000000 0.00000000000000000 0.00000000000000000 
1 46.50000000000000000 20.00000000000000000 0.00000000000000000 0.00000000000000000 1.00000000000000000 0.00000000000000000 
8 13.00000000000000000 13.30000000000000071
1 46.50000000000000000 -2.00000000000000000 10.00000000000000000 -0.00000000000000000 0.00000000000000000 1.00000000000000000 
8 -10000000.00000000000000000 10000000.00000000000000000
1 -2.00000000000000000 -2.00000000000000000 0.00000000000000000 -0.00000000000000000 -0.00000000000000000 -1.00000000000000000 
8 -9999971.25000000000000000 9999971.25000000000000000
1 86.25000000000000000 -2.00000000000000000 30.00000000000000000 1.00000000000000000 0.00000000000000000 -0.00000000000000000 
8 -9999971.25000000000000000 9999971.25000000000000000
1 86.25000000000000000 -2.00000000000000000 -2.00000000000000000 -1.00000000000000000 0.00000000000000000 0.00000000000000000 
8 -10000000.00000000000000000 10000000.00000000000000000
1 117.00000000000000000 -2.00000000000000000 0.00000000000000000 0.00000000000000000 0.00000000000000000 -1.00000000000000000 
1 68.50000000000000000 -1.99999999999999489 23.00000000000000000 0.00000000000000000 1.00000000000000000 -0.00000000000000022 
8 -0.21213203435596431 0.21213203435596351
1 68.50000000000000000 -1.84999999999999831 23.14999999999999858 -0.00000000000000000 0.70710678118654680 -0.70710678118654835 
1 68.50000000000000000 -1.99999999999999556 20.00000000000000000 0.00000000000000000 1.00000000000000000 -0.00000000000000022 
8 -1.27279220613579036 -0.84852813742386135
1 68.50000000000000000 -1.09999999999999942 20.60000000000000497 0.00000000000000000 0.70710678118654680 0.70710678118654835 
1 68.50000000000000000 -1.69999999999999996 20.00000000000000000 -1.00000000000000000 0.00000000000000000 0.00000000000000000 
8 -0.21213203435596711 0.21213203435596178
1 46.50000000000000000 -1.84999999999999853 19.85000000000000142 -0.00000000000000000 0.70710678118654680 0.70710678118654835 
1 46.50000000000000000 -1.99999999999999556 20.00000000000000000 0.00000000000000000 1.00000000000000000 -0.00000000000000022 
1 46.50000000000000000 -1.99999999999999489 23.00000000000000000 0.00000000000000000 1.00000000000000000 -0.00000000000000022 
8 -1.27279220613578548 -0.84852813742385769
1 46.50000000000000000 -1.09999999999999853 22.39999999999999858 0.00000000000000000 0.70710678118654680 -0.70710678118654835 
1 46.50000000000000000 -1.69999999999999996 23.00000000000000000 1.00000000000000000 0.00000000000000000 0.00000000000000000 
8 -9999978.75000000000000000 9999978.75000000000000000
1 -2.00000000000000000 21.25000000000000000 -2.00000000000000000 0.00000000000000000 1.00000000000000000 -0.00000000000000000 
8 -9999978.75000000000000000 9999978.75000000000000000
1 -2.00000000000000000 21.25000000000000000 30.00000000000000000 0.00000000000000000 -1.00000000000000000 0.00000000000000000 
8 -10000000.00000000000000000 10000000.00000000000000000
1 -2.00000000000000000 87.00000000000000000 0.00000000000000000 0.00000000000000000 -0.00000000000000000 1.00000000000000000 
1 0.00000000000000000 85.00000000000000000 0.00000000000000000 1.00000000000000000 0.00000000000000000 0.00000000000000000 
1 115.00000000000000000 85.00000000000000000 0.00000000000000000 0.00000000000000000 -1.00000000000000000 0.00000000000000000 
1 115.00000000000000000 0.00000000000000000 0.00000000000000000 -1.00000000000000000 0.00000000000000000 0.00000000000000000 
1 0.00000000000000000 0.00000000000000000 0.00000000000000000 0.00000000000000000 1.00000000000000000 0.00000000000000000 
8 -9999971.25000000000000000 9999971.25000000000000000
1 28.75000000000000000 87.00000000000000000 30.00000000000000000 -1.00000000000000000 0.00000000000000000 0.00000000000000000 
8 -9999978.75000000000000000 9999978.75000000000000000
1 117.00000000000000000 63.75000000000000000 30.00000000000000000 0.00000000000000000 1.00000000000000000 0.00000000000000000 
8 -9999971.25000000000000000 9999971.25000000000000000
1 28.75000000000000000 87.00000000000000000 -2.00000000000000000 1.00000000000000000 0.00000000000000000 0.00000000000000000 
8 -9999978.75000000000000000 9999978.75000000000000000
1 117.00000000000000000 63.75000000000000000 -2.00000000000000000 0.00000000000000000 -1.00000000000000000 0.00000000000000000 
8 -10000000.00000000000000000 10000000.00000000000000000
1 117.00000000000000000 87.00000000000000000 0.00000000000000000 0.00000000000000000 0.00000000000000000 -1.00000000000000000 
1 46.50000000000000000 23.00000000000000000 0.00000000000000000 1.00000000000000000 0.00000000000000000 0.00000000000000000 
1 68.50000000000000000 20.00000000000000000 0.00000000000000000 -1.00000000000000000 0.00000000000000000 0.00000000000000000 
1 -68.50000000000000000 20.00000000000000000 0.00000000000000000 0.00000000000000000 1.00000000000000000 0.00000000000000000 
1 -46.50000000000000000 20.00000000000000000 0.00000000000000000 -1.00000000000000000 0.00000000000000000 0.00000000000000000 
1 -46.50000000000000000 23.00000000000000000 0.00000000000000000 0.00000000000000000 -1.00000000000000000 0.00000000000000000 
1 -68.50000000000000000 23.00000000000000000 0.00000000000000000 1.00000000000000000 0.00000000000000000 0.00000000000000000 
1 0.00000000000000000 85.00000000000000000 0.00000000000000000 0.00000000000000000 0.00000000000000000 1.00000000000000000 
1 115.00000000000000000 85.00000000000000000 0.00000000000000000 0.00000000000000000 0.00000000000000000 1.00000000000000000 
1 115.00000000000000000 0.00000000000000000 0.00000000000000000 0.00000000000000000 0.00000000000000000 1.00000000000000000 
1 0.00000000000000000 0.00000000000000000 0.00000000000000000 0.00000000000000000 0.00000000000000000 1.00000000000000000 
1 68.50000000000000000 87.00000000000000000 20.00000000000000000 0.00000000000000000 -1.00000000000000000 0.00000000000000022 
1 68.50000000000000000 87.00000000000000000 23.00000000000000000 0.00000000000000000 -1.00000000000000000 0.00000000000000022 
1 46.50000000000000000 87.00000000000000000 20.00000000000000000 0.00000000000000000 -1.00000000000000000 0.00000000000000022 
1 46.50000000000000000 87.00000000000000000 23.00000000000000000 0.00000000000000000 -1.00000000000000000 0.00000000000000022 
Polygon3D 0
PolygonOnTriangulations 0
Surfaces 22
1 115.00000000000000000 -2.00000000000000000 0.00000000000000000 0.00000000000000000 -1.00000000000000000 0.00000000000000000 -1.00000000000000000 0.00000000000000000 0.00000000000000000 -0.00000000000000000 -0.00000000000000000 -1.00000000000000000 
1 68.50000000000000000 -1.99999999999999489 23.00000000000000000 -1.00000000000000000 0.00000000000000000 -0.00000000000000000 0.00000000000000000 -0.00000000000000022 -1.00000000000000000 -0.00000000000000000 -1.00000000000000000 0.00000000000000022 
1 57.50000000000000000 -1.99999999999999512 21.50000000000000000 0.00000000000000000 1.00000000000000000 -0.00000000000000022 0.00000000000000000 0.00000000000000022 1.00000000000000000 1.00000000000000000 -0.00000000000000000 0.00000000000000000 
1 68.50000000000000000 -1.85000000000000009 19.85000000000000142 0.00000000000000000 -0.70710678118654835 0.70710678118654680 -1.00000000000000000 0.00000000000000000 0.00000000000000000 0.00000000000000000 0.70710678118654680 0.70710678118654835 
1 46.50000000000000000 -1.99999999999999556 20.00000000000000000 1.00000000000000000 -0.00000000000000000 0.00000000000000000 0.00000000000000000 0.00000000000000022 1.00000000000000000 -0.00000000000000000 -1.00000000000000000 0.00000000000000022 
1 46.50000000000000000 -1.85000000000000009 23.14999999999999858 0.00000000000000000 -0.70710678118654835 -0.70710678118654680 1.00000000000000000 0.00000000000000000 0.00000000000000000 -0.00000000000000000 0.70710678118654680 -0.70710678118654835 
1 -2.00000000000000000 0.00000000000000000 0.00000000000000000 -1.00000000000000000 0.00000000000000000 0.00000000000000000 0.00000000000000000 1.00000000000000000 0.00000000000000000 0.00000000000000000 0.00000000000000000 -1.00000000000000000 
1 57.50000000000000000 42.50000000000000000 0.00000000000000000 0.00000000000000000 0.00000000000000000 1.00000000000000000 1.00000000000000000 0.00000000000000000 -0.00000000000000000 -0.00000000000000000 1.00000000000000000 0.00000000000000000 
1 57.50000000000000000 42.50000000000000000 -2.00000000000000000 0.00000000000000000 0.00000000000000000 1.00000000000000000 1.00000000000000000 0.00000000000000000 -0.00000000000000000 -0.00000000000000000 1.00000000000000000 0.00000000000000000 
1 117.00000000000000000 85.00000000000000000 0.00000000000000000 1.00000000000000000 0.00000000000000000 -0.00000000000000000 0.00000000000000000 -1.00000000000000000 0.00000000000000000 0.00000000000000000 -0.00000000000000000 -1.00000000000000000 
1 46.50000000000000000 -1.99999999999999489 23.00000000000000000 0.00000000000000000 -0.00000000000000022 -1.00000000000000000 1.00000000000000000 0.00000000000000000 0.00000000000000000 0.00000000000000000 -1.00000000000000000 0.00000000000000022 
1 68.50000000000000000 -1.99999999999999556 20.00000000000000000 0.00000000000000000 0.00000000000000022 1.00000000000000000 -1.00000000000000000 0.00000000000000000 0.00000000000000000 0.00000000000000000 -1.00000000000000000 0.00000000000000022 
1 0.00000000000000000 87.00000000000000000 0.00000000000000000 0.00000000000000000 1.00000000000000000 0.00000000000000000 1.00000000000000000 0.00000000000000000 0.00000000000000000 0.00000000000000000 0.00000000000000000 -1.00000000000000000 
1 0.00000000000000000 85.00000000000000000 0.00000000000000000 0.00000000000000000 1.00000000000000000 0.00000000000000000 1.00000000000000000 0.00000000000000000 0.00000000000000000 0.00000000000000000 0.00000000000000000 -1.00000000000000000 
1 115.00000000000000000 0.00000000000000000 0.00000000000000000 0.00000000000000000 -1.00000000000000000 0.00000000000000000 -1.00000000000000000 0.00000000000000000 0.00000000000000000 -0.00000000000000000 -0.00000000000000000 -1.00000000000000000 
1 0.00000000000000000 0.00000000000000000 0.00000000000000000 -1.00000000000000000 0.00000000000000000 0.00000000000000000 0.00000000000000000 1.00000000000000000 0.00000000000000000 0.00000000000000000 0.00000000000000000 -1.00000000000000000 
1 68.50000000000000000 87.00000000000000000 20.00000000000000000 -1.00000000000000000 0.00000000000000000 0.00000000000000000 0.00000000000000000 0.00000000000000022 1.00000000000000000 0.00000000000000000 1.00000000000000000 -0.00000000000000022 
1 57.50000000000000000 87.00000000000000000 21.50000000000000000 0.00000000000000000 1.00000000000000000 0.00000000000000000 0.00000000000000000 -0.00000000000000000 1.00000000000000000 1.00000000000000000 0.00000000000000000 -0.00000000000000000 
1 46.50000000000000000 87.00000000000000000 20.00000000000000000 -0.00000000000000000 0.00000000000000022 1.00000000000000000 1.00000000000000000 0.00000000000000000 0.00000000000000000 0.00000000000000000 1.00000000000000000 -0.00000000000000022 
1 46.50000000000000000 87.00000000000000000 23.00000000000000000 1.00000000000000000 0.00000000000000000 0.00000000000000000 0.00000000000000000 -0.00000000000000022 -1.00000000000000000 0.00000000000000000 1.00000000000000000 -0.00000000000000022 
1 68.50000000000000000 87.00000000000000000 23.00000000000000000 -0.00000000000000000 -0.00000000000000022 -1.00000000000000000 -1.00000000000000000 0.00000000000000000 0.00000000000000000 0.00000000000000000 1.00000000000000000 -0.00000000000000022 
1 115.00000000000000000 85.00000000000000000 0.00000000000000000 1.00000000000000000 0.00000000000000000 -0.00000000000000000 0.00000000000000000 -1.00000000000000000 0.00000000000000000 0.00000000000000000 -0.00000000000000000 -1.00000000000000000 
Triangulations 0

TShapes 127
Ve
0.000000100000005
68.500000000000000 20.000000000000000 0.000000000000000
0 0

0101101
*
Ve
0.000000100000000
68.500000000000000 -2.000000000000000 19.699999999999999
0 0

0101101
*
Ed
 0.000000100000000 1 1 0
1  1 0 -8.500000000000000 -8.199999999999999
2  1 1 11 -8.500000000000000 -8.199999999999999
2  2 2 2 -8.500000000000000 -8.199999999999999
0

0101000
+127 14 -126 0 *
Ve
0.000000100000005
68.500000000000000 23.000000000000000 0.000000000000000
0 0

0101101
*
Ed
 0.000000100000005 1 1 0
1  2 0 0.000000000000000 3.000000000000000
2  3 2 15 0.000000000000000 3.000000000000000
2  4 2 17 0.000000000000000 3.000000000000000
2  5 3 18 0.000000000000000 3.000000000000000
2  6 1 19 0.000000000000000 3.000000000000000
0

0101000
+124 0 -127 0 *
Ve
0.000000100000000
46.500000000000000 -2.000000000000000 19.699999999999999
0 0

0101101
*
Ed
 0.000000100000000 1 1 0
1  3 0 -0.000000000000000 22.000000000000000
2  7 4 0 -0.000000000000000 22.000000000000000
2  8 1 11 -0.000000000000000 22.000000000000000
0

0101000
+126 0 -122 0 *
Ve
0.000000100000000
68.500000000000000 -2.000000000000000 23.300000000000001
0 0

0101101
*
Ed
 0.000000100000000 1 1 0
1  4 0 11.500000000000000 11.800000000000001
2  9 1 11 11.500000000000000 11.800000000000001
2  10 2 2 11.500000000000000 11.800000000000001
0

0101000
+124 14 -120 0 *
Ve
0.000000100000005
46.500000000000000 20.000000000000000 0.000000000000000
0 0

0101101
*
Ed
 0.000000100000000 1 1 0
1  5 0 -10.000000000000000 -9.699999999999999
2  11 1 11 -10.000000000000000 -9.699999999999999
2  12 5 2 -10.000000000000000 -9.699999999999999
0

0101000
+118 14 -122 0 *
Ve
0.000000100000000
46.500000000000000 -2.000000000000000 23.300000000000001
0 0

0101101
*
Ed
 0.000000100000000 1 1 0
1  6 0 -0.000000000000000 22.000000000000000
2  13 6 0 -0.000000000000000 22.000000000000000
2  14 1 11 -0.000000000000000 22.000000000000000
0

0101000
+116 0 -120 0 *
Ve
0.000000100000005
46.500000000000000 23.000000000000000 0.000000000000000
0 0

0101101
*
Ed
 0.000000100000005 1 1 0
1  7 0 0.000000000000000 3.000000000000000
2  15 5 15 0.000000000000000 3.000000000000000
2  16 5 17 0.000000000000000 3.000000000000000
2  17 3 18 0.000000000000000 3.000000000000000
2  18 1 19 0.000000000000000 3.000000000000000
0

0101000
+118 0 -114 0 *
Ed
 0.000000100000000 1 1 0
1  8 0 13.000000000000000 13.300000000000001
2  19 1 11 13.000000000000000 13.300000000000001
2  20 5 2 13.000000000000000 13.300000000000001
0

0101000
+114 14 -116 0 *
Wi

0101100
+125 0 +123 14 +121 0 -119 0 -117 0 +115 0 +113 14 +112 0 *
Ve
0.001000000000000
-2.000000000000000 -2.000000000000000 30.000000000000000
0 0

0101101
*
Ve
0.001000000000000
-2.000000000000000 -2.000000000000000 -2.000000000000000
0 0

0101101
*
Ed
 0.001000000000000 1 1 0
1  9 0 -30.000000000000000 2.000000000000000
2  21 1 6 -30.000000000000000 2.000000000000000
2  22 7 6 -30.000000000000000 2.000000000000000
0

0101000
+110 0 -109 0 *
Ve
0.001000000000000
117.000000000000000 -2.000000000000000 30.000000000000000
0 0

0101101
*
Ed
 0.001000000000000 1 1 0
1  10 0 -88.250000000000000 30.750000000000000
2  23 8 23 -88.250000000000000 30.750000000000000
2  24 1 6 -88.250000000000000 30.750000000000000
0

0101000
+110 0 -107 0 *
Ve
0.001000000000000
117.000000000000000 -2.000000000000000 -2.000000000000000
0 0

0101101
*
Ed
 0.001000000000000 1 1 0
1  11 0 -30.750000000000000 88.250000000000000
2  25 1 6 -30.750000000000000 88.250000000000000
2  26 9 24 -30.750000000000000 88.250000000000000
0

0101000
+105 0 -109 0 *
Ed
 0.001000000000000 1 1 0
1  12 0 -30.000000000000000 2.000000000000000
2  27 10 6 -30.000000000000000 2.000000000000000
2  28 1 6 -30.000000000000000 2.000000000000000
0

0101000
+107 0 -105 0 *
Wi

0101100
+108 20 -106 20 -104 20 -103 20 *
Fa
0  0.000000100000000 1 9

0101000
+111 10 +102 0 *
Ve
0.000000100000000
68.500000000000000 -1.699999999999998 22.999999999999996
0 0

0101101
*
Ed
 0.000000100000000 1 1 0
1  13 0 0.299999999999997 1.000000000000000
2  29 11 0 0.299999999999997 1.000000000000000
2  30 2 0 0.299999999999997 1.000000000000000
0

0101000
+100 10 -124 25 *
Ed
 0.000000100000000 1 1 0
1  14 0 -0.212132034355964 0.212132034355964
2  31 6 0 -0.212132034355964 0.212132034355964
2  32 2 2 -0.212132034355964 0.212132034355964
0

0101000
+120 0 -100 0 *
Ve
0.000000100000000
68.500000000000000 -1.700000000000001 20.000000000000000
0 0

0101101
*
Ed
 0.000000100000000 1 1 0
1  15 0 0.299999999999995 1.000000000000000
2  33 2 0 0.299999999999995 1.000000000000000
2  34 12 0 0.299999999999995 1.000000000000000
0

0101000
+97 10 -127 25 *
Ed
 0.000000100000000 1 1 0
1  16 0 -1.272792206135790 -0.848528137423861
2  35 4 0 -1.272792206135790 -0.848528137423861
2  36 2 2 -1.272792206135790 -0.848528137423861
0

0101000
+126 0 -97 0 *
Wi

0101100
+99 2 +98 0 +123 26 +119 0 -96 2 -123 14 -95 0 -125 0 *
Fa
0  0.000000100000000 2 0

0111000
+94 10 *
Ve
0.000000100000000
46.500000000000000 -1.700000000000001 20.000000000000000
0 0

0101101
*
Ed
 0.000000100000000 1 1 0
1  17 0 0.000000000000000 22.000000000000000
2  37 4 0 0.000000000000000 22.000000000000000
2  38 12 2 0.000000000000000 22.000000000000000
0

0101000
+97 0 -92 0 *
Ed
 0.000000100000000 1 1 0
1  18 0 -0.212132034355967 0.212132034355962
2  39 4 0 -0.212132034355967 0.212132034355962
2  40 5 2 -0.212132034355967 0.212132034355962
0

0101000
+122 0 -92 0 *
Wi

0101100
-95 0 +121 0 -91 0 +90 0 *
Fa
0  0.000000000000000 4 0

0111000
+89 0 *
Ed
 0.000000100000000 1 1 0
1  19 0 0.299999999999995 1.000000000000000
2  41 12 0 0.299999999999995 1.000000000000000
2  42 5 0 0.299999999999995 1.000000000000000
0

0101000
+92 10 -118 25 *
Ve
0.000000100000000
46.500000000000000 -1.699999999999998 22.999999999999996
0 0

0101101
*
Ed
 0.000000100000000 1 1 0
1  20 0 0.299999999999997 1.000000000000000
2  43 11 0 0.299999999999997 1.000000000000000
2  44 5 0 0.299999999999997 1.000000000000000
0

0101000
+86 10 -114 25 *
Ed
 0.000000100000000 1 1 0
1  21 0 -1.272792206135785 -0.848528137423858
2  45 6 0 -1.272792206135785 -0.848528137423858
2  46 5 2 -1.272792206135785 -0.848528137423858
0

0101000
+116 0 -86 0 *
Wi

0101100
+87 2 +90 0 +113 26 +117 0 -85 2 -113 14 -84 0 -112 0 *
Fa
0  0.000000100000000 5 0

0111000
+83 10 *
Ed
 0.000000100000000 1 1 0
1  22 0 0.000000000000000 22.000000000000000
2  47 6 0 0.000000000000000 22.000000000000000
2  48 11 2 0.000000000000000 22.000000000000000
0

0101000
+86 0 -100 0 *
Wi

0101100
-84 0 +115 0 -81 0 +98 0 *
Fa
0  0.000000000000000 6 0

0111000
+80 0 *
Ve
0.001000000000000
-2.000000000000000 87.000000000000000 -2.000000000000000
0 0

0101101
*
Ed
 0.001000000000000 1 1 0
1  23 0 -23.250000000000000 65.750000000000000
2  49 7 6 -23.250000000000000 65.750000000000000
2  50 9 24 -23.250000000000000 65.750000000000000
0

0101000
+109 0 -78 0 *
Ve
0.001000000000000
-2.000000000000000 87.000000000000000 30.000000000000000
0 0

0101101
*
Ed
 0.001000000000000 1 1 0
1  24 0 -65.750000000000000 23.250000000000000
2  51 8 23 -65.750000000000000 23.250000000000000
2  52 7 6 -65.750000000000000 23.250000000000000
0

0101000
+76 0 -110 0 *
Ed
 0.001000000000000 1 1 0
1  25 0 -2.000000000000000 30.000000000000000
2  53 13 6 -2.000000000000000 30.000000000000000
2  54 7 6 -2.000000000000000 30.000000000000000
0

0101000
+78 0 -76 0 *
Wi

0101100
-77 0 -108 0 -75 0 -74 0 *
Fa
0  0.000000100000000 7 0

0111000
+73 29 *
Ve
0.001000000000000
0.000000000000000 85.000000000000000 0.000000000000000
0 0

0101101
*
Ve
0.001000000000000
115.000000000000000 85.000000000000000 0.000000000000000
0 0

0101101
*
Ed
 0.001000000000000 1 1 0
1  26 0 0.000000000000000 115.000000000000000
2  55 8 35 0.000000000000000 115.000000000000000
2  56 14 36 0.000000000000000 115.000000000000000
2  57 14 37 0.000000000000000 115.000000000000000
0

0101000
+71 0 -70 0 *
Ve
0.001000000000000
115.000000000000000 0.000000000000000 0.000000000000000
0 0

0101101
*
Ed
 0.001000000000000 1 1 0
1  27 0 0.000000000000000 85.000000000000000
2  58 8 35 0.000000000000000 85.000000000000000
0

0101000
+70 0 -68 0 *
Ve
0.001000000000000
0.000000000000000 0.000000000000000 0.000000000000000
0 0

0101101
*
Ed
 0.001000000000000 1 1 0
1  28 0 0.000000000000000 115.000000000000000
2  59 8 35 0.000000000000000 115.000000000000000
2  60 15 36 0.000000000000000 115.000000000000000
2  61 15 37 0.000000000000000 115.000000000000000
0

0101000
+68 0 -66 0 *
Ed
 0.001000000000000 1 1 0
1  29 0 0.000000000000000 85.000000000000000
2  62 8 35 0.000000000000000 85.000000000000000
2  63 16 36 0.000000000000000 85.000000000000000
2  64 16 37 0.000000000000000 85.000000000000000
0

0101000
+66 0 -71 0 *
Wi

0101100
+69 34 +67 34 +65 34 +64 34 *
Ve
0.001000000000000
117.000000000000000 87.000000000000000 30.000000000000000
0 0

0101101
*
Ed
 0.001000000000000 1 1 0
1  30 0 -88.250000000000000 30.750000000000000
2  65 8 23 -88.250000000000000 30.750000000000000
2  66 13 6 -88.250000000000000 30.750000000000000
0

0101000
+62 0 -76 0 *
Ed
 0.001000000000000 1 1 0
1  31 0 -65.750000000000000 23.250000000000000
2  67 8 23 -65.750000000000000 23.250000000000000
2  68 10 6 -65.750000000000000 23.250000000000000
0

0101000
+107 0 -62 0 *
Wi

0101100
+61 0 +75 0 +106 0 +60 0 *
Fa
0  0.000000100000000 8 0

0111000
+63 31 +59 31 *
Ve
0.001000000000000
117.000000000000000 87.000000000000000 -2.000000000000000
0 0

0101101
*
Ed
 0.001000000000000 1 1 0
1  32 0 -30.750000000000000 88.250000000000000
2  69 13 6 -30.750000000000000 88.250000000000000
2  70 9 24 -30.750000000000000 88.250000000000000
0

0101000
+78 0 -57 0 *
Ed
 0.001000000000000 1 1 0
1  33 0 -23.250000000000000 65.750000000000000
2  71 10 6 -23.250000000000000 65.750000000000000
2  72 9 24 -23.250000000000000 65.750000000000000
0

0101000
+57 0 -105 0 *
Wi

0101100
-56 0 -77 0 -104 0 -55 0 *
Fa
0  0.000000100000000 9 0

0101000
+54 39 *
Ed
 0.001000000000000 1 1 0
1  34 0 -30.000000000000000 2.000000000000000
2  73 13 6 -30.000000000000000 2.000000000000000
2  74 10 6 -30.000000000000000 2.000000000000000
0

0101000
+62 0 -57 0 *
Wi

0101100
+103 0 -55 0 -52 0 -60 0 *
Fa
0  0.000000100000000 10 0

0111000
+51 29 *
Ed
 0.000000100000005 1 1 0
1  35 0 0.000000000000000 22.000000000000000
2  75 11 15 0.000000000000000 22.000000000000000
2  76 11 17 0.000000000000000 22.000000000000000
2  77 3 18 0.000000000000000 22.000000000000000
2  78 1 19 0.000000000000000 22.000000000000000
0

0101000
+114 0 -124 0 *
Wi

0101100
+85 2 -81 0 +49 26 -99 2 *
Fa
0  0.000000100000000 11 0

0111000
+48 10 *
Ed
 0.000000100000004 1 1 0
1  36 0 0.000000000000000 22.000000000000000
2  79 12 15 0.000000000000000 22.000000000000000
2  80 12 17 0.000000000000000 22.000000000000000
2  81 3 18 0.000000000000000 22.000000000000000
2  82 1 19 0.000000000000000 22.000000000000000
0

0101000
+127 0 -118 0 *
Wi

0101100
+49 0 +123 0 +46 0 +113 0 *
Fa
0  0.000000100000000 3 0

0111000
+45 41 *
Wi

0101100
+96 2 -91 0 +46 26 -87 2 *
Fa
0  0.000000100000000 12 0

0111000
+43 10 *
Wi

0101100
+74 42 -56 42 -61 42 +52 42 *
Ve
0.000000100000000
-68.500000000000000 20.000000000000000 0.000000000000000
0 0

0101101
*
Ve
0.000000100000000
-68.500000000000000 23.000000000000000 0.000000000000000
0 0

0101101
*
Ed
 0.000000100000000 1 1 0
1  37 0 0.000000000000000 3.000000000000000
2  83 17 46 0.000000000000000 3.000000000000000
2  84 17 48 0.000000000000000 3.000000000000000
2  85 18 49 0.000000000000000 3.000000000000000
2  86 13 50 0.000000000000000 3.000000000000000
0

0101000
+40 0 -39 0 *
Ve
0.000000100000000
-46.500000000000000 20.000000000000000 0.000000000000000
0 0

0101101
*
Ed
 0.000000100000000 1 1 0
1  38 0 0.000000000000000 22.000000000000000
2  87 19 46 0.000000000000000 22.000000000000000
2  88 19 48 0.000000000000000 22.000000000000000
2  89 18 49 0.000000000000000 22.000000000000000
2  90 13 50 0.000000000000000 22.000000000000000
0

0101000
+37 0 -40 0 *
Ve
0.000000100000000
-46.500000000000000 23.000000000000000 0.000000000000000
0 0

0101101
*
Ed
 0.000000100000000 1 1 0
1  39 0 0.000000000000000 3.000000000000000
2  91 20 46 0.000000000000000 3.000000000000000
2  92 20 48 0.000000000000000 3.000000000000000
2  93 18 49 0.000000000000000 3.000000000000000
2  94 13 50 0.000000000000000 3.000000000000000
0

0101000
+35 0 -37 0 *
Ed
 0.000000100000000 1 1 0
1  40 0 0.000000000000000 22.000000000000000
2  95 21 46 0.000000000000000 22.000000000000000
2  96 21 48 0.000000000000000 22.000000000000000
2  97 18 49 0.000000000000000 22.000000000000000
2  98 13 50 0.000000000000000 22.000000000000000
0

0101000
+39 0 -35 0 *
Wi

0101100
+38 45 +36 45 +34 45 +33 45 *
Fa
0  0.000000100000000 13 28

0101000
+41 0 +32 0 *
Ed
 0.000000100000000 1 1 0
1  41 0 0.000000000000000 30.000000000000000
2  99 14 0 0.000000000000000 30.000000000000000
2  100 16 0 0.000000000000000 30.000000000000000
0

0101000
+71 51 -71 52 *
Ed
 0.000000100000000 1 1 0
1  42 0 0.000000000000000 30.000000000000000
2  101 14 0 0.000000000000000 30.000000000000000
0

0101000
+70 51 -70 52 *
Wi

0101100
+30 0 -29 0 -69 51 +69 52 *
Fa
0  0.000000100000000 14 0

0111000
+28 0 *
Ed
 0.000000100000000 1 1 0
1  43 0 0.000000000000000 30.000000000000000
2  102 15 0 0.000000000000000 30.000000000000000
0

0101000
+68 51 -68 52 *
Wi

0101100
+29 0 -26 0 -67 51 +67 52 *
Fa
0  0.000000100000000 22 0

0111000
+25 0 *
Ed
 0.000000100000000 1 1 0
1  44 0 0.000000000000000 30.000000000000000
2  103 15 0 0.000000000000000 30.000000000000000
2  104 16 0 0.000000000000000 30.000000000000000
0

0101000
+66 51 -66 52 *
Wi

0101100
+26 0 -23 0 -65 51 +65 52 *
Fa
0  0.000000100000000 15 0

0101000
+22 0 *
Wi

0101100
+23 0 -30 0 -64 51 +64 52 *
Fa
0  0.000000100000000 16 0

0111000
+20 0 *
Ed
 0.000000100000000 1 1 0
1  45 0 0.000000000000000 1.000000000000000
2  105 19 0 0.000000000000000 1.000000000000000
2  106 17 0 0.000000000000000 1.000000000000000
0

0101000
+40 45 -40 53 *
Ed
 0.000000100000000 1 1 0
1  46 0 0.000000000000000 1.000000000000000
2  107 21 0 0.000000000000000 1.000000000000000
2  108 17 0 0.000000000000000 1.000000000000000
0

0101000
+39 45 -39 53 *
Wi

0101100
+18 0 -17 0 -38 45 +38 53 *
Fa
0  0.000000100000000 17 0

0101000
+16 0 *
Ed
 0.000000100000000 1 1 0
1  47 0 0.000000000000000 1.000000000000000
2  109 20 0 0.000000000000000 1.000000000000000
2  110 19 0 0.000000000000000 1.000000000000000
0

0101000
+37 45 -37 53 *
Wi

0101100
+14 0 -18 0 -36 45 +36 53 *
Fa
0  0.000000100000000 19 0

0101000
+13 0 *
Ed
 0.000000100000000 1 1 0
1  48 0 0.000000000000000 1.000000000000000
2  111 21 0 0.000000000000000 1.000000000000000
2  112 20 0 0.000000000000000 1.000000000000000
0

0101000
+35 45 -35 53 *
Wi

0101100
+11 0 -14 0 -34 45 +34 53 *
Fa
0  0.000000100000000 20 0

0101000
+10 0 *
Wi

0101100
+17 0 -11 0 -33 45 +33 53 *
Fa
0  0.000000100000000 21 0

0101000
+8 0 *
Wi

0101100
+69 0 +67 0 +65 0 +64 0 *
Fa
0  0.000000100000000 8 0

0101000
-6 54 *
Wi

0101100
+33 0 +34 0 +36 0 +38 0 *
Fa
0  0.000000100000000 18 0

0111000
-4 56 *
Sh

0101100
+101 5 +93 5 -88 27 +82 5 -79 27 +72 28 +58 30 -53 38 +50 28 +47 5 
-44 40 +42 5 +31 0 -27 28 -24 28 -21 28 -19 28 +15 0 +12 0 +9 0 
+7 0 +5 38 +3 55 *
So

0100000
+2 0 *

+1 1 