
CASCADE Topology V1, (c) Matra-Datavision
Locations 18
1
1.000000000000000 0.000000000000000 0.000000000000000 0.000000000000000 
0.000000000000000 1.000000000000000 0.000000000000000 0.000000000000000 
0.000000000000000 0.000000000000000 1.000000000000000 0.000000000000000 
1
1.000000000000000 0.000000000000000 0.000000000000000 0.000000000000000 
0.000000000000000 1.000000000000000 0.000000000000000 0.000000000000000 
0.000000000000000 0.000000000000000 1.000000000000000 0.000000000000000 
1
1.000000000000000 0.000000000000000 0.000000000000000 0.000000000000000 
0.000000000000000 1.000000000000000 0.000000000000000 0.000000000000000 
0.000000000000000 0.000000000000000 1.000000000000000 0.000000000000000 
1
1.000000000000000 0.000000000000000 0.000000000000000 0.000000000000000 
0.000000000000000 1.000000000000000 0.000000000000000 0.000000000000000 
0.000000000000000 0.000000000000000 1.000000000000000 0.000000000000000 
1
1.000000000000000 0.000000000000000 0.000000000000000 0.000000000000000 
0.000000000000000 1.000000000000000 0.000000000000000 0.000000000000000 
0.000000000000000 0.000000000000000 1.000000000000000 0.000000000000000 
2  3 1 4 1 5 -1 0
1
1.000000000000000 0.000000000000000 0.000000000000000 0.000000000000000 
0.000000000000000 1.000000000000000 0.000000000000000 0.000000000000000 
0.000000000000000 0.000000000000000 1.000000000000000 30.000000000000000 
2  3 1 4 1 5 -1 7 1 0
2  4 -1 3 -1 0
2  5 1 4 -1 3 -1 0
2  7 -1 5 1 4 -1 3 -1 0
2  5 -1 2 1 0
2  3 1 4 1 0
2  5 -1 7 1 2 1 0
2  2 -1 7 -1 5 1 0
2  3 1 4 1 5 -1 7 1 2 1 0
2  2 -1 0
2  2 -1 5 1 0
Curve2ds 40
1 0.00000000000000000 0.00000000000000000 0.00000000000000000 -1.00000000000000000 
1 115.00000000000000000 0.00000000000000000 0.00000000000000000 -1.00000000000000000 
1 0.00000000000000000 0.00000000000000000 0.00000000000000000 -1.00000000000000000 
1 -57.50000000000000000 42.50000000000000000 1.00000000000000000 0.00000000000000000 
1 0.00000000000000000 0.00000000000000000 1.00000000000000000 0.00000000000000000 
1 0.00000000000000000 -30.00000000000000000 1.00000000000000000 0.00000000000000000 
1 0.00000000000000000 -0.00000000000000000 0.00000000000000000 -1.00000000000000000 
1 85.00000000000000000 0.00000000000000000 0.00000000000000000 -1.00000000000000000 
1 57.50000000000000000 42.50000000000000000 0.00000000000000000 -1.00000000000000000 
1 0.00000000000000000 0.00000000000000000 1.00000000000000000 0.00000000000000000 
1 0.00000000000000000 -30.00000000000000000 1.00000000000000000 0.00000000000000000 
1 115.00000000000000000 0.00000000000000000 0.00000000000000000 -1.00000000000000000 
1 57.50000000000000000 -42.50000000000000000 -1.00000000000000000 0.00000000000000000 
1 0.00000000000000000 -0.00000000000000000 1.00000000000000000 0.00000000000000000 
1 0.00000000000000000 -30.00000000000000000 1.00000000000000000 0.00000000000000000 
1 -57.50000000000000000 -42.50000000000000000 0.00000000000000000 1.00000000000000000 
8 -86.25000000000000000 28.75000000000000000
1 28.75000000000000000 -40.50000000000000000 1.00000000000000000 0.00000000000000000 
8 -86.25000000000000000 28.75000000000000000
1 28.75000000000000000 -30.00000000000000000 -1.00000000000000000 0.00000000000000000 
8 -63.75000000000000000 21.25000000000000000
1 -55.50000000000000000 -21.25000000000000000 0.00000000000000000 -1.00000000000000000 
8 -63.75000000000000000 21.25000000000000000
1 21.25000000000000000 -30.00000000000000000 -1.00000000000000000 0.00000000000000000 
8 -86.25000000000000000 28.75000000000000000
1 -28.75000000000000000 40.50000000000000000 -1.00000000000000000 0.00000000000000000 
8 -86.25000000000000000 28.75000000000000000
1 28.75000000000000000 -30.00000000000000000 -1.00000000000000000 0.00000000000000000 
8 -63.75000000000000000 21.25000000000000000
1 55.50000000000000000 21.25000000000000000 0.00000000000000000 1.00000000000000000 
8 -63.75000000000000000 21.25000000000000000
1 21.25000000000000000 -30.00000000000000000 -1.00000000000000000 0.00000000000000000 
8 -10000000.00000000000000000 10000000.00000000000000000
1 2.00000000000000000 0.00000000000000000 0.00000000000000000 -1.00000000000000000 
8 -10000000.00000000000000000 10000000.00000000000000000
1 83.00000000000000000 0.00000000000000000 0.00000000000000000 -1.00000000000000000 
8 -10000000.00000000000000000 10000000.00000000000000000
1 113.00000000000000000 0.00000000000000000 0.00000000000000000 1.00000000000000000 
8 -10000000.00000000000000000 10000000.00000000000000000
1 2.00000000000000000 0.00000000000000000 0.00000000000000000 1.00000000000000000 
8 -9999971.25000000000000000 9999971.25000000000000000
1 28.75000000000000000 -2.00000000000000000 1.00000000000000000 0.00000000000000000 
8 -9999971.25000000000000000 9999971.25000000000000000
1 -28.75000000000000000 40.50000000000000000 1.00000000000000000 0.00000000000000000 
8 -10000000.00000000000000000 10000000.00000000000000000
1 83.00000000000000000 0.00000000000000000 0.00000000000000000 1.00000000000000000 
8 -10000000.00000000000000000 10000000.00000000000000000
1 2.00000000000000000 0.00000000000000000 0.00000000000000000 1.00000000000000000 
8 -9999978.75000000000000000 9999978.75000000000000000
1 21.25000000000000000 -2.00000000000000000 1.00000000000000000 0.00000000000000000 
8 -9999978.75000000000000000 9999978.75000000000000000
1 55.50000000000000000 21.25000000000000000 0.00000000000000000 -1.00000000000000000 
8 -10000000.00000000000000000 10000000.00000000000000000
1 113.00000000000000000 0.00000000000000000 0.00000000000000000 1.00000000000000000 
8 -10000000.00000000000000000 10000000.00000000000000000
1 2.00000000000000000 0.00000000000000000 -0.00000000000000000 1.00000000000000000 
8 -9999971.25000000000000000 9999971.25000000000000000
1 28.75000000000000000 -2.00000000000000000 1.00000000000000000 0.00000000000000000 
8 -9999971.25000000000000000 9999971.25000000000000000
1 28.75000000000000000 -40.50000000000000000 -1.00000000000000000 0.00000000000000000 
8 -9999978.75000000000000000 9999978.75000000000000000
1 21.25000000000000000 -2.00000000000000000 1.00000000000000000 0.00000000000000000 
8 -9999978.75000000000000000 9999978.75000000000000000
1 -55.50000000000000000 -21.25000000000000000 0.00000000000000000 1.00000000000000000 
Curves 20
1 0.00000000000000000 85.00000000000000000 0.00000000000000000 0.00000000000000000 0.00000000000000000 1.00000000000000000 
1 115.00000000000000000 85.00000000000000000 0.00000000000000000 0.00000000000000000 0.00000000000000000 1.00000000000000000 
1 0.00000000000000000 85.00000000000000000 0.00000000000000000 1.00000000000000000 0.00000000000000000 0.00000000000000000 
1 115.00000000000000000 0.00000000000000000 0.00000000000000000 0.00000000000000000 0.00000000000000000 1.00000000000000000 
1 115.00000000000000000 85.00000000000000000 0.00000000000000000 0.00000000000000000 -1.00000000000000000 0.00000000000000000 
1 0.00000000000000000 0.00000000000000000 0.00000000000000000 0.00000000000000000 0.00000000000000000 1.00000000000000000 
1 115.00000000000000000 0.00000000000000000 0.00000000000000000 -1.00000000000000000 0.00000000000000000 0.00000000000000000 
1 0.00000000000000000 0.00000000000000000 0.00000000000000000 0.00000000000000000 1.00000000000000000 0.00000000000000000 
1 86.25000000000000000 2.00000000000000000 30.00000000000000000 1.00000000000000000 0.00000000000000000 -0.00000000000000000 
1 2.00000000000000000 21.25000000000000000 30.00000000000000000 0.00000000000000000 -1.00000000000000000 0.00000000000000000 
1 28.75000000000000000 83.00000000000000000 30.00000000000000000 -1.00000000000000000 0.00000000000000000 0.00000000000000000 
1 113.00000000000000000 63.75000000000000000 30.00000000000000000 0.00000000000000000 1.00000000000000000 0.00000000000000000 
8 -10000000.00000000000000000 10000000.00000000000000000
1 2.00000000000000000 83.00000000000000000 0.00000000000000000 0.00000000000000000 -0.00000000000000000 1.00000000000000000 
8 -10000000.00000000000000000 10000000.00000000000000000
1 113.00000000000000000 83.00000000000000000 0.00000000000000000 0.00000000000000000 0.00000000000000000 -1.00000000000000000 
8 -9999971.25000000000000000 9999971.25000000000000000
1 28.75000000000000000 83.00000000000000000 2.00000000000000000 1.00000000000000000 0.00000000000000000 0.00000000000000000 
8 -10000000.00000000000000000 10000000.00000000000000000
1 113.00000000000000000 2.00000000000000000 0.00000000000000000 0.00000000000000000 0.00000000000000000 -1.00000000000000000 
8 -9999978.75000000000000000 9999978.75000000000000000
1 113.00000000000000000 63.75000000000000000 2.00000000000000000 0.00000000000000000 -1.00000000000000000 0.00000000000000000 
8 -10000000.00000000000000000 10000000.00000000000000000
1 2.00000000000000000 2.00000000000000000 0.00000000000000000 -0.00000000000000000 -0.00000000000000000 -1.00000000000000000 
8 -9999971.25000000000000000 9999971.25000000000000000
1 86.25000000000000000 2.00000000000000000 2.00000000000000000 -1.00000000000000000 0.00000000000000000 0.00000000000000000 
8 -9999978.75000000000000000 9999978.75000000000000000
1 2.00000000000000000 21.25000000000000000 2.00000000000000000 0.00000000000000000 1.00000000000000000 -0.00000000000000000 
Polygon3D 0
PolygonOnTriangulations 0
Surfaces 10
1 0.00000000000000000 85.00000000000000000 0.00000000000000000 0.00000000000000000 1.00000000000000000 0.00000000000000000 1.00000000000000000 0.00000000000000000 0.00000000000000000 0.00000000000000000 0.00000000000000000 -1.00000000000000000 
1 115.00000000000000000 85.00000000000000000 0.00000000000000000 1.00000000000000000 0.00000000000000000 -0.00000000000000000 0.00000000000000000 -1.00000000000000000 0.00000000000000000 0.00000000000000000 -0.00000000000000000 -1.00000000000000000 
1 57.50000000000000000 42.50000000000000000 0.00000000000000000 0.00000000000000000 0.00000000000000000 1.00000000000000000 1.00000000000000000 0.00000000000000000 -0.00000000000000000 -0.00000000000000000 1.00000000000000000 0.00000000000000000 
1 115.00000000000000000 0.00000000000000000 0.00000000000000000 0.00000000000000000 -1.00000000000000000 0.00000000000000000 -1.00000000000000000 0.00000000000000000 0.00000000000000000 -0.00000000000000000 -0.00000000000000000 -1.00000000000000000 
1 0.00000000000000000 0.00000000000000000 0.00000000000000000 -1.00000000000000000 0.00000000000000000 0.00000000000000000 0.00000000000000000 1.00000000000000000 0.00000000000000000 0.00000000000000000 0.00000000000000000 -1.00000000000000000 
1 115.00000000000000000 2.00000000000000000 0.00000000000000000 0.00000000000000000 -1.00000000000000000 0.00000000000000000 -1.00000000000000000 0.00000000000000000 0.00000000000000000 -0.00000000000000000 -0.00000000000000000 -1.00000000000000000 
1 2.00000000000000000 0.00000000000000000 0.00000000000000000 -1.00000000000000000 0.00000000000000000 0.00000000000000000 0.00000000000000000 1.00000000000000000 0.00000000000000000 0.00000000000000000 0.00000000000000000 -1.00000000000000000 
1 0.00000000000000000 83.00000000000000000 0.00000000000000000 0.00000000000000000 1.00000000000000000 0.00000000000000000 1.00000000000000000 0.00000000000000000 0.00000000000000000 0.00000000000000000 0.00000000000000000 -1.00000000000000000 
1 113.00000000000000000 85.00000000000000000 0.00000000000000000 1.00000000000000000 0.00000000000000000 -0.00000000000000000 0.00000000000000000 -1.00000000000000000 0.00000000000000000 0.00000000000000000 -0.00000000000000000 -1.00000000000000000 
1 57.50000000000000000 42.50000000000000000 2.00000000000000000 0.00000000000000000 0.00000000000000000 1.00000000000000000 1.00000000000000000 0.00000000000000000 -0.00000000000000000 -0.00000000000000000 1.00000000000000000 0.00000000000000000 
Triangulations 0

TShapes 57
Ve
0.001000000000000
0.000000000000000 85.000000000000000 0.000000000000000
0 0

0101101
*
Ed
 0.000000100000000 1 1 0
1  1 0 0.000000000000000 30.000000000000000
2  1 1 0 0.000000000000000 30.000000000000000
0

0101000
+57 6 -57 8 *
Ve
0.001000000000000
115.000000000000000 85.000000000000000 0.000000000000000
0 0

0101101
*
Ed
 0.000000100000000 1 1 0
1  2 0 0.000000000000000 30.000000000000000
2  2 1 0 0.000000000000000 30.000000000000000
2  3 2 0 0.000000000000000 30.000000000000000
0

0101000
+55 6 -55 8 *
Ed
 0.001000000000000 1 1 0
1  3 0 0.000000000000000 115.000000000000000
2  4 3 9 0.000000000000000 115.000000000000000
2  5 1 10 0.000000000000000 115.000000000000000
2  6 1 11 0.000000000000000 115.000000000000000
0

0101000
+57 0 -55 0 *
Wi

0101100
+56 0 -54 0 -53 6 +53 8 *
Fa
0  0.000000100000000 1 0

0111000
+52 0 *
Ve
0.001000000000000
115.000000000000000 0.000000000000000 0.000000000000000
0 0

0101101
*
Ed
 0.000000100000000 1 1 0
1  4 0 0.000000000000000 30.000000000000000
2  7 4 0 0.000000000000000 30.000000000000000
2  8 2 0 0.000000000000000 30.000000000000000
0

0101000
+50 6 -50 8 *
Ed
 0.001000000000000 1 1 0
1  5 0 0.000000000000000 85.000000000000000
2  9 3 9 0.000000000000000 85.000000000000000
2  10 2 10 0.000000000000000 85.000000000000000
2  11 2 11 0.000000000000000 85.000000000000000
0

0101000
+55 0 -50 0 *
Wi

0101100
+54 0 -49 0 -48 6 +48 8 *
Fa
0  0.000000100000000 2 0

0111000
+47 0 *
Ve
0.001000000000000
0.000000000000000 0.000000000000000 0.000000000000000
0 0

0101101
*
Ed
 0.000000100000000 1 1 0
1  6 0 0.000000000000000 30.000000000000000
2  12 4 0 0.000000000000000 30.000000000000000
0

0101000
+45 6 -45 8 *
Ed
 0.001000000000000 1 1 0
1  7 0 0.000000000000000 115.000000000000000
2  13 3 9 0.000000000000000 115.000000000000000
2  14 4 10 0.000000000000000 115.000000000000000
2  15 4 11 0.000000000000000 115.000000000000000
0

0101000
+50 0 -45 0 *
Wi

0101100
+49 0 -44 0 -43 6 +43 8 *
Fa
0  0.000000100000000 4 0

0111000
+42 0 *
Ed
 0.001000000000000 1 1 0
1  8 0 0.000000000000000 85.000000000000000
2  16 3 9 0.000000000000000 85.000000000000000
0

0101000
+45 0 -57 0 *
Wi

0101100
+44 0 -56 0 -40 6 +40 8 *
Fa
0  0.000000100000000 5 0

0111000
+39 0 *
Wi

0101100
+53 0 +48 0 +43 0 +40 0 *
Fa
0  0.000000100000000 3 0

0111000
-37 13 *
Wi

0101100
-53 16 -40 16 -43 16 -48 16 *
Ve
0.001000000000000
2.000000000000000 2.000000000000000 30.000000000000000
0 0

0101101
*
Ve
0.001000000000000
113.000000000000000 2.000000000000000 30.000000000000000
0 0

0101101
*
Ed
 0.001000000000000 1 1 0
1  9 0 -84.250000000000000 26.750000000000000
2  17 3 14 -84.250000000000000 26.750000000000000
2  18 6 2 -84.250000000000000 26.750000000000000
0

0101000
+34 0 -33 0 *
Ve
0.001000000000000
2.000000000000000 83.000000000000000 30.000000000000000
0 0

0101101
*
Ed
 0.001000000000000 1 1 0
1  10 0 -61.750000000000000 19.250000000000000
2  19 3 14 -61.750000000000000 19.250000000000000
2  20 7 2 -61.750000000000000 19.250000000000000
0

0101000
+31 0 -34 0 *
Ve
0.001000000000000
113.000000000000000 83.000000000000000 30.000000000000000
0 0

0101101
*
Ed
 0.001000000000000 1 1 0
1  11 0 -84.250000000000000 26.750000000000000
2  21 3 14 -84.250000000000000 26.750000000000000
2  22 8 2 -84.250000000000000 26.750000000000000
0

0101000
+29 0 -31 0 *
Ed
 0.001000000000000 1 1 0
1  12 0 -61.750000000000000 19.250000000000000
2  23 3 14 -61.750000000000000 19.250000000000000
2  24 9 2 -61.750000000000000 19.250000000000000
0

0101000
+33 0 -29 0 *
Wi

0101100
-32 0 -30 0 -28 0 -27 0 *
Fa
0  0.000000100000000 3 0

0101000
+35 15 +26 15 *
Ve
0.001000000000000
2.000000000000000 83.000000000000000 2.000000000000000
0 0

0101101
*
Ed
 0.001000000000000 1 1 0
1  13 0 2.000000000000000 30.000000000000000
2  25 8 2 2.000000000000000 30.000000000000000
2  26 7 2 2.000000000000000 30.000000000000000
0

0101000
+24 0 -31 0 *
Ve
0.001000000000000
113.000000000000000 83.000000000000000 2.000000000000000
0 0

0101101
*
Ed
 0.001000000000000 1 1 0
1  14 0 -30.000000000000000 -2.000000000000000
2  27 8 2 -30.000000000000000 -2.000000000000000
2  28 9 2 -30.000000000000000 -2.000000000000000
0

0101000
+29 0 -22 0 *
Ed
 0.001000000000000 1 1 0
1  15 0 -26.750000000000000 84.250000000000000
2  29 8 2 -26.750000000000000 84.250000000000000
2  30 10 12 -26.750000000000000 84.250000000000000
0

0101000
+24 0 -22 0 *
Wi

0101100
+23 0 -28 0 +21 0 -20 0 *
Fa
0  0.000000100000000 8 0

0101000
+19 17 *
Ve
0.001000000000000
113.000000000000000 2.000000000000000 2.000000000000000
0 0

0101101
*
Ed
 0.001000000000000 1 1 0
1  16 0 -30.000000000000000 -2.000000000000000
2  31 9 2 -30.000000000000000 -2.000000000000000
2  32 6 2 -30.000000000000000 -2.000000000000000
0

0101000
+33 0 -17 0 *
Ed
 0.001000000000000 1 1 0
1  17 0 -19.250000000000000 61.750000000000000
2  33 9 2 -19.250000000000000 61.750000000000000
2  34 10 12 -19.250000000000000 61.750000000000000
0

0101000
+22 0 -17 0 *
Wi

0101100
+16 0 -15 0 -21 0 -27 0 *
Fa
0  0.000000100000000 9 0

0101000
+14 17 *
Ve
0.001000000000000
2.000000000000000 2.000000000000000 2.000000000000000
0 0

0101101
*
Ed
 0.001000000000000 1 1 0
1  18 0 -30.000000000000000 -2.000000000000000
2  35 6 2 -30.000000000000000 -2.000000000000000
2  36 7 2 -30.000000000000000 -2.000000000000000
0

0101000
+34 0 -12 0 *
Ed
 0.001000000000000 1 1 0
1  19 0 -26.750000000000000 84.250000000000000
2  37 6 2 -26.750000000000000 84.250000000000000
2  38 10 12 -26.750000000000000 84.250000000000000
0

0101000
+17 0 -12 0 *
Wi

0101100
+11 0 -10 0 -16 0 -32 0 *
Fa
0  0.000000100000000 6 0

0101000
+9 17 *
Ed
 0.001000000000000 1 1 0
1  20 0 -19.250000000000000 61.750000000000000
2  39 7 2 -19.250000000000000 61.750000000000000
2  40 10 12 -19.250000000000000 61.750000000000000
0

0101000
+12 0 -24 0 *
Wi

0101100
-7 0 -11 0 -30 0 -23 0 *
Fa
0  0.000000100000000 7 0

0101000
+6 17 *
Wi

0101100
-20 0 -7 0 -10 0 -15 0 *
Fa
0  0.000000100000000 10 0

0101000
+4 18 *
Sh

0101100
+51 2 +46 2 +41 2 +38 2 -36 12 +25 14 -18 2 -13 2 -8 2 -5 2 
+3 12 *
So

1100100
+2 0 *

+1 1 