
CASCADE Topology V1, (c) Matra-Datavision
Locations 61
1
1.000000000000000 0.000000000000000 0.000000000000000 0.000000000000000 
0.000000000000000 1.000000000000000 0.000000000000000 0.000000000000000 
0.000000000000000 0.000000000000000 1.000000000000000 0.000000000000000 
1
1.000000000000000 0.000000000000000 0.000000000000000 0.000000000000000 
0.000000000000000 1.000000000000000 0.000000000000000 0.000000000000000 
0.000000000000000 0.000000000000000 1.000000000000000 0.000000000000000 
1
1.000000000000000 0.000000000000000 0.000000000000000 0.000000000000000 
0.000000000000000 1.000000000000000 0.000000000000000 0.000000000000000 
0.000000000000000 0.000000000000000 1.000000000000000 0.000000000000000 
2  1 1 2 1 3 -1 0
1
1.000000000000000 0.000000000000000 0.000000000000000 0.000000000000000 
0.000000000000000 1.000000000000000 0.000000000000000 0.000000000000000 
0.000000000000000 0.000000000000000 1.000000000000000 6.000000000000000 
2  1 1 2 1 3 -1 5 1 0
2  3 1 2 -1 1 -1 0
2  5 -1 3 1 2 -1 1 -1 0
2  2 -1 1 -1 0
1
1.000000000000000 0.000000000000000 0.000000000000000 0.000000000000000 
0.000000000000000 1.000000000000000 0.000000000000000 0.000000000000000 
0.000000000000000 0.000000000000000 1.000000000000000 0.000000000000000 
1
1.000000000000000 0.000000000000000 0.000000000000000 0.000000000000000 
0.000000000000000 1.000000000000000 0.000000000000000 0.000000000000000 
0.000000000000000 0.000000000000000 1.000000000000000 0.000000000000000 
1
1.000000000000000 0.000000000000000 0.000000000000000 0.000000000000000 
0.000000000000000 1.000000000000000 0.000000000000000 0.000000000000000 
0.000000000000000 0.000000000000000 1.000000000000000 0.000000000000000 
1
1.000000000000000 0.000000000000000 0.000000000000000 0.000000000000000 
0.000000000000000 1.000000000000000 0.000000000000000 0.000000000000000 
0.000000000000000 0.000000000000000 1.000000000000000 0.000000000000000 
1
1.000000000000000 0.000000000000000 0.000000000000000 0.000000000000000 
0.000000000000000 1.000000000000000 0.000000000000000 0.000000000000000 
0.000000000000000 0.000000000000000 1.000000000000000 0.000000000000000 
1
1.000000000000000 0.000000000000000 0.000000000000000 0.000000000000000 
0.000000000000000 1.000000000000000 0.000000000000000 0.000000000000000 
0.000000000000000 0.000000000000000 1.000000000000000 0.000000000000000 
1
1.000000000000000 0.000000000000000 0.000000000000000 0.000000000000000 
0.000000000000000 1.000000000000000 0.000000000000000 0.000000000000000 
0.000000000000000 0.000000000000000 1.000000000000000 0.000000000000000 
1
1.000000000000000 0.000000000000000 0.000000000000000 0.000000000000000 
0.000000000000000 1.000000000000000 0.000000000000000 0.000000000000000 
0.000000000000000 0.000000000000000 1.000000000000000 0.000000000000000 
1
1.000000000000000 0.000000000000000 0.000000000000000 0.000000000000000 
0.000000000000000 1.000000000000000 0.000000000000000 0.000000000000000 
0.000000000000000 0.000000000000000 1.000000000000000 0.000000000000000 
1
1.000000000000000 0.000000000000000 0.000000000000000 0.000000000000000 
0.000000000000000 1.000000000000000 0.000000000000000 0.000000000000000 
0.000000000000000 0.000000000000000 1.000000000000000 0.000000000000000 
1
1.000000000000000 0.000000000000000 0.000000000000000 0.000000000000000 
0.000000000000000 1.000000000000000 0.000000000000000 0.000000000000000 
0.000000000000000 0.000000000000000 1.000000000000000 0.000000000000000 
1
1.000000000000000 0.000000000000000 0.000000000000000 0.000000000000000 
0.000000000000000 1.000000000000000 0.000000000000000 0.000000000000000 
0.000000000000000 0.000000000000000 1.000000000000000 0.000000000000000 
1
1.000000000000000 0.000000000000000 0.000000000000000 0.000000000000000 
0.000000000000000 1.000000000000000 0.000000000000000 0.000000000000000 
0.000000000000000 0.000000000000000 1.000000000000000 0.000000000000000 
1
1.000000000000000 0.000000000000000 0.000000000000000 0.000000000000000 
0.000000000000000 1.000000000000000 0.000000000000000 0.000000000000000 
0.000000000000000 0.000000000000000 1.000000000000000 0.000000000000000 
1
1.000000000000000 0.000000000000000 0.000000000000000 0.000000000000000 
0.000000000000000 1.000000000000000 0.000000000000000 0.000000000000000 
0.000000000000000 0.000000000000000 1.000000000000000 0.000000000000000 
2  10 -1 11 1 12 1 13 -1 14 1 15 1 16 -1 17 1 18 1 19 -1 20 1 21 -1 22 1 23 -1 24 1 2 -1 1 -1 0
2  11 1 12 1 13 -1 14 1 15 1 16 -1 17 1 18 1 19 -1 20 1 21 -1 22 1 23 -1 24 1 3 -1 0
2  11 1 12 1 13 -1 14 1 15 1 16 -1 17 1 18 1 19 -1 20 1 21 -1 22 1 23 -1 24 1 2 -1 1 -1 0
2  11 1 12 1 13 -1 14 1 15 1 16 -1 17 1 18 1 19 -1 20 1 21 -1 22 1 23 -1 24 1 3 -1 5 -1 3 1 2 -1 1 -1 0
2  3 -1 0
2  1 1 2 1 0
2  3 -1 5 1 0
1
1.000000000000000 0.000000000000000 0.000000000000000 0.000000000000000 
0.000000000000000 1.000000000000000 0.000000000000000 0.000000000000000 
0.000000000000000 0.000000000000000 1.000000000000000 0.000000000000000 
1
1.000000000000000 0.000000000000000 0.000000000000000 0.000000000000000 
0.000000000000000 1.000000000000000 0.000000000000000 0.000000000000000 
0.000000000000000 0.000000000000000 1.000000000000000 0.000000000000000 
1
1.000000000000000 0.000000000000000 0.000000000000000 0.000000000000000 
0.000000000000000 1.000000000000000 0.000000000000000 0.000000000000000 
0.000000000000000 0.000000000000000 1.000000000000000 0.000000000000000 
1
1.000000000000000 0.000000000000000 0.000000000000000 0.000000000000000 
0.000000000000000 1.000000000000000 0.000000000000000 0.000000000000000 
0.000000000000000 0.000000000000000 1.000000000000000 0.000000000000000 
2  32 1 33 -1 34 1 35 -1 0
1
1.000000000000000 0.000000000000000 0.000000000000000 0.000000000000000 
0.000000000000000 1.000000000000000 0.000000000000000 0.000000000000000 
0.000000000000000 0.000000000000000 1.000000000000000 0.000000000000000 
2  37 1 33 -1 34 1 35 -1 0
1
1.000000000000000 0.000000000000000 0.000000000000000 0.000000000000000 
0.000000000000000 1.000000000000000 0.000000000000000 0.000000000000000 
0.000000000000000 0.000000000000000 1.000000000000000 0.000000000000000 
2  39 1 33 -1 34 1 35 -1 0
2  32 1 33 -1 34 1 35 -1 5 -1 3 1 2 -1 1 -1 0
2  37 1 33 -1 34 1 35 -1 5 -1 3 1 2 -1 1 -1 0
2  39 1 33 -1 34 1 35 -1 5 -1 3 1 2 -1 1 -1 0
1
1.000000000000000 0.000000000000000 0.000000000000000 0.000000000000000 
0.000000000000000 1.000000000000000 0.000000000000000 0.000000000000000 
0.000000000000000 0.000000000000000 1.000000000000000 0.000000000000000 
2  44 1 33 -1 34 1 35 -1 3 1 2 -1 1 -1 0
1
1.000000000000000 0.000000000000000 0.000000000000000 0.000000000000000 
0.000000000000000 1.000000000000000 0.000000000000000 0.000000000000000 
0.000000000000000 0.000000000000000 1.000000000000000 0.000000000000000 
2  46 1 33 -1 34 1 35 -1 3 1 2 -1 1 -1 0
1
1.000000000000000 0.000000000000000 0.000000000000000 0.000000000000000 
0.000000000000000 1.000000000000000 0.000000000000000 0.000000000000000 
0.000000000000000 0.000000000000000 1.000000000000000 0.000000000000000 
2  48 1 33 -1 34 1 35 -1 3 1 2 -1 1 -1 0
1
1.000000000000000 0.000000000000000 0.000000000000000 0.000000000000000 
0.000000000000000 1.000000000000000 0.000000000000000 0.000000000000000 
0.000000000000000 0.000000000000000 1.000000000000000 0.000000000000000 
2  50 1 33 -1 34 1 35 -1 3 1 2 -1 1 -1 0
1
1.000000000000000 0.000000000000000 0.000000000000000 0.000000000000000 
0.000000000000000 1.000000000000000 0.000000000000000 0.000000000000000 
0.000000000000000 0.000000000000000 1.000000000000000 0.000000000000000 
2  52 1 33 -1 34 1 35 -1 3 1 2 -1 1 -1 0
1
1.000000000000000 0.000000000000000 0.000000000000000 0.000000000000000 
0.000000000000000 1.000000000000000 0.000000000000000 0.000000000000000 
0.000000000000000 0.000000000000000 1.000000000000000 0.000000000000000 
2  54 1 33 -1 34 1 35 -1 3 1 2 -1 1 -1 0
1
1.000000000000000 0.000000000000000 0.000000000000000 0.000000000000000 
0.000000000000000 1.000000000000000 0.000000000000000 0.000000000000000 
0.000000000000000 0.000000000000000 1.000000000000000 0.000000000000000 
2  56 1 33 -1 34 1 35 -1 3 1 2 -1 1 -1 0
1
1.000000000000000 0.000000000000000 0.000000000000000 0.000000000000000 
0.000000000000000 1.000000000000000 0.000000000000000 0.000000000000000 
0.000000000000000 0.000000000000000 1.000000000000000 0.000000000000000 
2  58 1 33 -1 34 1 35 -1 3 1 2 -1 1 -1 0
1
1.000000000000000 0.000000000000000 0.000000000000000 0.000000000000000 
0.000000000000000 1.000000000000000 0.000000000000000 0.000000000000000 
0.000000000000000 0.000000000000000 1.000000000000000 0.000000000000000 
2  60 1 33 -1 34 1 35 -1 3 1 2 -1 1 -1 0
Curve2ds 135
1 3.14159265358979090 0.00000000000000000 0.00000000000000000 -1.00000000000000000 
1 0.00000000000000000 0.00000000000000000 0.00000000000000000 -1.00000000000000000 
1 4.71238898038468879 0.00000000000000000 0.00000000000000000 -1.00000000000000000 
1 0.00000000000000000 0.00000000000000000 0.00000000000000000 -1.00000000000000000 
1 0.00000000000000000 0.00000000000000000 1.00000000000000000 0.00000000000000000 
1 0.00000000000000000 -6.00000000000000000 1.00000000000000000 0.00000000000000000 
2 46.29369392211248169 30.26926281956809817 1.00000000000000000 0.00000000000000000 -0.00000000000000000 1.00000000000000000 2.90000000000000568
2 54.59999999999989484 24.59999999999990905 1.00000000000000000 0.00000000000000000 -0.00000000000000000 1.00000000000000000 2.90000000000000568
1 0.00000000000000000 0.00000000000000000 0.00000000000000000 -1.00000000000000000 
1 2.90000000000009095 0.00000000000000000 0.00000000000000000 -1.00000000000000000 
1 43.39369392211247600 30.26926281956809817 0.00000000000000000 1.00000000000000000 
1 0.00000000000000000 0.00000000000000000 1.00000000000000000 0.00000000000000000 
1 0.00000000000000000 -6.00000000000000000 1.00000000000000000 0.00000000000000000 
1 51.69999999999988916 24.59999999999990905 0.00000000000000000 1.00000000000000000 
1 5.80000000000011084 0.00000000000000000 0.00000000000000000 -1.00000000000000000 
1 0.00000000000000000 0.00000000000000000 0.00000000000000000 -1.00000000000000000 
1 15.00000000000000000 0.00000000000000000 0.00000000000000000 -1.00000000000000000 
1 0.00000000000000000 0.00000000000000000 1.00000000000000000 0.00000000000000000 
1 0.00000000000000000 -6.00000000000000000 1.00000000000000000 0.00000000000000000 
1 43.39369392211247600 33.16926281956818912 1.00000000000000000 0.00000000000000000 
1 51.69999999999988916 27.50000000000000000 1.00000000000000000 0.00000000000000000 
1 5.80000000000009663 0.00000000000000000 0.00000000000000000 -1.00000000000000000 
1 2.90000000000010516 0.00000000000000000 0.00000000000000000 -1.00000000000000000 
1 20.80000000000009663 0.00000000000000000 0.00000000000000000 -1.00000000000000000 
1 0.00000000000000000 0.00000000000000000 1.00000000000000000 0.00000000000000000 
1 0.00000000000000000 -6.00000000000000000 1.00000000000000000 0.00000000000000000 
1 49.19369392211258685 33.16926281956818912 0.00000000000000000 -1.00000000000000000 
1 15.00000000000000000 0.00000000000000000 1.00000000000000000 0.00000000000000000 
1 15.00000000000000000 -6.00000000000000000 1.00000000000000000 0.00000000000000000 
1 57.50000000000000000 27.50000000000000000 0.00000000000000000 -1.00000000000000000 
1 0.00000000000000000 0.00000000000000000 1.00000000000000000 0.00000000000000000 
1 0.00000000000000000 -6.00000000000000000 1.00000000000000000 0.00000000000000000 
1 46.29369392211248169 27.36926281956809248 1.00000000000000000 0.00000000000000000 
1 54.59999999999989484 21.69999999999990337 1.00000000000000000 0.00000000000000000 
1 1.57079632679489700 0.00000000000000000 0.00000000000000000 -1.00000000000000000 
1 0.00000000000000000 0.00000000000000000 0.00000000000000000 -1.00000000000000000 
1 3.14159265358979312 0.00000000000000000 0.00000000000000000 -1.00000000000000000 
1 0.00000000000000000 0.00000000000000000 0.00000000000000000 -1.00000000000000000 
1 0.00000000000000000 0.00000000000000000 1.00000000000000000 0.00000000000000000 
1 0.00000000000000000 -6.00000000000000000 1.00000000000000000 0.00000000000000000 
2 46.29369392211258116 -33.93073718043181231 1.00000000000000000 0.00000000000000000 -0.00000000000000000 1.00000000000000000 2.90000000000000568
2 54.59999999999999432 -39.60000000000000142 1.00000000000000000 0.00000000000000000 -0.00000000000000000 1.00000000000000000 2.90000000000000568
1 5.79999999999999982 0.00000000000000000 0.00000000000000000 -1.00000000000000000 
1 2.90000000000000568 0.00000000000000000 0.00000000000000000 -1.00000000000000000 
1 79.20000000000000284 0.00000000000000000 0.00000000000000000 -1.00000000000000000 
1 46.29369392211258116 -31.03073718043181017 1.00000000000000000 0.00000000000000000 
1 0.00000000000000000 0.00000000000000000 1.00000000000000000 0.00000000000000000 
1 0.00000000000000000 -6.00000000000000000 1.00000000000000000 0.00000000000000000 
1 54.59999999999999432 -36.70000000000000284 1.00000000000000000 0.00000000000000000 
1 0.00000000000000000 0.00000000000000000 0.00000000000000000 -1.00000000000000000 
1 5.80000000000001137 0.00000000000000000 0.00000000000000000 -1.00000000000000000 
1 0.00000000000000000 0.00000000000000000 1.00000000000000000 0.00000000000000000 
1 0.00000000000000000 -6.00000000000000000 1.00000000000000000 0.00000000000000000 
1 49.19369392211258685 -36.83073718043181088 0.00000000000000000 1.00000000000000000 
1 85.00000000000000000 -6.00000000000000000 -1.00000000000000000 0.00000000000000000 
1 0.00000000000000000 0.00000000000000000 0.00000000000000000 -1.00000000000000000 
1 2.90000000000000036 0.00000000000000000 0.00000000000000000 -1.00000000000000000 
1 5.80000000000001137 0.00000000000000000 0.00000000000000000 -1.00000000000000000 
1 5.80000000000001137 0.00000000000000000 0.00000000000000000 -1.00000000000000000 
1 5.80000000000001137 0.00000000000000000 0.00000000000000000 -1.00000000000000000 
1 5.80000000000001137 0.00000000000000000 0.00000000000000000 -1.00000000000000000 
1 0.00000000000000000 0.00000000000000000 1.00000000000000000 0.00000000000000000 
1 0.00000000000000000 -6.00000000000000000 1.00000000000000000 0.00000000000000000 
1 43.39369392211257548 -36.83073718043181088 1.00000000000000000 0.00000000000000000 
1 5.80000000000001137 -6.00000000000000000 -1.00000000000000000 -0.00000000000000000 
1 5.80000000000001137 -6.00000000000000000 -1.00000000000000000 -0.00000000000000000 
1 5.80000000000001137 -6.00000000000000000 -1.00000000000000000 -0.00000000000000000 
1 5.80000000000001137 -6.00000000000000000 -1.00000000000000000 -0.00000000000000000 
1 43.39369392211257548 -33.93073718043181231 0.00000000000000000 -1.00000000000000000 
1 0.00000000000000000 0.00000000000000000 1.00000000000000000 0.00000000000000000 
1 0.00000000000000000 -6.00000000000000000 1.00000000000000000 0.00000000000000000 
1 51.69999999999998863 -39.60000000000000142 0.00000000000000000 -1.00000000000000000 
1 5.80000000000001137 -4.90000000000000036 0.00000000000000000 1.00000000000000000 
1 5.80000000000001137 -4.90000000000000036 0.00000000000000000 1.00000000000000000 
1 5.80000000000001137 -4.90000000000000036 0.00000000000000000 1.00000000000000000 
1 5.80000000000001137 -4.90000000000000036 0.00000000000000000 1.00000000000000000 
1 5.80000000000001137 -4.90000000000000036 0.00000000000000000 1.00000000000000000 
1 5.80000000000001137 -4.90000000000000036 0.00000000000000000 1.00000000000000000 
1 5.80000000000001137 -4.90000000000000036 0.00000000000000000 1.00000000000000000 
1 5.80000000000001137 -4.90000000000000036 0.00000000000000000 1.00000000000000000 
1 5.80000000000001137 -4.90000000000000036 0.00000000000000000 1.00000000000000000 
1 4.71238898038468967 0.00000000000000000 0.00000000000000000 -1.00000000000000000 
1 0.00000000000000000 -0.00000000000000000 0.00000000000000000 -1.00000000000000000 
1 7.85398163397448368 0.00000000000000000 0.00000000000000000 -1.00000000000000000 
1 0.00000000000000000 -0.00000000000000000 0.00000000000000000 -1.00000000000000000 
1 0.00000000000000000 0.00000000000000000 1.00000000000000000 0.00000000000000000 
1 0.00000000000000000 -6.00000000000000000 1.00000000000000000 0.00000000000000000 
2 -47.90630607788742168 -28.93073718043181231 1.00000000000000000 0.00000000000000000 -0.00000000000000000 1.00000000000000000 2.89999999999999858
2 -39.60000000000000853 -34.60000000000000142 1.00000000000000000 0.00000000000000000 -0.00000000000000000 1.00000000000000000 2.89999999999999858
1 2.89999999999999680 0.00000000000000000 0.00000000000000000 -1.00000000000000000 
1 0.00000000000000000 0.00000000000000000 0.00000000000000000 -1.00000000000000000 
1 0.00000000000000000 -0.00000000000000000 1.00000000000000000 0.00000000000000000 
1 0.00000000000000000 -6.00000000000000000 1.00000000000000000 0.00000000000000000 
1 -47.90630607788742168 -26.03073718043181017 -1.00000000000000000 0.00000000000000000 
1 -39.60000000000000853 -31.69999999999999929 -1.00000000000000000 0.00000000000000000 
1 5.80000000000000071 0.00000000000000000 0.00000000000000000 -1.00000000000000000 
1 2.89999999999999680 0.00000000000000000 0.00000000000000000 -1.00000000000000000 
1 0.00000000000000000 0.00000000000000000 1.00000000000000000 0.00000000000000000 
1 0.00000000000000000 -6.00000000000000000 1.00000000000000000 0.00000000000000000 
1 -50.80630607788741315 -26.03073718043181017 0.00000000000000000 -1.00000000000000000 
1 -42.50000000000000000 -31.69999999999999929 0.00000000000000000 -1.00000000000000000 
1 0.00000000000000000 -0.00000000000000000 1.00000000000000000 0.00000000000000000 
1 0.00000000000000000 -6.00000000000000000 1.00000000000000000 0.00000000000000000 
1 -47.90630607788742168 -31.83073718043181088 -1.00000000000000000 0.00000000000000000 
1 -39.60000000000000853 -37.50000000000000000 -1.00000000000000000 0.00000000000000000 
1 4.71238898038468967 0.00000000000000000 0.00000000000000000 -1.00000000000000000 
1 0.00000000000000000 -0.00000000000000000 0.00000000000000000 -1.00000000000000000 
1 6.28318530717958534 0.00000000000000000 0.00000000000000000 -1.00000000000000000 
1 0.00000000000000000 0.00000000000000000 0.00000000000000000 -1.00000000000000000 
1 0.00000000000000000 0.00000000000000000 1.00000000000000000 0.00000000000000000 
1 0.00000000000000000 -6.00000000000000000 1.00000000000000000 0.00000000000000000 
2 -47.90630607788743589 30.26926281956819764 1.00000000000000000 0.00000000000000000 -0.00000000000000000 1.00000000000000000 2.89999999999999858
2 -39.60000000000002274 24.60000000000000853 1.00000000000000000 0.00000000000000000 -0.00000000000000000 1.00000000000000000 2.89999999999999858
1 2.89999999999999147 0.00000000000000000 0.00000000000000000 -1.00000000000000000 
1 5.79999999999997229 0.00000000000000000 0.00000000000000000 -1.00000000000000000 
1 0.00000000000000000 0.00000000000000000 1.00000000000000000 0.00000000000000000 
1 0.00000000000000000 -6.00000000000000000 1.00000000000000000 0.00000000000000000 
1 -45.00630607788744442 30.26926281956819764 0.00000000000000000 1.00000000000000000 
1 -36.70000000000003126 24.60000000000000853 0.00000000000000000 1.00000000000000000 
1 0.00000000000000000 0.00000000000000000 0.00000000000000000 -1.00000000000000000 
1 0.00000000000000000 0.00000000000000000 0.00000000000000000 -1.00000000000000000 
1 0.00000000000000000 0.00000000000000000 1.00000000000000000 0.00000000000000000 
1 0.00000000000000000 -6.00000000000000000 1.00000000000000000 0.00000000000000000 
1 -50.80630607788741315 33.16926281956818912 1.00000000000000000 0.00000000000000000 
1 -42.50000000000000000 27.50000000000000000 1.00000000000000000 0.00000000000000000 
1 5.79999999999999716 0.00000000000000000 0.00000000000000000 -1.00000000000000000 
1 2.89999999999997371 0.00000000000000000 0.00000000000000000 -1.00000000000000000 
1 0.00000000000000000 0.00000000000000000 1.00000000000000000 0.00000000000000000 
1 0.00000000000000000 -6.00000000000000000 1.00000000000000000 0.00000000000000000 
1 -50.80630607788741315 33.16926281956818912 0.00000000000000000 -1.00000000000000000 
1 -42.50000000000000000 27.50000000000000000 0.00000000000000000 -1.00000000000000000 
1 0.00000000000000000 -0.00000000000000000 1.00000000000000000 0.00000000000000000 
1 0.00000000000000000 -6.00000000000000000 1.00000000000000000 0.00000000000000000 
1 -47.90630607788743589 27.36926281956819196 -1.00000000000000000 0.00000000000000000 
1 -39.60000000000002274 21.70000000000000284 -1.00000000000000000 0.00000000000000000 
Curves 38
1 109.19999999999988916 67.09999999999990905 0.00000000000000000 0.00000000000000000 0.00000000000000000 1.00000000000000000 
1 112.09999999999989484 64.19999999999990337 0.00000000000000000 0.00000000000000000 0.00000000000000000 1.00000000000000000 
2 112.09999999999989484 67.09999999999990905 0.00000000000000000 0.00000000000000000 0.00000000000000000 1.00000000000000000 1.00000000000000000 0.00000000000000000 -0.00000000000000000 -0.00000000000000000 1.00000000000000000 0.00000000000000000 2.89999999999999991
1 109.19999999999988916 70.00000000000000000 0.00000000000000000 0.00000000000000000 0.00000000000000000 1.00000000000000000 
1 109.19999999999988916 67.09999999999990905 0.00000000000000000 0.00000000000000000 1.00000000000000000 0.00000000000000000 
1 115.00000000000000000 70.00000000000000000 0.00000000000000000 0.00000000000000000 0.00000000000000000 1.00000000000000000 
1 109.19999999999988916 70.00000000000000000 0.00000000000000000 1.00000000000000000 0.00000000000000000 0.00000000000000000 
1 115.00000000000000000 64.19999999999990337 0.00000000000000000 0.00000000000000000 0.00000000000000000 1.00000000000000000 
1 115.00000000000000000 70.00000000000000000 0.00000000000000000 0.00000000000000000 -1.00000000000000000 0.00000000000000000 
1 112.09999999999989484 64.19999999999990337 0.00000000000000000 1.00000000000000000 0.00000000000000000 0.00000000000000000 
1 112.09999999999999432 5.79999999999999982 0.00000000000000000 0.00000000000000000 0.00000000000000000 1.00000000000000000 
1 109.19999999999998863 2.90000000000000036 0.00000000000000000 0.00000000000000000 0.00000000000000000 1.00000000000000000 
2 112.09999999999999432 2.89999999999999991 0.00000000000000000 0.00000000000000000 0.00000000000000000 1.00000000000000000 1.00000000000000000 0.00000000000000000 -0.00000000000000000 -0.00000000000000000 1.00000000000000000 0.00000000000000000 2.89999999999999991
1 115.00000000000000000 5.79999999999999982 0.00000000000000000 0.00000000000000000 0.00000000000000000 1.00000000000000000 
1 112.09999999999999432 5.79999999999999982 0.00000000000000000 1.00000000000000000 0.00000000000000000 0.00000000000000000 
1 115.00000000000000000 0.00000000000000000 0.00000000000000000 0.00000000000000000 0.00000000000000000 1.00000000000000000 
1 115.00000000000000000 0.00000000000000000 0.00000000000000000 0.00000000000000000 1.00000000000000000 0.00000000000000000 
1 109.19999999999998863 0.00000000000000000 0.00000000000000000 0.00000000000000000 0.00000000000000000 1.00000000000000000 
1 109.19999999999998863 0.00000000000000000 0.00000000000000000 1.00000000000000000 0.00000000000000000 0.00000000000000000 
1 109.19999999999998863 2.90000000000000036 0.00000000000000000 0.00000000000000000 -1.00000000000000000 0.00000000000000000 
1 17.89999999999999503 5.00000000000000000 0.00000000000000000 0.00000000000000000 0.00000000000000000 1.00000000000000000 
1 17.89999999999999503 10.80000000000000071 0.00000000000000000 0.00000000000000000 0.00000000000000000 1.00000000000000000 
2 17.89999999999999503 7.90000000000000036 0.00000000000000000 0.00000000000000000 0.00000000000000000 1.00000000000000000 1.00000000000000000 0.00000000000000000 -0.00000000000000000 -0.00000000000000000 1.00000000000000000 0.00000000000000000 2.89999999999999991
1 14.99999999999999822 10.80000000000000071 0.00000000000000000 0.00000000000000000 0.00000000000000000 1.00000000000000000 
1 17.89999999999999503 10.80000000000000071 0.00000000000000000 -1.00000000000000000 0.00000000000000000 0.00000000000000000 
1 14.99999999999999822 5.00000000000000000 0.00000000000000000 0.00000000000000000 0.00000000000000000 1.00000000000000000 
1 14.99999999999999822 10.80000000000000071 0.00000000000000000 0.00000000000000000 -1.00000000000000000 0.00000000000000000 
1 17.89999999999999503 5.00000000000000000 0.00000000000000000 -1.00000000000000000 0.00000000000000000 0.00000000000000000 
1 17.89999999999997371 64.20000000000000284 0.00000000000000000 0.00000000000000000 0.00000000000000000 1.00000000000000000 
1 20.79999999999997229 67.10000000000000853 0.00000000000000000 0.00000000000000000 0.00000000000000000 1.00000000000000000 
2 17.89999999999997371 67.10000000000000853 0.00000000000000000 0.00000000000000000 0.00000000000000000 1.00000000000000000 1.00000000000000000 0.00000000000000000 -0.00000000000000000 -0.00000000000000000 1.00000000000000000 0.00000000000000000 2.89999999999999991
1 20.79999999999997229 70.00000000000000000 0.00000000000000000 0.00000000000000000 0.00000000000000000 1.00000000000000000 
1 20.79999999999997229 67.10000000000000853 0.00000000000000000 0.00000000000000000 1.00000000000000000 0.00000000000000000 
1 15.00000000000000000 70.00000000000000000 0.00000000000000000 0.00000000000000000 0.00000000000000000 1.00000000000000000 
1 15.00000000000000000 70.00000000000000000 0.00000000000000000 1.00000000000000000 0.00000000000000000 0.00000000000000000 
1 15.00000000000000000 64.20000000000000284 0.00000000000000000 0.00000000000000000 0.00000000000000000 1.00000000000000000 
1 15.00000000000000000 70.00000000000000000 0.00000000000000000 0.00000000000000000 -1.00000000000000000 0.00000000000000000 
1 17.89999999999997371 64.20000000000000284 0.00000000000000000 -1.00000000000000000 0.00000000000000000 0.00000000000000000 
Polygon3D 0
PolygonOnTriangulations 0
Surfaces 38
2 112.09999999999989484 67.09999999999990905 0.00000000000000000 -0.00000000000000000 -0.00000000000000000 -1.00000000000000000 1.00000000000000000 0.00000000000000000 0.00000000000000000 -0.00000000000000000 1.00000000000000000 -0.00000000000000000 2.89999999999999991
1 109.19999999999988916 67.09999999999990905 0.00000000000000000 -1.00000000000000000 0.00000000000000000 0.00000000000000000 0.00000000000000000 1.00000000000000000 0.00000000000000000 0.00000000000000000 0.00000000000000000 -1.00000000000000000 
1 112.09999999999989484 64.19999999999990337 0.00000000000000000 0.00000000000000000 1.00000000000000000 0.00000000000000000 1.00000000000000000 0.00000000000000000 0.00000000000000000 0.00000000000000000 0.00000000000000000 -1.00000000000000000 
1 65.80630607788741315 36.83073718043181088 0.00000000000000000 0.00000000000000000 0.00000000000000000 1.00000000000000000 1.00000000000000000 0.00000000000000000 -0.00000000000000000 -0.00000000000000000 1.00000000000000000 0.00000000000000000 
1 57.50000000000000000 42.50000000000000000 0.00000000000000000 0.00000000000000000 0.00000000000000000 1.00000000000000000 1.00000000000000000 0.00000000000000000 -0.00000000000000000 -0.00000000000000000 1.00000000000000000 0.00000000000000000 
1 109.19999999999988916 70.00000000000000000 0.00000000000000000 0.00000000000000000 1.00000000000000000 0.00000000000000000 1.00000000000000000 0.00000000000000000 0.00000000000000000 0.00000000000000000 0.00000000000000000 -1.00000000000000000 
1 115.00000000000000000 70.00000000000000000 0.00000000000000000 1.00000000000000000 0.00000000000000000 -0.00000000000000000 0.00000000000000000 -1.00000000000000000 0.00000000000000000 0.00000000000000000 -0.00000000000000000 -1.00000000000000000 
1 115.00000000000000000 85.00000000000000000 0.00000000000000000 1.00000000000000000 0.00000000000000000 -0.00000000000000000 0.00000000000000000 -1.00000000000000000 0.00000000000000000 0.00000000000000000 -0.00000000000000000 -1.00000000000000000 
2 112.09999999999999432 2.89999999999999991 0.00000000000000000 -0.00000000000000000 -0.00000000000000000 -1.00000000000000000 1.00000000000000000 0.00000000000000000 0.00000000000000000 -0.00000000000000000 1.00000000000000000 -0.00000000000000000 2.89999999999999991
1 112.09999999999999432 5.79999999999999982 0.00000000000000000 0.00000000000000000 1.00000000000000000 0.00000000000000000 1.00000000000000000 0.00000000000000000 0.00000000000000000 0.00000000000000000 0.00000000000000000 -1.00000000000000000 
1 109.19999999999998863 2.90000000000000036 0.00000000000000000 1.00000000000000000 0.00000000000000000 -0.00000000000000000 0.00000000000000000 -1.00000000000000000 0.00000000000000000 0.00000000000000000 -0.00000000000000000 -1.00000000000000000 
1 65.80630607788741315 36.83073718043181088 0.00000000000000000 0.00000000000000000 0.00000000000000000 1.00000000000000000 1.00000000000000000 0.00000000000000000 -0.00000000000000000 -0.00000000000000000 1.00000000000000000 0.00000000000000000 
1 115.00000000000000000 0.00000000000000000 0.00000000000000000 -1.00000000000000000 0.00000000000000000 0.00000000000000000 0.00000000000000000 1.00000000000000000 0.00000000000000000 0.00000000000000000 0.00000000000000000 -1.00000000000000000 
1 109.19999999999998863 0.00000000000000000 0.00000000000000000 0.00000000000000000 1.00000000000000000 0.00000000000000000 1.00000000000000000 0.00000000000000000 0.00000000000000000 0.00000000000000000 0.00000000000000000 -1.00000000000000000 
1 115.00000000000000000 0.00000000000000000 0.00000000000000000 0.00000000000000000 -1.00000000000000000 0.00000000000000000 -1.00000000000000000 0.00000000000000000 0.00000000000000000 -0.00000000000000000 -0.00000000000000000 -1.00000000000000000 
10 -1523.94406683746865383 1638.94406683746865383 -1551.94406683746865383 1523.94406683746865383
1 115.00000000000000000 0.00000000000000000 0.00000000000000000 0.00000000000000000 -1.00000000000000000 0.00000000000000000 -1.00000000000000000 0.00000000000000000 0.00000000000000000 -0.00000000000000000 -0.00000000000000000 -1.00000000000000000 
10 -1523.94406683746865383 1638.94406683746865383 -1551.94406683746865383 1523.94406683746865383
1 115.00000000000000000 0.00000000000000000 0.00000000000000000 0.00000000000000000 -1.00000000000000000 0.00000000000000000 -1.00000000000000000 0.00000000000000000 0.00000000000000000 -0.00000000000000000 -0.00000000000000000 -1.00000000000000000 
10 -1523.94406683746865383 1638.94406683746865383 -1551.94406683746865383 1523.94406683746865383
1 115.00000000000000000 0.00000000000000000 0.00000000000000000 0.00000000000000000 -1.00000000000000000 0.00000000000000000 -1.00000000000000000 0.00000000000000000 0.00000000000000000 -0.00000000000000000 -0.00000000000000000 -1.00000000000000000 
1 115.00000000000000000 -2.00000000000000000 0.00000000000000000 0.00000000000000000 0.00000000000000022 1.00000000000000000 -1.00000000000000000 0.00000000000000000 0.00000000000000000 0.00000000000000000 -1.00000000000000000 0.00000000000000022 
1 115.00000000000000000 -2.00000000000000000 0.00000000000000000 0.00000000000000000 0.00000000000000022 1.00000000000000000 -1.00000000000000000 0.00000000000000000 0.00000000000000000 0.00000000000000000 -1.00000000000000000 0.00000000000000022 
1 115.00000000000000000 -2.00000000000000000 0.00000000000000000 0.00000000000000000 0.00000000000000022 1.00000000000000000 -1.00000000000000000 0.00000000000000000 0.00000000000000000 0.00000000000000000 -1.00000000000000000 0.00000000000000022 
1 115.00000000000000000 -2.00000000000000000 0.00000000000000000 0.00000000000000000 0.00000000000000022 1.00000000000000000 -1.00000000000000000 0.00000000000000000 0.00000000000000000 0.00000000000000000 -1.00000000000000000 0.00000000000000022 
1 115.00000000000000000 -2.00000000000000000 0.00000000000000000 0.00000000000000000 0.00000000000000022 1.00000000000000000 -1.00000000000000000 0.00000000000000000 0.00000000000000000 0.00000000000000000 -1.00000000000000000 0.00000000000000022 
1 115.00000000000000000 -2.00000000000000000 0.00000000000000000 0.00000000000000000 0.00000000000000022 1.00000000000000000 -1.00000000000000000 0.00000000000000000 0.00000000000000000 0.00000000000000000 -1.00000000000000000 0.00000000000000022 
1 115.00000000000000000 -2.00000000000000000 0.00000000000000000 0.00000000000000000 0.00000000000000022 1.00000000000000000 -1.00000000000000000 0.00000000000000000 0.00000000000000000 0.00000000000000000 -1.00000000000000000 0.00000000000000022 
1 115.00000000000000000 -2.00000000000000000 0.00000000000000000 0.00000000000000000 0.00000000000000022 1.00000000000000000 -1.00000000000000000 0.00000000000000000 0.00000000000000000 0.00000000000000000 -1.00000000000000000 0.00000000000000022 
1 115.00000000000000000 -2.00000000000000000 0.00000000000000000 0.00000000000000000 0.00000000000000022 1.00000000000000000 -1.00000000000000000 0.00000000000000000 0.00000000000000000 0.00000000000000000 -1.00000000000000000 0.00000000000000022 
2 17.89999999999999503 7.90000000000000036 0.00000000000000000 -0.00000000000000000 -0.00000000000000000 -1.00000000000000000 1.00000000000000000 0.00000000000000000 0.00000000000000000 -0.00000000000000000 1.00000000000000000 -0.00000000000000000 2.89999999999999991
1 17.89999999999999503 5.00000000000000000 0.00000000000000000 0.00000000000000000 -1.00000000000000000 0.00000000000000000 -1.00000000000000000 0.00000000000000000 0.00000000000000000 -0.00000000000000000 -0.00000000000000000 -1.00000000000000000 
1 17.89999999999999503 10.80000000000000071 0.00000000000000000 0.00000000000000000 -1.00000000000000000 0.00000000000000000 -1.00000000000000000 0.00000000000000000 0.00000000000000000 -0.00000000000000000 -0.00000000000000000 -1.00000000000000000 
1 65.80630607788741315 36.83073718043181088 0.00000000000000000 0.00000000000000000 0.00000000000000000 1.00000000000000000 1.00000000000000000 0.00000000000000000 -0.00000000000000000 -0.00000000000000000 1.00000000000000000 0.00000000000000000 
1 14.99999999999999822 10.80000000000000071 0.00000000000000000 1.00000000000000000 0.00000000000000000 -0.00000000000000000 0.00000000000000000 -1.00000000000000000 0.00000000000000000 0.00000000000000000 -0.00000000000000000 -1.00000000000000000 
2 17.89999999999997371 67.10000000000000853 0.00000000000000000 -0.00000000000000000 -0.00000000000000000 -1.00000000000000000 1.00000000000000000 0.00000000000000000 0.00000000000000000 -0.00000000000000000 1.00000000000000000 -0.00000000000000000 2.89999999999999991
1 17.89999999999997371 64.20000000000000284 0.00000000000000000 0.00000000000000000 -1.00000000000000000 0.00000000000000000 -1.00000000000000000 0.00000000000000000 0.00000000000000000 -0.00000000000000000 -0.00000000000000000 -1.00000000000000000 
1 20.79999999999997229 67.10000000000000853 0.00000000000000000 -1.00000000000000000 0.00000000000000000 0.00000000000000000 0.00000000000000000 1.00000000000000000 0.00000000000000000 0.00000000000000000 0.00000000000000000 -1.00000000000000000 
1 65.80630607788741315 36.83073718043181088 0.00000000000000000 0.00000000000000000 0.00000000000000000 1.00000000000000000 1.00000000000000000 0.00000000000000000 -0.00000000000000000 -0.00000000000000000 1.00000000000000000 0.00000000000000000 
1 15.00000000000000000 70.00000000000000000 0.00000000000000000 0.00000000000000000 1.00000000000000000 0.00000000000000000 1.00000000000000000 0.00000000000000000 0.00000000000000000 0.00000000000000000 0.00000000000000000 -1.00000000000000000 
1 15.00000000000000000 70.00000000000000000 0.00000000000000000 1.00000000000000000 0.00000000000000000 -0.00000000000000000 0.00000000000000000 -1.00000000000000000 0.00000000000000000 0.00000000000000000 -0.00000000000000000 -1.00000000000000000 
Triangulations 0

TShapes 112
Ve
0.000000100000000
109.199999999999889 67.099999999999909 0.000000000000000
0 0

0101101
*
Ed
 0.000000100000000 1 1 0
1  1 0 0.000000000000000 6.000000000000000
2  1 1 0 0.000000000000000 6.000000000000000
4 G1 1 0 2 0
2  2 2 0 0.000000000000000 6.000000000000000
0

0101000
+112 4 -112 6 *
Ve
0.000000100000000
112.099999999999895 64.199999999999903 0.000000000000000
0 0

0101101
*
Ed
 0.000000100000000 1 1 0
1  2 0 0.000000000000000 6.000000000000000
2  3 1 0 0.000000000000000 6.000000000000000
4 G1 1 0 3 0
2  4 3 0 0.000000000000000 6.000000000000000
0

0101000
+110 4 -110 6 *
Ed
 0.000000100000000 1 1 0
1  3 0 3.141592653589791 4.712388980384689
2  5 1 7 3.141592653589791 4.712388980384689
2  6 1 8 3.141592653589791 4.712388980384689
2  7 4 9 3.141592653589791 4.712388980384689
2  8 5 25 3.141592653589791 4.712388980384689
0

0101000
+112 0 -110 0 *
Wi

0101100
+111 0 -109 0 -108 4 +108 6 *
Fa
0  0.000000100000000 1 0

0111000
+107 0 *
Ve
0.000000100000000
109.199999999999889 70.000000000000000 0.000000000000000
0 0

0101101
*
Ed
 0.000000100000000 1 1 0
1  4 0 0.000000000000000 6.000000000000000
2  9 6 0 0.000000000000000 6.000000000000000
2  10 2 0 0.000000000000000 6.000000000000000
0

0101000
+105 4 -105 6 *
Ed
 0.000000100000000 1 1 0
1  5 0 0.000000000000000 2.900000000000091
2  11 4 9 0.000000000000000 2.900000000000091
2  12 2 7 0.000000000000000 2.900000000000091
2  13 2 8 0.000000000000000 2.900000000000091
2  14 5 25 0.000000000000000 2.900000000000091
0

0101000
+112 0 -105 0 *
Wi

0101100
+111 0 -104 0 -103 4 +103 6 *
Fa
0  0.000000100000000 2 0

0111000
+102 0 *
Ve
0.001000000000000
115.000000000000000 70.000000000000000 0.000000000000000
0 0

0101101
*
Ed
 0.000000100000000 1 1 0
1  6 0 0.000000000000000 6.000000000000000
2  15 6 0 0.000000000000000 6.000000000000000
2  16 7 0 0.000000000000000 6.000000000000000
2  17 8 26 0.000000000000000 6.000000000000000
0

0101000
+100 4 -100 6 *
Ed
 0.000000100000000 1 1 0
1  7 0 0.000000000000000 5.800000000000111
2  18 6 7 0.000000000000000 5.800000000000111
2  19 6 8 0.000000000000000 5.800000000000111
2  20 4 9 0.000000000000000 5.800000000000111
2  21 5 25 0.000000000000000 5.800000000000111
0

0101000
+105 0 -100 0 *
Wi

0101100
+104 0 -99 0 -98 4 +98 6 *
Fa
0  0.000000100000000 6 0

0111000
+97 0 *
Ve
0.001000000000000
115.000000000000000 64.199999999999903 0.000000000000000
0 0

0101101
*
Ed
 0.000000100000000 1 1 0
1  8 0 0.000000000000000 6.000000000000000
2  22 7 0 0.000000000000000 6.000000000000000
2  23 3 0 0.000000000000000 6.000000000000000
2  24 8 26 0.000000000000000 6.000000000000000
0

0101000
+95 4 -95 6 *
Ed
 0.001000000000000 1 1 0
1  9 0 0.000000000000000 5.800000000000097
2  25 7 7 0.000000000000000 5.800000000000097
2  26 7 8 0.000000000000000 5.800000000000097
2  27 4 9 0.000000000000000 5.800000000000097
2  28 8 27 0.000000000000000 5.800000000000097
2  29 8 28 0.000000000000000 5.800000000000097
2  30 5 25 0.000000000000000 5.800000000000097
0

0101000
+100 0 -95 0 *
Wi

0101100
+99 0 -94 0 -93 4 +93 6 *
Fa
0  0.000000100000000 7 0

0111000
+92 0 *
Ed
 0.000000100000000 1 1 0
1  10 0 0.000000000000000 2.900000000000105
2  31 3 7 0.000000000000000 2.900000000000105
2  32 3 8 0.000000000000000 2.900000000000105
2  33 4 9 0.000000000000000 2.900000000000105
2  34 5 25 0.000000000000000 2.900000000000105
0

0101000
+110 0 -95 0 *
Wi

0101100
+109 0 -94 0 -90 4 +90 6 *
Fa
0  0.000000100000000 3 0

0111000
+89 0 *
Wi

0101100
-108 0 +103 0 +98 0 +93 0 -90 0 *
Fa
0  0.000000100000000 4 0

0111000
-87 30 *
Sh

0101100
+106 0 -101 0 -96 0 -91 0 +88 0 +86 29 -86 31 *
So

0100000
-85 0 *
Ve
0.000000100000000
112.099999999999994 5.800000000000000 0.000000000000000
0 0

0101101
*
Ed
 0.000000100000000 1 1 0
1  11 0 0.000000000000000 6.000000000000000
2  35 9 0 0.000000000000000 6.000000000000000
4 G1 9 0 10 0
2  36 10 0 0.000000000000000 6.000000000000000
0

0101000
+83 4 -83 6 *
Ve
0.001000000000010
109.199999999999989 2.900000000000000 0.000000000000000
0 0

0101101
*
Ed
 0.000000100000000 1 1 0
1  12 0 0.000000000000000 6.000000000000000
2  37 9 0 0.000000000000000 6.000000000000000
4 G1 9 0 11 0
2  38 11 0 0.000000000000000 6.000000000000000
0

0101000
+81 4 -81 6 *
Ed
 0.000000100000000 1 1 0
1  13 0 1.570796326794897 3.141592653589793
2  39 9 7 1.570796326794897 3.141592653589793
2  40 9 8 1.570796326794897 3.141592653589793
2  41 12 9 1.570796326794897 3.141592653589793
2  42 5 25 1.570796326794897 3.141592653589793
0

0101000
+83 0 -81 0 *
Wi

0101100
+82 0 -80 0 -79 4 +79 6 *
Fa
0  0.000000100000000 9 0

0111000
+78 0 *
Ve
0.001000000000003
115.000000000000000 5.800000000000000 0.000000000000000
0 0

0101101
*
Ed
 0.000000100000000 1 1 0
1  14 0 0.000000000000000 6.000000000000000
2  43 13 0 0.000000000000000 6.000000000000000
2  44 10 0 0.000000000000000 6.000000000000000
2  45 8 26 0.000000000000000 6.000000000000000
0

0101000
+76 4 -76 6 *
Ed
 0.000000100000000 1 1 0
1  15 0 0.000000000000000 2.900000000000006
2  46 12 9 0.000000000000000 2.900000000000006
2  47 10 7 0.000000000000000 2.900000000000006
2  48 10 8 0.000000000000000 2.900000000000006
2  49 5 25 0.000000000000000 2.900000000000006
0

0101000
+83 0 -76 0 *
Wi

0101100
+82 0 -75 0 -74 4 +74 6 *
Fa
0  0.000000100000000 10 0

0111000
+73 0 *
Ve
0.001000050000009
115.000000000000000 0.000000000000000 0.000000000000000
0 0

0101101
*
Ed
 0.000000100000000 1 1 0
1  16 0 0.000000000000000 6.000000000000000
2  50 13 0 0.000000000000000 6.000000000000000
2  51 14 0 0.000000000000000 6.000000000000000
0

0101000
+71 4 -71 6 *
Ed
 0.000000100000000 1 1 0
1  17 0 0.000000000000000 5.800000000000000
2  52 13 7 0.000000000000000 5.800000000000000
2  53 13 8 0.000000000000000 5.800000000000000
2  54 12 9 0.000000000000000 5.800000000000000
2  55 8 28 0.000000000000000 5.800000000000000
0

0101000
+71 0 -76 0 *
Wi

0101100
+70 0 -75 0 -69 4 +69 6 *
Fa
0  0.000000100000000 13 0

0111000
+68 0 *
Ve
0.001000050000009
109.199999999999989 0.000000000000000 0.000000000000000
0 0

0101101
*
Ed
 0.000000100000000 1 1 0
1  18 0 0.000000000000000 6.000000000000000
2  56 14 0 0.000000000000000 6.000000000000000
2  57 11 0 0.000000000000000 6.000000000000000
2  58 15 26 0.000000000000000 6.000000000000000
2  59 16 36 0.000000000000000 6.000000000000000
2  60 17 38 0.000000000000000 6.000000000000000
2  61 18 40 0.000000000000000 6.000000000000000
0

0101000
+66 4 -66 6 *
Ed
 0.000000100000000 1 1 0
1  19 0 0.000000000000000 5.800000000000011
2  62 14 7 0.000000000000000 5.800000000000011
2  63 14 8 0.000000000000000 5.800000000000011
2  64 12 9 0.000000000000000 5.800000000000011
2  65 15 28 0.000000000000000 5.800000000000011
2  66 16 41 0.000000000000000 5.800000000000011
2  67 17 42 0.000000000000000 5.800000000000011
2  68 18 43 0.000000000000000 5.800000000000011
0

0101000
+66 0 -71 0 *
Wi

0101100
+65 0 -70 0 -64 4 +64 6 *
Fa
0  0.000000100000000 14 0

0111000
+63 0 *
Ed
 0.001000000000010 1 1 0
1  20 0 0.000000000000000 2.900000000000000
2  69 12 9 0.000000000000000 2.900000000000000
2  70 11 7 0.000000000000000 2.900000000000000
2  71 11 8 0.000000000000000 2.900000000000000
2  72 5 25 0.000000000000000 2.900000000000000
2  73 19 45 0.000000000000000 2.900000000000000
2  74 20 47 0.000000000000000 2.900000000000000
2  75 21 49 0.000000000000000 2.900000000000000
2  76 22 51 0.000000000000000 2.900000000000000
2  77 23 53 0.000000000000000 2.900000000000000
2  78 24 55 0.000000000000000 2.900000000000000
2  79 25 57 0.000000000000000 2.900000000000000
2  80 26 59 0.000000000000000 2.900000000000000
2  81 27 61 0.000000000000000 2.900000000000000
0

0101000
+81 0 -66 0 *
Wi

0101100
+80 0 -65 0 -61 4 +61 6 *
Fa
0  0.000000100000000 11 0

0111000
+60 0 *
Wi

0101100
-79 0 +74 0 -69 0 -64 0 -61 0 *
Fa
0  0.000000100000000 12 0

0111000
-58 30 *
Sh

0101100
+77 0 -72 0 +67 0 +62 0 +59 0 +57 29 -57 31 *
So

0100000
-56 0 *
Ve
0.000000100000000
17.899999999999995 5.000000000000000 0.000000000000000
0 0

0101101
*
Ed
 0.000000100000000 1 1 0
1  21 0 0.000000000000000 6.000000000000000
2  82 28 0 0.000000000000000 6.000000000000000
4 G1 28 0 29 0
2  83 29 0 0.000000000000000 6.000000000000000
0

0101000
+54 4 -54 6 *
Ve
0.000000100000000
17.899999999999995 10.800000000000001 0.000000000000000
0 0

0101101
*
Ed
 0.000000100000000 1 1 0
1  22 0 0.000000000000000 6.000000000000000
2  84 28 0 0.000000000000000 6.000000000000000
4 G1 28 0 30 0
2  85 30 0 0.000000000000000 6.000000000000000
0

0101000
+52 4 -52 6 *
Ed
 0.000000100000000 1 1 0
1  23 0 4.712388980384690 7.853981633974484
2  86 28 7 4.712388980384690 7.853981633974484
2  87 28 8 4.712388980384690 7.853981633974484
2  88 31 9 4.712388980384690 7.853981633974484
2  89 5 25 4.712388980384690 7.853981633974484
0

0101000
+54 0 -52 0 *
Wi

0101100
+53 0 -51 0 -50 4 +50 6 *
Fa
0  0.000000100000000 28 0

0111000
+49 0 *
Ve
0.000000100000000
14.999999999999998 10.800000000000001 0.000000000000000
0 0

0101101
*
Ed
 0.000000100000000 1 1 0
1  24 0 0.000000000000000 6.000000000000000
2  90 30 0 0.000000000000000 6.000000000000000
2  91 32 0 0.000000000000000 6.000000000000000
0

0101000
+47 4 -47 6 *
Ed
 0.000000100000000 1 1 0
1  25 0 0.000000000000000 2.899999999999997
2  92 30 7 0.000000000000000 2.899999999999997
2  93 30 8 0.000000000000000 2.899999999999997
2  94 31 9 0.000000000000000 2.899999999999997
2  95 5 25 0.000000000000000 2.899999999999997
0

0101000
+52 0 -47 0 *
Wi

0101100
+51 0 -46 0 -45 4 +45 6 *
Fa
0  0.000000100000000 30 0

0111000
+44 0 *
Ve
0.000000100000000
14.999999999999998 5.000000000000000 0.000000000000000
0 0

0101101
*
Ed
 0.000000100000000 1 1 0
1  26 0 0.000000000000000 6.000000000000000
2  96 32 0 0.000000000000000 6.000000000000000
2  97 29 0 0.000000000000000 6.000000000000000
0

0101000
+42 4 -42 6 *
Ed
 0.000000100000000 1 1 0
1  27 0 0.000000000000000 5.800000000000001
2  98 32 7 0.000000000000000 5.800000000000001
2  99 32 8 0.000000000000000 5.800000000000001
2  100 31 9 0.000000000000000 5.800000000000001
2  101 5 25 0.000000000000000 5.800000000000001
0

0101000
+47 0 -42 0 *
Wi

0101100
+46 0 -41 0 -40 4 +40 6 *
Fa
0  0.000000100000000 32 0

0111000
+39 0 *
Ed
 0.000000100000000 1 1 0
1  28 0 0.000000000000000 2.899999999999997
2  102 29 7 0.000000000000000 2.899999999999997
2  103 29 8 0.000000000000000 2.899999999999997
2  104 31 9 0.000000000000000 2.899999999999997
2  105 5 25 0.000000000000000 2.899999999999997
0

0101000
+54 0 -42 0 *
Wi

0101100
+53 0 -41 0 -37 4 +37 6 *
Fa
0  0.000000100000000 29 0

0111000
+36 0 *
Wi

0101100
+50 0 +45 0 +40 0 -37 0 *
Fa
0  0.000000100000000 31 0

0111000
+34 30 *
Sh

0101100
+48 0 +43 0 +38 0 -35 0 +33 29 -33 31 *
So

0100000
-32 0 *
Ve
0.000000100000000
17.899999999999974 64.200000000000003 0.000000000000000
0 0

0101101
*
Ed
 0.000000100000000 1 1 0
1  29 0 0.000000000000000 6.000000000000000
2  106 33 0 0.000000000000000 6.000000000000000
4 G1 33 0 34 0
2  107 34 0 0.000000000000000 6.000000000000000
0

0101000
+30 4 -30 6 *
Ve
0.000000100000000
20.799999999999972 67.100000000000009 0.000000000000000
0 0

0101101
*
Ed
 0.000000100000000 1 1 0
1  30 0 0.000000000000000 6.000000000000000
2  108 33 0 0.000000000000000 6.000000000000000
4 G1 33 0 35 0
2  109 35 0 0.000000000000000 6.000000000000000
0

0101000
+28 4 -28 6 *
Ed
 0.000000100000000 1 1 0
1  31 0 4.712388980384690 6.283185307179585
2  110 33 7 4.712388980384690 6.283185307179585
2  111 33 8 4.712388980384690 6.283185307179585
2  112 36 9 4.712388980384690 6.283185307179585
2  113 5 25 4.712388980384690 6.283185307179585
0

0101000
+30 0 -28 0 *
Wi

0101100
+29 0 -27 0 -26 4 +26 6 *
Fa
0  0.000000100000000 33 0

0111000
+25 0 *
Ve
0.000000100000000
20.799999999999972 70.000000000000000 0.000000000000000
0 0

0101101
*
Ed
 0.000000100000000 1 1 0
1  32 0 0.000000000000000 6.000000000000000
2  114 35 0 0.000000000000000 6.000000000000000
2  115 37 0 0.000000000000000 6.000000000000000
0

0101000
+23 4 -23 6 *
Ed
 0.000000100000000 1 1 0
1  33 0 0.000000000000000 2.899999999999991
2  116 35 7 0.000000000000000 2.899999999999991
2  117 35 8 0.000000000000000 2.899999999999991
2  118 36 9 0.000000000000000 2.899999999999991
2  119 5 25 0.000000000000000 2.899999999999991
0

0101000
+28 0 -23 0 *
Wi

0101100
+27 0 -22 0 -21 4 +21 6 *
Fa
0  0.000000100000000 35 0

0111000
+20 0 *
Ve
0.000000100000000
15.000000000000000 70.000000000000000 0.000000000000000
0 0

0101101
*
Ed
 0.000000100000000 1 1 0
1  34 0 0.000000000000000 6.000000000000000
2  120 37 0 0.000000000000000 6.000000000000000
2  121 38 0 0.000000000000000 6.000000000000000
0

0101000
+18 4 -18 6 *
Ed
 0.000000100000000 1 1 0
1  35 0 0.000000000000000 5.799999999999972
2  122 37 7 0.000000000000000 5.799999999999972
2  123 37 8 0.000000000000000 5.799999999999972
2  124 36 9 0.000000000000000 5.799999999999972
2  125 5 25 0.000000000000000 5.799999999999972
0

0101000
+18 0 -23 0 *
Wi

0101100
+17 0 -22 0 -16 4 +16 6 *
Fa
0  0.000000100000000 37 0

0111000
+15 0 *
Ve
0.000000100000000
15.000000000000000 64.200000000000003 0.000000000000000
0 0

0101101
*
Ed
 0.000000100000000 1 1 0
1  36 0 0.000000000000000 6.000000000000000
2  126 38 0 0.000000000000000 6.000000000000000
2  127 34 0 0.000000000000000 6.000000000000000
0

0101000
+13 4 -13 6 *
Ed
 0.000000100000000 1 1 0
1  37 0 0.000000000000000 5.799999999999997
2  128 38 7 0.000000000000000 5.799999999999997
2  129 38 8 0.000000000000000 5.799999999999997
2  130 36 9 0.000000000000000 5.799999999999997
2  131 5 25 0.000000000000000 5.799999999999997
0

0101000
+18 0 -13 0 *
Wi

0101100
+17 0 -12 0 -11 4 +11 6 *
Fa
0  0.000000100000000 38 0

0111000
+10 0 *
Ed
 0.000000100000000 1 1 0
1  38 0 0.000000000000000 2.899999999999974
2  132 34 7 0.000000000000000 2.899999999999974
2  133 34 8 0.000000000000000 2.899999999999974
2  134 36 9 0.000000000000000 2.899999999999974
2  135 5 25 0.000000000000000 2.899999999999974
0

0101000
+30 0 -13 0 *
Wi

0101100
+29 0 -12 0 -8 4 +8 6 *
Fa
0  0.000000100000000 34 0

0111000
+7 0 *
Wi

0101100
+26 0 +21 0 -16 0 +11 0 -8 0 *
Fa
0  0.000000100000000 36 0

0111000
+5 30 *
Sh

0101100
+24 0 +19 0 -14 0 +9 0 -6 0 +4 29 -4 31 *
So

0100000
-3 0 *
Co

1100000
+84 0 +55 0 +31 0 +2 0 *

+1 0 