
CASCADE Topology V1, (c) Matra-Datavision
Locations 35
1
1.000000000000000 0.000000000000000 0.000000000000000 0.000000000000000 
0.000000000000000 1.000000000000000 0.000000000000000 0.000000000000000 
0.000000000000000 0.000000000000000 1.000000000000000 0.000000000000000 
1
1.000000000000000 0.000000000000000 0.000000000000000 0.000000000000000 
0.000000000000000 1.000000000000000 0.000000000000000 0.000000000000000 
0.000000000000000 0.000000000000000 1.000000000000000 0.000000000000000 
1
1.000000000000000 0.000000000000000 0.000000000000000 0.000000000000000 
0.000000000000000 1.000000000000000 0.000000000000000 0.000000000000000 
0.000000000000000 0.000000000000000 1.000000000000000 0.000000000000000 
1
1.000000000000000 0.000000000000000 0.000000000000000 0.000000000000000 
0.000000000000000 1.000000000000000 0.000000000000000 0.000000000000000 
0.000000000000000 0.000000000000000 1.000000000000000 0.000000000000000 
2  2 1 3 1 4 -1 0
1
1.000000000000000 0.000000000000000 0.000000000000000 0.000000000000000 
0.000000000000000 1.000000000000000 0.000000000000000 0.000000000000000 
0.000000000000000 0.000000000000000 1.000000000000000 0.000000000000000 
1
1.000000000000000 0.000000000000000 0.000000000000000 0.000000000000000 
0.000000000000000 1.000000000000000 0.000000000000000 0.000000000000000 
0.000000000000000 0.000000000000000 1.000000000000000 0.000000000000000 
1
1.000000000000000 0.000000000000000 0.000000000000000 0.000000000000000 
0.000000000000000 1.000000000000000 0.000000000000000 0.000000000000000 
0.000000000000000 0.000000000000000 1.000000000000000 0.000000000000000 
2  6 1 7 1 8 -1 0
1
1.000000000000000 0.000000000000000 0.000000000000000 0.000000000000000 
0.000000000000000 1.000000000000000 0.000000000000000 0.000000000000000 
0.000000000000000 0.000000000000000 1.000000000000000 30.000000000000000 
2  6 1 7 1 8 -1 10 1 0
2  7 -1 6 -1 0
2  8 1 7 -1 6 -1 0
2  10 -1 8 1 7 -1 6 -1 0
2  8 -1 2 1 3 1 4 -1 0
2  6 1 7 1 0
2  8 -1 10 1 2 1 3 1 4 -1 0
2  2 -1 10 -1 8 1 0
2  6 1 7 1 8 -1 10 1 2 1 0
2  8 -1 10 1 2 1 0
2  2 -1 0
2  8 -1 2 1 0
2  3 1 4 -1 0
1
1.000000000000000 0.000000000000000 0.000000000000000 0.000000000000000 
0.000000000000000 1.000000000000000 0.000000000000000 0.000000000000000 
0.000000000000000 0.000000000000000 1.000000000000000 0.000000000000000 
1
1.000000000000000 0.000000000000000 0.000000000000000 0.000000000000000 
0.000000000000000 0.000000000000000 -1.000000000000000 -2.000000000000000 
0.000000000000000 1.000000000000000 0.000000000000000 0.000000000000000 
2  24 1 25 1 4 -1 0
2  4 1 25 -1 24 -1 0
1
1.000000000000000 0.000000000000000 0.000000000000000 0.000000000000000 
0.000000000000000 1.000000000000000 0.000000000000000 1.000000000000000 
0.000000000000000 0.000000000000000 1.000000000000000 -0.000000000000000 
2  28 -1 4 1 25 -1 24 -1 0
2  25 -1 24 -1 0
2  2 1 3 1 25 -1 24 -1 0
2  2 -1 8 1 0
2  24 1 25 1 4 -1 28 1 0
2  4 -1 28 1 0
2  24 1 25 1 0
Curve2ds 64
1 0.00000000000000000 0.00000000000000000 0.00000000000000000 -1.00000000000000000 
1 115.00000000000000000 0.00000000000000000 0.00000000000000000 -1.00000000000000000 
1 0.00000000000000000 0.00000000000000000 0.00000000000000000 -1.00000000000000000 
1 -57.50000000000000000 42.50000000000000000 1.00000000000000000 0.00000000000000000 
1 0.00000000000000000 0.00000000000000000 1.00000000000000000 0.00000000000000000 
1 0.00000000000000000 -30.00000000000000000 1.00000000000000000 0.00000000000000000 
1 115.00000000000000000 0.00000000000000000 0.00000000000000000 -1.00000000000000000 
1 -57.50000000000000000 -42.50000000000000000 0.00000000000000000 1.00000000000000000 
1 0.00000000000000000 -0.00000000000000000 0.00000000000000000 -1.00000000000000000 
1 85.00000000000000000 0.00000000000000000 0.00000000000000000 -1.00000000000000000 
1 57.50000000000000000 42.50000000000000000 0.00000000000000000 -1.00000000000000000 
1 0.00000000000000000 0.00000000000000000 1.00000000000000000 0.00000000000000000 
1 0.00000000000000000 -30.00000000000000000 1.00000000000000000 0.00000000000000000 
1 57.50000000000000000 -42.50000000000000000 -1.00000000000000000 0.00000000000000000 
1 0.00000000000000000 -0.00000000000000000 1.00000000000000000 0.00000000000000000 
1 0.00000000000000000 -30.00000000000000000 1.00000000000000000 0.00000000000000000 
8 -9999971.25000000000000000 9999971.25000000000000000
1 -28.75000000000000000 44.50000000000000000 -1.00000000000000000 0.00000000000000000 
8 -9999971.25000000000000000 9999971.25000000000000000
1 28.75000000000000000 -30.00000000000000000 -1.00000000000000000 0.00000000000000000 
8 -9999978.75000000000000000 9999978.75000000000000000
1 -59.50000000000000000 -21.25000000000000000 0.00000000000000000 -1.00000000000000000 
8 -9999978.75000000000000000 9999978.75000000000000000
1 21.25000000000000000 -30.00000000000000000 -1.00000000000000000 0.00000000000000000 
8 -9999971.25000000000000000 9999971.25000000000000000
1 28.75000000000000000 -44.50000000000000000 1.00000000000000000 0.00000000000000000 
8 -9999971.25000000000000000 9999971.25000000000000000
1 28.75000000000000000 -30.00000000000000000 -1.00000000000000000 0.00000000000000000 
8 -9999978.75000000000000000 9999978.75000000000000000
1 59.50000000000000000 21.25000000000000000 0.00000000000000000 1.00000000000000000 
8 -9999978.75000000000000000 9999978.75000000000000000
1 21.25000000000000000 -30.00000000000000000 -1.00000000000000000 0.00000000000000000 
8 -10000000.00000000000000000 10000000.00000000000000000
1 -2.00000000000000000 0.00000000000000000 0.00000000000000000 -1.00000000000000000 
8 -10000000.00000000000000000 10000000.00000000000000000
1 87.00000000000000000 0.00000000000000000 0.00000000000000000 -1.00000000000000000 
8 -10000000.00000000000000000 10000000.00000000000000000
1 117.00000000000000000 0.00000000000000000 0.00000000000000000 1.00000000000000000 
8 -10000000.00000000000000000 10000000.00000000000000000
1 -2.00000000000000000 0.00000000000000000 0.00000000000000000 1.00000000000000000 
8 -9999971.25000000000000000 9999971.25000000000000000
1 28.75000000000000000 2.00000000000000000 1.00000000000000000 0.00000000000000000 
8 -9999971.25000000000000000 9999971.25000000000000000
1 -28.75000000000000000 44.50000000000000000 1.00000000000000000 0.00000000000000000 
8 -9999978.75000000000000000 9999978.75000000000000000
1 21.25000000000000000 2.00000000000000000 1.00000000000000000 0.00000000000000000 
8 -9999978.75000000000000000 9999978.75000000000000000
1 -59.50000000000000000 -21.25000000000000000 0.00000000000000000 1.00000000000000000 
8 -10000000.00000000000000000 10000000.00000000000000000
1 117.00000000000000000 0.00000000000000000 0.00000000000000000 1.00000000000000000 
8 -10000000.00000000000000000 10000000.00000000000000000
1 -2.00000000000000000 0.00000000000000000 -0.00000000000000000 1.00000000000000000 
8 -9999971.25000000000000000 9999971.25000000000000000
1 28.75000000000000000 2.00000000000000000 1.00000000000000000 0.00000000000000000 
8 -9999971.25000000000000000 9999971.25000000000000000
1 28.75000000000000000 -44.50000000000000000 -1.00000000000000000 0.00000000000000000 
8 -10000000.00000000000000000 10000000.00000000000000000
1 87.00000000000000000 0.00000000000000000 0.00000000000000000 1.00000000000000000 
8 -10000000.00000000000000000 10000000.00000000000000000
1 -2.00000000000000000 -0.00000000000000000 0.00000000000000000 1.00000000000000000 
1 0.00000000000000000 0.00000000000000000 1.00000000000000000 0.00000000000000000 
1 0.00000000000000022 -1.00000000000000000 1.00000000000000000 0.00000000000000000 
1 -1.50000000000000000 -11.00000000000000000 1.00000000000000000 0.00000000000000000 
1 68.50000000000000000 -20.00000000000000000 0.00000000000000000 -1.00000000000000000 
1 0.00000000000000000 0.00000000000000000 1.00000000000000000 0.00000000000000000 
1 0.00000000000000000 -1.00000000000000000 1.00000000000000000 0.00000000000000000 
1 -1.50000000000000000 11.00000000000000000 0.00000000000000000 -1.00000000000000000 
1 46.50000000000000000 -20.00000000000000000 1.00000000000000000 0.00000000000000000 
1 0.00000000000000000 0.00000000000000000 1.00000000000000000 0.00000000000000000 
1 -0.00000000000000022 -1.00000000000000000 1.00000000000000000 0.00000000000000000 
1 1.50000000000000000 11.00000000000000000 -1.00000000000000000 0.00000000000000000 
1 46.50000000000000000 -23.00000000000000000 0.00000000000000000 1.00000000000000000 
1 0.00000000000000000 0.00000000000000000 1.00000000000000000 0.00000000000000000 
1 0.00000000000000000 -1.00000000000000000 1.00000000000000000 0.00000000000000000 
1 1.50000000000000000 -11.00000000000000000 0.00000000000000000 1.00000000000000000 
1 68.50000000000000000 -23.00000000000000000 -1.00000000000000000 -0.00000000000000000 
8 -9999978.75000000000000000 9999978.75000000000000000
1 21.25000000000000000 2.00000000000000000 1.00000000000000000 0.00000000000000000 
8 -9999978.75000000000000000 9999978.75000000000000000
1 59.50000000000000000 21.25000000000000000 0.00000000000000000 -1.00000000000000000 
1 22.00000000000000000 0.00000000000000000 0.00000000000000000 -1.00000000000000000 
1 0.00000000000000000 0.00000000000000000 0.00000000000000000 -1.00000000000000000 
1 0.00000000000000000 0.00000000000000000 0.00000000000000000 -1.00000000000000000 
1 3.00000000000000000 0.00000000000000000 0.00000000000000000 -1.00000000000000000 
1 3.00000000000000000 0.00000000000000000 0.00000000000000000 -1.00000000000000000 
1 0.00000000000000000 0.00000000000000000 0.00000000000000000 -1.00000000000000000 
1 22.00000000000000000 0.00000000000000000 0.00000000000000000 -1.00000000000000000 
1 0.00000000000000000 0.00000000000000000 0.00000000000000000 -1.00000000000000000 
Curves 28
1 0.00000000000000000 85.00000000000000000 0.00000000000000000 0.00000000000000000 0.00000000000000000 1.00000000000000000 
1 115.00000000000000000 85.00000000000000000 0.00000000000000000 0.00000000000000000 0.00000000000000000 1.00000000000000000 
1 0.00000000000000000 85.00000000000000000 0.00000000000000000 1.00000000000000000 0.00000000000000000 0.00000000000000000 
1 0.00000000000000000 0.00000000000000000 0.00000000000000000 0.00000000000000000 0.00000000000000000 1.00000000000000000 
1 0.00000000000000000 0.00000000000000000 0.00000000000000000 0.00000000000000000 1.00000000000000000 0.00000000000000000 
1 115.00000000000000000 0.00000000000000000 0.00000000000000000 0.00000000000000000 0.00000000000000000 1.00000000000000000 
1 115.00000000000000000 85.00000000000000000 0.00000000000000000 0.00000000000000000 -1.00000000000000000 0.00000000000000000 
1 115.00000000000000000 0.00000000000000000 0.00000000000000000 -1.00000000000000000 0.00000000000000000 0.00000000000000000 
8 -9999971.25000000000000000 9999971.25000000000000000
1 28.75000000000000000 87.00000000000000000 30.00000000000000000 -1.00000000000000000 0.00000000000000000 0.00000000000000000 
8 -9999978.75000000000000000 9999978.75000000000000000
1 -2.00000000000000000 21.25000000000000000 30.00000000000000000 0.00000000000000000 -1.00000000000000000 0.00000000000000000 
8 -9999971.25000000000000000 9999971.25000000000000000
1 86.25000000000000000 -2.00000000000000000 30.00000000000000000 1.00000000000000000 0.00000000000000000 -0.00000000000000000 
8 -9999978.75000000000000000 9999978.75000000000000000
1 117.00000000000000000 63.75000000000000000 30.00000000000000000 0.00000000000000000 1.00000000000000000 0.00000000000000000 
8 -10000000.00000000000000000 10000000.00000000000000000
1 -2.00000000000000000 87.00000000000000000 0.00000000000000000 0.00000000000000000 -0.00000000000000000 1.00000000000000000 
8 -10000000.00000000000000000 10000000.00000000000000000
1 117.00000000000000000 87.00000000000000000 0.00000000000000000 0.00000000000000000 0.00000000000000000 -1.00000000000000000 
8 -9999971.25000000000000000 9999971.25000000000000000
1 28.75000000000000000 87.00000000000000000 -2.00000000000000000 1.00000000000000000 0.00000000000000000 0.00000000000000000 
8 -9999978.75000000000000000 9999978.75000000000000000
1 -2.00000000000000000 21.25000000000000000 -2.00000000000000000 0.00000000000000000 1.00000000000000000 -0.00000000000000000 
8 -10000000.00000000000000000 10000000.00000000000000000
1 -2.00000000000000000 -2.00000000000000000 0.00000000000000000 -0.00000000000000000 -0.00000000000000000 -1.00000000000000000 
8 -9999971.25000000000000000 9999971.25000000000000000
1 86.25000000000000000 -2.00000000000000000 -2.00000000000000000 -1.00000000000000000 0.00000000000000000 0.00000000000000000 
8 -10000000.00000000000000000 10000000.00000000000000000
1 117.00000000000000000 -2.00000000000000000 0.00000000000000000 0.00000000000000000 0.00000000000000000 -1.00000000000000000 
1 46.50000000000000000 20.00000000000000000 0.00000000000000000 0.00000000000000000 1.00000000000000000 0.00000000000000000 
1 68.50000000000000000 20.00000000000000000 0.00000000000000000 -1.00000000000000000 0.00000000000000000 0.00000000000000000 
1 68.50000000000000000 23.00000000000000000 0.00000000000000000 0.00000000000000000 -1.00000000000000000 0.00000000000000000 
1 46.50000000000000000 23.00000000000000000 0.00000000000000000 1.00000000000000000 0.00000000000000000 0.00000000000000000 
8 -9999978.75000000000000000 9999978.75000000000000000
1 117.00000000000000000 63.75000000000000000 -2.00000000000000000 0.00000000000000000 -1.00000000000000000 0.00000000000000000 
1 46.50000000000000000 -1.99999999999999556 20.00000000000000000 0.00000000000000000 1.00000000000000000 -0.00000000000000022 
1 46.50000000000000000 -1.99999999999999489 23.00000000000000000 0.00000000000000000 1.00000000000000000 -0.00000000000000022 
1 68.50000000000000000 -1.99999999999999556 20.00000000000000000 0.00000000000000000 1.00000000000000000 -0.00000000000000022 
1 68.50000000000000000 -1.99999999999999489 23.00000000000000000 0.00000000000000000 1.00000000000000000 -0.00000000000000022 
Polygon3D 0
PolygonOnTriangulations 0
Surfaces 15
1 0.00000000000000000 85.00000000000000000 0.00000000000000000 0.00000000000000000 1.00000000000000000 0.00000000000000000 1.00000000000000000 0.00000000000000000 0.00000000000000000 0.00000000000000000 0.00000000000000000 -1.00000000000000000 
1 115.00000000000000000 85.00000000000000000 0.00000000000000000 1.00000000000000000 0.00000000000000000 -0.00000000000000000 0.00000000000000000 -1.00000000000000000 0.00000000000000000 0.00000000000000000 -0.00000000000000000 -1.00000000000000000 
1 57.50000000000000000 42.50000000000000000 0.00000000000000000 0.00000000000000000 0.00000000000000000 1.00000000000000000 1.00000000000000000 0.00000000000000000 -0.00000000000000000 -0.00000000000000000 1.00000000000000000 0.00000000000000000 
1 0.00000000000000000 0.00000000000000000 0.00000000000000000 -1.00000000000000000 0.00000000000000000 0.00000000000000000 0.00000000000000000 1.00000000000000000 0.00000000000000000 0.00000000000000000 0.00000000000000000 -1.00000000000000000 
1 115.00000000000000000 0.00000000000000000 0.00000000000000000 0.00000000000000000 -1.00000000000000000 0.00000000000000000 -1.00000000000000000 0.00000000000000000 0.00000000000000000 -0.00000000000000000 -0.00000000000000000 -1.00000000000000000 
1 0.00000000000000000 87.00000000000000000 0.00000000000000000 0.00000000000000000 1.00000000000000000 0.00000000000000000 1.00000000000000000 0.00000000000000000 0.00000000000000000 0.00000000000000000 0.00000000000000000 -1.00000000000000000 
1 -2.00000000000000000 0.00000000000000000 0.00000000000000000 -1.00000000000000000 0.00000000000000000 0.00000000000000000 0.00000000000000000 1.00000000000000000 0.00000000000000000 0.00000000000000000 0.00000000000000000 -1.00000000000000000 
1 115.00000000000000000 -2.00000000000000000 0.00000000000000000 0.00000000000000000 -1.00000000000000000 0.00000000000000000 -1.00000000000000000 0.00000000000000000 0.00000000000000000 -0.00000000000000000 -0.00000000000000000 -1.00000000000000000 
1 117.00000000000000000 85.00000000000000000 0.00000000000000000 1.00000000000000000 0.00000000000000000 -0.00000000000000000 0.00000000000000000 -1.00000000000000000 0.00000000000000000 0.00000000000000000 -0.00000000000000000 -1.00000000000000000 
1 57.50000000000000000 42.50000000000000000 -2.00000000000000000 0.00000000000000000 0.00000000000000000 1.00000000000000000 1.00000000000000000 0.00000000000000000 -0.00000000000000000 -0.00000000000000000 1.00000000000000000 0.00000000000000000 
1 46.50000000000000000 -1.99999999999999556 20.00000000000000000 1.00000000000000000 -0.00000000000000000 0.00000000000000000 0.00000000000000000 0.00000000000000022 1.00000000000000000 -0.00000000000000000 -1.00000000000000000 0.00000000000000022 
1 57.50000000000000000 -1.99999999999999512 21.50000000000000000 0.00000000000000000 1.00000000000000000 -0.00000000000000022 0.00000000000000000 0.00000000000000022 1.00000000000000000 1.00000000000000000 -0.00000000000000000 0.00000000000000000 
1 68.50000000000000000 -1.99999999999999556 20.00000000000000000 0.00000000000000000 0.00000000000000022 1.00000000000000000 -1.00000000000000000 0.00000000000000000 0.00000000000000000 0.00000000000000000 -1.00000000000000000 0.00000000000000022 
1 68.50000000000000000 -1.99999999999999489 23.00000000000000000 -1.00000000000000000 0.00000000000000000 -0.00000000000000000 0.00000000000000000 -0.00000000000000022 -1.00000000000000000 -0.00000000000000000 -1.00000000000000000 0.00000000000000022 
1 46.50000000000000000 -1.99999999999999489 23.00000000000000000 0.00000000000000000 -0.00000000000000022 -1.00000000000000000 1.00000000000000000 0.00000000000000000 0.00000000000000000 0.00000000000000000 -1.00000000000000000 0.00000000000000022 
Triangulations 0

TShapes 80
Ve
0.001000000000000
0.000000000000000 85.000000000000000 0.000000000000000
0 0

0101101
*
Ed
 0.000000100000000 1 1 0
1  1 0 0.000000000000000 30.000000000000000
2  1 1 0 0.000000000000000 30.000000000000000
0

0101000
+80 9 -80 11 *
Ve
0.001000000000000
115.000000000000000 85.000000000000000 0.000000000000000
0 0

0101101
*
Ed
 0.000000100000000 1 1 0
1  2 0 0.000000000000000 30.000000000000000
2  2 1 0 0.000000000000000 30.000000000000000
2  3 2 0 0.000000000000000 30.000000000000000
0

0101000
+78 9 -78 11 *
Ed
 0.001000000000000 1 1 0
1  3 0 0.000000000000000 115.000000000000000
2  4 3 12 0.000000000000000 115.000000000000000
2  5 1 13 0.000000000000000 115.000000000000000
2  6 1 14 0.000000000000000 115.000000000000000
0

0101000
+80 0 -78 0 *
Wi

0101100
+79 0 -77 0 -76 9 +76 11 *
Fa
0  0.000000100000000 1 0

0111000
+75 0 *
Ve
0.001000000000000
0.000000000000000 0.000000000000000 0.000000000000000
0 0

0101101
*
Ed
 0.000000100000000 1 1 0
1  4 0 0.000000000000000 30.000000000000000
2  7 5 0 0.000000000000000 30.000000000000000
0

0101000
+73 9 -73 11 *
Ed
 0.001000000000000 1 1 0
1  5 0 0.000000000000000 85.000000000000000
2  8 3 12 0.000000000000000 85.000000000000000
0

0101000
+73 0 -80 0 *
Wi

0101100
+72 0 -79 0 -71 9 +71 11 *
Fa
0  0.000000100000000 4 0

0111000
+70 0 *
Ve
0.001000000000000
115.000000000000000 0.000000000000000 0.000000000000000
0 0

0101101
*
Ed
 0.000000100000000 1 1 0
1  6 0 0.000000000000000 30.000000000000000
2  9 5 0 0.000000000000000 30.000000000000000
2  10 2 0 0.000000000000000 30.000000000000000
0

0101000
+68 9 -68 11 *
Ed
 0.001000000000000 1 1 0
1  7 0 0.000000000000000 85.000000000000000
2  11 3 12 0.000000000000000 85.000000000000000
2  12 2 13 0.000000000000000 85.000000000000000
2  13 2 14 0.000000000000000 85.000000000000000
0

0101000
+78 0 -68 0 *
Wi

0101100
+77 0 -67 0 -66 9 +66 11 *
Fa
0  0.000000100000000 2 0

0111000
+65 0 *
Ed
 0.001000000000000 1 1 0
1  8 0 0.000000000000000 115.000000000000000
2  14 3 12 0.000000000000000 115.000000000000000
2  15 5 13 0.000000000000000 115.000000000000000
2  16 5 14 0.000000000000000 115.000000000000000
0

0101000
+68 0 -73 0 *
Wi

0101100
+76 0 +66 0 +63 0 +71 0 *
Fa
0  0.000000100000000 3 0

0111000
-62 16 *
Wi

0101100
+76 19 +66 19 +63 19 +71 19 *
Ve
0.001000000000000
117.000000000000000 87.000000000000000 30.000000000000000
0 0

0101101
*
Ve
0.001000000000000
-2.000000000000000 87.000000000000000 30.000000000000000
0 0

0101101
*
Ed
 0.001000000000000 1 1 0
1  9 0 -88.250000000000000 30.750000000000000
2  17 3 20 -88.250000000000000 30.750000000000000
2  18 6 2 -88.250000000000000 30.750000000000000
0

0101000
+59 0 -58 0 *
Ve
0.001000000000000
-2.000000000000000 -2.000000000000000 30.000000000000000
0 0

0101101
*
Ed
 0.001000000000000 1 1 0
1  10 0 -65.750000000000000 23.250000000000000
2  19 3 20 -65.750000000000000 23.250000000000000
2  20 7 2 -65.750000000000000 23.250000000000000
0

0101000
+58 0 -56 0 *
Ve
0.001000000000000
117.000000000000000 -2.000000000000000 30.000000000000000
0 0

0101101
*
Ed
 0.001000000000000 1 1 0
1  11 0 -88.250000000000000 30.750000000000000
2  21 3 20 -88.250000000000000 30.750000000000000
2  22 8 2 -88.250000000000000 30.750000000000000
0

0101000
+56 0 -54 0 *
Ed
 0.001000000000000 1 1 0
1  12 0 -65.750000000000000 23.250000000000000
2  23 3 20 -65.750000000000000 23.250000000000000
2  24 9 2 -65.750000000000000 23.250000000000000
0

0101000
+54 0 -59 0 *
Wi

0101100
+57 0 +55 0 +53 0 +52 0 *
Fa
0  0.000000100000000 3 0

0111000
+60 18 +51 18 *
Wi

0101100
+67 0 -72 0 -63 9 +63 11 *
Fa
0  0.000000100000000 5 0

0111000
+49 0 *
Ve
0.001000000000000
-2.000000000000000 87.000000000000000 -2.000000000000000
0 0

0101101
*
Ed
 0.001000000000000 1 1 0
1  13 0 -2.000000000000000 30.000000000000000
2  25 6 2 -2.000000000000000 30.000000000000000
2  26 7 2 -2.000000000000000 30.000000000000000
0

0101000
+47 0 -58 0 *
Ve
0.001000000000000
117.000000000000000 87.000000000000000 -2.000000000000000
0 0

0101101
*
Ed
 0.001000000000000 1 1 0
1  14 0 -30.000000000000000 2.000000000000000
2  27 6 2 -30.000000000000000 2.000000000000000
2  28 9 2 -30.000000000000000 2.000000000000000
0

0101000
+59 0 -45 0 *
Ed
 0.001000000000000 1 1 0
1  15 0 -30.750000000000000 88.250000000000000
2  29 6 2 -30.750000000000000 88.250000000000000
2  30 10 22 -30.750000000000000 88.250000000000000
0

0101000
+47 0 -45 0 *
Wi

0101100
+46 0 -57 0 +44 0 -43 0 *
Fa
0  0.000000100000000 6 0

0101000
+42 21 *
Ve
0.001000000000000
-2.000000000000000 -2.000000000000000 -2.000000000000000
0 0

0101101
*
Ed
 0.001000000000000 1 1 0
1  16 0 -23.250000000000000 65.750000000000000
2  31 7 2 -23.250000000000000 65.750000000000000
2  32 10 22 -23.250000000000000 65.750000000000000
0

0101000
+40 0 -47 0 *
Ed
 0.001000000000000 1 1 0
1  17 0 -30.000000000000000 2.000000000000000
2  33 8 2 -30.000000000000000 2.000000000000000
2  34 7 2 -30.000000000000000 2.000000000000000
0

0101000
+56 0 -40 0 *
Wi

0101100
-39 0 -38 0 -55 0 -46 0 *
Fa
0  0.000000100000000 7 0

0111000
+37 21 *
Ve
0.001000000000000
117.000000000000000 -2.000000000000000 -2.000000000000000
0 0

0101101
*
Ed
 0.001000000000000 1 1 0
1  18 0 -30.750000000000000 88.250000000000000
2  35 8 2 -30.750000000000000 88.250000000000000
2  36 10 22 -30.750000000000000 88.250000000000000
0

0101000
+35 0 -40 0 *
Ed
 0.001000000000000 1 1 0
1  19 0 -30.000000000000000 2.000000000000000
2  37 9 2 -30.000000000000000 2.000000000000000
2  38 8 2 -30.000000000000000 2.000000000000000
0

0101000
+54 0 -35 0 *
Wi

0101100
+38 23 -53 23 -34 23 -33 23 *
Ve
0.000000100000005
46.500000000000000 20.000000000000000 0.000000000000000
0 0

0101101
*
Ve
0.000000100000005
46.500000000000000 23.000000000000000 0.000000000000000
0 0

0101101
*
Ed
 0.000000100000005 1 1 0
1  20 0 0.000000000000000 3.000000000000000
2  39 11 27 0.000000000000000 3.000000000000000
2  40 11 29 0.000000000000000 3.000000000000000
2  41 12 30 0.000000000000000 3.000000000000000
2  42 8 31 0.000000000000000 3.000000000000000
0

0101000
+31 0 -30 0 *
Ve
0.000000100000005
68.500000000000000 20.000000000000000 0.000000000000000
0 0

0101101
*
Ed
 0.000000100000004 1 1 0
1  21 0 0.000000000000000 22.000000000000000
2  43 13 27 0.000000000000000 22.000000000000000
2  44 13 29 0.000000000000000 22.000000000000000
2  45 12 30 0.000000000000000 22.000000000000000
2  46 8 31 0.000000000000000 22.000000000000000
0

0101000
+28 0 -31 0 *
Ve
0.000000100000005
68.500000000000000 23.000000000000000 0.000000000000000
0 0

0101101
*
Ed
 0.000000100000005 1 1 0
1  22 0 0.000000000000000 3.000000000000000
2  47 14 27 0.000000000000000 3.000000000000000
2  48 14 29 0.000000000000000 3.000000000000000
2  49 12 30 0.000000000000000 3.000000000000000
2  50 8 31 0.000000000000000 3.000000000000000
0

0101000
+26 0 -28 0 *
Ed
 0.000000100000005 1 1 0
1  23 0 0.000000000000000 22.000000000000000
2  51 15 27 0.000000000000000 22.000000000000000
2  52 15 29 0.000000000000000 22.000000000000000
2  53 12 30 0.000000000000000 22.000000000000000
2  54 8 31 0.000000000000000 22.000000000000000
0

0101000
+30 0 -26 0 *
Wi

0101100
+29 26 +27 26 +25 26 +24 26 *
Fa
0  0.000000100000000 8 5

0101000
+32 0 +23 0 *
Ed
 0.001000000000000 1 1 0
1  24 0 -23.250000000000000 65.750000000000000
2  55 9 2 -23.250000000000000 65.750000000000000
2  56 10 22 -23.250000000000000 65.750000000000000
0

0101000
+45 0 -35 0 *
Wi

0101100
+33 0 -21 0 -44 0 -52 0 *
Fa
0  0.000000100000000 9 0

0111000
+20 21 *
Wi

0101100
-43 0 -39 0 -34 0 -21 0 *
Fa
0  0.000000100000000 10 0

0111000
+18 32 *
Ed
 0.000000100000000 1 1 0
1  25 0 0.000000000000000 1.000000000000000
2  57 13 0 0.000000000000000 1.000000000000000
2  58 11 0 0.000000000000000 1.000000000000000
0

0101000
+31 26 -31 33 *
Ed
 0.000000100000000 1 1 0
1  26 0 0.000000000000000 1.000000000000000
2  59 15 0 0.000000000000000 1.000000000000000
2  60 11 0 0.000000000000000 1.000000000000000
0

0101000
+30 26 -30 33 *
Wi

0101100
+16 0 -15 0 -29 26 +29 33 *
Fa
0  0.000000100000000 11 0

0101000
+14 0 *
Ed
 0.000000100000000 1 1 0
1  27 0 0.000000000000000 1.000000000000000
2  61 14 0 0.000000000000000 1.000000000000000
2  62 13 0 0.000000000000000 1.000000000000000
0

0101000
+28 26 -28 33 *
Wi

0101100
+12 0 -16 0 -27 26 +27 33 *
Fa
0  0.000000100000000 13 0

0101000
+11 0 *
Ed
 0.000000100000000 1 1 0
1  28 0 0.000000000000000 1.000000000000000
2  63 15 0 0.000000000000000 1.000000000000000
2  64 14 0 0.000000000000000 1.000000000000000
0

0101000
+26 26 -26 33 *
Wi

0101100
+9 0 -12 0 -25 26 +25 33 *
Fa
0  0.000000100000000 14 0

0101000
+8 0 *
Wi

0101100
+15 0 -9 0 -24 26 +24 33 *
Fa
0  0.000000100000000 15 0

0101000
+6 0 *
Wi

0101100
+24 0 +25 0 +27 0 +29 0 *
Fa
0  0.000000100000000 12 0

0111000
+4 35 *
Sh

0101100
-74 5 -69 5 -64 5 +61 15 +50 17 -48 5 +41 5 +36 5 +22 0 +19 5 
-17 15 +13 0 +10 0 +7 0 +5 0 -3 34 *
So

0100000
+2 0 *

+1 1 