
CASCADE Topology V1, (c) Matra-Datavision
Locations 61
1
1.000000000000000 0.000000000000000 0.000000000000000 0.000000000000000 
0.000000000000000 1.000000000000000 0.000000000000000 0.000000000000000 
0.000000000000000 0.000000000000000 1.000000000000000 0.000000000000000 
1
1.000000000000000 0.000000000000000 0.000000000000000 0.000000000000000 
0.000000000000000 1.000000000000000 0.000000000000000 0.000000000000000 
0.000000000000000 0.000000000000000 1.000000000000000 0.000000000000000 
2  2 -1 0
1
1.000000000000000 0.000000000000000 0.000000000000000 0.000000000000000 
0.000000000000000 1.000000000000000 0.000000000000000 0.000000000000000 
0.000000000000000 0.000000000000000 1.000000000000000 0.000000000000000 
1
1.000000000000000 0.000000000000000 0.000000000000000 0.000000000000000 
0.000000000000000 0.000000000000000 -1.000000000000000 54.000000000000000 
0.000000000000000 1.000000000000000 0.000000000000000 0.000000000000000 
1
1.000000000000000 0.000000000000000 0.000000000000000 0.000000000000000 
0.000000000000000 1.000000000000000 0.000000000000000 0.000000000000000 
0.000000000000000 0.000000000000000 1.000000000000000 0.000000000000000 
2  4 1 5 1 6 -1 0
2  4 1 5 1 6 -1 2 1 0
2  6 1 5 -1 4 -1 0
1
1.000000000000000 0.000000000000000 0.000000000000000 0.000000000000000 
0.000000000000000 1.000000000000000 0.000000000000000 -1.000000000000000 
0.000000000000000 0.000000000000000 1.000000000000000 0.000000000000000 
2  10 -1 6 1 5 -1 4 -1 0
2  5 -1 4 -1 0
1
1.000000000000000 0.000000000000000 0.000000000000000 0.000000000000000 
0.000000000000000 1.000000000000000 0.000000000000000 0.000000000000000 
0.000000000000000 0.000000000000000 1.000000000000000 0.000000000000000 
2  13 1 5 -1 4 -1 0
2  4 1 5 1 6 -1 10 1 2 1 0
2  2 -1 10 -1 6 1 5 -1 4 -1 0
2  6 -1 10 1 2 1 0
2  13 1 6 -1 0
1
1.000000000000000 0.000000000000000 0.000000000000000 0.000000000000000 
0.000000000000000 1.000000000000000 0.000000000000000 0.000000000000000 
0.000000000000000 0.000000000000000 1.000000000000000 0.000000000000000 
1
1.000000000000000 0.000000000000000 0.000000000000000 0.000000000000000 
0.000000000000000 1.000000000000000 0.000000000000000 0.000000000000000 
0.000000000000000 0.000000000000000 1.000000000000000 0.000000000000000 
1
1.000000000000000 0.000000000000000 0.000000000000000 0.000000000000000 
0.000000000000000 1.000000000000000 0.000000000000000 0.000000000000000 
0.000000000000000 0.000000000000000 1.000000000000000 0.000000000000000 
1
1.000000000000000 0.000000000000000 0.000000000000000 0.000000000000000 
0.000000000000000 1.000000000000000 0.000000000000000 0.000000000000000 
0.000000000000000 0.000000000000000 1.000000000000000 10.000000000000000 
2  19 1 20 1 21 -1 22 1 0
2  19 1 20 1 21 -1 22 1 13 1 6 -1 0
2  21 1 20 -1 19 -1 0
2  22 -1 21 1 20 -1 19 -1 0
2  20 -1 19 -1 0
1
1.000000000000000 0.000000000000000 0.000000000000000 0.000000000000000 
0.000000000000000 1.000000000000000 0.000000000000000 0.000000000000000 
0.000000000000000 0.000000000000000 1.000000000000000 0.000000000000000 
2  28 1 20 -1 19 -1 0
2  4 1 5 1 13 -1 22 -1 21 1 20 -1 19 -1 0
1
1.000000000000000 0.000000000000000 0.000000000000000 0.000000000000000 
0.000000000000000 1.000000000000000 0.000000000000000 0.000000000000000 
0.000000000000000 0.000000000000000 1.000000000000000 0.000000000000000 
1
1.000000000000000 0.000000000000000 0.000000000000000 0.000000000000000 
0.000000000000000 1.000000000000000 0.000000000000000 0.000000000000000 
0.000000000000000 0.000000000000000 1.000000000000000 0.000000000000000 
1
1.000000000000000 0.000000000000000 0.000000000000000 0.000000000000000 
0.000000000000000 1.000000000000000 0.000000000000000 0.000000000000000 
0.000000000000000 0.000000000000000 1.000000000000000 0.000000000000000 
1
1.000000000000000 0.000000000000000 0.000000000000000 0.000000000000000 
0.000000000000000 1.000000000000000 0.000000000000000 0.000000000000000 
0.000000000000000 0.000000000000000 1.000000000000000 2.000000000000000 
2  31 1 32 1 33 -1 34 1 28 1 21 -1 13 1 6 -1 0
1
1.000000000000000 0.000000000000000 0.000000000000000 0.000000000000000 
0.000000000000000 1.000000000000000 0.000000000000000 0.000000000000000 
0.000000000000000 0.000000000000000 1.000000000000000 0.000000000000000 
2  36 -1 31 -1 0
2  32 -1 31 -1 0
2  33 1 32 -1 31 -1 0
2  34 -1 33 1 32 -1 31 -1 0
2  21 1 28 -1 34 -1 33 1 32 -1 31 -1 0
2  2 -1 10 -1 6 1 0
2  13 1 6 -1 2 1 0
2  28 1 21 -1 0
2  19 1 20 1 21 -1 0
2  21 -1 22 1 13 1 6 -1 0
2  33 -1 34 1 28 1 21 -1 0
2  31 1 32 1 33 -1 34 1 28 1 21 -1 0
1
1.000000000000000 0.000000000000000 0.000000000000000 0.000000000000000 
0.000000000000000 1.000000000000000 0.000000000000000 0.000000000000000 
0.000000000000000 0.000000000000000 1.000000000000000 0.000000000000000 
2  49 1 36 -1 31 -1 0
1
1.000000000000000 0.000000000000000 0.000000000000000 0.000000000000000 
0.000000000000000 1.000000000000000 0.000000000000000 0.000000000000000 
0.000000000000000 0.000000000000000 1.000000000000000 2.000000000000000 
2  51 -1 49 1 36 -1 31 -1 0
2  31 1 32 1 33 -1 28 1 21 -1 0
2  19 1 20 1 28 -1 33 1 32 -1 31 -1 0
2  31 1 32 1 33 -1 0
2  31 1 32 1 33 -1 34 1 0
2  21 -1 13 1 6 -1 2 1 0
2  19 1 20 1 0
2  28 1 21 -1 13 1 6 -1 2 1 0
2  33 -1 28 1 21 -1 0
2  21 -1 22 1 13 1 6 -1 2 1 0
Curve2ds 98
1 0.00000000000000000 0.00000000000000000 0.00000000000000000 -1.00000000000000000 
1 20.00000000000000000 0.00000000000000000 0.00000000000000000 -1.00000000000000000 
1 20.00000000000000000 -0.35355339059327062 0.00000000000000000 1.00000000000000000 
1 -0.10000000000000245 -0.60000000000000853 0.70710678118655057 -0.70710678118654446 
1 0.00000000000000000 0.00000000000000000 1.00000000000000000 0.00000000000000000 
1 -0.00000000000000022 -1.00000000000000000 1.00000000000000000 0.00000000000000000 
1 -1.50000000000000000 -10.00000000000000000 1.00000000000000000 0.00000000000000000 
1 25.00000000000000000 -7.00000000000000000 0.00000000000000000 -1.00000000000000000 
1 0.00000000000000000 0.00000000000000000 0.00000000000000000 -1.00000000000000000 
1 3.00000000000000000 -0.00000000000000067 0.00000000000000000 -1.00000000000000000 
1 -0.00000000000000000 0.70710678118655379 0.00000000000000000 1.00000000000000000 
1 2.34999999999999032 -1.35000000000000187 -0.70710678118655179 -0.70710678118654324 
1 3.00000000000000000 0.00000000000000067 0.00000000000000000 -1.00000000000000000 
1 0.00000000000000000 0.00000000000000000 0.00000000000000000 -1.00000000000000000 
1 0.00000000000000000 -0.21213203435596029 1.00000000000000000 0.00000000000000000 
1 0.00000000000000000 -0.70000000000000284 1.00000000000000000 0.00000000000000000 
1 -1.50000000000000000 10.00000000000000000 0.00000000000000000 -1.00000000000000000 
1 0.00000000000000000 0.00000000000000000 1.00000000000000000 0.00000000000000000 
1 0.00000000000000000 -1.00000000000000000 1.00000000000000000 0.00000000000000000 
1 5.00000000000000000 -7.00000000000000000 1.00000000000000000 0.00000000000000000 
1 -0.00000000000000000 0.70710678118655568 0.00000000000000000 1.00000000000000000 
1 2.34999999999999565 -1.35000000000000808 -0.70710678118655057 -0.70710678118654446 
1 0.00000000000000000 0.21213203435596029 1.00000000000000000 0.00000000000000000 
1 -1.20000000000000018 10.00000000000000000 0.00000000000000000 -1.00000000000000000 
1 30.00000000000000000 0.00000000000000000 0.00000000000000000 -1.00000000000000000 
1 0.00000000000000000 0.00000000000000000 0.00000000000000000 -1.00000000000000000 
1 0.00000000000000000 -0.00000000000000000 1.00000000000000000 0.00000000000000000 
1 0.00000000000000000 -10.00000000000000000 1.00000000000000000 0.00000000000000000 
1 15.00000000000000000 27.00000000000000000 -1.00000000000000000 0.00000000000000000 
1 75.00000000000000000 0.00000000000000000 -1.00000000000000000 0.00000000000000000 
1 0.00000000000000000 0.00000000000000000 1.00000000000000000 0.00000000000000000 
1 0.00000000000000022 -1.00000000000000000 1.00000000000000000 0.00000000000000000 
1 1.50000000000000000 10.00000000000000000 -1.00000000000000000 0.00000000000000000 
1 5.00000000000000000 -10.00000000000000000 0.00000000000000000 1.00000000000000000 
1 2.00000000000000000 0.00000000000000000 0.00000000000000000 -1.00000000000000000 
1 0.00000000000000000 -0.00000000000000000 0.00000000000000000 -1.00000000000000000 
1 -62.00000000000000000 27.00000000000000000 1.00000000000000000 0.00000000000000000 
1 -62.00000000000000000 27.00000000000000000 1.00000000000000000 0.00000000000000000 
1 0.00000000000000000 0.00000000000000000 1.00000000000000000 0.00000000000000000 
1 0.00000000000000000 -2.00000000000000000 1.00000000000000000 0.00000000000000000 
1 75.00000000000000000 -2.00000000000000000 -1.00000000000000000 -0.00000000000000000 
1 0.00000000000000000 0.21213203435596029 1.00000000000000000 0.00000000000000000 
1 1.19999999999999929 -10.00000000000000000 0.00000000000000000 1.00000000000000000 
1 0.00000000000000000 -0.21213203435596739 1.00000000000000000 0.00000000000000000 
1 0.00000000000000000 -0.70000000000000284 1.00000000000000000 0.00000000000000000 
1 0.00000000000000000 0.00000000000000000 1.00000000000000000 0.00000000000000000 
1 0.00000000000000000 -1.00000000000000000 1.00000000000000000 0.00000000000000000 
1 1.50000000000000000 -10.00000000000000000 0.00000000000000000 1.00000000000000000 
1 25.00000000000000000 -10.00000000000000000 -1.00000000000000000 -0.00000000000000000 
1 20.00000000000000000 0.00000000000000000 0.00000000000000000 -1.00000000000000000 
1 0.00000000000000000 0.00000000000000000 0.00000000000000000 -1.00000000000000000 
1 20.00000000000000000 -0.35355339059327373 0.00000000000000000 1.00000000000000000 
1 -0.09999999999999951 -0.60000000000000142 0.70710678118655179 -0.70710678118654324 
1 45.00000000000000000 0.00000000000000000 0.00000000000000000 -1.00000000000000000 
1 2.00000000000000000 0.00000000000000000 0.00000000000000000 -1.00000000000000000 
1 0.00000000000000000 0.00000000000000000 1.00000000000000000 0.00000000000000000 
1 0.00000000000000000 -10.00000000000000000 1.00000000000000000 0.00000000000000000 
1 -15.00000000000000000 27.00000000000000000 0.00000000000000000 1.00000000000000000 
1 -15.00000000000000000 29.00000000000000000 1.00000000000000000 0.00000000000000000 
1 0.00000000000000000 0.00000000000000000 1.00000000000000000 0.00000000000000000 
1 0.00000000000000000 -10.00000000000000000 1.00000000000000000 0.00000000000000000 
1 15.00000000000000000 29.00000000000000000 0.00000000000000000 -1.00000000000000000 
1 0.00000000000000000 0.00000000000000000 0.00000000000000000 -1.00000000000000000 
1 75.00000000000000000 0.00000000000000000 0.00000000000000000 -1.00000000000000000 
1 62.00000000000000000 27.00000000000000000 0.00000000000000000 -1.00000000000000000 
1 62.00000000000000000 27.00000000000000000 0.00000000000000000 -1.00000000000000000 
1 0.00000000000000000 -0.00000000000000000 1.00000000000000000 0.00000000000000000 
1 0.00000000000000000 -2.00000000000000000 1.00000000000000000 0.00000000000000000 
1 62.00000000000000000 -27.00000000000000000 -1.00000000000000000 0.00000000000000000 
1 0.00000000000000000 -0.00000000000000000 1.00000000000000000 0.00000000000000000 
1 0.00000000000000000 -2.00000000000000000 1.00000000000000000 0.00000000000000000 
1 62.00000000000000000 -27.00000000000000000 -1.00000000000000000 0.00000000000000000 
1 79.00000000000000000 -2.00000000000000000 -1.00000000000000000 0.00000000000000000 
1 -62.00000000000000000 -27.00000000000000000 0.00000000000000000 1.00000000000000000 
1 -62.00000000000000000 -27.00000000000000000 0.00000000000000000 1.00000000000000000 
1 0.00000000000000000 0.00000000000000000 0.00000000000000000 -1.00000000000000000 
1 124.00000000000000000 0.00000000000000000 0.00000000000000000 -1.00000000000000000 
1 0.00000000000000000 -0.00000000000000000 0.00000000000000000 -1.00000000000000000 
1 30.00000000000000000 0.00000000000000000 0.00000000000000000 -1.00000000000000000 
1 0.00000000000000000 0.00000000000000000 0.00000000000000000 -1.00000000000000000 
1 49.00000000000000000 0.00000000000000000 0.00000000000000000 -1.00000000000000000 
1 0.00000000000000000 0.00000000000000000 1.00000000000000000 0.00000000000000000 
1 0.00000000000000000 -10.00000000000000000 1.00000000000000000 0.00000000000000000 
1 -15.00000000000000000 -27.00000000000000000 1.00000000000000000 0.00000000000000000 
1 79.00000000000000000 0.00000000000000000 -1.00000000000000000 -0.00000000000000000 
1 0.00000000000000000 0.00000000000000000 0.00000000000000000 -1.00000000000000000 
1 2.00000000000000000 0.00000000000000000 0.00000000000000000 -1.00000000000000000 
1 124.00000000000000000 0.00000000000000000 0.00000000000000000 -1.00000000000000000 
1 79.00000000000000000 0.00000000000000000 0.00000000000000000 -1.00000000000000000 
1 2.00000000000000000 0.00000000000000000 0.00000000000000000 -1.00000000000000000 
1 0.00000000000000000 0.00000000000000000 1.00000000000000000 0.00000000000000000 
1 0.00000000000000000 -10.00000000000000000 1.00000000000000000 0.00000000000000000 
1 15.00000000000000000 -27.00000000000000000 0.00000000000000000 -1.00000000000000000 
1 15.00000000000000000 -29.00000000000000000 -1.00000000000000000 0.00000000000000000 
1 0.00000000000000000 0.00000000000000000 1.00000000000000000 0.00000000000000000 
1 0.00000000000000000 -10.00000000000000000 1.00000000000000000 0.00000000000000000 
1 -15.00000000000000000 -29.00000000000000000 0.00000000000000000 1.00000000000000000 
1 0.00000000000000000 0.00000000000000000 0.00000000000000000 -1.00000000000000000 
Curves 40
1 50.00000000000000000 54.00000000000000000 7.00000000000000000 0.00000000000000000 -1.00000000000000000 0.00000000000000022 
8 0.14142135623730839 0.56568542494923224
1 50.00000000000000000 53.39999999999999147 6.89999999999999769 0.00000000000000000 -0.70710678118654435 0.70710678118655068 
1 50.00000000000000000 7.00000000000000000 0.00000000000000000 0.00000000000000000 1.00000000000000000 0.00000000000000000 
1 50.00000000000000000 54.00000000000000000 10.00000000000000000 0.00000000000000000 -1.00000000000000000 0.00000000000000022 
8 -0.91923881554251852 -0.49497474683059151
1 50.00000000000000000 52.64999999999999858 9.34999999999999076 -0.00000000000000000 -0.70710678118654335 -0.70710678118655168 
1 70.00000000000000000 54.00000000000000000 7.00000000000000000 0.00000000000000000 -1.00000000000000000 0.00000000000000022 
1 70.00000000000000000 53.29999999999999716 7.00000000000000000 -1.00000000000000000 0.00000000000000000 0.00000000000000000 
1 70.00000000000000000 7.00000000000000000 0.00000000000000000 -1.00000000000000000 0.00000000000000000 0.00000000000000000 
8 -0.91923881554251796 -0.49497474683059406
1 70.00000000000000000 52.64999999999999147 7.65000000000000480 -0.00000000000000000 -0.70710678118654435 0.70710678118655068 
1 70.00000000000000000 53.00000000000000000 7.29999999999999982 -1.00000000000000000 0.00000000000000000 0.00000000000000000 
1 45.00000000000000000 54.00000000000000000 0.00000000000000000 0.00000000000000000 0.00000000000000000 1.00000000000000000 
1 75.00000000000000000 54.00000000000000000 0.00000000000000000 -1.00000000000000000 0.00000000000000000 0.00000000000000000 
1 70.00000000000000000 10.00000000000000000 0.00000000000000000 0.00000000000000000 -1.00000000000000000 0.00000000000000000 
1 75.00000000000000000 54.00000000000000000 0.00000000000000000 0.00000000000000000 0.00000000000000000 1.00000000000000000 
1 0.00000000000000000 54.00000000000000000 0.00000000000000000 1.00000000000000000 0.00000000000000000 0.00000000000000000 
1 50.00000000000000000 53.00000000000000000 9.69999999999999929 1.00000000000000000 0.00000000000000000 0.00000000000000000 
1 50.00000000000000000 53.29999999999999716 10.00000000000000000 1.00000000000000000 0.00000000000000000 0.00000000000000000 
1 50.00000000000000000 10.00000000000000000 0.00000000000000000 1.00000000000000000 0.00000000000000000 0.00000000000000000 
1 70.00000000000000000 54.00000000000000000 10.00000000000000000 0.00000000000000000 -1.00000000000000000 0.00000000000000022 
8 0.14142135623730900 0.56568542494923602
1 70.00000000000000000 53.39999999999999858 10.09999999999999964 0.00000000000000000 -0.70710678118654335 -0.70710678118655168 
1 45.00000000000000000 56.00000000000000000 0.00000000000000000 0.00000000000000000 0.00000000000000000 1.00000000000000000 
1 45.00000000000000000 54.00000000000000000 0.00000000000000000 0.00000000000000000 1.00000000000000000 0.00000000000000000 
1 45.00000000000000000 56.00000000000000000 0.00000000000000000 1.00000000000000000 0.00000000000000000 0.00000000000000000 
1 75.00000000000000000 56.00000000000000000 0.00000000000000000 0.00000000000000000 -1.00000000000000000 0.00000000000000000 
1 75.00000000000000000 56.00000000000000000 0.00000000000000000 0.00000000000000000 0.00000000000000000 1.00000000000000000 
1 124.00000000000000000 54.00000000000000000 0.00000000000000000 0.00000000000000000 -1.00000000000000000 0.00000000000000000 
1 124.00000000000000000 0.00000000000000000 0.00000000000000000 -1.00000000000000000 0.00000000000000000 0.00000000000000000 
1 0.00000000000000000 0.00000000000000000 0.00000000000000000 0.00000000000000000 1.00000000000000000 0.00000000000000000 
1 0.00000000000000000 54.00000000000000000 0.00000000000000000 0.00000000000000000 0.00000000000000000 1.00000000000000000 
1 124.00000000000000000 54.00000000000000000 0.00000000000000000 0.00000000000000000 0.00000000000000000 1.00000000000000000 
1 124.00000000000000000 0.00000000000000000 0.00000000000000000 0.00000000000000000 0.00000000000000000 1.00000000000000000 
1 75.00000000000000000 0.00000000000000000 0.00000000000000000 0.00000000000000000 0.00000000000000000 1.00000000000000000 
1 45.00000000000000000 0.00000000000000000 0.00000000000000000 1.00000000000000000 0.00000000000000000 0.00000000000000000 
1 45.00000000000000000 0.00000000000000000 0.00000000000000000 0.00000000000000000 0.00000000000000000 1.00000000000000000 
1 0.00000000000000000 0.00000000000000000 0.00000000000000000 0.00000000000000000 0.00000000000000000 1.00000000000000000 
1 75.00000000000000000 -2.00000000000000000 0.00000000000000000 0.00000000000000000 0.00000000000000000 1.00000000000000000 
1 75.00000000000000000 0.00000000000000000 0.00000000000000000 0.00000000000000000 -1.00000000000000000 0.00000000000000000 
1 75.00000000000000000 -2.00000000000000000 0.00000000000000000 -1.00000000000000000 0.00000000000000000 0.00000000000000000 
1 45.00000000000000000 -2.00000000000000000 0.00000000000000000 0.00000000000000000 1.00000000000000000 0.00000000000000000 
1 45.00000000000000000 -2.00000000000000000 0.00000000000000000 0.00000000000000000 0.00000000000000000 1.00000000000000000 
Polygon3D 0
PolygonOnTriangulations 0
Surfaces 24
1 50.00000000000000000 54.00000000000000000 7.00000000000000000 -1.00000000000000000 0.00000000000000000 0.00000000000000000 0.00000000000000000 0.00000000000000022 1.00000000000000000 0.00000000000000000 1.00000000000000000 -0.00000000000000022 
1 70.00000000000000000 54.00000000000000000 7.00000000000000000 -0.00000000000000000 -0.00000000000000022 -1.00000000000000000 -1.00000000000000000 0.00000000000000000 0.00000000000000000 0.00000000000000000 1.00000000000000000 -0.00000000000000022 
1 70.00000000000000000 53.14999999999999858 7.15000000000000036 0.00000000000000000 0.70710678118655068 0.70710678118654435 -1.00000000000000000 0.00000000000000000 0.00000000000000000 0.00000000000000000 -0.70710678118654435 0.70710678118655068 
1 60.00000000000000000 54.00000000000000000 8.50000000000000000 0.00000000000000000 1.00000000000000000 0.00000000000000000 0.00000000000000000 -0.00000000000000000 1.00000000000000000 1.00000000000000000 0.00000000000000000 -0.00000000000000000 
1 75.00000000000000000 54.00000000000000000 0.00000000000000000 0.00000000000000000 -1.00000000000000000 0.00000000000000000 -1.00000000000000000 0.00000000000000000 0.00000000000000000 -0.00000000000000000 -0.00000000000000000 -1.00000000000000000 
1 50.00000000000000000 54.00000000000000000 10.00000000000000000 -0.00000000000000000 0.00000000000000022 1.00000000000000000 1.00000000000000000 0.00000000000000000 0.00000000000000000 0.00000000000000000 1.00000000000000000 -0.00000000000000022 
1 50.00000000000000000 53.14999999999999858 9.84999999999999964 0.00000000000000000 0.70710678118655168 -0.70710678118654335 1.00000000000000000 -0.00000000000000000 0.00000000000000000 0.00000000000000000 -0.70710678118654335 -0.70710678118655168 
1 70.00000000000000000 54.00000000000000000 10.00000000000000000 1.00000000000000000 0.00000000000000000 0.00000000000000000 0.00000000000000000 -0.00000000000000022 -1.00000000000000000 0.00000000000000000 1.00000000000000000 -0.00000000000000022 
1 45.00000000000000000 54.00000000000000000 0.00000000000000000 -1.00000000000000000 0.00000000000000000 0.00000000000000000 0.00000000000000000 1.00000000000000000 0.00000000000000000 0.00000000000000000 0.00000000000000000 -1.00000000000000000 
1 60.00000000000000000 27.00000000000000000 0.00000000000000000 0.00000000000000000 0.00000000000000000 1.00000000000000000 1.00000000000000000 0.00000000000000000 -0.00000000000000000 -0.00000000000000000 1.00000000000000000 0.00000000000000000 
1 0.00000000000000000 54.00000000000000000 0.00000000000000000 0.00000000000000000 1.00000000000000000 0.00000000000000000 1.00000000000000000 0.00000000000000000 0.00000000000000000 0.00000000000000000 0.00000000000000000 -1.00000000000000000 
1 75.00000000000000000 56.00000000000000000 0.00000000000000000 1.00000000000000000 0.00000000000000000 -0.00000000000000000 0.00000000000000000 -1.00000000000000000 0.00000000000000000 0.00000000000000000 -0.00000000000000000 -1.00000000000000000 
1 62.00000000000000000 27.00000000000000000 0.00000000000000000 0.00000000000000000 0.00000000000000000 1.00000000000000000 1.00000000000000000 0.00000000000000000 -0.00000000000000000 -0.00000000000000000 1.00000000000000000 0.00000000000000000 
1 62.00000000000000000 27.00000000000000000 0.00000000000000000 0.00000000000000000 0.00000000000000000 1.00000000000000000 1.00000000000000000 0.00000000000000000 -0.00000000000000000 -0.00000000000000000 1.00000000000000000 0.00000000000000000 
1 124.00000000000000000 0.00000000000000000 0.00000000000000000 0.00000000000000000 -1.00000000000000000 0.00000000000000000 -1.00000000000000000 0.00000000000000000 0.00000000000000000 -0.00000000000000000 -0.00000000000000000 -1.00000000000000000 
1 124.00000000000000000 0.00000000000000000 0.00000000000000000 0.00000000000000000 -1.00000000000000000 0.00000000000000000 -1.00000000000000000 0.00000000000000000 0.00000000000000000 -0.00000000000000000 -0.00000000000000000 -1.00000000000000000 
1 45.00000000000000000 0.00000000000000000 0.00000000000000000 0.00000000000000000 1.00000000000000000 0.00000000000000000 1.00000000000000000 0.00000000000000000 0.00000000000000000 0.00000000000000000 0.00000000000000000 -1.00000000000000000 
1 45.00000000000000000 56.00000000000000000 0.00000000000000000 0.00000000000000000 1.00000000000000000 0.00000000000000000 1.00000000000000000 0.00000000000000000 0.00000000000000000 0.00000000000000000 0.00000000000000000 -1.00000000000000000 
1 124.00000000000000000 54.00000000000000000 0.00000000000000000 1.00000000000000000 0.00000000000000000 -0.00000000000000000 0.00000000000000000 -1.00000000000000000 0.00000000000000000 0.00000000000000000 -0.00000000000000000 -1.00000000000000000 
1 75.00000000000000000 0.00000000000000000 0.00000000000000000 1.00000000000000000 0.00000000000000000 -0.00000000000000000 0.00000000000000000 -1.00000000000000000 0.00000000000000000 0.00000000000000000 -0.00000000000000000 -1.00000000000000000 
1 60.00000000000000000 27.00000000000000000 0.00000000000000000 0.00000000000000000 0.00000000000000000 1.00000000000000000 1.00000000000000000 0.00000000000000000 -0.00000000000000000 -0.00000000000000000 1.00000000000000000 0.00000000000000000 
1 45.00000000000000000 -2.00000000000000000 0.00000000000000000 -1.00000000000000000 0.00000000000000000 0.00000000000000000 0.00000000000000000 1.00000000000000000 0.00000000000000000 0.00000000000000000 0.00000000000000000 -1.00000000000000000 
1 0.00000000000000000 0.00000000000000000 0.00000000000000000 -1.00000000000000000 0.00000000000000000 0.00000000000000000 0.00000000000000000 1.00000000000000000 0.00000000000000000 0.00000000000000000 0.00000000000000000 -1.00000000000000000 
1 75.00000000000000000 -2.00000000000000000 0.00000000000000000 0.00000000000000000 -1.00000000000000000 0.00000000000000000 -1.00000000000000000 0.00000000000000000 0.00000000000000000 -0.00000000000000000 -0.00000000000000000 -1.00000000000000000 
Triangulations 0

TShapes 138
Ve
0.000000100000000
50.000000000000000 53.299999999999997 7.000000000000003
0 0

0101101
*
Ve
0.000000100000000
50.000000000000000 7.000000000000000 0.000000000000000
0 0

0101101
*
Ed
 0.000000100000000 1 1 0
1  1 0 0.000000000000000 0.700000000000003
2  1 1 0 0.000000000000000 0.700000000000003
2  2 2 0 0.000000000000000 0.700000000000003
0

0101000
-138 3 +137 7 *
Ve
0.000000100000000
50.000000000000000 53.000000000000000 7.299999999999998
0 0

0101101
*
Ed
 0.000000100000000 1 1 0
1  2 0 0.141421356237308 0.565685424949232
2  3 3 0 0.141421356237308 0.565685424949232
2  4 1 2 0.141421356237308 0.565685424949232
0

0101000
+138 0 -135 0 *
Ve
0.000000100000000
50.000000000000000 10.000000000000000 0.000000000000000
0 0

0101101
*
Ed
 0.000000100000000 1 1 0
1  3 0 0.000000000000000 3.000000000000000
2  5 1 9 0.000000000000000 3.000000000000000
2  6 1 11 0.000000000000000 3.000000000000000
2  7 4 12 0.000000000000000 3.000000000000000
2  8 5 14 0.000000000000000 3.000000000000000
0

0101000
+137 0 -133 0 *
Ve
0.000000100000000
50.000000000000000 53.000000000000000 9.700000000000001
0 0

0101101
*
Ed
 0.000000100000000 1 1 0
1  3 0 0.299999999999998 2.700000000000001
2  5 1 9 0.299999999999998 2.700000000000001
2  6 1 11 0.299999999999998 2.700000000000001
2  7 4 12 0.299999999999998 2.700000000000001
2  8 5 14 0.299999999999998 2.700000000000001
0

0101000
+135 16 -131 16 *
Ve
0.000000100000000
50.000000000000000 53.299999999999997 10.000000000000004
0 0

0101101
*
Ed
 0.000000100000000 1 1 0
1  4 0 0.000000000000000 0.700000000000003
2  9 6 0 0.000000000000000 0.700000000000003
2  10 1 0 0.000000000000000 0.700000000000003
0

0101000
-129 3 +133 7 *
Ed
 0.000000100000000 1 1 0
1  5 0 -0.919238815542519 -0.494974746830592
2  11 7 0 -0.919238815542519 -0.494974746830592
2  12 1 2 -0.919238815542519 -0.494974746830592
0

0101000
+129 0 -131 0 *
Wi

0101100
+136 2 +134 0 -132 8 +130 15 -128 2 -127 0 *
Fa
0  0.000000100000000 1 0

0101000
+126 3 *
Ve
0.000000100000000
70.000000000000000 53.299999999999997 7.000000000000003
0 0

0101101
*
Ve
0.000000100000000
70.000000000000000 7.000000000000000 0.000000000000000
0 0

0101101
*
Ed
 0.000000100000000 1 1 0
1  6 0 0.000000000000000 0.700000000000003
2  13 8 0 0.000000000000000 0.700000000000003
2  14 2 0 0.000000000000000 0.700000000000003
0

0101000
-124 3 +123 7 *
Ed
 0.000000100000000 1 1 0
1  7 0 0.000000000000000 20.000000000000000
2  15 3 0 0.000000000000000 20.000000000000000
2  16 2 2 0.000000000000000 20.000000000000000
0

0101000
+124 0 -138 0 *
Ed
 0.000000100000000 1 1 0
1  8 0 0.000000000000000 20.000000000000000
2  17 4 12 0.000000000000000 20.000000000000000
2  18 2 9 0.000000000000000 20.000000000000000
2  19 2 11 0.000000000000000 20.000000000000000
2  20 5 14 0.000000000000000 20.000000000000000
0

0101000
+123 0 -137 0 *
Wi

0101100
+122 2 +121 0 -120 8 -136 2 *
Fa
0  0.000000100000000 2 0

0101000
+119 3 *
Ve
0.000000100000000
70.000000000000000 53.000000000000000 7.299999999999998
0 0

0101101
*
Ed
 0.000000100000000 1 1 0
1  9 0 -0.919238815542518 -0.494974746830594
2  21 3 0 -0.919238815542518 -0.494974746830594
2  22 8 2 -0.919238815542518 -0.494974746830594
0

0101000
+124 0 -117 0 *
Ed
 0.000000100000000 1 1 0
1  10 0 -0.000000000000000 20.000000000000000
2  23 3 0 -0.000000000000000 20.000000000000000
2  24 4 17 -0.000000000000000 20.000000000000000
0

0101000
+117 0 -135 0 *
Wi

0101100
-116 0 +121 0 -115 0 +134 0 *
Fa
0  0.000000000000000 3 0

0101000
+114 0 *
Ve
0.000000100000000
45.000000000000000 54.000000000000000 2.000000000000000
0 0

0101101
*
Ve
0.000000100000000
45.000000000000000 54.000000000000000 0.000000000000000
0 0

0101101
*
Ed
 0.000000100000000 1 1 0
1  11 0 2.000000000000000 10.000000000000000
2  25 5 0 2.000000000000000 10.000000000000000
2  26 9 0 2.000000000000000 10.000000000000000
0

0101000
+112 0 -111 23 *
Ed
 0.000000100000000 1 1 0
1  12 0 25.000000000000000 30.000000000000000
2  27 5 25 25.000000000000000 30.000000000000000
2  28 5 26 25.000000000000000 30.000000000000000
2  29 10 27 25.000000000000000 30.000000000000000
2  30 11 29 25.000000000000000 30.000000000000000
0

0101000
+133 30 -111 0 *
Ve
0.000000100000000
70.000000000000000 10.000000000000000 0.000000000000000
0 0

0101101
*
Ed
 0.000000100000000 1 1 0
1  13 0 0.000000000000000 3.000000000000000
2  31 8 9 0.000000000000000 3.000000000000000
2  32 8 11 0.000000000000000 3.000000000000000
2  33 4 12 0.000000000000000 3.000000000000000
2  34 5 14 0.000000000000000 3.000000000000000
0

0101000
+108 0 -123 0 *
Ve
0.000000100000000
75.000000000000000 54.000000000000000 0.000000000000000
0 0

0101101
*
Ed
 0.000000100000000 1 1 0
1  12 0 0.000000000000000 5.000000000000000
2  27 5 25 0.000000000000000 5.000000000000000
2  28 5 26 0.000000000000000 5.000000000000000
2  29 10 27 0.000000000000000 5.000000000000000
2  30 11 29 0.000000000000000 5.000000000000000
0

0101000
+106 0 -108 30 *
Ve
0.000000100000000
75.000000000000000 54.000000000000000 2.000000000000000
0 0

0101101
*
Ed
 0.000000100000000 1 1 0
1  14 0 2.000000000000000 10.000000000000000
2  35 12 0 2.000000000000000 10.000000000000000
2  36 5 0 2.000000000000000 10.000000000000000
0

0101000
+104 0 -106 23 *
Ed
 0.000000100000000 1 1 0
1  15 0 45.000000000000000 75.000000000000000
2  37 13 37 45.000000000000000 75.000000000000000
2  38 14 38 45.000000000000000 75.000000000000000
2  39 11 39 45.000000000000000 75.000000000000000
2  40 11 40 45.000000000000000 75.000000000000000
2  41 5 41 45.000000000000000 75.000000000000000
0

0101000
+112 41 -104 41 *
Wi

0101100
-110 18 +109 24 +132 7 +120 7 +107 7 +105 24 +103 18 +102 35 *
Fa
0  0.000000100000000 5 18

0101000
+101 0 *
Ve
0.000000100000000
70.000000000000000 53.000000000000000 9.700000000000001
0 0

0101101
*
Ed
 0.000000100000000 1 1 0
1  13 0 0.299999999999999 2.700000000000002
2  31 8 9 0.299999999999999 2.700000000000002
2  32 8 11 0.299999999999999 2.700000000000002
2  33 4 12 0.299999999999999 2.700000000000002
2  34 5 14 0.299999999999999 2.700000000000002
0

0101000
+99 16 -117 16 *
Ed
 0.000000100000000 1 1 0
1  16 0 -0.000000000000000 20.000000000000000
2  42 7 0 -0.000000000000000 20.000000000000000
2  43 4 17 -0.000000000000000 20.000000000000000
0

0101000
+131 0 -99 0 *
Wi

0101100
+98 15 +97 0 +115 0 +130 15 *
Fa
0  0.000000100000000 4 0

0101000
+96 42 *
Ve
0.000000100000000
70.000000000000000 53.299999999999997 10.000000000000004
0 0

0101101
*
Ed
 0.000000100000000 1 1 0
1  17 0 0.000000000000000 20.000000000000000
2  44 7 0 0.000000000000000 20.000000000000000
2  45 6 2 0.000000000000000 20.000000000000000
0

0101000
+129 0 -94 0 *
Ed
 0.000000100000000 1 1 0
1  18 0 0.000000000000000 20.000000000000000
2  46 6 9 0.000000000000000 20.000000000000000
2  47 6 11 0.000000000000000 20.000000000000000
2  48 4 12 0.000000000000000 20.000000000000000
2  49 5 14 0.000000000000000 20.000000000000000
0

0101000
+133 0 -108 0 *
Ed
 0.000000100000000 1 1 0
1  19 0 0.000000000000000 0.700000000000003
2  50 6 0 0.000000000000000 0.700000000000003
2  51 8 0 0.000000000000000 0.700000000000003
0

0101000
-94 3 +108 7 *
Wi

0101100
+128 2 +93 0 -92 8 -91 2 *
Fa
0  0.000000100000000 6 0

0101000
+90 3 *
Ed
 0.000000100000000 1 1 0
1  20 0 0.141421356237309 0.565685424949236
2  52 7 0 0.141421356237309 0.565685424949236
2  53 8 2 0.141421356237309 0.565685424949236
0

0101000
+94 0 -99 0 *
Wi

0101100
-127 0 +93 0 -97 0 +88 0 *
Fa
0  0.000000000000000 7 0

0101000
+87 0 *
Wi

0101100
+91 2 +88 0 -107 8 +98 15 -122 2 -116 0 *
Fa
0  0.000000100000000 8 0

0101000
+85 3 *
Ed
 0.000000100000000 1 1 0
1  11 0 0.000000000000000 2.000000000000000
2  25 5 0 0.000000000000000 2.000000000000000
2  26 9 0 0.000000000000000 2.000000000000000
2  54 11 44 0.000000000000000 2.000000000000000
0

0101000
+111 45 -112 0 *
Ve
0.000000100000000
45.000000000000000 56.000000000000000 0.000000000000000
0 0

0101101
*
Ed
 0.000000100000000 1 1 0
1  21 0 0.000000000000000 10.000000000000000
2  55 9 0 0.000000000000000 10.000000000000000
0

0101000
+82 45 -82 23 *
Ed
 0.000000100000000 1 1 0
1  22 0 0.000000000000000 2.000000000000000
2  56 9 25 0.000000000000000 2.000000000000000
2  57 9 26 0.000000000000000 2.000000000000000
2  58 10 27 0.000000000000000 2.000000000000000
0

0101000
+111 0 -82 0 *
Wi

0101100
+83 0 +110 0 -81 0 -80 45 +80 23 *
Fa
0  0.000000100000000 9 0

0101000
+79 0 *
Ve
0.000000100000000
75.000000000000000 56.000000000000000 0.000000000000000
0 0

0101101
*
Ed
 0.000000100000000 1 1 0
1  23 0 0.000000000000000 30.000000000000000
2  59 10 27 0.000000000000000 30.000000000000000
0

0101000
+82 0 -77 0 *
Ed
 0.000000100000000 1 1 0
1  24 0 0.000000000000000 2.000000000000000
2  60 12 25 0.000000000000000 2.000000000000000
2  61 12 26 0.000000000000000 2.000000000000000
2  62 10 27 0.000000000000000 2.000000000000000
0

0101000
+77 0 -106 0 *
Wi

0101100
+76 24 +75 24 +105 24 -92 7 +109 24 +80 24 *
Fa
0  0.000000100000000 10 46

0101000
-74 0 *
Ed
 0.000000100000000 1 1 0
1  25 0 0.000000000000000 10.000000000000000
2  63 12 0 0.000000000000000 10.000000000000000
0

0101000
+77 45 -77 23 *
Ed
 0.000000100000000 1 1 0
1  14 0 0.000000000000000 2.000000000000000
2  35 12 0 0.000000000000000 2.000000000000000
2  36 5 0 0.000000000000000 2.000000000000000
2  64 11 44 0.000000000000000 2.000000000000000
0

0101000
+106 45 -104 0 *
Wi

0101100
+72 0 -71 0 -103 0 -75 45 +75 23 *
Fa
0  0.000000100000000 12 0

0101000
+70 0 *
Ve
0.000000100000000
0.000000000000000 54.000000000000000 0.000000000000000
0 0

0101101
*
Ed
 0.000000100000000 1 1 0
1  15 0 0.000000000000000 45.000000000000000
2  37 13 37 0.000000000000000 45.000000000000000
2  38 14 38 0.000000000000000 45.000000000000000
2  39 11 39 0.000000000000000 45.000000000000000
2  40 11 40 0.000000000000000 45.000000000000000
0

0101000
+68 0 -112 41 *
Ve
0.000000100000000
124.000000000000000 54.000000000000000 0.000000000000000
0 0

0101101
*
Ed
 0.000000100000000 1 1 0
1  15 0 75.000000000000000 124.000000000000000
2  37 13 37 75.000000000000000 124.000000000000000
2  38 14 38 75.000000000000000 124.000000000000000
2  39 11 39 75.000000000000000 124.000000000000000
2  40 11 40 75.000000000000000 124.000000000000000
0

0101000
+104 41 -66 0 *
Ve
0.000000100000000
124.000000000000000 0.000000000000000 0.000000000000000
0 0

0101101
*
Ed
 0.000000100000000 1 1 0
1  26 0 0.000000000000000 54.000000000000000
2  65 13 37 0.000000000000000 54.000000000000000
2  66 14 38 0.000000000000000 54.000000000000000
0

0101000
+66 0 -64 0 *
Ve
0.000000100000000
75.000000000000000 0.000000000000000 2.000000000000000
0 0

0101101
*
Ed
 0.000000100000000 1 1 0
1  27 0 0.000000000000000 49.000000000000000
2  67 15 50 0.000000000000000 49.000000000000000
2  68 15 52 0.000000000000000 49.000000000000000
2  69 13 37 0.000000000000000 49.000000000000000
2  70 16 39 0.000000000000000 49.000000000000000
2  71 16 40 0.000000000000000 49.000000000000000
2  72 14 38 0.000000000000000 49.000000000000000
0

0101000
+64 0 -62 41 *
Ve
0.000000100000000
45.000000000000000 0.000000000000000 2.000000000000000
0 0

0101101
*
Ed
 0.000000100000000 1 1 0
1  27 0 49.000000000000000 79.000000000000000
2  67 15 50 49.000000000000000 79.000000000000000
2  68 15 52 49.000000000000000 79.000000000000000
2  69 13 37 49.000000000000000 79.000000000000000
2  70 16 39 49.000000000000000 79.000000000000000
2  71 16 40 49.000000000000000 79.000000000000000
2  72 14 38 49.000000000000000 79.000000000000000
2  73 17 41 49.000000000000000 79.000000000000000
0

0101000
+62 41 -60 41 *
Ve
0.000000100000000
0.000000000000000 0.000000000000000 0.000000000000000
0 0

0101101
*
Ed
 0.000000100000000 1 1 0
1  27 0 79.000000000000000 124.000000000000000
2  67 15 50 79.000000000000000 124.000000000000000
2  68 15 52 79.000000000000000 124.000000000000000
2  69 13 37 79.000000000000000 124.000000000000000
2  70 16 39 79.000000000000000 124.000000000000000
2  71 16 40 79.000000000000000 124.000000000000000
2  72 14 38 79.000000000000000 124.000000000000000
0

0101000
+60 41 -58 0 *
Ed
 0.000000100000000 1 1 0
1  28 0 0.000000000000000 54.000000000000000
2  74 13 37 0.000000000000000 54.000000000000000
2  75 14 38 0.000000000000000 54.000000000000000
0

0101000
+58 0 -68 0 *
Wi

0101100
+67 48 +102 48 +65 48 +63 48 +61 48 +59 48 +57 48 +56 48 *
Fa
0  0.000000100000000 14 47

0101000
-55 0 *
Ed
 0.000000100000000 1 1 0
1  15 0 0.000000000000000 45.000000000000000
2  37 13 37 0.000000000000000 45.000000000000000
2  38 14 38 0.000000000000000 45.000000000000000
2  39 11 39 0.000000000000000 45.000000000000000
2  40 11 40 0.000000000000000 45.000000000000000
0

0101000
+68 0 -111 54 *
Ed
 0.000000100000000 1 1 0
1  29 0 0.000000000000000 2.000000000000000
2  76 11 0 0.000000000000000 2.000000000000000
0

0101000
+68 55 -68 56 *
Wi

0101100
-53 53 -83 0 +67 48 +52 44 *
Fa
0  0.000000100000000 11 44

0101000
+51 0 *
Wi

0101100
+81 0 -72 0 -76 45 +76 23 *
Fa
0  0.000000100000000 18 0

0101000
+49 0 *
Ed
 0.000000100000000 1 1 0
1  12 0 0.000000000000000 30.000000000000000
2  27 5 25 0.000000000000000 30.000000000000000
2  28 5 26 0.000000000000000 30.000000000000000
2  29 10 27 0.000000000000000 30.000000000000000
2  30 11 29 0.000000000000000 30.000000000000000
0

0101000
+106 0 -111 0 *
Wi

0101100
+76 0 +75 0 +47 0 +80 0 *
Fa
0  0.000000100000000 10 0

0101000
-46 58 *
Ed
 0.000000100000000 1 1 0
1  15 0 75.000000000000000 124.000000000000000
2  37 13 37 75.000000000000000 124.000000000000000
2  38 14 38 75.000000000000000 124.000000000000000
2  39 11 39 75.000000000000000 124.000000000000000
2  40 11 40 75.000000000000000 124.000000000000000
0

0101000
+106 54 -66 0 *
Ed
 0.000000100000000 1 1 0
1  30 0 0.000000000000000 2.000000000000000
2  77 11 0 0.000000000000000 2.000000000000000
0

0101000
+66 55 -66 56 *
Wi

0101100
-44 53 -43 44 +65 48 +71 0 *
Fa
0  0.000000100000000 11 44

0101000
+42 0 *
Ed
 0.000000100000000 1 1 0
1  31 0 0.000000000000000 2.000000000000000
2  78 16 0 0.000000000000000 2.000000000000000
0

0101000
+64 55 -64 56 *
Wi

0101100
+43 0 -40 0 -63 55 +63 56 *
Fa
0  0.000000100000000 19 0

0111000
+39 0 *
Ve
0.000000100000000
75.000000000000000 0.000000000000000 0.000000000000000
0 0

0101101
*
Ed
 0.000000100000000 1 1 0
1  27 0 0.000000000000000 49.000000000000000
2  67 15 50 0.000000000000000 49.000000000000000
2  68 15 52 0.000000000000000 49.000000000000000
2  69 13 37 0.000000000000000 49.000000000000000
2  70 16 39 0.000000000000000 49.000000000000000
2  71 16 40 0.000000000000000 49.000000000000000
2  72 14 38 0.000000000000000 49.000000000000000
0

0101000
+64 0 -37 54 *
Ed
 0.000000100000000 1 1 0
1  32 0 0.000000000000000 2.000000000000000
2  79 17 0 0.000000000000000 2.000000000000000
2  80 20 0 0.000000000000000 2.000000000000000
2  81 16 44 0.000000000000000 2.000000000000000
0

0101000
+37 45 -62 0 *
Wi

0101100
-36 53 -35 0 +61 48 +40 44 *
Fa
0  0.000000100000000 16 44

0101000
+34 0 *
Ed
 0.000000100000000 1 1 0
1  32 0 2.000000000000000 10.000000000000000
2  79 17 0 2.000000000000000 10.000000000000000
2  80 20 0 2.000000000000000 10.000000000000000
0

0101000
+62 0 -37 23 *
Ve
0.000000100000000
45.000000000000000 0.000000000000000 0.000000000000000
0 0

0101101
*
Ed
 0.000000100000000 1 1 0
1  33 0 0.000000000000000 30.000000000000000
2  82 17 25 0.000000000000000 30.000000000000000
2  83 17 26 0.000000000000000 30.000000000000000
2  84 21 27 0.000000000000000 30.000000000000000
2  85 16 29 0.000000000000000 30.000000000000000
0

0101000
+31 0 -37 0 *
Ed
 0.000000100000000 1 1 0
1  34 0 2.000000000000000 10.000000000000000
2  86 17 0 2.000000000000000 10.000000000000000
2  87 22 0 2.000000000000000 10.000000000000000
0

0101000
+60 0 -31 23 *
Wi

0101100
+59 48 -32 0 +30 23 +29 0 *
Fa
0  0.000000100000000 17 0

0101000
+28 0 *
Ed
 0.000000100000000 1 1 0
1  27 0 79.000000000000000 124.000000000000000
2  67 15 50 79.000000000000000 124.000000000000000
2  68 15 52 79.000000000000000 124.000000000000000
2  69 13 37 79.000000000000000 124.000000000000000
2  70 16 39 79.000000000000000 124.000000000000000
2  71 16 40 79.000000000000000 124.000000000000000
2  72 14 38 79.000000000000000 124.000000000000000
0

0101000
+31 54 -58 0 *
Ed
 0.000000100000000 1 1 0
1  35 0 0.000000000000000 2.000000000000000
2  88 16 0 0.000000000000000 2.000000000000000
0

0101000
+58 55 -58 56 *
Ed
 0.000000100000000 1 1 0
1  34 0 0.000000000000000 2.000000000000000
2  86 17 0 0.000000000000000 2.000000000000000
2  87 22 0 0.000000000000000 2.000000000000000
2  89 16 44 0.000000000000000 2.000000000000000
0

0101000
+31 45 -60 0 *
Wi

0101100
-26 53 -25 44 +57 48 +24 0 *
Fa
0  0.000000100000000 16 44

0101000
+23 0 *
Wi

0101100
+25 0 -52 0 -56 55 +56 56 *
Fa
0  0.000000100000000 23 0

0111000
+21 0 *
Wi

0101100
+53 53 -47 45 +44 53 +63 53 +36 53 -30 45 +26 53 +56 53 *
Fa
0  0.000000100000000 14 60

0101000
-19 0 *
Ve
0.000000100000000
75.000000000000000 -2.000000000000000 0.000000000000000
0 0

0101101
*
Ed
 0.000000100000000 1 1 0
1  36 0 0.000000000000000 10.000000000000000
2  90 20 0 0.000000000000000 10.000000000000000
0

0101000
+17 45 -17 23 *
Ed
 0.000000100000000 1 1 0
1  37 0 0.000000000000000 2.000000000000000
2  91 20 25 0.000000000000000 2.000000000000000
2  92 20 26 0.000000000000000 2.000000000000000
2  93 21 27 0.000000000000000 2.000000000000000
0

0101000
+37 0 -17 0 *
Wi

0101100
+35 0 +32 0 -16 0 -15 45 +15 23 *
Fa
0  0.000000100000000 20 0

0101000
+14 0 *
Ve
0.000000100000000
45.000000000000000 -2.000000000000000 0.000000000000000
0 0

0101101
*
Ed
 0.000000100000000 1 1 0
1  38 0 0.000000000000000 30.000000000000000
2  94 21 27 0.000000000000000 30.000000000000000
0

0101000
+17 0 -12 0 *
Ed
 0.000000100000000 1 1 0
1  39 0 0.000000000000000 2.000000000000000
2  95 22 25 0.000000000000000 2.000000000000000
2  96 22 26 0.000000000000000 2.000000000000000
2  97 21 27 0.000000000000000 2.000000000000000
0

0101000
+12 0 -31 0 *
Wi

0101100
+30 0 +15 0 +11 0 +10 0 *
Fa
0  0.000000100000000 21 0

0101000
-9 58 *
Ed
 0.000000100000000 1 1 0
1  40 0 0.000000000000000 10.000000000000000
2  98 22 0 0.000000000000000 10.000000000000000
0

0101000
+12 45 -12 23 *
Wi

0101100
+7 0 -24 0 -29 0 -10 45 +10 23 *
Fa
0  0.000000100000000 22 0

0101000
+6 0 *
Wi

0101100
+16 0 -7 0 -11 45 +11 23 *
Fa
0  0.000000100000000 24 0

0101000
+4 0 *
Sh

0101100
+125 2 +118 2 -113 0 +100 2 -95 17 +89 2 -86 0 +84 2 +78 43 +73 2 
+69 43 +54 43 +50 43 +48 43 -45 57 +41 43 +38 59 +33 43 +27 43 +22 43 
+20 59 -18 43 +13 43 +8 61 +5 43 -8 57 +3 43 *
So

0100000
+2 0 *

+1 1 