
CASCADE Topology V1, (c) Matra-Datavision
Locations 36
1
1.000000000000000 0.000000000000000 0.000000000000000 0.000000000000000 
0.000000000000000 1.000000000000000 0.000000000000000 0.000000000000000 
0.000000000000000 0.000000000000000 1.000000000000000 0.000000000000000 
1
1.000000000000000 0.000000000000000 0.000000000000000 0.000000000000000 
0.000000000000000 1.000000000000000 0.000000000000000 0.000000000000000 
0.000000000000000 0.000000000000000 1.000000000000000 0.000000000000000 
1
1.000000000000000 0.000000000000000 0.000000000000000 0.000000000000000 
0.000000000000000 1.000000000000000 0.000000000000000 0.000000000000000 
0.000000000000000 0.000000000000000 1.000000000000000 0.000000000000000 
1
1.000000000000000 0.000000000000000 0.000000000000000 0.000000000000000 
0.000000000000000 1.000000000000000 0.000000000000000 0.000000000000000 
0.000000000000000 0.000000000000000 1.000000000000000 0.000000000000000 
1
1.000000000000000 0.000000000000000 0.000000000000000 0.000000000000000 
0.000000000000000 1.000000000000000 0.000000000000000 0.000000000000000 
0.000000000000000 0.000000000000000 1.000000000000000 0.000000000000000 
2  3 1 4 1 5 -1 0
2  2 -1 0
2  3 1 4 1 5 -1 2 1 0
1
1.000000000000000 0.000000000000000 0.000000000000000 0.000000000000000 
0.000000000000000 1.000000000000000 0.000000000000000 0.000000000000000 
0.000000000000000 0.000000000000000 1.000000000000000 0.000000000000000 
1
1.000000000000000 0.000000000000000 0.000000000000000 0.000000000000000 
0.000000000000000 0.000000000000000 -1.000000000000000 -2.000000000000000 
0.000000000000000 1.000000000000000 0.000000000000000 0.000000000000000 
2  9 1 10 1 5 -1 2 1 0
2  5 1 10 -1 9 -1 0
1
1.000000000000000 0.000000000000000 0.000000000000000 0.000000000000000 
0.000000000000000 1.000000000000000 0.000000000000000 1.000000000000000 
0.000000000000000 0.000000000000000 1.000000000000000 -0.000000000000000 
2  13 -1 5 1 10 -1 9 -1 0
2  10 -1 9 -1 0
2  3 1 4 1 10 -1 9 -1 0
2  4 1 5 -1 0
1
1.000000000000000 0.000000000000000 0.000000000000000 0.000000000000000 
0.000000000000000 1.000000000000000 0.000000000000000 0.000000000000000 
0.000000000000000 0.000000000000000 1.000000000000000 0.000000000000000 
1
1.000000000000000 0.000000000000000 0.000000000000000 0.000000000000000 
0.000000000000000 1.000000000000000 0.000000000000000 0.000000000000000 
0.000000000000000 0.000000000000000 1.000000000000000 30.000000000000000 
2  18 -1 19 1 3 1 0
2  18 -1 3 1 0
2  9 1 10 1 5 -1 13 1 0
2  9 1 10 1 5 -1 13 1 2 1 0
2  3 -1 0
2  18 -1 19 1 3 1 4 1 5 -1 2 1 0
2  3 -1 19 -1 18 1 0
1
1.000000000000000 0.000000000000000 0.000000000000000 0.000000000000000 
0.000000000000000 1.000000000000000 0.000000000000000 0.000000000000000 
0.000000000000000 0.000000000000000 1.000000000000000 0.000000000000000 
1
1.000000000000000 0.000000000000000 0.000000000000000 0.000000000000000 
0.000000000000000 1.000000000000000 0.000000000000000 0.000000000000000 
0.000000000000000 0.000000000000000 1.000000000000000 0.000000000000000 
2  27 1 28 1 18 -1 19 1 3 1 0
2  18 -1 3 1 4 1 5 -1 2 1 0
2  3 -1 18 1 0
2  5 -1 13 1 2 1 0
2  9 1 10 1 0
2  27 1 28 1 18 -1 0
2  27 1 28 1 18 -1 19 1 0
2  27 1 28 1 0
Curve2ds 72
1 49.00000000000000000 -11.50000000000000000 0.00000000000000000 1.00000000000000000 
1 11.50000000000000000 0.00000000000000255 1.00000000000000000 -0.00000000000000022 
1 0.00000000000000000 0.00000000000000000 1.00000000000000000 0.00000000000000000 
1 -0.00000000000000022 -1.00000000000000000 1.00000000000000000 0.00000000000000000 
1 1.50000000000000000 11.00000000000000000 -1.00000000000000000 0.00000000000000000 
1 49.00000000000000000 -23.00000000000000000 0.00000000000000000 1.00000000000000000 
1 0.00000000000000000 -0.21213203435596562 1.00000000000000000 0.00000000000000000 
1 49.00000000000000000 -19.69999999999999929 1.00000000000000000 0.00000000000000000 
1 49.00000000000000000 -11.50000000000000000 0.00000000000000000 -1.00000000000000000 
1 11.50000000000000000 0.00000000000000255 -1.00000000000000000 0.00000000000000022 
1 71.00000000000000000 -10.00000000000000000 -0.00000000000000000 1.00000000000000000 
1 -10.00000000000000000 0.00000000000000222 -1.00000000000000000 -0.00000000000000022 
1 0.00000000000000000 -0.21213203435596384 1.00000000000000000 0.00000000000000000 
1 71.00000000000000000 -23.30000000000000071 -1.00000000000000000 -0.00000000000000000 
1 0.00000000000000000 0.00000000000000000 1.00000000000000000 0.00000000000000000 
1 0.00000000000000022 -1.00000000000000000 1.00000000000000000 0.00000000000000000 
1 -1.50000000000000000 -11.00000000000000000 1.00000000000000000 0.00000000000000000 
1 71.00000000000000000 -20.00000000000000000 0.00000000000000000 -1.00000000000000000 
1 71.00000000000000000 -10.00000000000000000 0.00000000000000000 -1.00000000000000000 
1 -10.00000000000000000 0.00000000000000222 1.00000000000000000 0.00000000000000022 
8 -10000000.00000000000000000 10000000.00000000000000000
1 122.00000000000000000 0.00000000000000000 0.00000000000000000 1.00000000000000000 
8 -10000000.00000000000000000 10000000.00000000000000000
1 -2.00000000000000000 0.00000000000000000 -0.00000000000000000 1.00000000000000000 
8 -9999970.00000000000000000 9999970.00000000000000000
1 30.00000000000000000 -27.00000000000000000 1.00000000000000000 0.00000000000000000 
8 -9999970.00000000000000000 9999970.00000000000000000
1 30.00000000000000000 -30.00000000000000000 -1.00000000000000000 0.00000000000000000 
8 -9999970.00000000000000000 9999970.00000000000000000
1 30.00000000000000000 2.00000000000000000 1.00000000000000000 0.00000000000000000 
8 -9999970.00000000000000000 9999970.00000000000000000
1 30.00000000000000000 -27.00000000000000000 -1.00000000000000000 0.00000000000000000 
8 -10000000.00000000000000000 10000000.00000000000000000
1 52.00000000000000000 0.00000000000000000 0.00000000000000000 1.00000000000000000 
8 -10000000.00000000000000000 10000000.00000000000000000
1 -2.00000000000000000 -0.00000000000000000 0.00000000000000000 1.00000000000000000 
1 22.00000000000000000 0.00000000000000000 0.00000000000000000 -1.00000000000000000 
1 0.00000000000000000 0.00000000000000000 0.00000000000000000 -1.00000000000000000 
1 22.00000000000000000 0.00000000000000126 0.00000000000000000 1.00000000000000000 
1 -0.14999999999999861 -0.14999999999999655 0.70710678118654824 -0.70710678118654691 
1 3.00000000000000000 0.00000000000000000 0.00000000000000000 -1.00000000000000000 
1 0.00000000000000000 0.00000000000000000 0.00000000000000000 -1.00000000000000000 
1 0.00000000000000000 1.06066017177982452 0.00000000000000000 1.00000000000000000 
1 2.39999999999999503 -0.89999999999999603 -0.70710678118654846 -0.70710678118654668 
1 0.00000000000000000 0.21213203435596384 1.00000000000000000 0.00000000000000000 
1 0.00000000000000000 -0.29999999999999560 1.00000000000000000 0.00000000000000000 
1 22.00000000000000000 0.00000000000000110 0.00000000000000000 1.00000000000000000 
1 -0.14999999999999855 -0.14999999999999705 0.70710678118654846 -0.70710678118654668 
1 22.00000000000000000 0.00000000000000000 0.00000000000000000 -1.00000000000000000 
1 0.00000000000000000 0.00000000000000000 0.00000000000000000 -1.00000000000000000 
1 0.00000000000000000 0.00000000000000000 0.00000000000000000 -1.00000000000000000 
1 3.00000000000000000 0.00000000000000000 0.00000000000000000 -1.00000000000000000 
1 0.00000000000000000 1.06066017177982230 0.00000000000000000 1.00000000000000000 
1 2.39999999999999858 -0.89999999999999647 -0.70710678118654824 -0.70710678118654691 
1 0.00000000000000000 0.21213203435596739 1.00000000000000000 0.00000000000000000 
1 0.00000000000000000 -0.29999999999999494 1.00000000000000000 0.00000000000000000 
8 -9999987.50000000000000000 9999987.50000000000000000
1 12.50000000000000000 2.00000000000000000 1.00000000000000000 0.00000000000000000 
8 -9999987.50000000000000000 9999987.50000000000000000
1 -62.00000000000000000 -12.50000000000000000 0.00000000000000000 1.00000000000000000 
8 -9999987.50000000000000000 9999987.50000000000000000
1 -62.00000000000000000 -12.50000000000000000 0.00000000000000000 -1.00000000000000000 
8 -9999987.50000000000000000 9999987.50000000000000000
1 12.50000000000000000 -30.00000000000000000 -1.00000000000000000 0.00000000000000000 
8 -10000000.00000000000000000 10000000.00000000000000000
1 -2.00000000000000000 0.00000000000000000 0.00000000000000000 -1.00000000000000000 
8 -10000000.00000000000000000 10000000.00000000000000000
1 52.00000000000000000 0.00000000000000000 0.00000000000000000 -1.00000000000000000 
8 -9999970.00000000000000000 9999970.00000000000000000
1 -30.00000000000000000 27.00000000000000000 -1.00000000000000000 0.00000000000000000 
8 -9999970.00000000000000000 9999970.00000000000000000
1 30.00000000000000000 -30.00000000000000000 -1.00000000000000000 0.00000000000000000 
8 -9999987.50000000000000000 9999987.50000000000000000
1 62.00000000000000000 12.50000000000000000 0.00000000000000000 1.00000000000000000 
8 -9999987.50000000000000000 9999987.50000000000000000
1 12.50000000000000000 -30.00000000000000000 -1.00000000000000000 0.00000000000000000 
8 -9999970.00000000000000000 9999970.00000000000000000
1 30.00000000000000000 2.00000000000000000 1.00000000000000000 0.00000000000000000 
8 -9999970.00000000000000000 9999970.00000000000000000
1 -30.00000000000000000 27.00000000000000000 1.00000000000000000 0.00000000000000000 
8 -9999987.50000000000000000 9999987.50000000000000000
1 12.50000000000000000 2.00000000000000000 1.00000000000000000 0.00000000000000000 
8 -9999987.50000000000000000 9999987.50000000000000000
1 62.00000000000000000 12.50000000000000000 0.00000000000000000 -1.00000000000000000 
8 -10000000.00000000000000000 10000000.00000000000000000
1 122.00000000000000000 0.00000000000000000 0.00000000000000000 1.00000000000000000 
8 -10000000.00000000000000000 10000000.00000000000000000
1 -2.00000000000000000 0.00000000000000000 0.00000000000000000 1.00000000000000000 
1 0.00000000000000000 0.00000000000000000 1.00000000000000000 0.00000000000000000 
1 0.00000000000000000 -1.00000000000000000 1.00000000000000000 0.00000000000000000 
1 1.50000000000000000 -11.00000000000000000 0.00000000000000000 1.00000000000000000 
1 71.00000000000000000 -23.00000000000000000 -1.00000000000000000 -0.00000000000000000 
1 0.00000000000000000 0.00000000000000000 1.00000000000000000 0.00000000000000000 
1 0.00000000000000000 -1.00000000000000000 1.00000000000000000 0.00000000000000000 
1 -1.50000000000000000 11.00000000000000000 0.00000000000000000 -1.00000000000000000 
1 49.00000000000000000 -20.00000000000000000 1.00000000000000000 0.00000000000000000 
Curves 40
8 -8.50000000000000000 -8.19999999999999929
1 71.00000000000000000 -2.00000000000000000 11.50000000000000000 -0.00000000000000000 -0.00000000000000000 -1.00000000000000000 
1 71.00000000000000000 23.00000000000000000 0.00000000000000000 0.00000000000000000 -1.00000000000000000 0.00000000000000000 
1 71.00000000000000000 -2.00000000000000000 19.69999999999999929 -1.00000000000000000 0.00000000000000000 0.00000000000000000 
8 11.50000000000000000 11.80000000000000071
1 71.00000000000000000 -2.00000000000000000 11.50000000000000000 0.00000000000000000 0.00000000000000000 1.00000000000000000 
8 -10.00000000000000000 -9.69999999999999929
1 49.00000000000000000 -2.00000000000000000 10.00000000000000000 0.00000000000000000 -0.00000000000000000 -1.00000000000000000 
1 49.00000000000000000 -2.00000000000000000 23.30000000000000071 1.00000000000000000 0.00000000000000000 0.00000000000000000 
1 49.00000000000000000 20.00000000000000000 0.00000000000000000 0.00000000000000000 1.00000000000000000 0.00000000000000000 
8 13.00000000000000000 13.30000000000000071
1 49.00000000000000000 -2.00000000000000000 10.00000000000000000 -0.00000000000000000 0.00000000000000000 1.00000000000000000 
8 -10000000.00000000000000000 10000000.00000000000000000
1 -2.00000000000000000 -2.00000000000000000 0.00000000000000000 -0.00000000000000000 -0.00000000000000000 -1.00000000000000000 
8 -9999970.00000000000000000 9999970.00000000000000000
1 90.00000000000000000 -2.00000000000000000 30.00000000000000000 1.00000000000000000 0.00000000000000000 -0.00000000000000000 
8 -9999970.00000000000000000 9999970.00000000000000000
1 90.00000000000000000 -2.00000000000000000 -2.00000000000000000 -1.00000000000000000 0.00000000000000000 0.00000000000000000 
8 -10000000.00000000000000000 10000000.00000000000000000
1 122.00000000000000000 -2.00000000000000000 0.00000000000000000 0.00000000000000000 0.00000000000000000 -1.00000000000000000 
1 71.00000000000000000 -1.99999999999999489 23.00000000000000000 0.00000000000000000 1.00000000000000000 -0.00000000000000022 
8 -0.21213203435596431 0.21213203435596351
1 71.00000000000000000 -1.84999999999999831 23.14999999999999858 -0.00000000000000000 0.70710678118654680 -0.70710678118654835 
1 71.00000000000000000 -1.99999999999999556 20.00000000000000000 0.00000000000000000 1.00000000000000000 -0.00000000000000022 
8 -1.27279220613579036 -0.84852813742386135
1 71.00000000000000000 -1.09999999999999942 20.60000000000000497 0.00000000000000000 0.70710678118654680 0.70710678118654835 
1 71.00000000000000000 -1.69999999999999996 20.00000000000000000 -1.00000000000000000 0.00000000000000000 0.00000000000000000 
8 -0.21213203435596711 0.21213203435596178
1 49.00000000000000000 -1.84999999999999853 19.85000000000000142 -0.00000000000000000 0.70710678118654680 0.70710678118654835 
1 49.00000000000000000 -1.99999999999999556 20.00000000000000000 0.00000000000000000 1.00000000000000000 -0.00000000000000022 
1 49.00000000000000000 -1.99999999999999489 23.00000000000000000 0.00000000000000000 1.00000000000000000 -0.00000000000000022 
8 -1.27279220613578548 -0.84852813742385769
1 49.00000000000000000 -1.09999999999999853 22.39999999999999858 0.00000000000000000 0.70710678118654680 -0.70710678118654835 
1 49.00000000000000000 -1.69999999999999996 23.00000000000000000 1.00000000000000000 0.00000000000000000 0.00000000000000000 
8 -9999987.50000000000000000 9999987.50000000000000000
1 -2.00000000000000000 12.50000000000000000 -2.00000000000000000 0.00000000000000000 1.00000000000000000 -0.00000000000000000 
8 -9999987.50000000000000000 9999987.50000000000000000
1 -2.00000000000000000 12.50000000000000000 30.00000000000000000 0.00000000000000000 -1.00000000000000000 0.00000000000000000 
8 -10000000.00000000000000000 10000000.00000000000000000
1 -2.00000000000000000 52.00000000000000000 0.00000000000000000 0.00000000000000000 -0.00000000000000000 1.00000000000000000 
1 0.00000000000000000 50.00000000000000000 0.00000000000000000 1.00000000000000000 0.00000000000000000 0.00000000000000000 
1 120.00000000000000000 50.00000000000000000 0.00000000000000000 0.00000000000000000 -1.00000000000000000 0.00000000000000000 
1 120.00000000000000000 0.00000000000000000 0.00000000000000000 -1.00000000000000000 0.00000000000000000 0.00000000000000000 
1 0.00000000000000000 0.00000000000000000 0.00000000000000000 0.00000000000000000 1.00000000000000000 0.00000000000000000 
8 -9999970.00000000000000000 9999970.00000000000000000
1 30.00000000000000000 52.00000000000000000 30.00000000000000000 -1.00000000000000000 0.00000000000000000 0.00000000000000000 
8 -9999987.50000000000000000 9999987.50000000000000000
1 122.00000000000000000 37.50000000000000000 30.00000000000000000 0.00000000000000000 1.00000000000000000 0.00000000000000000 
8 -9999970.00000000000000000 9999970.00000000000000000
1 30.00000000000000000 52.00000000000000000 -2.00000000000000000 1.00000000000000000 0.00000000000000000 0.00000000000000000 
8 -9999987.50000000000000000 9999987.50000000000000000
1 122.00000000000000000 37.50000000000000000 -2.00000000000000000 0.00000000000000000 -1.00000000000000000 0.00000000000000000 
8 -10000000.00000000000000000 10000000.00000000000000000
1 122.00000000000000000 52.00000000000000000 0.00000000000000000 0.00000000000000000 0.00000000000000000 -1.00000000000000000 
1 49.00000000000000000 23.00000000000000000 0.00000000000000000 1.00000000000000000 0.00000000000000000 0.00000000000000000 
1 71.00000000000000000 20.00000000000000000 0.00000000000000000 -1.00000000000000000 0.00000000000000000 0.00000000000000000 
1 0.00000000000000000 50.00000000000000000 0.00000000000000000 0.00000000000000000 0.00000000000000000 1.00000000000000000 
1 120.00000000000000000 50.00000000000000000 0.00000000000000000 0.00000000000000000 0.00000000000000000 1.00000000000000000 
1 120.00000000000000000 0.00000000000000000 0.00000000000000000 0.00000000000000000 0.00000000000000000 1.00000000000000000 
1 0.00000000000000000 0.00000000000000000 0.00000000000000000 0.00000000000000000 0.00000000000000000 1.00000000000000000 
Polygon3D 0
PolygonOnTriangulations 0
Surfaces 17
1 120.00000000000000000 -2.00000000000000000 0.00000000000000000 0.00000000000000000 -1.00000000000000000 0.00000000000000000 -1.00000000000000000 0.00000000000000000 0.00000000000000000 -0.00000000000000000 -0.00000000000000000 -1.00000000000000000 
1 71.00000000000000000 -1.99999999999999489 23.00000000000000000 -1.00000000000000000 0.00000000000000000 -0.00000000000000000 0.00000000000000000 -0.00000000000000022 -1.00000000000000000 -0.00000000000000000 -1.00000000000000000 0.00000000000000022 
1 60.00000000000000000 -1.99999999999999512 21.50000000000000000 0.00000000000000000 1.00000000000000000 -0.00000000000000022 0.00000000000000000 0.00000000000000022 1.00000000000000000 1.00000000000000000 -0.00000000000000000 0.00000000000000000 
1 71.00000000000000000 -1.85000000000000009 19.85000000000000142 0.00000000000000000 -0.70710678118654835 0.70710678118654680 -1.00000000000000000 0.00000000000000000 0.00000000000000000 0.00000000000000000 0.70710678118654680 0.70710678118654835 
1 49.00000000000000000 -1.99999999999999556 20.00000000000000000 1.00000000000000000 -0.00000000000000000 0.00000000000000000 0.00000000000000000 0.00000000000000022 1.00000000000000000 -0.00000000000000000 -1.00000000000000000 0.00000000000000022 
1 49.00000000000000000 -1.85000000000000009 23.14999999999999858 0.00000000000000000 -0.70710678118654835 -0.70710678118654680 1.00000000000000000 0.00000000000000000 0.00000000000000000 -0.00000000000000000 0.70710678118654680 -0.70710678118654835 
1 -2.00000000000000000 0.00000000000000000 0.00000000000000000 -1.00000000000000000 0.00000000000000000 0.00000000000000000 0.00000000000000000 1.00000000000000000 0.00000000000000000 0.00000000000000000 0.00000000000000000 -1.00000000000000000 
1 60.00000000000000000 25.00000000000000000 0.00000000000000000 0.00000000000000000 0.00000000000000000 1.00000000000000000 1.00000000000000000 0.00000000000000000 -0.00000000000000000 -0.00000000000000000 1.00000000000000000 0.00000000000000000 
1 60.00000000000000000 25.00000000000000000 -2.00000000000000000 0.00000000000000000 0.00000000000000000 1.00000000000000000 1.00000000000000000 0.00000000000000000 -0.00000000000000000 -0.00000000000000000 1.00000000000000000 0.00000000000000000 
1 122.00000000000000000 50.00000000000000000 0.00000000000000000 1.00000000000000000 0.00000000000000000 -0.00000000000000000 0.00000000000000000 -1.00000000000000000 0.00000000000000000 0.00000000000000000 -0.00000000000000000 -1.00000000000000000 
1 49.00000000000000000 -1.99999999999999489 23.00000000000000000 0.00000000000000000 -0.00000000000000022 -1.00000000000000000 1.00000000000000000 0.00000000000000000 0.00000000000000000 0.00000000000000000 -1.00000000000000000 0.00000000000000022 
1 71.00000000000000000 -1.99999999999999556 20.00000000000000000 0.00000000000000000 0.00000000000000022 1.00000000000000000 -1.00000000000000000 0.00000000000000000 0.00000000000000000 0.00000000000000000 -1.00000000000000000 0.00000000000000022 
1 0.00000000000000000 52.00000000000000000 0.00000000000000000 0.00000000000000000 1.00000000000000000 0.00000000000000000 1.00000000000000000 0.00000000000000000 0.00000000000000000 0.00000000000000000 0.00000000000000000 -1.00000000000000000 
1 0.00000000000000000 50.00000000000000000 0.00000000000000000 0.00000000000000000 1.00000000000000000 0.00000000000000000 1.00000000000000000 0.00000000000000000 0.00000000000000000 0.00000000000000000 0.00000000000000000 -1.00000000000000000 
1 120.00000000000000000 50.00000000000000000 0.00000000000000000 1.00000000000000000 0.00000000000000000 -0.00000000000000000 0.00000000000000000 -1.00000000000000000 0.00000000000000000 0.00000000000000000 -0.00000000000000000 -1.00000000000000000 
1 120.00000000000000000 0.00000000000000000 0.00000000000000000 0.00000000000000000 -1.00000000000000000 0.00000000000000000 -1.00000000000000000 0.00000000000000000 0.00000000000000000 -0.00000000000000000 -0.00000000000000000 -1.00000000000000000 
1 0.00000000000000000 0.00000000000000000 0.00000000000000000 -1.00000000000000000 0.00000000000000000 0.00000000000000000 0.00000000000000000 1.00000000000000000 0.00000000000000000 0.00000000000000000 0.00000000000000000 -1.00000000000000000 
Triangulations 0

TShapes 104
Ve
0.000000100000005
71.000000000000000 20.000000000000000 0.000000000000000
0 0

0101101
*
Ve
0.000000100000000
71.000000000000000 -2.000000000000000 19.699999999999999
0 0

0101101
*
Ed
 0.000000100000000 1 1 0
1  1 0 -8.500000000000000 -8.199999999999999
2  1 1 8 -8.500000000000000 -8.199999999999999
2  2 2 2 -8.500000000000000 -8.199999999999999
0

0101000
+104 11 -103 0 *
Ve
0.000000100000005
71.000000000000000 23.000000000000000 0.000000000000000
0 0

0101101
*
Ed
 0.000000100000005 1 1 0
1  2 0 0.000000000000000 3.000000000000000
2  3 2 12 0.000000000000000 3.000000000000000
2  4 2 14 0.000000000000000 3.000000000000000
2  5 3 15 0.000000000000000 3.000000000000000
2  6 1 16 0.000000000000000 3.000000000000000
0

0101000
+101 0 -104 0 *
Ve
0.000000100000000
49.000000000000000 -2.000000000000000 19.699999999999999
0 0

0101101
*
Ed
 0.000000100000000 1 1 0
1  3 0 -0.000000000000000 22.000000000000000
2  7 4 0 -0.000000000000000 22.000000000000000
2  8 1 8 -0.000000000000000 22.000000000000000
0

0101000
+103 0 -99 0 *
Ve
0.000000100000000
71.000000000000000 -2.000000000000000 23.300000000000001
0 0

0101101
*
Ed
 0.000000100000000 1 1 0
1  4 0 11.500000000000000 11.800000000000001
2  9 1 8 11.500000000000000 11.800000000000001
2  10 2 2 11.500000000000000 11.800000000000001
0

0101000
+101 11 -97 0 *
Ve
0.000000100000005
49.000000000000000 20.000000000000000 0.000000000000000
0 0

0101101
*
Ed
 0.000000100000000 1 1 0
1  5 0 -10.000000000000000 -9.699999999999999
2  11 1 8 -10.000000000000000 -9.699999999999999
2  12 5 2 -10.000000000000000 -9.699999999999999
0

0101000
+95 11 -99 0 *
Ve
0.000000100000000
49.000000000000000 -2.000000000000000 23.300000000000001
0 0

0101101
*
Ed
 0.000000100000000 1 1 0
1  6 0 -0.000000000000000 22.000000000000000
2  13 6 0 -0.000000000000000 22.000000000000000
2  14 1 8 -0.000000000000000 22.000000000000000
0

0101000
+93 0 -97 0 *
Ve
0.000000100000005
49.000000000000000 23.000000000000000 0.000000000000000
0 0

0101101
*
Ed
 0.000000100000005 1 1 0
1  7 0 0.000000000000000 3.000000000000000
2  15 5 12 0.000000000000000 3.000000000000000
2  16 5 14 0.000000000000000 3.000000000000000
2  17 3 15 0.000000000000000 3.000000000000000
2  18 1 16 0.000000000000000 3.000000000000000
0

0101000
+95 0 -91 0 *
Ed
 0.000000100000000 1 1 0
1  8 0 13.000000000000000 13.300000000000001
2  19 1 8 13.000000000000000 13.300000000000001
2  20 5 2 13.000000000000000 13.300000000000001
0

0101000
+91 11 -93 0 *
Wi

0101100
+102 0 +100 11 +98 0 -96 0 -94 0 +92 0 +90 11 +89 0 *
Ve
0.001000000000000
-2.000000000000000 -2.000000000000000 30.000000000000000
0 0

0101101
*
Ve
0.001000000000000
-2.000000000000000 -2.000000000000000 -2.000000000000000
0 0

0101101
*
Ed
 0.001000000000000 1 1 0
1  9 0 -30.000000000000000 2.000000000000000
2  21 1 3 -30.000000000000000 2.000000000000000
2  22 7 3 -30.000000000000000 2.000000000000000
0

0101000
+87 0 -86 0 *
Ve
0.001000000000000
122.000000000000000 -2.000000000000000 30.000000000000000
0 0

0101101
*
Ed
 0.001000000000000 1 1 0
1  10 0 -92.000000000000000 32.000000000000000
2  23 8 20 -92.000000000000000 32.000000000000000
2  24 1 3 -92.000000000000000 32.000000000000000
0

0101000
+87 0 -84 0 *
Ve
0.001000000000000
122.000000000000000 -2.000000000000000 -2.000000000000000
0 0

0101101
*
Ed
 0.001000000000000 1 1 0
1  11 0 -32.000000000000000 92.000000000000000
2  25 1 3 -32.000000000000000 92.000000000000000
2  26 9 21 -32.000000000000000 92.000000000000000
0

0101000
+82 0 -86 0 *
Ed
 0.001000000000000 1 1 0
1  12 0 -30.000000000000000 2.000000000000000
2  27 10 3 -30.000000000000000 2.000000000000000
2  28 1 3 -30.000000000000000 2.000000000000000
0

0101000
+84 0 -82 0 *
Wi

0101100
+85 17 -83 17 -81 17 -80 17 *
Fa
0  0.000000100000000 1 6

0101000
+88 7 +79 0 *
Ve
0.000000100000000
71.000000000000000 -1.699999999999998 22.999999999999996
0 0

0101101
*
Ed
 0.000000100000000 1 1 0
1  13 0 0.299999999999997 1.000000000000000
2  29 11 0 0.299999999999997 1.000000000000000
2  30 2 0 0.299999999999997 1.000000000000000
0

0101000
+77 7 -101 22 *
Ed
 0.000000100000000 1 1 0
1  14 0 -0.212132034355964 0.212132034355964
2  31 6 0 -0.212132034355964 0.212132034355964
2  32 2 2 -0.212132034355964 0.212132034355964
0

0101000
+97 0 -77 0 *
Ve
0.000000100000000
71.000000000000000 -1.700000000000001 20.000000000000000
0 0

0101101
*
Ed
 0.000000100000000 1 1 0
1  15 0 0.299999999999995 1.000000000000000
2  33 2 0 0.299999999999995 1.000000000000000
2  34 12 0 0.299999999999995 1.000000000000000
0

0101000
+74 7 -104 22 *
Ed
 0.000000100000000 1 1 0
1  16 0 -1.272792206135790 -0.848528137423861
2  35 4 0 -1.272792206135790 -0.848528137423861
2  36 2 2 -1.272792206135790 -0.848528137423861
0

0101000
+103 0 -74 0 *
Wi

0101100
+76 2 +75 0 +100 23 +96 0 -73 2 -100 11 -72 0 -102 0 *
Fa
0  0.000000100000000 2 0

0101000
+71 7 *
Ve
0.000000100000000
49.000000000000000 -1.700000000000001 20.000000000000000
0 0

0101101
*
Ed
 0.000000100000000 1 1 0
1  17 0 0.000000000000000 22.000000000000000
2  37 4 0 0.000000000000000 22.000000000000000
2  38 12 2 0.000000000000000 22.000000000000000
0

0101000
+74 0 -69 0 *
Ed
 0.000000100000000 1 1 0
1  18 0 -0.212132034355967 0.212132034355962
2  39 4 0 -0.212132034355967 0.212132034355962
2  40 5 2 -0.212132034355967 0.212132034355962
0

0101000
+99 0 -69 0 *
Wi

0101100
-72 0 +98 0 -68 0 +67 0 *
Fa
0  0.000000000000000 4 0

0101000
+66 0 *
Ed
 0.000000100000000 1 1 0
1  19 0 0.299999999999995 1.000000000000000
2  41 12 0 0.299999999999995 1.000000000000000
2  42 5 0 0.299999999999995 1.000000000000000
0

0101000
+69 7 -95 22 *
Ve
0.000000100000000
49.000000000000000 -1.699999999999998 22.999999999999996
0 0

0101101
*
Ed
 0.000000100000000 1 1 0
1  20 0 0.299999999999997 1.000000000000000
2  43 11 0 0.299999999999997 1.000000000000000
2  44 5 0 0.299999999999997 1.000000000000000
0

0101000
+63 7 -91 22 *
Ed
 0.000000100000000 1 1 0
1  21 0 -1.272792206135785 -0.848528137423858
2  45 6 0 -1.272792206135785 -0.848528137423858
2  46 5 2 -1.272792206135785 -0.848528137423858
0

0101000
+93 0 -63 0 *
Wi

0101100
+64 2 +67 0 +90 23 +94 0 -62 2 -90 11 -61 0 -89 0 *
Fa
0  0.000000100000000 5 0

0101000
+60 7 *
Ed
 0.000000100000000 1 1 0
1  22 0 0.000000000000000 22.000000000000000
2  47 6 0 0.000000000000000 22.000000000000000
2  48 11 2 0.000000000000000 22.000000000000000
0

0101000
+63 0 -77 0 *
Wi

0101100
-61 0 +92 0 -58 0 +75 0 *
Fa
0  0.000000000000000 6 0

0101000
+57 0 *
Ve
0.001000000000000
-2.000000000000000 52.000000000000000 -2.000000000000000
0 0

0101101
*
Ed
 0.001000000000000 1 1 0
1  23 0 -14.500000000000000 39.500000000000000
2  49 7 3 -14.500000000000000 39.500000000000000
2  50 9 21 -14.500000000000000 39.500000000000000
0

0101000
+86 0 -55 0 *
Ve
0.001000000000000
-2.000000000000000 52.000000000000000 30.000000000000000
0 0

0101101
*
Ed
 0.001000000000000 1 1 0
1  24 0 -39.500000000000000 14.500000000000000
2  51 8 20 -39.500000000000000 14.500000000000000
2  52 7 3 -39.500000000000000 14.500000000000000
0

0101000
+53 0 -87 0 *
Ed
 0.001000000000000 1 1 0
1  25 0 -2.000000000000000 30.000000000000000
2  53 13 3 -2.000000000000000 30.000000000000000
2  54 7 3 -2.000000000000000 30.000000000000000
0

0101000
+55 0 -53 0 *
Wi

0101100
-54 0 -85 0 -52 0 -51 0 *
Fa
0  0.000000100000000 7 0

0101000
+50 24 *
Ve
0.001000000000000
0.000000000000000 50.000000000000000 0.000000000000000
0 0

0101101
*
Ve
0.001000000000000
120.000000000000000 50.000000000000000 0.000000000000000
0 0

0101101
*
Ed
 0.001000000000000 1 1 0
1  26 0 0.000000000000000 120.000000000000000
0

0101000
+48 0 -47 0 *
Ve
0.001000000000000
120.000000000000000 0.000000000000000 0.000000000000000
0 0

0101101
*
Ed
 0.001000000000000 1 1 0
1  27 0 0.000000000000000 50.000000000000000
0

0101000
+47 0 -45 0 *
Ve
0.001000000000000
0.000000000000000 0.000000000000000 0.000000000000000
0 0

0101101
*
Ed
 0.001000000000000 1 1 0
1  28 0 0.000000000000000 120.000000000000000
0

0101000
+45 0 -43 0 *
Ed
 0.001000000000000 1 1 0
1  29 0 0.000000000000000 50.000000000000000
0

0101000
+43 0 -48 0 *
Wi

0101100
+46 29 +44 29 +42 29 +41 29 *
Ve
0.001000000000000
122.000000000000000 52.000000000000000 30.000000000000000
0 0

0101101
*
Ed
 0.001000000000000 1 1 0
1  30 0 -92.000000000000000 32.000000000000000
2  55 8 20 -92.000000000000000 32.000000000000000
2  56 13 3 -92.000000000000000 32.000000000000000
0

0101000
+39 0 -53 0 *
Ed
 0.001000000000000 1 1 0
1  31 0 -39.500000000000000 14.500000000000000
2  57 8 20 -39.500000000000000 14.500000000000000
2  58 10 3 -39.500000000000000 14.500000000000000
0

0101000
+84 0 -39 0 *
Wi

0101100
+38 0 +52 0 +83 0 +37 0 *
Fa
0  0.000000100000000 8 0

0101000
+40 26 +36 26 *
Ve
0.001000000000000
122.000000000000000 52.000000000000000 -2.000000000000000
0 0

0101101
*
Ed
 0.001000000000000 1 1 0
1  32 0 -32.000000000000000 92.000000000000000
2  59 13 3 -32.000000000000000 92.000000000000000
2  60 9 21 -32.000000000000000 92.000000000000000
0

0101000
+55 0 -34 0 *
Ed
 0.001000000000000 1 1 0
1  33 0 -14.500000000000000 39.500000000000000
2  61 10 3 -14.500000000000000 39.500000000000000
2  62 9 21 -14.500000000000000 39.500000000000000
0

0101000
+34 0 -82 0 *
Wi

0101100
-33 0 -54 0 -81 0 -32 0 *
Fa
0  0.000000100000000 9 0

0101000
+31 31 *
Ed
 0.001000000000000 1 1 0
1  34 0 -30.000000000000000 2.000000000000000
2  63 13 3 -30.000000000000000 2.000000000000000
2  64 10 3 -30.000000000000000 2.000000000000000
0

0101000
+39 0 -34 0 *
Wi

0101100
+80 0 -32 0 -29 0 -37 0 *
Fa
0  0.000000100000000 10 0

0101000
+28 24 *
Ed
 0.000000100000005 1 1 0
1  35 0 0.000000000000000 22.000000000000000
2  65 11 12 0.000000000000000 22.000000000000000
2  66 11 14 0.000000000000000 22.000000000000000
2  67 3 15 0.000000000000000 22.000000000000000
2  68 1 16 0.000000000000000 22.000000000000000
0

0101000
+91 0 -101 0 *
Wi

0101100
+62 2 -58 0 +26 23 -76 2 *
Fa
0  0.000000100000000 11 0

0101000
+25 7 *
Ed
 0.000000100000004 1 1 0
1  36 0 0.000000000000000 22.000000000000000
2  69 12 12 0.000000000000000 22.000000000000000
2  70 12 14 0.000000000000000 22.000000000000000
2  71 3 15 0.000000000000000 22.000000000000000
2  72 1 16 0.000000000000000 22.000000000000000
0

0101000
+104 0 -95 0 *
Wi

0101100
+26 0 +100 0 +23 0 +90 0 *
Fa
0  0.000000100000000 3 0

0101000
+22 33 *
Wi

0101100
+73 2 -68 0 +23 23 -64 2 *
Fa
0  0.000000100000000 12 0

0101000
+20 7 *
Wi

0101100
+51 0 -38 0 +29 0 -33 0 *
Fa
0  0.000000100000000 13 0

0101000
+18 24 *
Ed
 0.000000100000000 1 1 0
1  37 0 0.000000000000000 30.000000000000000
0

0101000
+48 34 -48 35 *
Ed
 0.000000100000000 1 1 0
1  38 0 0.000000000000000 30.000000000000000
0

0101000
+47 34 -47 35 *
Wi

0101100
+16 0 -15 0 -46 34 +46 35 *
Fa
0  0.000000100000000 14 0

0101000
+14 0 *
Ed
 0.000000100000000 1 1 0
1  39 0 0.000000000000000 30.000000000000000
0

0101000
+45 34 -45 35 *
Wi

0101100
+15 0 -12 0 -44 34 +44 35 *
Fa
0  0.000000100000000 15 0

0101000
+11 0 *
Ed
 0.000000100000000 1 1 0
1  40 0 0.000000000000000 30.000000000000000
0

0101000
+43 34 -43 35 *
Wi

0101100
+12 0 -9 0 -42 34 +42 35 *
Fa
0  0.000000100000000 16 0

0101000
+8 0 *
Wi

0101100
+9 0 -16 0 -41 34 +41 35 *
Fa
0  0.000000100000000 17 0

0101000
+6 0 *
Wi

0101100
+46 0 +44 0 +42 0 +41 0 *
Fa
0  0.000000100000000 8 0

0101000
-4 36 *
Sh

0101100
+78 2 +70 2 -65 0 +59 2 -56 0 +49 8 +35 25 -30 30 +27 8 +24 2 
-21 32 +19 2 +17 8 -13 8 -10 8 -7 8 -5 8 +3 30 *
So

0100000
+2 0 *

+1 1 