
CASCADE Topology V1, (c) Matra-Datavision
Locations 68
1
1.000000000000000 0.000000000000000 0.000000000000000 0.000000000000000 
0.000000000000000 1.000000000000000 0.000000000000000 0.000000000000000 
0.000000000000000 0.000000000000000 1.000000000000000 0.000000000000000 
1
1.000000000000000 0.000000000000000 0.000000000000000 0.000000000000000 
0.000000000000000 1.000000000000000 0.000000000000000 0.000000000000000 
0.000000000000000 0.000000000000000 1.000000000000000 0.000000000000000 
1
1.000000000000000 0.000000000000000 0.000000000000000 0.000000000000000 
0.000000000000000 1.000000000000000 0.000000000000000 0.000000000000000 
0.000000000000000 0.000000000000000 1.000000000000000 0.000000000000000 
1
1.000000000000000 0.000000000000000 0.000000000000000 0.000000000000000 
0.000000000000000 1.000000000000000 0.000000000000000 0.000000000000000 
0.000000000000000 0.000000000000000 1.000000000000000 0.000000000000000 
1
1.000000000000000 0.000000000000000 0.000000000000000 0.000000000000000 
0.000000000000000 1.000000000000000 0.000000000000000 0.000000000000000 
0.000000000000000 0.000000000000000 1.000000000000000 0.000000000000000 
2  2 1 3 -1 4 1 5 -1 0
1
1.000000000000000 0.000000000000000 0.000000000000000 0.000000000000000 
0.000000000000000 1.000000000000000 0.000000000000000 0.000000000000000 
0.000000000000000 0.000000000000000 1.000000000000000 0.000000000000000 
1
1.000000000000000 0.000000000000000 0.000000000000000 0.000000000000000 
0.000000000000000 1.000000000000000 0.000000000000000 0.000000000000000 
0.000000000000000 0.000000000000000 1.000000000000000 0.000000000000000 
2  7 1 8 -1 0
1
1.000000000000000 0.000000000000000 0.000000000000000 0.000000000000000 
0.000000000000000 1.000000000000000 0.000000000000000 0.000000000000000 
0.000000000000000 0.000000000000000 1.000000000000000 0.000000000000000 
1
1.000000000000000 0.000000000000000 0.000000000000000 0.000000000000000 
0.000000000000000 1.000000000000000 0.000000000000000 0.000000000000000 
0.000000000000000 0.000000000000000 1.000000000000000 0.000000000000000 
1
1.000000000000000 0.000000000000000 0.000000000000000 0.000000000000000 
0.000000000000000 1.000000000000000 0.000000000000000 0.000000000000000 
0.000000000000000 0.000000000000000 1.000000000000000 0.000000000000000 
2  10 1 11 1 12 -1 7 1 8 -1 0
2  12 1 11 -1 10 -1 0
1
1.000000000000000 0.000000000000000 0.000000000000000 0.000000000000000 
0.000000000000000 1.000000000000000 0.000000000000000 0.000000000000000 
0.000000000000000 0.000000000000000 1.000000000000000 2.000000000000000 
2  15 -1 12 1 11 -1 10 -1 0
2  11 -1 10 -1 0
1
1.000000000000000 0.000000000000000 0.000000000000000 0.000000000000000 
0.000000000000000 1.000000000000000 0.000000000000000 0.000000000000000 
0.000000000000000 0.000000000000000 1.000000000000000 0.000000000000000 
1
1.000000000000000 0.000000000000000 0.000000000000000 0.000000000000000 
0.000000000000000 1.000000000000000 0.000000000000000 0.000000000000000 
0.000000000000000 0.000000000000000 1.000000000000000 0.000000000000000 
2  18 1 19 1 7 -1 12 1 11 -1 10 -1 0
2  18 1 19 1 8 -1 0
2  10 1 11 1 12 -1 15 1 7 1 8 -1 0
2  8 1 7 -1 15 -1 12 1 11 -1 10 -1 0
2  10 1 11 1 12 -1 0
2  10 1 11 1 12 -1 15 1 0
2  12 -1 7 1 8 -1 0
2  8 1 19 -1 18 -1 0
1
1.000000000000000 0.000000000000000 0.000000000000000 0.000000000000000 
0.000000000000000 1.000000000000000 0.000000000000000 0.000000000000000 
0.000000000000000 0.000000000000000 1.000000000000000 10.000000000000000 
2  28 -1 8 1 19 -1 18 -1 0
2  19 -1 18 -1 0
2  7 1 19 -1 18 -1 0
2  18 1 19 1 8 -1 28 1 0
2  12 -1 15 1 7 1 8 -1 0
2  7 1 8 -1 2 1 3 -1 4 1 5 -1 0
2  8 -1 2 1 3 -1 4 1 5 -1 0
2  18 1 19 1 0
2  4 1 5 -1 0
2  2 1 3 -1 0
2  18 1 19 1 8 -1 28 1 2 1 3 -1 0
1
1.000000000000000 0.000000000000000 0.000000000000000 0.000000000000000 
0.000000000000000 1.000000000000000 0.000000000000000 0.000000000000000 
0.000000000000000 0.000000000000000 1.000000000000000 0.000000000000000 
1
1.000000000000000 0.000000000000000 0.000000000000000 0.000000000000000 
0.000000000000000 0.000000000000000 -1.000000000000000 89.000000000000000 
0.000000000000000 1.000000000000000 0.000000000000000 0.000000000000000 
2  40 1 41 1 2 -1 28 -1 8 1 19 -1 18 -1 0
2  40 1 41 1 3 -1 0
2  3 1 41 -1 40 -1 0
1
1.000000000000000 0.000000000000000 0.000000000000000 0.000000000000000 
0.000000000000000 1.000000000000000 0.000000000000000 -1.000000000000000 
0.000000000000000 0.000000000000000 1.000000000000000 0.000000000000000 
2  45 -1 3 1 41 -1 40 -1 0
2  41 -1 40 -1 0
2  2 1 41 -1 40 -1 0
2  10 1 11 1 12 -1 15 1 7 1 8 -1 2 1 3 -1 0
2  8 -1 28 1 2 1 3 -1 0
2  18 1 19 1 8 -1 28 1 2 1 3 -1 4 1 5 -1 0
1
1.000000000000000 0.000000000000000 0.000000000000000 0.000000000000000 
0.000000000000000 1.000000000000000 0.000000000000000 0.000000000000000 
0.000000000000000 0.000000000000000 1.000000000000000 0.000000000000000 
1
-1.000000000000000 0.000000000000000 0.000000000000000 0.000000000000000 
0.000000000000000 0.000000000000000 1.000000000000000 0.000000000000000 
0.000000000000000 1.000000000000000 -0.000000000000000 0.000000000000000 
2  52 1 53 1 4 -1 3 1 2 -1 28 -1 8 1 19 -1 18 -1 0
2  52 1 53 1 5 -1 0
2  5 1 53 -1 52 -1 0
1
1.000000000000000 0.000000000000000 0.000000000000000 0.000000000000000 
0.000000000000000 1.000000000000000 0.000000000000000 1.000000000000000 
0.000000000000000 0.000000000000000 1.000000000000000 -0.000000000000000 
2  57 -1 5 1 53 -1 52 -1 0
2  53 -1 52 -1 0
2  2 1 3 -1 4 1 53 -1 52 -1 0
2  10 1 11 1 12 -1 15 1 7 1 8 -1 2 1 3 -1 4 1 5 -1 0
2  40 1 41 1 3 -1 45 1 0
2  8 -1 28 1 2 1 3 -1 4 1 5 -1 0
2  52 1 53 1 5 -1 57 1 0
2  3 -1 45 1 4 1 5 -1 0
2  40 1 41 1 0
2  5 -1 57 1 0
2  52 1 53 1 0
Curve2ds 100
1 0.00000000000000000 0.00000000000000000 1.00000000000000000 0.00000000000000000 
1 0.00000000000000000 -2.00000000000000000 1.00000000000000000 0.00000000000000000 
1 -59.50000000000000000 44.50000000000000000 1.00000000000000000 0.00000000000000000 
1 30.00000000000000000 0.00000000000000000 0.00000000000000000 -1.00000000000000000 
1 0.00000000000000000 0.00000000000000000 0.00000000000000000 -1.00000000000000000 
1 42.50000000000000000 0.00000000000000000 0.00000000000000000 -1.00000000000000000 
1 0.00000000000000000 0.00000000000000000 0.00000000000000000 -1.00000000000000000 
1 0.00000000000000000 -0.00000000000000000 1.00000000000000000 0.00000000000000000 
1 0.00000000000000000 -10.00000000000000000 1.00000000000000000 0.00000000000000000 
1 15.00000000000000000 44.50000000000000000 -1.00000000000000000 0.00000000000000000 
1 72.50000000000000000 0.00000000000000000 -1.00000000000000000 0.00000000000000000 
1 59.50000000000000000 44.50000000000000000 0.00000000000000000 -1.00000000000000000 
1 0.00000000000000000 -0.00000000000000000 1.00000000000000000 0.00000000000000000 
1 0.00000000000000000 -2.00000000000000000 1.00000000000000000 0.00000000000000000 
1 59.50000000000000000 -44.50000000000000000 -1.00000000000000000 0.00000000000000000 
1 0.00000000000000000 0.00000000000000000 1.00000000000000000 0.00000000000000000 
1 0.00000000000000000 -10.00000000000000000 1.00000000000000000 0.00000000000000000 
1 -15.00000000000000000 -44.50000000000000000 1.00000000000000000 0.00000000000000000 
1 76.50000000000000000 0.00000000000000000 -1.00000000000000000 -0.00000000000000000 
1 -59.50000000000000000 -44.50000000000000000 0.00000000000000000 1.00000000000000000 
1 2.00000000000000000 0.00000000000000000 0.00000000000000000 -1.00000000000000000 
1 0.00000000000000000 0.00000000000000000 1.00000000000000000 0.00000000000000000 
1 0.00000000000000000 -10.00000000000000000 1.00000000000000000 0.00000000000000000 
1 -15.00000000000000000 44.50000000000000000 0.00000000000000000 1.00000000000000000 
1 72.50000000000000000 -2.00000000000000000 -1.00000000000000000 -0.00000000000000000 
1 76.50000000000000000 -2.00000000000000000 -1.00000000000000000 0.00000000000000000 
1 119.00000000000000000 0.00000000000000000 0.00000000000000000 -1.00000000000000000 
1 -15.00000000000000000 46.50000000000000000 1.00000000000000000 0.00000000000000000 
1 0.00000000000000000 0.00000000000000000 1.00000000000000000 0.00000000000000000 
1 0.00000000000000000 -10.00000000000000000 1.00000000000000000 0.00000000000000000 
1 15.00000000000000000 46.50000000000000000 0.00000000000000000 -1.00000000000000000 
1 119.00000000000000000 0.00000000000000000 0.00000000000000000 -1.00000000000000000 
1 2.00000000000000000 0.00000000000000000 0.00000000000000000 -1.00000000000000000 
1 0.00000000000000000 -0.00000000000000000 0.00000000000000000 -1.00000000000000000 
1 72.50000000000000000 0.00000000000000000 0.00000000000000000 -1.00000000000000000 
1 0.00000000000000000 -0.00000000000000000 0.00000000000000000 -1.00000000000000000 
1 30.00000000000000000 0.00000000000000000 0.00000000000000000 -1.00000000000000000 
1 0.00000000000000000 0.00000000000000000 0.00000000000000000 -1.00000000000000000 
1 46.50000000000000000 0.00000000000000000 0.00000000000000000 -1.00000000000000000 
1 0.00000000000000000 0.00000000000000000 1.00000000000000000 0.00000000000000000 
1 0.00000000000000000 -10.00000000000000000 1.00000000000000000 0.00000000000000000 
1 15.00000000000000000 -44.50000000000000000 0.00000000000000000 -1.00000000000000000 
1 15.00000000000000000 -46.50000000000000000 -1.00000000000000000 0.00000000000000000 
1 0.00000000000000000 0.00000000000000000 1.00000000000000000 0.00000000000000000 
1 0.00000000000000000 -10.00000000000000000 1.00000000000000000 0.00000000000000000 
1 -15.00000000000000000 -46.50000000000000000 0.00000000000000000 1.00000000000000000 
1 0.00000000000000000 0.00000000000000000 0.00000000000000000 -1.00000000000000000 
1 2.00000000000000000 0.00000000000000000 0.00000000000000000 -1.00000000000000000 
1 76.50000000000000000 0.00000000000000000 0.00000000000000000 -1.00000000000000000 
1 0.00000000000000000 0.00000000000000000 1.00000000000000000 0.00000000000000000 
1 -0.00000000000000022 -1.00000000000000000 1.00000000000000000 0.00000000000000000 
1 -1.50000000000000000 -10.00000000000000000 1.00000000000000000 0.00000000000000000 
1 25.00000000000000000 -7.00000000000000000 0.00000000000000000 -1.00000000000000000 
1 -1.50000000000000000 10.00000000000000000 0.00000000000000000 -1.00000000000000000 
1 0.00000000000000000 0.00000000000000000 1.00000000000000000 0.00000000000000000 
1 0.00000000000000000 -1.00000000000000000 1.00000000000000000 0.00000000000000000 
1 5.00000000000000000 -7.00000000000000000 1.00000000000000000 0.00000000000000000 
1 0.00000000000000000 0.00000000000000000 1.00000000000000000 0.00000000000000000 
1 0.00000000000000022 -1.00000000000000000 1.00000000000000000 0.00000000000000000 
1 1.50000000000000000 10.00000000000000000 -1.00000000000000000 0.00000000000000000 
1 5.00000000000000000 -10.00000000000000000 0.00000000000000000 1.00000000000000000 
1 0.00000000000000000 0.00000000000000000 0.00000000000000000 -1.00000000000000000 
1 0.00000000000000000 0.00000000000000000 1.00000000000000000 0.00000000000000000 
1 0.00000000000000000 -1.00000000000000000 1.00000000000000000 0.00000000000000000 
1 1.50000000000000000 -10.00000000000000000 0.00000000000000000 1.00000000000000000 
1 25.00000000000000000 -10.00000000000000000 -1.00000000000000000 -0.00000000000000000 
1 0.00000000000000000 0.00000000000000000 1.00000000000000000 0.00000000000000000 
1 0.00000000000000022 -1.00000000000000000 1.00000000000000000 0.00000000000000000 
1 -1.50000000000000000 10.00000000000000000 1.00000000000000000 0.00000000000000000 
1 25.00000000000000000 -7.00000000000000000 0.00000000000000000 -1.00000000000000000 
1 -1.50000000000000000 -10.00000000000000000 0.00000000000000000 1.00000000000000000 
1 0.00000000000000000 0.00000000000000000 1.00000000000000000 0.00000000000000000 
1 0.00000000000000000 -1.00000000000000000 1.00000000000000000 0.00000000000000000 
1 5.00000000000000000 -7.00000000000000000 1.00000000000000000 0.00000000000000000 
1 0.00000000000000000 0.00000000000000000 1.00000000000000000 0.00000000000000000 
1 -0.00000000000000022 -1.00000000000000000 1.00000000000000000 0.00000000000000000 
1 1.50000000000000000 -10.00000000000000000 -1.00000000000000000 0.00000000000000000 
1 5.00000000000000000 -10.00000000000000000 0.00000000000000000 1.00000000000000000 
1 2.00000000000000000 0.00000000000000000 0.00000000000000000 -1.00000000000000000 
1 0.00000000000000000 0.00000000000000000 0.00000000000000000 -1.00000000000000000 
1 0.00000000000000000 0.00000000000000000 0.00000000000000000 -1.00000000000000000 
1 20.00000000000000000 0.00000000000000000 0.00000000000000000 -1.00000000000000000 
1 0.00000000000000000 0.00000000000000000 0.00000000000000000 -1.00000000000000000 
1 3.00000000000000000 -0.00000000000000067 0.00000000000000000 -1.00000000000000000 
1 3.00000000000000000 0.00000000000000067 0.00000000000000000 -1.00000000000000000 
1 0.00000000000000000 0.00000000000000000 0.00000000000000000 -1.00000000000000000 
1 20.00000000000000000 0.00000000000000000 0.00000000000000000 -1.00000000000000000 
1 0.00000000000000000 0.00000000000000000 0.00000000000000000 -1.00000000000000000 
1 0.00000000000000000 0.00000000000000000 1.00000000000000000 0.00000000000000000 
1 0.00000000000000000 -1.00000000000000000 1.00000000000000000 0.00000000000000000 
1 1.50000000000000000 10.00000000000000000 0.00000000000000000 -1.00000000000000000 
1 25.00000000000000000 -10.00000000000000000 -1.00000000000000000 0.00000000000000000 
1 0.00000000000000000 0.00000000000000000 0.00000000000000000 -1.00000000000000000 
1 20.00000000000000000 0.00000000000000000 0.00000000000000000 -1.00000000000000000 
1 0.00000000000000000 0.00000000000000000 0.00000000000000000 -1.00000000000000000 
1 3.00000000000000000 0.00000000000000000 0.00000000000000000 -1.00000000000000000 
1 3.00000000000000000 0.00000000000000000 0.00000000000000000 -1.00000000000000000 
1 0.00000000000000000 0.00000000000000000 0.00000000000000000 -1.00000000000000000 
1 20.00000000000000000 0.00000000000000000 0.00000000000000000 -1.00000000000000000 
1 0.00000000000000000 0.00000000000000000 0.00000000000000000 -1.00000000000000000 
Curves 40
1 0.00000000000000000 89.00000000000000000 0.00000000000000000 1.00000000000000000 0.00000000000000000 0.00000000000000000 
1 42.50000000000000000 89.00000000000000000 0.00000000000000000 0.00000000000000000 0.00000000000000000 1.00000000000000000 
1 0.00000000000000000 89.00000000000000000 0.00000000000000000 0.00000000000000000 0.00000000000000000 1.00000000000000000 
1 72.50000000000000000 89.00000000000000000 0.00000000000000000 -1.00000000000000000 0.00000000000000000 0.00000000000000000 
1 119.00000000000000000 89.00000000000000000 0.00000000000000000 0.00000000000000000 -1.00000000000000000 0.00000000000000000 
1 119.00000000000000000 0.00000000000000000 0.00000000000000000 -1.00000000000000000 0.00000000000000000 0.00000000000000000 
1 42.50000000000000000 0.00000000000000000 0.00000000000000000 1.00000000000000000 0.00000000000000000 0.00000000000000000 
1 0.00000000000000000 0.00000000000000000 0.00000000000000000 0.00000000000000000 1.00000000000000000 0.00000000000000000 
1 42.50000000000000000 91.00000000000000000 0.00000000000000000 0.00000000000000000 0.00000000000000000 1.00000000000000000 
1 42.50000000000000000 89.00000000000000000 0.00000000000000000 0.00000000000000000 1.00000000000000000 0.00000000000000000 
1 0.00000000000000000 0.00000000000000000 0.00000000000000000 0.00000000000000000 0.00000000000000000 1.00000000000000000 
1 42.50000000000000000 91.00000000000000000 0.00000000000000000 1.00000000000000000 0.00000000000000000 0.00000000000000000 
1 72.50000000000000000 91.00000000000000000 0.00000000000000000 0.00000000000000000 -1.00000000000000000 0.00000000000000000 
1 119.00000000000000000 89.00000000000000000 0.00000000000000000 0.00000000000000000 0.00000000000000000 1.00000000000000000 
1 72.50000000000000000 89.00000000000000000 0.00000000000000000 0.00000000000000000 0.00000000000000000 1.00000000000000000 
1 119.00000000000000000 0.00000000000000000 0.00000000000000000 0.00000000000000000 0.00000000000000000 1.00000000000000000 
1 72.50000000000000000 0.00000000000000000 0.00000000000000000 0.00000000000000000 0.00000000000000000 1.00000000000000000 
1 72.50000000000000000 0.00000000000000000 0.00000000000000000 0.00000000000000000 -1.00000000000000000 0.00000000000000000 
1 72.50000000000000000 -2.00000000000000000 0.00000000000000000 -1.00000000000000000 0.00000000000000000 0.00000000000000000 
1 42.50000000000000000 -2.00000000000000000 0.00000000000000000 0.00000000000000000 1.00000000000000000 0.00000000000000000 
1 42.50000000000000000 0.00000000000000000 0.00000000000000000 0.00000000000000000 0.00000000000000000 1.00000000000000000 
1 47.50000000000000000 7.00000000000000000 0.00000000000000000 0.00000000000000000 1.00000000000000000 0.00000000000000000 
1 67.50000000000000000 7.00000000000000000 0.00000000000000000 -1.00000000000000000 0.00000000000000000 0.00000000000000000 
1 67.50000000000000000 10.00000000000000000 0.00000000000000000 0.00000000000000000 -1.00000000000000000 0.00000000000000000 
1 72.50000000000000000 91.00000000000000000 0.00000000000000000 0.00000000000000000 0.00000000000000000 1.00000000000000000 
1 47.50000000000000000 10.00000000000000000 0.00000000000000000 1.00000000000000000 0.00000000000000000 0.00000000000000000 
1 -67.50000000000000000 7.00000000000000000 0.00000000000000000 0.00000000000000000 1.00000000000000000 0.00000000000000000 
1 -47.50000000000000000 7.00000000000000000 0.00000000000000000 -1.00000000000000000 0.00000000000000000 0.00000000000000000 
1 -47.50000000000000000 10.00000000000000000 0.00000000000000000 0.00000000000000000 -1.00000000000000000 0.00000000000000000 
1 72.50000000000000000 -2.00000000000000000 0.00000000000000000 0.00000000000000000 0.00000000000000000 1.00000000000000000 
1 42.50000000000000000 -2.00000000000000000 0.00000000000000000 0.00000000000000000 0.00000000000000000 1.00000000000000000 
1 47.50000000000000000 89.00000000000000000 7.00000000000000000 0.00000000000000000 -1.00000000000000000 0.00000000000000022 
1 47.50000000000000000 89.00000000000000000 10.00000000000000000 0.00000000000000000 -1.00000000000000000 0.00000000000000022 
1 67.50000000000000000 89.00000000000000000 7.00000000000000000 0.00000000000000000 -1.00000000000000000 0.00000000000000022 
1 67.50000000000000000 89.00000000000000000 10.00000000000000000 0.00000000000000000 -1.00000000000000000 0.00000000000000022 
1 -67.50000000000000000 10.00000000000000000 0.00000000000000000 1.00000000000000000 0.00000000000000000 0.00000000000000000 
1 67.50000000000000000 0.00000000000000155 7.00000000000000000 0.00000000000000000 1.00000000000000000 -0.00000000000000022 
1 67.50000000000000000 0.00000000000000222 10.00000000000000000 0.00000000000000000 1.00000000000000000 -0.00000000000000022 
1 47.50000000000000000 0.00000000000000155 7.00000000000000000 0.00000000000000000 1.00000000000000000 -0.00000000000000022 
1 47.50000000000000000 0.00000000000000222 10.00000000000000000 0.00000000000000000 1.00000000000000000 -0.00000000000000022 
Polygon3D 0
PolygonOnTriangulations 0
Surfaces 25
1 0.00000000000000000 89.00000000000000000 0.00000000000000000 0.00000000000000000 1.00000000000000000 0.00000000000000000 1.00000000000000000 0.00000000000000000 0.00000000000000000 0.00000000000000000 0.00000000000000000 -1.00000000000000000 
1 59.50000000000000000 44.50000000000000000 0.00000000000000000 0.00000000000000000 0.00000000000000000 1.00000000000000000 1.00000000000000000 0.00000000000000000 -0.00000000000000000 -0.00000000000000000 1.00000000000000000 0.00000000000000000 
1 72.50000000000000000 89.00000000000000000 0.00000000000000000 0.00000000000000000 -1.00000000000000000 0.00000000000000000 -1.00000000000000000 0.00000000000000000 0.00000000000000000 -0.00000000000000000 -0.00000000000000000 -1.00000000000000000 
1 42.50000000000000000 89.00000000000000000 0.00000000000000000 -1.00000000000000000 0.00000000000000000 0.00000000000000000 0.00000000000000000 1.00000000000000000 0.00000000000000000 0.00000000000000000 0.00000000000000000 -1.00000000000000000 
1 57.50000000000000000 44.50000000000000000 0.00000000000000000 0.00000000000000000 0.00000000000000000 1.00000000000000000 1.00000000000000000 0.00000000000000000 -0.00000000000000000 -0.00000000000000000 1.00000000000000000 0.00000000000000000 
1 119.00000000000000000 0.00000000000000000 0.00000000000000000 0.00000000000000000 -1.00000000000000000 0.00000000000000000 -1.00000000000000000 0.00000000000000000 0.00000000000000000 -0.00000000000000000 -0.00000000000000000 -1.00000000000000000 
1 42.50000000000000000 0.00000000000000000 0.00000000000000000 0.00000000000000000 1.00000000000000000 0.00000000000000000 1.00000000000000000 0.00000000000000000 0.00000000000000000 0.00000000000000000 0.00000000000000000 -1.00000000000000000 
1 57.50000000000000000 44.50000000000000000 0.00000000000000000 0.00000000000000000 0.00000000000000000 1.00000000000000000 1.00000000000000000 0.00000000000000000 -0.00000000000000000 -0.00000000000000000 1.00000000000000000 0.00000000000000000 
1 0.00000000000000000 0.00000000000000000 0.00000000000000000 -1.00000000000000000 0.00000000000000000 0.00000000000000000 0.00000000000000000 1.00000000000000000 0.00000000000000000 0.00000000000000000 0.00000000000000000 -1.00000000000000000 
1 72.50000000000000000 91.00000000000000000 0.00000000000000000 1.00000000000000000 0.00000000000000000 -0.00000000000000000 0.00000000000000000 -1.00000000000000000 0.00000000000000000 0.00000000000000000 -0.00000000000000000 -1.00000000000000000 
1 119.00000000000000000 89.00000000000000000 0.00000000000000000 1.00000000000000000 0.00000000000000000 -0.00000000000000000 0.00000000000000000 -1.00000000000000000 0.00000000000000000 0.00000000000000000 -0.00000000000000000 -1.00000000000000000 
1 72.50000000000000000 0.00000000000000000 0.00000000000000000 1.00000000000000000 0.00000000000000000 -0.00000000000000000 0.00000000000000000 -1.00000000000000000 0.00000000000000000 0.00000000000000000 -0.00000000000000000 -1.00000000000000000 
1 42.50000000000000000 -2.00000000000000000 0.00000000000000000 -1.00000000000000000 0.00000000000000000 0.00000000000000000 0.00000000000000000 1.00000000000000000 0.00000000000000000 0.00000000000000000 0.00000000000000000 -1.00000000000000000 
1 47.50000000000000000 89.00000000000000000 7.00000000000000000 -1.00000000000000000 0.00000000000000000 0.00000000000000000 0.00000000000000000 0.00000000000000022 1.00000000000000000 0.00000000000000000 1.00000000000000000 -0.00000000000000022 
1 57.50000000000000000 89.00000000000000000 8.50000000000000000 0.00000000000000000 1.00000000000000000 0.00000000000000000 0.00000000000000000 -0.00000000000000000 1.00000000000000000 1.00000000000000000 0.00000000000000000 -0.00000000000000000 
1 67.50000000000000000 89.00000000000000000 7.00000000000000000 -0.00000000000000000 -0.00000000000000022 -1.00000000000000000 -1.00000000000000000 0.00000000000000000 0.00000000000000000 0.00000000000000000 1.00000000000000000 -0.00000000000000022 
1 67.50000000000000000 89.00000000000000000 10.00000000000000000 1.00000000000000000 0.00000000000000000 0.00000000000000000 0.00000000000000000 -0.00000000000000022 -1.00000000000000000 0.00000000000000000 1.00000000000000000 -0.00000000000000022 
1 42.50000000000000000 91.00000000000000000 0.00000000000000000 0.00000000000000000 1.00000000000000000 0.00000000000000000 1.00000000000000000 0.00000000000000000 0.00000000000000000 0.00000000000000000 0.00000000000000000 -1.00000000000000000 
1 47.50000000000000000 89.00000000000000000 10.00000000000000000 -0.00000000000000000 0.00000000000000022 1.00000000000000000 1.00000000000000000 0.00000000000000000 0.00000000000000000 0.00000000000000000 1.00000000000000000 -0.00000000000000022 
1 67.50000000000000000 0.00000000000000155 7.00000000000000000 1.00000000000000000 -0.00000000000000000 0.00000000000000000 0.00000000000000000 0.00000000000000022 1.00000000000000000 -0.00000000000000000 -1.00000000000000000 0.00000000000000022 
1 57.50000000000000000 0.00000000000000189 8.50000000000000000 0.00000000000000000 1.00000000000000000 -0.00000000000000022 0.00000000000000000 0.00000000000000022 1.00000000000000000 1.00000000000000000 -0.00000000000000000 0.00000000000000000 
1 47.50000000000000000 0.00000000000000155 7.00000000000000000 0.00000000000000000 -0.00000000000000022 -1.00000000000000000 1.00000000000000000 0.00000000000000000 0.00000000000000000 0.00000000000000000 -1.00000000000000000 0.00000000000000022 
1 47.50000000000000000 0.00000000000000222 10.00000000000000000 -1.00000000000000000 0.00000000000000000 -0.00000000000000000 0.00000000000000000 -0.00000000000000022 -1.00000000000000000 -0.00000000000000000 -1.00000000000000000 0.00000000000000022 
1 72.50000000000000000 -2.00000000000000000 0.00000000000000000 0.00000000000000000 -1.00000000000000000 0.00000000000000000 -1.00000000000000000 0.00000000000000000 0.00000000000000000 -0.00000000000000000 -0.00000000000000000 -1.00000000000000000 
1 67.50000000000000000 0.00000000000000222 10.00000000000000000 0.00000000000000000 0.00000000000000022 1.00000000000000000 -1.00000000000000000 0.00000000000000000 0.00000000000000000 0.00000000000000000 -1.00000000000000000 0.00000000000000022 
Triangulations 0

TShapes 142
Ve
0.000000100000000
0.000000000000000 89.000000000000000 0.000000000000000
0 0

0101101
*
Ve
0.000000100000000
42.500000000000000 89.000000000000000 0.000000000000000
0 0

0101101
*
Ed
 0.000000100000000 1 1 0
1  1 0 0.000000000000000 42.500000000000000
2  1 1 14 0.000000000000000 42.500000000000000
2  2 1 16 0.000000000000000 42.500000000000000
2  3 2 17 0.000000000000000 42.500000000000000
0

0101000
+142 0 -141 20 *
Ve
0.000000100000000
42.500000000000000 89.000000000000000 2.000000000000000
0 0

0101101
*
Ed
 0.000000100000000 1 1 0
1  2 0 0.000000000000000 2.000000000000000
2  4 3 0 0.000000000000000 2.000000000000000
2  5 4 0 0.000000000000000 2.000000000000000
2  6 1 9 0.000000000000000 2.000000000000000
0

0101000
+141 21 -139 0 *
Ed
 0.000000100000000 1 1 0
1  1 0 0.000000000000000 42.500000000000000
2  1 1 14 0.000000000000000 42.500000000000000
2  2 1 16 0.000000000000000 42.500000000000000
2  3 2 17 0.000000000000000 42.500000000000000
0

0101000
+142 0 -139 23 *
Ed
 0.000000100000000 1 1 0
1  3 0 0.000000000000000 2.000000000000000
2  7 1 0 0.000000000000000 2.000000000000000
0

0101000
+142 24 -142 25 *
Wi

0101100
-140 13 -138 0 +137 22 +136 9 *
Fa
0  0.000000100000000 1 9

0111000
+135 0 *
Ve
0.000000100000000
72.500000000000000 89.000000000000000 0.000000000000000
0 0

0101101
*
Ed
 0.000000100000000 1 1 0
1  4 0 0.000000000000000 30.000000000000000
2  8 3 27 0.000000000000000 30.000000000000000
2  9 3 29 0.000000000000000 30.000000000000000
2  10 5 30 0.000000000000000 30.000000000000000
2  11 1 31 0.000000000000000 30.000000000000000
0

0101000
+133 0 -141 0 *
Ve
0.000000100000000
119.000000000000000 89.000000000000000 0.000000000000000
0 0

0101101
*
Ed
 0.000000100000000 1 1 0
1  1 0 72.500000000000000 119.000000000000000
2  1 1 14 72.500000000000000 119.000000000000000
2  2 1 16 72.500000000000000 119.000000000000000
2  3 2 17 72.500000000000000 119.000000000000000
0

0101000
+133 20 -131 0 *
Ve
0.000000100000000
119.000000000000000 0.000000000000000 0.000000000000000
0 0

0101101
*
Ed
 0.000000100000000 1 1 0
1  5 0 0.000000000000000 89.000000000000000
2  12 2 17 0.000000000000000 89.000000000000000
0

0101000
+131 0 -129 0 *
Ve
0.000000100000000
72.500000000000000 0.000000000000000 0.000000000000000
0 0

0101101
*
Ed
 0.000000100000000 1 1 0
1  6 0 0.000000000000000 46.500000000000000
2  13 6 14 0.000000000000000 46.500000000000000
2  14 6 16 0.000000000000000 46.500000000000000
2  15 2 17 0.000000000000000 46.500000000000000
0

0101000
+129 0 -127 20 *
Ve
0.000000100000000
42.500000000000000 0.000000000000000 0.000000000000000
0 0

0101101
*
Ed
 0.000000100000000 1 1 0
1  7 0 0.000000000000000 30.000000000000000
2  16 7 27 0.000000000000000 30.000000000000000
2  17 7 29 0.000000000000000 30.000000000000000
2  18 8 30 0.000000000000000 30.000000000000000
2  19 6 31 0.000000000000000 30.000000000000000
0

0101000
+125 0 -127 0 *
Ve
0.000000100000000
0.000000000000000 0.000000000000000 0.000000000000000
0 0

0101101
*
Ed
 0.000000100000000 1 1 0
1  6 0 76.500000000000000 119.000000000000000
2  13 6 14 76.500000000000000 119.000000000000000
2  14 6 16 76.500000000000000 119.000000000000000
2  15 2 17 76.500000000000000 119.000000000000000
0

0101000
+125 20 -123 0 *
Ed
 0.000000100000000 1 1 0
1  8 0 0.000000000000000 89.000000000000000
2  20 2 17 0.000000000000000 89.000000000000000
0

0101000
+123 0 -142 0 *
Wi

0101100
+140 13 -132 21 +130 13 +128 13 +126 13 -124 21 +122 13 +121 13 *
Fa
0  0.000000100000000 2 26

0111000
-120 0 *
Ed
 0.000000100000000 1 1 0
1  2 0 2.000000000000000 10.000000000000000
2  4 3 0 2.000000000000000 10.000000000000000
2  5 4 0 2.000000000000000 10.000000000000000
0

0101000
+139 0 -141 32 *
Ve
0.000000100000000
42.500000000000000 91.000000000000000 0.000000000000000
0 0

0101101
*
Ed
 0.000000100000000 1 1 0
1  9 0 0.000000000000000 10.000000000000000
2  21 4 0 0.000000000000000 10.000000000000000
0

0101000
+117 21 -117 32 *
Ed
 0.000000100000000 1 1 0
1  10 0 0.000000000000000 2.000000000000000
2  22 4 27 0.000000000000000 2.000000000000000
2  23 4 29 0.000000000000000 2.000000000000000
2  24 5 30 0.000000000000000 2.000000000000000
0

0101000
+141 0 -117 0 *
Wi

0101100
+138 0 +118 0 -116 0 -115 21 +115 32 *
Fa
0  0.000000100000000 4 0

0111000
+114 0 *
Ve
0.000000100000000
72.500000000000000 89.000000000000000 2.000000000000000
0 0

0101101
*
Ed
 0.000000100000000 1 1 0
1  1 0 42.500000000000000 72.500000000000000
2  1 1 14 42.500000000000000 72.500000000000000
2  2 1 16 42.500000000000000 72.500000000000000
2  3 2 17 42.500000000000000 72.500000000000000
2  25 3 23 42.500000000000000 72.500000000000000
0

0101000
+139 23 -112 23 *
Ed
 0.000000100000000 1 1 0
1  1 0 72.500000000000000 119.000000000000000
2  1 1 14 72.500000000000000 119.000000000000000
2  2 1 16 72.500000000000000 119.000000000000000
2  3 2 17 72.500000000000000 119.000000000000000
0

0101000
+112 23 -131 0 *
Ve
0.000000100000000
72.500000000000000 0.000000000000000 2.000000000000000
0 0

0101101
*
Ed
 0.000000100000000 1 1 0
1  6 0 0.000000000000000 46.500000000000000
2  13 6 14 0.000000000000000 46.500000000000000
2  14 6 16 0.000000000000000 46.500000000000000
2  15 2 17 0.000000000000000 46.500000000000000
0

0101000
+129 0 -109 23 *
Ve
0.000000100000000
42.500000000000000 0.000000000000000 2.000000000000000
0 0

0101101
*
Ed
 0.000000100000000 1 1 0
1  6 0 46.500000000000000 76.500000000000000
2  13 6 14 46.500000000000000 76.500000000000000
2  14 6 16 46.500000000000000 76.500000000000000
2  15 2 17 46.500000000000000 76.500000000000000
2  26 7 23 46.500000000000000 76.500000000000000
0

0101000
+109 23 -107 23 *
Ed
 0.000000100000000 1 1 0
1  6 0 76.500000000000000 119.000000000000000
2  13 6 14 76.500000000000000 119.000000000000000
2  14 6 16 76.500000000000000 119.000000000000000
2  15 2 17 76.500000000000000 119.000000000000000
0

0101000
+107 23 -123 0 *
Wi

0101100
+137 22 +111 22 +110 22 +128 22 +108 22 +106 22 +105 22 +121 22 *
Fa
0  0.000000100000000 2 33

0111000
-104 0 *
Ed
 0.000000100000000 1 1 0
1  11 0 0.000000000000000 2.000000000000000
2  27 6 0 0.000000000000000 2.000000000000000
0

0101000
+123 24 -123 25 *
Wi

0101100
+102 0 -136 0 -121 24 +121 25 *
Fa
0  0.000000100000000 9 0

0111000
+101 0 *
Ve
0.000000100000000
72.500000000000000 91.000000000000000 0.000000000000000
0 0

0101101
*
Ed
 0.000000100000000 1 1 0
1  12 0 0.000000000000000 30.000000000000000
2  28 5 30 0.000000000000000 30.000000000000000
0

0101000
+117 0 -99 0 *
Ed
 0.000000100000000 1 1 0
1  13 0 0.000000000000000 2.000000000000000
2  29 10 27 0.000000000000000 2.000000000000000
2  30 10 29 0.000000000000000 2.000000000000000
2  31 5 30 0.000000000000000 2.000000000000000
0

0101000
+99 0 -133 0 *
Wi

0101100
+98 0 +97 0 +132 0 +115 0 *
Fa
0  0.000000100000000 5 0

0111000
-96 36 *
Ed
 0.000000100000000 1 1 0
1  14 0 0.000000000000000 2.000000000000000
2  32 1 0 0.000000000000000 2.000000000000000
0

0101000
+131 24 -131 25 *
Ed
 0.000000100000000 1 1 0
1  15 0 0.000000000000000 2.000000000000000
2  33 10 0 0.000000000000000 2.000000000000000
2  34 3 0 0.000000000000000 2.000000000000000
2  35 1 9 0.000000000000000 2.000000000000000
0

0101000
+133 21 -112 0 *
Wi

0101100
-130 13 -94 9 +110 22 +93 0 *
Fa
0  0.000000100000000 1 9

0111000
+92 0 *
Ed
 0.000000100000000 1 1 0
1  16 0 0.000000000000000 2.000000000000000
2  36 6 0 0.000000000000000 2.000000000000000
0

0101000
+129 24 -129 25 *
Wi

0101100
+94 0 -90 0 -128 24 +128 25 *
Fa
0  0.000000100000000 11 0

0111000
+89 0 *
Ed
 0.000000100000000 1 1 0
1  17 0 0.000000000000000 2.000000000000000
2  37 7 0 0.000000000000000 2.000000000000000
2  38 12 0 0.000000000000000 2.000000000000000
2  39 6 9 0.000000000000000 2.000000000000000
0

0101000
+127 21 -109 0 *
Wi

0101100
-126 13 -87 0 +108 22 +90 9 *
Fa
0  0.000000100000000 6 9

0111000
+86 0 *
Ve
0.000000100000000
72.500000000000000 -2.000000000000000 0.000000000000000
0 0

0101101
*
Ed
 0.000000100000000 1 1 0
1  18 0 0.000000000000000 2.000000000000000
2  40 12 27 0.000000000000000 2.000000000000000
2  41 12 29 0.000000000000000 2.000000000000000
2  42 8 30 0.000000000000000 2.000000000000000
0

0101000
+127 0 -84 0 *
Ve
0.000000100000000
42.500000000000000 -2.000000000000000 0.000000000000000
0 0

0101101
*
Ed
 0.000000100000000 1 1 0
1  19 0 0.000000000000000 30.000000000000000
2  43 8 30 0.000000000000000 30.000000000000000
0

0101000
+84 0 -82 0 *
Ed
 0.000000100000000 1 1 0
1  20 0 0.000000000000000 2.000000000000000
2  44 13 27 0.000000000000000 2.000000000000000
2  45 13 29 0.000000000000000 2.000000000000000
2  46 8 30 0.000000000000000 2.000000000000000
0

0101000
+82 0 -125 0 *
Wi

0101100
+124 0 +83 0 +81 0 +80 0 *
Fa
0  0.000000100000000 8 0

0111000
-79 36 *
Ed
 0.000000100000000 1 1 0
1  21 0 0.000000000000000 2.000000000000000
2  47 7 0 0.000000000000000 2.000000000000000
2  48 13 0 0.000000000000000 2.000000000000000
2  49 6 9 0.000000000000000 2.000000000000000
0

0101000
+125 21 -107 0 *
Wi

0101100
-122 13 -102 9 +105 22 +77 0 *
Fa
0  0.000000100000000 6 9

0111000
+76 0 *
Ve
0.000000100000000
47.500000000000000 10.000000000000000 0.000000000000000
0 0

0101101
*
Ed
 0.000000100000000 1 1 0
1  4 0 25.000000000000000 30.000000000000000
2  8 3 27 25.000000000000000 30.000000000000000
2  9 3 29 25.000000000000000 30.000000000000000
2  10 5 30 25.000000000000000 30.000000000000000
2  11 1 31 25.000000000000000 30.000000000000000
0

0101000
+74 42 -141 0 *
Ve
0.000000100000000
47.500000000000000 7.000000000000000 0.000000000000000
0 0

0101101
*
Ed
 0.000000100000000 1 1 0
1  22 0 0.000000000000000 3.000000000000000
2  50 14 44 0.000000000000000 3.000000000000000
2  51 14 46 0.000000000000000 3.000000000000000
2  52 15 47 0.000000000000000 3.000000000000000
2  53 3 48 0.000000000000000 3.000000000000000
0

0101000
+72 0 -74 0 *
Ve
0.000000100000000
67.500000000000000 7.000000000000000 0.000000000000000
0 0

0101101
*
Ed
 0.000000100000000 1 1 0
1  23 0 0.000000000000000 20.000000000000000
2  54 15 47 0.000000000000000 20.000000000000000
2  55 16 44 0.000000000000000 20.000000000000000
2  56 16 46 0.000000000000000 20.000000000000000
2  57 3 48 0.000000000000000 20.000000000000000
0

0101000
+70 0 -72 0 *
Ve
0.000000100000000
67.500000000000000 10.000000000000000 0.000000000000000
0 0

0101101
*
Ed
 0.000000100000000 1 1 0
1  24 0 0.000000000000000 3.000000000000000
2  58 17 44 0.000000000000000 3.000000000000000
2  59 17 46 0.000000000000000 3.000000000000000
2  60 15 47 0.000000000000000 3.000000000000000
2  61 3 48 0.000000000000000 3.000000000000000
0

0101000
+68 0 -70 0 *
Ed
 0.000000100000000 1 1 0
1  4 0 0.000000000000000 5.000000000000000
2  8 3 27 0.000000000000000 5.000000000000000
2  9 3 29 0.000000000000000 5.000000000000000
2  10 5 30 0.000000000000000 5.000000000000000
2  11 1 31 0.000000000000000 5.000000000000000
0

0101000
+133 0 -68 42 *
Ed
 0.000000100000000 1 1 0
1  15 0 2.000000000000000 10.000000000000000
2  33 10 0 2.000000000000000 10.000000000000000
2  34 3 0 2.000000000000000 10.000000000000000
0

0101000
+112 0 -133 32 *
Wi

0101100
-118 38 +73 39 +71 43 +69 43 +67 43 +66 39 +65 38 +111 49 *
Fa
0  0.000000100000000 3 38

0111000
+64 0 *
Ed
 0.000000100000000 1 1 0
1  25 0 0.000000000000000 10.000000000000000
2  62 10 0 0.000000000000000 10.000000000000000
0

0101000
+99 21 -99 32 *
Wi

0101100
+116 0 -62 0 -98 21 +98 32 *
Fa
0  0.000000100000000 18 0

0111000
+61 0 *
Ed
 0.000000100000000 1 1 0
1  26 0 0.000000000000000 20.000000000000000
2  63 19 44 0.000000000000000 20.000000000000000
2  64 19 46 0.000000000000000 20.000000000000000
2  65 15 47 0.000000000000000 20.000000000000000
2  66 3 48 0.000000000000000 20.000000000000000
0

0101000
+74 0 -68 0 *
Wi

0101100
+98 39 +97 39 +66 39 -59 43 +73 39 +115 39 *
Fa
0  0.000000100000000 5 50

0111000
-58 0 *
Ed
 0.000000100000000 1 1 0
1  17 0 2.000000000000000 10.000000000000000
2  37 7 0 2.000000000000000 10.000000000000000
2  38 12 0 2.000000000000000 10.000000000000000
0

0101000
+109 0 -127 32 *
Ve
0.000000100000002
-67.500000000000000 10.000000000000000 0.000000000000000
0 0

0101101
*
Ed
 0.000000100000000 1 1 0
1  7 0 25.000000000000000 30.000000000000000
2  16 7 27 25.000000000000000 30.000000000000000
2  17 7 29 25.000000000000000 30.000000000000000
2  18 8 30 25.000000000000000 30.000000000000000
2  19 6 31 25.000000000000000 30.000000000000000
0

0101000
+55 54 -127 0 *
Ve
0.000000100000002
-67.500000000000000 7.000000000000000 0.000000000000000
0 0

0101101
*
Ed
 0.000000100000002 1 1 0
1  27 0 0.000000000000000 3.000000000000000
2  67 20 56 0.000000000000000 3.000000000000000
2  68 20 58 0.000000000000000 3.000000000000000
2  69 21 59 0.000000000000000 3.000000000000000
2  70 7 60 0.000000000000000 3.000000000000000
0

0101000
+53 0 -55 0 *
Ve
0.000000100000002
-47.500000000000000 7.000000000000000 0.000000000000000
0 0

0101101
*
Ed
 0.000000100000002 1 1 0
1  28 0 0.000000000000000 20.000000000000000
2  71 21 59 0.000000000000000 20.000000000000000
2  72 22 56 0.000000000000000 20.000000000000000
2  73 22 58 0.000000000000000 20.000000000000000
2  74 7 60 0.000000000000000 20.000000000000000
0

0101000
+51 0 -53 0 *
Ve
0.000000100000002
-47.500000000000000 10.000000000000000 0.000000000000000
0 0

0101101
*
Ed
 0.000000100000002 1 1 0
1  29 0 0.000000000000000 3.000000000000000
2  75 23 56 0.000000000000000 3.000000000000000
2  76 23 58 0.000000000000000 3.000000000000000
2  77 21 59 0.000000000000000 3.000000000000000
2  78 7 60 0.000000000000000 3.000000000000000
0

0101000
+49 0 -51 0 *
Ed
 0.000000100000000 1 1 0
1  7 0 0.000000000000000 5.000000000000000
2  16 7 27 0.000000000000000 5.000000000000000
2  17 7 29 0.000000000000000 5.000000000000000
2  18 8 30 0.000000000000000 5.000000000000000
2  19 6 31 0.000000000000000 5.000000000000000
0

0101000
+125 0 -49 54 *
Ed
 0.000000100000000 1 1 0
1  21 0 2.000000000000000 10.000000000000000
2  47 7 0 2.000000000000000 10.000000000000000
2  48 13 0 2.000000000000000 10.000000000000000
0

0101000
+107 0 -125 32 *
Wi

0101100
-56 6 +54 51 +52 55 +50 55 +48 55 +47 51 +46 6 +106 61 *
Fa
0  0.000000100000000 7 6

0111000
+45 0 *
Wi

0101100
+62 0 -93 0 -65 0 -97 21 +97 32 *
Fa
0  0.000000100000000 10 0

0111000
+43 0 *
Ed
 0.000000100000000 1 1 0
1  30 0 0.000000000000000 10.000000000000000
2  79 12 0 0.000000000000000 10.000000000000000
0

0101000
+84 21 -84 32 *
Wi

0101100
+87 0 +56 0 -41 0 -83 21 +83 32 *
Fa
0  0.000000100000000 12 0

0111000
+40 0 *
Ed
 0.000000100000000 1 1 0
1  31 0 0.000000000000000 10.000000000000000
2  80 13 0 0.000000000000000 10.000000000000000
0

0101000
+82 21 -82 32 *
Wi

0101100
+41 0 -38 0 -81 21 +81 32 *
Fa
0  0.000000100000000 24 0

0111000
+37 0 *
Wi

0101100
+38 0 -77 0 -46 0 -80 21 +80 32 *
Fa
0  0.000000100000000 13 0

0111000
+35 0 *
Ed
 0.000000100000000 1 1 0
1  32 0 0.000000000000000 1.000000000000000
2  81 14 0 0.000000000000000 1.000000000000000
2  82 16 0 0.000000000000000 1.000000000000000
0

0101000
+72 43 -72 62 *
Ed
 0.000000100000000 1 1 0
1  33 0 0.000000000000000 1.000000000000000
2  83 19 0 0.000000000000000 1.000000000000000
2  84 14 0 0.000000000000000 1.000000000000000
0

0101000
+74 43 -74 62 *
Wi

0101100
+33 0 -32 0 -71 43 +71 62 *
Fa
0  0.000000100000000 14 0

0111000
+31 0 *
Ed
 0.000000100000000 1 1 0
1  34 0 0.000000000000000 1.000000000000000
2  85 17 0 0.000000000000000 1.000000000000000
2  86 16 0 0.000000000000000 1.000000000000000
0

0101000
+70 43 -70 62 *
Wi

0101100
+29 0 -33 0 -69 43 +69 62 *
Fa
0  0.000000100000000 16 0

0111000
+28 0 *
Ed
 0.000000100000000 1 1 0
1  35 0 0.000000000000000 1.000000000000000
2  87 19 0 0.000000000000000 1.000000000000000
2  88 17 0 0.000000000000000 1.000000000000000
0

0101000
+68 43 -68 62 *
Wi

0101100
+26 0 -29 0 -67 43 +67 62 *
Fa
0  0.000000100000000 17 0

0111000
+25 0 *
Wi

0101100
+32 0 -26 0 -59 43 +59 62 *
Fa
0  0.000000100000000 19 0

0111000
+23 0 *
Ed
 0.000000100000002 1 1 0
1  36 0 0.000000000000000 20.000000000000000
2  89 25 56 0.000000000000000 20.000000000000000
2  90 25 58 0.000000000000000 20.000000000000000
2  91 21 59 0.000000000000000 20.000000000000000
2  92 7 60 0.000000000000000 20.000000000000000
0

0101000
+55 0 -49 0 *
Wi

0101100
+47 51 -21 55 +54 51 +83 51 +81 51 +80 51 *
Fa
0  0.000000100000000 8 63

0111000
-20 0 *
Ed
 0.000000100000000 1 1 0
1  37 0 0.000000000000000 1.000000000000000
2  93 20 0 0.000000000000000 1.000000000000000
2  94 22 0 0.000000000000000 1.000000000000000
0

0101000
+53 55 -53 64 *
Ed
 0.000000100000000 1 1 0
1  38 0 0.000000000000000 1.000000000000000
2  95 25 0 0.000000000000000 1.000000000000000
2  96 20 0 0.000000000000000 1.000000000000000
0

0101000
+55 55 -55 64 *
Wi

0101100
+18 0 -17 0 -52 55 +52 64 *
Fa
0  0.000000100000000 20 0

0111000
+16 0 *
Ed
 0.000000100000000 1 1 0
1  39 0 0.000000000000000 1.000000000000000
2  97 23 0 0.000000000000000 1.000000000000000
2  98 22 0 0.000000000000000 1.000000000000000
0

0101000
+51 55 -51 64 *
Wi

0101100
+14 0 -18 0 -50 55 +50 64 *
Fa
0  0.000000100000000 22 0

0111000
+13 0 *
Ed
 0.000000100000000 1 1 0
1  40 0 0.000000000000000 1.000000000000000
2  99 25 0 0.000000000000000 1.000000000000000
2  100 23 0 0.000000000000000 1.000000000000000
0

0101000
+49 55 -49 64 *
Wi

0101100
+11 0 -14 0 -48 55 +48 64 *
Fa
0  0.000000100000000 23 0

0111000
+10 0 *
Wi

0101100
+59 0 +67 0 +69 0 +71 0 *
Fa
0  0.000000100000000 15 0

0111000
+8 66 *
Wi

0101100
+17 0 -11 0 -21 55 +21 64 *
Fa
0  0.000000100000000 25 0

0111000
+6 0 *
Wi

0101100
+21 0 +48 0 +50 0 +52 0 *
Fa
0  0.000000100000000 21 0

0111000
-4 68 *
Sh

0101100
+134 6 -119 6 +113 6 +103 6 +100 34 -95 35 +91 6 +88 34 +85 6 -78 35 
+75 6 +63 37 +60 6 +57 37 +44 0 +42 6 +39 6 +36 6 +34 6 +30 37 
+27 37 +24 37 +22 37 +19 0 +15 0 +12 0 +9 0 -7 65 +5 0 +3 67 
*
So

0100000
+2 0 *

+1 1 