
CASCADE Topology V1, (c) Matra-Datavision
Locations 30
1
1.000000000000000 0.000000000000000 0.000000000000000 0.000000000000000 
0.000000000000000 1.000000000000000 0.000000000000000 0.000000000000000 
0.000000000000000 0.000000000000000 1.000000000000000 50.000000000000000 
1
1.000000000000000 0.000000000000000 0.000000000000000 0.000000000000000 
0.000000000000000 1.000000000000000 0.000000000000000 0.000000000000000 
0.000000000000000 0.000000000000000 1.000000000000000 0.000000000000000 
1
1.000000000000000 0.000000000000000 0.000000000000000 0.000000000000000 
0.000000000000000 1.000000000000000 0.000000000000000 0.000000000000000 
0.000000000000000 0.000000000000000 1.000000000000000 0.000000000000000 
2  2 1 3 -1 0
1
1.000000000000000 0.000000000000000 0.000000000000000 0.000000000000000 
0.000000000000000 1.000000000000000 0.000000000000000 0.000000000000000 
0.000000000000000 0.000000000000000 1.000000000000000 0.000000000000000 
2  5 -1 3 1 2 -1 0
1
1.000000000000000 0.000000000000000 0.000000000000000 0.000000000000000 
0.000000000000000 1.000000000000000 0.000000000000000 0.000000000000000 
0.000000000000000 0.000000000000000 1.000000000000000 0.000000000000000 
1
1.000000000000000 0.000000000000000 0.000000000000000 0.000000000000000 
0.000000000000000 1.000000000000000 0.000000000000000 0.000000000000000 
0.000000000000000 0.000000000000000 1.000000000000000 0.000000000000000 
1
1.000000000000000 0.000000000000000 0.000000000000000 0.000000000000000 
0.000000000000000 1.000000000000000 0.000000000000000 0.000000000000000 
0.000000000000000 0.000000000000000 1.000000000000000 0.000000000000000 
2  7 1 8 1 9 -1 0
2  5 -1 3 1 2 -1 9 1 8 -1 7 -1 0
1
1.000000000000000 0.000000000000000 0.000000000000000 0.000000000000000 
0.000000000000000 1.000000000000000 0.000000000000000 0.000000000000000 
0.000000000000000 0.000000000000000 1.000000000000000 2.000000000000000 
2  7 1 8 1 9 -1 12 1 0
2  5 -1 3 1 2 -1 12 -1 9 1 8 -1 7 -1 0
2  9 -1 2 1 3 -1 0
2  7 1 8 1 9 -1 2 1 3 -1 0
2  5 -1 0
1
1.000000000000000 0.000000000000000 0.000000000000000 0.000000000000000 
0.000000000000000 1.000000000000000 0.000000000000000 0.000000000000000 
0.000000000000000 0.000000000000000 1.000000000000000 0.000000000000000 
1
1.000000000000000 0.000000000000000 0.000000000000000 0.000000000000000 
0.000000000000000 0.000000000000000 -1.000000000000000 0.000000000000000 
0.000000000000000 1.000000000000000 0.000000000000000 0.000000000000000 
1
1.000000000000000 0.000000000000000 0.000000000000000 -0.000000000000000 
0.000000000000000 1.000000000000000 0.000000000000000 2.000000000000000 
0.000000000000000 0.000000000000000 1.000000000000000 -0.000000000000000 
2  18 1 19 1 3 -1 20 1 0
2  5 -1 20 -1 3 1 19 -1 18 -1 0
2  9 -1 12 1 2 1 3 -1 0
2  7 1 8 1 0
2  18 1 19 1 3 -1 0
2  5 -1 3 1 19 -1 18 -1 0
2  7 1 8 1 9 -1 12 1 2 1 3 -1 0
2  3 -1 20 1 0
2  18 1 19 1 0
2  3 -1 0
Curve2ds 0
Curves 25
1 0.00000000000000000 50.00000000000000000 0.00000000000000000 0.00000000000000000 0.00000000000000000 1.00000000000000000 
1 120.00000000000000000 50.00000000000000000 0.00000000000000000 0.00000000000000000 0.00000000000000000 1.00000000000000000 
1 0.00000000000000000 50.00000000000000000 0.00000000000000000 1.00000000000000000 0.00000000000000000 0.00000000000000000 
1 0.00000000000000000 50.00000000000000000 0.00000000000000000 1.00000000000000000 0.00000000000000000 0.00000000000000000 
1 0.00000000000000000 0.00000000000000000 0.00000000000000000 0.00000000000000000 0.00000000000000000 1.00000000000000000 
1 0.00000000000000000 0.00000000000000000 0.00000000000000000 0.00000000000000000 1.00000000000000000 0.00000000000000000 
1 0.00000000000000000 0.00000000000000000 0.00000000000000000 0.00000000000000000 1.00000000000000000 0.00000000000000000 
1 120.00000000000000000 0.00000000000000000 0.00000000000000000 0.00000000000000000 0.00000000000000000 1.00000000000000000 
1 120.00000000000000000 50.00000000000000000 0.00000000000000000 0.00000000000000000 -1.00000000000000000 0.00000000000000000 
1 120.00000000000000000 50.00000000000000000 0.00000000000000000 0.00000000000000000 -1.00000000000000000 0.00000000000000000 
1 120.00000000000000000 0.00000000000000000 0.00000000000000000 -1.00000000000000000 0.00000000000000000 0.00000000000000000 
1 75.00000000000000000 0.00000000000000000 0.00000000000000000 0.00000000000000000 1.00000000000000000 -0.00000000000000022 
1 45.00000000000000000 0.00000000000000000 0.00000000000000000 1.00000000000000000 0.00000000000000000 0.00000000000000000 
1 45.00000000000000000 0.00000000000000000 0.00000000000000000 0.00000000000000000 1.00000000000000000 -0.00000000000000022 
1 120.00000000000000000 0.00000000000000000 0.00000000000000000 -1.00000000000000000 0.00000000000000000 0.00000000000000000 
1 120.00000000000000000 0.00000000000000000 0.00000000000000000 -1.00000000000000000 0.00000000000000000 0.00000000000000000 
1 45.00000000000000000 0.00000000000000000 0.00000000000000000 1.00000000000000000 0.00000000000000000 0.00000000000000000 
1 75.00000000000000000 -0.00000000000000222 -10.00000000000000000 0.00000000000000000 1.00000000000000000 -0.00000000000000022 
1 75.00000000000000000 0.00000000000000000 0.00000000000000000 0.00000000000000000 -1.00000000000000000 0.00000000000000000 
1 75.00000000000000000 0.00000000000000000 0.00000000000000000 0.00000000000000000 -1.00000000000000000 0.00000000000000000 
1 75.00000000000000000 -10.00000000000000000 0.00000000000000000 -1.00000000000000000 0.00000000000000000 0.00000000000000000 
1 45.00000000000000000 -10.00000000000000000 0.00000000000000000 0.00000000000000000 1.00000000000000000 0.00000000000000000 
1 45.00000000000000000 -0.00000000000000222 -10.00000000000000000 0.00000000000000000 1.00000000000000000 -0.00000000000000022 
1 45.00000000000000000 -10.00000000000000000 0.00000000000000000 0.00000000000000000 1.00000000000000000 0.00000000000000000 
1 75.00000000000000000 -10.00000000000000000 0.00000000000000000 -1.00000000000000000 0.00000000000000000 0.00000000000000000 
Polygon3D 0
PolygonOnTriangulations 0
Surfaces 11
1 0.00000000000000000 50.00000000000000000 0.00000000000000000 0.00000000000000000 1.00000000000000000 0.00000000000000000 1.00000000000000000 0.00000000000000000 0.00000000000000000 0.00000000000000000 0.00000000000000000 -1.00000000000000000 
1 0.00000000000000000 0.00000000000000000 0.00000000000000000 -1.00000000000000000 0.00000000000000000 0.00000000000000000 0.00000000000000000 1.00000000000000000 0.00000000000000000 0.00000000000000000 0.00000000000000000 -1.00000000000000000 
1 120.00000000000000000 50.00000000000000000 0.00000000000000000 1.00000000000000000 0.00000000000000000 0.00000000000000000 0.00000000000000000 -1.00000000000000000 0.00000000000000000 0.00000000000000000 0.00000000000000000 -1.00000000000000000 
1 60.00000000000000000 25.00000000000000000 0.00000000000000000 0.00000000000000000 0.00000000000000000 1.00000000000000000 1.00000000000000000 0.00000000000000000 0.00000000000000000 0.00000000000000000 1.00000000000000000 0.00000000000000000 
1 60.00000000000000000 25.00000000000000000 0.00000000000000000 0.00000000000000000 0.00000000000000000 1.00000000000000000 1.00000000000000000 0.00000000000000000 0.00000000000000000 0.00000000000000000 1.00000000000000000 0.00000000000000000 
1 120.00000000000000000 0.00000000000000000 0.00000000000000000 0.00000000000000000 -1.00000000000000000 0.00000000000000000 -1.00000000000000000 0.00000000000000000 0.00000000000000000 -0.00000000000000000 -0.00000000000000000 -1.00000000000000000 
1 75.00000000000000000 0.00000000000000000 0.00000000000000000 -1.00000000000000000 0.00000000000000000 0.00000000000000000 0.00000000000000000 -0.00000000000000022 -1.00000000000000000 0.00000000000000000 -1.00000000000000000 0.00000000000000022 
1 60.00000000000000000 -0.00000000000000111 -5.00000000000000000 0.00000000000000000 1.00000000000000000 -0.00000000000000022 0.00000000000000000 0.00000000000000022 1.00000000000000000 1.00000000000000000 0.00000000000000000 0.00000000000000000 
1 45.00000000000000000 -0.00000000000000222 -10.00000000000000000 1.00000000000000000 0.00000000000000000 0.00000000000000000 0.00000000000000000 0.00000000000000022 1.00000000000000000 0.00000000000000000 -1.00000000000000000 0.00000000000000022 
1 60.00000000000000000 -0.00000000000000111 -5.00000000000000000 0.00000000000000000 1.00000000000000000 -0.00000000000000022 0.00000000000000000 0.00000000000000022 1.00000000000000000 1.00000000000000000 0.00000000000000000 0.00000000000000000 
1 75.00000000000000000 -0.00000000000000222 -10.00000000000000000 0.00000000000000000 0.00000000000000022 1.00000000000000000 -1.00000000000000000 0.00000000000000000 0.00000000000000000 0.00000000000000000 -1.00000000000000000 0.00000000000000022 
Triangulations 0

TShapes 65
Ve
0.000000100000000
0.000000000000000 50.000000000000000 0.000000000000000
0 0

0101101
*
Ve
0.000000100000000
0.000000000000000 50.000000000000000 2.000000000000000
0 0

0101101
*
Ed
 0.000000100000000 1 1 0
1  1 0 0.000000000000000 2.000000000000000
0

0101000
+65 6 -64 6 *
Ve
0.000000100000000
120.000000000000000 50.000000000000000 0.000000000000000
0 0

0101101
*
Ve
0.000000100000000
120.000000000000000 50.000000000000000 2.000000000000000
0 0

0101101
*
Ed
 0.000000100000000 1 1 0
1  2 0 0.000000000000000 2.000000000000000
0

0101000
+62 6 -61 6 *
Ed
 0.000000100000000 1 1 0
1  3 0 0.000000000000000 120.000000000000000
0

0101000
+65 11 -62 11 *
Ed
 0.000000100000000 1 1 0
1  4 0 0.000000000000000 120.000000000000000
0

0101000
+64 14 -61 14 *
Wi

0101100
+63 0 -60 0 -59 10 +58 13 *
Fa
0  0.000000100000000 1 0

0111000
+57 0 *
Ve
0.000000100000000
0.000000000000000 0.000000000000000 0.000000000000000
0 0

0101101
*
Ve
0.000000100000000
0.000000000000000 0.000000000000000 2.000000000000000
0 0

0101101
*
Ed
 0.000000100000000 1 1 0
1  5 0 0.000000000000000 2.000000000000000
0

0101000
+55 6 -54 6 *
Ed
 0.000000100000000 1 1 0
1  6 0 0.000000000000000 50.000000000000000
0

0101000
+55 11 -65 11 *
Ed
 0.000000100000000 1 1 0
1  7 0 0.000000000000000 50.000000000000000
0

0101000
+54 14 -64 14 *
Wi

0101100
+53 0 -63 0 -52 10 +51 13 *
Fa
0  0.000000100000000 2 0

0111000
+50 0 *
Ve
0.000000100000000
120.000000000000000 0.000000000000000 0.000000000000000
0 0

0101101
*
Ve
0.000000100000000
120.000000000000000 0.000000000000000 2.000000000000000
0 0

0101101
*
Ed
 0.000000100000000 1 1 0
1  8 0 0.000000000000000 2.000000000000000
0

0101000
+48 6 -47 6 *
Ed
 0.000000100000000 1 1 0
1  9 0 0.000000000000000 50.000000000000000
0

0101000
+62 11 -48 11 *
Ed
 0.000000100000000 1 1 0
1  10 0 0.000000000000000 50.000000000000000
0

0101000
+61 14 -47 14 *
Wi

0101100
+60 0 -46 0 -45 10 +44 13 *
Fa
0  0.000000100000000 3 0

0111000
+43 0 *
Ve
0.000000100000000
75.000000000000000 0.000000000000000 0.000000000000000
0 0

0101101
*
Ed
 0.000000100000000 1 1 0
1  11 0 0.000000000000000 45.000000000000000
0

0101000
+48 11 -41 11 *
Ve
0.000000100000000
75.000000000000000 2.000000000000000 -0.000000000000000
0 0

0101101
*
Ed
 0.000000100000000 1 1 0
1  12 0 0.000000000000000 2.000000000000000
0

0101000
+41 17 -39 17 *
Ve
0.000000100000000
45.000000000000000 2.000000000000000 -0.000000000000000
0 0

0101101
*
Ed
 0.000000100000000 1 1 0
1  13 0 0.000000000000000 30.000000000000000
0

0101000
+37 22 -39 22 *
Ve
0.000000100000000
45.000000000000000 0.000000000000000 0.000000000000000
0 0

0101101
*
Ed
 0.000000100000000 1 1 0
1  14 0 0.000000000000000 2.000000000000000
0

0101000
+35 17 -37 17 *
Ed
 0.000000100000000 1 1 0
1  15 0 75.000000000000000 120.000000000000000
0

0101000
+35 11 -55 11 *
Wi

0101100
-59 16 -45 16 -40 16 -38 0 +36 21 +34 0 -33 16 -52 16 *
Fa
0  0.000000100000000 4 15

0111000
+32 0 *
Ed
 0.000000100000000 1 1 0
1  16 0 0.000000000000000 120.000000000000000
0

0101000
+47 14 -54 14 *
Wi

0101100
+58 0 +44 0 +30 0 +51 0 *
Fa
0  0.000000100000000 5 0

0111000
-29 24 *
Ed
 0.000000100000000 1 1 0
1  17 0 0.000000000000000 30.000000000000000
0

0101000
+35 26 -41 26 *
Wi

0101100
+46 4 -53 4 -40 16 +27 25 -33 16 +30 27 *
Fa
0  0.000000100000000 6 4

0111000
+26 0 *
Ve
0.000000100000000
75.000000000000000 -0.000000000000002 -10.000000000000000
0 0

0101101
*
Ve
0.000000100000000
75.000000000000000 1.999999999999998 -10.000000000000000
0 0

0101101
*
Ed
 0.000000100000000 1 1 0
1  18 0 0.000000000000000 2.000000000000000
0

0101000
+24 17 -23 17 *
Ed
 0.000000100000000 1 1 0
1  19 0 0.000000000000000 10.000000000000000
0

0101000
+41 26 -24 26 *
Ed
 0.000000100000000 1 1 0
1  20 0 0.000000000000000 10.000000000000000
0

0101000
+39 22 -23 22 *
Wi

0101100
+38 0 -22 0 -21 25 +20 21 *
Fa
0  0.000000100000000 7 0

0111000
+19 0 *
Ve
0.000000100000000
45.000000000000000 1.999999999999998 -10.000000000000000
0 0

0101101
*
Ed
 0.000000100000000 1 1 0
1  21 0 0.000000000000000 30.000000000000000
0

0101000
+23 22 -17 22 *
Ed
 0.000000100000000 1 1 0
1  22 0 0.000000000000000 10.000000000000000
0

0101000
+17 22 -37 22 *
Wi

0101100
+36 0 +20 0 +16 0 +15 0 *
Fa
0  0.000000100000000 8 0

0111000
+14 29 *
Ve
0.000000100000000
45.000000000000000 -0.000000000000002 -10.000000000000000
0 0

0101101
*
Ed
 0.000000100000000 1 1 0
1  23 0 0.000000000000000 2.000000000000000
0

0101000
+12 17 -17 17 *
Ed
 0.000000100000000 1 1 0
1  24 0 0.000000000000000 10.000000000000000
0

0101000
+12 26 -35 26 *
Wi

0101100
+11 0 -34 0 -10 25 +15 21 *
Fa
0  0.000000100000000 9 0

0111000
+9 0 *
Ed
 0.000000100000000 1 1 0
1  25 0 0.000000000000000 30.000000000000000
0

0101000
+24 26 -12 26 *
Wi

0101100
+27 0 +21 0 +7 0 +10 0 *
Fa
0  0.000000100000000 10 0

0111000
+6 29 *
Wi

0101100
+22 0 -11 0 -7 25 +16 21 *
Fa
0  0.000000100000000 11 0

0111000
+4 0 *
Sh

0101100
+56 4 +49 4 +42 4 -31 0 +28 23 +25 0 -18 0 +13 28 -8 0 -5 30 
-3 0 *
So

1100000
+2 0 *

+1 1 