
CASCADE Topology V1, (c) Matra-Datavision
Locations 57
1
1.000000000000000 0.000000000000000 0.000000000000000 0.000000000000000 
0.000000000000000 1.000000000000000 0.000000000000000 0.000000000000000 
0.000000000000000 0.000000000000000 1.000000000000000 0.000000000000000 
1
1.000000000000000 0.000000000000000 0.000000000000000 0.000000000000000 
0.000000000000000 1.000000000000000 0.000000000000000 0.000000000000000 
0.000000000000000 0.000000000000000 1.000000000000000 0.000000000000000 
1
1.000000000000000 0.000000000000000 0.000000000000000 0.000000000000000 
0.000000000000000 1.000000000000000 0.000000000000000 0.000000000000000 
0.000000000000000 0.000000000000000 1.000000000000000 0.000000000000000 
1
1.000000000000000 0.000000000000000 0.000000000000000 0.000000000000000 
0.000000000000000 1.000000000000000 0.000000000000000 0.000000000000000 
0.000000000000000 0.000000000000000 1.000000000000000 0.000000000000000 
1
1.000000000000000 0.000000000000000 0.000000000000000 0.000000000000000 
0.000000000000000 1.000000000000000 0.000000000000000 0.000000000000000 
0.000000000000000 0.000000000000000 1.000000000000000 0.000000000000000 
1
1.000000000000000 0.000000000000000 0.000000000000000 0.000000000000000 
0.000000000000000 1.000000000000000 0.000000000000000 0.000000000000000 
0.000000000000000 0.000000000000000 1.000000000000000 0.000000000000000 
1
1.000000000000000 0.000000000000000 0.000000000000000 0.000000000000000 
0.000000000000000 1.000000000000000 0.000000000000000 0.000000000000000 
0.000000000000000 0.000000000000000 1.000000000000000 0.000000000000000 
1
1.000000000000000 0.000000000000000 0.000000000000000 0.000000000000000 
0.000000000000000 1.000000000000000 0.000000000000000 0.000000000000000 
0.000000000000000 0.000000000000000 1.000000000000000 0.000000000000000 
2  3 1 4 1 5 -1 6 1 7 1 8 -1 0
2  2 -1 0
2  3 1 4 1 5 -1 6 1 7 1 8 -1 2 1 0
1
1.000000000000000 0.000000000000000 0.000000000000000 0.000000000000000 
0.000000000000000 1.000000000000000 0.000000000000000 0.000000000000000 
0.000000000000000 0.000000000000000 1.000000000000000 0.000000000000000 
1
-1.000000000000000 0.000000000000000 0.000000000000000 0.000000000000000 
0.000000000000000 0.000000000000000 1.000000000000000 52.000000000000000 
0.000000000000000 1.000000000000000 -0.000000000000000 0.000000000000000 
2  12 1 13 1 8 -1 2 1 0
2  8 1 13 -1 12 -1 0
1
1.000000000000000 0.000000000000000 0.000000000000000 0.000000000000000 
0.000000000000000 1.000000000000000 0.000000000000000 -1.000000000000000 
0.000000000000000 0.000000000000000 1.000000000000000 0.000000000000000 
2  16 -1 8 1 13 -1 12 -1 0
2  13 -1 12 -1 0
2  3 1 4 1 5 -1 6 1 7 1 13 -1 12 -1 0
2  4 1 5 -1 6 1 7 1 8 -1 0
1
1.000000000000000 0.000000000000000 0.000000000000000 0.000000000000000 
0.000000000000000 1.000000000000000 0.000000000000000 0.000000000000000 
0.000000000000000 0.000000000000000 1.000000000000000 0.000000000000000 
2  21 -1 3 1 0
1
1.000000000000000 0.000000000000000 0.000000000000000 0.000000000000000 
0.000000000000000 1.000000000000000 0.000000000000000 0.000000000000000 
0.000000000000000 0.000000000000000 1.000000000000000 30.000000000000000 
2  21 -1 23 1 3 1 0
2  12 1 13 1 8 -1 16 1 0
2  12 1 13 1 8 -1 16 1 2 1 0
2  3 -1 0
2  21 -1 3 1 4 1 5 -1 6 1 7 1 8 -1 2 1 0
2  3 -1 21 1 0
2  21 -1 23 1 3 1 4 1 5 -1 6 1 7 1 8 -1 2 1 0
2  3 -1 23 -1 21 1 0
1
1.000000000000000 0.000000000000000 0.000000000000000 0.000000000000000 
0.000000000000000 1.000000000000000 0.000000000000000 0.000000000000000 
0.000000000000000 0.000000000000000 1.000000000000000 0.000000000000000 
1
1.000000000000000 0.000000000000000 0.000000000000000 0.000000000000000 
0.000000000000000 1.000000000000000 0.000000000000000 0.000000000000000 
0.000000000000000 0.000000000000000 1.000000000000000 0.000000000000000 
2  32 1 33 1 21 -1 23 1 3 1 0
2  8 -1 16 1 2 1 0
2  12 1 13 1 0
2  6 1 7 1 8 -1 2 1 0
2  3 1 4 1 5 -1 0
2  6 -1 0
2  3 1 4 1 5 -1 6 1 0
1
1.000000000000000 0.000000000000000 0.000000000000000 0.000000000000000 
0.000000000000000 1.000000000000000 0.000000000000000 0.000000000000000 
0.000000000000000 0.000000000000000 1.000000000000000 0.000000000000000 
1
1.000000000000000 0.000000000000000 0.000000000000000 0.000000000000000 
0.000000000000000 0.000000000000000 -1.000000000000000 -2.000000000000000 
0.000000000000000 1.000000000000000 0.000000000000000 0.000000000000000 
2  41 1 42 1 5 -1 6 1 0
2  5 1 42 -1 41 -1 0
1
1.000000000000000 0.000000000000000 0.000000000000000 0.000000000000000 
0.000000000000000 1.000000000000000 0.000000000000000 1.000000000000000 
0.000000000000000 0.000000000000000 1.000000000000000 -0.000000000000000 
2  45 -1 5 1 42 -1 41 -1 0
2  42 -1 41 -1 0
2  3 1 4 1 42 -1 41 -1 0
2  4 1 5 -1 0
2  32 1 33 1 21 -1 0
2  32 1 33 1 21 -1 23 1 0
2  41 1 42 1 5 -1 45 1 0
2  41 1 42 1 5 -1 45 1 6 1 0
2  7 1 8 -1 2 1 0
2  32 1 33 1 0
2  5 -1 45 1 6 1 7 1 8 -1 2 1 0
2  41 1 42 1 0
Curve2ds 120
1 49.00000000000000000 -11.50000000000000000 0.00000000000000000 1.00000000000000000 
1 11.50000000000000000 -0.00000000000000455 1.00000000000000000 0.00000000000000022 
1 0.00000000000000000 0.00000000000000000 1.00000000000000000 0.00000000000000000 
1 0.00000000000000022 -1.00000000000000000 1.00000000000000000 0.00000000000000000 
1 1.50000000000000000 -11.00000000000000000 -1.00000000000000000 0.00000000000000000 
1 49.00000000000000000 -23.00000000000000000 0.00000000000000000 1.00000000000000000 
1 0.00000000000000000 -0.21213203435596384 1.00000000000000000 0.00000000000000000 
1 49.00000000000000000 -19.69999999999999929 1.00000000000000000 0.00000000000000000 
1 49.00000000000000000 -11.50000000000000000 0.00000000000000000 -1.00000000000000000 
1 11.50000000000000000 -0.00000000000000455 -1.00000000000000000 -0.00000000000000022 
1 71.00000000000000000 -10.00000000000000000 0.00000000000000000 1.00000000000000000 
1 -10.00000000000000000 -0.00000000000000488 -1.00000000000000000 0.00000000000000022 
1 0.00000000000000000 -0.21213203435596739 1.00000000000000000 0.00000000000000000 
1 71.00000000000000000 -23.30000000000000071 -1.00000000000000000 0.00000000000000000 
1 0.00000000000000000 0.00000000000000000 1.00000000000000000 0.00000000000000000 
1 -0.00000000000000022 -1.00000000000000000 1.00000000000000000 0.00000000000000000 
1 -1.50000000000000000 11.00000000000000000 1.00000000000000000 0.00000000000000000 
1 71.00000000000000000 -20.00000000000000000 0.00000000000000000 -1.00000000000000000 
1 71.00000000000000000 -10.00000000000000000 0.00000000000000000 -1.00000000000000000 
1 -10.00000000000000000 -0.00000000000000488 1.00000000000000000 -0.00000000000000022 
8 -10000000.00000000000000000 10000000.00000000000000000
1 -2.00000000000000000 0.00000000000000000 0.00000000000000000 -1.00000000000000000 
8 -10000000.00000000000000000 10000000.00000000000000000
1 52.00000000000000000 0.00000000000000000 0.00000000000000000 -1.00000000000000000 
8 -9999970.00000000000000000 9999970.00000000000000000
1 30.00000000000000000 2.00000000000000000 1.00000000000000000 0.00000000000000000 
8 -9999970.00000000000000000 9999970.00000000000000000
1 -30.00000000000000000 27.00000000000000000 1.00000000000000000 0.00000000000000000 
8 -9999970.00000000000000000 9999970.00000000000000000
1 -30.00000000000000000 27.00000000000000000 -1.00000000000000000 0.00000000000000000 
8 -9999970.00000000000000000 9999970.00000000000000000
1 30.00000000000000000 -30.00000000000000000 -1.00000000000000000 0.00000000000000000 
8 -10000000.00000000000000000 10000000.00000000000000000
1 122.00000000000000000 0.00000000000000000 0.00000000000000000 1.00000000000000000 
8 -10000000.00000000000000000 10000000.00000000000000000
1 -2.00000000000000000 0.00000000000000000 0.00000000000000000 1.00000000000000000 
1 22.00000000000000000 0.00000000000000000 0.00000000000000000 -1.00000000000000000 
1 0.00000000000000000 0.00000000000000000 0.00000000000000000 -1.00000000000000000 
1 22.00000000000000000 0.00000000000000000 0.00000000000000000 1.00000000000000000 
1 -0.14999999999999855 -0.15000000000000571 0.70710678118655179 -0.70710678118654324 
1 3.00000000000000000 0.00000000000000067 0.00000000000000000 -1.00000000000000000 
1 0.00000000000000000 0.00000000000000000 0.00000000000000000 -1.00000000000000000 
1 -0.00000000000000000 1.06066017177982630 0.00000000000000000 1.00000000000000000 
1 2.39999999999999147 -0.90000000000000513 -0.70710678118655157 -0.70710678118654346 
1 0.00000000000000000 0.21213203435596029 1.00000000000000000 0.00000000000000000 
1 0.00000000000000000 -0.30000000000000426 1.00000000000000000 0.00000000000000000 
1 22.00000000000000000 0.00000000000000000 0.00000000000000000 1.00000000000000000 
1 -0.14999999999999861 -0.15000000000000566 0.70710678118655157 -0.70710678118654346 
1 22.00000000000000000 0.00000000000000000 0.00000000000000000 -1.00000000000000000 
1 0.00000000000000000 0.00000000000000000 0.00000000000000000 -1.00000000000000000 
1 0.00000000000000000 0.00000000000000000 0.00000000000000000 -1.00000000000000000 
1 3.00000000000000000 -0.00000000000000067 0.00000000000000000 -1.00000000000000000 
1 -0.00000000000000000 1.06066017177982630 0.00000000000000000 1.00000000000000000 
1 2.39999999999999147 -0.90000000000000624 -0.70710678118655179 -0.70710678118654324 
1 0.00000000000000000 0.21213203435596029 1.00000000000000000 0.00000000000000000 
1 0.00000000000000000 -0.30000000000000426 1.00000000000000000 0.00000000000000000 
8 -9999987.50000000000000000 9999987.50000000000000000
1 12.50000000000000000 2.00000000000000000 1.00000000000000000 0.00000000000000000 
8 -9999987.50000000000000000 9999987.50000000000000000
1 -62.00000000000000000 -12.50000000000000000 0.00000000000000000 1.00000000000000000 
8 -10000000.00000000000000000 10000000.00000000000000000
1 122.00000000000000000 0.00000000000000000 0.00000000000000000 1.00000000000000000 
8 -10000000.00000000000000000 10000000.00000000000000000
1 -2.00000000000000000 0.00000000000000000 -0.00000000000000000 1.00000000000000000 
8 -9999987.50000000000000000 9999987.50000000000000000
1 -62.00000000000000000 -12.50000000000000000 0.00000000000000000 -1.00000000000000000 
8 -9999987.50000000000000000 9999987.50000000000000000
1 12.50000000000000000 -30.00000000000000000 -1.00000000000000000 0.00000000000000000 
8 -9999970.00000000000000000 9999970.00000000000000000
1 30.00000000000000000 2.00000000000000000 1.00000000000000000 0.00000000000000000 
8 -9999970.00000000000000000 9999970.00000000000000000
1 30.00000000000000000 -27.00000000000000000 -1.00000000000000000 0.00000000000000000 
8 -9999987.50000000000000000 9999987.50000000000000000
1 12.50000000000000000 2.00000000000000000 1.00000000000000000 0.00000000000000000 
8 -9999987.50000000000000000 9999987.50000000000000000
1 62.00000000000000000 12.50000000000000000 0.00000000000000000 -1.00000000000000000 
8 -9999970.00000000000000000 9999970.00000000000000000
1 30.00000000000000000 -27.00000000000000000 1.00000000000000000 0.00000000000000000 
8 -9999970.00000000000000000 9999970.00000000000000000
1 30.00000000000000000 -30.00000000000000000 -1.00000000000000000 0.00000000000000000 
8 -9999987.50000000000000000 9999987.50000000000000000
1 62.00000000000000000 12.50000000000000000 0.00000000000000000 1.00000000000000000 
8 -9999987.50000000000000000 9999987.50000000000000000
1 12.50000000000000000 -30.00000000000000000 -1.00000000000000000 0.00000000000000000 
8 -10000000.00000000000000000 10000000.00000000000000000
1 52.00000000000000000 0.00000000000000000 0.00000000000000000 1.00000000000000000 
8 -10000000.00000000000000000 10000000.00000000000000000
1 -2.00000000000000000 -0.00000000000000000 0.00000000000000000 1.00000000000000000 
1 0.00000000000000000 0.00000000000000000 1.00000000000000000 0.00000000000000000 
1 0.00000000000000000 -1.00000000000000000 1.00000000000000000 0.00000000000000000 
1 1.50000000000000000 11.00000000000000000 0.00000000000000000 -1.00000000000000000 
1 71.00000000000000000 -23.00000000000000000 -1.00000000000000000 0.00000000000000000 
1 0.00000000000000000 0.00000000000000000 1.00000000000000000 0.00000000000000000 
1 0.00000000000000000 -1.00000000000000000 1.00000000000000000 0.00000000000000000 
1 -1.50000000000000000 -11.00000000000000000 0.00000000000000000 1.00000000000000000 
1 49.00000000000000000 -20.00000000000000000 1.00000000000000000 0.00000000000000000 
1 49.00000000000000000 -11.50000000000000000 0.00000000000000000 1.00000000000000000 
1 11.50000000000000000 0.00000000000000255 1.00000000000000000 -0.00000000000000022 
1 0.00000000000000000 0.00000000000000000 1.00000000000000000 0.00000000000000000 
1 -0.00000000000000022 -1.00000000000000000 1.00000000000000000 0.00000000000000000 
1 1.50000000000000000 11.00000000000000000 -1.00000000000000000 0.00000000000000000 
1 49.00000000000000000 -23.00000000000000000 0.00000000000000000 1.00000000000000000 
1 0.00000000000000000 -0.21213203435596562 1.00000000000000000 0.00000000000000000 
1 49.00000000000000000 -19.69999999999999929 1.00000000000000000 0.00000000000000000 
1 49.00000000000000000 -11.50000000000000000 0.00000000000000000 -1.00000000000000000 
1 11.50000000000000000 0.00000000000000255 -1.00000000000000000 0.00000000000000022 
1 71.00000000000000000 -10.00000000000000000 -0.00000000000000000 1.00000000000000000 
1 -10.00000000000000000 0.00000000000000222 -1.00000000000000000 -0.00000000000000022 
1 0.00000000000000000 -0.21213203435596384 1.00000000000000000 0.00000000000000000 
1 71.00000000000000000 -23.30000000000000071 -1.00000000000000000 -0.00000000000000000 
1 0.00000000000000000 0.00000000000000000 1.00000000000000000 0.00000000000000000 
1 0.00000000000000022 -1.00000000000000000 1.00000000000000000 0.00000000000000000 
1 -1.50000000000000000 -11.00000000000000000 1.00000000000000000 0.00000000000000000 
1 71.00000000000000000 -20.00000000000000000 0.00000000000000000 -1.00000000000000000 
1 71.00000000000000000 -10.00000000000000000 0.00000000000000000 -1.00000000000000000 
1 -10.00000000000000000 0.00000000000000222 1.00000000000000000 0.00000000000000022 
1 22.00000000000000000 0.00000000000000000 0.00000000000000000 -1.00000000000000000 
1 0.00000000000000000 0.00000000000000000 0.00000000000000000 -1.00000000000000000 
1 22.00000000000000000 0.00000000000000126 0.00000000000000000 1.00000000000000000 
1 -0.14999999999999861 -0.14999999999999655 0.70710678118654824 -0.70710678118654691 
1 3.00000000000000000 0.00000000000000000 0.00000000000000000 -1.00000000000000000 
1 0.00000000000000000 0.00000000000000000 0.00000000000000000 -1.00000000000000000 
1 0.00000000000000000 1.06066017177982452 0.00000000000000000 1.00000000000000000 
1 2.39999999999999503 -0.89999999999999603 -0.70710678118654846 -0.70710678118654668 
1 0.00000000000000000 0.21213203435596384 1.00000000000000000 0.00000000000000000 
1 0.00000000000000000 -0.29999999999999560 1.00000000000000000 0.00000000000000000 
1 22.00000000000000000 0.00000000000000110 0.00000000000000000 1.00000000000000000 
1 -0.14999999999999855 -0.14999999999999705 0.70710678118654846 -0.70710678118654668 
1 22.00000000000000000 0.00000000000000000 0.00000000000000000 -1.00000000000000000 
1 0.00000000000000000 0.00000000000000000 0.00000000000000000 -1.00000000000000000 
1 0.00000000000000000 0.00000000000000000 0.00000000000000000 -1.00000000000000000 
1 3.00000000000000000 0.00000000000000000 0.00000000000000000 -1.00000000000000000 
1 0.00000000000000000 1.06066017177982230 0.00000000000000000 1.00000000000000000 
1 2.39999999999999858 -0.89999999999999647 -0.70710678118654824 -0.70710678118654691 
1 0.00000000000000000 0.21213203435596739 1.00000000000000000 0.00000000000000000 
1 0.00000000000000000 -0.29999999999999494 1.00000000000000000 0.00000000000000000 
1 0.00000000000000000 0.00000000000000000 1.00000000000000000 0.00000000000000000 
1 0.00000000000000000 -1.00000000000000000 1.00000000000000000 0.00000000000000000 
1 1.50000000000000000 -11.00000000000000000 0.00000000000000000 1.00000000000000000 
1 71.00000000000000000 -23.00000000000000000 -1.00000000000000000 -0.00000000000000000 
1 0.00000000000000000 0.00000000000000000 1.00000000000000000 0.00000000000000000 
1 0.00000000000000000 -1.00000000000000000 1.00000000000000000 0.00000000000000000 
1 -1.50000000000000000 11.00000000000000000 0.00000000000000000 -1.00000000000000000 
1 49.00000000000000000 -20.00000000000000000 1.00000000000000000 0.00000000000000000 
Curves 60
8 -8.50000000000000000 -8.19999999999999929
1 49.00000000000000000 52.00000000000000000 11.50000000000000000 0.00000000000000000 0.00000000000000000 -1.00000000000000000 
1 -49.00000000000000000 23.00000000000000000 0.00000000000000000 0.00000000000000000 -1.00000000000000000 0.00000000000000000 
1 49.00000000000000000 52.00000000000000000 19.69999999999999929 1.00000000000000000 0.00000000000000000 0.00000000000000000 
8 11.50000000000000000 11.80000000000000071
1 49.00000000000000000 52.00000000000000000 11.50000000000000000 -0.00000000000000000 -0.00000000000000000 1.00000000000000000 
8 -10.00000000000000000 -9.69999999999999929
1 71.00000000000000000 52.00000000000000000 10.00000000000000000 -0.00000000000000000 0.00000000000000000 -1.00000000000000000 
1 71.00000000000000000 52.00000000000000000 23.30000000000000071 -1.00000000000000000 0.00000000000000000 0.00000000000000000 
1 -71.00000000000000000 20.00000000000000000 0.00000000000000000 0.00000000000000000 1.00000000000000000 0.00000000000000000 
8 13.00000000000000000 13.30000000000000071
1 71.00000000000000000 52.00000000000000000 10.00000000000000000 0.00000000000000000 -0.00000000000000000 1.00000000000000000 
8 -10000000.00000000000000000 10000000.00000000000000000
1 -2.00000000000000000 52.00000000000000000 0.00000000000000000 0.00000000000000000 -0.00000000000000000 1.00000000000000000 
8 -9999970.00000000000000000 9999970.00000000000000000
1 30.00000000000000000 52.00000000000000000 -2.00000000000000000 1.00000000000000000 0.00000000000000000 0.00000000000000000 
8 -9999970.00000000000000000 9999970.00000000000000000
1 30.00000000000000000 52.00000000000000000 30.00000000000000000 -1.00000000000000000 0.00000000000000000 0.00000000000000000 
8 -10000000.00000000000000000 10000000.00000000000000000
1 122.00000000000000000 52.00000000000000000 0.00000000000000000 0.00000000000000000 0.00000000000000000 -1.00000000000000000 
1 49.00000000000000000 52.00000000000000711 23.00000000000000000 0.00000000000000000 -1.00000000000000000 0.00000000000000022 
8 -0.21213203435596478 0.21213203435596226
1 49.00000000000000000 51.85000000000000142 23.14999999999999858 0.00000000000000000 -0.70710678118654335 -0.70710678118655168 
1 49.00000000000000000 52.00000000000000711 20.00000000000000000 0.00000000000000000 -1.00000000000000000 0.00000000000000022 
8 -1.27279220613579103 -0.84852813742386402
1 49.00000000000000000 51.10000000000000142 20.60000000000000853 0.00000000000000000 -0.70710678118654335 0.70710678118655168 
1 49.00000000000000000 51.70000000000000284 20.00000000000000000 1.00000000000000000 0.00000000000000000 0.00000000000000000 
8 -0.21213203435596478 0.21213203435596226
1 71.00000000000000000 51.85000000000000142 19.85000000000000142 -0.00000000000000000 -0.70710678118654335 0.70710678118655168 
1 71.00000000000000000 52.00000000000000711 20.00000000000000000 0.00000000000000000 -1.00000000000000000 0.00000000000000022 
1 71.00000000000000000 52.00000000000000711 23.00000000000000000 0.00000000000000000 -1.00000000000000000 0.00000000000000022 
8 -1.27279220613579103 -0.84852813742386402
1 71.00000000000000000 51.10000000000000142 22.39999999999999147 -0.00000000000000000 -0.70710678118654335 -0.70710678118655168 
1 71.00000000000000000 51.70000000000000284 23.00000000000000000 -1.00000000000000000 0.00000000000000000 0.00000000000000000 
8 -9999987.50000000000000000 9999987.50000000000000000
1 -2.00000000000000000 12.50000000000000000 -2.00000000000000000 0.00000000000000000 1.00000000000000000 -0.00000000000000000 
8 -10000000.00000000000000000 10000000.00000000000000000
1 -2.00000000000000000 -2.00000000000000000 0.00000000000000000 -0.00000000000000000 -0.00000000000000000 -1.00000000000000000 
8 -9999987.50000000000000000 9999987.50000000000000000
1 -2.00000000000000000 12.50000000000000000 30.00000000000000000 0.00000000000000000 -1.00000000000000000 0.00000000000000000 
8 -9999970.00000000000000000 9999970.00000000000000000
1 90.00000000000000000 -2.00000000000000000 -2.00000000000000000 -1.00000000000000000 0.00000000000000000 0.00000000000000000 
8 -9999987.50000000000000000 9999987.50000000000000000
1 122.00000000000000000 37.50000000000000000 -2.00000000000000000 0.00000000000000000 -1.00000000000000000 0.00000000000000000 
1 0.00000000000000000 50.00000000000000000 0.00000000000000000 1.00000000000000000 0.00000000000000000 0.00000000000000000 
1 120.00000000000000000 50.00000000000000000 0.00000000000000000 0.00000000000000000 -1.00000000000000000 0.00000000000000000 
1 120.00000000000000000 0.00000000000000000 0.00000000000000000 -1.00000000000000000 0.00000000000000000 0.00000000000000000 
1 0.00000000000000000 0.00000000000000000 0.00000000000000000 0.00000000000000000 1.00000000000000000 0.00000000000000000 
8 -9999970.00000000000000000 9999970.00000000000000000
1 90.00000000000000000 -2.00000000000000000 30.00000000000000000 1.00000000000000000 0.00000000000000000 -0.00000000000000000 
8 -9999987.50000000000000000 9999987.50000000000000000
1 122.00000000000000000 37.50000000000000000 30.00000000000000000 0.00000000000000000 1.00000000000000000 0.00000000000000000 
8 -10000000.00000000000000000 10000000.00000000000000000
1 122.00000000000000000 -2.00000000000000000 0.00000000000000000 0.00000000000000000 0.00000000000000000 -1.00000000000000000 
1 -71.00000000000000000 23.00000000000000000 0.00000000000000000 1.00000000000000000 0.00000000000000000 0.00000000000000000 
1 -49.00000000000000000 20.00000000000000000 0.00000000000000000 -1.00000000000000000 0.00000000000000000 0.00000000000000000 
8 -8.50000000000000000 -8.19999999999999929
1 71.00000000000000000 -2.00000000000000000 11.50000000000000000 -0.00000000000000000 -0.00000000000000000 -1.00000000000000000 
1 71.00000000000000000 23.00000000000000000 0.00000000000000000 0.00000000000000000 -1.00000000000000000 0.00000000000000000 
1 71.00000000000000000 -2.00000000000000000 19.69999999999999929 -1.00000000000000000 0.00000000000000000 0.00000000000000000 
8 11.50000000000000000 11.80000000000000071
1 71.00000000000000000 -2.00000000000000000 11.50000000000000000 0.00000000000000000 0.00000000000000000 1.00000000000000000 
8 -10.00000000000000000 -9.69999999999999929
1 49.00000000000000000 -2.00000000000000000 10.00000000000000000 0.00000000000000000 -0.00000000000000000 -1.00000000000000000 
1 49.00000000000000000 -2.00000000000000000 23.30000000000000071 1.00000000000000000 0.00000000000000000 0.00000000000000000 
1 49.00000000000000000 20.00000000000000000 0.00000000000000000 0.00000000000000000 1.00000000000000000 0.00000000000000000 
8 13.00000000000000000 13.30000000000000071
1 49.00000000000000000 -2.00000000000000000 10.00000000000000000 -0.00000000000000000 0.00000000000000000 1.00000000000000000 
1 0.00000000000000000 50.00000000000000000 0.00000000000000000 0.00000000000000000 0.00000000000000000 1.00000000000000000 
1 120.00000000000000000 50.00000000000000000 0.00000000000000000 0.00000000000000000 0.00000000000000000 1.00000000000000000 
1 120.00000000000000000 0.00000000000000000 0.00000000000000000 0.00000000000000000 0.00000000000000000 1.00000000000000000 
1 0.00000000000000000 0.00000000000000000 0.00000000000000000 0.00000000000000000 0.00000000000000000 1.00000000000000000 
1 71.00000000000000000 -1.99999999999999489 23.00000000000000000 0.00000000000000000 1.00000000000000000 -0.00000000000000022 
8 -0.21213203435596431 0.21213203435596351
1 71.00000000000000000 -1.84999999999999831 23.14999999999999858 -0.00000000000000000 0.70710678118654680 -0.70710678118654835 
1 71.00000000000000000 -1.99999999999999556 20.00000000000000000 0.00000000000000000 1.00000000000000000 -0.00000000000000022 
8 -1.27279220613579036 -0.84852813742386135
1 71.00000000000000000 -1.09999999999999942 20.60000000000000497 0.00000000000000000 0.70710678118654680 0.70710678118654835 
1 71.00000000000000000 -1.69999999999999996 20.00000000000000000 -1.00000000000000000 0.00000000000000000 0.00000000000000000 
8 -0.21213203435596711 0.21213203435596178
1 49.00000000000000000 -1.84999999999999853 19.85000000000000142 -0.00000000000000000 0.70710678118654680 0.70710678118654835 
1 49.00000000000000000 -1.99999999999999556 20.00000000000000000 0.00000000000000000 1.00000000000000000 -0.00000000000000022 
1 49.00000000000000000 -1.99999999999999489 23.00000000000000000 0.00000000000000000 1.00000000000000000 -0.00000000000000022 
8 -1.27279220613578548 -0.84852813742385769
1 49.00000000000000000 -1.09999999999999853 22.39999999999999858 0.00000000000000000 0.70710678118654680 -0.70710678118654835 
1 49.00000000000000000 -1.69999999999999996 23.00000000000000000 1.00000000000000000 0.00000000000000000 0.00000000000000000 
1 49.00000000000000000 23.00000000000000000 0.00000000000000000 1.00000000000000000 0.00000000000000000 0.00000000000000000 
1 71.00000000000000000 20.00000000000000000 0.00000000000000000 -1.00000000000000000 0.00000000000000000 0.00000000000000000 
Polygon3D 0
PolygonOnTriangulations 0
Surfaces 24
1 0.00000000000000000 52.00000000000000000 0.00000000000000000 0.00000000000000000 1.00000000000000000 0.00000000000000000 1.00000000000000000 0.00000000000000000 0.00000000000000000 0.00000000000000000 0.00000000000000000 -1.00000000000000000 
1 49.00000000000000000 52.00000000000000711 23.00000000000000000 1.00000000000000000 0.00000000000000000 0.00000000000000000 0.00000000000000000 -0.00000000000000022 -1.00000000000000000 0.00000000000000000 1.00000000000000000 -0.00000000000000022 
1 60.00000000000000000 52.00000000000000711 21.50000000000000000 0.00000000000000000 1.00000000000000000 0.00000000000000000 0.00000000000000000 -0.00000000000000000 1.00000000000000000 1.00000000000000000 0.00000000000000000 -0.00000000000000000 
1 49.00000000000000000 51.85000000000000142 19.85000000000000142 -0.00000000000000000 0.70710678118655168 0.70710678118654335 1.00000000000000000 0.00000000000000000 0.00000000000000000 -0.00000000000000000 -0.70710678118654335 0.70710678118655168 
1 71.00000000000000000 52.00000000000000711 20.00000000000000000 -1.00000000000000000 0.00000000000000000 0.00000000000000000 0.00000000000000000 0.00000000000000022 1.00000000000000000 0.00000000000000000 1.00000000000000000 -0.00000000000000022 
1 71.00000000000000000 51.85000000000000142 23.14999999999999858 0.00000000000000000 0.70710678118655168 -0.70710678118654335 -1.00000000000000000 0.00000000000000000 -0.00000000000000000 -0.00000000000000000 -0.70710678118654335 -0.70710678118655168 
1 -2.00000000000000000 0.00000000000000000 0.00000000000000000 -1.00000000000000000 0.00000000000000000 0.00000000000000000 0.00000000000000000 1.00000000000000000 0.00000000000000000 0.00000000000000000 0.00000000000000000 -1.00000000000000000 
1 60.00000000000000000 25.00000000000000000 -2.00000000000000000 0.00000000000000000 0.00000000000000000 1.00000000000000000 1.00000000000000000 0.00000000000000000 -0.00000000000000000 -0.00000000000000000 1.00000000000000000 0.00000000000000000 
1 60.00000000000000000 25.00000000000000000 0.00000000000000000 0.00000000000000000 0.00000000000000000 1.00000000000000000 1.00000000000000000 0.00000000000000000 -0.00000000000000000 -0.00000000000000000 1.00000000000000000 0.00000000000000000 
1 122.00000000000000000 50.00000000000000000 0.00000000000000000 1.00000000000000000 0.00000000000000000 -0.00000000000000000 0.00000000000000000 -1.00000000000000000 0.00000000000000000 0.00000000000000000 -0.00000000000000000 -1.00000000000000000 
1 71.00000000000000000 52.00000000000000711 23.00000000000000000 -0.00000000000000000 -0.00000000000000022 -1.00000000000000000 -1.00000000000000000 0.00000000000000000 0.00000000000000000 0.00000000000000000 1.00000000000000000 -0.00000000000000022 
1 49.00000000000000000 52.00000000000000711 20.00000000000000000 -0.00000000000000000 0.00000000000000022 1.00000000000000000 1.00000000000000000 0.00000000000000000 0.00000000000000000 0.00000000000000000 1.00000000000000000 -0.00000000000000022 
1 120.00000000000000000 -2.00000000000000000 0.00000000000000000 0.00000000000000000 -1.00000000000000000 0.00000000000000000 -1.00000000000000000 0.00000000000000000 0.00000000000000000 -0.00000000000000000 -0.00000000000000000 -1.00000000000000000 
1 71.00000000000000000 -1.99999999999999489 23.00000000000000000 -1.00000000000000000 0.00000000000000000 -0.00000000000000000 0.00000000000000000 -0.00000000000000022 -1.00000000000000000 -0.00000000000000000 -1.00000000000000000 0.00000000000000022 
1 60.00000000000000000 -1.99999999999999512 21.50000000000000000 0.00000000000000000 1.00000000000000000 -0.00000000000000022 0.00000000000000000 0.00000000000000022 1.00000000000000000 1.00000000000000000 -0.00000000000000000 0.00000000000000000 
1 71.00000000000000000 -1.85000000000000009 19.85000000000000142 0.00000000000000000 -0.70710678118654835 0.70710678118654680 -1.00000000000000000 0.00000000000000000 0.00000000000000000 0.00000000000000000 0.70710678118654680 0.70710678118654835 
1 49.00000000000000000 -1.99999999999999556 20.00000000000000000 1.00000000000000000 -0.00000000000000000 0.00000000000000000 0.00000000000000000 0.00000000000000022 1.00000000000000000 -0.00000000000000000 -1.00000000000000000 0.00000000000000022 
1 49.00000000000000000 -1.85000000000000009 23.14999999999999858 0.00000000000000000 -0.70710678118654835 -0.70710678118654680 1.00000000000000000 0.00000000000000000 0.00000000000000000 -0.00000000000000000 0.70710678118654680 -0.70710678118654835 
1 0.00000000000000000 50.00000000000000000 0.00000000000000000 0.00000000000000000 1.00000000000000000 0.00000000000000000 1.00000000000000000 0.00000000000000000 0.00000000000000000 0.00000000000000000 0.00000000000000000 -1.00000000000000000 
1 120.00000000000000000 50.00000000000000000 0.00000000000000000 1.00000000000000000 0.00000000000000000 -0.00000000000000000 0.00000000000000000 -1.00000000000000000 0.00000000000000000 0.00000000000000000 -0.00000000000000000 -1.00000000000000000 
1 120.00000000000000000 0.00000000000000000 0.00000000000000000 0.00000000000000000 -1.00000000000000000 0.00000000000000000 -1.00000000000000000 0.00000000000000000 0.00000000000000000 -0.00000000000000000 -0.00000000000000000 -1.00000000000000000 
1 0.00000000000000000 0.00000000000000000 0.00000000000000000 -1.00000000000000000 0.00000000000000000 0.00000000000000000 0.00000000000000000 1.00000000000000000 0.00000000000000000 0.00000000000000000 0.00000000000000000 -1.00000000000000000 
1 49.00000000000000000 -1.99999999999999489 23.00000000000000000 0.00000000000000000 -0.00000000000000022 -1.00000000000000000 1.00000000000000000 0.00000000000000000 0.00000000000000000 0.00000000000000000 -1.00000000000000000 0.00000000000000022 
1 71.00000000000000000 -1.99999999999999556 20.00000000000000000 0.00000000000000000 0.00000000000000022 1.00000000000000000 -1.00000000000000000 0.00000000000000000 0.00000000000000000 0.00000000000000000 -1.00000000000000000 0.00000000000000022 
Triangulations 0

TShapes 151
Ve
0.000000100000007
-49.000000000000000 20.000000000000000 0.000000000000000
0 0

0101101
*
Ve
0.000000100000000
49.000000000000000 52.000000000000000 19.699999999999999
0 0

0101101
*
Ed
 0.000000100000000 1 1 0
1  1 0 -8.500000000000000 -8.199999999999999
2  1 1 11 -8.500000000000000 -8.199999999999999
2  2 2 2 -8.500000000000000 -8.199999999999999
0

0101000
+151 14 -150 0 *
Ve
0.000000100000007
-49.000000000000000 23.000000000000000 0.000000000000000
0 0

0101101
*
Ed
 0.000000100000007 1 1 0
1  2 0 0.000000000000000 3.000000000000000
2  3 2 15 0.000000000000000 3.000000000000000
2  4 2 17 0.000000000000000 3.000000000000000
2  5 3 18 0.000000000000000 3.000000000000000
2  6 1 19 0.000000000000000 3.000000000000000
0

0101000
+148 0 -151 0 *
Ve
0.000000100000000
71.000000000000000 52.000000000000000 19.699999999999999
0 0

0101101
*
Ed
 0.000000100000000 1 1 0
1  3 0 -0.000000000000000 22.000000000000000
2  7 4 0 -0.000000000000000 22.000000000000000
2  8 1 11 -0.000000000000000 22.000000000000000
0

0101000
+150 0 -146 0 *
Ve
0.000000100000000
49.000000000000000 52.000000000000000 23.300000000000001
0 0

0101101
*
Ed
 0.000000100000000 1 1 0
1  4 0 11.500000000000000 11.800000000000001
2  9 1 11 11.500000000000000 11.800000000000001
2  10 2 2 11.500000000000000 11.800000000000001
0

0101000
+148 14 -144 0 *
Ve
0.000000100000007
-71.000000000000000 20.000000000000000 0.000000000000000
0 0

0101101
*
Ed
 0.000000100000000 1 1 0
1  5 0 -10.000000000000000 -9.699999999999999
2  11 1 11 -10.000000000000000 -9.699999999999999
2  12 5 2 -10.000000000000000 -9.699999999999999
0

0101000
+142 14 -146 0 *
Ve
0.000000100000000
71.000000000000000 52.000000000000000 23.300000000000001
0 0

0101101
*
Ed
 0.000000100000000 1 1 0
1  6 0 -0.000000000000000 22.000000000000000
2  13 6 0 -0.000000000000000 22.000000000000000
2  14 1 11 -0.000000000000000 22.000000000000000
0

0101000
+140 0 -144 0 *
Ve
0.000000100000007
-71.000000000000000 23.000000000000000 0.000000000000000
0 0

0101101
*
Ed
 0.000000100000007 1 1 0
1  7 0 0.000000000000000 3.000000000000000
2  15 5 15 0.000000000000000 3.000000000000000
2  16 5 17 0.000000000000000 3.000000000000000
2  17 3 18 0.000000000000000 3.000000000000000
2  18 1 19 0.000000000000000 3.000000000000000
0

0101000
+142 0 -138 0 *
Ed
 0.000000100000000 1 1 0
1  8 0 13.000000000000000 13.300000000000001
2  19 1 11 13.000000000000000 13.300000000000001
2  20 5 2 13.000000000000000 13.300000000000001
0

0101000
+138 14 -140 0 *
Wi

0101100
+149 0 +147 14 +145 0 -143 0 -141 0 +139 0 +137 14 +136 0 *
Ve
0.001000000000000
-2.000000000000000 52.000000000000000 -2.000000000000000
0 0

0101101
*
Ve
0.001000000000000
-2.000000000000000 52.000000000000000 30.000000000000000
0 0

0101101
*
Ed
 0.001000000000000 1 1 0
1  9 0 -2.000000000000000 30.000000000000000
2  21 1 3 -2.000000000000000 30.000000000000000
2  22 7 3 -2.000000000000000 30.000000000000000
0

0101000
+134 0 -133 0 *
Ve
0.001000000000000
122.000000000000000 52.000000000000000 -2.000000000000000
0 0

0101101
*
Ed
 0.001000000000000 1 1 0
1  10 0 -32.000000000000000 92.000000000000000
2  23 1 3 -32.000000000000000 92.000000000000000
2  24 8 22 -32.000000000000000 92.000000000000000
0

0101000
+134 0 -131 0 *
Ve
0.001000000000000
122.000000000000000 52.000000000000000 30.000000000000000
0 0

0101101
*
Ed
 0.001000000000000 1 1 0
1  11 0 -92.000000000000000 32.000000000000000
2  25 9 24 -92.000000000000000 32.000000000000000
2  26 1 3 -92.000000000000000 32.000000000000000
0

0101000
+129 0 -133 0 *
Ed
 0.001000000000000 1 1 0
1  12 0 -30.000000000000000 2.000000000000000
2  27 1 3 -30.000000000000000 2.000000000000000
2  28 10 3 -30.000000000000000 2.000000000000000
0

0101000
+129 0 -131 0 *
Wi

0101100
+132 20 -130 20 -128 20 +127 20 *
Fa
0  0.000000100000000 1 9

0101000
+135 10 +126 0 *
Ve
0.000000100000000
49.000000000000000 51.700000000000003 23.000000000000000
0 0

0101101
*
Ed
 0.000000100000000 1 1 0
1  13 0 0.300000000000004 1.000000000000000
2  29 11 0 0.300000000000004 1.000000000000000
2  30 2 0 0.300000000000004 1.000000000000000
0

0101000
+124 10 -148 25 *
Ed
 0.000000100000000 1 1 0
1  14 0 -0.212132034355965 0.212132034355962
2  31 6 0 -0.212132034355965 0.212132034355962
2  32 2 2 -0.212132034355965 0.212132034355962
0

0101000
+144 0 -124 0 *
Ve
0.000000100000000
49.000000000000000 51.700000000000003 20.000000000000000
0 0

0101101
*
Ed
 0.000000100000000 1 1 0
1  15 0 0.300000000000004 1.000000000000000
2  33 2 0 0.300000000000004 1.000000000000000
2  34 12 0 0.300000000000004 1.000000000000000
0

0101000
+121 10 -151 25 *
Ed
 0.000000100000000 1 1 0
1  16 0 -1.272792206135791 -0.848528137423864
2  35 4 0 -1.272792206135791 -0.848528137423864
2  36 2 2 -1.272792206135791 -0.848528137423864
0

0101000
+150 0 -121 0 *
Wi

0101100
+123 2 +122 0 +147 26 +143 0 -120 2 -147 14 -119 0 -149 0 *
Fa
0  0.000000100000000 2 0

0101000
+118 10 *
Ve
0.000000100000000
71.000000000000000 51.700000000000003 20.000000000000000
0 0

0101101
*
Ed
 0.000000100000000 1 1 0
1  17 0 0.000000000000000 22.000000000000000
2  37 4 0 0.000000000000000 22.000000000000000
2  38 12 2 0.000000000000000 22.000000000000000
0

0101000
+121 0 -116 0 *
Ed
 0.000000100000000 1 1 0
1  18 0 -0.212132034355965 0.212132034355962
2  39 4 0 -0.212132034355965 0.212132034355962
2  40 5 2 -0.212132034355965 0.212132034355962
0

0101000
+146 0 -116 0 *
Wi

0101100
-119 0 +145 0 -115 0 +114 0 *
Fa
0  0.000000000000000 4 0

0101000
+113 0 *
Ed
 0.000000100000000 1 1 0
1  19 0 0.300000000000004 1.000000000000000
2  41 12 0 0.300000000000004 1.000000000000000
2  42 5 0 0.300000000000004 1.000000000000000
0

0101000
+116 10 -142 25 *
Ve
0.000000100000000
71.000000000000000 51.700000000000003 23.000000000000000
0 0

0101101
*
Ed
 0.000000100000000 1 1 0
1  20 0 0.300000000000004 1.000000000000000
2  43 11 0 0.300000000000004 1.000000000000000
2  44 5 0 0.300000000000004 1.000000000000000
0

0101000
+110 10 -138 25 *
Ed
 0.000000100000000 1 1 0
1  21 0 -1.272792206135791 -0.848528137423864
2  45 6 0 -1.272792206135791 -0.848528137423864
2  46 5 2 -1.272792206135791 -0.848528137423864
0

0101000
+140 0 -110 0 *
Wi

0101100
+111 2 +114 0 +137 26 +141 0 -109 2 -137 14 -108 0 -136 0 *
Fa
0  0.000000100000000 5 0

0101000
+107 10 *
Ed
 0.000000100000000 1 1 0
1  22 0 0.000000000000000 22.000000000000000
2  47 6 0 0.000000000000000 22.000000000000000
2  48 11 2 0.000000000000000 22.000000000000000
0

0101000
+110 0 -124 0 *
Wi

0101100
-108 0 +139 0 -105 0 +122 0 *
Fa
0  0.000000000000000 6 0

0101000
+104 0 *
Ve
0.001000000000000
-2.000000000000000 -2.000000000000000 -2.000000000000000
0 0

0101101
*
Ed
 0.001000000000000 1 1 0
1  23 0 -14.500000000000000 39.500000000000000
2  49 7 3 -14.500000000000000 39.500000000000000
2  50 8 22 -14.500000000000000 39.500000000000000
0

0101000
+102 0 -134 0 *
Ve
0.001000000000000
-2.000000000000000 -2.000000000000000 30.000000000000000
0 0

0101101
*
Ed
 0.001000000000000 1 1 0
1  24 0 -30.000000000000000 2.000000000000000
2  51 13 3 -30.000000000000000 2.000000000000000
2  52 7 3 -30.000000000000000 2.000000000000000
0

0101000
+100 0 -102 0 *
Ed
 0.001000000000000 1 1 0
1  25 0 -39.500000000000000 14.500000000000000
2  53 9 24 -39.500000000000000 14.500000000000000
2  54 7 3 -39.500000000000000 14.500000000000000
0

0101000
+133 0 -100 0 *
Wi

0101100
-101 0 -99 0 -98 0 -132 0 *
Fa
0  0.000000100000000 7 0

0101000
+97 27 *
Ve
0.001000000000000
122.000000000000000 -2.000000000000000 -2.000000000000000
0 0

0101101
*
Ed
 0.001000000000000 1 1 0
1  26 0 -32.000000000000000 92.000000000000000
2  55 13 3 -32.000000000000000 92.000000000000000
2  56 8 22 -32.000000000000000 92.000000000000000
0

0101000
+95 0 -102 0 *
Ed
 0.001000000000000 1 1 0
1  27 0 -14.500000000000000 39.500000000000000
2  57 10 3 -14.500000000000000 39.500000000000000
2  58 8 22 -14.500000000000000 39.500000000000000
0

0101000
+131 0 -95 0 *
Wi

0101100
-130 0 -101 0 -94 0 -93 0 *
Fa
0  0.000000100000000 8 0

0101000
+92 29 *
Ve
0.001000000000000
0.000000000000000 50.000000000000000 0.000000000000000
0 0

0101101
*
Ve
0.001000000000000
120.000000000000000 50.000000000000000 0.000000000000000
0 0

0101101
*
Ed
 0.001000000000000 1 1 0
1  28 0 0.000000000000000 120.000000000000000
0

0101000
+90 0 -89 0 *
Ve
0.001000000000000
120.000000000000000 0.000000000000000 0.000000000000000
0 0

0101101
*
Ed
 0.001000000000000 1 1 0
1  29 0 0.000000000000000 50.000000000000000
0

0101000
+89 0 -87 0 *
Ve
0.001000000000000
0.000000000000000 0.000000000000000 0.000000000000000
0 0

0101101
*
Ed
 0.001000000000000 1 1 0
1  30 0 0.000000000000000 120.000000000000000
0

0101000
+87 0 -85 0 *
Ed
 0.001000000000000 1 1 0
1  31 0 0.000000000000000 50.000000000000000
0

0101000
+85 0 -90 0 *
Wi

0101100
+88 34 +86 34 +84 34 +83 34 *
Ve
0.001000000000000
122.000000000000000 -2.000000000000000 30.000000000000000
0 0

0101101
*
Ed
 0.001000000000000 1 1 0
1  32 0 -92.000000000000000 32.000000000000000
2  59 9 24 -92.000000000000000 32.000000000000000
2  60 13 3 -92.000000000000000 32.000000000000000
0

0101000
+100 0 -81 0 *
Ed
 0.001000000000000 1 1 0
1  33 0 -39.500000000000000 14.500000000000000
2  61 9 24 -39.500000000000000 14.500000000000000
2  62 10 3 -39.500000000000000 14.500000000000000
0

0101000
+81 0 -129 0 *
Wi

0101100
+128 0 +98 0 +80 0 +79 0 *
Fa
0  0.000000100000000 9 0

0101000
+82 31 +78 31 *
Ed
 0.001000000000000 1 1 0
1  34 0 -30.000000000000000 2.000000000000000
2  63 10 3 -30.000000000000000 2.000000000000000
2  64 13 3 -30.000000000000000 2.000000000000000
0

0101000
+81 0 -95 0 *
Wi

0101100
+76 0 -93 0 -127 0 -79 0 *
Fa
0  0.000000100000000 10 0

0101000
+75 27 *
Ed
 0.000000100000007 1 1 0
1  35 0 0.000000000000000 22.000000000000000
2  65 11 15 0.000000000000000 22.000000000000000
2  66 11 17 0.000000000000000 22.000000000000000
2  67 3 18 0.000000000000000 22.000000000000000
2  68 1 19 0.000000000000000 22.000000000000000
0

0101000
+138 0 -148 0 *
Wi

0101100
+109 2 -105 0 +73 26 -123 2 *
Fa
0  0.000000100000000 11 0

0101000
+72 10 *
Ed
 0.000000100000007 1 1 0
1  36 0 0.000000000000000 22.000000000000000
2  69 12 15 0.000000000000000 22.000000000000000
2  70 12 17 0.000000000000000 22.000000000000000
2  71 3 18 0.000000000000000 22.000000000000000
2  72 1 19 0.000000000000000 22.000000000000000
0

0101000
+151 0 -142 0 *
Wi

0101100
+73 0 +147 0 +70 0 +137 0 *
Fa
0  0.000000100000000 3 0

0101000
-69 36 *
Wi

0101100
+120 2 -115 0 +70 26 -111 2 *
Fa
0  0.000000100000000 12 0

0101000
+67 10 *
Ve
0.000000100000005
71.000000000000000 20.000000000000000 0.000000000000000
0 0

0101101
*
Ve
0.000000100000000
71.000000000000000 -2.000000000000000 19.699999999999999
0 0

0101101
*
Ed
 0.000000100000000 1 1 0
1  37 0 -8.500000000000000 -8.199999999999999
2  73 13 40 -8.500000000000000 -8.199999999999999
2  74 14 6 -8.500000000000000 -8.199999999999999
0

0101000
+65 43 -64 0 *
Ve
0.000000100000005
71.000000000000000 23.000000000000000 0.000000000000000
0 0

0101101
*
Ed
 0.000000100000005 1 1 0
1  38 0 0.000000000000000 3.000000000000000
2  75 14 44 0.000000000000000 3.000000000000000
2  76 14 46 0.000000000000000 3.000000000000000
2  77 15 47 0.000000000000000 3.000000000000000
2  78 13 48 0.000000000000000 3.000000000000000
0

0101000
+62 0 -65 0 *
Ve
0.000000100000000
49.000000000000000 -2.000000000000000 19.699999999999999
0 0

0101101
*
Ed
 0.000000100000000 1 1 0
1  39 0 -0.000000000000000 22.000000000000000
2  79 16 0 -0.000000000000000 22.000000000000000
2  80 13 40 -0.000000000000000 22.000000000000000
0

0101000
+64 0 -60 0 *
Ve
0.000000100000000
71.000000000000000 -2.000000000000000 23.300000000000001
0 0

0101101
*
Ed
 0.000000100000000 1 1 0
1  40 0 11.500000000000000 11.800000000000001
2  81 13 40 11.500000000000000 11.800000000000001
2  82 14 6 11.500000000000000 11.800000000000001
0

0101000
+62 43 -58 0 *
Ve
0.000000100000005
49.000000000000000 20.000000000000000 0.000000000000000
0 0

0101101
*
Ed
 0.000000100000000 1 1 0
1  41 0 -10.000000000000000 -9.699999999999999
2  83 13 40 -10.000000000000000 -9.699999999999999
2  84 17 6 -10.000000000000000 -9.699999999999999
0

0101000
+56 43 -60 0 *
Ve
0.000000100000000
49.000000000000000 -2.000000000000000 23.300000000000001
0 0

0101101
*
Ed
 0.000000100000000 1 1 0
1  42 0 -0.000000000000000 22.000000000000000
2  85 18 0 -0.000000000000000 22.000000000000000
2  86 13 40 -0.000000000000000 22.000000000000000
0

0101000
+54 0 -58 0 *
Ve
0.000000100000005
49.000000000000000 23.000000000000000 0.000000000000000
0 0

0101101
*
Ed
 0.000000100000005 1 1 0
1  43 0 0.000000000000000 3.000000000000000
2  87 17 44 0.000000000000000 3.000000000000000
2  88 17 46 0.000000000000000 3.000000000000000
2  89 15 47 0.000000000000000 3.000000000000000
2  90 13 48 0.000000000000000 3.000000000000000
0

0101000
+56 0 -52 0 *
Ed
 0.000000100000000 1 1 0
1  44 0 13.000000000000000 13.300000000000001
2  91 13 40 13.000000000000000 13.300000000000001
2  92 17 6 13.000000000000000 13.300000000000001
0

0101000
+52 43 -54 0 *
Wi

0101100
+63 0 +61 43 +59 0 -57 0 -55 0 +53 0 +51 43 +50 0 *
Wi

0101100
+99 49 -80 49 -94 49 -76 49 *
Fa
0  0.000000100000000 13 38

0101000
+49 39 +48 0 *
Ed
 0.000000100000000 1 1 0
1  45 0 0.000000000000000 30.000000000000000
0

0101000
+90 50 -90 51 *
Ed
 0.000000100000000 1 1 0
1  46 0 0.000000000000000 30.000000000000000
0

0101000
+89 50 -89 51 *
Wi

0101100
+46 0 -45 0 -88 50 +88 51 *
Fa
0  0.000000100000000 19 0

0101000
+44 0 *
Ed
 0.000000100000000 1 1 0
1  47 0 0.000000000000000 30.000000000000000
0

0101000
+87 50 -87 51 *
Wi

0101100
+45 0 -42 0 -86 50 +86 51 *
Fa
0  0.000000100000000 20 0

0101000
+41 0 *
Ed
 0.000000100000000 1 1 0
1  48 0 0.000000000000000 30.000000000000000
0

0101000
+85 50 -85 51 *
Wi

0101100
+42 0 -39 0 -84 50 +84 51 *
Fa
0  0.000000100000000 21 0

0101000
+38 0 *
Wi

0101100
+39 0 -46 0 -83 50 +83 51 *
Fa
0  0.000000100000000 22 0

0101000
+36 0 *
Ve
0.000000100000000
71.000000000000000 -1.699999999999998 22.999999999999996
0 0

0101101
*
Ed
 0.000000100000000 1 1 0
1  49 0 0.299999999999997 1.000000000000000
2  93 23 0 0.299999999999997 1.000000000000000
2  94 14 0 0.299999999999997 1.000000000000000
0

0101000
+34 39 -62 52 *
Ed
 0.000000100000000 1 1 0
1  50 0 -0.212132034355964 0.212132034355964
2  95 18 0 -0.212132034355964 0.212132034355964
2  96 14 6 -0.212132034355964 0.212132034355964
0

0101000
+58 0 -34 0 *
Ve
0.000000100000000
71.000000000000000 -1.700000000000001 20.000000000000000
0 0

0101101
*
Ed
 0.000000100000000 1 1 0
1  51 0 0.299999999999995 1.000000000000000
2  97 14 0 0.299999999999995 1.000000000000000
2  98 24 0 0.299999999999995 1.000000000000000
0

0101000
+31 39 -65 52 *
Ed
 0.000000100000000 1 1 0
1  52 0 -1.272792206135790 -0.848528137423861
2  99 16 0 -1.272792206135790 -0.848528137423861
2  100 14 6 -1.272792206135790 -0.848528137423861
0

0101000
+64 0 -31 0 *
Wi

0101100
+33 6 +32 0 +61 53 +57 0 -30 6 -61 43 -29 0 -63 0 *
Fa
0  0.000000100000000 14 0

0101000
+28 39 *
Ve
0.000000100000000
49.000000000000000 -1.700000000000001 20.000000000000000
0 0

0101101
*
Ed
 0.000000100000000 1 1 0
1  53 0 0.000000000000000 22.000000000000000
2  101 16 0 0.000000000000000 22.000000000000000
2  102 24 6 0.000000000000000 22.000000000000000
0

0101000
+31 0 -26 0 *
Ed
 0.000000100000000 1 1 0
1  54 0 -0.212132034355967 0.212132034355962
2  103 16 0 -0.212132034355967 0.212132034355962
2  104 17 6 -0.212132034355967 0.212132034355962
0

0101000
+60 0 -26 0 *
Wi

0101100
-29 0 +59 0 -25 0 +24 0 *
Fa
0  0.000000000000000 16 0

0101000
+23 0 *
Ed
 0.000000100000000 1 1 0
1  55 0 0.299999999999995 1.000000000000000
2  105 24 0 0.299999999999995 1.000000000000000
2  106 17 0 0.299999999999995 1.000000000000000
0

0101000
+26 39 -56 52 *
Ve
0.000000100000000
49.000000000000000 -1.699999999999998 22.999999999999996
0 0

0101101
*
Ed
 0.000000100000000 1 1 0
1  56 0 0.299999999999997 1.000000000000000
2  107 23 0 0.299999999999997 1.000000000000000
2  108 17 0 0.299999999999997 1.000000000000000
0

0101000
+20 39 -52 52 *
Ed
 0.000000100000000 1 1 0
1  57 0 -1.272792206135785 -0.848528137423858
2  109 18 0 -1.272792206135785 -0.848528137423858
2  110 17 6 -1.272792206135785 -0.848528137423858
0

0101000
+54 0 -20 0 *
Wi

0101100
+21 6 +24 0 +51 53 +55 0 -19 6 -51 43 -18 0 -50 0 *
Fa
0  0.000000100000000 17 0

0101000
+17 39 *
Ed
 0.000000100000000 1 1 0
1  58 0 0.000000000000000 22.000000000000000
2  111 18 0 0.000000000000000 22.000000000000000
2  112 23 6 0.000000000000000 22.000000000000000
0

0101000
+20 0 -34 0 *
Wi

0101100
-18 0 +53 0 -15 0 +32 0 *
Fa
0  0.000000000000000 18 0

0101000
+14 0 *
Wi

0101100
+88 0 +86 0 +84 0 +83 0 *
Fa
0  0.000000100000000 9 0

0101000
-12 55 *
Ed
 0.000000100000005 1 1 0
1  59 0 0.000000000000000 22.000000000000000
2  113 23 44 0.000000000000000 22.000000000000000
2  114 23 46 0.000000000000000 22.000000000000000
2  115 15 47 0.000000000000000 22.000000000000000
2  116 13 48 0.000000000000000 22.000000000000000
0

0101000
+52 0 -62 0 *
Wi

0101100
+19 6 -15 0 +10 53 -33 6 *
Fa
0  0.000000100000000 23 0

0101000
+9 39 *
Ed
 0.000000100000004 1 1 0
1  60 0 0.000000000000000 22.000000000000000
2  117 24 44 0.000000000000000 22.000000000000000
2  118 24 46 0.000000000000000 22.000000000000000
2  119 15 47 0.000000000000000 22.000000000000000
2  120 13 48 0.000000000000000 22.000000000000000
0

0101000
+65 0 -56 0 *
Wi

0101100
+10 0 +61 0 +7 0 +51 0 *
Fa
0  0.000000100000000 15 0

0101000
+6 57 *
Wi

0101100
+30 6 -25 0 +7 53 -21 6 *
Fa
0  0.000000100000000 24 0

0101000
+4 39 *
Sh

0101100
+125 2 +117 2 -112 0 +106 2 -103 0 +96 11 -91 28 +77 30 +74 11 +71 2 
+68 35 +66 2 +47 37 -43 11 -40 11 -37 11 -35 11 +27 37 -22 54 +16 37 
-13 54 +11 28 +8 37 -5 56 +3 37 *
So

0100000
+2 0 *

+1 1 