
CASCADE Topology V1, (c) Matra-Datavision
Locations 85
1
1.000000000000000 0.000000000000000 0.000000000000000 0.000000000000000 
0.000000000000000 1.000000000000000 0.000000000000000 0.000000000000000 
0.000000000000000 0.000000000000000 1.000000000000000 0.000000000000000 
1
1.000000000000000 0.000000000000000 0.000000000000000 0.000000000000000 
0.000000000000000 1.000000000000000 0.000000000000000 0.000000000000000 
0.000000000000000 0.000000000000000 1.000000000000000 0.000000000000000 
2  2 -1 0
1
1.000000000000000 0.000000000000000 0.000000000000000 0.000000000000000 
0.000000000000000 1.000000000000000 0.000000000000000 0.000000000000000 
0.000000000000000 0.000000000000000 1.000000000000000 0.000000000000000 
1
-1.000000000000000 0.000000000000000 0.000000000000000 0.000000000000000 
0.000000000000000 0.000000000000000 1.000000000000000 0.000000000000000 
0.000000000000000 1.000000000000000 -0.000000000000000 0.000000000000000 
1
1.000000000000000 0.000000000000000 0.000000000000000 0.000000000000000 
0.000000000000000 1.000000000000000 0.000000000000000 0.000000000000000 
0.000000000000000 0.000000000000000 1.000000000000000 0.000000000000000 
2  4 1 5 1 6 -1 0
2  4 1 5 1 6 -1 2 1 0
2  6 1 5 -1 4 -1 0
1
1.000000000000000 0.000000000000000 0.000000000000000 0.000000000000000 
0.000000000000000 1.000000000000000 0.000000000000000 1.000000000000000 
0.000000000000000 0.000000000000000 1.000000000000000 -0.000000000000000 
2  10 -1 6 1 5 -1 4 -1 0
2  5 -1 4 -1 0
1
1.000000000000000 0.000000000000000 0.000000000000000 0.000000000000000 
0.000000000000000 1.000000000000000 0.000000000000000 0.000000000000000 
0.000000000000000 0.000000000000000 1.000000000000000 0.000000000000000 
1
1.000000000000000 0.000000000000000 0.000000000000000 0.000000000000000 
0.000000000000000 1.000000000000000 0.000000000000000 0.000000000000000 
0.000000000000000 0.000000000000000 1.000000000000000 0.000000000000000 
1
1.000000000000000 0.000000000000000 0.000000000000000 0.000000000000000 
0.000000000000000 1.000000000000000 0.000000000000000 0.000000000000000 
0.000000000000000 0.000000000000000 1.000000000000000 0.000000000000000 
1
1.000000000000000 0.000000000000000 0.000000000000000 0.000000000000000 
0.000000000000000 1.000000000000000 0.000000000000000 0.000000000000000 
0.000000000000000 0.000000000000000 1.000000000000000 0.000000000000000 
2  13 1 14 -1 15 1 16 1 5 -1 4 -1 0
2  4 1 5 1 6 -1 10 1 2 1 0
2  2 -1 10 -1 6 1 5 -1 4 -1 0
2  6 -1 10 1 2 1 0
2  13 1 14 -1 15 1 16 1 6 -1 0
1
1.000000000000000 0.000000000000000 0.000000000000000 0.000000000000000 
0.000000000000000 1.000000000000000 0.000000000000000 0.000000000000000 
0.000000000000000 0.000000000000000 1.000000000000000 0.000000000000000 
1
1.000000000000000 0.000000000000000 0.000000000000000 0.000000000000000 
0.000000000000000 1.000000000000000 0.000000000000000 0.000000000000000 
0.000000000000000 0.000000000000000 1.000000000000000 0.000000000000000 
1
1.000000000000000 0.000000000000000 0.000000000000000 0.000000000000000 
0.000000000000000 1.000000000000000 0.000000000000000 0.000000000000000 
0.000000000000000 0.000000000000000 1.000000000000000 0.000000000000000 
1
1.000000000000000 0.000000000000000 0.000000000000000 0.000000000000000 
0.000000000000000 1.000000000000000 0.000000000000000 0.000000000000000 
0.000000000000000 0.000000000000000 1.000000000000000 10.000000000000000 
2  22 1 23 1 24 -1 25 1 0
2  22 1 23 1 24 -1 25 1 13 1 14 -1 15 1 16 1 6 -1 0
2  24 1 23 -1 22 -1 0
2  25 -1 24 1 23 -1 22 -1 0
2  23 -1 22 -1 0
1
1.000000000000000 0.000000000000000 0.000000000000000 0.000000000000000 
0.000000000000000 1.000000000000000 0.000000000000000 0.000000000000000 
0.000000000000000 0.000000000000000 1.000000000000000 0.000000000000000 
2  31 1 23 -1 22 -1 0
2  4 1 5 1 16 -1 15 -1 14 1 13 -1 25 -1 24 1 23 -1 22 -1 0
1
1.000000000000000 0.000000000000000 0.000000000000000 0.000000000000000 
0.000000000000000 1.000000000000000 0.000000000000000 0.000000000000000 
0.000000000000000 0.000000000000000 1.000000000000000 0.000000000000000 
1
1.000000000000000 0.000000000000000 0.000000000000000 0.000000000000000 
0.000000000000000 1.000000000000000 0.000000000000000 0.000000000000000 
0.000000000000000 0.000000000000000 1.000000000000000 0.000000000000000 
1
1.000000000000000 0.000000000000000 0.000000000000000 0.000000000000000 
0.000000000000000 1.000000000000000 0.000000000000000 0.000000000000000 
0.000000000000000 0.000000000000000 1.000000000000000 0.000000000000000 
1
1.000000000000000 0.000000000000000 0.000000000000000 0.000000000000000 
0.000000000000000 1.000000000000000 0.000000000000000 0.000000000000000 
0.000000000000000 0.000000000000000 1.000000000000000 2.000000000000000 
2  34 1 35 1 36 -1 37 1 31 1 24 -1 13 1 14 -1 15 1 16 1 6 -1 0
1
1.000000000000000 0.000000000000000 0.000000000000000 0.000000000000000 
0.000000000000000 1.000000000000000 0.000000000000000 0.000000000000000 
0.000000000000000 0.000000000000000 1.000000000000000 0.000000000000000 
1
1.000000000000000 0.000000000000000 0.000000000000000 0.000000000000000 
0.000000000000000 1.000000000000000 0.000000000000000 0.000000000000000 
0.000000000000000 0.000000000000000 1.000000000000000 0.000000000000000 
2  39 1 40 -1 34 -1 0
1
1.000000000000000 0.000000000000000 0.000000000000000 0.000000000000000 
0.000000000000000 1.000000000000000 0.000000000000000 0.000000000000000 
0.000000000000000 0.000000000000000 1.000000000000000 2.000000000000000 
2  42 -1 39 1 40 -1 34 -1 0
2  40 -1 34 -1 0
2  36 1 35 -1 34 -1 0
2  37 -1 36 1 35 -1 34 -1 0
2  35 -1 34 -1 0
2  24 1 31 -1 37 -1 36 1 35 -1 34 -1 0
2  2 -1 10 -1 6 1 0
2  13 1 14 -1 15 1 16 1 6 -1 2 1 0
2  31 1 24 -1 0
2  22 1 23 1 24 -1 0
2  24 -1 25 1 13 1 14 -1 15 1 16 1 6 -1 0
2  36 -1 37 1 31 1 24 -1 0
2  34 1 35 1 36 -1 37 1 31 1 24 -1 0
2  34 1 35 1 36 -1 31 1 24 -1 0
2  22 1 23 1 31 -1 36 1 35 -1 34 -1 0
2  34 1 35 1 36 -1 0
2  34 1 35 1 36 -1 37 1 0
2  24 -1 13 1 14 -1 15 1 16 1 6 -1 2 1 0
2  22 1 23 1 0
2  15 1 16 1 6 -1 2 1 0
2  13 1 14 -1 0
2  22 1 23 1 24 -1 25 1 13 1 14 -1 0
1
1.000000000000000 0.000000000000000 0.000000000000000 0.000000000000000 
0.000000000000000 1.000000000000000 0.000000000000000 0.000000000000000 
0.000000000000000 0.000000000000000 1.000000000000000 0.000000000000000 
1
1.000000000000000 0.000000000000000 0.000000000000000 0.000000000000000 
0.000000000000000 0.000000000000000 -1.000000000000000 54.000000000000000 
0.000000000000000 1.000000000000000 0.000000000000000 0.000000000000000 
2  65 1 66 1 13 -1 25 -1 24 1 23 -1 22 -1 0
2  65 1 66 1 14 -1 0
2  14 1 66 -1 65 -1 0
1
1.000000000000000 0.000000000000000 0.000000000000000 0.000000000000000 
0.000000000000000 1.000000000000000 0.000000000000000 -1.000000000000000 
0.000000000000000 0.000000000000000 1.000000000000000 0.000000000000000 
2  70 -1 14 1 66 -1 65 -1 0
2  66 -1 65 -1 0
2  13 1 66 -1 65 -1 0
2  34 1 35 1 36 -1 37 1 31 1 24 -1 13 1 14 -1 0
2  31 1 24 -1 13 1 14 -1 15 1 16 1 6 -1 2 1 0
2  36 -1 31 1 24 -1 0
2  24 -1 25 1 13 1 14 -1 0
2  15 -1 0
2  65 1 66 1 14 -1 15 1 0
2  65 1 66 1 14 -1 70 1 15 1 0
2  15 -1 70 -1 14 1 66 -1 65 -1 0
2  16 1 6 -1 2 1 0
2  14 -1 70 1 15 1 0
2  14 -1 70 1 15 1 16 1 6 -1 2 1 0
2  15 -1 70 -1 14 1 0
Curve2ds 138
1 0.00000000000000000 0.00000000000000000 0.00000000000000000 -1.00000000000000000 
1 20.00000000000000000 0.00000000000000000 0.00000000000000000 -1.00000000000000000 
1 20.00000000000000000 -0.35355339059327401 0.00000000000000000 1.00000000000000000 
1 -0.09999999999999951 -0.59999999999999942 0.70710678118654746 -0.70710678118654768 
1 0.00000000000000000 0.00000000000000000 1.00000000000000000 0.00000000000000000 
1 0.00000000000000022 -1.00000000000000000 1.00000000000000000 0.00000000000000000 
1 -1.50000000000000000 10.00000000000000000 1.00000000000000000 0.00000000000000000 
1 25.00000000000000000 -7.00000000000000000 0.00000000000000000 -1.00000000000000000 
1 0.00000000000000000 0.00000000000000000 0.00000000000000000 -1.00000000000000000 
1 3.00000000000000000 0.00000000000000000 0.00000000000000000 -1.00000000000000000 
1 0.00000000000000000 0.70710678118654924 0.00000000000000000 1.00000000000000000 
1 2.34999999999999831 -1.35000000000000075 -0.70710678118654824 -0.70710678118654691 
1 3.00000000000000000 0.00000000000000000 0.00000000000000000 -1.00000000000000000 
1 0.00000000000000000 0.00000000000000000 0.00000000000000000 -1.00000000000000000 
1 0.00000000000000000 -0.21213203435596473 1.00000000000000000 0.00000000000000000 
1 0.00000000000000000 -0.69999999999999973 1.00000000000000000 0.00000000000000000 
1 -1.50000000000000000 -10.00000000000000000 0.00000000000000000 1.00000000000000000 
1 0.00000000000000000 0.00000000000000000 1.00000000000000000 0.00000000000000000 
1 0.00000000000000000 -1.00000000000000000 1.00000000000000000 0.00000000000000000 
1 5.00000000000000000 -7.00000000000000000 1.00000000000000000 0.00000000000000000 
1 -0.00000000000000000 0.70710678118654746 0.00000000000000000 1.00000000000000000 
1 2.34999999999999920 -1.34999999999999942 -0.70710678118654746 -0.70710678118654768 
1 0.00000000000000000 0.21213203435596384 1.00000000000000000 0.00000000000000000 
1 -1.20000000000000018 -10.00000000000000000 0.00000000000000000 1.00000000000000000 
1 30.00000000000000000 0.00000000000000000 0.00000000000000000 -1.00000000000000000 
1 0.00000000000000000 0.00000000000000000 0.00000000000000000 -1.00000000000000000 
1 0.00000000000000000 0.00000000000000000 1.00000000000000000 0.00000000000000000 
1 0.00000000000000000 -10.00000000000000000 1.00000000000000000 0.00000000000000000 
1 -15.00000000000000000 -27.00000000000000000 1.00000000000000000 0.00000000000000000 
1 79.00000000000000000 0.00000000000000000 -1.00000000000000000 -0.00000000000000000 
1 0.00000000000000000 0.00000000000000000 1.00000000000000000 0.00000000000000000 
1 -0.00000000000000022 -1.00000000000000000 1.00000000000000000 0.00000000000000000 
1 1.50000000000000000 -10.00000000000000000 -1.00000000000000000 0.00000000000000000 
1 5.00000000000000000 -10.00000000000000000 0.00000000000000000 1.00000000000000000 
1 0.00000000000000000 0.00000000000000000 0.00000000000000000 -1.00000000000000000 
1 2.00000000000000000 0.00000000000000000 0.00000000000000000 -1.00000000000000000 
1 0.00000000000000000 -0.00000000000000000 1.00000000000000000 0.00000000000000000 
1 0.00000000000000000 -2.00000000000000000 1.00000000000000000 0.00000000000000000 
1 62.00000000000000000 -27.00000000000000000 -1.00000000000000000 0.00000000000000000 
1 0.00000000000000000 -0.00000000000000000 1.00000000000000000 0.00000000000000000 
1 0.00000000000000000 -2.00000000000000000 1.00000000000000000 0.00000000000000000 
1 62.00000000000000000 -27.00000000000000000 -1.00000000000000000 0.00000000000000000 
1 79.00000000000000000 -2.00000000000000000 -1.00000000000000000 0.00000000000000000 
1 0.00000000000000000 0.21213203435596384 1.00000000000000000 0.00000000000000000 
1 1.19999999999999929 10.00000000000000000 0.00000000000000000 -1.00000000000000000 
1 0.00000000000000000 -0.21213203435596473 1.00000000000000000 0.00000000000000000 
1 0.00000000000000000 -0.69999999999999996 1.00000000000000000 0.00000000000000000 
1 0.00000000000000000 0.00000000000000000 1.00000000000000000 0.00000000000000000 
1 0.00000000000000000 -1.00000000000000000 1.00000000000000000 0.00000000000000000 
1 1.50000000000000000 10.00000000000000000 0.00000000000000000 -1.00000000000000000 
1 25.00000000000000000 -10.00000000000000000 -1.00000000000000000 0.00000000000000000 
1 20.00000000000000000 0.00000000000000000 0.00000000000000000 -1.00000000000000000 
1 0.00000000000000000 0.00000000000000000 0.00000000000000000 -1.00000000000000000 
1 20.00000000000000000 -0.35355339059327362 0.00000000000000000 1.00000000000000000 
1 -0.09999999999999978 -0.60000000000000020 0.70710678118654824 -0.70710678118654691 
1 49.00000000000000000 0.00000000000000000 0.00000000000000000 -1.00000000000000000 
1 2.00000000000000000 0.00000000000000000 0.00000000000000000 -1.00000000000000000 
1 0.00000000000000000 0.00000000000000000 1.00000000000000000 0.00000000000000000 
1 0.00000000000000000 -10.00000000000000000 1.00000000000000000 0.00000000000000000 
1 15.00000000000000000 -27.00000000000000000 0.00000000000000000 -1.00000000000000000 
1 15.00000000000000000 -29.00000000000000000 -1.00000000000000000 0.00000000000000000 
1 0.00000000000000000 0.00000000000000000 1.00000000000000000 0.00000000000000000 
1 0.00000000000000000 -10.00000000000000000 1.00000000000000000 0.00000000000000000 
1 -15.00000000000000000 -29.00000000000000000 0.00000000000000000 1.00000000000000000 
1 0.00000000000000000 0.00000000000000000 0.00000000000000000 -1.00000000000000000 
1 79.00000000000000000 0.00000000000000000 0.00000000000000000 -1.00000000000000000 
1 -62.00000000000000000 27.00000000000000000 1.00000000000000000 0.00000000000000000 
1 -62.00000000000000000 27.00000000000000000 1.00000000000000000 0.00000000000000000 
1 0.00000000000000000 0.00000000000000000 1.00000000000000000 0.00000000000000000 
1 0.00000000000000000 -2.00000000000000000 1.00000000000000000 0.00000000000000000 
1 75.00000000000000000 -2.00000000000000000 -1.00000000000000000 -0.00000000000000000 
1 62.00000000000000000 27.00000000000000000 0.00000000000000000 -1.00000000000000000 
1 62.00000000000000000 27.00000000000000000 0.00000000000000000 -1.00000000000000000 
1 -62.00000000000000000 -27.00000000000000000 0.00000000000000000 1.00000000000000000 
1 -62.00000000000000000 -27.00000000000000000 0.00000000000000000 1.00000000000000000 
1 0.00000000000000000 -0.00000000000000000 0.00000000000000000 -1.00000000000000000 
1 124.00000000000000000 0.00000000000000000 0.00000000000000000 -1.00000000000000000 
1 30.00000000000000000 0.00000000000000000 0.00000000000000000 -1.00000000000000000 
1 0.00000000000000000 0.00000000000000000 0.00000000000000000 -1.00000000000000000 
1 45.00000000000000000 0.00000000000000000 0.00000000000000000 -1.00000000000000000 
1 0.00000000000000000 0.00000000000000000 0.00000000000000000 -1.00000000000000000 
1 0.00000000000000000 -0.00000000000000000 1.00000000000000000 0.00000000000000000 
1 0.00000000000000000 -10.00000000000000000 1.00000000000000000 0.00000000000000000 
1 15.00000000000000000 27.00000000000000000 -1.00000000000000000 0.00000000000000000 
1 75.00000000000000000 0.00000000000000000 -1.00000000000000000 0.00000000000000000 
1 0.00000000000000000 0.00000000000000000 1.00000000000000000 0.00000000000000000 
1 -0.00000000000000022 -1.00000000000000000 1.00000000000000000 0.00000000000000000 
1 -1.50000000000000000 -10.00000000000000000 1.00000000000000000 0.00000000000000000 
1 25.00000000000000000 -7.00000000000000000 0.00000000000000000 -1.00000000000000000 
1 -1.50000000000000000 10.00000000000000000 0.00000000000000000 -1.00000000000000000 
1 0.00000000000000000 0.00000000000000000 1.00000000000000000 0.00000000000000000 
1 0.00000000000000000 -1.00000000000000000 1.00000000000000000 0.00000000000000000 
1 5.00000000000000000 -7.00000000000000000 1.00000000000000000 0.00000000000000000 
1 0.00000000000000000 0.00000000000000000 1.00000000000000000 0.00000000000000000 
1 0.00000000000000022 -1.00000000000000000 1.00000000000000000 0.00000000000000000 
1 1.50000000000000000 10.00000000000000000 -1.00000000000000000 0.00000000000000000 
1 5.00000000000000000 -10.00000000000000000 0.00000000000000000 1.00000000000000000 
1 2.00000000000000000 0.00000000000000000 0.00000000000000000 -1.00000000000000000 
1 0.00000000000000000 -0.00000000000000000 0.00000000000000000 -1.00000000000000000 
1 124.00000000000000000 0.00000000000000000 0.00000000000000000 -1.00000000000000000 
1 75.00000000000000000 0.00000000000000000 0.00000000000000000 -1.00000000000000000 
1 2.00000000000000000 0.00000000000000000 0.00000000000000000 -1.00000000000000000 
1 0.00000000000000000 0.00000000000000000 1.00000000000000000 0.00000000000000000 
1 0.00000000000000000 -10.00000000000000000 1.00000000000000000 0.00000000000000000 
1 -15.00000000000000000 27.00000000000000000 0.00000000000000000 1.00000000000000000 
1 -15.00000000000000000 29.00000000000000000 1.00000000000000000 0.00000000000000000 
1 0.00000000000000000 0.00000000000000000 1.00000000000000000 0.00000000000000000 
1 0.00000000000000000 -10.00000000000000000 1.00000000000000000 0.00000000000000000 
1 15.00000000000000000 29.00000000000000000 0.00000000000000000 -1.00000000000000000 
1 0.00000000000000000 0.00000000000000000 1.00000000000000000 0.00000000000000000 
1 0.00000000000000000 -1.00000000000000000 1.00000000000000000 0.00000000000000000 
1 1.50000000000000000 -10.00000000000000000 0.00000000000000000 1.00000000000000000 
1 25.00000000000000000 -10.00000000000000000 -1.00000000000000000 -0.00000000000000000 
1 0.00000000000000000 0.00000000000000000 0.00000000000000000 -1.00000000000000000 
1 20.00000000000000000 0.00000000000000000 0.00000000000000000 -1.00000000000000000 
1 20.00000000000000000 -0.35355339059327062 0.00000000000000000 1.00000000000000000 
1 -0.10000000000000245 -0.60000000000000853 0.70710678118655057 -0.70710678118654446 
1 0.00000000000000000 0.00000000000000000 0.00000000000000000 -1.00000000000000000 
1 3.00000000000000000 -0.00000000000000067 0.00000000000000000 -1.00000000000000000 
1 -0.00000000000000000 0.70710678118655379 0.00000000000000000 1.00000000000000000 
1 2.34999999999999032 -1.35000000000000187 -0.70710678118655179 -0.70710678118654324 
1 3.00000000000000000 0.00000000000000067 0.00000000000000000 -1.00000000000000000 
1 0.00000000000000000 0.00000000000000000 0.00000000000000000 -1.00000000000000000 
1 0.00000000000000000 -0.21213203435596029 1.00000000000000000 0.00000000000000000 
1 0.00000000000000000 -0.70000000000000284 1.00000000000000000 0.00000000000000000 
1 20.00000000000000000 0.00000000000000000 0.00000000000000000 -1.00000000000000000 
1 0.00000000000000000 0.00000000000000000 0.00000000000000000 -1.00000000000000000 
1 20.00000000000000000 -0.35355339059327373 0.00000000000000000 1.00000000000000000 
1 -0.09999999999999951 -0.60000000000000142 0.70710678118655179 -0.70710678118654324 
1 -0.00000000000000000 0.70710678118655568 0.00000000000000000 1.00000000000000000 
1 2.34999999999999565 -1.35000000000000808 -0.70710678118655057 -0.70710678118654446 
1 0.00000000000000000 0.00000000000000000 0.00000000000000000 -1.00000000000000000 
1 0.00000000000000000 -0.21213203435596739 1.00000000000000000 0.00000000000000000 
1 0.00000000000000000 -0.70000000000000284 1.00000000000000000 0.00000000000000000 
1 0.00000000000000000 0.21213203435596029 1.00000000000000000 0.00000000000000000 
1 -1.20000000000000018 10.00000000000000000 0.00000000000000000 -1.00000000000000000 
1 0.00000000000000000 0.21213203435596029 1.00000000000000000 0.00000000000000000 
1 1.19999999999999929 -10.00000000000000000 0.00000000000000000 1.00000000000000000 
Curves 56
1 70.00000000000000000 0.00000000000000155 7.00000000000000000 0.00000000000000000 1.00000000000000000 -0.00000000000000022 
8 0.14142135623730925 0.56568542494923801
1 70.00000000000000000 0.60000000000000098 6.90000000000000036 -0.00000000000000000 0.70710678118654779 0.70710678118654735 
1 -70.00000000000000000 7.00000000000000000 0.00000000000000000 0.00000000000000000 1.00000000000000000 0.00000000000000000 
1 70.00000000000000000 0.00000000000000222 10.00000000000000000 0.00000000000000000 1.00000000000000000 -0.00000000000000022 
8 -0.91923881554251397 -0.49497474683058484
1 70.00000000000000000 1.35000000000000275 9.34999999999999787 -0.00000000000000000 0.70710678118654680 -0.70710678118654835 
1 50.00000000000000000 0.00000000000000155 7.00000000000000000 0.00000000000000000 1.00000000000000000 -0.00000000000000022 
1 50.00000000000000000 0.70000000000000129 7.00000000000000000 1.00000000000000000 0.00000000000000000 0.00000000000000000 
1 -50.00000000000000000 7.00000000000000000 0.00000000000000000 -1.00000000000000000 0.00000000000000000 0.00000000000000000 
8 -0.91923881554251230 -0.49497474683058362
1 50.00000000000000000 1.35000000000000120 7.65000000000000036 0.00000000000000000 0.70710678118654779 0.70710678118654735 
1 50.00000000000000000 1.00000000000000133 7.29999999999999982 1.00000000000000000 0.00000000000000000 0.00000000000000000 
1 75.00000000000000000 0.00000000000000000 0.00000000000000000 0.00000000000000000 0.00000000000000000 1.00000000000000000 
1 45.00000000000000000 0.00000000000000000 0.00000000000000000 1.00000000000000000 0.00000000000000000 0.00000000000000000 
1 -50.00000000000000000 10.00000000000000000 0.00000000000000000 0.00000000000000000 -1.00000000000000000 0.00000000000000000 
1 45.00000000000000000 0.00000000000000000 0.00000000000000000 0.00000000000000000 0.00000000000000000 1.00000000000000000 
1 124.00000000000000000 0.00000000000000000 0.00000000000000000 -1.00000000000000000 0.00000000000000000 0.00000000000000000 
1 70.00000000000000000 1.00000000000000222 9.69999999999999929 -1.00000000000000000 0.00000000000000000 0.00000000000000000 
1 70.00000000000000000 0.70000000000000218 10.00000000000000000 -1.00000000000000000 0.00000000000000000 0.00000000000000000 
1 -70.00000000000000000 10.00000000000000000 0.00000000000000000 1.00000000000000000 0.00000000000000000 0.00000000000000000 
1 50.00000000000000000 0.00000000000000222 10.00000000000000000 0.00000000000000000 1.00000000000000000 -0.00000000000000022 
8 0.14142135623730895 0.56568542494923801
1 50.00000000000000000 0.60000000000000242 10.09999999999999964 0.00000000000000000 0.70710678118654680 -0.70710678118654835 
1 75.00000000000000000 -2.00000000000000000 0.00000000000000000 0.00000000000000000 0.00000000000000000 1.00000000000000000 
1 75.00000000000000000 0.00000000000000000 0.00000000000000000 0.00000000000000000 -1.00000000000000000 0.00000000000000000 
1 75.00000000000000000 -2.00000000000000000 0.00000000000000000 -1.00000000000000000 0.00000000000000000 0.00000000000000000 
1 45.00000000000000000 -2.00000000000000000 0.00000000000000000 0.00000000000000000 1.00000000000000000 0.00000000000000000 
1 45.00000000000000000 -2.00000000000000000 0.00000000000000000 0.00000000000000000 0.00000000000000000 1.00000000000000000 
1 0.00000000000000000 54.00000000000000000 0.00000000000000000 1.00000000000000000 0.00000000000000000 0.00000000000000000 
1 124.00000000000000000 54.00000000000000000 0.00000000000000000 0.00000000000000000 -1.00000000000000000 0.00000000000000000 
1 0.00000000000000000 0.00000000000000000 0.00000000000000000 0.00000000000000000 1.00000000000000000 0.00000000000000000 
1 124.00000000000000000 0.00000000000000000 0.00000000000000000 0.00000000000000000 0.00000000000000000 1.00000000000000000 
1 0.00000000000000000 0.00000000000000000 0.00000000000000000 0.00000000000000000 0.00000000000000000 1.00000000000000000 
1 45.00000000000000000 54.00000000000000000 0.00000000000000000 0.00000000000000000 0.00000000000000000 1.00000000000000000 
1 0.00000000000000000 54.00000000000000000 0.00000000000000000 0.00000000000000000 0.00000000000000000 1.00000000000000000 
1 75.00000000000000000 54.00000000000000000 0.00000000000000000 -1.00000000000000000 0.00000000000000000 0.00000000000000000 
1 50.00000000000000000 7.00000000000000000 0.00000000000000000 0.00000000000000000 1.00000000000000000 0.00000000000000000 
1 70.00000000000000000 7.00000000000000000 0.00000000000000000 -1.00000000000000000 0.00000000000000000 0.00000000000000000 
1 70.00000000000000000 10.00000000000000000 0.00000000000000000 0.00000000000000000 -1.00000000000000000 0.00000000000000000 
1 75.00000000000000000 54.00000000000000000 0.00000000000000000 0.00000000000000000 0.00000000000000000 1.00000000000000000 
1 124.00000000000000000 54.00000000000000000 0.00000000000000000 0.00000000000000000 0.00000000000000000 1.00000000000000000 
1 45.00000000000000000 56.00000000000000000 0.00000000000000000 0.00000000000000000 0.00000000000000000 1.00000000000000000 
1 45.00000000000000000 54.00000000000000000 0.00000000000000000 0.00000000000000000 1.00000000000000000 0.00000000000000000 
1 45.00000000000000000 56.00000000000000000 0.00000000000000000 1.00000000000000000 0.00000000000000000 0.00000000000000000 
1 75.00000000000000000 56.00000000000000000 0.00000000000000000 0.00000000000000000 -1.00000000000000000 0.00000000000000000 
1 50.00000000000000000 10.00000000000000000 0.00000000000000000 1.00000000000000000 0.00000000000000000 0.00000000000000000 
1 50.00000000000000000 54.00000000000000000 7.00000000000000000 0.00000000000000000 -1.00000000000000000 0.00000000000000022 
8 0.14142135623730839 0.56568542494923224
1 50.00000000000000000 53.39999999999999147 6.89999999999999769 0.00000000000000000 -0.70710678118654435 0.70710678118655068 
1 50.00000000000000000 54.00000000000000000 10.00000000000000000 0.00000000000000000 -1.00000000000000000 0.00000000000000022 
8 -0.91923881554251852 -0.49497474683059151
1 50.00000000000000000 52.64999999999999858 9.34999999999999076 -0.00000000000000000 -0.70710678118654335 -0.70710678118655168 
1 70.00000000000000000 54.00000000000000000 7.00000000000000000 0.00000000000000000 -1.00000000000000000 0.00000000000000022 
1 70.00000000000000000 53.29999999999999716 7.00000000000000000 -1.00000000000000000 0.00000000000000000 0.00000000000000000 
1 70.00000000000000000 54.00000000000000000 10.00000000000000000 0.00000000000000000 -1.00000000000000000 0.00000000000000022 
8 0.14142135623730900 0.56568542494923602
1 70.00000000000000000 53.39999999999999858 10.09999999999999964 0.00000000000000000 -0.70710678118654335 -0.70710678118655168 
8 -0.91923881554251796 -0.49497474683059406
1 70.00000000000000000 52.64999999999999147 7.65000000000000480 -0.00000000000000000 -0.70710678118654435 0.70710678118655068 
1 75.00000000000000000 56.00000000000000000 0.00000000000000000 0.00000000000000000 0.00000000000000000 1.00000000000000000 
1 50.00000000000000000 53.29999999999999716 10.00000000000000000 1.00000000000000000 0.00000000000000000 0.00000000000000000 
1 70.00000000000000000 53.00000000000000000 7.29999999999999982 -1.00000000000000000 0.00000000000000000 0.00000000000000000 
1 50.00000000000000000 53.00000000000000000 9.69999999999999929 1.00000000000000000 0.00000000000000000 0.00000000000000000 
Polygon3D 0
PolygonOnTriangulations 0
Surfaces 31
1 70.00000000000000000 0.00000000000000155 7.00000000000000000 1.00000000000000000 -0.00000000000000000 0.00000000000000000 0.00000000000000000 0.00000000000000022 1.00000000000000000 -0.00000000000000000 -1.00000000000000000 0.00000000000000022 
1 50.00000000000000000 0.00000000000000155 7.00000000000000000 0.00000000000000000 -0.00000000000000022 -1.00000000000000000 1.00000000000000000 0.00000000000000000 0.00000000000000000 0.00000000000000000 -1.00000000000000000 0.00000000000000022 
1 50.00000000000000000 0.85000000000000131 7.15000000000000036 -0.00000000000000000 0.70710678118654735 -0.70710678118654779 1.00000000000000000 0.00000000000000000 -0.00000000000000000 -0.00000000000000000 0.70710678118654779 0.70710678118654735 
1 60.00000000000000000 0.00000000000000189 8.50000000000000000 0.00000000000000000 1.00000000000000000 -0.00000000000000022 0.00000000000000000 0.00000000000000022 1.00000000000000000 1.00000000000000000 -0.00000000000000000 0.00000000000000000 
1 45.00000000000000000 0.00000000000000000 0.00000000000000000 0.00000000000000000 1.00000000000000000 0.00000000000000000 1.00000000000000000 0.00000000000000000 0.00000000000000000 0.00000000000000000 0.00000000000000000 -1.00000000000000000 
1 70.00000000000000000 0.00000000000000222 10.00000000000000000 0.00000000000000000 0.00000000000000022 1.00000000000000000 -1.00000000000000000 0.00000000000000000 0.00000000000000000 0.00000000000000000 -1.00000000000000000 0.00000000000000022 
1 70.00000000000000000 0.85000000000000220 9.84999999999999964 0.00000000000000000 0.70710678118654835 0.70710678118654680 -1.00000000000000000 0.00000000000000000 0.00000000000000000 -0.00000000000000000 0.70710678118654680 -0.70710678118654835 
1 50.00000000000000000 0.00000000000000222 10.00000000000000000 -1.00000000000000000 0.00000000000000000 -0.00000000000000000 0.00000000000000000 -0.00000000000000022 -1.00000000000000000 -0.00000000000000000 -1.00000000000000000 0.00000000000000022 
1 75.00000000000000000 0.00000000000000000 0.00000000000000000 1.00000000000000000 0.00000000000000000 -0.00000000000000000 0.00000000000000000 -1.00000000000000000 0.00000000000000000 0.00000000000000000 -0.00000000000000000 -1.00000000000000000 
1 60.00000000000000000 27.00000000000000000 0.00000000000000000 0.00000000000000000 0.00000000000000000 1.00000000000000000 1.00000000000000000 0.00000000000000000 -0.00000000000000000 -0.00000000000000000 1.00000000000000000 0.00000000000000000 
1 124.00000000000000000 0.00000000000000000 0.00000000000000000 0.00000000000000000 -1.00000000000000000 0.00000000000000000 -1.00000000000000000 0.00000000000000000 0.00000000000000000 -0.00000000000000000 -0.00000000000000000 -1.00000000000000000 
1 45.00000000000000000 -2.00000000000000000 0.00000000000000000 -1.00000000000000000 0.00000000000000000 0.00000000000000000 0.00000000000000000 1.00000000000000000 0.00000000000000000 0.00000000000000000 0.00000000000000000 -1.00000000000000000 
1 124.00000000000000000 0.00000000000000000 0.00000000000000000 0.00000000000000000 -1.00000000000000000 0.00000000000000000 -1.00000000000000000 0.00000000000000000 0.00000000000000000 -0.00000000000000000 -0.00000000000000000 -1.00000000000000000 
1 62.00000000000000000 27.00000000000000000 0.00000000000000000 0.00000000000000000 0.00000000000000000 1.00000000000000000 1.00000000000000000 0.00000000000000000 -0.00000000000000000 -0.00000000000000000 1.00000000000000000 0.00000000000000000 
1 62.00000000000000000 27.00000000000000000 0.00000000000000000 0.00000000000000000 0.00000000000000000 1.00000000000000000 1.00000000000000000 0.00000000000000000 -0.00000000000000000 -0.00000000000000000 1.00000000000000000 0.00000000000000000 
1 0.00000000000000000 54.00000000000000000 0.00000000000000000 0.00000000000000000 1.00000000000000000 0.00000000000000000 1.00000000000000000 0.00000000000000000 0.00000000000000000 0.00000000000000000 0.00000000000000000 -1.00000000000000000 
1 75.00000000000000000 54.00000000000000000 0.00000000000000000 0.00000000000000000 -1.00000000000000000 0.00000000000000000 -1.00000000000000000 0.00000000000000000 0.00000000000000000 -0.00000000000000000 -0.00000000000000000 -1.00000000000000000 
1 75.00000000000000000 -2.00000000000000000 0.00000000000000000 0.00000000000000000 -1.00000000000000000 0.00000000000000000 -1.00000000000000000 0.00000000000000000 0.00000000000000000 -0.00000000000000000 -0.00000000000000000 -1.00000000000000000 
1 45.00000000000000000 54.00000000000000000 0.00000000000000000 -1.00000000000000000 0.00000000000000000 0.00000000000000000 0.00000000000000000 1.00000000000000000 0.00000000000000000 0.00000000000000000 0.00000000000000000 -1.00000000000000000 
1 60.00000000000000000 27.00000000000000000 0.00000000000000000 0.00000000000000000 0.00000000000000000 1.00000000000000000 1.00000000000000000 0.00000000000000000 -0.00000000000000000 -0.00000000000000000 1.00000000000000000 0.00000000000000000 
1 50.00000000000000000 54.00000000000000000 7.00000000000000000 -1.00000000000000000 0.00000000000000000 0.00000000000000000 0.00000000000000000 0.00000000000000022 1.00000000000000000 0.00000000000000000 1.00000000000000000 -0.00000000000000022 
1 60.00000000000000000 54.00000000000000000 8.50000000000000000 0.00000000000000000 1.00000000000000000 0.00000000000000000 0.00000000000000000 -0.00000000000000000 1.00000000000000000 1.00000000000000000 0.00000000000000000 -0.00000000000000000 
1 70.00000000000000000 54.00000000000000000 7.00000000000000000 -0.00000000000000000 -0.00000000000000022 -1.00000000000000000 -1.00000000000000000 0.00000000000000000 0.00000000000000000 0.00000000000000000 1.00000000000000000 -0.00000000000000022 
1 70.00000000000000000 54.00000000000000000 10.00000000000000000 1.00000000000000000 0.00000000000000000 0.00000000000000000 0.00000000000000000 -0.00000000000000022 -1.00000000000000000 0.00000000000000000 1.00000000000000000 -0.00000000000000022 
1 75.00000000000000000 56.00000000000000000 0.00000000000000000 1.00000000000000000 0.00000000000000000 -0.00000000000000000 0.00000000000000000 -1.00000000000000000 0.00000000000000000 0.00000000000000000 -0.00000000000000000 -1.00000000000000000 
1 124.00000000000000000 54.00000000000000000 0.00000000000000000 1.00000000000000000 0.00000000000000000 -0.00000000000000000 0.00000000000000000 -1.00000000000000000 0.00000000000000000 0.00000000000000000 -0.00000000000000000 -1.00000000000000000 
1 0.00000000000000000 0.00000000000000000 0.00000000000000000 -1.00000000000000000 0.00000000000000000 0.00000000000000000 0.00000000000000000 1.00000000000000000 0.00000000000000000 0.00000000000000000 0.00000000000000000 -1.00000000000000000 
1 50.00000000000000000 54.00000000000000000 10.00000000000000000 -0.00000000000000000 0.00000000000000022 1.00000000000000000 1.00000000000000000 0.00000000000000000 0.00000000000000000 0.00000000000000000 1.00000000000000000 -0.00000000000000022 
1 70.00000000000000000 53.14999999999999858 7.15000000000000036 0.00000000000000000 0.70710678118655068 0.70710678118654435 -1.00000000000000000 0.00000000000000000 0.00000000000000000 0.00000000000000000 -0.70710678118654435 0.70710678118655068 
1 50.00000000000000000 53.14999999999999858 9.84999999999999964 0.00000000000000000 0.70710678118655168 -0.70710678118654335 1.00000000000000000 -0.00000000000000000 0.00000000000000000 0.00000000000000000 -0.70710678118654335 -0.70710678118655168 
1 45.00000000000000000 56.00000000000000000 0.00000000000000000 0.00000000000000000 1.00000000000000000 0.00000000000000000 1.00000000000000000 0.00000000000000000 0.00000000000000000 0.00000000000000000 0.00000000000000000 -1.00000000000000000 
Triangulations 0

TShapes 186
Ve
0.000000100000000
70.000000000000000 0.700000000000001 7.000000000000000
0 0

0101101
*
Ve
0.000000100000002
-70.000000000000000 7.000000000000000 0.000000000000000
0 0

0101101
*
Ed
 0.000000100000000 1 1 0
1  1 0 0.000000000000000 0.699999999999999
2  1 1 0 0.000000000000000 0.699999999999999
2  2 2 0 0.000000000000000 0.699999999999999
0

0101000
-186 3 +185 7 *
Ve
0.000000100000002
70.000000000000000 1.000000000000001 7.300000000000000
0 0

0101101
*
Ed
 0.000000100000000 1 1 0
1  2 0 0.141421356237309 0.565685424949238
2  3 3 0 0.141421356237309 0.565685424949238
2  4 1 2 0.141421356237309 0.565685424949238
0

0101000
+186 0 -183 0 *
Ve
0.000000100000002
-70.000000000000000 10.000000000000000 0.000000000000000
0 0

0101101
*
Ed
 0.000000100000002 1 1 0
1  3 0 0.000000000000000 3.000000000000000
2  5 1 9 0.000000000000000 3.000000000000000
2  6 1 11 0.000000000000000 3.000000000000000
2  7 4 12 0.000000000000000 3.000000000000000
2  8 5 17 0.000000000000000 3.000000000000000
0

0101000
+185 0 -181 0 *
Ve
0.000000100000002
70.000000000000000 1.000000000000002 9.699999999999999
0 0

0101101
*
Ed
 0.000000100000002 1 1 0
1  3 0 0.300000000000000 2.699999999999999
2  5 1 9 0.300000000000000 2.699999999999999
2  6 1 11 0.300000000000000 2.699999999999999
2  7 4 12 0.300000000000000 2.699999999999999
2  8 5 17 0.300000000000000 2.699999999999999
0

0101000
+183 19 -179 19 *
Ve
0.000000100000000
70.000000000000000 0.700000000000002 10.000000000000000
0 0

0101101
*
Ed
 0.000000100000000 1 1 0
1  4 0 0.000000000000000 0.700000000000000
2  9 6 0 0.000000000000000 0.700000000000000
2  10 1 0 0.000000000000000 0.700000000000000
0

0101000
-177 3 +181 7 *
Ed
 0.000000100000000 1 1 0
1  5 0 -0.919238815542514 -0.494974746830585
2  11 7 0 -0.919238815542514 -0.494974746830585
2  12 1 2 -0.919238815542514 -0.494974746830585
0

0101000
+177 0 -179 0 *
Wi

0101100
+184 2 +182 0 -180 8 +178 18 -176 2 -175 0 *
Fa
0  0.000000100000000 1 0

0101000
+174 3 *
Ve
0.000000100000000
50.000000000000000 0.700000000000001 7.000000000000000
0 0

0101101
*
Ve
0.000000100000002
-50.000000000000000 7.000000000000000 0.000000000000000
0 0

0101101
*
Ed
 0.000000100000000 1 1 0
1  6 0 0.000000000000000 0.699999999999999
2  13 8 0 0.000000000000000 0.699999999999999
2  14 2 0 0.000000000000000 0.699999999999999
0

0101000
-172 3 +171 7 *
Ed
 0.000000100000000 1 1 0
1  7 0 0.000000000000000 20.000000000000000
2  15 3 0 0.000000000000000 20.000000000000000
2  16 2 2 0.000000000000000 20.000000000000000
0

0101000
+172 0 -186 0 *
Ed
 0.000000100000002 1 1 0
1  8 0 0.000000000000000 20.000000000000000
2  17 4 12 0.000000000000000 20.000000000000000
2  18 2 9 0.000000000000000 20.000000000000000
2  19 2 11 0.000000000000000 20.000000000000000
2  20 5 17 0.000000000000000 20.000000000000000
0

0101000
+171 0 -185 0 *
Wi

0101100
+170 2 +169 0 -168 8 -184 2 *
Fa
0  0.000000100000000 2 0

0101000
+167 3 *
Ve
0.000000100000002
50.000000000000000 1.000000000000001 7.300000000000000
0 0

0101101
*
Ed
 0.000000100000000 1 1 0
1  9 0 -0.919238815542512 -0.494974746830584
2  21 3 0 -0.919238815542512 -0.494974746830584
2  22 8 2 -0.919238815542512 -0.494974746830584
0

0101000
+172 0 -165 0 *
Ed
 0.000000100000000 1 1 0
1  10 0 0.000000000000000 20.000000000000000
2  23 3 0 0.000000000000000 20.000000000000000
2  24 4 20 0.000000000000000 20.000000000000000
0

0101000
+165 0 -183 0 *
Wi

0101100
-164 0 +169 0 -163 0 +182 0 *
Fa
0  0.000000000000000 3 0

0101000
+162 0 *
Ve
0.000000100000000
75.000000000000000 0.000000000000000 2.000000000000000
0 0

0101101
*
Ve
0.000000100000000
75.000000000000000 0.000000000000000 0.000000000000000
0 0

0101101
*
Ed
 0.000000100000000 1 1 0
1  11 0 2.000000000000000 10.000000000000000
2  25 5 0 2.000000000000000 10.000000000000000
2  26 9 0 2.000000000000000 10.000000000000000
0

0101000
+160 0 -159 26 *
Ed
 0.000000100000000 1 1 0
1  12 0 25.000000000000000 30.000000000000000
2  27 5 28 25.000000000000000 30.000000000000000
2  28 5 29 25.000000000000000 30.000000000000000
2  29 10 30 25.000000000000000 30.000000000000000
2  30 11 32 25.000000000000000 30.000000000000000
0

0101000
+181 33 -159 0 *
Ve
0.000000100000002
-50.000000000000000 10.000000000000000 0.000000000000000
0 0

0101101
*
Ed
 0.000000100000002 1 1 0
1  13 0 0.000000000000000 3.000000000000000
2  31 8 9 0.000000000000000 3.000000000000000
2  32 8 11 0.000000000000000 3.000000000000000
2  33 4 12 0.000000000000000 3.000000000000000
2  34 5 17 0.000000000000000 3.000000000000000
0

0101000
+156 0 -171 0 *
Ve
0.000000100000000
45.000000000000000 0.000000000000000 0.000000000000000
0 0

0101101
*
Ed
 0.000000100000000 1 1 0
1  12 0 0.000000000000000 5.000000000000000
2  27 5 28 0.000000000000000 5.000000000000000
2  28 5 29 0.000000000000000 5.000000000000000
2  29 10 30 0.000000000000000 5.000000000000000
2  30 11 32 0.000000000000000 5.000000000000000
0

0101000
+154 0 -156 33 *
Ve
0.000000100000000
45.000000000000000 0.000000000000000 2.000000000000000
0 0

0101101
*
Ed
 0.000000100000000 1 1 0
1  14 0 2.000000000000000 10.000000000000000
2  35 5 0 2.000000000000000 10.000000000000000
2  36 12 0 2.000000000000000 10.000000000000000
0

0101000
+152 0 -154 26 *
Ed
 0.000000100000000 1 1 0
1  15 0 49.000000000000000 79.000000000000000
2  37 13 41 49.000000000000000 79.000000000000000
2  38 13 43 49.000000000000000 79.000000000000000
2  39 14 44 49.000000000000000 79.000000000000000
2  40 11 45 49.000000000000000 79.000000000000000
2  41 11 46 49.000000000000000 79.000000000000000
2  42 15 47 49.000000000000000 79.000000000000000
2  43 5 48 49.000000000000000 79.000000000000000
0

0101000
+160 48 -152 48 *
Wi

0101100
-158 21 +157 27 +180 7 +168 7 +155 7 +153 27 +151 21 +150 38 *
Fa
0  0.000000100000000 5 21

0101000
+149 0 *
Ve
0.000000100000002
50.000000000000000 1.000000000000002 9.699999999999999
0 0

0101101
*
Ed
 0.000000100000002 1 1 0
1  13 0 0.300000000000001 2.700000000000000
2  31 8 9 0.300000000000001 2.700000000000000
2  32 8 11 0.300000000000001 2.700000000000000
2  33 4 12 0.300000000000001 2.700000000000000
2  34 5 17 0.300000000000001 2.700000000000000
0

0101000
+147 19 -165 19 *
Ed
 0.000000100000000 1 1 0
1  16 0 -0.000000000000000 20.000000000000000
2  44 7 0 -0.000000000000000 20.000000000000000
2  45 4 20 -0.000000000000000 20.000000000000000
0

0101000
+179 0 -147 0 *
Wi

0101100
-146 18 -145 0 -163 0 -178 18 *
Fa
0  0.000000100000000 4 0

0101000
+144 49 *
Ve
0.000000100000000
50.000000000000000 0.700000000000002 10.000000000000000
0 0

0101101
*
Ed
 0.000000100000000 1 1 0
1  17 0 0.000000000000000 20.000000000000000
2  46 7 0 0.000000000000000 20.000000000000000
2  47 6 2 0.000000000000000 20.000000000000000
0

0101000
+177 0 -142 0 *
Ed
 0.000000100000002 1 1 0
1  18 0 0.000000000000000 20.000000000000000
2  48 6 9 0.000000000000000 20.000000000000000
2  49 6 11 0.000000000000000 20.000000000000000
2  50 4 12 0.000000000000000 20.000000000000000
2  51 5 17 0.000000000000000 20.000000000000000
0

0101000
+181 0 -156 0 *
Ed
 0.000000100000000 1 1 0
1  19 0 0.000000000000000 0.700000000000000
2  52 6 0 0.000000000000000 0.700000000000000
2  53 8 0 0.000000000000000 0.700000000000000
0

0101000
-142 3 +156 7 *
Wi

0101100
+176 2 +141 0 -140 8 -139 2 *
Fa
0  0.000000100000000 6 0

0101000
+138 3 *
Ed
 0.000000100000000 1 1 0
1  20 0 0.141421356237309 0.565685424949238
2  54 7 0 0.141421356237309 0.565685424949238
2  55 8 2 0.141421356237309 0.565685424949238
0

0101000
+142 0 -147 0 *
Wi

0101100
-175 0 +141 0 -145 0 +136 0 *
Fa
0  0.000000000000000 7 0

0101000
+135 0 *
Wi

0101100
+139 2 +136 0 -155 8 +146 18 -170 2 -164 0 *
Fa
0  0.000000100000000 8 0

0101000
+133 3 *
Ed
 0.000000100000000 1 1 0
1  11 0 0.000000000000000 2.000000000000000
2  25 5 0 0.000000000000000 2.000000000000000
2  26 9 0 0.000000000000000 2.000000000000000
2  56 11 51 0.000000000000000 2.000000000000000
0

0101000
+159 52 -160 0 *
Ve
0.000000100000000
75.000000000000000 -2.000000000000000 0.000000000000000
0 0

0101101
*
Ed
 0.000000100000000 1 1 0
1  21 0 0.000000000000000 10.000000000000000
2  57 9 0 0.000000000000000 10.000000000000000
0

0101000
+130 52 -130 26 *
Ed
 0.000000100000000 1 1 0
1  22 0 0.000000000000000 2.000000000000000
2  58 9 28 0.000000000000000 2.000000000000000
2  59 9 29 0.000000000000000 2.000000000000000
2  60 10 30 0.000000000000000 2.000000000000000
0

0101000
+159 0 -130 0 *
Wi

0101100
+131 0 +158 0 -129 0 -128 52 +128 26 *
Fa
0  0.000000100000000 9 0

0101000
+127 0 *
Ve
0.000000100000000
45.000000000000000 -2.000000000000000 0.000000000000000
0 0

0101101
*
Ed
 0.000000100000000 1 1 0
1  23 0 0.000000000000000 30.000000000000000
2  61 10 30 0.000000000000000 30.000000000000000
0

0101000
+130 0 -125 0 *
Ed
 0.000000100000000 1 1 0
1  24 0 0.000000000000000 2.000000000000000
2  62 12 28 0.000000000000000 2.000000000000000
2  63 12 29 0.000000000000000 2.000000000000000
2  64 10 30 0.000000000000000 2.000000000000000
0

0101000
+125 0 -154 0 *
Wi

0101100
+153 27 -140 7 +157 27 +128 27 +124 27 +123 27 *
Fa
0  0.000000100000000 10 53

0101000
-122 0 *
Ed
 0.000000100000000 1 1 0
1  25 0 0.000000000000000 10.000000000000000
2  65 12 0 0.000000000000000 10.000000000000000
0

0101000
+125 52 -125 26 *
Ed
 0.000000100000000 1 1 0
1  14 0 0.000000000000000 2.000000000000000
2  35 5 0 0.000000000000000 2.000000000000000
2  36 12 0 0.000000000000000 2.000000000000000
2  66 11 51 0.000000000000000 2.000000000000000
0

0101000
+154 52 -152 0 *
Wi

0101100
+120 0 -119 0 -151 0 -123 52 +123 26 *
Fa
0  0.000000100000000 12 0

0101000
+118 0 *
Ve
0.000000100000000
0.000000000000000 54.000000000000000 0.000000000000000
0 0

0101101
*
Ve
0.000000100000000
45.000000000000000 54.000000000000000 2.000000000000000
0 0

0101101
*
Ed
 0.000000100000000 1 1 0
1  26 0 0.000000000000000 45.000000000000000
2  67 14 44 0.000000000000000 45.000000000000000
2  68 15 47 0.000000000000000 45.000000000000000
2  69 16 45 0.000000000000000 45.000000000000000
2  70 16 46 0.000000000000000 45.000000000000000
0

0101000
+116 0 -115 48 *
Ve
0.000000100000000
75.000000000000000 54.000000000000000 2.000000000000000
0 0

0101101
*
Ed
 0.000000100000000 1 1 0
1  26 0 45.000000000000000 75.000000000000000
2  67 14 44 45.000000000000000 75.000000000000000
2  68 15 47 45.000000000000000 75.000000000000000
2  69 16 45 45.000000000000000 75.000000000000000
2  70 16 46 45.000000000000000 75.000000000000000
2  71 17 48 45.000000000000000 75.000000000000000
0

0101000
+115 48 -113 48 *
Ve
0.000000100000000
124.000000000000000 54.000000000000000 0.000000000000000
0 0

0101101
*
Ed
 0.000000100000000 1 1 0
1  26 0 75.000000000000000 124.000000000000000
2  67 14 44 75.000000000000000 124.000000000000000
2  68 15 47 75.000000000000000 124.000000000000000
2  69 16 45 75.000000000000000 124.000000000000000
2  70 16 46 75.000000000000000 124.000000000000000
0

0101000
+113 48 -111 0 *
Ve
0.000000100000000
124.000000000000000 0.000000000000000 0.000000000000000
0 0

0101101
*
Ed
 0.000000100000000 1 1 0
1  27 0 0.000000000000000 54.000000000000000
2  72 14 44 0.000000000000000 54.000000000000000
2  73 15 47 0.000000000000000 54.000000000000000
0

0101000
+111 0 -109 0 *
Ed
 0.000000100000000 1 1 0
1  15 0 0.000000000000000 49.000000000000000
2  37 13 41 0.000000000000000 49.000000000000000
2  38 13 43 0.000000000000000 49.000000000000000
2  39 14 44 0.000000000000000 49.000000000000000
2  40 11 45 0.000000000000000 49.000000000000000
2  41 11 46 0.000000000000000 49.000000000000000
2  42 15 47 0.000000000000000 49.000000000000000
0

0101000
+109 0 -160 48 *
Ve
0.000000100000000
0.000000000000000 0.000000000000000 0.000000000000000
0 0

0101101
*
Ed
 0.000000100000000 1 1 0
1  15 0 79.000000000000000 124.000000000000000
2  37 13 41 79.000000000000000 124.000000000000000
2  38 13 43 79.000000000000000 124.000000000000000
2  39 14 44 79.000000000000000 124.000000000000000
2  40 11 45 79.000000000000000 124.000000000000000
2  41 11 46 79.000000000000000 124.000000000000000
2  42 15 47 79.000000000000000 124.000000000000000
0

0101000
+152 48 -106 0 *
Ed
 0.000000100000000 1 1 0
1  28 0 0.000000000000000 54.000000000000000
2  74 14 44 0.000000000000000 54.000000000000000
2  75 15 47 0.000000000000000 54.000000000000000
0

0101000
+106 0 -116 0 *
Wi

0101100
+114 55 +112 55 +110 55 +108 55 +107 55 +150 55 +105 55 +104 55 *
Fa
0  0.000000100000000 15 54

0101000
-103 0 *
Ed
 0.000000100000000 1 1 0
1  15 0 0.000000000000000 49.000000000000000
2  37 13 41 0.000000000000000 49.000000000000000
2  38 13 43 0.000000000000000 49.000000000000000
2  39 14 44 0.000000000000000 49.000000000000000
2  40 11 45 0.000000000000000 49.000000000000000
2  41 11 46 0.000000000000000 49.000000000000000
2  42 15 47 0.000000000000000 49.000000000000000
0

0101000
+109 0 -159 57 *
Ed
 0.000000100000000 1 1 0
1  29 0 0.000000000000000 2.000000000000000
2  76 11 0 0.000000000000000 2.000000000000000
0

0101000
+109 58 -109 59 *
Wi

0101100
-101 56 -131 0 +107 55 +100 51 *
Fa
0  0.000000100000000 11 51

0101000
+99 0 *
Wi

0101100
+129 0 -120 0 -124 52 +124 26 *
Fa
0  0.000000100000000 18 0

0101000
+97 0 *
Ed
 0.000000100000000 1 1 0
1  12 0 0.000000000000000 30.000000000000000
2  27 5 28 0.000000000000000 30.000000000000000
2  28 5 29 0.000000000000000 30.000000000000000
2  29 10 30 0.000000000000000 30.000000000000000
2  30 11 32 0.000000000000000 30.000000000000000
0

0101000
+154 0 -159 0 *
Wi

0101100
+95 0 +128 0 +124 0 +123 0 *
Fa
0  0.000000100000000 10 0

0101000
-94 61 *
Ed
 0.000000100000000 1 1 0
1  15 0 79.000000000000000 124.000000000000000
2  37 13 41 79.000000000000000 124.000000000000000
2  38 13 43 79.000000000000000 124.000000000000000
2  39 14 44 79.000000000000000 124.000000000000000
2  40 11 45 79.000000000000000 124.000000000000000
2  41 11 46 79.000000000000000 124.000000000000000
2  42 15 47 79.000000000000000 124.000000000000000
0

0101000
+154 57 -106 0 *
Ed
 0.000000100000000 1 1 0
1  30 0 0.000000000000000 2.000000000000000
2  77 11 0 0.000000000000000 2.000000000000000
0

0101000
+106 58 -106 59 *
Wi

0101100
-92 56 -91 51 +105 55 +119 0 *
Fa
0  0.000000100000000 11 51

0101000
+90 0 *
Ve
0.000000100000000
45.000000000000000 54.000000000000000 0.000000000000000
0 0

0101101
*
Ed
 0.000000100000000 1 1 0
1  26 0 0.000000000000000 45.000000000000000
2  67 14 44 0.000000000000000 45.000000000000000
2  68 15 47 0.000000000000000 45.000000000000000
2  69 16 45 0.000000000000000 45.000000000000000
2  70 16 46 0.000000000000000 45.000000000000000
0

0101000
+116 0 -88 57 *
Ed
 0.000000100000000 1 1 0
1  31 0 0.000000000000000 2.000000000000000
2  78 17 0 0.000000000000000 2.000000000000000
2  79 19 0 0.000000000000000 2.000000000000000
2  80 16 51 0.000000000000000 2.000000000000000
0

0101000
+88 52 -115 0 *
Ed
 0.000000100000000 1 1 0
1  32 0 0.000000000000000 2.000000000000000
2  81 16 0 0.000000000000000 2.000000000000000
0

0101000
+116 58 -116 59 *
Wi

0101100
-87 56 -86 0 +114 55 +85 51 *
Fa
0  0.000000100000000 16 51

0101000
+84 0 *
Ed
 0.000000100000000 1 1 0
1  31 0 2.000000000000000 10.000000000000000
2  78 17 0 2.000000000000000 10.000000000000000
2  79 19 0 2.000000000000000 10.000000000000000
0

0101000
+115 0 -88 26 *
Ve
0.000000100000000
50.000000000000000 10.000000000000000 0.000000000000000
0 0

0101101
*
Ed
 0.000000100000000 1 1 0
1  33 0 25.000000000000000 30.000000000000000
2  82 17 28 25.000000000000000 30.000000000000000
2  83 17 29 25.000000000000000 30.000000000000000
2  84 20 30 25.000000000000000 30.000000000000000
2  85 16 32 25.000000000000000 30.000000000000000
0

0101000
+81 67 -88 0 *
Ve
0.000000100000000
50.000000000000000 7.000000000000000 0.000000000000000
0 0

0101101
*
Ed
 0.000000100000000 1 1 0
1  34 0 0.000000000000000 3.000000000000000
2  86 21 69 0.000000000000000 3.000000000000000
2  87 21 71 0.000000000000000 3.000000000000000
2  88 22 72 0.000000000000000 3.000000000000000
2  89 17 73 0.000000000000000 3.000000000000000
0

0101000
+79 0 -81 0 *
Ve
0.000000100000000
70.000000000000000 7.000000000000000 0.000000000000000
0 0

0101101
*
Ed
 0.000000100000000 1 1 0
1  35 0 0.000000000000000 20.000000000000000
2  90 22 72 0.000000000000000 20.000000000000000
2  91 23 69 0.000000000000000 20.000000000000000
2  92 23 71 0.000000000000000 20.000000000000000
2  93 17 73 0.000000000000000 20.000000000000000
0

0101000
+77 0 -79 0 *
Ve
0.000000100000000
70.000000000000000 10.000000000000000 0.000000000000000
0 0

0101101
*
Ed
 0.000000100000000 1 1 0
1  36 0 0.000000000000000 3.000000000000000
2  94 24 69 0.000000000000000 3.000000000000000
2  95 24 71 0.000000000000000 3.000000000000000
2  96 22 72 0.000000000000000 3.000000000000000
2  97 17 73 0.000000000000000 3.000000000000000
0

0101000
+75 0 -77 0 *
Ve
0.000000100000000
75.000000000000000 54.000000000000000 0.000000000000000
0 0

0101101
*
Ed
 0.000000100000000 1 1 0
1  33 0 0.000000000000000 5.000000000000000
2  82 17 28 0.000000000000000 5.000000000000000
2  83 17 29 0.000000000000000 5.000000000000000
2  84 20 30 0.000000000000000 5.000000000000000
2  85 16 32 0.000000000000000 5.000000000000000
0

0101000
+73 0 -75 67 *
Ed
 0.000000100000000 1 1 0
1  37 0 2.000000000000000 10.000000000000000
2  98 25 0 2.000000000000000 10.000000000000000
2  99 17 0 2.000000000000000 10.000000000000000
0

0101000
+113 0 -73 26 *
Wi

0101100
-82 63 +80 64 +78 68 +76 68 +74 68 +72 64 +71 63 +112 74 *
Fa
0  0.000000100000000 17 63

0101000
+70 0 *
Ed
 0.000000100000000 1 1 0
1  26 0 75.000000000000000 124.000000000000000
2  67 14 44 75.000000000000000 124.000000000000000
2  68 15 47 75.000000000000000 124.000000000000000
2  69 16 45 75.000000000000000 124.000000000000000
2  70 16 46 75.000000000000000 124.000000000000000
0

0101000
+73 57 -111 0 *
Ed
 0.000000100000000 1 1 0
1  38 0 0.000000000000000 2.000000000000000
2  100 16 0 0.000000000000000 2.000000000000000
0

0101000
+111 58 -111 59 *
Ed
 0.000000100000000 1 1 0
1  37 0 0.000000000000000 2.000000000000000
2  98 25 0 0.000000000000000 2.000000000000000
2  99 17 0 0.000000000000000 2.000000000000000
2  101 16 51 0.000000000000000 2.000000000000000
0

0101000
+73 52 -113 0 *
Wi

0101100
-68 56 -67 51 +110 55 +66 0 *
Fa
0  0.000000100000000 16 51

0101000
+65 0 *
Wi

0101100
+67 0 -100 0 -108 58 +108 59 *
Fa
0  0.000000100000000 26 0

0111000
+63 0 *
Wi

0101100
+91 0 -85 0 -104 58 +104 59 *
Fa
0  0.000000100000000 27 0

0111000
+61 0 *
Ed
 0.000000100000000 1 1 0
1  33 0 0.000000000000000 30.000000000000000
2  82 17 28 0.000000000000000 30.000000000000000
2  83 17 29 0.000000000000000 30.000000000000000
2  84 20 30 0.000000000000000 30.000000000000000
2  85 16 32 0.000000000000000 30.000000000000000
0

0101000
+73 0 -88 0 *
Wi

0101100
+87 56 -59 52 +68 56 +108 56 +101 56 -95 52 +92 56 +104 56 *
Fa
0  0.000000100000000 15 76

0101000
-58 0 *
Ve
0.000000100000000
45.000000000000000 56.000000000000000 0.000000000000000
0 0

0101101
*
Ed
 0.000000100000000 1 1 0
1  39 0 0.000000000000000 10.000000000000000
2  102 19 0 0.000000000000000 10.000000000000000
0

0101000
+56 52 -56 26 *
Ed
 0.000000100000000 1 1 0
1  40 0 0.000000000000000 2.000000000000000
2  103 19 28 0.000000000000000 2.000000000000000
2  104 19 29 0.000000000000000 2.000000000000000
2  105 20 30 0.000000000000000 2.000000000000000
0

0101000
+88 0 -56 0 *
Wi

0101100
+86 0 +82 0 -55 0 -54 52 +54 26 *
Fa
0  0.000000100000000 19 0

0101000
+53 0 *
Ve
0.000000100000000
75.000000000000000 56.000000000000000 0.000000000000000
0 0

0101101
*
Ed
 0.000000100000000 1 1 0
1  41 0 0.000000000000000 30.000000000000000
2  106 20 30 0.000000000000000 30.000000000000000
0

0101000
+56 0 -51 0 *
Ed
 0.000000100000000 1 1 0
1  42 0 0.000000000000000 2.000000000000000
2  107 25 28 0.000000000000000 2.000000000000000
2  108 25 29 0.000000000000000 2.000000000000000
2  109 20 30 0.000000000000000 2.000000000000000
0

0101000
+51 0 -73 0 *
Ed
 0.000000100000000 1 1 0
1  43 0 0.000000000000000 20.000000000000000
2  110 28 69 0.000000000000000 20.000000000000000
2  111 28 71 0.000000000000000 20.000000000000000
2  112 22 72 0.000000000000000 20.000000000000000
2  113 17 73 0.000000000000000 20.000000000000000
0

0101000
+81 0 -75 0 *
Wi

0101100
+50 64 +49 64 +72 64 -48 68 +80 64 +54 64 *
Fa
0  0.000000100000000 20 77

0101000
-47 0 *
Ve
0.000000100000000
50.000000000000000 53.299999999999997 7.000000000000003
0 0

0101101
*
Ed
 0.000000100000000 1 1 0
1  44 0 0.000000000000000 0.700000000000003
2  114 21 0 0.000000000000000 0.700000000000003
2  115 23 0 0.000000000000000 0.700000000000003
0

0101000
-45 78 +79 68 *
Ve
0.000000100000000
50.000000000000000 53.000000000000000 7.299999999999998
0 0

0101101
*
Ed
 0.000000100000000 1 1 0
1  45 0 0.141421356237308 0.565685424949232
2  116 29 0 0.141421356237308 0.565685424949232
2  117 21 15 0.141421356237308 0.565685424949232
0

0101000
+45 0 -43 0 *
Ve
0.000000100000000
50.000000000000000 53.000000000000000 9.700000000000001
0 0

0101101
*
Ed
 0.000000100000000 1 1 0
1  34 0 0.299999999999998 2.700000000000001
2  86 21 69 0.299999999999998 2.700000000000001
2  87 21 71 0.299999999999998 2.700000000000001
2  88 22 72 0.299999999999998 2.700000000000001
2  89 17 73 0.299999999999998 2.700000000000001
0

0101000
+43 81 -41 81 *
Ve
0.000000100000000
50.000000000000000 53.299999999999997 10.000000000000004
0 0

0101101
*
Ed
 0.000000100000000 1 1 0
1  46 0 0.000000000000000 0.700000000000003
2  118 28 0 0.000000000000000 0.700000000000003
2  119 21 0 0.000000000000000 0.700000000000003
0

0101000
-39 78 +81 68 *
Ed
 0.000000100000000 1 1 0
1  47 0 -0.919238815542519 -0.494974746830592
2  120 30 0 -0.919238815542519 -0.494974746830592
2  121 21 15 -0.919238815542519 -0.494974746830592
0

0101000
+39 0 -41 0 *
Wi

0101100
+44 15 +42 0 -78 79 +40 80 -38 15 -37 0 *
Fa
0  0.000000100000000 21 0

0101000
+36 78 *
Ve
0.000000100000000
70.000000000000000 53.299999999999997 7.000000000000003
0 0

0101101
*
Ed
 0.000000100000000 1 1 0
1  48 0 0.000000000000000 0.700000000000003
2  122 24 0 0.000000000000000 0.700000000000003
2  123 23 0 0.000000000000000 0.700000000000003
0

0101000
-34 78 +77 68 *
Ed
 0.000000100000000 1 1 0
1  49 0 0.000000000000000 20.000000000000000
2  124 29 0 0.000000000000000 20.000000000000000
2  125 23 15 0.000000000000000 20.000000000000000
0

0101000
+34 0 -45 0 *
Wi

0101100
+33 15 +32 0 -76 79 -44 15 *
Fa
0  0.000000100000000 23 0

0101000
+31 78 *
Ve
0.000000100000000
70.000000000000000 53.299999999999997 10.000000000000004
0 0

0101101
*
Ed
 0.000000100000000 1 1 0
1  50 0 0.000000000000000 0.700000000000003
2  126 28 0 0.000000000000000 0.700000000000003
2  127 24 0 0.000000000000000 0.700000000000003
0

0101000
-29 78 +75 68 *
Ve
0.000000100000000
70.000000000000000 53.000000000000000 9.700000000000001
0 0

0101101
*
Ed
 0.000000100000000 1 1 0
1  51 0 0.141421356237309 0.565685424949236
2  128 30 0 0.141421356237309 0.565685424949236
2  129 24 15 0.141421356237309 0.565685424949236
0

0101000
+29 0 -27 0 *
Ve
0.000000100000000
70.000000000000000 53.000000000000000 7.299999999999998
0 0

0101101
*
Ed
 0.000000100000000 1 1 0
1  36 0 0.299999999999999 2.700000000000002
2  94 24 69 0.299999999999999 2.700000000000002
2  95 24 71 0.299999999999999 2.700000000000002
2  96 22 72 0.299999999999999 2.700000000000002
2  97 17 73 0.299999999999999 2.700000000000002
0

0101000
+27 81 -25 81 *
Ed
 0.000000100000000 1 1 0
1  52 0 -0.919238815542518 -0.494974746830594
2  130 29 0 -0.919238815542518 -0.494974746830594
2  131 24 15 -0.919238815542518 -0.494974746830594
0

0101000
+34 0 -25 0 *
Wi

0101100
+28 15 +26 0 -74 79 +24 80 -33 15 -23 0 *
Fa
0  0.000000100000000 24 0

0101000
+22 78 *
Ed
 0.000000100000000 1 1 0
1  53 0 0.000000000000000 10.000000000000000
2  132 25 0 0.000000000000000 10.000000000000000
0

0101000
+51 52 -51 26 *
Wi

0101100
+20 0 -66 0 -71 0 -49 52 +49 26 *
Fa
0  0.000000100000000 25 0

0101000
+19 0 *
Wi

0101100
+50 0 +49 0 +59 0 +54 0 *
Fa
0  0.000000100000000 20 0

0101000
-17 61 *
Wi

0101100
+55 0 -20 0 -50 52 +50 26 *
Fa
0  0.000000100000000 31 0

0101000
+15 0 *
Ed
 0.000000100000000 1 1 0
1  54 0 0.000000000000000 20.000000000000000
2  133 30 0 0.000000000000000 20.000000000000000
2  134 28 15 0.000000000000000 20.000000000000000
0

0101000
+39 0 -29 0 *
Wi

0101100
+38 15 +13 0 -48 79 -28 15 *
Fa
0  0.000000100000000 28 0

0101000
+12 78 *
Ed
 0.000000100000000 1 1 0
1  55 0 -0.000000000000000 20.000000000000000
2  135 29 0 -0.000000000000000 20.000000000000000
2  136 22 83 -0.000000000000000 20.000000000000000
0

0101000
+25 0 -43 0 *
Wi

0101100
-23 0 +32 0 -10 0 +42 0 *
Fa
0  0.000000000000000 29 0

0101000
+9 0 *
Ed
 0.000000100000000 1 1 0
1  56 0 -0.000000000000000 20.000000000000000
2  137 30 0 -0.000000000000000 20.000000000000000
2  138 22 83 -0.000000000000000 20.000000000000000
0

0101000
+41 0 -27 0 *
Wi

0101100
+24 80 +7 0 +10 0 +40 80 *
Fa
0  0.000000100000000 22 0

0101000
+6 85 *
Wi

0101100
-37 0 +13 0 -7 0 +26 0 *
Fa
0  0.000000000000000 30 0

0101000
+4 0 *
Sh

0101100
+173 2 +166 2 -161 0 +148 2 +143 20 +137 2 -134 0 +132 2 +126 50 +121 2 
+117 50 +102 50 +98 50 +96 50 -93 60 +89 50 +83 50 +69 62 +64 50 +62 75 
+60 75 -57 50 +52 50 +46 62 +35 62 +30 62 +21 62 +18 50 -16 60 +14 50 
+11 62 -8 82 -5 84 -3 82 *
So

0100000
+2 0 *

+1 1 