
CASCADE Topology V1, (c) Matra-Datavision
Locations 80
1
1.000000000000000 0.000000000000000 0.000000000000000 0.000000000000000 
0.000000000000000 1.000000000000000 0.000000000000000 0.000000000000000 
0.000000000000000 0.000000000000000 1.000000000000000 0.000000000000000 
1
1.000000000000000 0.000000000000000 0.000000000000000 0.000000000000000 
0.000000000000000 1.000000000000000 0.000000000000000 0.000000000000000 
0.000000000000000 0.000000000000000 1.000000000000000 0.000000000000000 
1
1.000000000000000 0.000000000000000 0.000000000000000 0.000000000000000 
0.000000000000000 1.000000000000000 0.000000000000000 0.000000000000000 
0.000000000000000 0.000000000000000 1.000000000000000 0.000000000000000 
1
1.000000000000000 0.000000000000000 0.000000000000000 0.000000000000000 
0.000000000000000 1.000000000000000 0.000000000000000 0.000000000000000 
0.000000000000000 0.000000000000000 1.000000000000000 0.000000000000000 
1
1.000000000000000 0.000000000000000 0.000000000000000 0.000000000000000 
0.000000000000000 1.000000000000000 0.000000000000000 0.000000000000000 
0.000000000000000 0.000000000000000 1.000000000000000 0.000000000000000 
1
1.000000000000000 0.000000000000000 0.000000000000000 0.000000000000000 
0.000000000000000 1.000000000000000 0.000000000000000 0.000000000000000 
0.000000000000000 0.000000000000000 1.000000000000000 0.000000000000000 
2  2 1 3 -1 4 1 5 -1 6 1 0
2  6 -1 5 1 4 -1 3 1 2 -1 0
1
1.000000000000000 0.000000000000000 0.000000000000000 0.000000000000000 
0.000000000000000 1.000000000000000 0.000000000000000 0.000000000000000 
0.000000000000000 0.000000000000000 1.000000000000000 0.000000000000000 
1
1.000000000000000 0.000000000000000 0.000000000000000 0.000000000000000 
0.000000000000000 1.000000000000000 0.000000000000000 0.000000000000000 
0.000000000000000 0.000000000000000 1.000000000000000 0.000000000000000 
1
1.000000000000000 0.000000000000000 0.000000000000000 0.000000000000000 
0.000000000000000 1.000000000000000 0.000000000000000 0.000000000000000 
0.000000000000000 0.000000000000000 1.000000000000000 0.000000000000000 
2  9 1 10 1 11 -1 2 1 3 -1 4 1 5 -1 6 1 0
2  11 1 10 -1 9 -1 0
1
1.000000000000000 0.000000000000000 0.000000000000000 0.000000000000000 
0.000000000000000 1.000000000000000 0.000000000000000 0.000000000000000 
0.000000000000000 0.000000000000000 1.000000000000000 10.000000000000000 
2  14 -1 11 1 10 -1 9 -1 0
2  10 -1 9 -1 0
2  6 -1 5 1 4 -1 3 1 2 -1 11 1 10 -1 9 -1 0
2  9 1 10 1 11 -1 14 1 2 1 3 -1 4 1 5 -1 6 1 0
2  6 -1 5 1 4 -1 3 1 2 -1 14 -1 11 1 10 -1 9 -1 0
1
1.000000000000000 0.000000000000000 0.000000000000000 0.000000000000000 
0.000000000000000 1.000000000000000 0.000000000000000 0.000000000000000 
0.000000000000000 0.000000000000000 1.000000000000000 0.000000000000000 
2  20 1 11 -1 0
2  9 1 10 1 11 -1 0
2  9 1 10 1 11 -1 14 1 0
2  11 -1 2 1 3 -1 4 1 5 -1 6 1 0
2  11 -1 14 1 2 1 3 -1 4 1 5 -1 6 1 0
2  6 -1 5 1 4 -1 3 1 2 -1 11 1 0
2  20 1 10 -1 9 -1 0
2  4 1 5 -1 6 1 0
2  11 -1 14 1 2 1 3 -1 0
2  6 -1 5 1 4 -1 0
1
1.000000000000000 0.000000000000000 0.000000000000000 0.000000000000000 
0.000000000000000 1.000000000000000 0.000000000000000 0.000000000000000 
0.000000000000000 0.000000000000000 1.000000000000000 0.000000000000000 
1
1.000000000000000 0.000000000000000 0.000000000000000 0.000000000000000 
0.000000000000000 0.000000000000000 -1.000000000000000 89.000000000000000 
0.000000000000000 1.000000000000000 0.000000000000000 0.000000000000000 
2  31 1 32 1 2 -1 14 -1 11 1 10 -1 9 -1 0
2  31 1 32 1 3 -1 4 1 5 -1 6 1 0
2  3 1 32 -1 31 -1 0
1
1.000000000000000 0.000000000000000 0.000000000000000 0.000000000000000 
0.000000000000000 1.000000000000000 0.000000000000000 -1.000000000000000 
0.000000000000000 0.000000000000000 1.000000000000000 0.000000000000000 
2  36 -1 3 1 32 -1 31 -1 0
2  32 -1 31 -1 0
2  2 1 32 -1 31 -1 0
1
1.000000000000000 0.000000000000000 0.000000000000000 0.000000000000000 
0.000000000000000 1.000000000000000 0.000000000000000 0.000000000000000 
0.000000000000000 0.000000000000000 1.000000000000000 0.000000000000000 
1
1.000000000000000 0.000000000000000 0.000000000000000 0.000000000000000 
0.000000000000000 1.000000000000000 0.000000000000000 0.000000000000000 
0.000000000000000 0.000000000000000 1.000000000000000 0.000000000000000 
1
1.000000000000000 0.000000000000000 0.000000000000000 0.000000000000000 
0.000000000000000 1.000000000000000 0.000000000000000 0.000000000000000 
0.000000000000000 0.000000000000000 1.000000000000000 0.000000000000000 
2  40 1 41 1 42 -1 20 1 11 -1 0
2  42 1 41 -1 40 -1 0
1
1.000000000000000 0.000000000000000 0.000000000000000 0.000000000000000 
0.000000000000000 1.000000000000000 0.000000000000000 0.000000000000000 
0.000000000000000 0.000000000000000 1.000000000000000 2.000000000000000 
2  45 -1 42 1 41 -1 40 -1 0
2  41 -1 40 -1 0
2  9 1 10 1 20 -1 42 1 41 -1 40 -1 0
2  40 1 41 1 42 -1 45 1 20 1 11 -1 0
2  11 1 20 -1 45 -1 42 1 41 -1 40 -1 0
2  40 1 41 1 42 -1 0
2  40 1 41 1 42 -1 45 1 0
2  2 1 3 -1 0
2  9 1 10 1 11 -1 14 1 2 1 3 -1 0
2  31 1 32 1 3 -1 0
2  40 1 41 1 42 -1 45 1 20 1 11 -1 2 1 3 -1 0
2  42 -1 20 1 11 -1 0
2  31 1 32 1 3 -1 36 1 0
2  42 -1 45 1 20 1 11 -1 0
2  20 1 11 -1 2 1 3 -1 4 1 5 -1 6 1 0
2  3 -1 36 1 4 1 5 -1 6 1 0
2  31 1 32 1 0
2  2 1 3 -1 4 1 5 -1 0
2  9 1 10 1 11 -1 14 1 2 1 3 -1 4 1 5 -1 0
1
1.000000000000000 0.000000000000000 0.000000000000000 0.000000000000000 
0.000000000000000 1.000000000000000 0.000000000000000 0.000000000000000 
0.000000000000000 0.000000000000000 1.000000000000000 0.000000000000000 
1
-1.000000000000000 0.000000000000000 0.000000000000000 0.000000000000000 
0.000000000000000 0.000000000000000 1.000000000000000 0.000000000000000 
0.000000000000000 1.000000000000000 -0.000000000000000 0.000000000000000 
2  65 1 66 1 4 -1 3 1 2 -1 14 -1 11 1 10 -1 9 -1 0
2  65 1 66 1 5 -1 0
2  5 1 66 -1 65 -1 0
1
1.000000000000000 0.000000000000000 0.000000000000000 0.000000000000000 
0.000000000000000 1.000000000000000 0.000000000000000 1.000000000000000 
0.000000000000000 0.000000000000000 1.000000000000000 -0.000000000000000 
2  70 -1 5 1 66 -1 65 -1 0
2  66 -1 65 -1 0
2  2 1 3 -1 4 1 66 -1 65 -1 0
2  40 1 41 1 42 -1 45 1 20 1 11 -1 2 1 3 -1 4 1 5 -1 0
2  11 -1 14 1 2 1 3 -1 4 1 5 -1 0
2  6 -1 0
2  65 1 66 1 5 -1 6 1 0
2  65 1 66 1 5 -1 70 1 0
2  5 -1 70 1 6 1 0
2  65 1 66 1 0
Curve2ds 130
1 2.00000000000000000 0.00000000000000000 0.00000000000000000 -1.00000000000000000 
1 -3.14159265358979312 0.00000000000000000 1.00000000000000000 0.00000000000000000 
2 0.01000000000000512 -1.98999999999999955 0.00000000000000000 -1.00000000000000000 -1.00000000000000000 -0.00000000000000000 1.98999999999999999
1 -4.71238898038468967 0.00000000000000000 1.00000000000000000 0.00000000000000000 
2 0.01000000000000512 -8.00999999999999979 0.00000000000000000 -1.00000000000000000 -1.00000000000000000 -0.00000000000000000 1.98999999999999999
1 0.00000000000000000 0.00000000000000000 1.00000000000000000 0.00000000000000000 
1 0.00000000000000000 -10.00000000000000000 1.00000000000000000 0.00000000000000000 
1 -15.00000000000000000 44.50000000000000000 0.00000000000000000 1.00000000000000000 
1 30.00000000000000000 0.00000000000000000 0.00000000000000000 -1.00000000000000000 
1 0.00000000000000000 0.00000000000000000 0.00000000000000000 -1.00000000000000000 
1 42.50000000000000000 0.00000000000000000 0.00000000000000000 -1.00000000000000000 
1 1.57079632679489656 0.00000000000000000 0.00000000000000000 1.00000000000000000 
1 0.00000000000000000 -1.98999999999999932 1.00000000000000000 0.00000000000000000 
1 0.00000000000000000 0.00000000000000000 0.00000000000000000 1.00000000000000000 
1 0.00000000000000000 -8.00999999999999979 1.00000000000000000 0.00000000000000000 
1 0.00000000000000000 0.00000000000000000 0.00000000000000000 -1.00000000000000000 
1 0.00000000000000000 0.00000000000000000 0.00000000000000000 1.00000000000000000 
1 -15.00000000000000000 44.51000000000000512 1.00000000000000000 0.00000000000000000 
1 -3.14159265358979312 30.00000000000000000 1.00000000000000000 0.00000000000000000 
2 1.98999999999999488 -1.98999999999999955 0.00000000000000000 -1.00000000000000000 1.00000000000000000 0.00000000000000000 1.98999999999999999
1 1.57079632679489656 0.00000000000000000 0.00000000000000000 1.00000000000000000 
1 -15.00000000000000000 44.51000000000000512 1.00000000000000000 0.00000000000000000 
1 -4.71238898038468967 30.00000000000000000 1.00000000000000000 0.00000000000000000 
2 1.98999999999999488 -8.00999999999999979 0.00000000000000000 -1.00000000000000000 1.00000000000000000 0.00000000000000000 1.98999999999999999
1 0.00000000000000000 0.00000000000000000 1.00000000000000000 0.00000000000000000 
1 0.00000000000000000 -10.00000000000000000 1.00000000000000000 0.00000000000000000 
1 15.00000000000000000 46.50000000000000000 0.00000000000000000 -1.00000000000000000 
1 0.00000000000000000 -0.00000000000000000 1.00000000000000000 0.00000000000000000 
1 0.00000000000000000 -10.00000000000000000 1.00000000000000000 0.00000000000000000 
1 15.00000000000000000 44.50000000000000000 -1.00000000000000000 0.00000000000000000 
1 72.50000000000000000 0.00000000000000000 -1.00000000000000000 0.00000000000000000 
1 0.00000000000000000 0.00000000000000000 1.00000000000000000 0.00000000000000000 
1 0.00000000000000000 -1.00000000000000000 1.00000000000000000 0.00000000000000000 
1 1.50000000000000000 -10.00000000000000000 0.00000000000000000 1.00000000000000000 
1 25.00000000000000000 -10.00000000000000000 -1.00000000000000000 -0.00000000000000000 
1 0.00000000000000000 0.00000000000000000 1.00000000000000000 0.00000000000000000 
1 0.00000000000000000 -2.00000000000000000 1.00000000000000000 0.00000000000000000 
1 -59.50000000000000000 44.50000000000000000 1.00000000000000000 0.00000000000000000 
1 0.00000000000000000 0.00000000000000000 0.00000000000000000 -1.00000000000000000 
1 0.00000000000000000 0.00000000000000000 1.00000000000000000 0.00000000000000000 
1 -0.00000000000000022 -1.00000000000000000 1.00000000000000000 0.00000000000000000 
1 -1.50000000000000000 -10.00000000000000000 1.00000000000000000 0.00000000000000000 
1 25.00000000000000000 -7.00000000000000000 0.00000000000000000 -1.00000000000000000 
1 -1.50000000000000000 10.00000000000000000 0.00000000000000000 -1.00000000000000000 
1 0.00000000000000000 0.00000000000000000 1.00000000000000000 0.00000000000000000 
1 0.00000000000000000 -1.00000000000000000 1.00000000000000000 0.00000000000000000 
1 5.00000000000000000 -7.00000000000000000 1.00000000000000000 0.00000000000000000 
1 0.00000000000000000 0.00000000000000000 1.00000000000000000 0.00000000000000000 
1 0.00000000000000022 -1.00000000000000000 1.00000000000000000 0.00000000000000000 
1 1.50000000000000000 10.00000000000000000 -1.00000000000000000 0.00000000000000000 
1 5.00000000000000000 -10.00000000000000000 0.00000000000000000 1.00000000000000000 
1 2.00000000000000000 0.00000000000000000 0.00000000000000000 -1.00000000000000000 
1 0.00000000000000000 -0.00000000000000000 0.00000000000000000 -1.00000000000000000 
1 72.50000000000000000 -2.00000000000000000 -1.00000000000000000 -0.00000000000000000 
1 72.50000000000000000 0.00000000000000000 0.00000000000000000 -1.00000000000000000 
1 59.50000000000000000 44.50000000000000000 0.00000000000000000 -1.00000000000000000 
1 0.00000000000000000 -0.00000000000000000 1.00000000000000000 0.00000000000000000 
1 0.00000000000000000 -2.00000000000000000 1.00000000000000000 0.00000000000000000 
1 59.50000000000000000 -44.50000000000000000 -1.00000000000000000 0.00000000000000000 
1 0.00000000000000000 0.00000000000000000 1.00000000000000000 0.00000000000000000 
1 0.00000000000000000 -10.00000000000000000 1.00000000000000000 0.00000000000000000 
1 -15.00000000000000000 -44.50000000000000000 1.00000000000000000 0.00000000000000000 
1 76.50000000000000000 0.00000000000000000 -1.00000000000000000 -0.00000000000000000 
1 -59.50000000000000000 -44.50000000000000000 0.00000000000000000 1.00000000000000000 
1 0.00000000000000000 0.00000000000000000 0.00000000000000000 -1.00000000000000000 
1 3.00000000000000000 -0.00000000000000067 0.00000000000000000 -1.00000000000000000 
1 20.00000000000000000 0.00000000000000000 0.00000000000000000 -1.00000000000000000 
1 0.00000000000000000 0.00000000000000000 0.00000000000000000 -1.00000000000000000 
1 76.50000000000000000 -2.00000000000000000 -1.00000000000000000 0.00000000000000000 
1 119.00000000000000000 0.00000000000000000 0.00000000000000000 -1.00000000000000000 
1 0.00000000000000000 0.00000000000000000 0.00000000000000000 -1.00000000000000000 
1 20.00000000000000000 0.00000000000000000 0.00000000000000000 -1.00000000000000000 
1 3.00000000000000000 0.00000000000000067 0.00000000000000000 -1.00000000000000000 
1 0.00000000000000000 0.00000000000000000 0.00000000000000000 -1.00000000000000000 
1 119.00000000000000000 0.00000000000000000 0.00000000000000000 -1.00000000000000000 
1 0.00000000000000000 -0.00000000000000000 0.00000000000000000 -1.00000000000000000 
1 30.00000000000000000 0.00000000000000000 0.00000000000000000 -1.00000000000000000 
1 0.00000000000000000 0.00000000000000000 0.00000000000000000 -1.00000000000000000 
1 46.50000000000000000 0.00000000000000000 0.00000000000000000 -1.00000000000000000 
1 0.00000000000000000 0.00000000000000000 1.00000000000000000 0.00000000000000000 
1 0.00000000000000000 -10.00000000000000000 1.00000000000000000 0.00000000000000000 
1 15.00000000000000000 -44.50000000000000000 0.00000000000000000 -1.00000000000000000 
1 0.00000000000000000 0.00000000000000000 0.00000000000000000 1.00000000000000000 
1 15.00000000000000000 -44.50999999999999801 -1.00000000000000000 0.00000000000000000 
1 0.00000000000000000 0.00000000000000000 1.00000000000000000 0.00000000000000000 
1 0.00000000000000000 -10.00000000000000000 1.00000000000000000 0.00000000000000000 
1 -15.00000000000000000 -46.50000000000000000 0.00000000000000000 1.00000000000000000 
1 0.00000000000000000 0.00000000000000000 0.00000000000000000 -1.00000000000000000 
1 2.00000000000000000 0.00000000000000000 0.00000000000000000 -1.00000000000000000 
1 76.50000000000000000 0.00000000000000000 0.00000000000000000 -1.00000000000000000 
1 0.00000000000000000 0.00000000000000000 1.00000000000000000 0.00000000000000000 
1 0.00000000000000022 -1.00000000000000000 1.00000000000000000 0.00000000000000000 
1 -1.50000000000000000 10.00000000000000000 1.00000000000000000 0.00000000000000000 
1 25.00000000000000000 -7.00000000000000000 0.00000000000000000 -1.00000000000000000 
1 -1.50000000000000000 -10.00000000000000000 0.00000000000000000 1.00000000000000000 
1 0.00000000000000000 0.00000000000000000 1.00000000000000000 0.00000000000000000 
1 0.00000000000000000 -1.00000000000000000 1.00000000000000000 0.00000000000000000 
1 5.00000000000000000 -7.00000000000000000 1.00000000000000000 0.00000000000000000 
1 0.00000000000000000 0.00000000000000000 1.00000000000000000 0.00000000000000000 
1 -0.00000000000000022 -1.00000000000000000 1.00000000000000000 0.00000000000000000 
1 1.50000000000000000 -10.00000000000000000 -1.00000000000000000 0.00000000000000000 
1 5.00000000000000000 -10.00000000000000000 0.00000000000000000 1.00000000000000000 
1 2.00000000000000000 0.00000000000000000 0.00000000000000000 -1.00000000000000000 
1 0.00000000000000000 0.00000000000000000 1.00000000000000000 0.00000000000000000 
2 0.01000000000000045 -1.98999999999999955 0.00000000000000000 1.00000000000000000 1.00000000000000000 -0.00000000000000000 1.98999999999999999
1 -1.57079632679489656 0.00000000000000000 1.00000000000000000 0.00000000000000000 
2 0.01000000000000045 -8.00999999999999979 0.00000000000000000 1.00000000000000000 1.00000000000000000 -0.00000000000000000 1.98999999999999999
1 1.57079632679489656 0.00000000000000000 0.00000000000000000 1.00000000000000000 
1 0.00000000000000000 -1.98999999999999932 1.00000000000000000 0.00000000000000000 
1 0.00000000000000000 30.00000000000000000 1.00000000000000000 0.00000000000000000 
2 1.98999999999999955 -1.98999999999999955 0.00000000000000000 1.00000000000000000 -1.00000000000000000 0.00000000000000000 1.98999999999999999
1 0.00000000000000000 0.00000000000000000 0.00000000000000000 -1.00000000000000000 
1 -1.57079632679489656 30.00000000000000000 1.00000000000000000 0.00000000000000000 
2 1.98999999999999955 -8.00999999999999979 0.00000000000000000 1.00000000000000000 -1.00000000000000000 0.00000000000000000 1.98999999999999999
1 1.57079632679489656 0.00000000000000000 0.00000000000000000 1.00000000000000000 
1 15.00000000000000000 -44.50999999999999801 -1.00000000000000000 0.00000000000000000 
1 0.00000000000000000 0.00000000000000000 1.00000000000000000 0.00000000000000000 
1 0.00000000000000000 -1.00000000000000000 1.00000000000000000 0.00000000000000000 
1 1.50000000000000000 10.00000000000000000 0.00000000000000000 -1.00000000000000000 
1 25.00000000000000000 -10.00000000000000000 -1.00000000000000000 0.00000000000000000 
1 0.00000000000000000 0.00000000000000000 0.00000000000000000 -1.00000000000000000 
1 20.00000000000000000 0.00000000000000000 0.00000000000000000 -1.00000000000000000 
1 0.00000000000000000 0.00000000000000000 0.00000000000000000 -1.00000000000000000 
1 3.00000000000000000 0.00000000000000000 0.00000000000000000 -1.00000000000000000 
1 3.00000000000000000 0.00000000000000000 0.00000000000000000 -1.00000000000000000 
1 0.00000000000000000 0.00000000000000000 0.00000000000000000 -1.00000000000000000 
1 20.00000000000000000 0.00000000000000000 0.00000000000000000 -1.00000000000000000 
1 0.00000000000000000 0.00000000000000000 0.00000000000000000 -1.00000000000000000 
1 0.00000000000000000 0.00000000000000000 0.00000000000000000 1.00000000000000000 
1 0.00000000000000000 -8.00999999999999979 1.00000000000000000 0.00000000000000000 
Curves 54
1 42.50000000000000000 91.00000000000000000 0.00000000000000000 0.00000000000000000 0.00000000000000000 1.00000000000000000 
8 3.14159265358979312 4.71238898038468967
2 42.50000000000000000 89.01000000000000512 1.98999999999999955 1.00000000000000000 0.00000000000000000 0.00000000000000000 -0.00000000000000000 0.00000000000000000 1.00000000000000000 0.00000000000000000 -1.00000000000000000 0.00000000000000000 1.98999999999999999
8 4.71238898038468967 6.28318530717958623
2 42.50000000000000000 89.01000000000000512 8.00999999999999979 1.00000000000000000 0.00000000000000000 0.00000000000000000 -0.00000000000000000 0.00000000000000000 1.00000000000000000 0.00000000000000000 -1.00000000000000000 0.00000000000000000 1.98999999999999999
1 42.50000000000000000 89.00000000000000000 0.00000000000000000 0.00000000000000000 1.00000000000000000 0.00000000000000000 
1 42.50000000000000000 89.00000000000000000 0.00000000000000000 0.00000000000000000 0.00000000000000000 1.00000000000000000 
1 42.50000000000000000 91.00000000000000000 1.98999999999999932 1.00000000000000000 0.00000000000000000 0.00000000000000000 
1 42.50000000000000000 91.00000000000000000 8.00999999999999979 1.00000000000000000 0.00000000000000000 0.00000000000000000 
1 72.50000000000000000 91.00000000000000000 0.00000000000000000 0.00000000000000000 0.00000000000000000 1.00000000000000000 
1 42.50000000000000000 89.01000000000000512 -0.00000000000000044 1.00000000000000000 0.00000000000000000 0.00000000000000000 
8 3.14159265358979312 4.71238898038468967
2 72.50000000000000000 89.01000000000000512 1.98999999999999955 1.00000000000000000 0.00000000000000000 0.00000000000000000 -0.00000000000000000 0.00000000000000000 1.00000000000000000 0.00000000000000000 -1.00000000000000000 0.00000000000000000 1.98999999999999999
1 42.50000000000000000 89.01000000000000512 10.00000000000000000 1.00000000000000000 0.00000000000000000 0.00000000000000000 
8 4.71238898038468967 6.28318530717958623
2 72.50000000000000000 89.01000000000000512 8.00999999999999979 1.00000000000000000 0.00000000000000000 0.00000000000000000 -0.00000000000000000 0.00000000000000000 1.00000000000000000 0.00000000000000000 -1.00000000000000000 0.00000000000000000 1.98999999999999999
1 72.50000000000000000 91.00000000000000000 0.00000000000000000 0.00000000000000000 -1.00000000000000000 0.00000000000000000 
1 72.50000000000000000 89.00000000000000000 0.00000000000000000 -1.00000000000000000 0.00000000000000000 0.00000000000000000 
1 47.50000000000000000 10.00000000000000000 0.00000000000000000 1.00000000000000000 0.00000000000000000 0.00000000000000000 
1 0.00000000000000000 89.00000000000000000 0.00000000000000000 1.00000000000000000 0.00000000000000000 0.00000000000000000 
1 0.00000000000000000 89.00000000000000000 0.00000000000000000 0.00000000000000000 0.00000000000000000 1.00000000000000000 
1 47.50000000000000000 7.00000000000000000 0.00000000000000000 0.00000000000000000 1.00000000000000000 0.00000000000000000 
1 67.50000000000000000 7.00000000000000000 0.00000000000000000 -1.00000000000000000 0.00000000000000000 0.00000000000000000 
1 67.50000000000000000 10.00000000000000000 0.00000000000000000 0.00000000000000000 -1.00000000000000000 0.00000000000000000 
1 72.50000000000000000 89.00000000000000000 0.00000000000000000 0.00000000000000000 0.00000000000000000 1.00000000000000000 
1 119.00000000000000000 89.00000000000000000 0.00000000000000000 0.00000000000000000 -1.00000000000000000 0.00000000000000000 
1 119.00000000000000000 0.00000000000000000 0.00000000000000000 -1.00000000000000000 0.00000000000000000 0.00000000000000000 
1 42.50000000000000000 0.00000000000000000 0.00000000000000000 1.00000000000000000 0.00000000000000000 0.00000000000000000 
1 0.00000000000000000 0.00000000000000000 0.00000000000000000 0.00000000000000000 1.00000000000000000 0.00000000000000000 
1 47.50000000000000000 89.00000000000000000 10.00000000000000000 0.00000000000000000 -1.00000000000000000 0.00000000000000022 
1 67.50000000000000000 89.00000000000000000 10.00000000000000000 0.00000000000000000 -1.00000000000000000 0.00000000000000022 
1 0.00000000000000000 0.00000000000000000 0.00000000000000000 0.00000000000000000 0.00000000000000000 1.00000000000000000 
1 47.50000000000000000 89.00000000000000000 7.00000000000000000 0.00000000000000000 -1.00000000000000000 0.00000000000000022 
1 67.50000000000000000 89.00000000000000000 7.00000000000000000 0.00000000000000000 -1.00000000000000000 0.00000000000000022 
1 119.00000000000000000 89.00000000000000000 0.00000000000000000 0.00000000000000000 0.00000000000000000 1.00000000000000000 
1 119.00000000000000000 0.00000000000000000 0.00000000000000000 0.00000000000000000 0.00000000000000000 1.00000000000000000 
1 72.50000000000000000 0.00000000000000000 0.00000000000000000 0.00000000000000000 0.00000000000000000 1.00000000000000000 
1 72.50000000000000000 0.00000000000000000 0.00000000000000000 0.00000000000000000 -1.00000000000000000 0.00000000000000000 
1 72.50000000000000000 -0.01000000000000045 -0.00000000000000044 -1.00000000000000000 0.00000000000000000 0.00000000000000000 
1 42.50000000000000000 -2.00000000000000000 0.00000000000000000 0.00000000000000000 1.00000000000000000 0.00000000000000000 
1 42.50000000000000000 0.00000000000000000 0.00000000000000000 0.00000000000000000 0.00000000000000000 1.00000000000000000 
1 -67.50000000000000000 7.00000000000000000 0.00000000000000000 0.00000000000000000 1.00000000000000000 0.00000000000000000 
1 -47.50000000000000000 7.00000000000000000 0.00000000000000000 -1.00000000000000000 0.00000000000000000 0.00000000000000000 
1 -47.50000000000000000 10.00000000000000000 0.00000000000000000 0.00000000000000000 -1.00000000000000000 0.00000000000000000 
1 72.50000000000000000 -2.00000000000000000 0.00000000000000000 0.00000000000000000 0.00000000000000000 1.00000000000000000 
8 0.00000000000000000 1.57079632679489656
2 72.50000000000000000 -0.01000000000000045 1.98999999999999955 -1.00000000000000000 0.00000000000000000 0.00000000000000000 0.00000000000000000 0.00000000000000000 -1.00000000000000000 -0.00000000000000000 -1.00000000000000000 -0.00000000000000000 1.98999999999999999
8 1.57079632679489656 3.14159265358979312
2 72.50000000000000000 -0.01000000000000045 8.00999999999999979 -1.00000000000000000 0.00000000000000000 0.00000000000000000 0.00000000000000000 0.00000000000000000 -1.00000000000000000 -0.00000000000000000 -1.00000000000000000 -0.00000000000000000 1.98999999999999999
1 72.50000000000000000 -2.00000000000000044 1.98999999999999932 -1.00000000000000000 0.00000000000000000 0.00000000000000000 
8 0.00000000000000000 1.57079632679489656
2 42.50000000000000000 -0.01000000000000045 1.98999999999999955 -1.00000000000000000 0.00000000000000000 0.00000000000000000 0.00000000000000000 0.00000000000000000 -1.00000000000000000 -0.00000000000000000 -1.00000000000000000 -0.00000000000000000 1.98999999999999999
1 42.50000000000000000 -2.00000000000000000 0.00000000000000000 0.00000000000000000 0.00000000000000000 1.00000000000000000 
8 1.57079632679489656 3.14159265358979312
2 42.50000000000000000 -0.01000000000000045 8.00999999999999979 -1.00000000000000000 0.00000000000000000 0.00000000000000000 0.00000000000000000 0.00000000000000000 -1.00000000000000000 -0.00000000000000000 -1.00000000000000000 -0.00000000000000000 1.98999999999999999
1 72.50000000000000000 -0.01000000000000057 10.00000000000000000 -1.00000000000000000 0.00000000000000000 0.00000000000000000 
1 -67.50000000000000000 10.00000000000000000 0.00000000000000000 1.00000000000000000 0.00000000000000000 0.00000000000000000 
1 67.50000000000000000 0.00000000000000155 7.00000000000000000 0.00000000000000000 1.00000000000000000 -0.00000000000000022 
1 67.50000000000000000 0.00000000000000222 10.00000000000000000 0.00000000000000000 1.00000000000000000 -0.00000000000000022 
1 47.50000000000000000 0.00000000000000155 7.00000000000000000 0.00000000000000000 1.00000000000000000 -0.00000000000000022 
1 47.50000000000000000 0.00000000000000222 10.00000000000000000 0.00000000000000000 1.00000000000000000 -0.00000000000000022 
1 72.50000000000000000 -2.00000000000000044 8.00999999999999979 -1.00000000000000000 0.00000000000000000 0.00000000000000000 
Polygon3D 0
PolygonOnTriangulations 0
Surfaces 29
1 42.50000000000000000 89.00000000000000000 0.00000000000000000 -1.00000000000000000 0.00000000000000000 0.00000000000000000 0.00000000000000000 1.00000000000000000 0.00000000000000000 0.00000000000000000 0.00000000000000000 -1.00000000000000000 
2 42.50000000000000000 89.01000000000000512 1.98999999999999955 1.00000000000000000 0.00000000000000000 0.00000000000000000 0.00000000000000000 0.00000000000000000 -1.00000000000000000 -0.00000000000000000 1.00000000000000000 0.00000000000000000 1.98999999999999999
2 42.50000000000000000 89.01000000000000512 8.00999999999999979 1.00000000000000000 0.00000000000000000 0.00000000000000000 -0.00000000000000000 1.00000000000000000 0.00000000000000000 0.00000000000000000 -0.00000000000000000 1.00000000000000000 1.98999999999999999
1 57.50000000000000000 44.50000000000000000 0.00000000000000000 0.00000000000000000 0.00000000000000000 1.00000000000000000 1.00000000000000000 0.00000000000000000 -0.00000000000000000 -0.00000000000000000 1.00000000000000000 0.00000000000000000 
1 72.50000000000000000 89.00000000000000000 0.00000000000000000 0.00000000000000000 -1.00000000000000000 0.00000000000000000 -1.00000000000000000 0.00000000000000000 0.00000000000000000 -0.00000000000000000 -0.00000000000000000 -1.00000000000000000 
1 0.00000000000000000 89.00000000000000000 0.00000000000000000 0.00000000000000000 1.00000000000000000 0.00000000000000000 1.00000000000000000 0.00000000000000000 0.00000000000000000 0.00000000000000000 0.00000000000000000 -1.00000000000000000 
1 42.50000000000000000 91.00000000000000000 0.00000000000000000 0.00000000000000000 1.00000000000000000 0.00000000000000000 1.00000000000000000 0.00000000000000000 0.00000000000000000 0.00000000000000000 0.00000000000000000 -1.00000000000000000 
1 72.50000000000000000 91.00000000000000000 0.00000000000000000 1.00000000000000000 0.00000000000000000 -0.00000000000000000 0.00000000000000000 -1.00000000000000000 0.00000000000000000 0.00000000000000000 -0.00000000000000000 -1.00000000000000000 
1 47.50000000000000000 89.00000000000000000 10.00000000000000000 -0.00000000000000000 0.00000000000000022 1.00000000000000000 1.00000000000000000 0.00000000000000000 0.00000000000000000 0.00000000000000000 1.00000000000000000 -0.00000000000000022 
1 57.50000000000000000 89.00000000000000000 8.50000000000000000 0.00000000000000000 1.00000000000000000 0.00000000000000000 0.00000000000000000 -0.00000000000000000 1.00000000000000000 1.00000000000000000 0.00000000000000000 -0.00000000000000000 
1 59.50000000000000000 44.50000000000000000 0.00000000000000000 0.00000000000000000 0.00000000000000000 1.00000000000000000 1.00000000000000000 0.00000000000000000 -0.00000000000000000 -0.00000000000000000 1.00000000000000000 0.00000000000000000 
1 47.50000000000000000 89.00000000000000000 7.00000000000000000 -1.00000000000000000 0.00000000000000000 0.00000000000000000 0.00000000000000000 0.00000000000000022 1.00000000000000000 0.00000000000000000 1.00000000000000000 -0.00000000000000022 
1 67.50000000000000000 89.00000000000000000 7.00000000000000000 -0.00000000000000000 -0.00000000000000022 -1.00000000000000000 -1.00000000000000000 0.00000000000000000 0.00000000000000000 0.00000000000000000 1.00000000000000000 -0.00000000000000022 
1 67.50000000000000000 89.00000000000000000 10.00000000000000000 1.00000000000000000 0.00000000000000000 0.00000000000000000 0.00000000000000000 -0.00000000000000022 -1.00000000000000000 0.00000000000000000 1.00000000000000000 -0.00000000000000022 
1 119.00000000000000000 0.00000000000000000 0.00000000000000000 0.00000000000000000 -1.00000000000000000 0.00000000000000000 -1.00000000000000000 0.00000000000000000 0.00000000000000000 -0.00000000000000000 -0.00000000000000000 -1.00000000000000000 
1 42.50000000000000000 0.00000000000000000 0.00000000000000000 0.00000000000000000 1.00000000000000000 0.00000000000000000 1.00000000000000000 0.00000000000000000 0.00000000000000000 0.00000000000000000 0.00000000000000000 -1.00000000000000000 
1 57.50000000000000000 44.50000000000000000 0.00000000000000000 0.00000000000000000 0.00000000000000000 1.00000000000000000 1.00000000000000000 0.00000000000000000 -0.00000000000000000 -0.00000000000000000 1.00000000000000000 0.00000000000000000 
1 0.00000000000000000 0.00000000000000000 0.00000000000000000 -1.00000000000000000 0.00000000000000000 0.00000000000000000 0.00000000000000000 1.00000000000000000 0.00000000000000000 0.00000000000000000 0.00000000000000000 -1.00000000000000000 
1 119.00000000000000000 89.00000000000000000 0.00000000000000000 1.00000000000000000 0.00000000000000000 -0.00000000000000000 0.00000000000000000 -1.00000000000000000 0.00000000000000000 0.00000000000000000 -0.00000000000000000 -1.00000000000000000 
1 72.50000000000000000 0.00000000000000000 0.00000000000000000 1.00000000000000000 0.00000000000000000 -0.00000000000000000 0.00000000000000000 -1.00000000000000000 0.00000000000000000 0.00000000000000000 -0.00000000000000000 -1.00000000000000000 
2 72.50000000000000000 -0.01000000000000045 1.98999999999999955 -1.00000000000000000 0.00000000000000000 0.00000000000000000 0.00000000000000000 0.00000000000000000 -1.00000000000000000 -0.00000000000000000 -1.00000000000000000 -0.00000000000000000 1.98999999999999999
1 42.50000000000000000 -2.00000000000000000 0.00000000000000000 -1.00000000000000000 0.00000000000000000 0.00000000000000000 0.00000000000000000 1.00000000000000000 0.00000000000000000 0.00000000000000000 0.00000000000000000 -1.00000000000000000 
1 67.50000000000000000 0.00000000000000155 7.00000000000000000 1.00000000000000000 -0.00000000000000000 0.00000000000000000 0.00000000000000000 0.00000000000000022 1.00000000000000000 -0.00000000000000000 -1.00000000000000000 0.00000000000000022 
1 57.50000000000000000 0.00000000000000189 8.50000000000000000 0.00000000000000000 1.00000000000000000 -0.00000000000000022 0.00000000000000000 0.00000000000000022 1.00000000000000000 1.00000000000000000 -0.00000000000000000 0.00000000000000000 
1 47.50000000000000000 0.00000000000000155 7.00000000000000000 0.00000000000000000 -0.00000000000000022 -1.00000000000000000 1.00000000000000000 0.00000000000000000 0.00000000000000000 0.00000000000000000 -1.00000000000000000 0.00000000000000022 
1 47.50000000000000000 0.00000000000000222 10.00000000000000000 -1.00000000000000000 0.00000000000000000 -0.00000000000000000 0.00000000000000000 -0.00000000000000022 -1.00000000000000000 -0.00000000000000000 -1.00000000000000000 0.00000000000000022 
2 72.50000000000000000 -0.01000000000000045 8.00999999999999979 -1.00000000000000000 0.00000000000000000 0.00000000000000000 0.00000000000000000 -1.00000000000000000 0.00000000000000000 0.00000000000000000 0.00000000000000000 1.00000000000000000 1.98999999999999999
1 72.50000000000000000 -2.00000000000000000 0.00000000000000000 0.00000000000000000 -1.00000000000000000 0.00000000000000000 -1.00000000000000000 0.00000000000000000 0.00000000000000000 -0.00000000000000000 -0.00000000000000000 -1.00000000000000000 
1 67.50000000000000000 0.00000000000000222 10.00000000000000000 0.00000000000000000 0.00000000000000022 1.00000000000000000 -1.00000000000000000 0.00000000000000000 0.00000000000000000 0.00000000000000000 -1.00000000000000000 0.00000000000000022 
Triangulations 0

TShapes 180
Ve
0.000000100000000
42.500000000000000 91.000000000000000 1.989999999999999
0 0

0101101
*
Ve
0.000000100000000
42.500000000000000 91.000000000000000 8.010000000000000
0 0

0101101
*
Ed
 0.000000100000000 1 1 0
1  1 0 1.989999999999999 8.010000000000000
2  1 1 0 1.989999999999999 8.010000000000000
0

0101000
+180 8 -179 8 *
Ve
0.000000100000000
42.500000000000000 89.010000000000005 -0.000000000000000
0 0

0101101
*
Ed
 0.000000100000000 1 1 0
1  2 0 3.141592653589793 4.712388980384690
2  2 2 0 3.141592653589793 4.712388980384690
2  3 1 7 3.141592653589793 4.712388980384690
0

0101000
+177 0 -180 0 *
Ve
0.000000100000000
42.500000000000000 89.010000000000005 10.000000000000000
0 0

0101101
*
Ed
 0.000000100000000 1 1 0
1  3 0 4.712388980384690 6.283185307179586
2  4 3 0 4.712388980384690 6.283185307179586
2  5 1 7 4.712388980384690 6.283185307179586
0

0101000
+179 0 -175 0 *
Ve
0.000000100000000
42.500000000000000 89.000000000000000 0.000000000000000
0 0

0101101
*
Ed
 0.000000100000000 1 1 0
1  4 0 0.000000000000000 0.010000000000005
2  6 1 13 0.000000000000000 0.010000000000005
2  7 1 15 0.000000000000000 0.010000000000005
2  8 4 16 0.000000000000000 0.010000000000005
0

0101000
-177 17 +173 0 *
Ed
 0.000000100000000 1 1 0
1  4 0 0.000000000000000 0.010000000000005
2  6 1 13 0.000000000000000 0.010000000000005
2  7 1 15 0.000000000000000 0.010000000000005
2  8 4 16 0.000000000000000 0.010000000000005
0

0101000
-175 19 +173 0 *
Ve
0.000000100000000
42.500000000000000 89.000000000000000 2.000000000000000
0 0

0101101
*
Ed
 0.000000100000000 1 1 0
1  5 0 0.000000000000000 2.000000000000000
2  9 5 0 0.000000000000000 2.000000000000000
2  10 1 0 0.000000000000000 2.000000000000000
2  11 6 21 0.000000000000000 2.000000000000000
0

0101000
+173 22 -170 0 *
Ed
 0.000000100000000 1 1 0
1  5 0 2.000000000000000 10.000000000000000
2  9 5 0 2.000000000000000 10.000000000000000
2  10 1 0 2.000000000000000 10.000000000000000
0

0101000
+170 0 -173 23 *
Wi

0101100
-178 7 -176 0 -174 0 -172 12 +171 18 +169 7 +168 7 *
Fa
0  0.000000100000000 1 0

0101000
+167 8 *
Ve
0.000000100000000
72.500000000000000 91.000000000000000 1.989999999999999
0 0

0101101
*
Ed
 0.000000100000000 1 1 0
1  6 0 0.000000000000000 30.000000000000000
2  12 2 0 0.000000000000000 30.000000000000000
2  13 7 7 0.000000000000000 30.000000000000000
4 G1 2 0 7 7
0

0101000
+180 0 -165 0 *
Ve
0.000000100000000
72.500000000000000 91.000000000000000 8.010000000000000
0 0

0101101
*
Ed
 0.000000100000000 1 1 0
1  7 0 0.000000000000000 30.000000000000000
2  14 3 0 0.000000000000000 30.000000000000000
2  15 7 7 0.000000000000000 30.000000000000000
4 G1 3 0 7 7
0

0101000
+179 0 -163 0 *
Ed
 0.000000100000000 1 1 0
1  8 0 1.989999999999999 8.010000000000000
2  16 8 0 1.989999999999999 8.010000000000000
0

0101000
+165 8 -163 8 *
Wi

0101100
+178 7 -164 0 +162 0 -161 7 *
Fa
0  0.000000100000000 7 0

0101000
+160 8 *
Ve
0.000000100000000
72.500000000000000 89.010000000000005 -0.000000000000000
0 0

0101101
*
Ed
 0.000000100000000 1 1 0
1  9 0 0.000000000000000 30.000000000000000
2  17 2 0 0.000000000000000 30.000000000000000
2  18 4 24 0.000000000000000 30.000000000000000
4 G1 2 0 4 24
0

0101000
+177 0 -158 0 *
Ed
 0.000000100000000 1 1 0
1  10 0 3.141592653589793 4.712388980384690
2  19 2 0 3.141592653589793 4.712388980384690
2  20 8 7 3.141592653589793 4.712388980384690
0

0101000
+158 0 -165 0 *
Wi

0101100
+176 0 -157 0 +164 0 -156 0 *
Fa
0  0.000000000000000 2 0

0101000
+155 0 *
Ve
0.000000100000000
72.500000000000000 89.010000000000005 10.000000000000000
0 0

0101101
*
Ed
 0.000000100000000 1 1 0
1  11 0 0.000000000000000 30.000000000000000
2  21 3 0 0.000000000000000 30.000000000000000
2  22 4 25 0.000000000000000 30.000000000000000
4 G1 3 0 4 25
0

0101000
+175 0 -153 0 *
Ed
 0.000000100000000 1 1 0
1  12 0 4.712388980384690 6.283185307179586
2  23 3 0 4.712388980384690 6.283185307179586
2  24 8 7 4.712388980384690 6.283185307179586
0

0101000
+163 0 -153 0 *
Wi

0101100
+174 0 -162 0 +152 0 -151 0 *
Fa
0  0.000000000000000 3 0

0101000
+150 0 *
Ve
0.000000100000000
72.500000000000000 89.000000000000000 0.000000000000000
0 0

0101101
*
Ed
 0.000000100000000 1 1 0
1  13 0 1.989999999999995 2.000000000000000
2  25 8 13 1.989999999999995 2.000000000000000
2  26 8 15 1.989999999999995 2.000000000000000
2  27 4 16 1.989999999999995 2.000000000000000
0

0101000
+158 17 -148 0 *
Ed
 0.000000100000000 1 1 0
1  14 0 0.000000000000000 30.000000000000000
2  28 5 13 0.000000000000000 30.000000000000000
2  29 5 15 0.000000000000000 30.000000000000000
2  30 4 16 0.000000000000000 30.000000000000000
2  31 6 27 0.000000000000000 30.000000000000000
0

0101000
+148 0 -173 0 *
Wi

0101100
-147 12 -157 0 -146 12 -172 12 *
Fa
0  0.000000100000000 4 0

0101000
+145 26 *
Ed
 0.000000100000000 1 1 0
1  13 0 1.989999999999995 2.000000000000000
2  25 8 13 1.989999999999995 2.000000000000000
2  26 8 15 1.989999999999995 2.000000000000000
2  27 4 16 1.989999999999995 2.000000000000000
0

0101000
+153 19 -148 0 *
Ve
0.000000100000000
67.500000000000000 10.000000000000000 0.000000000000000
0 0

0101101
*
Ed
 0.000000100000000 1 1 0
1  14 0 0.000000000000000 5.000000000000000
2  28 5 13 0.000000000000000 5.000000000000000
2  29 5 15 0.000000000000000 5.000000000000000
2  30 4 16 0.000000000000000 5.000000000000000
2  31 6 27 0.000000000000000 5.000000000000000
0

0101000
+148 0 -142 33 *
Ve
0.000000100000000
47.500000000000000 10.000000000000000 0.000000000000000
0 0

0101101
*
Ed
 0.000000100000000 1 1 0
1  15 0 0.000000000000000 20.000000000000000
2  32 9 35 0.000000000000000 20.000000000000000
2  33 9 37 0.000000000000000 20.000000000000000
2  34 10 38 0.000000000000000 20.000000000000000
2  35 5 39 0.000000000000000 20.000000000000000
0

0101000
+140 0 -142 0 *
Ed
 0.000000100000000 1 1 0
1  14 0 25.000000000000000 30.000000000000000
2  28 5 13 25.000000000000000 30.000000000000000
2  29 5 15 25.000000000000000 30.000000000000000
2  30 4 16 25.000000000000000 30.000000000000000
2  31 6 27 25.000000000000000 30.000000000000000
0

0101000
+140 33 -173 0 *
Wi

0101100
-143 18 -152 0 -141 18 -171 18 +139 34 -138 18 *
Fa
0  0.000000100000000 4 29

0101000
+137 30 *
Ve
0.000000100000000
0.000000000000000 89.000000000000000 0.000000000000000
0 0

0101101
*
Ed
 0.000000100000000 1 1 0
1  16 0 0.000000000000000 42.500000000000000
2  36 6 44 0.000000000000000 42.500000000000000
2  37 6 46 0.000000000000000 42.500000000000000
2  38 11 47 0.000000000000000 42.500000000000000
0

0101000
+135 0 -173 48 *
Ed
 0.000000100000000 1 1 0
1  16 0 0.000000000000000 42.500000000000000
2  36 6 44 0.000000000000000 42.500000000000000
2  37 6 46 0.000000000000000 42.500000000000000
2  38 11 47 0.000000000000000 42.500000000000000
0

0101000
+135 0 -170 50 *
Ed
 0.000000100000000 1 1 0
1  17 0 0.000000000000000 2.000000000000000
2  39 6 0 0.000000000000000 2.000000000000000
0

0101000
+135 51 -135 52 *
Wi

0101100
-134 43 -169 0 +133 49 +132 21 *
Fa
0  0.000000100000000 6 21

0101000
+131 0 *
Ve
0.000000100000000
47.500000000000000 7.000000000000000 0.000000000000000
0 0

0101101
*
Ed
 0.000000100000000 1 1 0
1  18 0 0.000000000000000 3.000000000000000
2  40 12 35 0.000000000000000 3.000000000000000
2  41 12 37 0.000000000000000 3.000000000000000
2  42 10 38 0.000000000000000 3.000000000000000
2  43 5 39 0.000000000000000 3.000000000000000
0

0101000
+129 0 -140 0 *
Ve
0.000000100000000
67.500000000000000 7.000000000000000 0.000000000000000
0 0

0101101
*
Ed
 0.000000100000000 1 1 0
1  19 0 0.000000000000000 20.000000000000000
2  44 10 38 0.000000000000000 20.000000000000000
2  45 13 35 0.000000000000000 20.000000000000000
2  46 13 37 0.000000000000000 20.000000000000000
2  47 5 39 0.000000000000000 20.000000000000000
0

0101000
+127 0 -129 0 *
Ed
 0.000000100000000 1 1 0
1  20 0 0.000000000000000 3.000000000000000
2  48 14 35 0.000000000000000 3.000000000000000
2  49 14 37 0.000000000000000 3.000000000000000
2  50 10 38 0.000000000000000 3.000000000000000
2  51 5 39 0.000000000000000 3.000000000000000
0

0101000
+142 0 -127 0 *
Ve
0.000000100000000
72.500000000000000 89.000000000000000 2.000000000000000
0 0

0101101
*
Ed
 0.000000100000000 1 1 0
1  21 0 2.000000000000000 10.000000000000000
2  52 8 0 2.000000000000000 10.000000000000000
2  53 5 0 2.000000000000000 10.000000000000000
0

0101000
+124 0 -148 23 *
Ed
 0.000000100000000 1 1 0
1  16 0 42.500000000000000 72.500000000000000
2  36 6 44 42.500000000000000 72.500000000000000
2  37 6 46 42.500000000000000 72.500000000000000
2  38 11 47 42.500000000000000 72.500000000000000
2  54 5 50 42.500000000000000 72.500000000000000
0

0101000
+170 50 -124 50 *
Wi

0101100
-168 53 +138 54 +128 55 +126 55 +125 55 +141 54 +123 53 +122 56 *
Fa
0  0.000000100000000 5 53

0101000
+121 0 *
Ed
 0.000000100000000 1 1 0
1  21 0 0.000000000000000 2.000000000000000
2  52 8 0 0.000000000000000 2.000000000000000
2  53 5 0 0.000000000000000 2.000000000000000
2  55 6 21 0.000000000000000 2.000000000000000
0

0101000
+148 22 -124 0 *
Wi

0101100
+161 7 +156 0 +151 0 -147 12 +143 18 -119 7 -123 7 *
Fa
0  0.000000100000000 8 0

0101000
+118 8 *
Ve
0.000000100000000
119.000000000000000 89.000000000000000 0.000000000000000
0 0

0101101
*
Ed
 0.000000100000000 1 1 0
1  16 0 72.500000000000000 119.000000000000000
2  36 6 44 72.500000000000000 119.000000000000000
2  37 6 46 72.500000000000000 119.000000000000000
2  38 11 47 72.500000000000000 119.000000000000000
0

0101000
+148 48 -116 0 *
Ve
0.000000100000000
119.000000000000000 0.000000000000000 0.000000000000000
0 0

0101101
*
Ed
 0.000000100000000 1 1 0
1  22 0 0.000000000000000 89.000000000000000
2  56 11 47 0.000000000000000 89.000000000000000
0

0101000
+116 0 -114 0 *
Ve
0.000000100000000
72.500000000000000 0.000000000000000 0.000000000000000
0 0

0101101
*
Ed
 0.000000100000000 1 1 0
1  23 0 0.000000000000000 46.500000000000000
2  57 15 44 0.000000000000000 46.500000000000000
2  58 15 46 0.000000000000000 46.500000000000000
2  59 11 47 0.000000000000000 46.500000000000000
0

0101000
+114 0 -112 48 *
Ve
0.000000100000000
42.500000000000000 0.000000000000000 0.000000000000000
0 0

0101101
*
Ed
 0.000000100000000 1 1 0
1  24 0 0.000000000000000 30.000000000000000
2  60 16 13 0.000000000000000 30.000000000000000
2  61 16 15 0.000000000000000 30.000000000000000
2  62 17 16 0.000000000000000 30.000000000000000
2  63 15 27 0.000000000000000 30.000000000000000
0

0101000
+110 0 -112 0 *
Ve
0.000000100000000
0.000000000000000 0.000000000000000 0.000000000000000
0 0

0101101
*
Ed
 0.000000100000000 1 1 0
1  23 0 76.500000000000000 119.000000000000000
2  57 15 44 76.500000000000000 119.000000000000000
2  58 15 46 76.500000000000000 119.000000000000000
2  59 11 47 76.500000000000000 119.000000000000000
0

0101000
+110 48 -108 0 *
Ed
 0.000000100000000 1 1 0
1  25 0 0.000000000000000 89.000000000000000
2  64 11 47 0.000000000000000 89.000000000000000
0

0101000
+108 0 -135 0 *
Wi

0101100
+134 43 -146 22 +115 43 +113 43 +111 43 -109 22 +107 43 +106 43 *
Fa
0  0.000000100000000 11 57

0101000
-105 0 *
Ed
 0.000000100000000 1 1 0
1  26 0 0.000000000000000 1.000000000000000
2  65 9 0 0.000000000000000 1.000000000000000
2  66 12 0 0.000000000000000 1.000000000000000
0

0101000
+140 55 -140 58 *
Ed
 0.000000100000000 1 1 0
1  27 0 0.000000000000000 1.000000000000000
2  67 9 0 0.000000000000000 1.000000000000000
2  68 14 0 0.000000000000000 1.000000000000000
0

0101000
+142 55 -142 58 *
Wi

0101100
+103 0 -102 0 -139 55 +139 58 *
Fa
0  0.000000100000000 9 0

0101000
+101 0 *
Ed
 0.000000100000000 1 1 0
1  16 0 72.500000000000000 119.000000000000000
2  36 6 44 72.500000000000000 119.000000000000000
2  37 6 46 72.500000000000000 119.000000000000000
2  38 11 47 72.500000000000000 119.000000000000000
0

0101000
+124 50 -116 0 *
Ve
0.000000100000000
72.500000000000000 0.000000000000000 2.000000000000000
0 0

0101101
*
Ed
 0.000000100000000 1 1 0
1  23 0 0.000000000000000 46.500000000000000
2  57 15 44 0.000000000000000 46.500000000000000
2  58 15 46 0.000000000000000 46.500000000000000
2  59 11 47 0.000000000000000 46.500000000000000
0

0101000
+114 0 -98 50 *
Ve
0.000000100000000
42.500000000000000 0.000000000000000 2.000000000000000
0 0

0101101
*
Ed
 0.000000100000000 1 1 0
1  23 0 46.500000000000000 76.500000000000000
2  57 15 44 46.500000000000000 76.500000000000000
2  58 15 46 46.500000000000000 76.500000000000000
2  59 11 47 46.500000000000000 76.500000000000000
2  69 16 50 46.500000000000000 76.500000000000000
0

0101000
+98 50 -96 50 *
Ed
 0.000000100000000 1 1 0
1  23 0 76.500000000000000 119.000000000000000
2  57 15 44 76.500000000000000 119.000000000000000
2  58 15 46 76.500000000000000 119.000000000000000
2  59 11 47 76.500000000000000 119.000000000000000
0

0101000
+96 50 -108 0 *
Wi

0101100
+133 49 +122 49 +99 49 +113 49 +97 49 +95 49 +94 49 +106 49 *
Fa
0  0.000000100000000 11 59

0101000
-93 0 *
Ed
 0.000000100000000 1 1 0
1  28 0 0.000000000000000 2.000000000000000
2  70 15 0 0.000000000000000 2.000000000000000
0

0101000
+108 51 -108 52 *
Wi

0101100
+91 0 -132 0 -106 51 +106 52 *
Fa
0  0.000000100000000 18 0

0101000
+90 0 *
Ed
 0.000000100000000 1 1 0
1  29 0 0.000000000000000 1.000000000000000
2  71 12 0 0.000000000000000 1.000000000000000
2  72 13 0 0.000000000000000 1.000000000000000
0

0101000
+129 55 -129 58 *
Wi

0101100
+88 0 -103 0 -128 55 +128 58 *
Fa
0  0.000000100000000 12 0

0101000
+87 0 *
Ed
 0.000000100000000 1 1 0
1  30 0 0.000000000000000 1.000000000000000
2  73 14 0 0.000000000000000 1.000000000000000
2  74 13 0 0.000000000000000 1.000000000000000
0

0101000
+127 55 -127 58 *
Wi

0101100
+85 0 -88 0 -126 55 +126 58 *
Fa
0  0.000000100000000 13 0

0101000
+84 0 *
Wi

0101100
+102 0 -85 0 -125 55 +125 58 *
Fa
0  0.000000100000000 14 0

0101000
+82 0 *
Ed
 0.000000100000000 1 1 0
1  31 0 0.000000000000000 2.000000000000000
2  75 6 0 0.000000000000000 2.000000000000000
0

0101000
+116 51 -116 52 *
Wi

0101100
-115 43 -80 21 +99 49 +119 0 *
Fa
0  0.000000100000000 6 21

0101000
+79 0 *
Ed
 0.000000100000000 1 1 0
1  32 0 0.000000000000000 2.000000000000000
2  76 15 0 0.000000000000000 2.000000000000000
0

0101000
+114 51 -114 52 *
Wi

0101100
+80 0 -77 0 -113 51 +113 52 *
Fa
0  0.000000100000000 19 0

0101000
+76 0 *
Ed
 0.000000100000000 1 1 0
1  33 0 0.000000000000000 2.000000000000000
2  77 16 0 0.000000000000000 2.000000000000000
2  78 20 0 0.000000000000000 2.000000000000000
2  79 15 21 0.000000000000000 2.000000000000000
0

0101000
+112 22 -98 0 *
Wi

0101100
-111 43 -74 0 +97 49 +77 21 *
Fa
0  0.000000100000000 15 21

0101000
+73 0 *
Ve
0.000000100000000
72.500000000000000 -0.010000000000000 -0.000000000000000
0 0

0101101
*
Ed
 0.000000100000000 1 1 0
1  34 0 0.000000000000000 0.010000000000000
2  80 20 13 0.000000000000000 0.010000000000000
2  81 20 15 0.000000000000000 0.010000000000000
2  82 17 16 0.000000000000000 0.010000000000000
0

0101000
-71 17 +112 0 *
Ve
0.000000100000000
42.500000000000000 -0.010000000000000 -0.000000000000000
0 0

0101101
*
Ed
 0.000000100000000 1 1 0
1  35 0 0.000000000000000 30.000000000000000
2  83 21 0 0.000000000000000 30.000000000000000
2  84 17 24 0.000000000000000 30.000000000000000
4 G1 21 0 17 24
0

0101000
+71 0 -69 0 *
Ed
 0.000000100000000 1 1 0
1  36 0 1.990000000000000 2.000000000000000
2  85 22 13 1.990000000000000 2.000000000000000
2  86 22 15 1.990000000000000 2.000000000000000
2  87 17 16 1.990000000000000 2.000000000000000
0

0101000
+69 17 -110 0 *
Wi

0101100
-70 12 -68 0 -109 12 -67 12 *
Fa
0  0.000000100000000 17 0

0101000
+66 26 *
Ed
 0.000000100000000 1 1 0
1  37 0 0.000000000000000 2.000000000000000
2  88 16 0 0.000000000000000 2.000000000000000
2  89 22 0 0.000000000000000 2.000000000000000
2  90 15 21 0.000000000000000 2.000000000000000
0

0101000
+110 22 -96 0 *
Wi

0101100
-107 43 -91 21 +94 49 +64 0 *
Fa
0  0.000000100000000 15 21

0101000
+63 0 *
Wi

0101100
+139 0 +125 0 +126 0 +128 0 *
Fa
0  0.000000100000000 10 0

0101000
+61 62 *
Ed
 0.000000100000000 1 1 0
1  33 0 2.000000000000000 10.000000000000000
2  77 16 0 2.000000000000000 10.000000000000000
2  78 20 0 2.000000000000000 10.000000000000000
0

0101000
+98 0 -112 23 *
Ve
0.000000100000002
-67.500000000000000 10.000000000000000 0.000000000000000
0 0

0101101
*
Ed
 0.000000100000000 1 1 0
1  24 0 25.000000000000000 30.000000000000000
2  60 16 13 25.000000000000000 30.000000000000000
2  61 16 15 25.000000000000000 30.000000000000000
2  62 17 16 25.000000000000000 30.000000000000000
2  63 15 27 25.000000000000000 30.000000000000000
0

0101000
+58 67 -112 0 *
Ve
0.000000100000002
-67.500000000000000 7.000000000000000 0.000000000000000
0 0

0101101
*
Ed
 0.000000100000002 1 1 0
1  38 0 0.000000000000000 3.000000000000000
2  91 23 69 0.000000000000000 3.000000000000000
2  92 23 71 0.000000000000000 3.000000000000000
2  93 24 72 0.000000000000000 3.000000000000000
2  94 16 73 0.000000000000000 3.000000000000000
0

0101000
+56 0 -58 0 *
Ve
0.000000100000002
-47.500000000000000 7.000000000000000 0.000000000000000
0 0

0101101
*
Ed
 0.000000100000002 1 1 0
1  39 0 0.000000000000000 20.000000000000000
2  95 24 72 0.000000000000000 20.000000000000000
2  96 25 69 0.000000000000000 20.000000000000000
2  97 25 71 0.000000000000000 20.000000000000000
2  98 16 73 0.000000000000000 20.000000000000000
0

0101000
+54 0 -56 0 *
Ve
0.000000100000002
-47.500000000000000 10.000000000000000 0.000000000000000
0 0

0101101
*
Ed
 0.000000100000002 1 1 0
1  40 0 0.000000000000000 3.000000000000000
2  99 26 69 0.000000000000000 3.000000000000000
2  100 26 71 0.000000000000000 3.000000000000000
2  101 24 72 0.000000000000000 3.000000000000000
2  102 16 73 0.000000000000000 3.000000000000000
0

0101000
+52 0 -54 0 *
Ed
 0.000000100000000 1 1 0
1  24 0 0.000000000000000 5.000000000000000
2  60 16 13 0.000000000000000 5.000000000000000
2  61 16 15 0.000000000000000 5.000000000000000
2  62 17 16 0.000000000000000 5.000000000000000
2  63 15 27 0.000000000000000 5.000000000000000
0

0101000
+110 0 -52 67 *
Ed
 0.000000100000000 1 1 0
1  37 0 2.000000000000000 10.000000000000000
2  88 16 0 2.000000000000000 10.000000000000000
2  89 22 0 2.000000000000000 10.000000000000000
0

0101000
+96 0 -110 23 *
Wi

0101100
-59 63 +57 64 +55 68 +53 68 +51 68 +50 64 +49 63 +95 74 *
Fa
0  0.000000100000000 16 63

0101000
+48 0 *
Ve
0.000000100000000
72.500000000000000 -2.000000000000000 1.989999999999999
0 0

0101101
*
Ve
0.000000100000000
72.500000000000000 -2.000000000000000 8.010000000000000
0 0

0101101
*
Ed
 0.000000100000000 1 1 0
1  41 0 1.989999999999999 8.010000000000000
2  103 20 0 1.989999999999999 8.010000000000000
0

0101000
+46 8 -45 8 *
Ed
 0.000000100000000 1 1 0
1  42 0 0.000000000000000 1.570796326794897
2  104 21 0 0.000000000000000 1.570796326794897
2  105 20 7 0.000000000000000 1.570796326794897
0

0101000
+71 0 -46 0 *
Ve
0.000000100000000
72.500000000000000 -0.010000000000001 10.000000000000000
0 0

0101101
*
Ed
 0.000000100000000 1 1 0
1  43 0 1.570796326794897 3.141592653589793
2  106 27 0 1.570796326794897 3.141592653589793
2  107 20 7 1.570796326794897 3.141592653589793
0

0101000
+45 0 -42 0 *
Ed
 0.000000100000000 1 1 0
1  34 0 0.000000000000000 0.010000000000001
2  80 20 13 0.000000000000000 0.010000000000001
2  81 20 15 0.000000000000000 0.010000000000001
2  82 17 16 0.000000000000000 0.010000000000001
0

0101000
-42 19 +112 0 *
Wi

0101100
-44 7 -43 0 -41 0 -70 12 +40 18 +74 7 +59 7 *
Fa
0  0.000000100000000 20 0

0101000
+39 8 *
Ve
0.000000100000000
42.500000000000000 -2.000000000000000 1.989999999999999
0 0

0101101
*
Ed
 0.000000100000000 1 1 0
1  44 0 0.000000000000000 30.000000000000000
2  108 21 0 0.000000000000000 30.000000000000000
2  109 28 7 0.000000000000000 30.000000000000000
4 G1 21 0 28 7
0

0101000
+46 0 -37 0 *
Ed
 0.000000100000000 1 1 0
1  45 0 0.000000000000000 1.570796326794897
2  110 21 0 0.000000000000000 1.570796326794897
2  111 22 7 0.000000000000000 1.570796326794897
0

0101000
+69 0 -37 0 *
Wi

0101100
+43 0 -68 0 +36 0 -35 0 *
Fa
0  0.000000000000000 21 0

0101000
+34 0 *
Ve
0.000000100000000
42.500000000000000 -2.000000000000000 8.010000000000000
0 0

0101101
*
Ed
 0.000000100000000 1 1 0
1  46 0 1.989999999999999 8.010000000000000
2  112 22 0 1.989999999999999 8.010000000000000
0

0101000
+37 8 -32 8 *
Ve
0.000000100000000
42.500000000000000 -0.010000000000001 10.000000000000000
0 0

0101101
*
Ed
 0.000000100000000 1 1 0
1  47 0 1.570796326794897 3.141592653589793
2  113 27 0 1.570796326794897 3.141592653589793
2  114 22 7 1.570796326794897 3.141592653589793
0

0101000
+32 0 -30 0 *
Ed
 0.000000100000000 1 1 0
1  36 0 1.989999999999999 2.000000000000000
2  85 22 13 1.989999999999999 2.000000000000000
2  86 22 15 1.989999999999999 2.000000000000000
2  87 17 16 1.989999999999999 2.000000000000000
0

0101000
+30 19 -110 0 *
Wi

0101100
+31 7 +35 0 +29 0 -67 12 +28 18 -64 7 -49 7 *
Fa
0  0.000000100000000 22 0

0101000
+27 8 *
Ed
 0.000000100000000 1 1 0
1  48 0 0.000000000000000 30.000000000000000
2  115 27 0 0.000000000000000 30.000000000000000
2  116 17 25 0.000000000000000 30.000000000000000
4 G1 27 0 17 25
0

0101000
+42 0 -30 0 *
Ed
 0.000000100000002 1 1 0
1  49 0 0.000000000000000 20.000000000000000
2  117 29 69 0.000000000000000 20.000000000000000
2  118 29 71 0.000000000000000 20.000000000000000
2  119 24 72 0.000000000000000 20.000000000000000
2  120 16 73 0.000000000000000 20.000000000000000
0

0101000
+58 0 -52 0 *
Wi

0101100
-40 18 -25 0 -57 18 -28 18 +24 77 -50 18 *
Fa
0  0.000000100000000 17 75

0101000
+23 76 *
Ed
 0.000000100000000 1 1 0
1  50 0 0.000000000000000 1.000000000000000
2  121 23 0 0.000000000000000 1.000000000000000
2  122 25 0 0.000000000000000 1.000000000000000
0

0101000
+56 68 -56 78 *
Ed
 0.000000100000000 1 1 0
1  51 0 0.000000000000000 1.000000000000000
2  123 29 0 0.000000000000000 1.000000000000000
2  124 23 0 0.000000000000000 1.000000000000000
0

0101000
+58 68 -58 78 *
Wi

0101100
+21 0 -20 0 -55 68 +55 78 *
Fa
0  0.000000100000000 23 0

0101000
+19 0 *
Ed
 0.000000100000000 1 1 0
1  52 0 0.000000000000000 1.000000000000000
2  125 26 0 0.000000000000000 1.000000000000000
2  126 25 0 0.000000000000000 1.000000000000000
0

0101000
+54 68 -54 78 *
Wi

0101100
+17 0 -21 0 -53 68 +53 78 *
Fa
0  0.000000100000000 25 0

0101000
+16 0 *
Ed
 0.000000100000000 1 1 0
1  53 0 0.000000000000000 1.000000000000000
2  127 29 0 0.000000000000000 1.000000000000000
2  128 26 0 0.000000000000000 1.000000000000000
0

0101000
+52 68 -52 78 *
Wi

0101100
+14 0 -17 0 -51 68 +51 78 *
Fa
0  0.000000100000000 26 0

0101000
+13 0 *
Ed
 0.000000100000000 1 1 0
1  54 0 0.000000000000000 30.000000000000000
2  129 27 0 0.000000000000000 30.000000000000000
2  130 28 7 0.000000000000000 30.000000000000000
4 G1 27 0 28 7
0

0101000
+45 0 -32 0 *
Wi

0101100
+44 7 -36 0 +11 0 -31 7 *
Fa
0  0.000000100000000 28 0

0101000
+10 8 *
Wi

0101100
+41 0 -11 0 +25 0 -29 0 *
Fa
0  0.000000000000000 27 0

0101000
+8 0 *
Wi

0101100
+20 0 -14 0 -24 68 +24 78 *
Fa
0  0.000000100000000 29 0

0101000
+6 0 *
Wi

0101100
+24 0 +51 0 +53 0 +55 0 *
Fa
0  0.000000100000000 24 0

0101000
-4 80 *
Sh

0101100
+166 7 +159 7 +154 0 +149 0 -144 24 +136 28 +130 7 +120 28 +117 7 -104 7 
+100 28 +92 7 +89 60 +86 28 +83 28 +81 28 +78 7 +75 60 +72 7 -65 24 
+62 7 -60 61 +47 6 +38 7 +33 0 +26 7 +22 6 +18 6 +15 6 +12 6 
+9 7 +7 0 +5 6 +3 79 *
So

0100000
+2 0 *

+1 1 