
CASCADE Topology V1, (c) Matra-Datavision
Locations 32
1
1.000000000000000 0.000000000000000 0.000000000000000 0.000000000000000 
0.000000000000000 1.000000000000000 0.000000000000000 0.000000000000000 
0.000000000000000 0.000000000000000 1.000000000000000 0.000000000000000 
1
1.000000000000000 0.000000000000000 0.000000000000000 0.000000000000000 
0.000000000000000 1.000000000000000 0.000000000000000 0.000000000000000 
0.000000000000000 0.000000000000000 1.000000000000000 0.000000000000000 
1
1.000000000000000 0.000000000000000 0.000000000000000 0.000000000000000 
0.000000000000000 1.000000000000000 0.000000000000000 0.000000000000000 
0.000000000000000 0.000000000000000 1.000000000000000 0.000000000000000 
1
1.000000000000000 0.000000000000000 0.000000000000000 0.000000000000000 
0.000000000000000 1.000000000000000 0.000000000000000 0.000000000000000 
0.000000000000000 0.000000000000000 1.000000000000000 0.000000000000000 
2  2 1 3 1 4 -1 0
1
1.000000000000000 0.000000000000000 0.000000000000000 0.000000000000000 
0.000000000000000 1.000000000000000 0.000000000000000 0.000000000000000 
0.000000000000000 0.000000000000000 1.000000000000000 0.000000000000000 
1
1.000000000000000 0.000000000000000 0.000000000000000 0.000000000000000 
0.000000000000000 1.000000000000000 0.000000000000000 0.000000000000000 
0.000000000000000 0.000000000000000 1.000000000000000 0.000000000000000 
1
1.000000000000000 0.000000000000000 0.000000000000000 0.000000000000000 
0.000000000000000 1.000000000000000 0.000000000000000 0.000000000000000 
0.000000000000000 0.000000000000000 1.000000000000000 0.000000000000000 
2  6 1 7 1 8 -1 0
1
1.000000000000000 0.000000000000000 0.000000000000000 0.000000000000000 
0.000000000000000 1.000000000000000 0.000000000000000 0.000000000000000 
0.000000000000000 0.000000000000000 1.000000000000000 30.000000000000000 
2  6 1 7 1 8 -1 10 1 0
2  8 -1 2 1 3 1 4 -1 0
2  6 1 7 1 0
2  8 -1 10 1 2 1 3 1 4 -1 0
2  2 -1 10 -1 8 1 0
2  6 1 7 1 8 -1 10 1 2 1 0
2  8 -1 10 1 2 1 0
2  2 -1 0
2  8 -1 2 1 0
2  3 1 4 -1 0
1
1.000000000000000 0.000000000000000 0.000000000000000 0.000000000000000 
0.000000000000000 1.000000000000000 0.000000000000000 0.000000000000000 
0.000000000000000 0.000000000000000 1.000000000000000 0.000000000000000 
1
1.000000000000000 0.000000000000000 0.000000000000000 0.000000000000000 
0.000000000000000 0.000000000000000 -1.000000000000000 -2.000000000000000 
0.000000000000000 1.000000000000000 0.000000000000000 0.000000000000000 
2  21 1 22 1 4 -1 0
2  4 1 22 -1 21 -1 0
1
1.000000000000000 0.000000000000000 0.000000000000000 0.000000000000000 
0.000000000000000 1.000000000000000 0.000000000000000 1.000000000000000 
0.000000000000000 0.000000000000000 1.000000000000000 -0.000000000000000 
2  25 -1 4 1 22 -1 21 -1 0
2  22 -1 21 -1 0
2  2 1 3 1 22 -1 21 -1 0
2  2 -1 8 1 0
2  21 1 22 1 4 -1 25 1 0
2  4 -1 25 1 0
2  21 1 22 1 0
Curve2ds 48
8 -9999970.00000000000000000 9999970.00000000000000000
1 -30.00000000000000000 27.00000000000000000 -1.00000000000000000 0.00000000000000000 
8 -9999970.00000000000000000 9999970.00000000000000000
1 30.00000000000000000 -30.00000000000000000 -1.00000000000000000 0.00000000000000000 
8 -9999987.50000000000000000 9999987.50000000000000000
1 -62.00000000000000000 -12.50000000000000000 0.00000000000000000 -1.00000000000000000 
8 -9999987.50000000000000000 9999987.50000000000000000
1 12.50000000000000000 -30.00000000000000000 -1.00000000000000000 0.00000000000000000 
8 -9999970.00000000000000000 9999970.00000000000000000
1 30.00000000000000000 -27.00000000000000000 1.00000000000000000 0.00000000000000000 
8 -9999970.00000000000000000 9999970.00000000000000000
1 30.00000000000000000 -30.00000000000000000 -1.00000000000000000 0.00000000000000000 
8 -9999987.50000000000000000 9999987.50000000000000000
1 62.00000000000000000 12.50000000000000000 0.00000000000000000 1.00000000000000000 
8 -9999987.50000000000000000 9999987.50000000000000000
1 12.50000000000000000 -30.00000000000000000 -1.00000000000000000 0.00000000000000000 
8 -10000000.00000000000000000 10000000.00000000000000000
1 -2.00000000000000000 0.00000000000000000 0.00000000000000000 -1.00000000000000000 
8 -10000000.00000000000000000 10000000.00000000000000000
1 52.00000000000000000 0.00000000000000000 0.00000000000000000 -1.00000000000000000 
8 -10000000.00000000000000000 10000000.00000000000000000
1 122.00000000000000000 0.00000000000000000 0.00000000000000000 1.00000000000000000 
8 -10000000.00000000000000000 10000000.00000000000000000
1 -2.00000000000000000 0.00000000000000000 0.00000000000000000 1.00000000000000000 
8 -9999970.00000000000000000 9999970.00000000000000000
1 30.00000000000000000 2.00000000000000000 1.00000000000000000 0.00000000000000000 
8 -9999970.00000000000000000 9999970.00000000000000000
1 -30.00000000000000000 27.00000000000000000 1.00000000000000000 0.00000000000000000 
8 -9999987.50000000000000000 9999987.50000000000000000
1 12.50000000000000000 2.00000000000000000 1.00000000000000000 0.00000000000000000 
8 -9999987.50000000000000000 9999987.50000000000000000
1 -62.00000000000000000 -12.50000000000000000 0.00000000000000000 1.00000000000000000 
8 -10000000.00000000000000000 10000000.00000000000000000
1 122.00000000000000000 0.00000000000000000 0.00000000000000000 1.00000000000000000 
8 -10000000.00000000000000000 10000000.00000000000000000
1 -2.00000000000000000 0.00000000000000000 -0.00000000000000000 1.00000000000000000 
8 -9999970.00000000000000000 9999970.00000000000000000
1 30.00000000000000000 2.00000000000000000 1.00000000000000000 0.00000000000000000 
8 -9999970.00000000000000000 9999970.00000000000000000
1 30.00000000000000000 -27.00000000000000000 -1.00000000000000000 0.00000000000000000 
8 -10000000.00000000000000000 10000000.00000000000000000
1 52.00000000000000000 0.00000000000000000 0.00000000000000000 1.00000000000000000 
8 -10000000.00000000000000000 10000000.00000000000000000
1 -2.00000000000000000 -0.00000000000000000 0.00000000000000000 1.00000000000000000 
1 0.00000000000000000 0.00000000000000000 1.00000000000000000 0.00000000000000000 
1 0.00000000000000022 -1.00000000000000000 1.00000000000000000 0.00000000000000000 
1 -1.50000000000000000 -11.00000000000000000 1.00000000000000000 0.00000000000000000 
1 71.00000000000000000 -20.00000000000000000 0.00000000000000000 -1.00000000000000000 
1 0.00000000000000000 0.00000000000000000 1.00000000000000000 0.00000000000000000 
1 0.00000000000000000 -1.00000000000000000 1.00000000000000000 0.00000000000000000 
1 -1.50000000000000000 11.00000000000000000 0.00000000000000000 -1.00000000000000000 
1 49.00000000000000000 -20.00000000000000000 1.00000000000000000 0.00000000000000000 
1 0.00000000000000000 0.00000000000000000 1.00000000000000000 0.00000000000000000 
1 -0.00000000000000022 -1.00000000000000000 1.00000000000000000 0.00000000000000000 
1 1.50000000000000000 11.00000000000000000 -1.00000000000000000 0.00000000000000000 
1 49.00000000000000000 -23.00000000000000000 0.00000000000000000 1.00000000000000000 
1 0.00000000000000000 0.00000000000000000 1.00000000000000000 0.00000000000000000 
1 0.00000000000000000 -1.00000000000000000 1.00000000000000000 0.00000000000000000 
1 1.50000000000000000 -11.00000000000000000 0.00000000000000000 1.00000000000000000 
1 71.00000000000000000 -23.00000000000000000 -1.00000000000000000 -0.00000000000000000 
8 -9999987.50000000000000000 9999987.50000000000000000
1 12.50000000000000000 2.00000000000000000 1.00000000000000000 0.00000000000000000 
8 -9999987.50000000000000000 9999987.50000000000000000
1 62.00000000000000000 12.50000000000000000 0.00000000000000000 -1.00000000000000000 
1 22.00000000000000000 0.00000000000000000 0.00000000000000000 -1.00000000000000000 
1 0.00000000000000000 0.00000000000000000 0.00000000000000000 -1.00000000000000000 
1 0.00000000000000000 0.00000000000000000 0.00000000000000000 -1.00000000000000000 
1 3.00000000000000000 0.00000000000000000 0.00000000000000000 -1.00000000000000000 
1 3.00000000000000000 0.00000000000000000 0.00000000000000000 -1.00000000000000000 
1 0.00000000000000000 0.00000000000000000 0.00000000000000000 -1.00000000000000000 
1 22.00000000000000000 0.00000000000000000 0.00000000000000000 -1.00000000000000000 
1 0.00000000000000000 0.00000000000000000 0.00000000000000000 -1.00000000000000000 
Curves 28
1 0.00000000000000000 50.00000000000000000 0.00000000000000000 0.00000000000000000 0.00000000000000000 1.00000000000000000 
1 120.00000000000000000 50.00000000000000000 0.00000000000000000 0.00000000000000000 0.00000000000000000 1.00000000000000000 
1 0.00000000000000000 50.00000000000000000 0.00000000000000000 1.00000000000000000 0.00000000000000000 0.00000000000000000 
1 0.00000000000000000 0.00000000000000000 0.00000000000000000 0.00000000000000000 0.00000000000000000 1.00000000000000000 
1 0.00000000000000000 0.00000000000000000 0.00000000000000000 0.00000000000000000 1.00000000000000000 0.00000000000000000 
1 120.00000000000000000 0.00000000000000000 0.00000000000000000 0.00000000000000000 0.00000000000000000 1.00000000000000000 
1 120.00000000000000000 50.00000000000000000 0.00000000000000000 0.00000000000000000 -1.00000000000000000 0.00000000000000000 
1 120.00000000000000000 0.00000000000000000 0.00000000000000000 -1.00000000000000000 0.00000000000000000 0.00000000000000000 
8 -9999970.00000000000000000 9999970.00000000000000000
1 30.00000000000000000 52.00000000000000000 30.00000000000000000 -1.00000000000000000 0.00000000000000000 0.00000000000000000 
8 -9999987.50000000000000000 9999987.50000000000000000
1 -2.00000000000000000 12.50000000000000000 30.00000000000000000 0.00000000000000000 -1.00000000000000000 0.00000000000000000 
8 -9999970.00000000000000000 9999970.00000000000000000
1 90.00000000000000000 -2.00000000000000000 30.00000000000000000 1.00000000000000000 0.00000000000000000 -0.00000000000000000 
8 -9999987.50000000000000000 9999987.50000000000000000
1 122.00000000000000000 37.50000000000000000 30.00000000000000000 0.00000000000000000 1.00000000000000000 0.00000000000000000 
8 -10000000.00000000000000000 10000000.00000000000000000
1 -2.00000000000000000 52.00000000000000000 0.00000000000000000 0.00000000000000000 -0.00000000000000000 1.00000000000000000 
8 -10000000.00000000000000000 10000000.00000000000000000
1 122.00000000000000000 52.00000000000000000 0.00000000000000000 0.00000000000000000 0.00000000000000000 -1.00000000000000000 
8 -9999970.00000000000000000 9999970.00000000000000000
1 30.00000000000000000 52.00000000000000000 -2.00000000000000000 1.00000000000000000 0.00000000000000000 0.00000000000000000 
8 -9999987.50000000000000000 9999987.50000000000000000
1 -2.00000000000000000 12.50000000000000000 -2.00000000000000000 0.00000000000000000 1.00000000000000000 -0.00000000000000000 
8 -10000000.00000000000000000 10000000.00000000000000000
1 -2.00000000000000000 -2.00000000000000000 0.00000000000000000 -0.00000000000000000 -0.00000000000000000 -1.00000000000000000 
8 -9999970.00000000000000000 9999970.00000000000000000
1 90.00000000000000000 -2.00000000000000000 -2.00000000000000000 -1.00000000000000000 0.00000000000000000 0.00000000000000000 
8 -10000000.00000000000000000 10000000.00000000000000000
1 122.00000000000000000 -2.00000000000000000 0.00000000000000000 0.00000000000000000 0.00000000000000000 -1.00000000000000000 
1 49.00000000000000000 20.00000000000000000 0.00000000000000000 0.00000000000000000 1.00000000000000000 0.00000000000000000 
1 71.00000000000000000 20.00000000000000000 0.00000000000000000 -1.00000000000000000 0.00000000000000000 0.00000000000000000 
1 71.00000000000000000 23.00000000000000000 0.00000000000000000 0.00000000000000000 -1.00000000000000000 0.00000000000000000 
1 49.00000000000000000 23.00000000000000000 0.00000000000000000 1.00000000000000000 0.00000000000000000 0.00000000000000000 
8 -9999987.50000000000000000 9999987.50000000000000000
1 122.00000000000000000 37.50000000000000000 -2.00000000000000000 0.00000000000000000 -1.00000000000000000 0.00000000000000000 
1 49.00000000000000000 -1.99999999999999556 20.00000000000000000 0.00000000000000000 1.00000000000000000 -0.00000000000000022 
1 49.00000000000000000 -1.99999999999999489 23.00000000000000000 0.00000000000000000 1.00000000000000000 -0.00000000000000022 
1 71.00000000000000000 -1.99999999999999556 20.00000000000000000 0.00000000000000000 1.00000000000000000 -0.00000000000000022 
1 71.00000000000000000 -1.99999999999999489 23.00000000000000000 0.00000000000000000 1.00000000000000000 -0.00000000000000022 
Polygon3D 0
PolygonOnTriangulations 0
Surfaces 15
1 0.00000000000000000 50.00000000000000000 0.00000000000000000 0.00000000000000000 1.00000000000000000 0.00000000000000000 1.00000000000000000 0.00000000000000000 0.00000000000000000 0.00000000000000000 0.00000000000000000 -1.00000000000000000 
1 0.00000000000000000 0.00000000000000000 0.00000000000000000 -1.00000000000000000 0.00000000000000000 0.00000000000000000 0.00000000000000000 1.00000000000000000 0.00000000000000000 0.00000000000000000 0.00000000000000000 -1.00000000000000000 
1 120.00000000000000000 50.00000000000000000 0.00000000000000000 1.00000000000000000 0.00000000000000000 -0.00000000000000000 0.00000000000000000 -1.00000000000000000 0.00000000000000000 0.00000000000000000 -0.00000000000000000 -1.00000000000000000 
1 60.00000000000000000 25.00000000000000000 0.00000000000000000 0.00000000000000000 0.00000000000000000 1.00000000000000000 1.00000000000000000 0.00000000000000000 -0.00000000000000000 -0.00000000000000000 1.00000000000000000 0.00000000000000000 
1 0.00000000000000000 52.00000000000000000 0.00000000000000000 0.00000000000000000 1.00000000000000000 0.00000000000000000 1.00000000000000000 0.00000000000000000 0.00000000000000000 0.00000000000000000 0.00000000000000000 -1.00000000000000000 
1 -2.00000000000000000 0.00000000000000000 0.00000000000000000 -1.00000000000000000 0.00000000000000000 0.00000000000000000 0.00000000000000000 1.00000000000000000 0.00000000000000000 0.00000000000000000 0.00000000000000000 -1.00000000000000000 
1 120.00000000000000000 -2.00000000000000000 0.00000000000000000 0.00000000000000000 -1.00000000000000000 0.00000000000000000 -1.00000000000000000 0.00000000000000000 0.00000000000000000 -0.00000000000000000 -0.00000000000000000 -1.00000000000000000 
1 122.00000000000000000 50.00000000000000000 0.00000000000000000 1.00000000000000000 0.00000000000000000 -0.00000000000000000 0.00000000000000000 -1.00000000000000000 0.00000000000000000 0.00000000000000000 -0.00000000000000000 -1.00000000000000000 
1 120.00000000000000000 0.00000000000000000 0.00000000000000000 0.00000000000000000 -1.00000000000000000 0.00000000000000000 -1.00000000000000000 0.00000000000000000 0.00000000000000000 -0.00000000000000000 -0.00000000000000000 -1.00000000000000000 
1 60.00000000000000000 25.00000000000000000 -2.00000000000000000 0.00000000000000000 0.00000000000000000 1.00000000000000000 1.00000000000000000 0.00000000000000000 -0.00000000000000000 -0.00000000000000000 1.00000000000000000 0.00000000000000000 
1 49.00000000000000000 -1.99999999999999556 20.00000000000000000 1.00000000000000000 -0.00000000000000000 0.00000000000000000 0.00000000000000000 0.00000000000000022 1.00000000000000000 -0.00000000000000000 -1.00000000000000000 0.00000000000000022 
1 60.00000000000000000 -1.99999999999999512 21.50000000000000000 0.00000000000000000 1.00000000000000000 -0.00000000000000022 0.00000000000000000 0.00000000000000022 1.00000000000000000 1.00000000000000000 -0.00000000000000000 0.00000000000000000 
1 71.00000000000000000 -1.99999999999999556 20.00000000000000000 0.00000000000000000 0.00000000000000022 1.00000000000000000 -1.00000000000000000 0.00000000000000000 0.00000000000000000 0.00000000000000000 -1.00000000000000000 0.00000000000000022 
1 71.00000000000000000 -1.99999999999999489 23.00000000000000000 -1.00000000000000000 0.00000000000000000 -0.00000000000000000 0.00000000000000000 -0.00000000000000022 -1.00000000000000000 -0.00000000000000000 -1.00000000000000000 0.00000000000000022 
1 49.00000000000000000 -1.99999999999999489 23.00000000000000000 0.00000000000000000 -0.00000000000000022 -1.00000000000000000 1.00000000000000000 0.00000000000000000 0.00000000000000000 0.00000000000000000 -1.00000000000000000 0.00000000000000022 
Triangulations 0

TShapes 80
Ve
0.001000000000000
0.000000000000000 50.000000000000000 0.000000000000000
0 0

0101101
*
Ed
 0.000000100000000 1 1 0
1  1 0 0.000000000000000 30.000000000000000
0

0101000
+80 9 -80 11 *
Ve
0.001000000000000
120.000000000000000 50.000000000000000 0.000000000000000
0 0

0101101
*
Ed
 0.000000100000000 1 1 0
1  2 0 0.000000000000000 30.000000000000000
0

0101000
+78 9 -78 11 *
Ed
 0.001000000000000 1 1 0
1  3 0 0.000000000000000 120.000000000000000
0

0101000
+80 0 -78 0 *
Wi

0101100
+79 0 -77 0 -76 9 +76 11 *
Fa
0  0.000000100000000 1 0

0101000
+75 0 *
Ve
0.001000000000000
0.000000000000000 0.000000000000000 0.000000000000000
0 0

0101101
*
Ed
 0.000000100000000 1 1 0
1  4 0 0.000000000000000 30.000000000000000
0

0101000
+73 9 -73 11 *
Ed
 0.001000000000000 1 1 0
1  5 0 0.000000000000000 50.000000000000000
0

0101000
+73 0 -80 0 *
Wi

0101100
+72 0 -79 0 -71 9 +71 11 *
Fa
0  0.000000100000000 2 0

0101000
+70 0 *
Ve
0.001000000000000
120.000000000000000 0.000000000000000 0.000000000000000
0 0

0101101
*
Ed
 0.000000100000000 1 1 0
1  6 0 0.000000000000000 30.000000000000000
0

0101000
+68 9 -68 11 *
Ed
 0.001000000000000 1 1 0
1  7 0 0.000000000000000 50.000000000000000
0

0101000
+78 0 -68 0 *
Wi

0101100
+77 0 -67 0 -66 9 +66 11 *
Fa
0  0.000000100000000 3 0

0101000
+65 0 *
Ed
 0.001000000000000 1 1 0
1  8 0 0.000000000000000 120.000000000000000
0

0101000
+68 0 -73 0 *
Wi

0101100
+76 0 +66 0 +63 0 +71 0 *
Fa
0  0.000000100000000 4 0

0101000
-62 13 *
Wi

0101100
+76 16 +66 16 +63 16 +71 16 *
Ve
0.001000000000000
122.000000000000000 52.000000000000000 30.000000000000000
0 0

0101101
*
Ve
0.001000000000000
-2.000000000000000 52.000000000000000 30.000000000000000
0 0

0101101
*
Ed
 0.001000000000000 1 1 0
1  9 0 -92.000000000000000 32.000000000000000
2  1 4 17 -92.000000000000000 32.000000000000000
2  2 5 2 -92.000000000000000 32.000000000000000
0

0101000
+59 0 -58 0 *
Ve
0.001000000000000
-2.000000000000000 -2.000000000000000 30.000000000000000
0 0

0101101
*
Ed
 0.001000000000000 1 1 0
1  10 0 -39.500000000000000 14.500000000000000
2  3 4 17 -39.500000000000000 14.500000000000000
2  4 6 2 -39.500000000000000 14.500000000000000
0

0101000
+58 0 -56 0 *
Ve
0.001000000000000
122.000000000000000 -2.000000000000000 30.000000000000000
0 0

0101101
*
Ed
 0.001000000000000 1 1 0
1  11 0 -92.000000000000000 32.000000000000000
2  5 4 17 -92.000000000000000 32.000000000000000
2  6 7 2 -92.000000000000000 32.000000000000000
0

0101000
+56 0 -54 0 *
Ed
 0.001000000000000 1 1 0
1  12 0 -39.500000000000000 14.500000000000000
2  7 4 17 -39.500000000000000 14.500000000000000
2  8 8 2 -39.500000000000000 14.500000000000000
0

0101000
+54 0 -59 0 *
Wi

0101100
+57 0 +55 0 +53 0 +52 0 *
Fa
0  0.000000100000000 4 0

0101000
+60 15 +51 15 *
Wi

0101100
+67 0 -72 0 -63 9 +63 11 *
Fa
0  0.000000100000000 9 0

0101000
+49 0 *
Ve
0.001000000000000
-2.000000000000000 52.000000000000000 -2.000000000000000
0 0

0101101
*
Ed
 0.001000000000000 1 1 0
1  13 0 -2.000000000000000 30.000000000000000
2  9 5 2 -2.000000000000000 30.000000000000000
2  10 6 2 -2.000000000000000 30.000000000000000
0

0101000
+47 0 -58 0 *
Ve
0.001000000000000
122.000000000000000 52.000000000000000 -2.000000000000000
0 0

0101101
*
Ed
 0.001000000000000 1 1 0
1  14 0 -30.000000000000000 2.000000000000000
2  11 5 2 -30.000000000000000 2.000000000000000
2  12 8 2 -30.000000000000000 2.000000000000000
0

0101000
+59 0 -45 0 *
Ed
 0.001000000000000 1 1 0
1  15 0 -32.000000000000000 92.000000000000000
2  13 5 2 -32.000000000000000 92.000000000000000
2  14 10 19 -32.000000000000000 92.000000000000000
0

0101000
+47 0 -45 0 *
Wi

0101100
+46 0 -57 0 +44 0 -43 0 *
Fa
0  0.000000100000000 5 0

0101000
+42 18 *
Ve
0.001000000000000
-2.000000000000000 -2.000000000000000 -2.000000000000000
0 0

0101101
*
Ed
 0.001000000000000 1 1 0
1  16 0 -14.500000000000000 39.500000000000000
2  15 6 2 -14.500000000000000 39.500000000000000
2  16 10 19 -14.500000000000000 39.500000000000000
0

0101000
+40 0 -47 0 *
Ed
 0.001000000000000 1 1 0
1  17 0 -30.000000000000000 2.000000000000000
2  17 7 2 -30.000000000000000 2.000000000000000
2  18 6 2 -30.000000000000000 2.000000000000000
0

0101000
+56 0 -40 0 *
Wi

0101100
-39 0 -38 0 -55 0 -46 0 *
Fa
0  0.000000100000000 6 0

0101000
+37 18 *
Ve
0.001000000000000
122.000000000000000 -2.000000000000000 -2.000000000000000
0 0

0101101
*
Ed
 0.001000000000000 1 1 0
1  18 0 -32.000000000000000 92.000000000000000
2  19 7 2 -32.000000000000000 92.000000000000000
2  20 10 19 -32.000000000000000 92.000000000000000
0

0101000
+35 0 -40 0 *
Ed
 0.001000000000000 1 1 0
1  19 0 -30.000000000000000 2.000000000000000
2  21 8 2 -30.000000000000000 2.000000000000000
2  22 7 2 -30.000000000000000 2.000000000000000
0

0101000
+54 0 -35 0 *
Wi

0101100
+38 20 -53 20 -34 20 -33 20 *
Ve
0.000000100000005
49.000000000000000 20.000000000000000 0.000000000000000
0 0

0101101
*
Ve
0.000000100000005
49.000000000000000 23.000000000000000 0.000000000000000
0 0

0101101
*
Ed
 0.000000100000005 1 1 0
1  20 0 0.000000000000000 3.000000000000000
2  23 11 24 0.000000000000000 3.000000000000000
2  24 11 26 0.000000000000000 3.000000000000000
2  25 12 27 0.000000000000000 3.000000000000000
2  26 7 28 0.000000000000000 3.000000000000000
0

0101000
+31 0 -30 0 *
Ve
0.000000100000005
71.000000000000000 20.000000000000000 0.000000000000000
0 0

0101101
*
Ed
 0.000000100000004 1 1 0
1  21 0 0.000000000000000 22.000000000000000
2  27 13 24 0.000000000000000 22.000000000000000
2  28 13 26 0.000000000000000 22.000000000000000
2  29 12 27 0.000000000000000 22.000000000000000
2  30 7 28 0.000000000000000 22.000000000000000
0

0101000
+28 0 -31 0 *
Ve
0.000000100000005
71.000000000000000 23.000000000000000 0.000000000000000
0 0

0101101
*
Ed
 0.000000100000005 1 1 0
1  22 0 0.000000000000000 3.000000000000000
2  31 14 24 0.000000000000000 3.000000000000000
2  32 14 26 0.000000000000000 3.000000000000000
2  33 12 27 0.000000000000000 3.000000000000000
2  34 7 28 0.000000000000000 3.000000000000000
0

0101000
+26 0 -28 0 *
Ed
 0.000000100000005 1 1 0
1  23 0 0.000000000000000 22.000000000000000
2  35 15 24 0.000000000000000 22.000000000000000
2  36 15 26 0.000000000000000 22.000000000000000
2  37 12 27 0.000000000000000 22.000000000000000
2  38 7 28 0.000000000000000 22.000000000000000
0

0101000
+30 0 -26 0 *
Wi

0101100
+29 23 +27 23 +25 23 +24 23 *
Fa
0  0.000000100000000 7 5

0101000
+32 0 +23 0 *
Ed
 0.001000000000000 1 1 0
1  24 0 -14.500000000000000 39.500000000000000
2  39 8 2 -14.500000000000000 39.500000000000000
2  40 10 19 -14.500000000000000 39.500000000000000
0

0101000
+45 0 -35 0 *
Wi

0101100
+33 0 -21 0 -44 0 -52 0 *
Fa
0  0.000000100000000 8 0

0101000
+20 18 *
Wi

0101100
-43 0 -39 0 -34 0 -21 0 *
Fa
0  0.000000100000000 10 0

0101000
+18 29 *
Ed
 0.000000100000000 1 1 0
1  25 0 0.000000000000000 1.000000000000000
2  41 13 0 0.000000000000000 1.000000000000000
2  42 11 0 0.000000000000000 1.000000000000000
0

0101000
+31 23 -31 30 *
Ed
 0.000000100000000 1 1 0
1  26 0 0.000000000000000 1.000000000000000
2  43 15 0 0.000000000000000 1.000000000000000
2  44 11 0 0.000000000000000 1.000000000000000
0

0101000
+30 23 -30 30 *
Wi

0101100
+16 0 -15 0 -29 23 +29 30 *
Fa
0  0.000000100000000 11 0

0101000
+14 0 *
Ed
 0.000000100000000 1 1 0
1  27 0 0.000000000000000 1.000000000000000
2  45 14 0 0.000000000000000 1.000000000000000
2  46 13 0 0.000000000000000 1.000000000000000
0

0101000
+28 23 -28 30 *
Wi

0101100
+12 0 -16 0 -27 23 +27 30 *
Fa
0  0.000000100000000 13 0

0101000
+11 0 *
Ed
 0.000000100000000 1 1 0
1  28 0 0.000000000000000 1.000000000000000
2  47 15 0 0.000000000000000 1.000000000000000
2  48 14 0 0.000000000000000 1.000000000000000
0

0101000
+26 23 -26 30 *
Wi

0101100
+9 0 -12 0 -25 23 +25 30 *
Fa
0  0.000000100000000 14 0

0101000
+8 0 *
Wi

0101100
+15 0 -9 0 -24 23 +24 30 *
Fa
0  0.000000100000000 15 0

0101000
+6 0 *
Wi

0101100
+24 0 +25 0 +27 0 +29 0 *
Fa
0  0.000000100000000 12 0

0101000
+4 32 *
Sh

0101100
-74 5 -69 5 -64 5 +61 12 +50 14 -48 5 +41 5 +36 5 +22 0 +19 5 
-17 12 +13 0 +10 0 +7 0 +5 0 -3 31 *
So

0100000
+2 0 *

+1 1 