
CASCADE Topology V1, (c) Matra-Datavision
Locations 17
1
1.000000000000000 0.000000000000000 0.000000000000000 0.000000000000000 
0.000000000000000 1.000000000000000 0.000000000000000 0.000000000000000 
0.000000000000000 0.000000000000000 1.000000000000000 0.000000000000000 
1
-1.000000000000000 0.000000000000000 0.000000000000000 0.000000000000000 
0.000000000000000 0.000000000000000 1.000000000000000 0.000000000000000 
0.000000000000000 1.000000000000000 -0.000000000000000 0.000000000000000 
1
1.000000000000000 0.000000000000000 0.000000000000000 0.000000000000000 
0.000000000000000 1.000000000000000 0.000000000000000 0.000000000000000 
0.000000000000000 0.000000000000000 1.000000000000000 0.000000000000000 
2  1 1 2 1 3 -1 0
1
1.000000000000000 0.000000000000000 0.000000000000000 0.000000000000000 
0.000000000000000 1.000000000000000 0.000000000000000 1.000000000000000 
0.000000000000000 0.000000000000000 1.000000000000000 -0.000000000000000 
2  1 1 2 1 3 -1 5 1 0
2  3 1 2 -1 1 -1 0
2  5 -1 3 1 2 -1 1 -1 0
2  2 -1 1 -1 0
1
1.000000000000000 0.000000000000000 0.000000000000000 0.000000000000000 
0.000000000000000 1.000000000000000 0.000000000000000 0.000000000000000 
0.000000000000000 0.000000000000000 1.000000000000000 0.000000000000000 
1
1.000000000000000 0.000000000000000 0.000000000000000 0.000000000000000 
0.000000000000000 1.000000000000000 0.000000000000000 0.000000000000000 
0.000000000000000 0.000000000000000 1.000000000000000 0.000000000000000 
1
1.000000000000000 0.000000000000000 0.000000000000000 0.000000000000000 
0.000000000000000 1.000000000000000 0.000000000000000 0.000000000000000 
0.000000000000000 0.000000000000000 1.000000000000000 0.000000000000000 
1
1.000000000000000 0.000000000000000 0.000000000000000 0.000000000000000 
0.000000000000000 1.000000000000000 0.000000000000000 0.000000000000000 
0.000000000000000 0.000000000000000 1.000000000000000 0.000000000000000 
2  10 1 11 -1 12 1 13 1 2 -1 1 -1 0
2  3 -1 0
2  1 1 2 1 0
2  3 -1 5 1 0
Curve2ds 24
1 0.00000000000000000 0.00000000000000000 0.00000000000000000 -1.00000000000000000 
1 3.00000000000000000 0.00000000000000000 0.00000000000000000 -1.00000000000000000 
1 20.00000000000000000 0.00000000000000000 0.00000000000000000 -1.00000000000000000 
1 0.00000000000000000 0.00000000000000000 0.00000000000000000 -1.00000000000000000 
1 0.00000000000000000 0.00000000000000000 1.00000000000000000 0.00000000000000000 
1 0.00000000000000000 -1.00000000000000000 1.00000000000000000 0.00000000000000000 
1 1.50000000000000000 10.00000000000000000 0.00000000000000000 -1.00000000000000000 
1 25.00000000000000000 -10.00000000000000000 -1.00000000000000000 0.00000000000000000 
1 3.00000000000000000 0.00000000000000000 0.00000000000000000 -1.00000000000000000 
1 0.00000000000000000 0.00000000000000000 0.00000000000000000 -1.00000000000000000 
1 0.00000000000000000 0.00000000000000000 1.00000000000000000 0.00000000000000000 
1 -0.00000000000000022 -1.00000000000000000 1.00000000000000000 0.00000000000000000 
1 1.50000000000000000 -10.00000000000000000 -1.00000000000000000 0.00000000000000000 
1 5.00000000000000000 -10.00000000000000000 0.00000000000000000 1.00000000000000000 
1 0.00000000000000000 0.00000000000000000 0.00000000000000000 -1.00000000000000000 
1 20.00000000000000000 0.00000000000000000 0.00000000000000000 -1.00000000000000000 
1 -1.50000000000000000 -10.00000000000000000 0.00000000000000000 1.00000000000000000 
1 0.00000000000000000 0.00000000000000000 1.00000000000000000 0.00000000000000000 
1 0.00000000000000000 -1.00000000000000000 1.00000000000000000 0.00000000000000000 
1 5.00000000000000000 -7.00000000000000000 1.00000000000000000 0.00000000000000000 
1 0.00000000000000000 0.00000000000000000 1.00000000000000000 0.00000000000000000 
1 0.00000000000000022 -1.00000000000000000 1.00000000000000000 0.00000000000000000 
1 -1.50000000000000000 10.00000000000000000 1.00000000000000000 0.00000000000000000 
1 25.00000000000000000 -7.00000000000000000 0.00000000000000000 -1.00000000000000000 
Curves 8
1 70.00000000000000000 0.00000000000000222 10.00000000000000000 0.00000000000000000 1.00000000000000000 -0.00000000000000022 
1 50.00000000000000000 0.00000000000000222 10.00000000000000000 0.00000000000000000 1.00000000000000000 -0.00000000000000022 
1 -70.00000000000000000 10.00000000000000000 0.00000000000000000 1.00000000000000000 0.00000000000000000 0.00000000000000000 
1 50.00000000000000000 0.00000000000000155 7.00000000000000000 0.00000000000000000 1.00000000000000000 -0.00000000000000022 
1 -50.00000000000000000 10.00000000000000000 0.00000000000000000 0.00000000000000000 -1.00000000000000000 0.00000000000000000 
1 70.00000000000000000 0.00000000000000155 7.00000000000000000 0.00000000000000000 1.00000000000000000 -0.00000000000000022 
1 -50.00000000000000000 7.00000000000000000 0.00000000000000000 -1.00000000000000000 0.00000000000000000 0.00000000000000000 
1 -70.00000000000000000 7.00000000000000000 0.00000000000000000 0.00000000000000000 1.00000000000000000 0.00000000000000000 
Polygon3D 0
PolygonOnTriangulations 0
Surfaces 6
1 70.00000000000000000 0.00000000000000222 10.00000000000000000 0.00000000000000000 0.00000000000000022 1.00000000000000000 -1.00000000000000000 0.00000000000000000 0.00000000000000000 0.00000000000000000 -1.00000000000000000 0.00000000000000022 
1 70.00000000000000000 0.00000000000000155 7.00000000000000000 1.00000000000000000 -0.00000000000000000 0.00000000000000000 0.00000000000000000 0.00000000000000022 1.00000000000000000 -0.00000000000000000 -1.00000000000000000 0.00000000000000022 
1 50.00000000000000000 0.00000000000000222 10.00000000000000000 -1.00000000000000000 0.00000000000000000 -0.00000000000000000 0.00000000000000000 -0.00000000000000022 -1.00000000000000000 -0.00000000000000000 -1.00000000000000000 0.00000000000000022 
1 60.00000000000000000 0.00000000000000189 8.50000000000000000 0.00000000000000000 1.00000000000000000 -0.00000000000000022 0.00000000000000000 0.00000000000000022 1.00000000000000000 1.00000000000000000 -0.00000000000000000 0.00000000000000000 
1 45.00000000000000000 0.00000000000000000 0.00000000000000000 0.00000000000000000 1.00000000000000000 0.00000000000000000 1.00000000000000000 0.00000000000000000 0.00000000000000000 0.00000000000000000 0.00000000000000000 -1.00000000000000000 
1 50.00000000000000000 0.00000000000000155 7.00000000000000000 0.00000000000000000 -0.00000000000000022 -1.00000000000000000 1.00000000000000000 0.00000000000000000 0.00000000000000000 0.00000000000000000 -1.00000000000000000 0.00000000000000022 
Triangulations 0

TShapes 24
Ve
0.000000100000002
-70.000000000000000 10.000000000000000 0.000000000000000
0 0

0101101
*
Ed
 0.000000100000000 1 1 0
1  1 0 0.000000000000000 1.000000000000000
2  1 1 0 0.000000000000000 1.000000000000000
2  2 2 0 0.000000000000000 1.000000000000000
0

0101000
+24 4 -24 6 *
Ve
0.000000100000002
-50.000000000000000 10.000000000000000 0.000000000000000
0 0

0101101
*
Ed
 0.000000100000000 1 1 0
1  2 0 0.000000000000000 1.000000000000000
2  3 1 0 0.000000000000000 1.000000000000000
2  4 3 0 0.000000000000000 1.000000000000000
0

0101000
+22 4 -22 6 *
Ed
 0.000000100000002 1 1 0
1  3 0 0.000000000000000 20.000000000000000
2  5 1 7 0.000000000000000 20.000000000000000
2  6 1 8 0.000000000000000 20.000000000000000
2  7 4 9 0.000000000000000 20.000000000000000
2  8 5 14 0.000000000000000 20.000000000000000
0

0101000
+24 0 -22 0 *
Wi

0101100
+23 0 -21 0 -20 4 +20 6 *
Fa
0  0.000000100000000 1 0

0101000
+19 0 *
Ve
0.000000100000002
-50.000000000000000 7.000000000000000 0.000000000000000
0 0

0101101
*
Ed
 0.000000100000000 1 1 0
1  4 0 0.000000000000000 1.000000000000000
2  9 3 0 0.000000000000000 1.000000000000000
2  10 6 0 0.000000000000000 1.000000000000000
0

0101000
+17 4 -17 6 *
Ed
 0.000000100000002 1 1 0
1  5 0 0.000000000000000 3.000000000000000
2  11 3 7 0.000000000000000 3.000000000000000
2  12 3 8 0.000000000000000 3.000000000000000
2  13 4 9 0.000000000000000 3.000000000000000
2  14 5 14 0.000000000000000 3.000000000000000
0

0101000
+22 0 -17 0 *
Wi

0101100
+21 0 -16 0 -15 4 +15 6 *
Fa
0  0.000000100000000 3 0

0101000
+14 0 *
Ve
0.000000100000002
-70.000000000000000 7.000000000000000 0.000000000000000
0 0

0101101
*
Ed
 0.000000100000000 1 1 0
1  6 0 0.000000000000000 1.000000000000000
2  15 2 0 0.000000000000000 1.000000000000000
2  16 6 0 0.000000000000000 1.000000000000000
0

0101000
+12 4 -12 6 *
Ed
 0.000000100000002 1 1 0
1  7 0 0.000000000000000 20.000000000000000
2  17 4 9 0.000000000000000 20.000000000000000
2  18 6 7 0.000000000000000 20.000000000000000
2  19 6 8 0.000000000000000 20.000000000000000
2  20 5 14 0.000000000000000 20.000000000000000
0

0101000
+17 0 -12 0 *
Wi

0101100
+16 0 -11 0 -10 4 +10 6 *
Fa
0  0.000000100000000 6 0

0101000
+9 0 *
Ed
 0.000000100000002 1 1 0
1  8 0 0.000000000000000 3.000000000000000
2  21 2 7 0.000000000000000 3.000000000000000
2  22 2 8 0.000000000000000 3.000000000000000
2  23 4 9 0.000000000000000 3.000000000000000
2  24 5 14 0.000000000000000 3.000000000000000
0

0101000
+12 0 -24 0 *
Wi

0101100
+11 0 -23 0 -7 4 +7 6 *
Fa
0  0.000000100000000 2 0

0101000
+6 0 *
Wi

0101100
+20 0 +15 0 +10 0 +7 0 *
Fa
0  0.000000100000000 4 0

0101000
-4 16 *
Sh

0101100
-18 0 -13 0 -8 0 -5 0 +3 15 -3 17 *
So

0100000
-2 0 *

+1 0 