
CASCADE Topology V1, (c) Matra-Datavision
Locations 20
1
1.000000000000000 0.000000000000000 0.000000000000000 0.000000000000000 
0.000000000000000 1.000000000000000 0.000000000000000 0.000000000000000 
0.000000000000000 0.000000000000000 1.000000000000000 0.000000000000000 
1
1.000000000000000 0.000000000000000 0.000000000000000 0.000000000000000 
0.000000000000000 1.000000000000000 0.000000000000000 0.000000000000000 
0.000000000000000 0.000000000000000 1.000000000000000 0.000000000000000 
1
1.000000000000000 0.000000000000000 0.000000000000000 0.000000000000000 
0.000000000000000 1.000000000000000 0.000000000000000 0.000000000000000 
0.000000000000000 0.000000000000000 1.000000000000000 0.000000000000000 
2  3 -1 2 -1 0
1
1.000000000000000 0.000000000000000 0.000000000000000 0.000000000000000 
0.000000000000000 1.000000000000000 0.000000000000000 0.000000000000000 
0.000000000000000 0.000000000000000 1.000000000000000 0.000000000000000 
1
1.000000000000000 0.000000000000000 0.000000000000000 0.000000000000000 
0.000000000000000 1.000000000000000 0.000000000000000 0.000000000000000 
0.000000000000000 0.000000000000000 1.000000000000000 0.000000000000000 
1
1.000000000000000 0.000000000000000 0.000000000000000 0.000000000000000 
0.000000000000000 1.000000000000000 0.000000000000000 0.000000000000000 
0.000000000000000 0.000000000000000 1.000000000000000 0.000000000000000 
2  5 1 6 1 7 -1 0
2  3 -1 2 -1 7 1 6 -1 5 -1 0
1
1.000000000000000 0.000000000000000 0.000000000000000 0.000000000000000 
0.000000000000000 1.000000000000000 0.000000000000000 0.000000000000000 
0.000000000000000 0.000000000000000 1.000000000000000 30.000000000000000 
2  5 1 6 1 7 -1 10 1 0
2  3 -1 2 -1 10 -1 7 1 6 -1 5 -1 0
2  7 -1 2 1 0
2  5 1 6 1 0
2  7 -1 10 1 2 1 0
2  2 -1 10 -1 7 1 0
2  5 1 6 1 7 -1 10 1 2 1 0
2  3 -1 0
2  2 -1 0
2  2 -1 7 1 0
Curve2ds 0
Curves 24
1 0.00000000000000000 50.00000000000000000 0.00000000000000000 0.00000000000000000 0.00000000000000000 1.00000000000000000 
1 120.00000000000000000 50.00000000000000000 0.00000000000000000 0.00000000000000000 0.00000000000000000 1.00000000000000000 
1 0.00000000000000000 50.00000000000000000 0.00000000000000000 1.00000000000000000 0.00000000000000000 0.00000000000000000 
1 0.00000000000000000 50.00000000000000000 0.00000000000000000 1.00000000000000000 0.00000000000000000 0.00000000000000000 
1 120.00000000000000000 0.00000000000000000 0.00000000000000000 0.00000000000000000 0.00000000000000000 1.00000000000000000 
1 120.00000000000000000 50.00000000000000000 0.00000000000000000 0.00000000000000000 -1.00000000000000000 0.00000000000000000 
1 120.00000000000000000 50.00000000000000000 0.00000000000000000 0.00000000000000000 -1.00000000000000000 0.00000000000000000 
1 0.00000000000000000 0.00000000000000000 0.00000000000000000 0.00000000000000000 0.00000000000000000 1.00000000000000000 
1 120.00000000000000000 0.00000000000000000 0.00000000000000000 -1.00000000000000000 0.00000000000000000 0.00000000000000000 
1 120.00000000000000000 0.00000000000000000 0.00000000000000000 -1.00000000000000000 0.00000000000000000 0.00000000000000000 
1 0.00000000000000000 0.00000000000000000 0.00000000000000000 0.00000000000000000 1.00000000000000000 0.00000000000000000 
1 0.00000000000000000 0.00000000000000000 0.00000000000000000 0.00000000000000000 1.00000000000000000 0.00000000000000000 
8 -9999970.00000000000000000 9999970.00000000000000000
1 30.00000000000000000 52.00000000000000000 30.00000000000000000 -1.00000000000000000 0.00000000000000000 0.00000000000000000 
8 -9999987.50000000000000000 9999987.50000000000000000
1 -2.00000000000000000 12.50000000000000000 30.00000000000000000 0.00000000000000000 -1.00000000000000000 0.00000000000000000 
8 -9999970.00000000000000000 9999970.00000000000000000
1 90.00000000000000000 -2.00000000000000000 30.00000000000000000 1.00000000000000000 0.00000000000000000 0.00000000000000000 
8 -9999987.50000000000000000 9999987.50000000000000000
1 122.00000000000000000 37.50000000000000000 30.00000000000000000 0.00000000000000000 1.00000000000000000 0.00000000000000000 
8 -10000000.00000000000000000 10000000.00000000000000000
1 -2.00000000000000000 52.00000000000000000 0.00000000000000000 0.00000000000000000 0.00000000000000000 1.00000000000000000 
8 -10000000.00000000000000000 10000000.00000000000000000
1 122.00000000000000000 52.00000000000000000 0.00000000000000000 0.00000000000000000 0.00000000000000000 -1.00000000000000000 
8 -9999970.00000000000000000 9999970.00000000000000000
1 30.00000000000000000 52.00000000000000000 -2.00000000000000000 1.00000000000000000 0.00000000000000000 0.00000000000000000 
8 -10000000.00000000000000000 10000000.00000000000000000
1 122.00000000000000000 -2.00000000000000000 0.00000000000000000 0.00000000000000000 0.00000000000000000 -1.00000000000000000 
8 -9999987.50000000000000000 9999987.50000000000000000
1 122.00000000000000000 37.50000000000000000 -2.00000000000000000 0.00000000000000000 -1.00000000000000000 0.00000000000000000 
8 -10000000.00000000000000000 10000000.00000000000000000
1 -2.00000000000000000 -2.00000000000000000 0.00000000000000000 -0.00000000000000000 -0.00000000000000000 -1.00000000000000000 
8 -9999970.00000000000000000 9999970.00000000000000000
1 90.00000000000000000 -2.00000000000000000 -2.00000000000000000 -1.00000000000000000 0.00000000000000000 0.00000000000000000 
8 -9999987.50000000000000000 9999987.50000000000000000
1 -2.00000000000000000 12.50000000000000000 -2.00000000000000000 0.00000000000000000 1.00000000000000000 0.00000000000000000 
Polygon3D 0
PolygonOnTriangulations 0
Surfaces 11
1 0.00000000000000000 50.00000000000000000 0.00000000000000000 0.00000000000000000 1.00000000000000000 0.00000000000000000 1.00000000000000000 0.00000000000000000 0.00000000000000000 0.00000000000000000 0.00000000000000000 -1.00000000000000000 
1 120.00000000000000000 50.00000000000000000 0.00000000000000000 1.00000000000000000 0.00000000000000000 0.00000000000000000 0.00000000000000000 -1.00000000000000000 0.00000000000000000 0.00000000000000000 0.00000000000000000 -1.00000000000000000 
1 120.00000000000000000 0.00000000000000000 0.00000000000000000 0.00000000000000000 -1.00000000000000000 0.00000000000000000 -1.00000000000000000 0.00000000000000000 0.00000000000000000 -0.00000000000000000 -0.00000000000000000 -1.00000000000000000 
1 0.00000000000000000 0.00000000000000000 0.00000000000000000 -1.00000000000000000 0.00000000000000000 0.00000000000000000 0.00000000000000000 1.00000000000000000 0.00000000000000000 0.00000000000000000 0.00000000000000000 -1.00000000000000000 
1 60.00000000000000000 25.00000000000000000 0.00000000000000000 0.00000000000000000 0.00000000000000000 1.00000000000000000 1.00000000000000000 0.00000000000000000 0.00000000000000000 0.00000000000000000 1.00000000000000000 0.00000000000000000 
1 60.00000000000000000 25.00000000000000000 0.00000000000000000 0.00000000000000000 0.00000000000000000 1.00000000000000000 1.00000000000000000 0.00000000000000000 0.00000000000000000 0.00000000000000000 1.00000000000000000 0.00000000000000000 
1 0.00000000000000000 52.00000000000000000 0.00000000000000000 0.00000000000000000 1.00000000000000000 0.00000000000000000 1.00000000000000000 0.00000000000000000 0.00000000000000000 0.00000000000000000 0.00000000000000000 -1.00000000000000000 
1 122.00000000000000000 50.00000000000000000 0.00000000000000000 1.00000000000000000 0.00000000000000000 0.00000000000000000 0.00000000000000000 -1.00000000000000000 0.00000000000000000 0.00000000000000000 0.00000000000000000 -1.00000000000000000 
1 120.00000000000000000 -2.00000000000000000 0.00000000000000000 0.00000000000000000 -1.00000000000000000 0.00000000000000000 -1.00000000000000000 0.00000000000000000 0.00000000000000000 -0.00000000000000000 -0.00000000000000000 -1.00000000000000000 
1 -2.00000000000000000 0.00000000000000000 0.00000000000000000 -1.00000000000000000 0.00000000000000000 0.00000000000000000 0.00000000000000000 1.00000000000000000 0.00000000000000000 0.00000000000000000 0.00000000000000000 -1.00000000000000000 
1 60.00000000000000000 25.00000000000000000 -2.00000000000000000 0.00000000000000000 0.00000000000000000 1.00000000000000000 1.00000000000000000 0.00000000000000000 0.00000000000000000 0.00000000000000000 1.00000000000000000 0.00000000000000000 
Triangulations 0

TShapes 65
Ve
0.001000000000000
0.000000000000000 50.000000000000000 0.000000000000000
0 0

0101101
*
Ve
0.001000000000000
0.000000000000000 50.000000000000000 30.000000000000000
0 0

0101101
*
Ed
 0.000000100000000 1 1 0
1  1 0 0.000000000000000 30.000000000000000
0

0101000
+65 4 -64 4 *
Ve
0.001000000000000
120.000000000000000 50.000000000000000 0.000000000000000
0 0

0101101
*
Ve
0.001000000000000
120.000000000000000 50.000000000000000 30.000000000000000
0 0

0101101
*
Ed
 0.000000100000000 1 1 0
1  2 0 0.000000000000000 30.000000000000000
0

0101000
+62 4 -61 4 *
Ed
 0.001000000000000 1 1 0
1  3 0 0.000000000000000 120.000000000000000
0

0101000
+65 9 -62 9 *
Ed
 0.001000000000000 1 1 0
1  4 0 0.000000000000000 120.000000000000000
0

0101000
+64 12 -61 12 *
Wi

0101100
+63 0 -60 0 -59 8 +58 11 *
Fa
0  0.000000100000000 1 0

0111000
+57 0 *
Ve
0.001000000000000
120.000000000000000 0.000000000000000 0.000000000000000
0 0

0101101
*
Ve
0.001000000000000
120.000000000000000 0.000000000000000 30.000000000000000
0 0

0101101
*
Ed
 0.000000100000000 1 1 0
1  5 0 0.000000000000000 30.000000000000000
0

0101000
+55 4 -54 4 *
Ed
 0.001000000000000 1 1 0
1  6 0 0.000000000000000 50.000000000000000
0

0101000
+62 9 -55 9 *
Ed
 0.001000000000000 1 1 0
1  7 0 0.000000000000000 50.000000000000000
0

0101000
+61 12 -54 12 *
Wi

0101100
+60 0 -53 0 -52 8 +51 11 *
Fa
0  0.000000100000000 2 0

0111000
+50 0 *
Ve
0.001000000000000
0.000000000000000 0.000000000000000 0.000000000000000
0 0

0101101
*
Ve
0.001000000000000
0.000000000000000 0.000000000000000 30.000000000000000
0 0

0101101
*
Ed
 0.000000100000000 1 1 0
1  8 0 0.000000000000000 30.000000000000000
0

0101000
+48 4 -47 4 *
Ed
 0.001000000000000 1 1 0
1  9 0 0.000000000000000 120.000000000000000
0

0101000
+55 9 -48 9 *
Ed
 0.001000000000000 1 1 0
1  10 0 0.000000000000000 120.000000000000000
0

0101000
+54 12 -47 12 *
Wi

0101100
+53 0 -46 0 -45 8 +44 11 *
Fa
0  0.000000100000000 3 0

0111000
+43 0 *
Ed
 0.001000000000000 1 1 0
1  11 0 0.000000000000000 50.000000000000000
0

0101000
+48 9 -65 9 *
Ed
 0.001000000000000 1 1 0
1  12 0 0.000000000000000 50.000000000000000
0

0101000
+47 12 -64 12 *
Wi

0101100
+46 0 -63 0 -41 8 +40 11 *
Fa
0  0.000000100000000 4 0

0111000
+39 0 *
Wi

0101100
+59 0 +52 0 +45 0 +41 0 *
Fa
0  0.000000100000000 5 0

0111000
-37 14 *
Wi

0101100
+58 17 +51 17 +44 17 +40 17 *
Ve
0.001000000000000
122.000000000000000 52.000000000000000 30.000000000000000
0 0

0101101
*
Ve
0.001000000000000
-2.000000000000000 52.000000000000000 30.000000000000000
0 0

0101101
*
Ed
 0.001000000000000 1 1 0
1  13 0 -92.000000000000000 32.000000000000000
0

0101000
+34 18 -33 18 *
Ve
0.001000000000000
-2.000000000000000 -2.000000000000000 30.000000000000000
0 0

0101101
*
Ed
 0.001000000000000 1 1 0
1  14 0 -39.500000000000000 14.500000000000000
0

0101000
+33 18 -31 18 *
Ve
0.001000000000000
122.000000000000000 -2.000000000000000 30.000000000000000
0 0

0101101
*
Ed
 0.001000000000000 1 1 0
1  15 0 -92.000000000000000 32.000000000000000
0

0101000
+31 18 -29 18 *
Ed
 0.001000000000000 1 1 0
1  16 0 -39.500000000000000 14.500000000000000
0

0101000
+29 18 -34 18 *
Wi

0101100
+32 0 +30 0 +28 0 +27 0 *
Fa
0  0.000000100000000 6 0

0111000
+35 16 +26 16 *
Ve
0.001000000000000
-2.000000000000000 52.000000000000000 -2.000000000000000
0 0

0101101
*
Ed
 0.001000000000000 1 1 0
1  17 0 -2.000000000000000 30.000000000000000
0

0101000
+24 18 -33 18 *
Ve
0.001000000000000
122.000000000000000 52.000000000000000 -2.000000000000000
0 0

0101101
*
Ed
 0.001000000000000 1 1 0
1  18 0 -30.000000000000000 2.000000000000000
0

0101000
+34 18 -22 18 *
Ed
 0.001000000000000 1 1 0
1  19 0 -32.000000000000000 92.000000000000000
0

0101000
+24 18 -22 18 *
Wi

0101100
+23 0 -32 0 +21 0 -20 0 *
Fa
0  0.000000100000000 7 0

0111000
+19 19 *
Ve
0.001000000000000
122.000000000000000 -2.000000000000000 -2.000000000000000
0 0

0101101
*
Ed
 0.001000000000000 1 1 0
1  20 0 -30.000000000000000 2.000000000000000
0

0101000
+29 18 -17 18 *
Ed
 0.001000000000000 1 1 0
1  21 0 -14.500000000000000 39.500000000000000
0

0101000
+22 18 -17 18 *
Wi

0101100
+16 0 -15 0 -21 0 -27 0 *
Fa
0  0.000000100000000 8 0

0111000
+14 19 *
Ve
0.001000000000000
-2.000000000000000 -2.000000000000000 -2.000000000000000
0 0

0101101
*
Ed
 0.001000000000000 1 1 0
1  22 0 -30.000000000000000 2.000000000000000
0

0101000
+31 18 -12 18 *
Ed
 0.001000000000000 1 1 0
1  23 0 -32.000000000000000 92.000000000000000
0

0101000
+17 18 -12 18 *
Wi

0101100
+11 0 -10 0 -16 0 -28 0 *
Fa
0  0.000000100000000 9 0

0111000
+9 19 *
Ed
 0.001000000000000 1 1 0
1  24 0 -14.500000000000000 39.500000000000000
0

0101000
+12 18 -24 18 *
Wi

0101100
-7 0 -11 0 -30 0 -23 0 *
Fa
0  0.000000100000000 10 0

0111000
+6 19 *
Wi

0101100
-20 0 -7 0 -10 0 -15 0 *
Fa
0  0.000000100000000 11 0

0111000
+4 20 *
Sh

0101100
+56 2 +49 2 +42 2 +38 2 -36 13 -25 15 -18 2 -13 2 -8 2 -5 2 
+3 13 *
So

1100100
+2 0 *

-1 1 