
CASCADE Topology V1, (c) Matra-Datavision
Locations 15
1
1.000000000000000 0.000000000000000 0.000000000000000 0.000000000000000 
0.000000000000000 1.000000000000000 0.000000000000000 0.000000000000000 
0.000000000000000 0.000000000000000 1.000000000000000 0.000000000000000 
1
1.000000000000000 0.000000000000000 0.000000000000000 0.000000000000000 
0.000000000000000 1.000000000000000 0.000000000000000 0.000000000000000 
0.000000000000000 0.000000000000000 1.000000000000000 0.000000000000000 
1
1.000000000000000 0.000000000000000 0.000000000000000 0.000000000000000 
0.000000000000000 1.000000000000000 0.000000000000000 0.000000000000000 
0.000000000000000 0.000000000000000 1.000000000000000 0.000000000000000 
1
1.000000000000000 0.000000000000000 0.000000000000000 0.000000000000000 
0.000000000000000 1.000000000000000 0.000000000000000 0.000000000000000 
0.000000000000000 0.000000000000000 1.000000000000000 0.000000000000000 
1
1.000000000000000 0.000000000000000 0.000000000000000 0.000000000000000 
0.000000000000000 1.000000000000000 0.000000000000000 0.000000000000000 
0.000000000000000 0.000000000000000 1.000000000000000 0.000000000000000 
2  3 1 4 1 5 -1 0
1
1.000000000000000 0.000000000000000 0.000000000000000 0.000000000000000 
0.000000000000000 1.000000000000000 0.000000000000000 0.000000000000000 
0.000000000000000 0.000000000000000 1.000000000000000 30.000000000000000 
2  3 1 4 1 5 -1 7 1 0
2  5 -1 2 1 0
2  3 1 4 1 0
2  5 -1 7 1 2 1 0
2  2 -1 7 -1 5 1 0
2  3 1 4 1 5 -1 7 1 2 1 0
2  2 -1 0
2  2 -1 5 1 0
Curve2ds 24
8 -90.00000000000000000 30.00000000000000000
1 30.00000000000000000 -23.00000000000000000 1.00000000000000000 0.00000000000000000 
8 -90.00000000000000000 30.00000000000000000
1 30.00000000000000000 -30.00000000000000000 -1.00000000000000000 0.00000000000000000 
8 -37.50000000000000000 12.50000000000000000
1 -58.00000000000000000 -12.50000000000000000 0.00000000000000000 -1.00000000000000000 
8 -37.50000000000000000 12.50000000000000000
1 12.50000000000000000 -30.00000000000000000 -1.00000000000000000 0.00000000000000000 
8 -90.00000000000000000 30.00000000000000000
1 -30.00000000000000000 23.00000000000000000 -1.00000000000000000 0.00000000000000000 
8 -90.00000000000000000 30.00000000000000000
1 30.00000000000000000 -30.00000000000000000 -1.00000000000000000 0.00000000000000000 
8 -37.50000000000000000 12.50000000000000000
1 58.00000000000000000 12.50000000000000000 0.00000000000000000 1.00000000000000000 
8 -37.50000000000000000 12.50000000000000000
1 12.50000000000000000 -30.00000000000000000 -1.00000000000000000 0.00000000000000000 
8 -10000000.00000000000000000 10000000.00000000000000000
1 2.00000000000000000 0.00000000000000000 0.00000000000000000 -1.00000000000000000 
8 -10000000.00000000000000000 10000000.00000000000000000
1 48.00000000000000000 0.00000000000000000 0.00000000000000000 -1.00000000000000000 
8 -10000000.00000000000000000 10000000.00000000000000000
1 118.00000000000000000 0.00000000000000000 0.00000000000000000 1.00000000000000000 
8 -10000000.00000000000000000 10000000.00000000000000000
1 2.00000000000000000 0.00000000000000000 0.00000000000000000 1.00000000000000000 
8 -9999970.00000000000000000 9999970.00000000000000000
1 30.00000000000000000 -2.00000000000000000 1.00000000000000000 0.00000000000000000 
8 -9999970.00000000000000000 9999970.00000000000000000
1 -30.00000000000000000 23.00000000000000000 1.00000000000000000 0.00000000000000000 
8 -10000000.00000000000000000 10000000.00000000000000000
1 48.00000000000000000 0.00000000000000000 0.00000000000000000 1.00000000000000000 
8 -10000000.00000000000000000 10000000.00000000000000000
1 2.00000000000000000 0.00000000000000000 0.00000000000000000 1.00000000000000000 
8 -9999987.50000000000000000 9999987.50000000000000000
1 12.50000000000000000 -2.00000000000000000 1.00000000000000000 0.00000000000000000 
8 -9999987.50000000000000000 9999987.50000000000000000
1 58.00000000000000000 12.50000000000000000 0.00000000000000000 -1.00000000000000000 
8 -10000000.00000000000000000 10000000.00000000000000000
1 118.00000000000000000 0.00000000000000000 0.00000000000000000 1.00000000000000000 
8 -10000000.00000000000000000 10000000.00000000000000000
1 2.00000000000000000 0.00000000000000000 -0.00000000000000000 1.00000000000000000 
8 -9999970.00000000000000000 9999970.00000000000000000
1 30.00000000000000000 -2.00000000000000000 1.00000000000000000 0.00000000000000000 
8 -9999970.00000000000000000 9999970.00000000000000000
1 30.00000000000000000 -23.00000000000000000 -1.00000000000000000 0.00000000000000000 
8 -9999987.50000000000000000 9999987.50000000000000000
1 12.50000000000000000 -2.00000000000000000 1.00000000000000000 0.00000000000000000 
8 -9999987.50000000000000000 9999987.50000000000000000
1 -58.00000000000000000 -12.50000000000000000 0.00000000000000000 1.00000000000000000 
Curves 20
1 0.00000000000000000 50.00000000000000000 0.00000000000000000 0.00000000000000000 0.00000000000000000 1.00000000000000000 
1 120.00000000000000000 50.00000000000000000 0.00000000000000000 0.00000000000000000 0.00000000000000000 1.00000000000000000 
1 0.00000000000000000 50.00000000000000000 0.00000000000000000 1.00000000000000000 0.00000000000000000 0.00000000000000000 
1 120.00000000000000000 0.00000000000000000 0.00000000000000000 0.00000000000000000 0.00000000000000000 1.00000000000000000 
1 120.00000000000000000 50.00000000000000000 0.00000000000000000 0.00000000000000000 -1.00000000000000000 0.00000000000000000 
1 0.00000000000000000 0.00000000000000000 0.00000000000000000 0.00000000000000000 0.00000000000000000 1.00000000000000000 
1 120.00000000000000000 0.00000000000000000 0.00000000000000000 -1.00000000000000000 0.00000000000000000 0.00000000000000000 
1 0.00000000000000000 0.00000000000000000 0.00000000000000000 0.00000000000000000 1.00000000000000000 0.00000000000000000 
1 90.00000000000000000 2.00000000000000000 30.00000000000000000 1.00000000000000000 0.00000000000000000 -0.00000000000000000 
1 2.00000000000000000 12.50000000000000000 30.00000000000000000 0.00000000000000000 -1.00000000000000000 0.00000000000000000 
1 30.00000000000000000 48.00000000000000000 30.00000000000000000 -1.00000000000000000 0.00000000000000000 0.00000000000000000 
1 118.00000000000000000 37.50000000000000000 30.00000000000000000 0.00000000000000000 1.00000000000000000 0.00000000000000000 
8 -10000000.00000000000000000 10000000.00000000000000000
1 2.00000000000000000 48.00000000000000000 0.00000000000000000 0.00000000000000000 -0.00000000000000000 1.00000000000000000 
8 -10000000.00000000000000000 10000000.00000000000000000
1 118.00000000000000000 48.00000000000000000 0.00000000000000000 0.00000000000000000 0.00000000000000000 -1.00000000000000000 
8 -9999970.00000000000000000 9999970.00000000000000000
1 30.00000000000000000 48.00000000000000000 2.00000000000000000 1.00000000000000000 0.00000000000000000 0.00000000000000000 
8 -10000000.00000000000000000 10000000.00000000000000000
1 118.00000000000000000 2.00000000000000000 0.00000000000000000 0.00000000000000000 0.00000000000000000 -1.00000000000000000 
8 -9999987.50000000000000000 9999987.50000000000000000
1 118.00000000000000000 37.50000000000000000 2.00000000000000000 0.00000000000000000 -1.00000000000000000 0.00000000000000000 
8 -10000000.00000000000000000 10000000.00000000000000000
1 2.00000000000000000 2.00000000000000000 0.00000000000000000 -0.00000000000000000 -0.00000000000000000 -1.00000000000000000 
8 -9999970.00000000000000000 9999970.00000000000000000
1 90.00000000000000000 2.00000000000000000 2.00000000000000000 -1.00000000000000000 0.00000000000000000 0.00000000000000000 
8 -9999987.50000000000000000 9999987.50000000000000000
1 2.00000000000000000 12.50000000000000000 2.00000000000000000 0.00000000000000000 1.00000000000000000 -0.00000000000000000 
Polygon3D 0
PolygonOnTriangulations 0
Surfaces 10
1 0.00000000000000000 50.00000000000000000 0.00000000000000000 0.00000000000000000 1.00000000000000000 0.00000000000000000 1.00000000000000000 0.00000000000000000 0.00000000000000000 0.00000000000000000 0.00000000000000000 -1.00000000000000000 
1 120.00000000000000000 50.00000000000000000 0.00000000000000000 1.00000000000000000 0.00000000000000000 -0.00000000000000000 0.00000000000000000 -1.00000000000000000 0.00000000000000000 0.00000000000000000 -0.00000000000000000 -1.00000000000000000 
1 120.00000000000000000 0.00000000000000000 0.00000000000000000 0.00000000000000000 -1.00000000000000000 0.00000000000000000 -1.00000000000000000 0.00000000000000000 0.00000000000000000 -0.00000000000000000 -0.00000000000000000 -1.00000000000000000 
1 0.00000000000000000 0.00000000000000000 0.00000000000000000 -1.00000000000000000 0.00000000000000000 0.00000000000000000 0.00000000000000000 1.00000000000000000 0.00000000000000000 0.00000000000000000 0.00000000000000000 -1.00000000000000000 
1 60.00000000000000000 25.00000000000000000 0.00000000000000000 0.00000000000000000 0.00000000000000000 1.00000000000000000 1.00000000000000000 0.00000000000000000 -0.00000000000000000 -0.00000000000000000 1.00000000000000000 0.00000000000000000 
1 120.00000000000000000 2.00000000000000000 0.00000000000000000 0.00000000000000000 -1.00000000000000000 0.00000000000000000 -1.00000000000000000 0.00000000000000000 0.00000000000000000 -0.00000000000000000 -0.00000000000000000 -1.00000000000000000 
1 2.00000000000000000 0.00000000000000000 0.00000000000000000 -1.00000000000000000 0.00000000000000000 0.00000000000000000 0.00000000000000000 1.00000000000000000 0.00000000000000000 0.00000000000000000 0.00000000000000000 -1.00000000000000000 
1 0.00000000000000000 48.00000000000000000 0.00000000000000000 0.00000000000000000 1.00000000000000000 0.00000000000000000 1.00000000000000000 0.00000000000000000 0.00000000000000000 0.00000000000000000 0.00000000000000000 -1.00000000000000000 
1 118.00000000000000000 50.00000000000000000 0.00000000000000000 1.00000000000000000 0.00000000000000000 -0.00000000000000000 0.00000000000000000 -1.00000000000000000 0.00000000000000000 0.00000000000000000 -0.00000000000000000 -1.00000000000000000 
1 60.00000000000000000 25.00000000000000000 2.00000000000000000 0.00000000000000000 0.00000000000000000 1.00000000000000000 1.00000000000000000 0.00000000000000000 -0.00000000000000000 -0.00000000000000000 1.00000000000000000 0.00000000000000000 
Triangulations 0

TShapes 57
Ve
0.001000000000000
0.000000000000000 50.000000000000000 0.000000000000000
0 0

0101101
*
Ed
 0.000000100000000 1 1 0
1  1 0 0.000000000000000 30.000000000000000
0

0101000
+57 6 -57 8 *
Ve
0.001000000000000
120.000000000000000 50.000000000000000 0.000000000000000
0 0

0101101
*
Ed
 0.000000100000000 1 1 0
1  2 0 0.000000000000000 30.000000000000000
0

0101000
+55 6 -55 8 *
Ed
 0.001000000000000 1 1 0
1  3 0 0.000000000000000 120.000000000000000
0

0101000
+57 0 -55 0 *
Wi

0101100
+56 0 -54 0 -53 6 +53 8 *
Fa
0  0.000000100000000 1 0

0101000
+52 0 *
Ve
0.001000000000000
120.000000000000000 0.000000000000000 0.000000000000000
0 0

0101101
*
Ed
 0.000000100000000 1 1 0
1  4 0 0.000000000000000 30.000000000000000
0

0101000
+50 6 -50 8 *
Ed
 0.001000000000000 1 1 0
1  5 0 0.000000000000000 50.000000000000000
0

0101000
+55 0 -50 0 *
Wi

0101100
+54 0 -49 0 -48 6 +48 8 *
Fa
0  0.000000100000000 2 0

0101000
+47 0 *
Ve
0.001000000000000
0.000000000000000 0.000000000000000 0.000000000000000
0 0

0101101
*
Ed
 0.000000100000000 1 1 0
1  6 0 0.000000000000000 30.000000000000000
0

0101000
+45 6 -45 8 *
Ed
 0.001000000000000 1 1 0
1  7 0 0.000000000000000 120.000000000000000
0

0101000
+50 0 -45 0 *
Wi

0101100
+49 0 -44 0 -43 6 +43 8 *
Fa
0  0.000000100000000 3 0

0101000
+42 0 *
Ed
 0.001000000000000 1 1 0
1  8 0 0.000000000000000 50.000000000000000
0

0101000
+45 0 -57 0 *
Wi

0101100
+44 0 -56 0 -40 6 +40 8 *
Fa
0  0.000000100000000 4 0

0101000
+39 0 *
Wi

0101100
+53 0 +48 0 +43 0 +40 0 *
Fa
0  0.000000100000000 5 0

0101000
-37 10 *
Wi

0101100
-53 13 -40 13 -43 13 -48 13 *
Ve
0.001000000000000
2.000000000000000 2.000000000000000 30.000000000000000
0 0

0101101
*
Ve
0.001000000000000
118.000000000000000 2.000000000000000 30.000000000000000
0 0

0101101
*
Ed
 0.001000000000000 1 1 0
1  9 0 -88.000000000000000 28.000000000000000
2  1 5 11 -88.000000000000000 28.000000000000000
2  2 6 2 -88.000000000000000 28.000000000000000
0

0101000
+34 0 -33 0 *
Ve
0.001000000000000
2.000000000000000 48.000000000000000 30.000000000000000
0 0

0101101
*
Ed
 0.001000000000000 1 1 0
1  10 0 -35.500000000000000 10.500000000000000
2  3 5 11 -35.500000000000000 10.500000000000000
2  4 7 2 -35.500000000000000 10.500000000000000
0

0101000
+31 0 -34 0 *
Ve
0.001000000000000
118.000000000000000 48.000000000000000 30.000000000000000
0 0

0101101
*
Ed
 0.001000000000000 1 1 0
1  11 0 -88.000000000000000 28.000000000000000
2  5 5 11 -88.000000000000000 28.000000000000000
2  6 8 2 -88.000000000000000 28.000000000000000
0

0101000
+29 0 -31 0 *
Ed
 0.001000000000000 1 1 0
1  12 0 -35.500000000000000 10.500000000000000
2  7 5 11 -35.500000000000000 10.500000000000000
2  8 9 2 -35.500000000000000 10.500000000000000
0

0101000
+33 0 -29 0 *
Wi

0101100
-32 0 -30 0 -28 0 -27 0 *
Fa
0  0.000000100000000 5 0

0101000
+35 12 +26 12 *
Ve
0.001000000000000
2.000000000000000 48.000000000000000 2.000000000000000
0 0

0101101
*
Ed
 0.001000000000000 1 1 0
1  13 0 2.000000000000000 30.000000000000000
2  9 8 2 2.000000000000000 30.000000000000000
2  10 7 2 2.000000000000000 30.000000000000000
0

0101000
+24 0 -31 0 *
Ve
0.001000000000000
118.000000000000000 48.000000000000000 2.000000000000000
0 0

0101101
*
Ed
 0.001000000000000 1 1 0
1  14 0 -30.000000000000000 -2.000000000000000
2  11 8 2 -30.000000000000000 -2.000000000000000
2  12 9 2 -30.000000000000000 -2.000000000000000
0

0101000
+29 0 -22 0 *
Ed
 0.001000000000000 1 1 0
1  15 0 -28.000000000000000 88.000000000000000
2  13 8 2 -28.000000000000000 88.000000000000000
2  14 10 9 -28.000000000000000 88.000000000000000
0

0101000
+24 0 -22 0 *
Wi

0101100
+23 0 -28 0 +21 0 -20 0 *
Fa
0  0.000000100000000 8 0

0101000
+19 14 *
Ve
0.001000000000000
118.000000000000000 2.000000000000000 2.000000000000000
0 0

0101101
*
Ed
 0.001000000000000 1 1 0
1  16 0 -30.000000000000000 -2.000000000000000
2  15 9 2 -30.000000000000000 -2.000000000000000
2  16 6 2 -30.000000000000000 -2.000000000000000
0

0101000
+33 0 -17 0 *
Ed
 0.001000000000000 1 1 0
1  17 0 -10.500000000000000 35.500000000000000
2  17 9 2 -10.500000000000000 35.500000000000000
2  18 10 9 -10.500000000000000 35.500000000000000
0

0101000
+22 0 -17 0 *
Wi

0101100
+16 0 -15 0 -21 0 -27 0 *
Fa
0  0.000000100000000 9 0

0101000
+14 14 *
Ve
0.001000000000000
2.000000000000000 2.000000000000000 2.000000000000000
0 0

0101101
*
Ed
 0.001000000000000 1 1 0
1  18 0 -30.000000000000000 -2.000000000000000
2  19 6 2 -30.000000000000000 -2.000000000000000
2  20 7 2 -30.000000000000000 -2.000000000000000
0

0101000
+34 0 -12 0 *
Ed
 0.001000000000000 1 1 0
1  19 0 -28.000000000000000 88.000000000000000
2  21 6 2 -28.000000000000000 88.000000000000000
2  22 10 9 -28.000000000000000 88.000000000000000
0

0101000
+17 0 -12 0 *
Wi

0101100
+11 0 -10 0 -16 0 -32 0 *
Fa
0  0.000000100000000 6 0

0101000
+9 14 *
Ed
 0.001000000000000 1 1 0
1  20 0 -10.500000000000000 35.500000000000000
2  23 7 2 -10.500000000000000 35.500000000000000
2  24 10 9 -10.500000000000000 35.500000000000000
0

0101000
+12 0 -24 0 *
Wi

0101100
-7 0 -11 0 -30 0 -23 0 *
Fa
0  0.000000100000000 7 0

0101000
+6 14 *
Wi

0101100
-20 0 -7 0 -10 0 -15 0 *
Fa
0  0.000000100000000 10 0

0101000
+4 15 *
Sh

0101100
+51 2 +46 2 +41 2 +38 2 -36 9 +25 11 -18 2 -13 2 -8 2 -5 2 
+3 9 *
So

1100100
+2 0 *

+1 1 