
CASCADE Topology V1, (c) Matra-Datavision
Locations 31
1
1.000000000000000 0.000000000000000 0.000000000000000 0.000000000000000 
0.000000000000000 1.000000000000000 0.000000000000000 0.000000000000000 
0.000000000000000 0.000000000000000 1.000000000000000 0.000000000000000 
1
1.000000000000000 0.000000000000000 0.000000000000000 0.000000000000000 
0.000000000000000 1.000000000000000 0.000000000000000 0.000000000000000 
0.000000000000000 0.000000000000000 1.000000000000000 0.000000000000000 
1
1.000000000000000 0.000000000000000 0.000000000000000 0.000000000000000 
0.000000000000000 1.000000000000000 0.000000000000000 0.000000000000000 
0.000000000000000 0.000000000000000 1.000000000000000 0.000000000000000 
2  2 1 3 -1 0
1
1.000000000000000 0.000000000000000 0.000000000000000 0.000000000000000 
0.000000000000000 1.000000000000000 0.000000000000000 0.000000000000000 
0.000000000000000 0.000000000000000 1.000000000000000 0.000000000000000 
1
1.000000000000000 0.000000000000000 0.000000000000000 0.000000000000000 
0.000000000000000 1.000000000000000 0.000000000000000 0.000000000000000 
0.000000000000000 0.000000000000000 1.000000000000000 0.000000000000000 
1
1.000000000000000 0.000000000000000 0.000000000000000 0.000000000000000 
0.000000000000000 1.000000000000000 0.000000000000000 0.000000000000000 
0.000000000000000 0.000000000000000 1.000000000000000 0.000000000000000 
2  5 1 6 1 7 -1 2 1 3 -1 0
2  7 1 6 -1 5 -1 0
1
1.000000000000000 0.000000000000000 0.000000000000000 0.000000000000000 
0.000000000000000 1.000000000000000 0.000000000000000 0.000000000000000 
0.000000000000000 0.000000000000000 1.000000000000000 2.000000000000000 
2  10 -1 7 1 6 -1 5 -1 0
2  6 -1 5 -1 0
1
1.000000000000000 0.000000000000000 0.000000000000000 0.000000000000000 
0.000000000000000 1.000000000000000 0.000000000000000 0.000000000000000 
0.000000000000000 0.000000000000000 1.000000000000000 0.000000000000000 
1
1.000000000000000 0.000000000000000 0.000000000000000 0.000000000000000 
0.000000000000000 1.000000000000000 0.000000000000000 0.000000000000000 
0.000000000000000 0.000000000000000 1.000000000000000 0.000000000000000 
2  13 1 14 1 2 -1 7 1 6 -1 5 -1 0
2  13 1 14 1 3 -1 0
2  5 1 6 1 7 -1 10 1 2 1 3 -1 0
2  3 1 2 -1 10 -1 7 1 6 -1 5 -1 0
2  5 1 6 1 7 -1 0
2  5 1 6 1 7 -1 10 1 0
2  7 -1 2 1 3 -1 0
2  3 1 14 -1 13 -1 0
1
1.000000000000000 0.000000000000000 0.000000000000000 0.000000000000000 
0.000000000000000 1.000000000000000 0.000000000000000 0.000000000000000 
0.000000000000000 0.000000000000000 1.000000000000000 10.000000000000000 
2  23 -1 3 1 14 -1 13 -1 0
2  14 -1 13 -1 0
2  2 1 14 -1 13 -1 0
2  13 1 14 1 3 -1 23 1 0
2  7 -1 10 1 2 1 3 -1 0
2  3 -1 0
2  13 1 14 1 0
2  3 -1 23 1 0
Curve2ds 52
1 0.00000000000000000 0.00000000000000000 1.00000000000000000 0.00000000000000000 
1 0.00000000000000000 -2.00000000000000000 1.00000000000000000 0.00000000000000000 
1 -59.50000000000000000 44.50000000000000000 1.00000000000000000 0.00000000000000000 
1 30.00000000000000000 0.00000000000000000 0.00000000000000000 -1.00000000000000000 
1 0.00000000000000000 0.00000000000000000 0.00000000000000000 -1.00000000000000000 
1 42.50000000000000000 0.00000000000000000 0.00000000000000000 -1.00000000000000000 
1 0.00000000000000000 0.00000000000000000 0.00000000000000000 -1.00000000000000000 
1 0.00000000000000000 -0.00000000000000000 1.00000000000000000 0.00000000000000000 
1 0.00000000000000000 -10.00000000000000000 1.00000000000000000 0.00000000000000000 
1 15.00000000000000000 44.50000000000000000 -1.00000000000000000 0.00000000000000000 
1 72.50000000000000000 0.00000000000000000 -1.00000000000000000 0.00000000000000000 
1 59.50000000000000000 44.50000000000000000 0.00000000000000000 -1.00000000000000000 
1 0.00000000000000000 -0.00000000000000000 1.00000000000000000 0.00000000000000000 
1 0.00000000000000000 -2.00000000000000000 1.00000000000000000 0.00000000000000000 
1 59.50000000000000000 -44.50000000000000000 -1.00000000000000000 0.00000000000000000 
1 0.00000000000000000 0.00000000000000000 1.00000000000000000 0.00000000000000000 
1 0.00000000000000000 -10.00000000000000000 1.00000000000000000 0.00000000000000000 
1 -15.00000000000000000 -44.50000000000000000 1.00000000000000000 0.00000000000000000 
1 76.50000000000000000 0.00000000000000000 -1.00000000000000000 -0.00000000000000000 
1 -59.50000000000000000 -44.50000000000000000 0.00000000000000000 1.00000000000000000 
1 2.00000000000000000 0.00000000000000000 0.00000000000000000 -1.00000000000000000 
1 0.00000000000000000 0.00000000000000000 1.00000000000000000 0.00000000000000000 
1 0.00000000000000000 -10.00000000000000000 1.00000000000000000 0.00000000000000000 
1 -15.00000000000000000 44.50000000000000000 0.00000000000000000 1.00000000000000000 
1 72.50000000000000000 -2.00000000000000000 -1.00000000000000000 -0.00000000000000000 
1 76.50000000000000000 -2.00000000000000000 -1.00000000000000000 0.00000000000000000 
1 119.00000000000000000 0.00000000000000000 0.00000000000000000 -1.00000000000000000 
1 -15.00000000000000000 46.50000000000000000 1.00000000000000000 0.00000000000000000 
1 0.00000000000000000 0.00000000000000000 1.00000000000000000 0.00000000000000000 
1 0.00000000000000000 -10.00000000000000000 1.00000000000000000 0.00000000000000000 
1 15.00000000000000000 46.50000000000000000 0.00000000000000000 -1.00000000000000000 
1 119.00000000000000000 0.00000000000000000 0.00000000000000000 -1.00000000000000000 
1 2.00000000000000000 0.00000000000000000 0.00000000000000000 -1.00000000000000000 
1 0.00000000000000000 -0.00000000000000000 0.00000000000000000 -1.00000000000000000 
1 72.50000000000000000 0.00000000000000000 0.00000000000000000 -1.00000000000000000 
1 0.00000000000000000 -0.00000000000000000 0.00000000000000000 -1.00000000000000000 
1 30.00000000000000000 0.00000000000000000 0.00000000000000000 -1.00000000000000000 
1 0.00000000000000000 0.00000000000000000 0.00000000000000000 -1.00000000000000000 
1 46.50000000000000000 0.00000000000000000 0.00000000000000000 -1.00000000000000000 
1 0.00000000000000000 0.00000000000000000 1.00000000000000000 0.00000000000000000 
1 0.00000000000000000 -10.00000000000000000 1.00000000000000000 0.00000000000000000 
1 15.00000000000000000 -44.50000000000000000 0.00000000000000000 -1.00000000000000000 
1 15.00000000000000000 -46.50000000000000000 -1.00000000000000000 0.00000000000000000 
1 0.00000000000000000 0.00000000000000000 1.00000000000000000 0.00000000000000000 
1 0.00000000000000000 -10.00000000000000000 1.00000000000000000 0.00000000000000000 
1 -15.00000000000000000 -46.50000000000000000 0.00000000000000000 1.00000000000000000 
1 0.00000000000000000 0.00000000000000000 0.00000000000000000 -1.00000000000000000 
1 2.00000000000000000 0.00000000000000000 0.00000000000000000 -1.00000000000000000 
1 76.50000000000000000 0.00000000000000000 0.00000000000000000 -1.00000000000000000 
1 0.00000000000000000 0.00000000000000000 0.00000000000000000 -1.00000000000000000 
1 2.00000000000000000 0.00000000000000000 0.00000000000000000 -1.00000000000000000 
1 0.00000000000000000 0.00000000000000000 0.00000000000000000 -1.00000000000000000 
Curves 24
1 0.00000000000000000 89.00000000000000000 0.00000000000000000 1.00000000000000000 0.00000000000000000 0.00000000000000000 
1 42.50000000000000000 89.00000000000000000 0.00000000000000000 0.00000000000000000 0.00000000000000000 1.00000000000000000 
1 0.00000000000000000 89.00000000000000000 0.00000000000000000 0.00000000000000000 0.00000000000000000 1.00000000000000000 
1 72.50000000000000000 89.00000000000000000 0.00000000000000000 -1.00000000000000000 0.00000000000000000 0.00000000000000000 
1 119.00000000000000000 89.00000000000000000 0.00000000000000000 0.00000000000000000 -1.00000000000000000 0.00000000000000000 
1 119.00000000000000000 0.00000000000000000 0.00000000000000000 -1.00000000000000000 0.00000000000000000 0.00000000000000000 
1 42.50000000000000000 0.00000000000000000 0.00000000000000000 1.00000000000000000 0.00000000000000000 0.00000000000000000 
1 0.00000000000000000 0.00000000000000000 0.00000000000000000 0.00000000000000000 1.00000000000000000 0.00000000000000000 
1 42.50000000000000000 91.00000000000000000 0.00000000000000000 0.00000000000000000 0.00000000000000000 1.00000000000000000 
1 42.50000000000000000 89.00000000000000000 0.00000000000000000 0.00000000000000000 1.00000000000000000 0.00000000000000000 
1 0.00000000000000000 0.00000000000000000 0.00000000000000000 0.00000000000000000 0.00000000000000000 1.00000000000000000 
1 42.50000000000000000 91.00000000000000000 0.00000000000000000 1.00000000000000000 0.00000000000000000 0.00000000000000000 
1 72.50000000000000000 91.00000000000000000 0.00000000000000000 0.00000000000000000 -1.00000000000000000 0.00000000000000000 
1 119.00000000000000000 89.00000000000000000 0.00000000000000000 0.00000000000000000 0.00000000000000000 1.00000000000000000 
1 72.50000000000000000 89.00000000000000000 0.00000000000000000 0.00000000000000000 0.00000000000000000 1.00000000000000000 
1 119.00000000000000000 0.00000000000000000 0.00000000000000000 0.00000000000000000 0.00000000000000000 1.00000000000000000 
1 72.50000000000000000 0.00000000000000000 0.00000000000000000 0.00000000000000000 0.00000000000000000 1.00000000000000000 
1 72.50000000000000000 0.00000000000000000 0.00000000000000000 0.00000000000000000 -1.00000000000000000 0.00000000000000000 
1 72.50000000000000000 -2.00000000000000000 0.00000000000000000 -1.00000000000000000 0.00000000000000000 0.00000000000000000 
1 42.50000000000000000 -2.00000000000000000 0.00000000000000000 0.00000000000000000 1.00000000000000000 0.00000000000000000 
1 42.50000000000000000 0.00000000000000000 0.00000000000000000 0.00000000000000000 0.00000000000000000 1.00000000000000000 
1 72.50000000000000000 91.00000000000000000 0.00000000000000000 0.00000000000000000 0.00000000000000000 1.00000000000000000 
1 72.50000000000000000 -2.00000000000000000 0.00000000000000000 0.00000000000000000 0.00000000000000000 1.00000000000000000 
1 42.50000000000000000 -2.00000000000000000 0.00000000000000000 0.00000000000000000 0.00000000000000000 1.00000000000000000 
Polygon3D 0
PolygonOnTriangulations 0
Surfaces 15
1 0.00000000000000000 89.00000000000000000 0.00000000000000000 0.00000000000000000 1.00000000000000000 0.00000000000000000 1.00000000000000000 0.00000000000000000 0.00000000000000000 0.00000000000000000 0.00000000000000000 -1.00000000000000000 
1 59.50000000000000000 44.50000000000000000 0.00000000000000000 0.00000000000000000 0.00000000000000000 1.00000000000000000 1.00000000000000000 0.00000000000000000 -0.00000000000000000 -0.00000000000000000 1.00000000000000000 0.00000000000000000 
1 72.50000000000000000 89.00000000000000000 0.00000000000000000 0.00000000000000000 -1.00000000000000000 0.00000000000000000 -1.00000000000000000 0.00000000000000000 0.00000000000000000 -0.00000000000000000 -0.00000000000000000 -1.00000000000000000 
1 42.50000000000000000 89.00000000000000000 0.00000000000000000 -1.00000000000000000 0.00000000000000000 0.00000000000000000 0.00000000000000000 1.00000000000000000 0.00000000000000000 0.00000000000000000 0.00000000000000000 -1.00000000000000000 
1 57.50000000000000000 44.50000000000000000 0.00000000000000000 0.00000000000000000 0.00000000000000000 1.00000000000000000 1.00000000000000000 0.00000000000000000 -0.00000000000000000 -0.00000000000000000 1.00000000000000000 0.00000000000000000 
1 119.00000000000000000 0.00000000000000000 0.00000000000000000 0.00000000000000000 -1.00000000000000000 0.00000000000000000 -1.00000000000000000 0.00000000000000000 0.00000000000000000 -0.00000000000000000 -0.00000000000000000 -1.00000000000000000 
1 42.50000000000000000 0.00000000000000000 0.00000000000000000 0.00000000000000000 1.00000000000000000 0.00000000000000000 1.00000000000000000 0.00000000000000000 0.00000000000000000 0.00000000000000000 0.00000000000000000 -1.00000000000000000 
1 57.50000000000000000 44.50000000000000000 0.00000000000000000 0.00000000000000000 0.00000000000000000 1.00000000000000000 1.00000000000000000 0.00000000000000000 -0.00000000000000000 -0.00000000000000000 1.00000000000000000 0.00000000000000000 
1 0.00000000000000000 0.00000000000000000 0.00000000000000000 -1.00000000000000000 0.00000000000000000 0.00000000000000000 0.00000000000000000 1.00000000000000000 0.00000000000000000 0.00000000000000000 0.00000000000000000 -1.00000000000000000 
1 72.50000000000000000 91.00000000000000000 0.00000000000000000 1.00000000000000000 0.00000000000000000 -0.00000000000000000 0.00000000000000000 -1.00000000000000000 0.00000000000000000 0.00000000000000000 -0.00000000000000000 -1.00000000000000000 
1 119.00000000000000000 89.00000000000000000 0.00000000000000000 1.00000000000000000 0.00000000000000000 -0.00000000000000000 0.00000000000000000 -1.00000000000000000 0.00000000000000000 0.00000000000000000 -0.00000000000000000 -1.00000000000000000 
1 72.50000000000000000 0.00000000000000000 0.00000000000000000 1.00000000000000000 0.00000000000000000 -0.00000000000000000 0.00000000000000000 -1.00000000000000000 0.00000000000000000 0.00000000000000000 -0.00000000000000000 -1.00000000000000000 
1 42.50000000000000000 -2.00000000000000000 0.00000000000000000 -1.00000000000000000 0.00000000000000000 0.00000000000000000 0.00000000000000000 1.00000000000000000 0.00000000000000000 0.00000000000000000 0.00000000000000000 -1.00000000000000000 
1 42.50000000000000000 91.00000000000000000 0.00000000000000000 0.00000000000000000 1.00000000000000000 0.00000000000000000 1.00000000000000000 0.00000000000000000 0.00000000000000000 0.00000000000000000 0.00000000000000000 -1.00000000000000000 
1 72.50000000000000000 -2.00000000000000000 0.00000000000000000 0.00000000000000000 -1.00000000000000000 0.00000000000000000 -1.00000000000000000 0.00000000000000000 0.00000000000000000 -0.00000000000000000 -0.00000000000000000 -1.00000000000000000 
Triangulations 0

TShapes 90
Ve
0.000000100000000
0.000000000000000 89.000000000000000 0.000000000000000
0 0

0101101
*
Ve
0.000000100000000
42.500000000000000 89.000000000000000 0.000000000000000
0 0

0101101
*
Ed
 0.000000100000000 1 1 0
1  1 0 0.000000000000000 42.500000000000000
2  1 1 9 0.000000000000000 42.500000000000000
2  2 1 11 0.000000000000000 42.500000000000000
2  3 2 12 0.000000000000000 42.500000000000000
0

0101000
+90 0 -89 15 *
Ve
0.000000100000000
42.500000000000000 89.000000000000000 2.000000000000000
0 0

0101101
*
Ed
 0.000000100000000 1 1 0
1  2 0 0.000000000000000 2.000000000000000
2  4 3 0 0.000000000000000 2.000000000000000
2  5 4 0 0.000000000000000 2.000000000000000
2  6 1 4 0.000000000000000 2.000000000000000
0

0101000
+89 16 -87 0 *
Ed
 0.000000100000000 1 1 0
1  1 0 0.000000000000000 42.500000000000000
2  1 1 9 0.000000000000000 42.500000000000000
2  2 1 11 0.000000000000000 42.500000000000000
2  3 2 12 0.000000000000000 42.500000000000000
0

0101000
+90 0 -87 18 *
Ed
 0.000000100000000 1 1 0
1  3 0 0.000000000000000 2.000000000000000
2  7 1 0 0.000000000000000 2.000000000000000
0

0101000
+90 19 -90 20 *
Wi

0101100
-88 8 -86 0 +85 17 +84 4 *
Fa
0  0.000000100000000 1 4

0111000
+83 0 *
Ve
0.000000100000000
72.500000000000000 89.000000000000000 0.000000000000000
0 0

0101101
*
Ed
 0.000000100000000 1 1 0
1  4 0 0.000000000000000 30.000000000000000
2  8 3 22 0.000000000000000 30.000000000000000
2  9 3 24 0.000000000000000 30.000000000000000
2  10 5 25 0.000000000000000 30.000000000000000
2  11 1 26 0.000000000000000 30.000000000000000
0

0101000
+81 0 -89 0 *
Ve
0.000000100000000
119.000000000000000 89.000000000000000 0.000000000000000
0 0

0101101
*
Ed
 0.000000100000000 1 1 0
1  1 0 72.500000000000000 119.000000000000000
2  1 1 9 72.500000000000000 119.000000000000000
2  2 1 11 72.500000000000000 119.000000000000000
2  3 2 12 72.500000000000000 119.000000000000000
0

0101000
+81 15 -79 0 *
Ve
0.000000100000000
119.000000000000000 0.000000000000000 0.000000000000000
0 0

0101101
*
Ed
 0.000000100000000 1 1 0
1  5 0 0.000000000000000 89.000000000000000
2  12 2 12 0.000000000000000 89.000000000000000
0

0101000
+79 0 -77 0 *
Ve
0.000000100000000
72.500000000000000 0.000000000000000 0.000000000000000
0 0

0101101
*
Ed
 0.000000100000000 1 1 0
1  6 0 0.000000000000000 46.500000000000000
2  13 6 9 0.000000000000000 46.500000000000000
2  14 6 11 0.000000000000000 46.500000000000000
2  15 2 12 0.000000000000000 46.500000000000000
0

0101000
+77 0 -75 15 *
Ve
0.000000100000000
42.500000000000000 0.000000000000000 0.000000000000000
0 0

0101101
*
Ed
 0.000000100000000 1 1 0
1  7 0 0.000000000000000 30.000000000000000
2  16 7 22 0.000000000000000 30.000000000000000
2  17 7 24 0.000000000000000 30.000000000000000
2  18 8 25 0.000000000000000 30.000000000000000
2  19 6 26 0.000000000000000 30.000000000000000
0

0101000
+73 0 -75 0 *
Ve
0.000000100000000
0.000000000000000 0.000000000000000 0.000000000000000
0 0

0101101
*
Ed
 0.000000100000000 1 1 0
1  6 0 76.500000000000000 119.000000000000000
2  13 6 9 76.500000000000000 119.000000000000000
2  14 6 11 76.500000000000000 119.000000000000000
2  15 2 12 76.500000000000000 119.000000000000000
0

0101000
+73 15 -71 0 *
Ed
 0.000000100000000 1 1 0
1  8 0 0.000000000000000 89.000000000000000
2  20 2 12 0.000000000000000 89.000000000000000
0

0101000
+71 0 -90 0 *
Wi

0101100
+88 8 -80 16 +78 8 +76 8 +74 8 -72 16 +70 8 +69 8 *
Fa
0  0.000000100000000 2 21

0111000
-68 0 *
Ed
 0.000000100000000 1 1 0
1  2 0 2.000000000000000 10.000000000000000
2  4 3 0 2.000000000000000 10.000000000000000
2  5 4 0 2.000000000000000 10.000000000000000
0

0101000
+87 0 -89 27 *
Ve
0.000000100000000
42.500000000000000 91.000000000000000 0.000000000000000
0 0

0101101
*
Ed
 0.000000100000000 1 1 0
1  9 0 0.000000000000000 10.000000000000000
2  21 4 0 0.000000000000000 10.000000000000000
0

0101000
+65 16 -65 27 *
Ed
 0.000000100000000 1 1 0
1  10 0 0.000000000000000 2.000000000000000
2  22 4 22 0.000000000000000 2.000000000000000
2  23 4 24 0.000000000000000 2.000000000000000
2  24 5 25 0.000000000000000 2.000000000000000
0

0101000
+89 0 -65 0 *
Wi

0101100
+86 0 +66 0 -64 0 -63 16 +63 27 *
Fa
0  0.000000100000000 4 0

0111000
+62 0 *
Ve
0.000000100000000
72.500000000000000 89.000000000000000 2.000000000000000
0 0

0101101
*
Ed
 0.000000100000000 1 1 0
1  1 0 42.500000000000000 72.500000000000000
2  1 1 9 42.500000000000000 72.500000000000000
2  2 1 11 42.500000000000000 72.500000000000000
2  3 2 12 42.500000000000000 72.500000000000000
2  25 3 18 42.500000000000000 72.500000000000000
0

0101000
+87 18 -60 18 *
Ed
 0.000000100000000 1 1 0
1  1 0 72.500000000000000 119.000000000000000
2  1 1 9 72.500000000000000 119.000000000000000
2  2 1 11 72.500000000000000 119.000000000000000
2  3 2 12 72.500000000000000 119.000000000000000
0

0101000
+60 18 -79 0 *
Ve
0.000000100000000
72.500000000000000 0.000000000000000 2.000000000000000
0 0

0101101
*
Ed
 0.000000100000000 1 1 0
1  6 0 0.000000000000000 46.500000000000000
2  13 6 9 0.000000000000000 46.500000000000000
2  14 6 11 0.000000000000000 46.500000000000000
2  15 2 12 0.000000000000000 46.500000000000000
0

0101000
+77 0 -57 18 *
Ve
0.000000100000000
42.500000000000000 0.000000000000000 2.000000000000000
0 0

0101101
*
Ed
 0.000000100000000 1 1 0
1  6 0 46.500000000000000 76.500000000000000
2  13 6 9 46.500000000000000 76.500000000000000
2  14 6 11 46.500000000000000 76.500000000000000
2  15 2 12 46.500000000000000 76.500000000000000
2  26 7 18 46.500000000000000 76.500000000000000
0

0101000
+57 18 -55 18 *
Ed
 0.000000100000000 1 1 0
1  6 0 76.500000000000000 119.000000000000000
2  13 6 9 76.500000000000000 119.000000000000000
2  14 6 11 76.500000000000000 119.000000000000000
2  15 2 12 76.500000000000000 119.000000000000000
0

0101000
+55 18 -71 0 *
Wi

0101100
+85 17 +59 17 +58 17 +76 17 +56 17 +54 17 +53 17 +69 17 *
Fa
0  0.000000100000000 2 28

0111000
-52 0 *
Ed
 0.000000100000000 1 1 0
1  11 0 0.000000000000000 2.000000000000000
2  27 6 0 0.000000000000000 2.000000000000000
0

0101000
+71 19 -71 20 *
Wi

0101100
+50 0 -84 0 -69 19 +69 20 *
Fa
0  0.000000100000000 9 0

0111000
+49 0 *
Ve
0.000000100000000
72.500000000000000 91.000000000000000 0.000000000000000
0 0

0101101
*
Ed
 0.000000100000000 1 1 0
1  12 0 0.000000000000000 30.000000000000000
2  28 5 25 0.000000000000000 30.000000000000000
0

0101000
+65 0 -47 0 *
Ed
 0.000000100000000 1 1 0
1  13 0 0.000000000000000 2.000000000000000
2  29 10 22 0.000000000000000 2.000000000000000
2  30 10 24 0.000000000000000 2.000000000000000
2  31 5 25 0.000000000000000 2.000000000000000
0

0101000
+47 0 -81 0 *
Wi

0101100
+46 0 +45 0 +80 0 +63 0 *
Fa
0  0.000000100000000 5 0

0111000
-44 30 *
Ed
 0.000000100000000 1 1 0
1  14 0 0.000000000000000 2.000000000000000
2  32 1 0 0.000000000000000 2.000000000000000
0

0101000
+79 19 -79 20 *
Ed
 0.000000100000000 1 1 0
1  15 0 0.000000000000000 2.000000000000000
2  33 10 0 0.000000000000000 2.000000000000000
2  34 3 0 0.000000000000000 2.000000000000000
2  35 1 4 0.000000000000000 2.000000000000000
0

0101000
+81 16 -60 0 *
Wi

0101100
-78 8 -42 4 +58 17 +41 0 *
Fa
0  0.000000100000000 1 4

0111000
+40 0 *
Ed
 0.000000100000000 1 1 0
1  16 0 0.000000000000000 2.000000000000000
2  36 6 0 0.000000000000000 2.000000000000000
0

0101000
+77 19 -77 20 *
Wi

0101100
+42 0 -38 0 -76 19 +76 20 *
Fa
0  0.000000100000000 11 0

0111000
+37 0 *
Ed
 0.000000100000000 1 1 0
1  17 0 0.000000000000000 2.000000000000000
2  37 7 0 0.000000000000000 2.000000000000000
2  38 12 0 0.000000000000000 2.000000000000000
2  39 6 4 0.000000000000000 2.000000000000000
0

0101000
+75 16 -57 0 *
Wi

0101100
-74 8 -35 0 +56 17 +38 4 *
Fa
0  0.000000100000000 6 4

0111000
+34 0 *
Ve
0.000000100000000
72.500000000000000 -2.000000000000000 0.000000000000000
0 0

0101101
*
Ed
 0.000000100000000 1 1 0
1  18 0 0.000000000000000 2.000000000000000
2  40 12 22 0.000000000000000 2.000000000000000
2  41 12 24 0.000000000000000 2.000000000000000
2  42 8 25 0.000000000000000 2.000000000000000
0

0101000
+75 0 -32 0 *
Ve
0.000000100000000
42.500000000000000 -2.000000000000000 0.000000000000000
0 0

0101101
*
Ed
 0.000000100000000 1 1 0
1  19 0 0.000000000000000 30.000000000000000
2  43 8 25 0.000000000000000 30.000000000000000
0

0101000
+32 0 -30 0 *
Ed
 0.000000100000000 1 1 0
1  20 0 0.000000000000000 2.000000000000000
2  44 13 22 0.000000000000000 2.000000000000000
2  45 13 24 0.000000000000000 2.000000000000000
2  46 8 25 0.000000000000000 2.000000000000000
0

0101000
+30 0 -73 0 *
Wi

0101100
+72 0 +31 0 +29 0 +28 0 *
Fa
0  0.000000100000000 8 0

0111000
-27 30 *
Ed
 0.000000100000000 1 1 0
1  21 0 0.000000000000000 2.000000000000000
2  47 7 0 0.000000000000000 2.000000000000000
2  48 13 0 0.000000000000000 2.000000000000000
2  49 6 4 0.000000000000000 2.000000000000000
0

0101000
+73 16 -55 0 *
Wi

0101100
-70 8 -50 4 +53 17 +25 0 *
Fa
0  0.000000100000000 6 4

0111000
+24 0 *
Ed
 0.000000100000000 1 1 0
1  15 0 2.000000000000000 10.000000000000000
2  33 10 0 2.000000000000000 10.000000000000000
2  34 3 0 2.000000000000000 10.000000000000000
0

0101000
+60 0 -81 27 *
Wi

0101100
+59 17 -66 0 +80 27 +22 0 *
Fa
0  0.000000100000000 3 0

0111000
+21 0 *
Ed
 0.000000100000000 1 1 0
1  22 0 0.000000000000000 10.000000000000000
2  50 10 0 0.000000000000000 10.000000000000000
0

0101000
+47 16 -47 27 *
Wi

0101100
+64 0 -19 0 -46 16 +46 27 *
Fa
0  0.000000100000000 14 0

0111000
+18 0 *
Ed
 0.000000100000000 1 1 0
1  17 0 2.000000000000000 10.000000000000000
2  37 7 0 2.000000000000000 10.000000000000000
2  38 12 0 2.000000000000000 10.000000000000000
0

0101000
+57 0 -75 27 *
Ed
 0.000000100000000 1 1 0
1  21 0 2.000000000000000 10.000000000000000
2  47 7 0 2.000000000000000 10.000000000000000
2  48 13 0 2.000000000000000 10.000000000000000
0

0101000
+55 0 -73 27 *
Wi

0101100
+54 17 -16 0 +72 27 +15 0 *
Fa
0  0.000000100000000 7 0

0111000
+14 0 *
Wi

0101100
+19 0 -41 0 -22 0 -45 16 +45 27 *
Fa
0  0.000000100000000 10 0

0111000
+12 0 *
Ed
 0.000000100000000 1 1 0
1  23 0 0.000000000000000 10.000000000000000
2  51 12 0 0.000000000000000 10.000000000000000
0

0101000
+32 16 -32 27 *
Wi

0101100
+35 0 +16 0 -10 0 -31 16 +31 27 *
Fa
0  0.000000100000000 12 0

0111000
+9 0 *
Ed
 0.000000100000000 1 1 0
1  24 0 0.000000000000000 10.000000000000000
2  52 13 0 0.000000000000000 10.000000000000000
0

0101000
+30 16 -30 27 *
Wi

0101100
+10 0 -7 0 -29 16 +29 27 *
Fa
0  0.000000100000000 15 0

0111000
+6 0 *
Wi

0101100
+7 0 -25 0 -15 0 -28 16 +28 27 *
Fa
0  0.000000100000000 13 0

0111000
+4 0 *
Sh

0101100
+82 0 -67 0 +61 0 +51 0 +48 4 -43 29 +39 0 +36 4 +33 0 -26 29 
+23 0 +20 0 +17 0 +43 31 +13 0 +11 0 +8 0 +5 0 +3 0 +26 31 
*
So

0100000
+2 0 *

+1 1 