
CASCADE Topology V1, (c) Matra-Datavision
Locations 28
1
1.000000000000000 0.000000000000000 0.000000000000000 0.000000000000000 
0.000000000000000 1.000000000000000 0.000000000000000 0.000000000000000 
0.000000000000000 0.000000000000000 1.000000000000000 0.000000000000000 
1
1.000000000000000 0.000000000000000 0.000000000000000 0.000000000000000 
0.000000000000000 1.000000000000000 0.000000000000000 0.000000000000000 
0.000000000000000 0.000000000000000 1.000000000000000 0.000000000000000 
1
1.000000000000000 0.000000000000000 0.000000000000000 0.000000000000000 
0.000000000000000 1.000000000000000 0.000000000000000 0.000000000000000 
0.000000000000000 0.000000000000000 1.000000000000000 0.000000000000000 
2  1 -1 2 1 3 -1 0
1
1.000000000000000 0.000000000000000 0.000000000000000 0.000000000000000 
0.000000000000000 1.000000000000000 0.000000000000000 0.000000000000000 
0.000000000000000 0.000000000000000 1.000000000000000 0.000000000000000 
1
1.000000000000000 0.000000000000000 0.000000000000000 0.000000000000000 
0.000000000000000 0.000000000000000 -1.000000000000000 0.000000000000000 
0.000000000000000 1.000000000000000 0.000000000000000 0.000000000000000 
2  5 1 6 1 3 -1 0
1
1.000000000000000 0.000000000000000 0.000000000000000 -0.000000000000000 
0.000000000000000 1.000000000000000 0.000000000000000 2.000000000000000 
0.000000000000000 0.000000000000000 1.000000000000000 -0.000000000000000 
2  5 1 6 1 3 -1 8 1 0
1
1.000000000000000 0.000000000000000 0.000000000000000 0.000000000000000 
0.000000000000000 1.000000000000000 0.000000000000000 0.000000000000000 
0.000000000000000 0.000000000000000 1.000000000000000 0.000000000000000 
1
1.000000000000000 0.000000000000000 0.000000000000000 0.000000000000000 
0.000000000000000 0.000000000000000 -1.000000000000000 0.000000000000000 
0.000000000000000 1.000000000000000 0.000000000000000 0.000000000000000 
1
1.000000000000000 0.000000000000000 0.000000000000000 0.000000000000000 
0.000000000000000 1.000000000000000 0.000000000000000 0.000000000000000 
0.000000000000000 0.000000000000000 1.000000000000000 0.000000000000000 
2  10 1 11 -1 12 -1 0
1
1.000000000000000 0.000000000000000 0.000000000000000 -0.000000000000000 
0.000000000000000 1.000000000000000 0.000000000000000 2.000000000000000 
0.000000000000000 0.000000000000000 1.000000000000000 -0.000000000000000 
2  14 -1 10 1 11 -1 12 -1 0
2  11 -1 12 -1 0
1
1.000000000000000 0.000000000000000 0.000000000000000 0.000000000000000 
0.000000000000000 1.000000000000000 0.000000000000000 0.000000000000000 
0.000000000000000 0.000000000000000 1.000000000000000 0.000000000000000 
1
1.000000000000000 0.000000000000000 0.000000000000000 0.000000000000000 
0.000000000000000 1.000000000000000 0.000000000000000 0.000000000000000 
0.000000000000000 0.000000000000000 1.000000000000000 0.000000000000000 
2  17 -1 18 1 11 -1 12 -1 0
2  17 -1 18 1 10 -1 14 -1 10 1 11 -1 12 -1 0
2  3 1 6 -1 5 -1 0
2  8 -1 3 1 6 -1 5 -1 0
2  6 -1 5 -1 0
2  1 -1 2 1 6 -1 5 -1 0
2  1 -1 2 1 3 -1 8 -1 3 1 6 -1 5 -1 0
2  3 -1 0
2  5 1 6 1 0
2  3 -1 8 1 0
Curve2ds 32
1 0.00000000000000000 0.00000000000000000 0.00000000000000000 -1.00000000000000000 
1 10.00000000000000000 0.00000000000000000 0.00000000000000000 -1.00000000000000000 
1 -15.00000000000000000 -25.00000000000000000 0.00000000000000000 1.00000000000000000 
1 30.00000000000000000 0.00000000000000000 0.00000000000000000 -1.00000000000000000 
1 0.00000000000000000 0.00000000000000000 0.00000000000000000 -1.00000000000000000 
1 15.00000000000000000 -25.00000000000000000 0.00000000000000000 1.00000000000000000 
1 0.00000000000000000 0.00000000000000000 1.00000000000000000 0.00000000000000000 
1 0.00000000000000000 -2.00000000000000000 1.00000000000000000 0.00000000000000000 
1 5.00000000000000000 -15.00000000000000000 0.00000000000000000 1.00000000000000000 
1 -15.00000000000000000 -25.00000000000000000 1.00000000000000000 0.00000000000000000 
1 -15.00000000000000000 -23.00000000000000000 1.00000000000000000 0.00000000000000000 
1 0.00000000000000000 0.00000000000000000 1.00000000000000000 0.00000000000000000 
1 0.00000000000000000 -2.00000000000000000 1.00000000000000000 0.00000000000000000 
1 5.00000000000000000 -15.00000000000000000 0.00000000000000000 1.00000000000000000 
1 -15.00000000000000000 -25.00000000000000000 1.00000000000000000 0.00000000000000000 
1 -15.00000000000000000 -23.00000000000000000 1.00000000000000000 0.00000000000000000 
1 10.00000000000000000 0.00000000000000000 0.00000000000000000 -1.00000000000000000 
1 0.00000000000000000 0.00000000000000000 1.00000000000000000 0.00000000000000000 
1 0.00000000000000000 -2.00000000000000000 1.00000000000000000 0.00000000000000000 
1 5.00000000000000000 15.00000000000000000 -1.00000000000000000 0.00000000000000000 
1 0.00000000000000000 0.00000000000000000 1.00000000000000000 0.00000000000000000 
1 0.00000000000000000 -2.00000000000000000 1.00000000000000000 0.00000000000000000 
1 5.00000000000000000 15.00000000000000000 -1.00000000000000000 0.00000000000000000 
1 0.00000000000000000 0.00000000000000000 0.00000000000000000 -1.00000000000000000 
1 -5.00000000000000000 15.00000000000000000 0.00000000000000000 -1.00000000000000000 
1 -5.00000000000000000 15.00000000000000000 0.00000000000000000 -1.00000000000000000 
1 0.00000000000000000 0.00000000000000000 1.00000000000000000 0.00000000000000000 
1 0.00000000000000044 -2.00000000000000000 1.00000000000000000 0.00000000000000000 
1 -5.00000000000000000 -15.00000000000000000 1.00000000000000000 0.00000000000000000 
1 0.00000000000000000 0.00000000000000000 1.00000000000000000 0.00000000000000000 
1 0.00000000000000044 -2.00000000000000000 1.00000000000000000 0.00000000000000000 
1 -5.00000000000000000 -15.00000000000000000 1.00000000000000000 0.00000000000000000 
Curves 8
1 45.00000000000000000 0.00000000000000000 0.00000000000000000 -0.00000000000000000 1.00000000000000000 -0.00000000000000022 
1 75.00000000000000000 0.00000000000000000 0.00000000000000000 -0.00000000000000000 1.00000000000000000 -0.00000000000000022 
1 45.00000000000000000 0.00000000000000000 0.00000000000000000 1.00000000000000000 0.00000000000000000 0.00000000000000000 
1 75.00000000000000000 -0.00000000000000222 -10.00000000000000000 -0.00000000000000000 1.00000000000000000 -0.00000000000000022 
1 75.00000000000000000 0.00000000000000000 0.00000000000000000 0.00000000000000000 -1.00000000000000000 0.00000000000000000 
1 45.00000000000000000 -0.00000000000000222 -10.00000000000000000 -0.00000000000000000 1.00000000000000000 -0.00000000000000022 
1 75.00000000000000000 -10.00000000000000000 0.00000000000000000 -1.00000000000000000 0.00000000000000000 0.00000000000000000 
1 45.00000000000000000 -10.00000000000000000 0.00000000000000000 0.00000000000000000 1.00000000000000000 0.00000000000000000 
Polygon3D 0
PolygonOnTriangulations 0
Surfaces 11
1 45.00000000000000000 0.00000000000000000 0.00000000000000000 0.00000000000000000 -0.00000000000000022 -1.00000000000000000 1.00000000000000000 0.00000000000000000 0.00000000000000000 0.00000000000000000 -1.00000000000000000 0.00000000000000022 
1 45.00000000000000000 -0.00000000000000222 -10.00000000000000000 1.00000000000000000 0.00000000000000000 -0.00000000000000000 0.00000000000000000 0.00000000000000022 1.00000000000000000 0.00000000000000000 -1.00000000000000000 0.00000000000000022 
1 60.00000000000000000 25.00000000000000000 0.00000000000000000 0.00000000000000000 0.00000000000000000 1.00000000000000000 1.00000000000000000 0.00000000000000000 -0.00000000000000000 -0.00000000000000000 1.00000000000000000 0.00000000000000000 
1 75.00000000000000000 0.00000000000000000 0.00000000000000000 -1.00000000000000000 -0.00000000000000000 0.00000000000000000 0.00000000000000000 -0.00000000000000022 -1.00000000000000000 0.00000000000000000 -1.00000000000000000 0.00000000000000022 
1 45.00000000000000000 0.00000000000000000 0.00000000000000000 0.00000000000000000 -0.00000000000000022 -1.00000000000000000 1.00000000000000000 0.00000000000000000 0.00000000000000000 0.00000000000000000 -1.00000000000000000 0.00000000000000022 
1 60.00000000000000000 -0.00000000000000111 -5.00000000000000000 0.00000000000000000 1.00000000000000000 -0.00000000000000022 0.00000000000000000 0.00000000000000022 1.00000000000000000 1.00000000000000000 -0.00000000000000000 0.00000000000000000 
1 60.00000000000000000 25.00000000000000000 0.00000000000000000 0.00000000000000000 0.00000000000000000 1.00000000000000000 1.00000000000000000 0.00000000000000000 -0.00000000000000000 -0.00000000000000000 1.00000000000000000 0.00000000000000000 
1 60.00000000000000000 -0.00000000000000111 -5.00000000000000000 0.00000000000000000 1.00000000000000000 -0.00000000000000022 0.00000000000000000 0.00000000000000022 1.00000000000000000 1.00000000000000000 -0.00000000000000000 0.00000000000000000 
1 75.00000000000000000 0.00000000000000000 0.00000000000000000 -1.00000000000000000 -0.00000000000000000 0.00000000000000000 0.00000000000000000 -0.00000000000000022 -1.00000000000000000 0.00000000000000000 -1.00000000000000000 0.00000000000000022 
1 75.00000000000000000 -0.00000000000000222 -10.00000000000000000 0.00000000000000000 0.00000000000000022 1.00000000000000000 -1.00000000000000000 0.00000000000000000 0.00000000000000000 0.00000000000000000 -1.00000000000000000 0.00000000000000022 
1 45.00000000000000000 -0.00000000000000222 -10.00000000000000000 1.00000000000000000 0.00000000000000000 -0.00000000000000000 0.00000000000000000 0.00000000000000022 1.00000000000000000 0.00000000000000000 -1.00000000000000000 0.00000000000000022 
Triangulations 0

TShapes 24
Ve
0.000000100000000
45.000000000000000 0.000000000000000 0.000000000000000
0 0

0101101
*
Ed
 0.000000100000000 1 1 0
1  1 0 0.000000000000000 2.000000000000000
2  1 1 0 0.000000000000000 2.000000000000000
2  2 2 0 0.000000000000000 2.000000000000000
2  3 3 4 0.000000000000000 2.000000000000000
0

0101000
+24 7 -24 9 *
Ve
0.000000100000000
75.000000000000000 0.000000000000000 0.000000000000000
0 0

0101101
*
Ed
 0.000000100000000 1 1 0
1  2 0 0.000000000000000 2.000000000000000
2  4 1 0 0.000000000000000 2.000000000000000
2  5 4 0 0.000000000000000 2.000000000000000
2  6 3 4 0.000000000000000 2.000000000000000
0

0101000
+22 7 -22 9 *
Ed
 0.000000100000000 1 1 0
1  3 0 0.000000000000000 30.000000000000000
2  7 5 13 0.000000000000000 30.000000000000000
2  8 5 15 0.000000000000000 30.000000000000000
2  9 6 16 0.000000000000000 30.000000000000000
2  10 7 19 0.000000000000000 30.000000000000000
2  11 7 20 0.000000000000000 30.000000000000000
2  12 1 21 0.000000000000000 30.000000000000000
2  13 1 22 0.000000000000000 30.000000000000000
2  14 8 23 0.000000000000000 30.000000000000000
2  15 3 24 0.000000000000000 30.000000000000000
2  16 3 25 0.000000000000000 30.000000000000000
0

0101000
+24 0 -22 0 *
Wi

0101100
+23 0 -21 0 -20 7 +20 9 *
Fa
0  0.000000100000000 1 0

0101000
+19 0 *
Ve
0.000000100000000
75.000000000000000 -10.000000000000000 0.000000000000000
0 0

0101101
*
Ed
 0.000000100000000 1 1 0
1  4 0 0.000000000000000 2.000000000000000
2  17 4 0 0.000000000000000 2.000000000000000
0

0101000
+17 7 -17 9 *
Ed
 0.000000100000000 1 1 0
1  5 0 0.000000000000000 10.000000000000000
2  18 9 13 0.000000000000000 10.000000000000000
2  19 9 15 0.000000000000000 10.000000000000000
2  20 6 16 0.000000000000000 10.000000000000000
2  21 4 21 0.000000000000000 10.000000000000000
2  22 4 22 0.000000000000000 10.000000000000000
2  23 8 23 0.000000000000000 10.000000000000000
0

0101000
+22 0 -17 0 *
Wi

0101100
+21 0 -16 0 -15 7 +15 9 *
Fa
0  0.000000100000000 4 0

0101000
+14 0 *
Ve
0.000000100000000
45.000000000000000 -10.000000000000000 0.000000000000000
0 0

0101101
*
Ed
 0.000000100000000 1 1 0
1  6 0 0.000000000000000 2.000000000000000
2  24 2 0 0.000000000000000 2.000000000000000
0

0101000
+12 7 -12 9 *
Ed
 0.000000100000000 1 1 0
1  7 0 0.000000000000000 30.000000000000000
2  25 6 16 0.000000000000000 30.000000000000000
2  26 8 23 0.000000000000000 30.000000000000000
0

0101000
+17 0 -12 0 *
Wi

0101100
+16 0 -11 0 -10 7 +10 9 *
Fa
0  0.000000100000000 10 0

0101000
+9 0 *
Ed
 0.000000100000000 1 1 0
1  8 0 0.000000000000000 10.000000000000000
2  27 11 13 0.000000000000000 10.000000000000000
2  28 11 15 0.000000000000000 10.000000000000000
2  29 6 16 0.000000000000000 10.000000000000000
2  30 2 21 0.000000000000000 10.000000000000000
2  31 2 22 0.000000000000000 10.000000000000000
2  32 8 23 0.000000000000000 10.000000000000000
0

0101000
+12 0 -24 0 *
Wi

0101100
+11 0 -23 0 -7 7 +7 9 *
Fa
0  0.000000100000000 2 0

0101000
+6 0 *
Wi

0101100
+20 0 +15 0 +10 0 +7 0 *
Fa
0  0.000000100000000 8 0

0101000
+4 27 *
Sh

0101100
+18 0 +13 0 +8 0 +5 0 +3 26 -3 28 *
So

0100000
-2 0 *

+1 0 