
CASCADE Topology V1, (c) Matra-Datavision
Locations 66
1
1.000000000000000 0.000000000000000 0.000000000000000 0.000000000000000 
0.000000000000000 1.000000000000000 0.000000000000000 0.000000000000000 
0.000000000000000 0.000000000000000 1.000000000000000 0.000000000000000 
1
1.000000000000000 0.000000000000000 0.000000000000000 0.000000000000000 
0.000000000000000 1.000000000000000 0.000000000000000 0.000000000000000 
0.000000000000000 0.000000000000000 1.000000000000000 0.000000000000000 
1
1.000000000000000 0.000000000000000 0.000000000000000 0.000000000000000 
0.000000000000000 1.000000000000000 0.000000000000000 0.000000000000000 
0.000000000000000 0.000000000000000 1.000000000000000 0.000000000000000 
2  1 1 2 1 3 -1 0
1
1.000000000000000 0.000000000000000 0.000000000000000 0.000000000000000 
0.000000000000000 1.000000000000000 0.000000000000000 0.000000000000000 
0.000000000000000 0.000000000000000 1.000000000000000 307.053289186095526 
2  1 1 2 1 3 -1 5 1 0
1
1.000000000000000 0.000000000000000 0.000000000000000 0.000000000000000 
0.000000000000000 1.000000000000000 0.000000000000000 0.000000000000000 
0.000000000000000 0.000000000000000 1.000000000000000 0.000000000000000 
1
1.000000000000000 0.000000000000000 0.000000000000000 0.000000000000000 
0.000000000000000 1.000000000000000 0.000000000000000 0.000000000000000 
0.000000000000000 0.000000000000000 1.000000000000000 0.000000000000000 
2  7 1 8 -1 1 -1 0
1
1.000000000000000 0.000000000000000 0.000000000000000 -0.000000000000000 
0.000000000000000 1.000000000000000 0.000000000000000 -0.000000000000000 
0.000000000000000 0.000000000000000 1.000000000000000 -5.000000000000000 
2  10 -1 7 1 8 -1 1 -1 0
2  8 -1 1 -1 0
1
1.000000000000000 0.000000000000000 0.000000000000000 0.000000000000000 
0.000000000000000 1.000000000000000 0.000000000000000 0.000000000000000 
0.000000000000000 0.000000000000000 1.000000000000000 0.000000000000000 
1
1.000000000000000 0.000000000000000 0.000000000000000 0.000000000000000 
0.000000000000000 1.000000000000000 0.000000000000000 0.000000000000000 
0.000000000000000 0.000000000000000 1.000000000000000 0.000000000000000 
2  13 1 14 -1 1 -1 0
1
1.000000000000000 0.000000000000000 0.000000000000000 -0.000000000000000 
0.000000000000000 1.000000000000000 0.000000000000000 -0.000000000000000 
0.000000000000000 0.000000000000000 1.000000000000000 -5.000000000000000 
2  16 -1 13 1 14 -1 1 -1 0
2  14 -1 1 -1 0
1
1.000000000000000 0.000000000000000 0.000000000000000 0.000000000000000 
0.000000000000000 1.000000000000000 0.000000000000000 0.000000000000000 
0.000000000000000 0.000000000000000 1.000000000000000 0.000000000000000 
1
1.000000000000000 0.000000000000000 0.000000000000000 0.000000000000000 
0.000000000000000 1.000000000000000 0.000000000000000 0.000000000000000 
0.000000000000000 0.000000000000000 1.000000000000000 0.000000000000000 
2  19 1 20 -1 1 -1 0
1
1.000000000000000 0.000000000000000 0.000000000000000 -0.000000000000000 
0.000000000000000 1.000000000000000 0.000000000000000 -0.000000000000000 
0.000000000000000 0.000000000000000 1.000000000000000 -1.000000000000000 
2  22 -1 19 1 20 -1 1 -1 0
2  20 -1 1 -1 0
1
1.000000000000000 0.000000000000000 0.000000000000000 0.000000000000000 
0.000000000000000 1.000000000000000 0.000000000000000 0.000000000000000 
0.000000000000000 0.000000000000000 1.000000000000000 0.000000000000000 
1
1.000000000000000 0.000000000000000 0.000000000000000 0.000000000000000 
0.000000000000000 1.000000000000000 0.000000000000000 0.000000000000000 
0.000000000000000 0.000000000000000 1.000000000000000 0.000000000000000 
2  25 1 26 -1 1 -1 0
1
1.000000000000000 0.000000000000000 0.000000000000000 -0.000000000000000 
0.000000000000000 1.000000000000000 0.000000000000000 -0.000000000000000 
0.000000000000000 0.000000000000000 1.000000000000000 -1.000000000000000 
2  28 -1 25 1 26 -1 1 -1 0
2  26 -1 1 -1 0
1
1.000000000000000 0.000000000000000 0.000000000000000 0.000000000000000 
0.000000000000000 1.000000000000000 0.000000000000000 0.000000000000000 
0.000000000000000 0.000000000000000 1.000000000000000 0.000000000000000 
1
1.000000000000000 0.000000000000000 0.000000000000000 0.000000000000000 
0.000000000000000 1.000000000000000 0.000000000000000 0.000000000000000 
0.000000000000000 0.000000000000000 1.000000000000000 0.000000000000000 
2  31 1 32 -1 1 -1 0
1
1.000000000000000 0.000000000000000 0.000000000000000 -0.000000000000000 
0.000000000000000 1.000000000000000 0.000000000000000 -0.000000000000000 
0.000000000000000 0.000000000000000 1.000000000000000 -1.000000000000000 
2  34 -1 31 1 32 -1 1 -1 0
2  32 -1 1 -1 0
1
1.000000000000000 0.000000000000000 0.000000000000000 0.000000000000000 
0.000000000000000 1.000000000000000 0.000000000000000 0.000000000000000 
0.000000000000000 0.000000000000000 1.000000000000000 0.000000000000000 
1
1.000000000000000 0.000000000000000 0.000000000000000 0.000000000000000 
0.000000000000000 1.000000000000000 0.000000000000000 0.000000000000000 
0.000000000000000 0.000000000000000 1.000000000000000 0.000000000000000 
2  37 1 38 -1 1 -1 0
1
1.000000000000000 0.000000000000000 0.000000000000000 -0.000000000000000 
0.000000000000000 1.000000000000000 0.000000000000000 -0.000000000000000 
0.000000000000000 0.000000000000000 1.000000000000000 -10.000000000000000 
2  40 -1 37 1 38 -1 1 -1 0
2  38 -1 1 -1 0
1
1.000000000000000 0.000000000000000 0.000000000000000 0.000000000000000 
0.000000000000000 1.000000000000000 0.000000000000000 0.000000000000000 
0.000000000000000 0.000000000000000 1.000000000000000 0.000000000000000 
1
1.000000000000000 0.000000000000000 0.000000000000000 0.000000000000000 
0.000000000000000 1.000000000000000 0.000000000000000 0.000000000000000 
0.000000000000000 0.000000000000000 1.000000000000000 0.000000000000000 
2  43 1 44 -1 1 -1 0
1
1.000000000000000 0.000000000000000 0.000000000000000 -0.000000000000000 
0.000000000000000 1.000000000000000 0.000000000000000 -0.000000000000000 
0.000000000000000 0.000000000000000 1.000000000000000 -10.000000000000000 
2  46 -1 43 1 44 -1 1 -1 0
2  44 -1 1 -1 0
1
1.000000000000000 0.000000000000000 0.000000000000000 0.000000000000000 
0.000000000000000 1.000000000000000 0.000000000000000 0.000000000000000 
0.000000000000000 0.000000000000000 1.000000000000000 0.000000000000000 
1
1.000000000000000 0.000000000000000 0.000000000000000 0.000000000000000 
0.000000000000000 1.000000000000000 0.000000000000000 0.000000000000000 
0.000000000000000 0.000000000000000 1.000000000000000 0.000000000000000 
2  49 1 50 -1 1 -1 0
1
1.000000000000000 0.000000000000000 0.000000000000000 0.000000000000000 
0.000000000000000 1.000000000000000 0.000000000000000 0.000000000000000 
0.000000000000000 0.000000000000000 1.000000000000000 10.000000000000000 
2  52 -1 49 1 50 -1 1 -1 0
2  50 -1 1 -1 0
1
1.000000000000000 0.000000000000000 0.000000000000000 0.000000000000000 
0.000000000000000 1.000000000000000 0.000000000000000 0.000000000000000 
0.000000000000000 0.000000000000000 1.000000000000000 0.000000000000000 
1
1.000000000000000 0.000000000000000 0.000000000000000 0.000000000000000 
0.000000000000000 1.000000000000000 0.000000000000000 0.000000000000000 
0.000000000000000 0.000000000000000 1.000000000000000 0.000000000000000 
2  55 1 56 -1 1 -1 0
1
1.000000000000000 0.000000000000000 0.000000000000000 0.000000000000000 
0.000000000000000 1.000000000000000 0.000000000000000 0.000000000000000 
0.000000000000000 0.000000000000000 1.000000000000000 307.053289186095526 
2  58 -1 55 1 56 -1 1 -1 0
2  56 -1 1 -1 0
2  3 1 2 -1 1 -1 0
2  5 -1 3 1 2 -1 1 -1 0
2  2 -1 1 -1 0
2  3 -1 0
2  1 1 2 1 0
2  3 -1 5 1 0
Curve2ds 128
1 0.00000000000000000 0.00000000000000000 0.00000000000000000 -1.00000000000000000 
1 6.28318530717958623 0.00000000000000000 0.00000000000000000 -1.00000000000000000 
1 0.00000000000000000 0.00000000000000000 1.00000000000000000 0.00000000000000000 
1 0.00000000000000000 -5.00000000000000000 1.00000000000000000 0.00000000000000000 
2 47.09999999999992326 30.84999999999999432 1.00000000000000000 0.00000000000000000 -0.00000000000000000 1.00000000000000000 0.90000000000000568
1 0.00000000000000000 0.00000000000000000 1.00000000000000000 0.00000000000000000 
1 0.00000000000000000 -5.00000000000000000 1.00000000000000000 0.00000000000000000 
2 47.09999999999992326 30.84999999999999432 1.00000000000000000 0.00000000000000000 -0.00000000000000000 1.00000000000000000 0.90000000000000568
1 0.00000000000000000 0.00000000000000000 1.00000000000000000 0.00000000000000000 
1 0.00000000000000000 -1.00000000000000000 1.00000000000000000 0.00000000000000000 
2 47.09999999999992326 30.84999999999999432 1.00000000000000000 0.00000000000000000 -0.00000000000000000 1.00000000000000000 0.90000000000000568
1 0.00000000000000000 0.00000000000000000 1.00000000000000000 0.00000000000000000 
1 0.00000000000000000 -1.00000000000000000 1.00000000000000000 0.00000000000000000 
2 47.09999999999992326 30.84999999999999432 1.00000000000000000 0.00000000000000000 -0.00000000000000000 1.00000000000000000 0.90000000000000568
1 0.00000000000000000 0.00000000000000000 1.00000000000000000 0.00000000000000000 
1 0.00000000000000000 -1.00000000000000000 1.00000000000000000 0.00000000000000000 
2 47.09999999999992326 30.84999999999999432 1.00000000000000000 0.00000000000000000 -0.00000000000000000 1.00000000000000000 0.90000000000000568
1 0.00000000000000000 0.00000000000000000 1.00000000000000000 0.00000000000000000 
1 0.00000000000000000 -10.00000000000000000 1.00000000000000000 0.00000000000000000 
2 47.09999999999992326 30.84999999999999432 1.00000000000000000 0.00000000000000000 -0.00000000000000000 1.00000000000000000 0.90000000000000568
1 0.00000000000000000 0.00000000000000000 1.00000000000000000 0.00000000000000000 
1 0.00000000000000000 -10.00000000000000000 1.00000000000000000 0.00000000000000000 
2 47.09999999999992326 30.84999999999999432 1.00000000000000000 0.00000000000000000 -0.00000000000000000 1.00000000000000000 0.90000000000000568
1 0.00000000000000000 0.00000000000000000 1.00000000000000000 0.00000000000000000 
1 0.00000000000000000 -10.00000000000000000 1.00000000000000000 0.00000000000000000 
2 47.09999999999992326 30.84999999999999432 1.00000000000000000 0.00000000000000000 -0.00000000000000000 1.00000000000000000 0.90000000000000568
1 0.00000000000000000 0.00000000000000000 1.00000000000000000 0.00000000000000000 
1 0.00000000000000000 -307.05328918609552602 1.00000000000000000 0.00000000000000000 
2 47.09999999999992326 30.84999999999999432 1.00000000000000000 0.00000000000000000 -0.00000000000000000 1.00000000000000000 0.90000000000000568
1 0.00000000000000000 0.00000000000000000 1.00000000000000000 0.00000000000000000 
1 0.00000000000000000 -307.05328918609552602 1.00000000000000000 0.00000000000000000 
2 47.09999999999992326 30.84999999999999432 1.00000000000000000 0.00000000000000000 -0.00000000000000000 1.00000000000000000 0.90000000000000568
1 0.00000000000000000 0.00000000000000000 0.00000000000000000 -1.00000000000000000 
1 6.28318530717958623 0.00000000000000000 0.00000000000000000 -1.00000000000000000 
1 0.00000000000000000 0.00000000000000000 1.00000000000000000 0.00000000000000000 
1 0.00000000000000000 -5.00000000000000000 1.00000000000000000 0.00000000000000000 
2 47.09999999999992326 -33.35000000000001563 1.00000000000000000 0.00000000000000000 -0.00000000000000000 1.00000000000000000 0.90000000000000568
1 0.00000000000000000 0.00000000000000000 1.00000000000000000 0.00000000000000000 
1 0.00000000000000000 -5.00000000000000000 1.00000000000000000 0.00000000000000000 
2 47.09999999999992326 -33.35000000000001563 1.00000000000000000 0.00000000000000000 -0.00000000000000000 1.00000000000000000 0.90000000000000568
1 0.00000000000000000 0.00000000000000000 1.00000000000000000 0.00000000000000000 
1 0.00000000000000000 -1.00000000000000000 1.00000000000000000 0.00000000000000000 
2 47.09999999999992326 -33.35000000000001563 1.00000000000000000 0.00000000000000000 -0.00000000000000000 1.00000000000000000 0.90000000000000568
1 0.00000000000000000 0.00000000000000000 1.00000000000000000 0.00000000000000000 
1 0.00000000000000000 -1.00000000000000000 1.00000000000000000 0.00000000000000000 
2 47.09999999999992326 -33.35000000000001563 1.00000000000000000 0.00000000000000000 -0.00000000000000000 1.00000000000000000 0.90000000000000568
1 0.00000000000000000 0.00000000000000000 1.00000000000000000 0.00000000000000000 
1 0.00000000000000000 -1.00000000000000000 1.00000000000000000 0.00000000000000000 
2 47.09999999999992326 -33.35000000000001563 1.00000000000000000 0.00000000000000000 -0.00000000000000000 1.00000000000000000 0.90000000000000568
1 0.00000000000000000 0.00000000000000000 1.00000000000000000 0.00000000000000000 
1 0.00000000000000000 -10.00000000000000000 1.00000000000000000 0.00000000000000000 
2 47.09999999999992326 -33.35000000000001563 1.00000000000000000 0.00000000000000000 -0.00000000000000000 1.00000000000000000 0.90000000000000568
1 0.00000000000000000 0.00000000000000000 1.00000000000000000 0.00000000000000000 
1 0.00000000000000000 -10.00000000000000000 1.00000000000000000 0.00000000000000000 
2 47.09999999999992326 -33.35000000000001563 1.00000000000000000 0.00000000000000000 -0.00000000000000000 1.00000000000000000 0.90000000000000568
1 0.00000000000000000 0.00000000000000000 1.00000000000000000 0.00000000000000000 
1 0.00000000000000000 -10.00000000000000000 1.00000000000000000 0.00000000000000000 
2 47.09999999999992326 -33.35000000000001563 1.00000000000000000 0.00000000000000000 -0.00000000000000000 1.00000000000000000 0.90000000000000568
1 0.00000000000000000 0.00000000000000000 1.00000000000000000 0.00000000000000000 
1 0.00000000000000000 -307.05328918609552602 1.00000000000000000 0.00000000000000000 
2 47.09999999999992326 -33.35000000000001563 1.00000000000000000 0.00000000000000000 -0.00000000000000000 1.00000000000000000 0.90000000000000568
1 0.00000000000000000 0.00000000000000000 1.00000000000000000 0.00000000000000000 
1 0.00000000000000000 -307.05328918609552602 1.00000000000000000 0.00000000000000000 
2 47.09999999999992326 -33.35000000000001563 1.00000000000000000 0.00000000000000000 -0.00000000000000000 1.00000000000000000 0.90000000000000568
1 0.00000000000000000 0.00000000000000000 0.00000000000000000 -1.00000000000000000 
1 6.28318530717958623 0.00000000000000000 0.00000000000000000 -1.00000000000000000 
1 0.00000000000000000 0.00000000000000000 1.00000000000000000 0.00000000000000000 
1 0.00000000000000000 -5.00000000000000000 1.00000000000000000 0.00000000000000000 
2 -47.10000000000008669 30.84999999999999432 1.00000000000000000 0.00000000000000000 -0.00000000000000000 1.00000000000000000 0.89999999999999858
1 0.00000000000000000 0.00000000000000000 1.00000000000000000 0.00000000000000000 
1 0.00000000000000000 -5.00000000000000000 1.00000000000000000 0.00000000000000000 
2 -47.10000000000008669 30.84999999999999432 1.00000000000000000 0.00000000000000000 -0.00000000000000000 1.00000000000000000 0.89999999999999858
1 0.00000000000000000 0.00000000000000000 1.00000000000000000 0.00000000000000000 
1 0.00000000000000000 -1.00000000000000000 1.00000000000000000 0.00000000000000000 
2 -47.10000000000008669 30.84999999999999432 1.00000000000000000 0.00000000000000000 -0.00000000000000000 1.00000000000000000 0.89999999999999858
1 0.00000000000000000 0.00000000000000000 1.00000000000000000 0.00000000000000000 
1 0.00000000000000000 -1.00000000000000000 1.00000000000000000 0.00000000000000000 
2 -47.10000000000008669 30.84999999999999432 1.00000000000000000 0.00000000000000000 -0.00000000000000000 1.00000000000000000 0.89999999999999858
1 0.00000000000000000 0.00000000000000000 1.00000000000000000 0.00000000000000000 
1 0.00000000000000000 -1.00000000000000000 1.00000000000000000 0.00000000000000000 
2 -47.10000000000008669 30.84999999999999432 1.00000000000000000 0.00000000000000000 -0.00000000000000000 1.00000000000000000 0.89999999999999858
1 0.00000000000000000 0.00000000000000000 1.00000000000000000 0.00000000000000000 
1 0.00000000000000000 -10.00000000000000000 1.00000000000000000 0.00000000000000000 
2 -47.10000000000008669 30.84999999999999432 1.00000000000000000 0.00000000000000000 -0.00000000000000000 1.00000000000000000 0.89999999999999858
1 0.00000000000000000 0.00000000000000000 1.00000000000000000 0.00000000000000000 
1 0.00000000000000000 -10.00000000000000000 1.00000000000000000 0.00000000000000000 
2 -47.10000000000008669 30.84999999999999432 1.00000000000000000 0.00000000000000000 -0.00000000000000000 1.00000000000000000 0.89999999999999858
1 0.00000000000000000 0.00000000000000000 1.00000000000000000 0.00000000000000000 
1 0.00000000000000000 -10.00000000000000000 1.00000000000000000 0.00000000000000000 
2 -47.10000000000008669 30.84999999999999432 1.00000000000000000 0.00000000000000000 -0.00000000000000000 1.00000000000000000 0.89999999999999858
1 0.00000000000000000 0.00000000000000000 1.00000000000000000 0.00000000000000000 
1 0.00000000000000000 -307.05328918609552602 1.00000000000000000 0.00000000000000000 
2 -47.10000000000008669 30.84999999999999432 1.00000000000000000 0.00000000000000000 -0.00000000000000000 1.00000000000000000 0.89999999999999858
1 0.00000000000000000 0.00000000000000000 1.00000000000000000 0.00000000000000000 
1 0.00000000000000000 -307.05328918609552602 1.00000000000000000 0.00000000000000000 
2 -47.10000000000008669 30.84999999999999432 1.00000000000000000 0.00000000000000000 -0.00000000000000000 1.00000000000000000 0.89999999999999858
1 0.00000000000000000 0.00000000000000000 0.00000000000000000 -1.00000000000000000 
1 6.28318530717958623 0.00000000000000000 0.00000000000000000 -1.00000000000000000 
1 0.00000000000000000 0.00000000000000000 1.00000000000000000 0.00000000000000000 
1 0.00000000000000000 -5.00000000000000000 1.00000000000000000 0.00000000000000000 
2 -47.10000000000008669 -28.35000000000001563 1.00000000000000000 0.00000000000000000 -0.00000000000000000 1.00000000000000000 0.89999999999999858
1 0.00000000000000000 0.00000000000000000 1.00000000000000000 0.00000000000000000 
1 0.00000000000000000 -5.00000000000000000 1.00000000000000000 0.00000000000000000 
2 -47.10000000000008669 -28.35000000000001563 1.00000000000000000 0.00000000000000000 -0.00000000000000000 1.00000000000000000 0.89999999999999858
1 0.00000000000000000 0.00000000000000000 1.00000000000000000 0.00000000000000000 
1 0.00000000000000000 -1.00000000000000000 1.00000000000000000 0.00000000000000000 
2 -47.10000000000008669 -28.35000000000001563 1.00000000000000000 0.00000000000000000 -0.00000000000000000 1.00000000000000000 0.89999999999999858
1 0.00000000000000000 0.00000000000000000 1.00000000000000000 0.00000000000000000 
1 0.00000000000000000 -1.00000000000000000 1.00000000000000000 0.00000000000000000 
2 -47.10000000000008669 -28.35000000000001563 1.00000000000000000 0.00000000000000000 -0.00000000000000000 1.00000000000000000 0.89999999999999858
1 0.00000000000000000 0.00000000000000000 1.00000000000000000 0.00000000000000000 
1 0.00000000000000000 -1.00000000000000000 1.00000000000000000 0.00000000000000000 
2 -47.10000000000008669 -28.35000000000001563 1.00000000000000000 0.00000000000000000 -0.00000000000000000 1.00000000000000000 0.89999999999999858
1 0.00000000000000000 0.00000000000000000 1.00000000000000000 0.00000000000000000 
1 0.00000000000000000 -10.00000000000000000 1.00000000000000000 0.00000000000000000 
2 -47.10000000000008669 -28.35000000000001563 1.00000000000000000 0.00000000000000000 -0.00000000000000000 1.00000000000000000 0.89999999999999858
1 0.00000000000000000 0.00000000000000000 1.00000000000000000 0.00000000000000000 
1 0.00000000000000000 -10.00000000000000000 1.00000000000000000 0.00000000000000000 
2 -47.10000000000008669 -28.35000000000001563 1.00000000000000000 0.00000000000000000 -0.00000000000000000 1.00000000000000000 0.89999999999999858
1 0.00000000000000000 0.00000000000000000 1.00000000000000000 0.00000000000000000 
1 0.00000000000000000 -10.00000000000000000 1.00000000000000000 0.00000000000000000 
2 -47.10000000000008669 -28.35000000000001563 1.00000000000000000 0.00000000000000000 -0.00000000000000000 1.00000000000000000 0.89999999999999858
1 0.00000000000000000 0.00000000000000000 1.00000000000000000 0.00000000000000000 
1 0.00000000000000000 -307.05328918609552602 1.00000000000000000 0.00000000000000000 
2 -47.10000000000008669 -28.35000000000001563 1.00000000000000000 0.00000000000000000 -0.00000000000000000 1.00000000000000000 0.89999999999999858
1 0.00000000000000000 0.00000000000000000 1.00000000000000000 0.00000000000000000 
1 0.00000000000000000 -307.05328918609552602 1.00000000000000000 0.00000000000000000 
2 -47.10000000000008669 -28.35000000000001563 1.00000000000000000 0.00000000000000000 -0.00000000000000000 1.00000000000000000 0.89999999999999858
Curves 8
1 113.00000000000001421 67.10000000000000853 0.00000000000000000 0.00000000000000000 0.00000000000000000 1.00000000000000000 
2 112.10000000000000853 67.10000000000000853 0.00000000000000000 0.00000000000000000 0.00000000000000000 1.00000000000000000 1.00000000000000000 0.00000000000000000 -0.00000000000000000 -0.00000000000000000 1.00000000000000000 0.00000000000000000 0.90000000000000002
1 113.00000000000001421 2.90000000000000036 0.00000000000000000 0.00000000000000000 0.00000000000000000 1.00000000000000000 
2 112.10000000000000853 2.90000000000000036 0.00000000000000000 0.00000000000000000 0.00000000000000000 1.00000000000000000 1.00000000000000000 0.00000000000000000 -0.00000000000000000 -0.00000000000000000 1.00000000000000000 0.00000000000000000 0.90000000000000002
1 18.79999999999999716 67.10000000000000853 0.00000000000000000 0.00000000000000000 0.00000000000000000 1.00000000000000000 
2 17.89999999999999858 67.10000000000000853 0.00000000000000000 0.00000000000000000 0.00000000000000000 1.00000000000000000 1.00000000000000000 0.00000000000000000 -0.00000000000000000 -0.00000000000000000 1.00000000000000000 0.00000000000000000 0.90000000000000002
1 18.79999999999999716 7.90000000000000036 0.00000000000000000 0.00000000000000000 0.00000000000000000 1.00000000000000000 
2 17.89999999999999858 7.90000000000000036 0.00000000000000000 0.00000000000000000 0.00000000000000000 1.00000000000000000 1.00000000000000000 0.00000000000000000 -0.00000000000000000 -0.00000000000000000 1.00000000000000000 0.00000000000000000 0.90000000000000002
Polygon3D 0
PolygonOnTriangulations 0
Surfaces 80
2 112.10000000000000853 67.10000000000000853 0.00000000000000000 -0.00000000000000000 -0.00000000000000000 -1.00000000000000000 1.00000000000000000 0.00000000000000000 0.00000000000000000 0.00000000000000000 1.00000000000000000 0.00000000000000000 0.90000000000000002
2 112.10000000000000853 67.10000000000000853 0.00000000000000000 0.00000000000000000 0.00000000000000000 1.00000000000000000 1.00000000000000000 0.00000000000000000 0.00000000000000000 0.00000000000000000 1.00000000000000000 0.00000000000000000 0.90000000000000002
1 65.00000000000008527 36.25000000000001421 0.00000000000000000 0.00000000000000000 0.00000000000000000 1.00000000000000000 1.00000000000000000 0.00000000000000000 -0.00000000000000000 -0.00000000000000000 1.00000000000000000 0.00000000000000000 
2 112.10000000000000853 67.10000000000000853 0.00000000000000000 0.00000000000000000 0.00000000000000000 1.00000000000000000 1.00000000000000000 0.00000000000000000 0.00000000000000000 0.00000000000000000 1.00000000000000000 0.00000000000000000 0.90000000000000002
1 65.00000000000008527 36.25000000000001421 0.00000000000000000 0.00000000000000000 0.00000000000000000 1.00000000000000000 1.00000000000000000 0.00000000000000000 -0.00000000000000000 -0.00000000000000000 1.00000000000000000 0.00000000000000000 
2 112.10000000000000853 67.10000000000000853 0.00000000000000000 0.00000000000000000 0.00000000000000000 1.00000000000000000 1.00000000000000000 0.00000000000000000 0.00000000000000000 0.00000000000000000 1.00000000000000000 0.00000000000000000 0.90000000000000002
1 65.00000000000008527 36.25000000000001421 0.00000000000000000 0.00000000000000000 0.00000000000000000 1.00000000000000000 1.00000000000000000 0.00000000000000000 -0.00000000000000000 -0.00000000000000000 1.00000000000000000 0.00000000000000000 
2 112.10000000000000853 67.10000000000000853 0.00000000000000000 0.00000000000000000 0.00000000000000000 1.00000000000000000 1.00000000000000000 0.00000000000000000 0.00000000000000000 0.00000000000000000 1.00000000000000000 0.00000000000000000 0.90000000000000002
1 65.00000000000008527 36.25000000000001421 0.00000000000000000 0.00000000000000000 0.00000000000000000 1.00000000000000000 1.00000000000000000 0.00000000000000000 -0.00000000000000000 -0.00000000000000000 1.00000000000000000 0.00000000000000000 
2 112.10000000000000853 67.10000000000000853 0.00000000000000000 0.00000000000000000 0.00000000000000000 1.00000000000000000 1.00000000000000000 0.00000000000000000 0.00000000000000000 0.00000000000000000 1.00000000000000000 0.00000000000000000 0.90000000000000002
1 65.00000000000008527 36.25000000000001421 0.00000000000000000 0.00000000000000000 0.00000000000000000 1.00000000000000000 1.00000000000000000 0.00000000000000000 -0.00000000000000000 -0.00000000000000000 1.00000000000000000 0.00000000000000000 
2 112.10000000000000853 67.10000000000000853 0.00000000000000000 0.00000000000000000 0.00000000000000000 1.00000000000000000 1.00000000000000000 0.00000000000000000 0.00000000000000000 0.00000000000000000 1.00000000000000000 0.00000000000000000 0.90000000000000002
1 65.00000000000008527 36.25000000000001421 0.00000000000000000 0.00000000000000000 0.00000000000000000 1.00000000000000000 1.00000000000000000 0.00000000000000000 -0.00000000000000000 -0.00000000000000000 1.00000000000000000 0.00000000000000000 
2 112.10000000000000853 67.10000000000000853 0.00000000000000000 0.00000000000000000 0.00000000000000000 1.00000000000000000 1.00000000000000000 0.00000000000000000 0.00000000000000000 0.00000000000000000 1.00000000000000000 0.00000000000000000 0.90000000000000002
1 65.00000000000008527 36.25000000000001421 0.00000000000000000 0.00000000000000000 0.00000000000000000 1.00000000000000000 1.00000000000000000 0.00000000000000000 -0.00000000000000000 -0.00000000000000000 1.00000000000000000 0.00000000000000000 
2 112.10000000000000853 67.10000000000000853 0.00000000000000000 -0.00000000000000000 -0.00000000000000000 -1.00000000000000000 1.00000000000000000 0.00000000000000000 0.00000000000000000 0.00000000000000000 1.00000000000000000 0.00000000000000000 0.90000000000000002
1 65.00000000000008527 36.25000000000001421 0.00000000000000000 0.00000000000000000 0.00000000000000000 1.00000000000000000 1.00000000000000000 0.00000000000000000 -0.00000000000000000 -0.00000000000000000 1.00000000000000000 0.00000000000000000 
2 112.10000000000000853 67.10000000000000853 0.00000000000000000 -0.00000000000000000 -0.00000000000000000 -1.00000000000000000 1.00000000000000000 0.00000000000000000 0.00000000000000000 0.00000000000000000 1.00000000000000000 0.00000000000000000 0.90000000000000002
1 65.00000000000008527 36.25000000000001421 0.00000000000000000 0.00000000000000000 0.00000000000000000 1.00000000000000000 1.00000000000000000 0.00000000000000000 -0.00000000000000000 -0.00000000000000000 1.00000000000000000 0.00000000000000000 
1 65.00000000000008527 36.25000000000001421 0.00000000000000000 0.00000000000000000 0.00000000000000000 1.00000000000000000 1.00000000000000000 0.00000000000000000 -0.00000000000000000 -0.00000000000000000 1.00000000000000000 0.00000000000000000 
2 112.10000000000000853 2.90000000000000036 0.00000000000000000 -0.00000000000000000 -0.00000000000000000 -1.00000000000000000 1.00000000000000000 0.00000000000000000 0.00000000000000000 0.00000000000000000 1.00000000000000000 0.00000000000000000 0.90000000000000002
2 112.10000000000000853 2.90000000000000036 0.00000000000000000 0.00000000000000000 0.00000000000000000 1.00000000000000000 1.00000000000000000 0.00000000000000000 0.00000000000000000 0.00000000000000000 1.00000000000000000 0.00000000000000000 0.90000000000000002
1 65.00000000000008527 36.25000000000001421 0.00000000000000000 0.00000000000000000 0.00000000000000000 1.00000000000000000 1.00000000000000000 0.00000000000000000 -0.00000000000000000 -0.00000000000000000 1.00000000000000000 0.00000000000000000 
2 112.10000000000000853 2.90000000000000036 0.00000000000000000 0.00000000000000000 0.00000000000000000 1.00000000000000000 1.00000000000000000 0.00000000000000000 0.00000000000000000 0.00000000000000000 1.00000000000000000 0.00000000000000000 0.90000000000000002
1 65.00000000000008527 36.25000000000001421 0.00000000000000000 0.00000000000000000 0.00000000000000000 1.00000000000000000 1.00000000000000000 0.00000000000000000 -0.00000000000000000 -0.00000000000000000 1.00000000000000000 0.00000000000000000 
2 112.10000000000000853 2.90000000000000036 0.00000000000000000 0.00000000000000000 0.00000000000000000 1.00000000000000000 1.00000000000000000 0.00000000000000000 0.00000000000000000 0.00000000000000000 1.00000000000000000 0.00000000000000000 0.90000000000000002
1 65.00000000000008527 36.25000000000001421 0.00000000000000000 0.00000000000000000 0.00000000000000000 1.00000000000000000 1.00000000000000000 0.00000000000000000 -0.00000000000000000 -0.00000000000000000 1.00000000000000000 0.00000000000000000 
2 112.10000000000000853 2.90000000000000036 0.00000000000000000 0.00000000000000000 0.00000000000000000 1.00000000000000000 1.00000000000000000 0.00000000000000000 0.00000000000000000 0.00000000000000000 1.00000000000000000 0.00000000000000000 0.90000000000000002
1 65.00000000000008527 36.25000000000001421 0.00000000000000000 0.00000000000000000 0.00000000000000000 1.00000000000000000 1.00000000000000000 0.00000000000000000 -0.00000000000000000 -0.00000000000000000 1.00000000000000000 0.00000000000000000 
2 112.10000000000000853 2.90000000000000036 0.00000000000000000 0.00000000000000000 0.00000000000000000 1.00000000000000000 1.00000000000000000 0.00000000000000000 0.00000000000000000 0.00000000000000000 1.00000000000000000 0.00000000000000000 0.90000000000000002
1 65.00000000000008527 36.25000000000001421 0.00000000000000000 0.00000000000000000 0.00000000000000000 1.00000000000000000 1.00000000000000000 0.00000000000000000 -0.00000000000000000 -0.00000000000000000 1.00000000000000000 0.00000000000000000 
2 112.10000000000000853 2.90000000000000036 0.00000000000000000 0.00000000000000000 0.00000000000000000 1.00000000000000000 1.00000000000000000 0.00000000000000000 0.00000000000000000 0.00000000000000000 1.00000000000000000 0.00000000000000000 0.90000000000000002
1 65.00000000000008527 36.25000000000001421 0.00000000000000000 0.00000000000000000 0.00000000000000000 1.00000000000000000 1.00000000000000000 0.00000000000000000 -0.00000000000000000 -0.00000000000000000 1.00000000000000000 0.00000000000000000 
2 112.10000000000000853 2.90000000000000036 0.00000000000000000 0.00000000000000000 0.00000000000000000 1.00000000000000000 1.00000000000000000 0.00000000000000000 0.00000000000000000 0.00000000000000000 1.00000000000000000 0.00000000000000000 0.90000000000000002
1 65.00000000000008527 36.25000000000001421 0.00000000000000000 0.00000000000000000 0.00000000000000000 1.00000000000000000 1.00000000000000000 0.00000000000000000 -0.00000000000000000 -0.00000000000000000 1.00000000000000000 0.00000000000000000 
2 112.10000000000000853 2.90000000000000036 0.00000000000000000 -0.00000000000000000 -0.00000000000000000 -1.00000000000000000 1.00000000000000000 0.00000000000000000 0.00000000000000000 0.00000000000000000 1.00000000000000000 0.00000000000000000 0.90000000000000002
1 65.00000000000008527 36.25000000000001421 0.00000000000000000 0.00000000000000000 0.00000000000000000 1.00000000000000000 1.00000000000000000 0.00000000000000000 -0.00000000000000000 -0.00000000000000000 1.00000000000000000 0.00000000000000000 
2 112.10000000000000853 2.90000000000000036 0.00000000000000000 -0.00000000000000000 -0.00000000000000000 -1.00000000000000000 1.00000000000000000 0.00000000000000000 0.00000000000000000 0.00000000000000000 1.00000000000000000 0.00000000000000000 0.90000000000000002
1 65.00000000000008527 36.25000000000001421 0.00000000000000000 0.00000000000000000 0.00000000000000000 1.00000000000000000 1.00000000000000000 0.00000000000000000 -0.00000000000000000 -0.00000000000000000 1.00000000000000000 0.00000000000000000 
1 65.00000000000008527 36.25000000000001421 0.00000000000000000 0.00000000000000000 0.00000000000000000 1.00000000000000000 1.00000000000000000 0.00000000000000000 -0.00000000000000000 -0.00000000000000000 1.00000000000000000 0.00000000000000000 
2 17.89999999999999858 67.10000000000000853 0.00000000000000000 -0.00000000000000000 -0.00000000000000000 -1.00000000000000000 1.00000000000000000 0.00000000000000000 0.00000000000000000 0.00000000000000000 1.00000000000000000 0.00000000000000000 0.90000000000000002
2 17.89999999999999858 67.10000000000000853 0.00000000000000000 0.00000000000000000 0.00000000000000000 1.00000000000000000 1.00000000000000000 0.00000000000000000 0.00000000000000000 0.00000000000000000 1.00000000000000000 0.00000000000000000 0.90000000000000002
1 65.00000000000008527 36.25000000000001421 0.00000000000000000 0.00000000000000000 0.00000000000000000 1.00000000000000000 1.00000000000000000 0.00000000000000000 -0.00000000000000000 -0.00000000000000000 1.00000000000000000 0.00000000000000000 
2 17.89999999999999858 67.10000000000000853 0.00000000000000000 0.00000000000000000 0.00000000000000000 1.00000000000000000 1.00000000000000000 0.00000000000000000 0.00000000000000000 0.00000000000000000 1.00000000000000000 0.00000000000000000 0.90000000000000002
1 65.00000000000008527 36.25000000000001421 0.00000000000000000 0.00000000000000000 0.00000000000000000 1.00000000000000000 1.00000000000000000 0.00000000000000000 -0.00000000000000000 -0.00000000000000000 1.00000000000000000 0.00000000000000000 
2 17.89999999999999858 67.10000000000000853 0.00000000000000000 0.00000000000000000 0.00000000000000000 1.00000000000000000 1.00000000000000000 0.00000000000000000 0.00000000000000000 0.00000000000000000 1.00000000000000000 0.00000000000000000 0.90000000000000002
1 65.00000000000008527 36.25000000000001421 0.00000000000000000 0.00000000000000000 0.00000000000000000 1.00000000000000000 1.00000000000000000 0.00000000000000000 -0.00000000000000000 -0.00000000000000000 1.00000000000000000 0.00000000000000000 
2 17.89999999999999858 67.10000000000000853 0.00000000000000000 0.00000000000000000 0.00000000000000000 1.00000000000000000 1.00000000000000000 0.00000000000000000 0.00000000000000000 0.00000000000000000 1.00000000000000000 0.00000000000000000 0.90000000000000002
1 65.00000000000008527 36.25000000000001421 0.00000000000000000 0.00000000000000000 0.00000000000000000 1.00000000000000000 1.00000000000000000 0.00000000000000000 -0.00000000000000000 -0.00000000000000000 1.00000000000000000 0.00000000000000000 
2 17.89999999999999858 67.10000000000000853 0.00000000000000000 0.00000000000000000 0.00000000000000000 1.00000000000000000 1.00000000000000000 0.00000000000000000 0.00000000000000000 0.00000000000000000 1.00000000000000000 0.00000000000000000 0.90000000000000002
1 65.00000000000008527 36.25000000000001421 0.00000000000000000 0.00000000000000000 0.00000000000000000 1.00000000000000000 1.00000000000000000 0.00000000000000000 -0.00000000000000000 -0.00000000000000000 1.00000000000000000 0.00000000000000000 
2 17.89999999999999858 67.10000000000000853 0.00000000000000000 0.00000000000000000 0.00000000000000000 1.00000000000000000 1.00000000000000000 0.00000000000000000 0.00000000000000000 0.00000000000000000 1.00000000000000000 0.00000000000000000 0.90000000000000002
1 65.00000000000008527 36.25000000000001421 0.00000000000000000 0.00000000000000000 0.00000000000000000 1.00000000000000000 1.00000000000000000 0.00000000000000000 -0.00000000000000000 -0.00000000000000000 1.00000000000000000 0.00000000000000000 
2 17.89999999999999858 67.10000000000000853 0.00000000000000000 0.00000000000000000 0.00000000000000000 1.00000000000000000 1.00000000000000000 0.00000000000000000 0.00000000000000000 0.00000000000000000 1.00000000000000000 0.00000000000000000 0.90000000000000002
1 65.00000000000008527 36.25000000000001421 0.00000000000000000 0.00000000000000000 0.00000000000000000 1.00000000000000000 1.00000000000000000 0.00000000000000000 -0.00000000000000000 -0.00000000000000000 1.00000000000000000 0.00000000000000000 
2 17.89999999999999858 67.10000000000000853 0.00000000000000000 -0.00000000000000000 -0.00000000000000000 -1.00000000000000000 1.00000000000000000 0.00000000000000000 0.00000000000000000 0.00000000000000000 1.00000000000000000 0.00000000000000000 0.90000000000000002
1 65.00000000000008527 36.25000000000001421 0.00000000000000000 0.00000000000000000 0.00000000000000000 1.00000000000000000 1.00000000000000000 0.00000000000000000 -0.00000000000000000 -0.00000000000000000 1.00000000000000000 0.00000000000000000 
2 17.89999999999999858 67.10000000000000853 0.00000000000000000 -0.00000000000000000 -0.00000000000000000 -1.00000000000000000 1.00000000000000000 0.00000000000000000 0.00000000000000000 0.00000000000000000 1.00000000000000000 0.00000000000000000 0.90000000000000002
1 65.00000000000008527 36.25000000000001421 0.00000000000000000 0.00000000000000000 0.00000000000000000 1.00000000000000000 1.00000000000000000 0.00000000000000000 -0.00000000000000000 -0.00000000000000000 1.00000000000000000 0.00000000000000000 
1 65.00000000000008527 36.25000000000001421 0.00000000000000000 0.00000000000000000 0.00000000000000000 1.00000000000000000 1.00000000000000000 0.00000000000000000 -0.00000000000000000 -0.00000000000000000 1.00000000000000000 0.00000000000000000 
2 17.89999999999999858 7.90000000000000036 0.00000000000000000 -0.00000000000000000 -0.00000000000000000 -1.00000000000000000 1.00000000000000000 0.00000000000000000 0.00000000000000000 0.00000000000000000 1.00000000000000000 0.00000000000000000 0.90000000000000002
2 17.89999999999999858 7.90000000000000036 0.00000000000000000 0.00000000000000000 0.00000000000000000 1.00000000000000000 1.00000000000000000 0.00000000000000000 0.00000000000000000 0.00000000000000000 1.00000000000000000 0.00000000000000000 0.90000000000000002
1 65.00000000000008527 36.25000000000001421 0.00000000000000000 0.00000000000000000 0.00000000000000000 1.00000000000000000 1.00000000000000000 0.00000000000000000 -0.00000000000000000 -0.00000000000000000 1.00000000000000000 0.00000000000000000 
2 17.89999999999999858 7.90000000000000036 0.00000000000000000 0.00000000000000000 0.00000000000000000 1.00000000000000000 1.00000000000000000 0.00000000000000000 0.00000000000000000 0.00000000000000000 1.00000000000000000 0.00000000000000000 0.90000000000000002
1 65.00000000000008527 36.25000000000001421 0.00000000000000000 0.00000000000000000 0.00000000000000000 1.00000000000000000 1.00000000000000000 0.00000000000000000 -0.00000000000000000 -0.00000000000000000 1.00000000000000000 0.00000000000000000 
2 17.89999999999999858 7.90000000000000036 0.00000000000000000 0.00000000000000000 0.00000000000000000 1.00000000000000000 1.00000000000000000 0.00000000000000000 0.00000000000000000 0.00000000000000000 1.00000000000000000 0.00000000000000000 0.90000000000000002
1 65.00000000000008527 36.25000000000001421 0.00000000000000000 0.00000000000000000 0.00000000000000000 1.00000000000000000 1.00000000000000000 0.00000000000000000 -0.00000000000000000 -0.00000000000000000 1.00000000000000000 0.00000000000000000 
2 17.89999999999999858 7.90000000000000036 0.00000000000000000 0.00000000000000000 0.00000000000000000 1.00000000000000000 1.00000000000000000 0.00000000000000000 0.00000000000000000 0.00000000000000000 1.00000000000000000 0.00000000000000000 0.90000000000000002
1 65.00000000000008527 36.25000000000001421 0.00000000000000000 0.00000000000000000 0.00000000000000000 1.00000000000000000 1.00000000000000000 0.00000000000000000 -0.00000000000000000 -0.00000000000000000 1.00000000000000000 0.00000000000000000 
2 17.89999999999999858 7.90000000000000036 0.00000000000000000 0.00000000000000000 0.00000000000000000 1.00000000000000000 1.00000000000000000 0.00000000000000000 0.00000000000000000 0.00000000000000000 1.00000000000000000 0.00000000000000000 0.90000000000000002
1 65.00000000000008527 36.25000000000001421 0.00000000000000000 0.00000000000000000 0.00000000000000000 1.00000000000000000 1.00000000000000000 0.00000000000000000 -0.00000000000000000 -0.00000000000000000 1.00000000000000000 0.00000000000000000 
2 17.89999999999999858 7.90000000000000036 0.00000000000000000 0.00000000000000000 0.00000000000000000 1.00000000000000000 1.00000000000000000 0.00000000000000000 0.00000000000000000 0.00000000000000000 1.00000000000000000 0.00000000000000000 0.90000000000000002
1 65.00000000000008527 36.25000000000001421 0.00000000000000000 0.00000000000000000 0.00000000000000000 1.00000000000000000 1.00000000000000000 0.00000000000000000 -0.00000000000000000 -0.00000000000000000 1.00000000000000000 0.00000000000000000 
2 17.89999999999999858 7.90000000000000036 0.00000000000000000 0.00000000000000000 0.00000000000000000 1.00000000000000000 1.00000000000000000 0.00000000000000000 0.00000000000000000 0.00000000000000000 1.00000000000000000 0.00000000000000000 0.90000000000000002
1 65.00000000000008527 36.25000000000001421 0.00000000000000000 0.00000000000000000 0.00000000000000000 1.00000000000000000 1.00000000000000000 0.00000000000000000 -0.00000000000000000 -0.00000000000000000 1.00000000000000000 0.00000000000000000 
2 17.89999999999999858 7.90000000000000036 0.00000000000000000 -0.00000000000000000 -0.00000000000000000 -1.00000000000000000 1.00000000000000000 0.00000000000000000 0.00000000000000000 0.00000000000000000 1.00000000000000000 0.00000000000000000 0.90000000000000002
1 65.00000000000008527 36.25000000000001421 0.00000000000000000 0.00000000000000000 0.00000000000000000 1.00000000000000000 1.00000000000000000 0.00000000000000000 -0.00000000000000000 -0.00000000000000000 1.00000000000000000 0.00000000000000000 
2 17.89999999999999858 7.90000000000000036 0.00000000000000000 -0.00000000000000000 -0.00000000000000000 -1.00000000000000000 1.00000000000000000 0.00000000000000000 0.00000000000000000 0.00000000000000000 1.00000000000000000 0.00000000000000000 0.90000000000000002
1 65.00000000000008527 36.25000000000001421 0.00000000000000000 0.00000000000000000 0.00000000000000000 1.00000000000000000 1.00000000000000000 0.00000000000000000 -0.00000000000000000 -0.00000000000000000 1.00000000000000000 0.00000000000000000 
1 65.00000000000008527 36.25000000000001421 0.00000000000000000 0.00000000000000000 0.00000000000000000 1.00000000000000000 1.00000000000000000 0.00000000000000000 -0.00000000000000000 -0.00000000000000000 1.00000000000000000 0.00000000000000000 
Triangulations 0

TShapes 37
Ve
0.000000100000000
113.000000000000014 67.100000000000009 0.000000000000000
0 0

0101101
*
Ed
 0.000000100000000 1 1 0
1  1 0 0.000000000000000 307.053289186095526
3  1 2CN 1 0 0.000000000000000 307.053289186095526
0

0101000
+37 4 -37 6 *
Ed
 0.000000100000000 1 1 0
1  2 0 0.000000000000000 6.283185307179586
2  3 2 9 0.000000000000000 6.283185307179586
2  4 2 11 0.000000000000000 6.283185307179586
2  5 3 12 0.000000000000000 6.283185307179586
2  6 4 15 0.000000000000000 6.283185307179586
2  7 4 17 0.000000000000000 6.283185307179586
2  8 5 18 0.000000000000000 6.283185307179586
2  9 6 21 0.000000000000000 6.283185307179586
2  10 6 23 0.000000000000000 6.283185307179586
2  11 7 24 0.000000000000000 6.283185307179586
2  12 8 27 0.000000000000000 6.283185307179586
2  13 8 29 0.000000000000000 6.283185307179586
2  14 9 30 0.000000000000000 6.283185307179586
2  15 10 33 0.000000000000000 6.283185307179586
2  16 10 35 0.000000000000000 6.283185307179586
2  17 11 36 0.000000000000000 6.283185307179586
2  18 12 39 0.000000000000000 6.283185307179586
2  19 12 41 0.000000000000000 6.283185307179586
2  20 13 42 0.000000000000000 6.283185307179586
2  21 14 45 0.000000000000000 6.283185307179586
2  22 14 47 0.000000000000000 6.283185307179586
2  23 15 48 0.000000000000000 6.283185307179586
2  24 16 51 0.000000000000000 6.283185307179586
2  25 16 53 0.000000000000000 6.283185307179586
2  26 17 54 0.000000000000000 6.283185307179586
2  27 18 57 0.000000000000000 6.283185307179586
2  28 18 59 0.000000000000000 6.283185307179586
2  29 19 60 0.000000000000000 6.283185307179586
2  30 1 61 0.000000000000000 6.283185307179586
2  31 1 62 0.000000000000000 6.283185307179586
2  32 20 63 0.000000000000000 6.283185307179586
0

0101100
+37 0 -37 0 *
Wi

0101100
+36 0 -36 0 -35 4 +35 6 *
Fa
0  0.000000100000000 1 0

0101000
+34 0 *
Wi

0101100
+35 0 *
Fa
0  0.000000100000000 20 0

0101000
+32 65 *
Sh

0101100
+33 0 +31 64 -31 66 *
So

0100000
-30 0 *
Ve
0.000000100000000
113.000000000000014 2.900000000000000 0.000000000000000
0 0

0101101
*
Ed
 0.000000100000000 1 1 0
1  3 0 0.000000000000000 307.053289186095526
3  33 34CN 21 0 0.000000000000000 307.053289186095526
0

0101000
+28 4 -28 6 *
Ed
 0.000000100000000 1 1 0
1  4 0 0.000000000000000 6.283185307179586
2  35 22 9 0.000000000000000 6.283185307179586
2  36 22 11 0.000000000000000 6.283185307179586
2  37 23 12 0.000000000000000 6.283185307179586
2  38 24 15 0.000000000000000 6.283185307179586
2  39 24 17 0.000000000000000 6.283185307179586
2  40 25 18 0.000000000000000 6.283185307179586
2  41 26 21 0.000000000000000 6.283185307179586
2  42 26 23 0.000000000000000 6.283185307179586
2  43 27 24 0.000000000000000 6.283185307179586
2  44 28 27 0.000000000000000 6.283185307179586
2  45 28 29 0.000000000000000 6.283185307179586
2  46 29 30 0.000000000000000 6.283185307179586
2  47 30 33 0.000000000000000 6.283185307179586
2  48 30 35 0.000000000000000 6.283185307179586
2  49 31 36 0.000000000000000 6.283185307179586
2  50 32 39 0.000000000000000 6.283185307179586
2  51 32 41 0.000000000000000 6.283185307179586
2  52 33 42 0.000000000000000 6.283185307179586
2  53 34 45 0.000000000000000 6.283185307179586
2  54 34 47 0.000000000000000 6.283185307179586
2  55 35 48 0.000000000000000 6.283185307179586
2  56 36 51 0.000000000000000 6.283185307179586
2  57 36 53 0.000000000000000 6.283185307179586
2  58 37 54 0.000000000000000 6.283185307179586
2  59 38 57 0.000000000000000 6.283185307179586
2  60 38 59 0.000000000000000 6.283185307179586
2  61 39 60 0.000000000000000 6.283185307179586
2  62 21 61 0.000000000000000 6.283185307179586
2  63 21 62 0.000000000000000 6.283185307179586
2  64 40 63 0.000000000000000 6.283185307179586
0

0101100
+28 0 -28 0 *
Wi

0101100
+27 0 -27 0 -26 4 +26 6 *
Fa
0  0.000000100000000 21 0

0101000
+25 0 *
Wi

0101100
+26 0 *
Fa
0  0.000000100000000 40 0

0101000
+23 65 *
Sh

0101100
+24 0 +22 64 -22 66 *
So

0100000
-21 0 *
Ve
0.000000100000000
18.799999999999997 67.100000000000009 0.000000000000000
0 0

0101101
*
Ed
 0.000000100000000 1 1 0
1  5 0 0.000000000000000 307.053289186095526
3  65 66CN 41 0 0.000000000000000 307.053289186095526
0

0101000
+19 4 -19 6 *
Ed
 0.000000100000000 1 1 0
1  6 0 0.000000000000000 6.283185307179586
2  67 42 9 0.000000000000000 6.283185307179586
2  68 42 11 0.000000000000000 6.283185307179586
2  69 43 12 0.000000000000000 6.283185307179586
2  70 44 15 0.000000000000000 6.283185307179586
2  71 44 17 0.000000000000000 6.283185307179586
2  72 45 18 0.000000000000000 6.283185307179586
2  73 46 21 0.000000000000000 6.283185307179586
2  74 46 23 0.000000000000000 6.283185307179586
2  75 47 24 0.000000000000000 6.283185307179586
2  76 48 27 0.000000000000000 6.283185307179586
2  77 48 29 0.000000000000000 6.283185307179586
2  78 49 30 0.000000000000000 6.283185307179586
2  79 50 33 0.000000000000000 6.283185307179586
2  80 50 35 0.000000000000000 6.283185307179586
2  81 51 36 0.000000000000000 6.283185307179586
2  82 52 39 0.000000000000000 6.283185307179586
2  83 52 41 0.000000000000000 6.283185307179586
2  84 53 42 0.000000000000000 6.283185307179586
2  85 54 45 0.000000000000000 6.283185307179586
2  86 54 47 0.000000000000000 6.283185307179586
2  87 55 48 0.000000000000000 6.283185307179586
2  88 56 51 0.000000000000000 6.283185307179586
2  89 56 53 0.000000000000000 6.283185307179586
2  90 57 54 0.000000000000000 6.283185307179586
2  91 58 57 0.000000000000000 6.283185307179586
2  92 58 59 0.000000000000000 6.283185307179586
2  93 59 60 0.000000000000000 6.283185307179586
2  94 41 61 0.000000000000000 6.283185307179586
2  95 41 62 0.000000000000000 6.283185307179586
2  96 60 63 0.000000000000000 6.283185307179586
0

0101100
+19 0 -19 0 *
Wi

0101100
+18 0 -18 0 -17 4 +17 6 *
Fa
0  0.000000100000000 41 0

0101000
+16 0 *
Wi

0101100
+17 0 *
Fa
0  0.000000100000000 60 0

0101000
+14 65 *
Sh

0101100
+15 0 +13 64 -13 66 *
So

0100000
-12 0 *
Ve
0.000000100000000
18.799999999999997 7.900000000000000 0.000000000000000
0 0

0101101
*
Ed
 0.000000100000000 1 1 0
1  7 0 0.000000000000000 307.053289186095526
3  97 98CN 61 0 0.000000000000000 307.053289186095526
0

0101000
+10 4 -10 6 *
Ed
 0.000000100000000 1 1 0
1  8 0 0.000000000000000 6.283185307179586
2  99 62 9 0.000000000000000 6.283185307179586
2  100 62 11 0.000000000000000 6.283185307179586
2  101 63 12 0.000000000000000 6.283185307179586
2  102 64 15 0.000000000000000 6.283185307179586
2  103 64 17 0.000000000000000 6.283185307179586
2  104 65 18 0.000000000000000 6.283185307179586
2  105 66 21 0.000000000000000 6.283185307179586
2  106 66 23 0.000000000000000 6.283185307179586
2  107 67 24 0.000000000000000 6.283185307179586
2  108 68 27 0.000000000000000 6.283185307179586
2  109 68 29 0.000000000000000 6.283185307179586
2  110 69 30 0.000000000000000 6.283185307179586
2  111 70 33 0.000000000000000 6.283185307179586
2  112 70 35 0.000000000000000 6.283185307179586
2  113 71 36 0.000000000000000 6.283185307179586
2  114 72 39 0.000000000000000 6.283185307179586
2  115 72 41 0.000000000000000 6.283185307179586
2  116 73 42 0.000000000000000 6.283185307179586
2  117 74 45 0.000000000000000 6.283185307179586
2  118 74 47 0.000000000000000 6.283185307179586
2  119 75 48 0.000000000000000 6.283185307179586
2  120 76 51 0.000000000000000 6.283185307179586
2  121 76 53 0.000000000000000 6.283185307179586
2  122 77 54 0.000000000000000 6.283185307179586
2  123 78 57 0.000000000000000 6.283185307179586
2  124 78 59 0.000000000000000 6.283185307179586
2  125 79 60 0.000000000000000 6.283185307179586
2  126 61 61 0.000000000000000 6.283185307179586
2  127 61 62 0.000000000000000 6.283185307179586
2  128 80 63 0.000000000000000 6.283185307179586
0

0101100
+10 0 -10 0 *
Wi

0101100
+9 0 -9 0 -8 4 +8 6 *
Fa
0  0.000000100000000 61 0

0101000
+7 0 *
Wi

0101100
+8 0 *
Fa
0  0.000000100000000 80 0

0101000
+5 65 *
Sh

0101100
+6 0 +4 64 -4 66 *
So

0100000
-3 0 *
Co

1100000
+29 0 +20 0 +11 0 +2 0 *

+1 0 