
CASCADE Topology V1, (c) Matra-Datavision
Locations 32
1
1.000000000000000 0.000000000000000 0.000000000000000 0.000000000000000 
0.000000000000000 1.000000000000000 0.000000000000000 0.000000000000000 
0.000000000000000 0.000000000000000 1.000000000000000 0.000000000000000 
1
1.000000000000000 0.000000000000000 0.000000000000000 0.000000000000000 
0.000000000000000 1.000000000000000 0.000000000000000 0.000000000000000 
0.000000000000000 0.000000000000000 1.000000000000000 0.000000000000000 
1
1.000000000000000 0.000000000000000 0.000000000000000 0.000000000000000 
0.000000000000000 1.000000000000000 0.000000000000000 0.000000000000000 
0.000000000000000 0.000000000000000 1.000000000000000 0.000000000000000 
2  2 1 3 -1 0
1
1.000000000000000 0.000000000000000 0.000000000000000 0.000000000000000 
0.000000000000000 1.000000000000000 0.000000000000000 0.000000000000000 
0.000000000000000 0.000000000000000 1.000000000000000 0.000000000000000 
1
1.000000000000000 0.000000000000000 0.000000000000000 0.000000000000000 
0.000000000000000 1.000000000000000 0.000000000000000 0.000000000000000 
0.000000000000000 0.000000000000000 1.000000000000000 0.000000000000000 
1
1.000000000000000 0.000000000000000 0.000000000000000 0.000000000000000 
0.000000000000000 1.000000000000000 0.000000000000000 0.000000000000000 
0.000000000000000 0.000000000000000 1.000000000000000 0.000000000000000 
2  5 1 6 1 7 -1 0
1
1.000000000000000 0.000000000000000 0.000000000000000 0.000000000000000 
0.000000000000000 1.000000000000000 0.000000000000000 0.000000000000000 
0.000000000000000 0.000000000000000 1.000000000000000 2.000000000000000 
2  5 1 6 1 7 -1 9 1 0
2  6 -1 5 -1 0
2  7 -1 2 1 3 -1 0
2  5 1 6 1 7 -1 2 1 3 -1 0
2  7 1 6 -1 5 -1 0
2  9 -1 7 1 6 -1 5 -1 0
1
1.000000000000000 0.000000000000000 0.000000000000000 0.000000000000000 
0.000000000000000 1.000000000000000 0.000000000000000 0.000000000000000 
0.000000000000000 0.000000000000000 1.000000000000000 0.000000000000000 
1
1.000000000000000 0.000000000000000 0.000000000000000 0.000000000000000 
0.000000000000000 0.000000000000000 -1.000000000000000 0.000000000000000 
0.000000000000000 1.000000000000000 0.000000000000000 0.000000000000000 
2  16 1 17 1 2 -1 7 1 6 -1 5 -1 0
2  16 1 17 1 3 -1 0
1
1.000000000000000 0.000000000000000 0.000000000000000 -0.000000000000000 
0.000000000000000 1.000000000000000 0.000000000000000 2.000000000000000 
0.000000000000000 0.000000000000000 1.000000000000000 -0.000000000000000 
2  16 1 17 1 3 -1 20 1 0
2  3 1 17 -1 16 -1 0
2  20 -1 3 1 17 -1 16 -1 0
2  17 -1 16 -1 0
2  7 -1 2 1 17 -1 16 -1 0
2  7 -1 2 1 3 -1 20 -1 3 1 17 -1 16 -1 0
2  7 -1 9 1 2 1 3 -1 0
2  5 1 6 1 0
2  5 1 6 1 7 -1 9 1 2 1 3 -1 0
2  3 -1 20 1 0
2  16 1 17 1 0
2  3 -1 0
Curve2ds 28
1 -60.00000000000000000 25.00000000000000000 1.00000000000000000 0.00000000000000000 
1 120.00000000000000000 0.00000000000000000 0.00000000000000000 -1.00000000000000000 
1 -60.00000000000000000 -25.00000000000000000 0.00000000000000000 1.00000000000000000 
1 0.00000000000000000 -0.00000000000000000 0.00000000000000000 -1.00000000000000000 
1 60.00000000000000000 25.00000000000000000 0.00000000000000000 -1.00000000000000000 
1 0.00000000000000000 -0.00000000000000000 1.00000000000000000 0.00000000000000000 
1 0.00000000000000000 -2.00000000000000000 1.00000000000000000 0.00000000000000000 
1 60.00000000000000000 -25.00000000000000000 -1.00000000000000000 0.00000000000000000 
1 30.00000000000000000 0.00000000000000000 0.00000000000000000 -1.00000000000000000 
1 0.00000000000000000 0.00000000000000000 0.00000000000000000 -1.00000000000000000 
1 15.00000000000000000 -25.00000000000000000 0.00000000000000000 1.00000000000000000 
1 0.00000000000000000 0.00000000000000000 1.00000000000000000 0.00000000000000000 
1 0.00000000000000000 -2.00000000000000000 1.00000000000000000 0.00000000000000000 
1 5.00000000000000000 -15.00000000000000000 0.00000000000000000 1.00000000000000000 
1 -15.00000000000000000 -25.00000000000000000 1.00000000000000000 0.00000000000000000 
1 -15.00000000000000000 -23.00000000000000000 1.00000000000000000 0.00000000000000000 
1 0.00000000000000000 0.00000000000000000 0.00000000000000000 -1.00000000000000000 
1 10.00000000000000000 0.00000000000000000 0.00000000000000000 -1.00000000000000000 
1 -15.00000000000000000 -25.00000000000000000 0.00000000000000000 1.00000000000000000 
1 10.00000000000000000 0.00000000000000000 0.00000000000000000 -1.00000000000000000 
1 0.00000000000000000 0.00000000000000000 1.00000000000000000 0.00000000000000000 
1 0.00000000000000000 -2.00000000000000000 1.00000000000000000 0.00000000000000000 
1 5.00000000000000000 15.00000000000000000 -1.00000000000000000 0.00000000000000000 
1 -5.00000000000000000 15.00000000000000000 0.00000000000000000 -1.00000000000000000 
1 0.00000000000000000 0.00000000000000000 1.00000000000000000 0.00000000000000000 
1 0.00000000000000044 -2.00000000000000000 1.00000000000000000 0.00000000000000000 
1 -5.00000000000000000 -15.00000000000000000 1.00000000000000000 0.00000000000000000 
1 0.00000000000000000 0.00000000000000000 0.00000000000000000 -1.00000000000000000 
Curves 16
1 0.00000000000000000 50.00000000000000000 0.00000000000000000 0.00000000000000000 0.00000000000000000 1.00000000000000000 
1 120.00000000000000000 50.00000000000000000 0.00000000000000000 0.00000000000000000 0.00000000000000000 1.00000000000000000 
1 0.00000000000000000 50.00000000000000000 0.00000000000000000 1.00000000000000000 0.00000000000000000 0.00000000000000000 
1 0.00000000000000000 0.00000000000000000 0.00000000000000000 0.00000000000000000 0.00000000000000000 1.00000000000000000 
1 0.00000000000000000 0.00000000000000000 0.00000000000000000 0.00000000000000000 1.00000000000000000 0.00000000000000000 
1 120.00000000000000000 0.00000000000000000 0.00000000000000000 0.00000000000000000 0.00000000000000000 1.00000000000000000 
1 120.00000000000000000 50.00000000000000000 0.00000000000000000 0.00000000000000000 -1.00000000000000000 0.00000000000000000 
1 120.00000000000000000 0.00000000000000000 0.00000000000000000 -1.00000000000000000 0.00000000000000000 0.00000000000000000 
1 75.00000000000000000 0.00000000000000000 0.00000000000000000 -0.00000000000000000 1.00000000000000000 -0.00000000000000022 
1 45.00000000000000000 0.00000000000000000 0.00000000000000000 1.00000000000000000 0.00000000000000000 0.00000000000000000 
1 45.00000000000000000 0.00000000000000000 0.00000000000000000 -0.00000000000000000 1.00000000000000000 -0.00000000000000022 
1 75.00000000000000000 -0.00000000000000222 -10.00000000000000000 -0.00000000000000000 1.00000000000000000 -0.00000000000000022 
1 75.00000000000000000 0.00000000000000000 0.00000000000000000 0.00000000000000000 -1.00000000000000000 0.00000000000000000 
1 75.00000000000000000 -10.00000000000000000 0.00000000000000000 -1.00000000000000000 0.00000000000000000 0.00000000000000000 
1 45.00000000000000000 -10.00000000000000000 0.00000000000000000 0.00000000000000000 1.00000000000000000 0.00000000000000000 
1 45.00000000000000000 -0.00000000000000222 -10.00000000000000000 -0.00000000000000000 1.00000000000000000 -0.00000000000000022 
Polygon3D 0
PolygonOnTriangulations 0
Surfaces 10
1 0.00000000000000000 50.00000000000000000 0.00000000000000000 0.00000000000000000 1.00000000000000000 0.00000000000000000 1.00000000000000000 0.00000000000000000 0.00000000000000000 0.00000000000000000 0.00000000000000000 -1.00000000000000000 
1 60.00000000000000000 25.00000000000000000 0.00000000000000000 0.00000000000000000 0.00000000000000000 1.00000000000000000 1.00000000000000000 0.00000000000000000 -0.00000000000000000 -0.00000000000000000 1.00000000000000000 0.00000000000000000 
1 0.00000000000000000 0.00000000000000000 0.00000000000000000 -1.00000000000000000 0.00000000000000000 0.00000000000000000 0.00000000000000000 1.00000000000000000 0.00000000000000000 0.00000000000000000 0.00000000000000000 -1.00000000000000000 
1 120.00000000000000000 0.00000000000000000 0.00000000000000000 0.00000000000000000 -1.00000000000000000 0.00000000000000000 -1.00000000000000000 0.00000000000000000 0.00000000000000000 -0.00000000000000000 -0.00000000000000000 -1.00000000000000000 
1 120.00000000000000000 50.00000000000000000 0.00000000000000000 1.00000000000000000 0.00000000000000000 -0.00000000000000000 0.00000000000000000 -1.00000000000000000 0.00000000000000000 0.00000000000000000 -0.00000000000000000 -1.00000000000000000 
1 45.00000000000000000 0.00000000000000000 0.00000000000000000 0.00000000000000000 -0.00000000000000022 -1.00000000000000000 1.00000000000000000 0.00000000000000000 0.00000000000000000 0.00000000000000000 -1.00000000000000000 0.00000000000000022 
1 75.00000000000000000 0.00000000000000000 0.00000000000000000 -1.00000000000000000 -0.00000000000000000 0.00000000000000000 0.00000000000000000 -0.00000000000000022 -1.00000000000000000 0.00000000000000000 -1.00000000000000000 0.00000000000000022 
1 60.00000000000000000 -0.00000000000000111 -5.00000000000000000 0.00000000000000000 1.00000000000000000 -0.00000000000000022 0.00000000000000000 0.00000000000000022 1.00000000000000000 1.00000000000000000 -0.00000000000000000 0.00000000000000000 
1 45.00000000000000000 -0.00000000000000222 -10.00000000000000000 1.00000000000000000 0.00000000000000000 -0.00000000000000000 0.00000000000000000 0.00000000000000022 1.00000000000000000 0.00000000000000000 -1.00000000000000000 0.00000000000000022 
1 75.00000000000000000 -0.00000000000000222 -10.00000000000000000 0.00000000000000000 0.00000000000000022 1.00000000000000000 -1.00000000000000000 0.00000000000000000 0.00000000000000000 0.00000000000000000 -1.00000000000000000 0.00000000000000022 
Triangulations 0

TShapes 48
Ve
0.000000100000000
0.000000000000000 50.000000000000000 0.000000000000000
0 0

0101101
*
Ed
 0.000000100000000 1 1 0
1  1 0 0.000000000000000 2.000000000000000
0

0101000
+48 8 -48 10 *
Ve
0.000000100000000
120.000000000000000 50.000000000000000 0.000000000000000
0 0

0101101
*
Ed
 0.000000100000000 1 1 0
1  2 0 0.000000000000000 2.000000000000000
0

0101000
+46 8 -46 10 *
Ed
 0.000000100000000 1 1 0
1  3 0 0.000000000000000 120.000000000000000
2  1 2 11 0.000000000000000 120.000000000000000
0

0101000
+48 0 -46 0 *
Wi

0101100
+47 0 -45 0 -44 8 +44 10 *
Fa
0  0.000000100000000 1 0

0111000
+43 0 *
Ve
0.000000100000000
0.000000000000000 0.000000000000000 0.000000000000000
0 0

0101101
*
Ed
 0.000000100000000 1 1 0
1  4 0 0.000000000000000 2.000000000000000
2  2 4 0 0.000000000000000 2.000000000000000
0

0101000
+41 8 -41 10 *
Ed
 0.000000100000000 1 1 0
1  5 0 0.000000000000000 50.000000000000000
2  3 2 11 0.000000000000000 50.000000000000000
0

0101000
+41 0 -48 0 *
Wi

0101100
+40 0 -47 0 -39 8 +39 10 *
Fa
0  0.000000100000000 3 0

0111000
+38 0 *
Ve
0.000000100000000
120.000000000000000 0.000000000000000 0.000000000000000
0 0

0101101
*
Ed
 0.000000100000000 1 1 0
1  6 0 0.000000000000000 2.000000000000000
2  4 4 0 0.000000000000000 2.000000000000000
0

0101000
+36 8 -36 10 *
Ed
 0.000000100000000 1 1 0
1  7 0 0.000000000000000 50.000000000000000
2  5 2 11 0.000000000000000 50.000000000000000
0

0101000
+46 0 -36 0 *
Wi

0101100
+45 0 -35 0 -34 8 +34 10 *
Fa
0  0.000000100000000 5 0

0111000
+33 0 *
Ve
0.000000100000000
75.000000000000000 0.000000000000000 0.000000000000000
0 0

0101101
*
Ed
 0.000000100000000 1 1 0
1  8 0 0.000000000000000 45.000000000000000
2  6 4 14 0.000000000000000 45.000000000000000
2  7 4 15 0.000000000000000 45.000000000000000
2  8 2 11 0.000000000000000 45.000000000000000
0

0101000
+36 0 -31 18 *
Ed
 0.000000100000000 1 1 0
1  9 0 0.000000000000000 2.000000000000000
2  9 6 0 0.000000000000000 2.000000000000000
2  10 7 0 0.000000000000000 2.000000000000000
2  11 2 12 0.000000000000000 2.000000000000000
0

0101000
+31 19 -31 21 *
Ve
0.000000100000000
45.000000000000000 0.000000000000000 0.000000000000000
0 0

0101101
*
Ed
 0.000000100000000 1 1 0
1  10 0 0.000000000000000 30.000000000000000
2  12 6 22 0.000000000000000 30.000000000000000
2  13 6 23 0.000000000000000 30.000000000000000
2  14 8 24 0.000000000000000 30.000000000000000
2  15 2 25 0.000000000000000 30.000000000000000
2  16 2 26 0.000000000000000 30.000000000000000
0

0101000
+28 0 -31 0 *
Ed
 0.000000100000000 1 1 0
1  11 0 0.000000000000000 2.000000000000000
2  17 6 0 0.000000000000000 2.000000000000000
2  18 9 0 0.000000000000000 2.000000000000000
2  19 2 12 0.000000000000000 2.000000000000000
0

0101000
+28 19 -28 21 *
Ed
 0.000000100000000 1 1 0
1  8 0 75.000000000000000 120.000000000000000
2  6 4 14 75.000000000000000 120.000000000000000
2  7 4 15 75.000000000000000 120.000000000000000
2  8 2 11 75.000000000000000 120.000000000000000
0

0101000
+28 18 -41 0 *
Wi

0101100
-44 13 -34 13 -30 13 -29 0 +27 21 +26 0 -25 13 -39 13 *
Fa
0  0.000000100000000 2 12

0101000
+24 0 *
Ed
 0.000000100000000 1 1 0
1  8 0 0.000000000000000 120.000000000000000
2  6 4 14 0.000000000000000 120.000000000000000
2  7 4 15 0.000000000000000 120.000000000000000
2  8 2 11 0.000000000000000 120.000000000000000
0

0101000
+36 0 -41 0 *
Wi

0101100
+44 0 +34 0 +22 0 +39 0 *
Fa
0  0.000000100000000 2 0

0111000
-21 28 *
Wi

0101100
+35 4 -40 4 -30 13 +27 19 -25 13 +22 29 *
Fa
0  0.000000100000000 4 4

0101000
+19 0 *
Ve
0.000000100000000
75.000000000000000 -10.000000000000000 0.000000000000000
0 0

0101101
*
Ed
 0.000000100000000 1 1 0
1  12 0 0.000000000000000 2.000000000000000
2  20 7 0 0.000000000000000 2.000000000000000
0

0101000
+17 19 -17 21 *
Ed
 0.000000100000000 1 1 0
1  13 0 0.000000000000000 10.000000000000000
2  21 7 22 0.000000000000000 10.000000000000000
2  22 7 23 0.000000000000000 10.000000000000000
2  23 8 24 0.000000000000000 10.000000000000000
0

0101000
+31 0 -17 0 *
Wi

0101100
+29 0 -16 0 -15 19 +15 21 *
Fa
0  0.000000100000000 7 0

0101000
+14 0 *
Ve
0.000000100000000
45.000000000000000 -10.000000000000000 0.000000000000000
0 0

0101101
*
Ed
 0.000000100000000 1 1 0
1  14 0 0.000000000000000 30.000000000000000
2  24 8 24 0.000000000000000 30.000000000000000
0

0101000
+17 0 -12 0 *
Ed
 0.000000100000000 1 1 0
1  15 0 0.000000000000000 10.000000000000000
2  25 9 22 0.000000000000000 10.000000000000000
2  26 9 23 0.000000000000000 10.000000000000000
2  27 8 24 0.000000000000000 10.000000000000000
0

0101000
+12 0 -28 0 *
Wi

0101100
+27 0 +15 0 +11 0 +10 0 *
Fa
0  0.000000100000000 8 0

0101000
+9 31 *
Ed
 0.000000100000000 1 1 0
1  16 0 0.000000000000000 2.000000000000000
2  28 9 0 0.000000000000000 2.000000000000000
0

0101000
+12 19 -12 21 *
Wi

0101100
+7 0 -26 0 -10 19 +10 21 *
Fa
0  0.000000100000000 9 0

0101000
+6 0 *
Wi

0101100
+16 0 -7 0 -11 19 +11 21 *
Fa
0  0.000000100000000 10 0

0101000
+4 0 *
Sh

0101100
+42 4 +37 4 +32 4 -23 0 +20 27 +18 0 -13 0 +8 30 -5 0 -8 32 
-3 0 *
So

0100000
+2 0 *

+1 1 