
CASCADE Topology V1, (c) Matra-Datavision
Locations 80
1
1.000000000000000 0.000000000000000 0.000000000000000 0.000000000000000 
0.000000000000000 1.000000000000000 0.000000000000000 0.000000000000000 
0.000000000000000 0.000000000000000 1.000000000000000 0.000000000000000 
1
1.000000000000000 0.000000000000000 0.000000000000000 0.000000000000000 
0.000000000000000 1.000000000000000 0.000000000000000 0.000000000000000 
0.000000000000000 0.000000000000000 1.000000000000000 0.000000000000000 
1
1.000000000000000 0.000000000000000 0.000000000000000 0.000000000000000 
0.000000000000000 1.000000000000000 0.000000000000000 0.000000000000000 
0.000000000000000 0.000000000000000 1.000000000000000 0.000000000000000 
1
1.000000000000000 0.000000000000000 0.000000000000000 0.000000000000000 
0.000000000000000 1.000000000000000 0.000000000000000 0.000000000000000 
0.000000000000000 0.000000000000000 1.000000000000000 0.000000000000000 
2  2 1 3 1 4 -1 0
2  2 -1 0
1
1.000000000000000 0.000000000000000 0.000000000000000 0.000000000000000 
0.000000000000000 1.000000000000000 0.000000000000000 0.000000000000000 
0.000000000000000 0.000000000000000 1.000000000000000 0.000000000000000 
1
1.000000000000000 0.000000000000000 0.000000000000000 0.000000000000000 
0.000000000000000 0.000000000000000 -1.000000000000000 54.000000000000000 
0.000000000000000 1.000000000000000 0.000000000000000 0.000000000000000 
1
1.000000000000000 0.000000000000000 0.000000000000000 0.000000000000000 
0.000000000000000 1.000000000000000 0.000000000000000 0.000000000000000 
0.000000000000000 0.000000000000000 1.000000000000000 0.000000000000000 
2  7 1 8 1 9 -1 0
2  7 1 8 1 9 -1 2 1 0
2  9 1 8 -1 7 -1 0
1
1.000000000000000 0.000000000000000 0.000000000000000 0.000000000000000 
0.000000000000000 1.000000000000000 0.000000000000000 -1.000000000000000 
0.000000000000000 0.000000000000000 1.000000000000000 0.000000000000000 
2  13 -1 9 1 8 -1 7 -1 0
2  8 -1 7 -1 0
1
1.000000000000000 0.000000000000000 0.000000000000000 0.000000000000000 
0.000000000000000 1.000000000000000 0.000000000000000 0.000000000000000 
0.000000000000000 0.000000000000000 1.000000000000000 0.000000000000000 
2  16 1 8 -1 7 -1 0
2  7 1 8 1 9 -1 13 1 2 1 0
2  2 -1 13 -1 9 1 8 -1 7 -1 0
2  3 1 4 -1 0
2  9 -1 13 1 2 1 0
2  16 1 9 -1 0
1
1.000000000000000 0.000000000000000 0.000000000000000 0.000000000000000 
0.000000000000000 1.000000000000000 0.000000000000000 0.000000000000000 
0.000000000000000 0.000000000000000 1.000000000000000 0.000000000000000 
1
1.000000000000000 0.000000000000000 0.000000000000000 0.000000000000000 
0.000000000000000 1.000000000000000 0.000000000000000 0.000000000000000 
0.000000000000000 0.000000000000000 1.000000000000000 0.000000000000000 
1
1.000000000000000 0.000000000000000 0.000000000000000 0.000000000000000 
0.000000000000000 1.000000000000000 0.000000000000000 0.000000000000000 
0.000000000000000 0.000000000000000 1.000000000000000 0.000000000000000 
1
1.000000000000000 0.000000000000000 0.000000000000000 0.000000000000000 
0.000000000000000 1.000000000000000 0.000000000000000 0.000000000000000 
0.000000000000000 0.000000000000000 1.000000000000000 10.000000000000000 
2  23 1 24 1 25 -1 26 1 0
2  23 1 24 1 25 -1 26 1 16 1 9 -1 0
2  25 1 24 -1 23 -1 0
2  26 -1 25 1 24 -1 23 -1 0
2  24 -1 23 -1 0
1
1.000000000000000 0.000000000000000 0.000000000000000 0.000000000000000 
0.000000000000000 1.000000000000000 0.000000000000000 0.000000000000000 
0.000000000000000 0.000000000000000 1.000000000000000 0.000000000000000 
2  32 1 24 -1 23 -1 0
2  7 1 8 1 16 -1 26 -1 25 1 24 -1 23 -1 0
1
1.000000000000000 0.000000000000000 0.000000000000000 0.000000000000000 
0.000000000000000 1.000000000000000 0.000000000000000 0.000000000000000 
0.000000000000000 0.000000000000000 1.000000000000000 0.000000000000000 
1
1.000000000000000 0.000000000000000 0.000000000000000 0.000000000000000 
0.000000000000000 1.000000000000000 0.000000000000000 0.000000000000000 
0.000000000000000 0.000000000000000 1.000000000000000 0.000000000000000 
1
1.000000000000000 0.000000000000000 0.000000000000000 0.000000000000000 
0.000000000000000 1.000000000000000 0.000000000000000 0.000000000000000 
0.000000000000000 0.000000000000000 1.000000000000000 0.000000000000000 
1
1.000000000000000 0.000000000000000 0.000000000000000 0.000000000000000 
0.000000000000000 1.000000000000000 0.000000000000000 0.000000000000000 
0.000000000000000 0.000000000000000 1.000000000000000 2.000000000000000 
2  35 1 36 1 37 -1 38 1 32 1 25 -1 16 1 9 -1 0
1
1.000000000000000 0.000000000000000 0.000000000000000 0.000000000000000 
0.000000000000000 1.000000000000000 0.000000000000000 0.000000000000000 
0.000000000000000 0.000000000000000 1.000000000000000 0.000000000000000 
2  40 -1 35 -1 0
2  36 -1 35 -1 0
2  37 1 36 -1 35 -1 0
2  38 -1 37 1 36 -1 35 -1 0
2  25 1 32 -1 38 -1 37 1 36 -1 35 -1 0
2  9 -1 13 1 2 1 3 1 4 -1 0
2  2 -1 13 -1 9 1 0
2  16 1 9 -1 2 1 3 1 4 -1 0
2  32 1 25 -1 0
2  23 1 24 1 25 -1 0
2  25 -1 26 1 16 1 9 -1 0
2  37 -1 38 1 32 1 25 -1 0
2  35 1 36 1 37 -1 38 1 32 1 25 -1 0
1
1.000000000000000 0.000000000000000 0.000000000000000 0.000000000000000 
0.000000000000000 1.000000000000000 0.000000000000000 0.000000000000000 
0.000000000000000 0.000000000000000 1.000000000000000 0.000000000000000 
2  54 1 40 -1 35 -1 0
1
1.000000000000000 0.000000000000000 0.000000000000000 0.000000000000000 
0.000000000000000 1.000000000000000 0.000000000000000 0.000000000000000 
0.000000000000000 0.000000000000000 1.000000000000000 2.000000000000000 
2  56 -1 54 1 40 -1 35 -1 0
2  35 1 36 1 37 -1 32 1 25 -1 0
2  23 1 24 1 32 -1 37 1 36 -1 35 -1 0
2  35 1 36 1 37 -1 0
2  35 1 36 1 37 -1 38 1 0
2  25 -1 16 1 9 -1 2 1 3 1 4 -1 0
2  23 1 24 1 0
2  32 1 25 -1 16 1 9 -1 2 1 3 1 4 -1 0
2  23 1 24 1 25 -1 26 1 16 1 9 -1 2 1 3 1 4 -1 0
1
1.000000000000000 0.000000000000000 0.000000000000000 0.000000000000000 
0.000000000000000 1.000000000000000 0.000000000000000 0.000000000000000 
0.000000000000000 0.000000000000000 1.000000000000000 0.000000000000000 
1
-1.000000000000000 0.000000000000000 0.000000000000000 0.000000000000000 
0.000000000000000 0.000000000000000 1.000000000000000 0.000000000000000 
0.000000000000000 1.000000000000000 -0.000000000000000 0.000000000000000 
2  66 1 67 1 3 -1 2 -1 9 1 16 -1 26 -1 25 1 24 -1 23 -1 0
2  66 1 67 1 4 -1 0
2  4 1 67 -1 66 -1 0
1
1.000000000000000 0.000000000000000 0.000000000000000 0.000000000000000 
0.000000000000000 1.000000000000000 0.000000000000000 1.000000000000000 
0.000000000000000 0.000000000000000 1.000000000000000 -0.000000000000000 
2  71 -1 4 1 67 -1 66 -1 0
2  67 -1 66 -1 0
2  16 1 9 -1 2 1 3 1 67 -1 66 -1 0
2  35 1 36 1 37 -1 38 1 32 1 25 -1 16 1 9 -1 2 1 3 1 4 -1 0
2  37 -1 32 1 25 -1 0
2  25 -1 26 1 16 1 9 -1 2 1 3 1 4 -1 0
2  66 1 67 1 4 -1 71 1 0
2  4 -1 71 1 0
2  66 1 67 1 0
Curve2ds 122
1 0.00000000000000000 0.00000000000000000 0.00000000000000000 -1.00000000000000000 
1 20.00000000000000000 0.00000000000000000 0.00000000000000000 -1.00000000000000000 
1 20.00000000000000000 -0.35355339059327062 0.00000000000000000 1.00000000000000000 
1 -0.10000000000000245 -0.60000000000000853 0.70710678118655057 -0.70710678118654446 
1 0.00000000000000000 0.00000000000000000 1.00000000000000000 0.00000000000000000 
1 -0.00000000000000022 -1.00000000000000000 1.00000000000000000 0.00000000000000000 
1 -1.50000000000000000 -10.00000000000000000 1.00000000000000000 0.00000000000000000 
1 25.00000000000000000 -7.00000000000000000 0.00000000000000000 -1.00000000000000000 
1 0.00000000000000000 0.00000000000000000 0.00000000000000000 -1.00000000000000000 
1 3.00000000000000000 -0.00000000000000067 0.00000000000000000 -1.00000000000000000 
1 -0.00000000000000000 0.70710678118655379 0.00000000000000000 1.00000000000000000 
1 2.34999999999999032 -1.35000000000000187 -0.70710678118655179 -0.70710678118654324 
1 3.00000000000000000 0.00000000000000067 0.00000000000000000 -1.00000000000000000 
1 0.00000000000000000 0.00000000000000000 0.00000000000000000 -1.00000000000000000 
1 0.00000000000000000 -0.21213203435596029 1.00000000000000000 0.00000000000000000 
1 0.00000000000000000 -0.70000000000000284 1.00000000000000000 0.00000000000000000 
1 -1.50000000000000000 10.00000000000000000 0.00000000000000000 -1.00000000000000000 
1 0.00000000000000000 0.00000000000000000 1.00000000000000000 0.00000000000000000 
1 0.00000000000000000 -1.00000000000000000 1.00000000000000000 0.00000000000000000 
1 5.00000000000000000 -7.00000000000000000 1.00000000000000000 0.00000000000000000 
1 -0.00000000000000000 0.70710678118655568 0.00000000000000000 1.00000000000000000 
1 2.34999999999999565 -1.35000000000000808 -0.70710678118655057 -0.70710678118654446 
1 0.00000000000000000 0.21213203435596029 1.00000000000000000 0.00000000000000000 
1 -1.20000000000000018 10.00000000000000000 0.00000000000000000 -1.00000000000000000 
1 30.00000000000000000 0.00000000000000000 0.00000000000000000 -1.00000000000000000 
1 0.00000000000000000 0.00000000000000000 0.00000000000000000 -1.00000000000000000 
1 0.00000000000000000 -0.00000000000000000 1.00000000000000000 0.00000000000000000 
1 0.00000000000000000 -10.00000000000000000 1.00000000000000000 0.00000000000000000 
1 15.00000000000000000 27.00000000000000000 -1.00000000000000000 0.00000000000000000 
1 75.00000000000000000 0.00000000000000000 -1.00000000000000000 0.00000000000000000 
1 0.00000000000000000 0.00000000000000000 1.00000000000000000 0.00000000000000000 
1 0.00000000000000022 -1.00000000000000000 1.00000000000000000 0.00000000000000000 
1 1.50000000000000000 10.00000000000000000 -1.00000000000000000 0.00000000000000000 
1 5.00000000000000000 -10.00000000000000000 0.00000000000000000 1.00000000000000000 
1 2.00000000000000000 0.00000000000000000 0.00000000000000000 -1.00000000000000000 
1 0.00000000000000000 -0.00000000000000000 0.00000000000000000 -1.00000000000000000 
1 -62.00000000000000000 27.00000000000000000 1.00000000000000000 0.00000000000000000 
1 -62.00000000000000000 27.00000000000000000 1.00000000000000000 0.00000000000000000 
1 0.00000000000000000 0.00000000000000000 1.00000000000000000 0.00000000000000000 
1 0.00000000000000000 -2.00000000000000000 1.00000000000000000 0.00000000000000000 
1 75.00000000000000000 -2.00000000000000000 -1.00000000000000000 -0.00000000000000000 
1 0.00000000000000000 0.21213203435596029 1.00000000000000000 0.00000000000000000 
1 1.19999999999999929 -10.00000000000000000 0.00000000000000000 1.00000000000000000 
1 0.00000000000000000 -0.21213203435596739 1.00000000000000000 0.00000000000000000 
1 0.00000000000000000 -0.70000000000000284 1.00000000000000000 0.00000000000000000 
1 0.00000000000000000 0.00000000000000000 1.00000000000000000 0.00000000000000000 
1 0.00000000000000000 -1.00000000000000000 1.00000000000000000 0.00000000000000000 
1 1.50000000000000000 -10.00000000000000000 0.00000000000000000 1.00000000000000000 
1 25.00000000000000000 -10.00000000000000000 -1.00000000000000000 -0.00000000000000000 
1 20.00000000000000000 0.00000000000000000 0.00000000000000000 -1.00000000000000000 
1 0.00000000000000000 0.00000000000000000 0.00000000000000000 -1.00000000000000000 
1 20.00000000000000000 -0.35355339059327373 0.00000000000000000 1.00000000000000000 
1 -0.09999999999999951 -0.60000000000000142 0.70710678118655179 -0.70710678118654324 
1 45.00000000000000000 0.00000000000000000 0.00000000000000000 -1.00000000000000000 
1 2.00000000000000000 0.00000000000000000 0.00000000000000000 -1.00000000000000000 
1 0.00000000000000000 0.00000000000000000 1.00000000000000000 0.00000000000000000 
1 0.00000000000000000 -10.00000000000000000 1.00000000000000000 0.00000000000000000 
1 -15.00000000000000000 27.00000000000000000 0.00000000000000000 1.00000000000000000 
1 -15.00000000000000000 29.00000000000000000 1.00000000000000000 0.00000000000000000 
1 0.00000000000000000 0.00000000000000000 1.00000000000000000 0.00000000000000000 
1 0.00000000000000000 -10.00000000000000000 1.00000000000000000 0.00000000000000000 
1 15.00000000000000000 29.00000000000000000 0.00000000000000000 -1.00000000000000000 
1 0.00000000000000000 0.00000000000000000 0.00000000000000000 -1.00000000000000000 
1 75.00000000000000000 0.00000000000000000 0.00000000000000000 -1.00000000000000000 
1 62.00000000000000000 27.00000000000000000 0.00000000000000000 -1.00000000000000000 
1 62.00000000000000000 27.00000000000000000 0.00000000000000000 -1.00000000000000000 
1 0.00000000000000000 -0.00000000000000000 1.00000000000000000 0.00000000000000000 
1 0.00000000000000000 -2.00000000000000000 1.00000000000000000 0.00000000000000000 
1 62.00000000000000000 -27.00000000000000000 -1.00000000000000000 0.00000000000000000 
1 0.00000000000000000 -0.00000000000000000 1.00000000000000000 0.00000000000000000 
1 0.00000000000000000 -2.00000000000000000 1.00000000000000000 0.00000000000000000 
1 62.00000000000000000 -27.00000000000000000 -1.00000000000000000 0.00000000000000000 
1 79.00000000000000000 -2.00000000000000000 -1.00000000000000000 0.00000000000000000 
1 -62.00000000000000000 -27.00000000000000000 0.00000000000000000 1.00000000000000000 
1 -62.00000000000000000 -27.00000000000000000 0.00000000000000000 1.00000000000000000 
1 0.00000000000000000 0.00000000000000000 0.00000000000000000 -1.00000000000000000 
1 124.00000000000000000 0.00000000000000000 0.00000000000000000 -1.00000000000000000 
1 0.00000000000000000 -0.00000000000000000 0.00000000000000000 -1.00000000000000000 
1 30.00000000000000000 0.00000000000000000 0.00000000000000000 -1.00000000000000000 
1 0.00000000000000000 0.00000000000000000 0.00000000000000000 -1.00000000000000000 
1 49.00000000000000000 0.00000000000000000 0.00000000000000000 -1.00000000000000000 
1 0.00000000000000000 0.00000000000000000 1.00000000000000000 0.00000000000000000 
1 0.00000000000000000 -10.00000000000000000 1.00000000000000000 0.00000000000000000 
1 -15.00000000000000000 -27.00000000000000000 1.00000000000000000 0.00000000000000000 
1 79.00000000000000000 0.00000000000000000 -1.00000000000000000 -0.00000000000000000 
1 0.00000000000000000 0.00000000000000000 1.00000000000000000 0.00000000000000000 
1 0.00000000000000022 -1.00000000000000000 1.00000000000000000 0.00000000000000000 
1 -1.50000000000000000 10.00000000000000000 1.00000000000000000 0.00000000000000000 
1 25.00000000000000000 -7.00000000000000000 0.00000000000000000 -1.00000000000000000 
1 -1.50000000000000000 -10.00000000000000000 0.00000000000000000 1.00000000000000000 
1 0.00000000000000000 0.00000000000000000 1.00000000000000000 0.00000000000000000 
1 0.00000000000000000 -1.00000000000000000 1.00000000000000000 0.00000000000000000 
1 5.00000000000000000 -7.00000000000000000 1.00000000000000000 0.00000000000000000 
1 0.00000000000000000 0.00000000000000000 1.00000000000000000 0.00000000000000000 
1 -0.00000000000000022 -1.00000000000000000 1.00000000000000000 0.00000000000000000 
1 1.50000000000000000 -10.00000000000000000 -1.00000000000000000 0.00000000000000000 
1 5.00000000000000000 -10.00000000000000000 0.00000000000000000 1.00000000000000000 
1 0.00000000000000000 0.00000000000000000 0.00000000000000000 -1.00000000000000000 
1 2.00000000000000000 0.00000000000000000 0.00000000000000000 -1.00000000000000000 
1 124.00000000000000000 0.00000000000000000 0.00000000000000000 -1.00000000000000000 
1 79.00000000000000000 0.00000000000000000 0.00000000000000000 -1.00000000000000000 
1 2.00000000000000000 0.00000000000000000 0.00000000000000000 -1.00000000000000000 
1 0.00000000000000000 0.00000000000000000 1.00000000000000000 0.00000000000000000 
1 0.00000000000000000 -10.00000000000000000 1.00000000000000000 0.00000000000000000 
1 15.00000000000000000 -27.00000000000000000 0.00000000000000000 -1.00000000000000000 
1 0.00000000000000000 0.00000000000000000 1.00000000000000000 0.00000000000000000 
1 0.00000000000000000 -1.00000000000000000 1.00000000000000000 0.00000000000000000 
1 1.50000000000000000 10.00000000000000000 0.00000000000000000 -1.00000000000000000 
1 25.00000000000000000 -10.00000000000000000 -1.00000000000000000 0.00000000000000000 
1 15.00000000000000000 -29.00000000000000000 -1.00000000000000000 0.00000000000000000 
1 0.00000000000000000 0.00000000000000000 1.00000000000000000 0.00000000000000000 
1 0.00000000000000000 -10.00000000000000000 1.00000000000000000 0.00000000000000000 
1 -15.00000000000000000 -29.00000000000000000 0.00000000000000000 1.00000000000000000 
1 0.00000000000000000 0.00000000000000000 0.00000000000000000 -1.00000000000000000 
1 20.00000000000000000 0.00000000000000000 0.00000000000000000 -1.00000000000000000 
1 0.00000000000000000 0.00000000000000000 0.00000000000000000 -1.00000000000000000 
1 3.00000000000000000 0.00000000000000000 0.00000000000000000 -1.00000000000000000 
1 3.00000000000000000 0.00000000000000000 0.00000000000000000 -1.00000000000000000 
1 0.00000000000000000 0.00000000000000000 0.00000000000000000 -1.00000000000000000 
1 20.00000000000000000 0.00000000000000000 0.00000000000000000 -1.00000000000000000 
1 0.00000000000000000 0.00000000000000000 0.00000000000000000 -1.00000000000000000 
1 0.00000000000000000 0.00000000000000000 0.00000000000000000 -1.00000000000000000 
Curves 48
1 50.00000000000000000 54.00000000000000000 7.00000000000000000 0.00000000000000000 -1.00000000000000000 0.00000000000000022 
8 0.14142135623730839 0.56568542494923224
1 50.00000000000000000 53.39999999999999147 6.89999999999999769 0.00000000000000000 -0.70710678118654435 0.70710678118655068 
1 50.00000000000000000 7.00000000000000000 0.00000000000000000 0.00000000000000000 1.00000000000000000 0.00000000000000000 
1 50.00000000000000000 54.00000000000000000 10.00000000000000000 0.00000000000000000 -1.00000000000000000 0.00000000000000022 
8 -0.91923881554251852 -0.49497474683059151
1 50.00000000000000000 52.64999999999999858 9.34999999999999076 -0.00000000000000000 -0.70710678118654335 -0.70710678118655168 
1 70.00000000000000000 54.00000000000000000 7.00000000000000000 0.00000000000000000 -1.00000000000000000 0.00000000000000022 
1 70.00000000000000000 53.29999999999999716 7.00000000000000000 -1.00000000000000000 0.00000000000000000 0.00000000000000000 
1 70.00000000000000000 7.00000000000000000 0.00000000000000000 -1.00000000000000000 0.00000000000000000 0.00000000000000000 
8 -0.91923881554251796 -0.49497474683059406
1 70.00000000000000000 52.64999999999999147 7.65000000000000480 -0.00000000000000000 -0.70710678118654435 0.70710678118655068 
1 70.00000000000000000 53.00000000000000000 7.29999999999999982 -1.00000000000000000 0.00000000000000000 0.00000000000000000 
1 45.00000000000000000 54.00000000000000000 0.00000000000000000 0.00000000000000000 0.00000000000000000 1.00000000000000000 
1 75.00000000000000000 54.00000000000000000 0.00000000000000000 -1.00000000000000000 0.00000000000000000 0.00000000000000000 
1 70.00000000000000000 10.00000000000000000 0.00000000000000000 0.00000000000000000 -1.00000000000000000 0.00000000000000000 
1 75.00000000000000000 54.00000000000000000 0.00000000000000000 0.00000000000000000 0.00000000000000000 1.00000000000000000 
1 0.00000000000000000 54.00000000000000000 0.00000000000000000 1.00000000000000000 0.00000000000000000 0.00000000000000000 
1 50.00000000000000000 53.00000000000000000 9.69999999999999929 1.00000000000000000 0.00000000000000000 0.00000000000000000 
1 50.00000000000000000 53.29999999999999716 10.00000000000000000 1.00000000000000000 0.00000000000000000 0.00000000000000000 
1 50.00000000000000000 10.00000000000000000 0.00000000000000000 1.00000000000000000 0.00000000000000000 0.00000000000000000 
1 70.00000000000000000 54.00000000000000000 10.00000000000000000 0.00000000000000000 -1.00000000000000000 0.00000000000000022 
8 0.14142135623730900 0.56568542494923602
1 70.00000000000000000 53.39999999999999858 10.09999999999999964 0.00000000000000000 -0.70710678118654335 -0.70710678118655168 
1 45.00000000000000000 56.00000000000000000 0.00000000000000000 0.00000000000000000 0.00000000000000000 1.00000000000000000 
1 45.00000000000000000 54.00000000000000000 0.00000000000000000 0.00000000000000000 1.00000000000000000 0.00000000000000000 
1 45.00000000000000000 56.00000000000000000 0.00000000000000000 1.00000000000000000 0.00000000000000000 0.00000000000000000 
1 75.00000000000000000 56.00000000000000000 0.00000000000000000 0.00000000000000000 -1.00000000000000000 0.00000000000000000 
1 75.00000000000000000 56.00000000000000000 0.00000000000000000 0.00000000000000000 0.00000000000000000 1.00000000000000000 
1 124.00000000000000000 54.00000000000000000 0.00000000000000000 0.00000000000000000 -1.00000000000000000 0.00000000000000000 
1 124.00000000000000000 0.00000000000000000 0.00000000000000000 -1.00000000000000000 0.00000000000000000 0.00000000000000000 
1 0.00000000000000000 0.00000000000000000 0.00000000000000000 0.00000000000000000 1.00000000000000000 0.00000000000000000 
1 0.00000000000000000 54.00000000000000000 0.00000000000000000 0.00000000000000000 0.00000000000000000 1.00000000000000000 
1 124.00000000000000000 54.00000000000000000 0.00000000000000000 0.00000000000000000 0.00000000000000000 1.00000000000000000 
1 124.00000000000000000 0.00000000000000000 0.00000000000000000 0.00000000000000000 0.00000000000000000 1.00000000000000000 
1 75.00000000000000000 0.00000000000000000 0.00000000000000000 0.00000000000000000 0.00000000000000000 1.00000000000000000 
1 45.00000000000000000 0.00000000000000000 0.00000000000000000 1.00000000000000000 0.00000000000000000 0.00000000000000000 
1 -70.00000000000000000 7.00000000000000000 0.00000000000000000 0.00000000000000000 1.00000000000000000 0.00000000000000000 
1 -50.00000000000000000 7.00000000000000000 0.00000000000000000 -1.00000000000000000 0.00000000000000000 0.00000000000000000 
1 -50.00000000000000000 10.00000000000000000 0.00000000000000000 0.00000000000000000 -1.00000000000000000 0.00000000000000000 
1 45.00000000000000000 0.00000000000000000 0.00000000000000000 0.00000000000000000 0.00000000000000000 1.00000000000000000 
1 0.00000000000000000 0.00000000000000000 0.00000000000000000 0.00000000000000000 0.00000000000000000 1.00000000000000000 
1 75.00000000000000000 -2.00000000000000000 0.00000000000000000 0.00000000000000000 0.00000000000000000 1.00000000000000000 
1 75.00000000000000000 0.00000000000000000 0.00000000000000000 0.00000000000000000 -1.00000000000000000 0.00000000000000000 
1 -70.00000000000000000 10.00000000000000000 0.00000000000000000 1.00000000000000000 0.00000000000000000 0.00000000000000000 
1 75.00000000000000000 -2.00000000000000000 0.00000000000000000 -1.00000000000000000 0.00000000000000000 0.00000000000000000 
1 45.00000000000000000 -2.00000000000000000 0.00000000000000000 0.00000000000000000 1.00000000000000000 0.00000000000000000 
1 70.00000000000000000 0.00000000000000155 7.00000000000000000 0.00000000000000000 1.00000000000000000 -0.00000000000000022 
1 70.00000000000000000 0.00000000000000222 10.00000000000000000 0.00000000000000000 1.00000000000000000 -0.00000000000000022 
1 50.00000000000000000 0.00000000000000155 7.00000000000000000 0.00000000000000000 1.00000000000000000 -0.00000000000000022 
1 50.00000000000000000 0.00000000000000222 10.00000000000000000 0.00000000000000000 1.00000000000000000 -0.00000000000000022 
1 45.00000000000000000 -2.00000000000000000 0.00000000000000000 0.00000000000000000 0.00000000000000000 1.00000000000000000 
Polygon3D 0
PolygonOnTriangulations 0
Surfaces 29
1 50.00000000000000000 54.00000000000000000 7.00000000000000000 -1.00000000000000000 0.00000000000000000 0.00000000000000000 0.00000000000000000 0.00000000000000022 1.00000000000000000 0.00000000000000000 1.00000000000000000 -0.00000000000000022 
1 70.00000000000000000 54.00000000000000000 7.00000000000000000 -0.00000000000000000 -0.00000000000000022 -1.00000000000000000 -1.00000000000000000 0.00000000000000000 0.00000000000000000 0.00000000000000000 1.00000000000000000 -0.00000000000000022 
1 70.00000000000000000 53.14999999999999858 7.15000000000000036 0.00000000000000000 0.70710678118655068 0.70710678118654435 -1.00000000000000000 0.00000000000000000 0.00000000000000000 0.00000000000000000 -0.70710678118654435 0.70710678118655068 
1 60.00000000000000000 54.00000000000000000 8.50000000000000000 0.00000000000000000 1.00000000000000000 0.00000000000000000 0.00000000000000000 -0.00000000000000000 1.00000000000000000 1.00000000000000000 0.00000000000000000 -0.00000000000000000 
1 75.00000000000000000 54.00000000000000000 0.00000000000000000 0.00000000000000000 -1.00000000000000000 0.00000000000000000 -1.00000000000000000 0.00000000000000000 0.00000000000000000 -0.00000000000000000 -0.00000000000000000 -1.00000000000000000 
1 50.00000000000000000 54.00000000000000000 10.00000000000000000 -0.00000000000000000 0.00000000000000022 1.00000000000000000 1.00000000000000000 0.00000000000000000 0.00000000000000000 0.00000000000000000 1.00000000000000000 -0.00000000000000022 
1 50.00000000000000000 53.14999999999999858 9.84999999999999964 0.00000000000000000 0.70710678118655168 -0.70710678118654335 1.00000000000000000 -0.00000000000000000 0.00000000000000000 0.00000000000000000 -0.70710678118654335 -0.70710678118655168 
1 70.00000000000000000 54.00000000000000000 10.00000000000000000 1.00000000000000000 0.00000000000000000 0.00000000000000000 0.00000000000000000 -0.00000000000000022 -1.00000000000000000 0.00000000000000000 1.00000000000000000 -0.00000000000000022 
1 45.00000000000000000 54.00000000000000000 0.00000000000000000 -1.00000000000000000 0.00000000000000000 0.00000000000000000 0.00000000000000000 1.00000000000000000 0.00000000000000000 0.00000000000000000 0.00000000000000000 -1.00000000000000000 
1 60.00000000000000000 27.00000000000000000 0.00000000000000000 0.00000000000000000 0.00000000000000000 1.00000000000000000 1.00000000000000000 0.00000000000000000 -0.00000000000000000 -0.00000000000000000 1.00000000000000000 0.00000000000000000 
1 0.00000000000000000 54.00000000000000000 0.00000000000000000 0.00000000000000000 1.00000000000000000 0.00000000000000000 1.00000000000000000 0.00000000000000000 0.00000000000000000 0.00000000000000000 0.00000000000000000 -1.00000000000000000 
1 75.00000000000000000 56.00000000000000000 0.00000000000000000 1.00000000000000000 0.00000000000000000 -0.00000000000000000 0.00000000000000000 -1.00000000000000000 0.00000000000000000 0.00000000000000000 -0.00000000000000000 -1.00000000000000000 
1 62.00000000000000000 27.00000000000000000 0.00000000000000000 0.00000000000000000 0.00000000000000000 1.00000000000000000 1.00000000000000000 0.00000000000000000 -0.00000000000000000 -0.00000000000000000 1.00000000000000000 0.00000000000000000 
1 62.00000000000000000 27.00000000000000000 0.00000000000000000 0.00000000000000000 0.00000000000000000 1.00000000000000000 1.00000000000000000 0.00000000000000000 -0.00000000000000000 -0.00000000000000000 1.00000000000000000 0.00000000000000000 
1 124.00000000000000000 0.00000000000000000 0.00000000000000000 0.00000000000000000 -1.00000000000000000 0.00000000000000000 -1.00000000000000000 0.00000000000000000 0.00000000000000000 -0.00000000000000000 -0.00000000000000000 -1.00000000000000000 
1 124.00000000000000000 0.00000000000000000 0.00000000000000000 0.00000000000000000 -1.00000000000000000 0.00000000000000000 -1.00000000000000000 0.00000000000000000 0.00000000000000000 -0.00000000000000000 -0.00000000000000000 -1.00000000000000000 
1 45.00000000000000000 0.00000000000000000 0.00000000000000000 0.00000000000000000 1.00000000000000000 0.00000000000000000 1.00000000000000000 0.00000000000000000 0.00000000000000000 0.00000000000000000 0.00000000000000000 -1.00000000000000000 
1 45.00000000000000000 56.00000000000000000 0.00000000000000000 0.00000000000000000 1.00000000000000000 0.00000000000000000 1.00000000000000000 0.00000000000000000 0.00000000000000000 0.00000000000000000 0.00000000000000000 -1.00000000000000000 
1 124.00000000000000000 54.00000000000000000 0.00000000000000000 1.00000000000000000 0.00000000000000000 -0.00000000000000000 0.00000000000000000 -1.00000000000000000 0.00000000000000000 0.00000000000000000 -0.00000000000000000 -1.00000000000000000 
1 75.00000000000000000 0.00000000000000000 0.00000000000000000 1.00000000000000000 0.00000000000000000 -0.00000000000000000 0.00000000000000000 -1.00000000000000000 0.00000000000000000 0.00000000000000000 -0.00000000000000000 -1.00000000000000000 
1 60.00000000000000000 27.00000000000000000 0.00000000000000000 0.00000000000000000 0.00000000000000000 1.00000000000000000 1.00000000000000000 0.00000000000000000 -0.00000000000000000 -0.00000000000000000 1.00000000000000000 0.00000000000000000 
1 70.00000000000000000 0.00000000000000155 7.00000000000000000 1.00000000000000000 -0.00000000000000000 0.00000000000000000 0.00000000000000000 0.00000000000000022 1.00000000000000000 -0.00000000000000000 -1.00000000000000000 0.00000000000000022 
1 60.00000000000000000 0.00000000000000189 8.50000000000000000 0.00000000000000000 1.00000000000000000 -0.00000000000000022 0.00000000000000000 0.00000000000000022 1.00000000000000000 1.00000000000000000 -0.00000000000000000 0.00000000000000000 
1 50.00000000000000000 0.00000000000000155 7.00000000000000000 0.00000000000000000 -0.00000000000000022 -1.00000000000000000 1.00000000000000000 0.00000000000000000 0.00000000000000000 0.00000000000000000 -1.00000000000000000 0.00000000000000022 
1 50.00000000000000000 0.00000000000000222 10.00000000000000000 -1.00000000000000000 0.00000000000000000 -0.00000000000000000 0.00000000000000000 -0.00000000000000022 -1.00000000000000000 -0.00000000000000000 -1.00000000000000000 0.00000000000000022 
1 45.00000000000000000 -2.00000000000000000 0.00000000000000000 -1.00000000000000000 0.00000000000000000 0.00000000000000000 0.00000000000000000 1.00000000000000000 0.00000000000000000 0.00000000000000000 0.00000000000000000 -1.00000000000000000 
1 0.00000000000000000 0.00000000000000000 0.00000000000000000 -1.00000000000000000 0.00000000000000000 0.00000000000000000 0.00000000000000000 1.00000000000000000 0.00000000000000000 0.00000000000000000 0.00000000000000000 -1.00000000000000000 
1 70.00000000000000000 0.00000000000000222 10.00000000000000000 0.00000000000000000 0.00000000000000022 1.00000000000000000 -1.00000000000000000 0.00000000000000000 0.00000000000000000 0.00000000000000000 -1.00000000000000000 0.00000000000000022 
1 75.00000000000000000 -2.00000000000000000 0.00000000000000000 0.00000000000000000 -1.00000000000000000 0.00000000000000000 -1.00000000000000000 0.00000000000000000 0.00000000000000000 -0.00000000000000000 -0.00000000000000000 -1.00000000000000000 
Triangulations 0

TShapes 164
Ve
0.000000100000000
50.000000000000000 53.299999999999997 7.000000000000003
0 0

0101101
*
Ve
0.000000100000000
50.000000000000000 7.000000000000000 0.000000000000000
0 0

0101101
*
Ed
 0.000000100000000 1 1 0
1  1 0 0.000000000000000 0.700000000000003
2  1 1 0 0.000000000000000 0.700000000000003
2  2 2 0 0.000000000000000 0.700000000000003
0

0101000
-164 6 +163 10 *
Ve
0.000000100000000
50.000000000000000 53.000000000000000 7.299999999999998
0 0

0101101
*
Ed
 0.000000100000000 1 1 0
1  2 0 0.141421356237308 0.565685424949232
2  3 3 0 0.141421356237308 0.565685424949232
2  4 1 2 0.141421356237308 0.565685424949232
0

0101000
+164 0 -161 0 *
Ve
0.000000100000000
50.000000000000000 10.000000000000000 0.000000000000000
0 0

0101101
*
Ed
 0.000000100000000 1 1 0
1  3 0 0.000000000000000 3.000000000000000
2  5 1 12 0.000000000000000 3.000000000000000
2  6 1 14 0.000000000000000 3.000000000000000
2  7 4 15 0.000000000000000 3.000000000000000
2  8 5 17 0.000000000000000 3.000000000000000
0

0101000
+163 0 -159 0 *
Ve
0.000000100000000
50.000000000000000 53.000000000000000 9.700000000000001
0 0

0101101
*
Ed
 0.000000100000000 1 1 0
1  3 0 0.299999999999998 2.700000000000001
2  5 1 12 0.299999999999998 2.700000000000001
2  6 1 14 0.299999999999998 2.700000000000001
2  7 4 15 0.299999999999998 2.700000000000001
2  8 5 17 0.299999999999998 2.700000000000001
0

0101000
+161 19 -157 19 *
Ve
0.000000100000000
50.000000000000000 53.299999999999997 10.000000000000004
0 0

0101101
*
Ed
 0.000000100000000 1 1 0
1  4 0 0.000000000000000 0.700000000000003
2  9 6 0 0.000000000000000 0.700000000000003
2  10 1 0 0.000000000000000 0.700000000000003
0

0101000
-155 6 +159 10 *
Ed
 0.000000100000000 1 1 0
1  5 0 -0.919238815542519 -0.494974746830592
2  11 7 0 -0.919238815542519 -0.494974746830592
2  12 1 2 -0.919238815542519 -0.494974746830592
0

0101000
+155 0 -157 0 *
Wi

0101100
+162 2 +160 0 -158 11 +156 18 -154 2 -153 0 *
Fa
0  0.000000100000000 1 0

0101000
+152 6 *
Ve
0.000000100000000
70.000000000000000 53.299999999999997 7.000000000000003
0 0

0101101
*
Ve
0.000000100000000
70.000000000000000 7.000000000000000 0.000000000000000
0 0

0101101
*
Ed
 0.000000100000000 1 1 0
1  6 0 0.000000000000000 0.700000000000003
2  13 8 0 0.000000000000000 0.700000000000003
2  14 2 0 0.000000000000000 0.700000000000003
0

0101000
-150 6 +149 10 *
Ed
 0.000000100000000 1 1 0
1  7 0 0.000000000000000 20.000000000000000
2  15 3 0 0.000000000000000 20.000000000000000
2  16 2 2 0.000000000000000 20.000000000000000
0

0101000
+150 0 -164 0 *
Ed
 0.000000100000000 1 1 0
1  8 0 0.000000000000000 20.000000000000000
2  17 4 15 0.000000000000000 20.000000000000000
2  18 2 12 0.000000000000000 20.000000000000000
2  19 2 14 0.000000000000000 20.000000000000000
2  20 5 17 0.000000000000000 20.000000000000000
0

0101000
+149 0 -163 0 *
Wi

0101100
+148 2 +147 0 -146 11 -162 2 *
Fa
0  0.000000100000000 2 0

0101000
+145 6 *
Ve
0.000000100000000
70.000000000000000 53.000000000000000 7.299999999999998
0 0

0101101
*
Ed
 0.000000100000000 1 1 0
1  9 0 -0.919238815542518 -0.494974746830594
2  21 3 0 -0.919238815542518 -0.494974746830594
2  22 8 2 -0.919238815542518 -0.494974746830594
0

0101000
+150 0 -143 0 *
Ed
 0.000000100000000 1 1 0
1  10 0 -0.000000000000000 20.000000000000000
2  23 3 0 -0.000000000000000 20.000000000000000
2  24 4 21 -0.000000000000000 20.000000000000000
0

0101000
+143 0 -161 0 *
Wi

0101100
-142 0 +147 0 -141 0 +160 0 *
Fa
0  0.000000000000000 3 0

0101000
+140 0 *
Ve
0.000000100000000
45.000000000000000 54.000000000000000 2.000000000000000
0 0

0101101
*
Ve
0.000000100000000
45.000000000000000 54.000000000000000 0.000000000000000
0 0

0101101
*
Ed
 0.000000100000000 1 1 0
1  11 0 2.000000000000000 10.000000000000000
2  25 5 0 2.000000000000000 10.000000000000000
2  26 9 0 2.000000000000000 10.000000000000000
0

0101000
+138 0 -137 27 *
Ed
 0.000000100000000 1 1 0
1  12 0 25.000000000000000 30.000000000000000
2  27 5 29 25.000000000000000 30.000000000000000
2  28 5 30 25.000000000000000 30.000000000000000
2  29 10 31 25.000000000000000 30.000000000000000
2  30 11 33 25.000000000000000 30.000000000000000
0

0101000
+159 34 -137 0 *
Ve
0.000000100000000
70.000000000000000 10.000000000000000 0.000000000000000
0 0

0101101
*
Ed
 0.000000100000000 1 1 0
1  13 0 0.000000000000000 3.000000000000000
2  31 8 12 0.000000000000000 3.000000000000000
2  32 8 14 0.000000000000000 3.000000000000000
2  33 4 15 0.000000000000000 3.000000000000000
2  34 5 17 0.000000000000000 3.000000000000000
0

0101000
+134 0 -149 0 *
Ve
0.000000100000000
75.000000000000000 54.000000000000000 0.000000000000000
0 0

0101101
*
Ed
 0.000000100000000 1 1 0
1  12 0 0.000000000000000 5.000000000000000
2  27 5 29 0.000000000000000 5.000000000000000
2  28 5 30 0.000000000000000 5.000000000000000
2  29 10 31 0.000000000000000 5.000000000000000
2  30 11 33 0.000000000000000 5.000000000000000
0

0101000
+132 0 -134 34 *
Ve
0.000000100000000
75.000000000000000 54.000000000000000 2.000000000000000
0 0

0101101
*
Ed
 0.000000100000000 1 1 0
1  14 0 2.000000000000000 10.000000000000000
2  35 12 0 2.000000000000000 10.000000000000000
2  36 5 0 2.000000000000000 10.000000000000000
0

0101000
+130 0 -132 27 *
Ed
 0.000000100000000 1 1 0
1  15 0 45.000000000000000 75.000000000000000
2  37 13 41 45.000000000000000 75.000000000000000
2  38 14 42 45.000000000000000 75.000000000000000
2  39 11 43 45.000000000000000 75.000000000000000
2  40 11 44 45.000000000000000 75.000000000000000
2  41 5 45 45.000000000000000 75.000000000000000
0

0101000
+138 45 -130 45 *
Wi

0101100
-136 22 +135 28 +158 10 +146 10 +133 10 +131 28 +129 22 +128 39 *
Fa
0  0.000000100000000 5 22

0101000
+127 0 *
Ve
0.000000100000000
70.000000000000000 53.000000000000000 9.700000000000001
0 0

0101101
*
Ed
 0.000000100000000 1 1 0
1  13 0 0.299999999999999 2.700000000000002
2  31 8 12 0.299999999999999 2.700000000000002
2  32 8 14 0.299999999999999 2.700000000000002
2  33 4 15 0.299999999999999 2.700000000000002
2  34 5 17 0.299999999999999 2.700000000000002
0

0101000
+125 19 -143 19 *
Ed
 0.000000100000000 1 1 0
1  16 0 -0.000000000000000 20.000000000000000
2  42 7 0 -0.000000000000000 20.000000000000000
2  43 4 21 -0.000000000000000 20.000000000000000
0

0101000
+157 0 -125 0 *
Wi

0101100
+124 18 +123 0 +141 0 +156 18 *
Fa
0  0.000000100000000 4 0

0101000
+122 47 *
Ve
0.000000100000000
70.000000000000000 53.299999999999997 10.000000000000004
0 0

0101101
*
Ed
 0.000000100000000 1 1 0
1  17 0 0.000000000000000 20.000000000000000
2  44 7 0 0.000000000000000 20.000000000000000
2  45 6 2 0.000000000000000 20.000000000000000
0

0101000
+155 0 -120 0 *
Ed
 0.000000100000000 1 1 0
1  18 0 0.000000000000000 20.000000000000000
2  46 6 12 0.000000000000000 20.000000000000000
2  47 6 14 0.000000000000000 20.000000000000000
2  48 4 15 0.000000000000000 20.000000000000000
2  49 5 17 0.000000000000000 20.000000000000000
0

0101000
+159 0 -134 0 *
Ed
 0.000000100000000 1 1 0
1  19 0 0.000000000000000 0.700000000000003
2  50 6 0 0.000000000000000 0.700000000000003
2  51 8 0 0.000000000000000 0.700000000000003
0

0101000
-120 6 +134 10 *
Wi

0101100
+154 2 +119 0 -118 11 -117 2 *
Fa
0  0.000000100000000 6 0

0101000
+116 6 *
Ed
 0.000000100000000 1 1 0
1  20 0 0.141421356237309 0.565685424949236
2  52 7 0 0.141421356237309 0.565685424949236
2  53 8 2 0.141421356237309 0.565685424949236
0

0101000
+120 0 -125 0 *
Wi

0101100
-153 0 +119 0 -123 0 +114 0 *
Fa
0  0.000000000000000 7 0

0101000
+113 0 *
Wi

0101100
+117 2 +114 0 -133 11 +124 18 -148 2 -142 0 *
Fa
0  0.000000100000000 8 0

0101000
+111 6 *
Ed
 0.000000100000000 1 1 0
1  11 0 0.000000000000000 2.000000000000000
2  25 5 0 0.000000000000000 2.000000000000000
2  26 9 0 0.000000000000000 2.000000000000000
2  54 11 49 0.000000000000000 2.000000000000000
0

0101000
+137 50 -138 0 *
Ve
0.000000100000000
45.000000000000000 56.000000000000000 0.000000000000000
0 0

0101101
*
Ed
 0.000000100000000 1 1 0
1  21 0 0.000000000000000 10.000000000000000
2  55 9 0 0.000000000000000 10.000000000000000
0

0101000
+108 50 -108 27 *
Ed
 0.000000100000000 1 1 0
1  22 0 0.000000000000000 2.000000000000000
2  56 9 29 0.000000000000000 2.000000000000000
2  57 9 30 0.000000000000000 2.000000000000000
2  58 10 31 0.000000000000000 2.000000000000000
0

0101000
+137 0 -108 0 *
Wi

0101100
+109 0 +136 0 -107 0 -106 50 +106 27 *
Fa
0  0.000000100000000 9 0

0101000
+105 0 *
Ve
0.000000100000000
75.000000000000000 56.000000000000000 0.000000000000000
0 0

0101101
*
Ed
 0.000000100000000 1 1 0
1  23 0 0.000000000000000 30.000000000000000
2  59 10 31 0.000000000000000 30.000000000000000
0

0101000
+108 0 -103 0 *
Ed
 0.000000100000000 1 1 0
1  24 0 0.000000000000000 2.000000000000000
2  60 12 29 0.000000000000000 2.000000000000000
2  61 12 30 0.000000000000000 2.000000000000000
2  62 10 31 0.000000000000000 2.000000000000000
0

0101000
+103 0 -132 0 *
Wi

0101100
+102 28 +101 28 +131 28 -118 10 +135 28 +106 28 *
Fa
0  0.000000100000000 10 51

0101000
-100 0 *
Ed
 0.000000100000000 1 1 0
1  25 0 0.000000000000000 10.000000000000000
2  63 12 0 0.000000000000000 10.000000000000000
0

0101000
+103 50 -103 27 *
Ed
 0.000000100000000 1 1 0
1  14 0 0.000000000000000 2.000000000000000
2  35 12 0 0.000000000000000 2.000000000000000
2  36 5 0 0.000000000000000 2.000000000000000
2  64 11 49 0.000000000000000 2.000000000000000
0

0101000
+132 50 -130 0 *
Wi

0101100
+98 0 -97 0 -129 0 -101 50 +101 27 *
Fa
0  0.000000100000000 12 0

0101000
+96 0 *
Ve
0.000000100000000
0.000000000000000 54.000000000000000 0.000000000000000
0 0

0101101
*
Ed
 0.000000100000000 1 1 0
1  15 0 0.000000000000000 45.000000000000000
2  37 13 41 0.000000000000000 45.000000000000000
2  38 14 42 0.000000000000000 45.000000000000000
2  39 11 43 0.000000000000000 45.000000000000000
2  40 11 44 0.000000000000000 45.000000000000000
0

0101000
+94 0 -138 45 *
Ve
0.000000100000000
124.000000000000000 54.000000000000000 0.000000000000000
0 0

0101101
*
Ed
 0.000000100000000 1 1 0
1  15 0 75.000000000000000 124.000000000000000
2  37 13 41 75.000000000000000 124.000000000000000
2  38 14 42 75.000000000000000 124.000000000000000
2  39 11 43 75.000000000000000 124.000000000000000
2  40 11 44 75.000000000000000 124.000000000000000
0

0101000
+130 45 -92 0 *
Ve
0.000000100000000
124.000000000000000 0.000000000000000 0.000000000000000
0 0

0101101
*
Ed
 0.000000100000000 1 1 0
1  26 0 0.000000000000000 54.000000000000000
2  65 13 41 0.000000000000000 54.000000000000000
2  66 14 42 0.000000000000000 54.000000000000000
0

0101000
+92 0 -90 0 *
Ve
0.000000100000000
75.000000000000000 0.000000000000000 2.000000000000000
0 0

0101101
*
Ed
 0.000000100000000 1 1 0
1  27 0 0.000000000000000 49.000000000000000
2  67 15 55 0.000000000000000 49.000000000000000
2  68 15 57 0.000000000000000 49.000000000000000
2  69 13 41 0.000000000000000 49.000000000000000
2  70 16 43 0.000000000000000 49.000000000000000
2  71 16 44 0.000000000000000 49.000000000000000
2  72 14 42 0.000000000000000 49.000000000000000
0

0101000
+90 0 -88 45 *
Ve
0.000000100000000
45.000000000000000 0.000000000000000 2.000000000000000
0 0

0101101
*
Ed
 0.000000100000000 1 1 0
1  27 0 49.000000000000000 79.000000000000000
2  67 15 55 49.000000000000000 79.000000000000000
2  68 15 57 49.000000000000000 79.000000000000000
2  69 13 41 49.000000000000000 79.000000000000000
2  70 16 43 49.000000000000000 79.000000000000000
2  71 16 44 49.000000000000000 79.000000000000000
2  72 14 42 49.000000000000000 79.000000000000000
2  73 17 45 49.000000000000000 79.000000000000000
0

0101000
+88 45 -86 45 *
Ve
0.000000100000000
0.000000000000000 0.000000000000000 0.000000000000000
0 0

0101101
*
Ed
 0.000000100000000 1 1 0
1  27 0 79.000000000000000 124.000000000000000
2  67 15 55 79.000000000000000 124.000000000000000
2  68 15 57 79.000000000000000 124.000000000000000
2  69 13 41 79.000000000000000 124.000000000000000
2  70 16 43 79.000000000000000 124.000000000000000
2  71 16 44 79.000000000000000 124.000000000000000
2  72 14 42 79.000000000000000 124.000000000000000
0

0101000
+86 45 -84 0 *
Ed
 0.000000100000000 1 1 0
1  28 0 0.000000000000000 54.000000000000000
2  74 13 41 0.000000000000000 54.000000000000000
2  75 14 42 0.000000000000000 54.000000000000000
0

0101000
+84 0 -94 0 *
Wi

0101100
+93 53 +128 53 +91 53 +89 53 +87 53 +85 53 +83 53 +82 53 *
Fa
0  0.000000100000000 14 52

0101000
-81 0 *
Ed
 0.000000100000000 1 1 0
1  15 0 0.000000000000000 45.000000000000000
2  37 13 41 0.000000000000000 45.000000000000000
2  38 14 42 0.000000000000000 45.000000000000000
2  39 11 43 0.000000000000000 45.000000000000000
2  40 11 44 0.000000000000000 45.000000000000000
0

0101000
+94 0 -137 59 *
Ed
 0.000000100000000 1 1 0
1  29 0 0.000000000000000 2.000000000000000
2  76 11 0 0.000000000000000 2.000000000000000
0

0101000
+94 60 -94 61 *
Wi

0101100
-79 58 -109 0 +93 53 +78 49 *
Fa
0  0.000000100000000 11 49

0101000
+77 0 *
Wi

0101100
+107 0 -98 0 -102 50 +102 27 *
Fa
0  0.000000100000000 18 0

0101000
+75 0 *
Ed
 0.000000100000000 1 1 0
1  12 0 0.000000000000000 30.000000000000000
2  27 5 29 0.000000000000000 30.000000000000000
2  28 5 30 0.000000000000000 30.000000000000000
2  29 10 31 0.000000000000000 30.000000000000000
2  30 11 33 0.000000000000000 30.000000000000000
0

0101000
+132 0 -137 0 *
Wi

0101100
+102 0 +101 0 +73 0 +106 0 *
Fa
0  0.000000100000000 10 0

0101000
-72 63 *
Ed
 0.000000100000000 1 1 0
1  15 0 75.000000000000000 124.000000000000000
2  37 13 41 75.000000000000000 124.000000000000000
2  38 14 42 75.000000000000000 124.000000000000000
2  39 11 43 75.000000000000000 124.000000000000000
2  40 11 44 75.000000000000000 124.000000000000000
0

0101000
+132 59 -92 0 *
Ed
 0.000000100000000 1 1 0
1  30 0 0.000000000000000 2.000000000000000
2  77 11 0 0.000000000000000 2.000000000000000
0

0101000
+92 60 -92 61 *
Wi

0101100
-70 58 -69 49 +91 53 +97 0 *
Fa
0  0.000000100000000 11 49

0101000
+68 0 *
Ed
 0.000000100000000 1 1 0
1  31 0 0.000000000000000 2.000000000000000
2  78 16 0 0.000000000000000 2.000000000000000
0

0101000
+90 60 -90 61 *
Wi

0101100
+69 0 -66 0 -89 60 +89 61 *
Fa
0  0.000000100000000 19 0

0111000
+65 0 *
Ve
0.000000100000000
75.000000000000000 0.000000000000000 0.000000000000000
0 0

0101101
*
Ed
 0.000000100000000 1 1 0
1  27 0 0.000000000000000 49.000000000000000
2  67 15 55 0.000000000000000 49.000000000000000
2  68 15 57 0.000000000000000 49.000000000000000
2  69 13 41 0.000000000000000 49.000000000000000
2  70 16 43 0.000000000000000 49.000000000000000
2  71 16 44 0.000000000000000 49.000000000000000
2  72 14 42 0.000000000000000 49.000000000000000
0

0101000
+90 0 -63 59 *
Ed
 0.000000100000000 1 1 0
1  32 0 0.000000000000000 2.000000000000000
2  79 17 0 0.000000000000000 2.000000000000000
2  80 20 0 0.000000000000000 2.000000000000000
2  81 16 49 0.000000000000000 2.000000000000000
0

0101000
+63 50 -88 0 *
Wi

0101100
-62 58 -61 0 +87 53 +66 49 *
Fa
0  0.000000100000000 16 49

0101000
+60 0 *
Ed
 0.000000100000000 1 1 0
1  32 0 2.000000000000000 10.000000000000000
2  79 17 0 2.000000000000000 10.000000000000000
2  80 20 0 2.000000000000000 10.000000000000000
0

0101000
+88 0 -63 27 *
Ve
0.000000100000002
-70.000000000000000 10.000000000000000 0.000000000000000
0 0

0101101
*
Ed
 0.000000100000000 1 1 0
1  33 0 25.000000000000000 30.000000000000000
2  82 17 29 25.000000000000000 30.000000000000000
2  83 17 30 25.000000000000000 30.000000000000000
2  84 21 31 25.000000000000000 30.000000000000000
2  85 16 33 25.000000000000000 30.000000000000000
0

0101000
+57 68 -63 0 *
Ve
0.000000100000002
-70.000000000000000 7.000000000000000 0.000000000000000
0 0

0101101
*
Ed
 0.000000100000002 1 1 0
1  34 0 0.000000000000000 3.000000000000000
2  86 22 70 0.000000000000000 3.000000000000000
2  87 22 72 0.000000000000000 3.000000000000000
2  88 23 73 0.000000000000000 3.000000000000000
2  89 17 74 0.000000000000000 3.000000000000000
0

0101000
+55 0 -57 0 *
Ve
0.000000100000002
-50.000000000000000 7.000000000000000 0.000000000000000
0 0

0101101
*
Ed
 0.000000100000002 1 1 0
1  35 0 0.000000000000000 20.000000000000000
2  90 23 73 0.000000000000000 20.000000000000000
2  91 24 70 0.000000000000000 20.000000000000000
2  92 24 72 0.000000000000000 20.000000000000000
2  93 17 74 0.000000000000000 20.000000000000000
0

0101000
+53 0 -55 0 *
Ve
0.000000100000002
-50.000000000000000 10.000000000000000 0.000000000000000
0 0

0101101
*
Ed
 0.000000100000002 1 1 0
1  36 0 0.000000000000000 3.000000000000000
2  94 25 70 0.000000000000000 3.000000000000000
2  95 25 72 0.000000000000000 3.000000000000000
2  96 23 73 0.000000000000000 3.000000000000000
2  97 17 74 0.000000000000000 3.000000000000000
0

0101000
+51 0 -53 0 *
Ve
0.000000100000000
45.000000000000000 0.000000000000000 0.000000000000000
0 0

0101101
*
Ed
 0.000000100000000 1 1 0
1  33 0 0.000000000000000 5.000000000000000
2  82 17 29 0.000000000000000 5.000000000000000
2  83 17 30 0.000000000000000 5.000000000000000
2  84 21 31 0.000000000000000 5.000000000000000
2  85 16 33 0.000000000000000 5.000000000000000
0

0101000
+49 0 -51 68 *
Ed
 0.000000100000000 1 1 0
1  37 0 2.000000000000000 10.000000000000000
2  98 17 0 2.000000000000000 10.000000000000000
2  99 26 0 2.000000000000000 10.000000000000000
0

0101000
+86 0 -49 27 *
Wi

0101100
-58 48 +56 65 +54 69 +52 69 +50 69 +48 65 +47 48 +85 75 *
Fa
0  0.000000100000000 17 48

0101000
+46 0 *
Ed
 0.000000100000000 1 1 0
1  27 0 79.000000000000000 124.000000000000000
2  67 15 55 79.000000000000000 124.000000000000000
2  68 15 57 79.000000000000000 124.000000000000000
2  69 13 41 79.000000000000000 124.000000000000000
2  70 16 43 79.000000000000000 124.000000000000000
2  71 16 44 79.000000000000000 124.000000000000000
2  72 14 42 79.000000000000000 124.000000000000000
0

0101000
+49 59 -84 0 *
Ed
 0.000000100000000 1 1 0
1  38 0 0.000000000000000 2.000000000000000
2  100 16 0 0.000000000000000 2.000000000000000
0

0101000
+84 60 -84 61 *
Ed
 0.000000100000000 1 1 0
1  37 0 0.000000000000000 2.000000000000000
2  98 17 0 0.000000000000000 2.000000000000000
2  99 26 0 0.000000000000000 2.000000000000000
2  101 16 49 0.000000000000000 2.000000000000000
0

0101000
+49 50 -86 0 *
Wi

0101100
-44 58 -43 49 +83 53 +42 0 *
Fa
0  0.000000100000000 16 49

0101000
+41 0 *
Wi

0101100
+43 0 -78 0 -82 60 +82 61 *
Fa
0  0.000000100000000 27 0

0111000
+39 0 *
Ed
 0.000000100000000 1 1 0
1  33 0 0.000000000000000 30.000000000000000
2  82 17 29 0.000000000000000 30.000000000000000
2  83 17 30 0.000000000000000 30.000000000000000
2  84 21 31 0.000000000000000 30.000000000000000
2  85 16 33 0.000000000000000 30.000000000000000
0

0101000
+49 0 -63 0 *
Wi

0101100
+79 58 -73 50 +70 58 +89 58 +62 58 -37 50 +44 58 +82 58 *
Fa
0  0.000000100000000 14 76

0101000
-36 0 *
Ve
0.000000100000000
75.000000000000000 -2.000000000000000 0.000000000000000
0 0

0101101
*
Ed
 0.000000100000000 1 1 0
1  39 0 0.000000000000000 10.000000000000000
2  102 20 0 0.000000000000000 10.000000000000000
0

0101000
+34 50 -34 27 *
Ed
 0.000000100000000 1 1 0
1  40 0 0.000000000000000 2.000000000000000
2  103 20 29 0.000000000000000 2.000000000000000
2  104 20 30 0.000000000000000 2.000000000000000
2  105 21 31 0.000000000000000 2.000000000000000
0

0101000
+63 0 -34 0 *
Wi

0101100
+61 0 +58 0 -33 0 -32 50 +32 27 *
Fa
0  0.000000100000000 20 0

0101000
+31 0 *
Ed
 0.000000100000002 1 1 0
1  41 0 0.000000000000000 20.000000000000000
2  106 28 70 0.000000000000000 20.000000000000000
2  107 28 72 0.000000000000000 20.000000000000000
2  108 23 73 0.000000000000000 20.000000000000000
2  109 17 74 0.000000000000000 20.000000000000000
0

0101000
+57 0 -51 0 *
Ve
0.000000100000000
45.000000000000000 -2.000000000000000 0.000000000000000
0 0

0101101
*
Ed
 0.000000100000000 1 1 0
1  42 0 0.000000000000000 30.000000000000000
2  110 21 31 0.000000000000000 30.000000000000000
0

0101000
+34 0 -28 0 *
Ed
 0.000000100000000 1 1 0
1  43 0 0.000000000000000 2.000000000000000
2  111 26 29 0.000000000000000 2.000000000000000
2  112 26 30 0.000000000000000 2.000000000000000
2  113 21 31 0.000000000000000 2.000000000000000
0

0101000
+28 0 -49 0 *
Wi

0101100
+48 65 -29 69 +56 65 +32 65 +27 65 +26 65 *
Fa
0  0.000000100000000 21 77

0101000
-25 0 *
Ed
 0.000000100000000 1 1 0
1  44 0 0.000000000000000 1.000000000000000
2  114 22 0 0.000000000000000 1.000000000000000
2  115 24 0 0.000000000000000 1.000000000000000
0

0101000
+55 69 -55 78 *
Ed
 0.000000100000000 1 1 0
1  45 0 0.000000000000000 1.000000000000000
2  116 28 0 0.000000000000000 1.000000000000000
2  117 22 0 0.000000000000000 1.000000000000000
0

0101000
+57 69 -57 78 *
Wi

0101100
+23 0 -22 0 -54 69 +54 78 *
Fa
0  0.000000100000000 22 0

0101000
+21 0 *
Ed
 0.000000100000000 1 1 0
1  46 0 0.000000000000000 1.000000000000000
2  118 25 0 0.000000000000000 1.000000000000000
2  119 24 0 0.000000000000000 1.000000000000000
0

0101000
+53 69 -53 78 *
Wi

0101100
+19 0 -23 0 -52 69 +52 78 *
Fa
0  0.000000100000000 24 0

0101000
+18 0 *
Ed
 0.000000100000000 1 1 0
1  47 0 0.000000000000000 1.000000000000000
2  120 28 0 0.000000000000000 1.000000000000000
2  121 25 0 0.000000000000000 1.000000000000000
0

0101000
+51 69 -51 78 *
Wi

0101100
+16 0 -19 0 -50 69 +50 78 *
Fa
0  0.000000100000000 25 0

0101000
+15 0 *
Ed
 0.000000100000000 1 1 0
1  48 0 0.000000000000000 10.000000000000000
2  122 26 0 0.000000000000000 10.000000000000000
0

0101000
+28 50 -28 27 *
Wi

0101100
+13 0 -42 0 -47 0 -26 50 +26 27 *
Fa
0  0.000000100000000 26 0

0101000
+12 0 *
Wi

0101100
+37 0 +32 0 +27 0 +26 0 *
Fa
0  0.000000100000000 21 0

0101000
-10 63 *
Wi

0101100
+33 0 -13 0 -27 50 +27 27 *
Fa
0  0.000000100000000 29 0

0101000
+8 0 *
Wi

0101100
+22 0 -16 0 -29 69 +29 78 *
Fa
0  0.000000100000000 28 0

0101000
+6 0 *
Wi

0101100
+29 0 +50 0 +52 0 +54 0 *
Fa
0  0.000000100000000 23 0

0101000
-4 80 *
Sh

0101100
+151 5 +144 5 -139 20 +126 5 -121 46 +115 5 -112 20 +110 5 +104 48 +99 5 
+95 48 +80 48 +76 48 +74 48 -71 62 +67 48 +64 64 +59 48 +45 0 +40 48 
+38 64 -35 48 +30 48 +24 0 +20 0 +17 0 +14 0 +11 48 -9 62 +7 48 
+5 0 +3 79 *
So

0100000
+2 0 *

+1 1 