
CASCADE Topology V1, (c) Matra-Datavision
Locations 55
1
1.000000000000000 0.000000000000000 0.000000000000000 0.000000000000000 
0.000000000000000 1.000000000000000 0.000000000000000 0.000000000000000 
0.000000000000000 0.000000000000000 1.000000000000000 0.000000000000000 
1
1.000000000000000 0.000000000000000 0.000000000000000 0.000000000000000 
0.000000000000000 1.000000000000000 0.000000000000000 0.000000000000000 
0.000000000000000 0.000000000000000 1.000000000000000 0.000000000000000 
1
1.000000000000000 0.000000000000000 0.000000000000000 0.000000000000000 
0.000000000000000 1.000000000000000 0.000000000000000 0.000000000000000 
0.000000000000000 0.000000000000000 1.000000000000000 0.000000000000000 
2  2 1 3 -1 0
1
1.000000000000000 0.000000000000000 0.000000000000000 0.000000000000000 
0.000000000000000 1.000000000000000 0.000000000000000 0.000000000000000 
0.000000000000000 0.000000000000000 1.000000000000000 0.000000000000000 
1
1.000000000000000 0.000000000000000 0.000000000000000 0.000000000000000 
0.000000000000000 1.000000000000000 0.000000000000000 0.000000000000000 
0.000000000000000 0.000000000000000 1.000000000000000 0.000000000000000 
2  5 1 6 -1 0
1
1.000000000000000 0.000000000000000 0.000000000000000 0.000000000000000 
0.000000000000000 1.000000000000000 0.000000000000000 0.000000000000000 
0.000000000000000 0.000000000000000 1.000000000000000 0.000000000000000 
1
1.000000000000000 0.000000000000000 0.000000000000000 0.000000000000000 
0.000000000000000 1.000000000000000 0.000000000000000 0.000000000000000 
0.000000000000000 0.000000000000000 1.000000000000000 0.000000000000000 
1
1.000000000000000 0.000000000000000 0.000000000000000 0.000000000000000 
0.000000000000000 1.000000000000000 0.000000000000000 0.000000000000000 
0.000000000000000 0.000000000000000 1.000000000000000 0.000000000000000 
2  8 1 9 1 10 -1 5 1 6 -1 0
1
1.000000000000000 0.000000000000000 0.000000000000000 0.000000000000000 
0.000000000000000 1.000000000000000 0.000000000000000 0.000000000000000 
0.000000000000000 0.000000000000000 1.000000000000000 0.000000000000000 
2  12 -1 8 -1 0
2  9 -1 8 -1 0
2  10 1 9 -1 8 -1 0
1
1.000000000000000 0.000000000000000 0.000000000000000 0.000000000000000 
0.000000000000000 1.000000000000000 0.000000000000000 0.000000000000000 
0.000000000000000 0.000000000000000 1.000000000000000 2.000000000000000 
2  16 -1 10 1 9 -1 8 -1 0
1
1.000000000000000 0.000000000000000 0.000000000000000 0.000000000000000 
0.000000000000000 1.000000000000000 0.000000000000000 0.000000000000000 
0.000000000000000 0.000000000000000 1.000000000000000 0.000000000000000 
1
1.000000000000000 0.000000000000000 0.000000000000000 0.000000000000000 
0.000000000000000 1.000000000000000 0.000000000000000 0.000000000000000 
0.000000000000000 0.000000000000000 1.000000000000000 0.000000000000000 
2  18 1 19 1 5 -1 10 1 9 -1 8 -1 0
2  18 1 19 1 6 -1 0
2  8 1 9 1 10 -1 16 1 5 1 6 -1 0
2  6 1 5 -1 16 -1 10 1 9 -1 8 -1 0
2  8 1 9 1 10 -1 0
2  8 1 9 1 10 -1 16 1 0
2  10 -1 5 1 6 -1 0
2  6 1 19 -1 18 -1 0
1
1.000000000000000 0.000000000000000 0.000000000000000 0.000000000000000 
0.000000000000000 1.000000000000000 0.000000000000000 0.000000000000000 
0.000000000000000 0.000000000000000 1.000000000000000 10.000000000000000 
2  28 -1 6 1 19 -1 18 -1 0
2  19 -1 18 -1 0
2  5 1 19 -1 18 -1 0
1
1.000000000000000 0.000000000000000 0.000000000000000 0.000000000000000 
0.000000000000000 1.000000000000000 0.000000000000000 0.000000000000000 
0.000000000000000 0.000000000000000 1.000000000000000 0.000000000000000 
2  32 1 12 -1 8 -1 0
1
1.000000000000000 0.000000000000000 0.000000000000000 0.000000000000000 
0.000000000000000 1.000000000000000 0.000000000000000 0.000000000000000 
0.000000000000000 0.000000000000000 1.000000000000000 2.000000000000000 
2  34 -1 32 1 12 -1 8 -1 0
2  18 1 19 1 6 -1 28 1 0
2  10 -1 16 1 5 1 6 -1 0
2  5 1 6 -1 2 1 3 -1 0
2  6 -1 2 1 3 -1 0
2  18 1 19 1 0
2  18 1 19 1 6 -1 28 1 2 1 3 -1 0
1
1.000000000000000 0.000000000000000 0.000000000000000 0.000000000000000 
0.000000000000000 1.000000000000000 0.000000000000000 0.000000000000000 
0.000000000000000 0.000000000000000 1.000000000000000 0.000000000000000 
1
1.000000000000000 0.000000000000000 0.000000000000000 0.000000000000000 
0.000000000000000 0.000000000000000 -1.000000000000000 54.000000000000000 
0.000000000000000 1.000000000000000 0.000000000000000 0.000000000000000 
2  42 1 43 1 2 -1 28 -1 6 1 19 -1 18 -1 0
2  42 1 43 1 3 -1 0
2  3 1 43 -1 42 -1 0
1
1.000000000000000 0.000000000000000 0.000000000000000 0.000000000000000 
0.000000000000000 1.000000000000000 0.000000000000000 -1.000000000000000 
0.000000000000000 0.000000000000000 1.000000000000000 0.000000000000000 
2  47 -1 3 1 43 -1 42 -1 0
2  43 -1 42 -1 0
2  2 1 43 -1 42 -1 0
2  8 1 9 1 10 -1 16 1 5 1 6 -1 2 1 3 -1 0
2  6 -1 28 1 2 1 3 -1 0
2  42 1 43 1 3 -1 47 1 0
2  3 -1 47 1 0
2  42 1 43 1 0
Curve2ds 82
1 -62.00000000000000000 27.00000000000000000 1.00000000000000000 0.00000000000000000 
1 -62.00000000000000000 27.00000000000000000 1.00000000000000000 0.00000000000000000 
1 0.00000000000000000 0.00000000000000000 1.00000000000000000 0.00000000000000000 
1 0.00000000000000000 -2.00000000000000000 1.00000000000000000 0.00000000000000000 
1 30.00000000000000000 0.00000000000000000 0.00000000000000000 -1.00000000000000000 
1 0.00000000000000000 0.00000000000000000 0.00000000000000000 -1.00000000000000000 
1 45.00000000000000000 0.00000000000000000 0.00000000000000000 -1.00000000000000000 
1 0.00000000000000000 0.00000000000000000 0.00000000000000000 -1.00000000000000000 
1 0.00000000000000000 -0.00000000000000000 1.00000000000000000 0.00000000000000000 
1 0.00000000000000000 -10.00000000000000000 1.00000000000000000 0.00000000000000000 
1 15.00000000000000000 27.00000000000000000 -1.00000000000000000 0.00000000000000000 
1 75.00000000000000000 0.00000000000000000 -1.00000000000000000 0.00000000000000000 
1 62.00000000000000000 27.00000000000000000 0.00000000000000000 -1.00000000000000000 
1 62.00000000000000000 27.00000000000000000 0.00000000000000000 -1.00000000000000000 
1 0.00000000000000000 -0.00000000000000000 1.00000000000000000 0.00000000000000000 
1 0.00000000000000000 -2.00000000000000000 1.00000000000000000 0.00000000000000000 
1 62.00000000000000000 -27.00000000000000000 -1.00000000000000000 0.00000000000000000 
1 0.00000000000000000 -0.00000000000000000 1.00000000000000000 0.00000000000000000 
1 0.00000000000000000 -2.00000000000000000 1.00000000000000000 0.00000000000000000 
1 62.00000000000000000 -27.00000000000000000 -1.00000000000000000 0.00000000000000000 
1 0.00000000000000000 0.00000000000000000 1.00000000000000000 0.00000000000000000 
1 0.00000000000000000 -10.00000000000000000 1.00000000000000000 0.00000000000000000 
1 -15.00000000000000000 -27.00000000000000000 1.00000000000000000 0.00000000000000000 
1 79.00000000000000000 0.00000000000000000 -1.00000000000000000 -0.00000000000000000 
1 -62.00000000000000000 -27.00000000000000000 0.00000000000000000 1.00000000000000000 
1 -62.00000000000000000 -27.00000000000000000 0.00000000000000000 1.00000000000000000 
1 2.00000000000000000 0.00000000000000000 0.00000000000000000 -1.00000000000000000 
1 0.00000000000000000 0.00000000000000000 1.00000000000000000 0.00000000000000000 
1 0.00000000000000000 -10.00000000000000000 1.00000000000000000 0.00000000000000000 
1 -15.00000000000000000 27.00000000000000000 0.00000000000000000 1.00000000000000000 
1 75.00000000000000000 -2.00000000000000000 -1.00000000000000000 -0.00000000000000000 
1 79.00000000000000000 -2.00000000000000000 -1.00000000000000000 0.00000000000000000 
1 124.00000000000000000 0.00000000000000000 0.00000000000000000 -1.00000000000000000 
1 -15.00000000000000000 29.00000000000000000 1.00000000000000000 0.00000000000000000 
1 0.00000000000000000 0.00000000000000000 1.00000000000000000 0.00000000000000000 
1 0.00000000000000000 -10.00000000000000000 1.00000000000000000 0.00000000000000000 
1 15.00000000000000000 29.00000000000000000 0.00000000000000000 -1.00000000000000000 
1 124.00000000000000000 0.00000000000000000 0.00000000000000000 -1.00000000000000000 
1 2.00000000000000000 0.00000000000000000 0.00000000000000000 -1.00000000000000000 
1 0.00000000000000000 -0.00000000000000000 0.00000000000000000 -1.00000000000000000 
1 75.00000000000000000 0.00000000000000000 0.00000000000000000 -1.00000000000000000 
1 0.00000000000000000 -0.00000000000000000 0.00000000000000000 -1.00000000000000000 
1 30.00000000000000000 0.00000000000000000 0.00000000000000000 -1.00000000000000000 
1 0.00000000000000000 0.00000000000000000 0.00000000000000000 -1.00000000000000000 
1 49.00000000000000000 0.00000000000000000 0.00000000000000000 -1.00000000000000000 
1 0.00000000000000000 0.00000000000000000 1.00000000000000000 0.00000000000000000 
1 0.00000000000000000 -10.00000000000000000 1.00000000000000000 0.00000000000000000 
1 15.00000000000000000 -27.00000000000000000 0.00000000000000000 -1.00000000000000000 
1 15.00000000000000000 -29.00000000000000000 -1.00000000000000000 0.00000000000000000 
1 0.00000000000000000 0.00000000000000000 1.00000000000000000 0.00000000000000000 
1 0.00000000000000000 -10.00000000000000000 1.00000000000000000 0.00000000000000000 
1 -15.00000000000000000 -29.00000000000000000 0.00000000000000000 1.00000000000000000 
1 0.00000000000000000 0.00000000000000000 0.00000000000000000 -1.00000000000000000 
1 2.00000000000000000 0.00000000000000000 0.00000000000000000 -1.00000000000000000 
1 79.00000000000000000 0.00000000000000000 0.00000000000000000 -1.00000000000000000 
1 0.00000000000000000 0.00000000000000000 1.00000000000000000 0.00000000000000000 
1 -0.00000000000000022 -1.00000000000000000 1.00000000000000000 0.00000000000000000 
1 -1.50000000000000000 -10.00000000000000000 1.00000000000000000 0.00000000000000000 
1 25.00000000000000000 -7.00000000000000000 0.00000000000000000 -1.00000000000000000 
1 -1.50000000000000000 10.00000000000000000 0.00000000000000000 -1.00000000000000000 
1 0.00000000000000000 0.00000000000000000 1.00000000000000000 0.00000000000000000 
1 0.00000000000000000 -1.00000000000000000 1.00000000000000000 0.00000000000000000 
1 5.00000000000000000 -7.00000000000000000 1.00000000000000000 0.00000000000000000 
1 0.00000000000000000 0.00000000000000000 1.00000000000000000 0.00000000000000000 
1 0.00000000000000022 -1.00000000000000000 1.00000000000000000 0.00000000000000000 
1 1.50000000000000000 10.00000000000000000 -1.00000000000000000 0.00000000000000000 
1 5.00000000000000000 -10.00000000000000000 0.00000000000000000 1.00000000000000000 
1 0.00000000000000000 0.00000000000000000 0.00000000000000000 -1.00000000000000000 
1 0.00000000000000000 0.00000000000000000 1.00000000000000000 0.00000000000000000 
1 0.00000000000000000 -1.00000000000000000 1.00000000000000000 0.00000000000000000 
1 1.50000000000000000 -10.00000000000000000 0.00000000000000000 1.00000000000000000 
1 25.00000000000000000 -10.00000000000000000 -1.00000000000000000 -0.00000000000000000 
1 2.00000000000000000 0.00000000000000000 0.00000000000000000 -1.00000000000000000 
1 0.00000000000000000 0.00000000000000000 0.00000000000000000 -1.00000000000000000 
1 0.00000000000000000 0.00000000000000000 0.00000000000000000 -1.00000000000000000 
1 20.00000000000000000 0.00000000000000000 0.00000000000000000 -1.00000000000000000 
1 0.00000000000000000 0.00000000000000000 0.00000000000000000 -1.00000000000000000 
1 3.00000000000000000 -0.00000000000000067 0.00000000000000000 -1.00000000000000000 
1 3.00000000000000000 0.00000000000000067 0.00000000000000000 -1.00000000000000000 
1 0.00000000000000000 0.00000000000000000 0.00000000000000000 -1.00000000000000000 
1 20.00000000000000000 0.00000000000000000 0.00000000000000000 -1.00000000000000000 
1 0.00000000000000000 0.00000000000000000 0.00000000000000000 -1.00000000000000000 
Curves 32
1 0.00000000000000000 54.00000000000000000 0.00000000000000000 1.00000000000000000 0.00000000000000000 0.00000000000000000 
1 45.00000000000000000 54.00000000000000000 0.00000000000000000 0.00000000000000000 0.00000000000000000 1.00000000000000000 
1 0.00000000000000000 54.00000000000000000 0.00000000000000000 0.00000000000000000 0.00000000000000000 1.00000000000000000 
1 75.00000000000000000 54.00000000000000000 0.00000000000000000 -1.00000000000000000 0.00000000000000000 0.00000000000000000 
1 124.00000000000000000 54.00000000000000000 0.00000000000000000 0.00000000000000000 -1.00000000000000000 0.00000000000000000 
1 124.00000000000000000 0.00000000000000000 0.00000000000000000 -1.00000000000000000 0.00000000000000000 0.00000000000000000 
1 45.00000000000000000 0.00000000000000000 0.00000000000000000 1.00000000000000000 0.00000000000000000 0.00000000000000000 
1 0.00000000000000000 0.00000000000000000 0.00000000000000000 0.00000000000000000 1.00000000000000000 0.00000000000000000 
1 45.00000000000000000 56.00000000000000000 0.00000000000000000 0.00000000000000000 0.00000000000000000 1.00000000000000000 
1 45.00000000000000000 54.00000000000000000 0.00000000000000000 0.00000000000000000 1.00000000000000000 0.00000000000000000 
1 0.00000000000000000 0.00000000000000000 0.00000000000000000 0.00000000000000000 0.00000000000000000 1.00000000000000000 
1 45.00000000000000000 56.00000000000000000 0.00000000000000000 1.00000000000000000 0.00000000000000000 0.00000000000000000 
1 75.00000000000000000 56.00000000000000000 0.00000000000000000 0.00000000000000000 -1.00000000000000000 0.00000000000000000 
1 124.00000000000000000 54.00000000000000000 0.00000000000000000 0.00000000000000000 0.00000000000000000 1.00000000000000000 
1 75.00000000000000000 54.00000000000000000 0.00000000000000000 0.00000000000000000 0.00000000000000000 1.00000000000000000 
1 124.00000000000000000 0.00000000000000000 0.00000000000000000 0.00000000000000000 0.00000000000000000 1.00000000000000000 
1 75.00000000000000000 0.00000000000000000 0.00000000000000000 0.00000000000000000 0.00000000000000000 1.00000000000000000 
1 75.00000000000000000 0.00000000000000000 0.00000000000000000 0.00000000000000000 -1.00000000000000000 0.00000000000000000 
1 75.00000000000000000 -2.00000000000000000 0.00000000000000000 -1.00000000000000000 0.00000000000000000 0.00000000000000000 
1 45.00000000000000000 -2.00000000000000000 0.00000000000000000 0.00000000000000000 1.00000000000000000 0.00000000000000000 
1 45.00000000000000000 0.00000000000000000 0.00000000000000000 0.00000000000000000 0.00000000000000000 1.00000000000000000 
1 50.00000000000000000 7.00000000000000000 0.00000000000000000 0.00000000000000000 1.00000000000000000 0.00000000000000000 
1 70.00000000000000000 7.00000000000000000 0.00000000000000000 -1.00000000000000000 0.00000000000000000 0.00000000000000000 
1 70.00000000000000000 10.00000000000000000 0.00000000000000000 0.00000000000000000 -1.00000000000000000 0.00000000000000000 
1 75.00000000000000000 56.00000000000000000 0.00000000000000000 0.00000000000000000 0.00000000000000000 1.00000000000000000 
1 50.00000000000000000 10.00000000000000000 0.00000000000000000 1.00000000000000000 0.00000000000000000 0.00000000000000000 
1 75.00000000000000000 -2.00000000000000000 0.00000000000000000 0.00000000000000000 0.00000000000000000 1.00000000000000000 
1 45.00000000000000000 -2.00000000000000000 0.00000000000000000 0.00000000000000000 0.00000000000000000 1.00000000000000000 
1 50.00000000000000000 54.00000000000000000 7.00000000000000000 0.00000000000000000 -1.00000000000000000 0.00000000000000022 
1 50.00000000000000000 54.00000000000000000 10.00000000000000000 0.00000000000000000 -1.00000000000000000 0.00000000000000022 
1 70.00000000000000000 54.00000000000000000 7.00000000000000000 0.00000000000000000 -1.00000000000000000 0.00000000000000022 
1 70.00000000000000000 54.00000000000000000 10.00000000000000000 0.00000000000000000 -1.00000000000000000 0.00000000000000022 
Polygon3D 0
PolygonOnTriangulations 0
Surfaces 22
1 0.00000000000000000 54.00000000000000000 0.00000000000000000 0.00000000000000000 1.00000000000000000 0.00000000000000000 1.00000000000000000 0.00000000000000000 0.00000000000000000 0.00000000000000000 0.00000000000000000 -1.00000000000000000 
1 62.00000000000000000 27.00000000000000000 0.00000000000000000 0.00000000000000000 0.00000000000000000 1.00000000000000000 1.00000000000000000 0.00000000000000000 -0.00000000000000000 -0.00000000000000000 1.00000000000000000 0.00000000000000000 
1 62.00000000000000000 27.00000000000000000 0.00000000000000000 0.00000000000000000 0.00000000000000000 1.00000000000000000 1.00000000000000000 0.00000000000000000 -0.00000000000000000 -0.00000000000000000 1.00000000000000000 0.00000000000000000 
1 75.00000000000000000 54.00000000000000000 0.00000000000000000 0.00000000000000000 -1.00000000000000000 0.00000000000000000 -1.00000000000000000 0.00000000000000000 0.00000000000000000 -0.00000000000000000 -0.00000000000000000 -1.00000000000000000 
1 45.00000000000000000 54.00000000000000000 0.00000000000000000 -1.00000000000000000 0.00000000000000000 0.00000000000000000 0.00000000000000000 1.00000000000000000 0.00000000000000000 0.00000000000000000 0.00000000000000000 -1.00000000000000000 
1 60.00000000000000000 27.00000000000000000 0.00000000000000000 0.00000000000000000 0.00000000000000000 1.00000000000000000 1.00000000000000000 0.00000000000000000 -0.00000000000000000 -0.00000000000000000 1.00000000000000000 0.00000000000000000 
1 124.00000000000000000 0.00000000000000000 0.00000000000000000 0.00000000000000000 -1.00000000000000000 0.00000000000000000 -1.00000000000000000 0.00000000000000000 0.00000000000000000 -0.00000000000000000 -0.00000000000000000 -1.00000000000000000 
1 124.00000000000000000 0.00000000000000000 0.00000000000000000 0.00000000000000000 -1.00000000000000000 0.00000000000000000 -1.00000000000000000 0.00000000000000000 0.00000000000000000 -0.00000000000000000 -0.00000000000000000 -1.00000000000000000 
1 45.00000000000000000 0.00000000000000000 0.00000000000000000 0.00000000000000000 1.00000000000000000 0.00000000000000000 1.00000000000000000 0.00000000000000000 0.00000000000000000 0.00000000000000000 0.00000000000000000 -1.00000000000000000 
1 60.00000000000000000 27.00000000000000000 0.00000000000000000 0.00000000000000000 0.00000000000000000 1.00000000000000000 1.00000000000000000 0.00000000000000000 -0.00000000000000000 -0.00000000000000000 1.00000000000000000 0.00000000000000000 
1 0.00000000000000000 0.00000000000000000 0.00000000000000000 -1.00000000000000000 0.00000000000000000 0.00000000000000000 0.00000000000000000 1.00000000000000000 0.00000000000000000 0.00000000000000000 0.00000000000000000 -1.00000000000000000 
1 75.00000000000000000 56.00000000000000000 0.00000000000000000 1.00000000000000000 0.00000000000000000 -0.00000000000000000 0.00000000000000000 -1.00000000000000000 0.00000000000000000 0.00000000000000000 -0.00000000000000000 -1.00000000000000000 
1 124.00000000000000000 54.00000000000000000 0.00000000000000000 1.00000000000000000 0.00000000000000000 -0.00000000000000000 0.00000000000000000 -1.00000000000000000 0.00000000000000000 0.00000000000000000 -0.00000000000000000 -1.00000000000000000 
1 75.00000000000000000 0.00000000000000000 0.00000000000000000 1.00000000000000000 0.00000000000000000 -0.00000000000000000 0.00000000000000000 -1.00000000000000000 0.00000000000000000 0.00000000000000000 -0.00000000000000000 -1.00000000000000000 
1 45.00000000000000000 -2.00000000000000000 0.00000000000000000 -1.00000000000000000 0.00000000000000000 0.00000000000000000 0.00000000000000000 1.00000000000000000 0.00000000000000000 0.00000000000000000 0.00000000000000000 -1.00000000000000000 
1 50.00000000000000000 54.00000000000000000 7.00000000000000000 -1.00000000000000000 0.00000000000000000 0.00000000000000000 0.00000000000000000 0.00000000000000022 1.00000000000000000 0.00000000000000000 1.00000000000000000 -0.00000000000000022 
1 60.00000000000000000 54.00000000000000000 8.50000000000000000 0.00000000000000000 1.00000000000000000 0.00000000000000000 0.00000000000000000 -0.00000000000000000 1.00000000000000000 1.00000000000000000 0.00000000000000000 -0.00000000000000000 
1 70.00000000000000000 54.00000000000000000 7.00000000000000000 -0.00000000000000000 -0.00000000000000022 -1.00000000000000000 -1.00000000000000000 0.00000000000000000 0.00000000000000000 0.00000000000000000 1.00000000000000000 -0.00000000000000022 
1 70.00000000000000000 54.00000000000000000 10.00000000000000000 1.00000000000000000 0.00000000000000000 0.00000000000000000 0.00000000000000000 -0.00000000000000022 -1.00000000000000000 0.00000000000000000 1.00000000000000000 -0.00000000000000022 
1 45.00000000000000000 56.00000000000000000 0.00000000000000000 0.00000000000000000 1.00000000000000000 0.00000000000000000 1.00000000000000000 0.00000000000000000 0.00000000000000000 0.00000000000000000 0.00000000000000000 -1.00000000000000000 
1 50.00000000000000000 54.00000000000000000 10.00000000000000000 -0.00000000000000000 0.00000000000000022 1.00000000000000000 1.00000000000000000 0.00000000000000000 0.00000000000000000 0.00000000000000000 1.00000000000000000 -0.00000000000000022 
1 75.00000000000000000 -2.00000000000000000 0.00000000000000000 0.00000000000000000 -1.00000000000000000 0.00000000000000000 -1.00000000000000000 0.00000000000000000 0.00000000000000000 -0.00000000000000000 -0.00000000000000000 -1.00000000000000000 
Triangulations 0

TShapes 116
Ve
0.000000100000000
0.000000000000000 54.000000000000000 0.000000000000000
0 0

0101101
*
Ve
0.000000100000000
45.000000000000000 54.000000000000000 0.000000000000000
0 0

0101101
*
Ed
 0.000000100000000 1 1 0
1  1 0 0.000000000000000 45.000000000000000
2  1 2 13 0.000000000000000 45.000000000000000
2  2 3 14 0.000000000000000 45.000000000000000
2  3 1 15 0.000000000000000 45.000000000000000
2  4 1 17 0.000000000000000 45.000000000000000
0

0101000
+116 0 -115 20 *
Ve
0.000000100000000
45.000000000000000 54.000000000000000 2.000000000000000
0 0

0101101
*
Ed
 0.000000100000000 1 1 0
1  2 0 0.000000000000000 2.000000000000000
2  5 4 0 0.000000000000000 2.000000000000000
2  6 5 0 0.000000000000000 2.000000000000000
2  7 1 7 0.000000000000000 2.000000000000000
0

0101000
+115 21 -113 0 *
Ed
 0.000000100000000 1 1 0
1  1 0 0.000000000000000 45.000000000000000
2  1 2 13 0.000000000000000 45.000000000000000
2  2 3 14 0.000000000000000 45.000000000000000
2  3 1 15 0.000000000000000 45.000000000000000
2  4 1 17 0.000000000000000 45.000000000000000
0

0101000
+116 0 -113 23 *
Ed
 0.000000100000000 1 1 0
1  3 0 0.000000000000000 2.000000000000000
2  8 1 0 0.000000000000000 2.000000000000000
0

0101000
+116 24 -116 25 *
Wi

0101100
-114 11 -112 0 +111 22 +110 7 *
Fa
0  0.000000100000000 1 7

0101000
+109 0 *
Ve
0.000000100000000
75.000000000000000 54.000000000000000 0.000000000000000
0 0

0101101
*
Ed
 0.000000100000000 1 1 0
1  4 0 0.000000000000000 30.000000000000000
2  9 4 27 0.000000000000000 30.000000000000000
2  10 4 29 0.000000000000000 30.000000000000000
2  11 6 30 0.000000000000000 30.000000000000000
2  12 1 31 0.000000000000000 30.000000000000000
0

0101000
+107 0 -115 0 *
Ve
0.000000100000000
124.000000000000000 54.000000000000000 0.000000000000000
0 0

0101101
*
Ed
 0.000000100000000 1 1 0
1  1 0 75.000000000000000 124.000000000000000
2  1 2 13 75.000000000000000 124.000000000000000
2  2 3 14 75.000000000000000 124.000000000000000
2  3 1 15 75.000000000000000 124.000000000000000
2  4 1 17 75.000000000000000 124.000000000000000
0

0101000
+107 20 -105 0 *
Ve
0.000000100000000
124.000000000000000 0.000000000000000 0.000000000000000
0 0

0101101
*
Ed
 0.000000100000000 1 1 0
1  5 0 0.000000000000000 54.000000000000000
2  13 2 13 0.000000000000000 54.000000000000000
2  14 3 14 0.000000000000000 54.000000000000000
0

0101000
+105 0 -103 0 *
Ve
0.000000100000000
75.000000000000000 0.000000000000000 0.000000000000000
0 0

0101101
*
Ed
 0.000000100000000 1 1 0
1  6 0 0.000000000000000 49.000000000000000
2  15 7 33 0.000000000000000 49.000000000000000
2  16 7 35 0.000000000000000 49.000000000000000
2  17 2 13 0.000000000000000 49.000000000000000
2  18 8 15 0.000000000000000 49.000000000000000
2  19 8 17 0.000000000000000 49.000000000000000
2  20 3 14 0.000000000000000 49.000000000000000
0

0101000
+103 0 -101 20 *
Ve
0.000000100000000
45.000000000000000 0.000000000000000 0.000000000000000
0 0

0101101
*
Ed
 0.000000100000000 1 1 0
1  7 0 0.000000000000000 30.000000000000000
2  21 9 27 0.000000000000000 30.000000000000000
2  22 9 29 0.000000000000000 30.000000000000000
2  23 10 30 0.000000000000000 30.000000000000000
2  24 8 31 0.000000000000000 30.000000000000000
0

0101000
+99 0 -101 0 *
Ve
0.000000100000000
0.000000000000000 0.000000000000000 0.000000000000000
0 0

0101101
*
Ed
 0.000000100000000 1 1 0
1  6 0 79.000000000000000 124.000000000000000
2  15 7 33 79.000000000000000 124.000000000000000
2  16 7 35 79.000000000000000 124.000000000000000
2  17 2 13 79.000000000000000 124.000000000000000
2  18 8 15 79.000000000000000 124.000000000000000
2  19 8 17 79.000000000000000 124.000000000000000
2  20 3 14 79.000000000000000 124.000000000000000
0

0101000
+99 20 -97 0 *
Ed
 0.000000100000000 1 1 0
1  8 0 0.000000000000000 54.000000000000000
2  25 2 13 0.000000000000000 54.000000000000000
2  26 3 14 0.000000000000000 54.000000000000000
0

0101000
+97 0 -116 0 *
Wi

0101100
+114 11 -106 21 +104 11 +102 11 +100 11 -98 21 +96 11 +95 11 *
Fa
0  0.000000100000000 3 26

0101000
-94 0 *
Ed
 0.000000100000000 1 1 0
1  2 0 2.000000000000000 10.000000000000000
2  5 4 0 2.000000000000000 10.000000000000000
2  6 5 0 2.000000000000000 10.000000000000000
0

0101000
+113 0 -115 36 *
Ve
0.000000100000000
45.000000000000000 56.000000000000000 0.000000000000000
0 0

0101101
*
Ed
 0.000000100000000 1 1 0
1  9 0 0.000000000000000 10.000000000000000
2  27 5 0 0.000000000000000 10.000000000000000
0

0101000
+91 21 -91 36 *
Ed
 0.000000100000000 1 1 0
1  10 0 0.000000000000000 2.000000000000000
2  28 5 27 0.000000000000000 2.000000000000000
2  29 5 29 0.000000000000000 2.000000000000000
2  30 6 30 0.000000000000000 2.000000000000000
0

0101000
+115 0 -91 0 *
Wi

0101100
+112 0 +92 0 -90 0 -89 21 +89 36 *
Fa
0  0.000000100000000 5 0

0101000
+88 0 *
Ve
0.000000100000000
75.000000000000000 54.000000000000000 2.000000000000000
0 0

0101101
*
Ed
 0.000000100000000 1 1 0
1  1 0 45.000000000000000 75.000000000000000
2  1 2 13 45.000000000000000 75.000000000000000
2  2 3 14 45.000000000000000 75.000000000000000
2  3 1 15 45.000000000000000 75.000000000000000
2  4 1 17 45.000000000000000 75.000000000000000
2  31 4 23 45.000000000000000 75.000000000000000
0

0101000
+113 23 -86 23 *
Ed
 0.000000100000000 1 1 0
1  1 0 75.000000000000000 124.000000000000000
2  1 2 13 75.000000000000000 124.000000000000000
2  2 3 14 75.000000000000000 124.000000000000000
2  3 1 15 75.000000000000000 124.000000000000000
2  4 1 17 75.000000000000000 124.000000000000000
0

0101000
+86 23 -105 0 *
Ve
0.000000100000000
75.000000000000000 0.000000000000000 2.000000000000000
0 0

0101101
*
Ed
 0.000000100000000 1 1 0
1  6 0 0.000000000000000 49.000000000000000
2  15 7 33 0.000000000000000 49.000000000000000
2  16 7 35 0.000000000000000 49.000000000000000
2  17 2 13 0.000000000000000 49.000000000000000
2  18 8 15 0.000000000000000 49.000000000000000
2  19 8 17 0.000000000000000 49.000000000000000
2  20 3 14 0.000000000000000 49.000000000000000
0

0101000
+103 0 -83 23 *
Ve
0.000000100000000
45.000000000000000 0.000000000000000 2.000000000000000
0 0

0101101
*
Ed
 0.000000100000000 1 1 0
1  6 0 49.000000000000000 79.000000000000000
2  15 7 33 49.000000000000000 79.000000000000000
2  16 7 35 49.000000000000000 79.000000000000000
2  17 2 13 49.000000000000000 79.000000000000000
2  18 8 15 49.000000000000000 79.000000000000000
2  19 8 17 49.000000000000000 79.000000000000000
2  20 3 14 49.000000000000000 79.000000000000000
2  32 9 23 49.000000000000000 79.000000000000000
0

0101000
+83 23 -81 23 *
Ed
 0.000000100000000 1 1 0
1  6 0 79.000000000000000 124.000000000000000
2  15 7 33 79.000000000000000 124.000000000000000
2  16 7 35 79.000000000000000 124.000000000000000
2  17 2 13 79.000000000000000 124.000000000000000
2  18 8 15 79.000000000000000 124.000000000000000
2  19 8 17 79.000000000000000 124.000000000000000
2  20 3 14 79.000000000000000 124.000000000000000
0

0101000
+81 23 -97 0 *
Wi

0101100
+111 22 +85 22 +84 22 +102 22 +82 22 +80 22 +79 22 +95 22 *
Fa
0  0.000000100000000 3 37

0101000
-78 0 *
Ed
 0.000000100000000 1 1 0
1  11 0 0.000000000000000 2.000000000000000
2  33 8 0 0.000000000000000 2.000000000000000
0

0101000
+97 24 -97 25 *
Wi

0101100
+76 0 -110 0 -95 24 +95 25 *
Fa
0  0.000000100000000 11 0

0111000
+75 0 *
Ve
0.000000100000000
75.000000000000000 56.000000000000000 0.000000000000000
0 0

0101101
*
Ed
 0.000000100000000 1 1 0
1  12 0 0.000000000000000 30.000000000000000
2  34 6 30 0.000000000000000 30.000000000000000
0

0101000
+91 0 -73 0 *
Ed
 0.000000100000000 1 1 0
1  13 0 0.000000000000000 2.000000000000000
2  35 12 27 0.000000000000000 2.000000000000000
2  36 12 29 0.000000000000000 2.000000000000000
2  37 6 30 0.000000000000000 2.000000000000000
0

0101000
+73 0 -107 0 *
Wi

0101100
+72 0 +71 0 +106 0 +89 0 *
Fa
0  0.000000100000000 6 0

0101000
-70 40 *
Ed
 0.000000100000000 1 1 0
1  14 0 0.000000000000000 2.000000000000000
2  38 1 0 0.000000000000000 2.000000000000000
0

0101000
+105 24 -105 25 *
Ed
 0.000000100000000 1 1 0
1  15 0 0.000000000000000 2.000000000000000
2  39 12 0 0.000000000000000 2.000000000000000
2  40 4 0 0.000000000000000 2.000000000000000
2  41 1 7 0.000000000000000 2.000000000000000
0

0101000
+107 21 -86 0 *
Wi

0101100
-104 11 -68 7 +84 22 +67 0 *
Fa
0  0.000000100000000 1 7

0101000
+66 0 *
Ed
 0.000000100000000 1 1 0
1  16 0 0.000000000000000 2.000000000000000
2  42 8 0 0.000000000000000 2.000000000000000
0

0101000
+103 24 -103 25 *
Wi

0101100
+68 0 -64 0 -102 24 +102 25 *
Fa
0  0.000000100000000 13 0

0111000
+63 0 *
Ed
 0.000000100000000 1 1 0
1  17 0 0.000000000000000 2.000000000000000
2  43 9 0 0.000000000000000 2.000000000000000
2  44 14 0 0.000000000000000 2.000000000000000
2  45 8 7 0.000000000000000 2.000000000000000
0

0101000
+101 21 -83 0 *
Wi

0101100
-100 11 -61 0 +82 22 +64 7 *
Fa
0  0.000000100000000 8 7

0101000
+60 0 *
Ve
0.000000100000000
75.000000000000000 -2.000000000000000 0.000000000000000
0 0

0101101
*
Ed
 0.000000100000000 1 1 0
1  18 0 0.000000000000000 2.000000000000000
2  46 14 27 0.000000000000000 2.000000000000000
2  47 14 29 0.000000000000000 2.000000000000000
2  48 10 30 0.000000000000000 2.000000000000000
0

0101000
+101 0 -58 0 *
Ve
0.000000100000000
45.000000000000000 -2.000000000000000 0.000000000000000
0 0

0101101
*
Ed
 0.000000100000000 1 1 0
1  19 0 0.000000000000000 30.000000000000000
2  49 10 30 0.000000000000000 30.000000000000000
0

0101000
+58 0 -56 0 *
Ed
 0.000000100000000 1 1 0
1  20 0 0.000000000000000 2.000000000000000
2  50 15 27 0.000000000000000 2.000000000000000
2  51 15 29 0.000000000000000 2.000000000000000
2  52 10 30 0.000000000000000 2.000000000000000
0

0101000
+56 0 -99 0 *
Wi

0101100
+98 0 +57 0 +55 0 +54 0 *
Fa
0  0.000000100000000 10 0

0101000
-53 40 *
Ed
 0.000000100000000 1 1 0
1  21 0 0.000000000000000 2.000000000000000
2  53 9 0 0.000000000000000 2.000000000000000
2  54 15 0 0.000000000000000 2.000000000000000
2  55 8 7 0.000000000000000 2.000000000000000
0

0101000
+99 21 -81 0 *
Wi

0101100
-96 11 -76 7 +79 22 +51 0 *
Fa
0  0.000000100000000 8 7

0101000
+50 0 *
Ve
0.000000100000000
50.000000000000000 10.000000000000000 0.000000000000000
0 0

0101101
*
Ed
 0.000000100000000 1 1 0
1  4 0 25.000000000000000 30.000000000000000
2  9 4 27 25.000000000000000 30.000000000000000
2  10 4 29 25.000000000000000 30.000000000000000
2  11 6 30 25.000000000000000 30.000000000000000
2  12 1 31 25.000000000000000 30.000000000000000
0

0101000
+48 44 -115 0 *
Ve
0.000000100000000
50.000000000000000 7.000000000000000 0.000000000000000
0 0

0101101
*
Ed
 0.000000100000000 1 1 0
1  22 0 0.000000000000000 3.000000000000000
2  56 16 46 0.000000000000000 3.000000000000000
2  57 16 48 0.000000000000000 3.000000000000000
2  58 17 49 0.000000000000000 3.000000000000000
2  59 4 50 0.000000000000000 3.000000000000000
0

0101000
+46 0 -48 0 *
Ve
0.000000100000000
70.000000000000000 7.000000000000000 0.000000000000000
0 0

0101101
*
Ed
 0.000000100000000 1 1 0
1  23 0 0.000000000000000 20.000000000000000
2  60 17 49 0.000000000000000 20.000000000000000
2  61 18 46 0.000000000000000 20.000000000000000
2  62 18 48 0.000000000000000 20.000000000000000
2  63 4 50 0.000000000000000 20.000000000000000
0

0101000
+44 0 -46 0 *
Ve
0.000000100000000
70.000000000000000 10.000000000000000 0.000000000000000
0 0

0101101
*
Ed
 0.000000100000000 1 1 0
1  24 0 0.000000000000000 3.000000000000000
2  64 19 46 0.000000000000000 3.000000000000000
2  65 19 48 0.000000000000000 3.000000000000000
2  66 17 49 0.000000000000000 3.000000000000000
2  67 4 50 0.000000000000000 3.000000000000000
0

0101000
+42 0 -44 0 *
Ed
 0.000000100000000 1 1 0
1  4 0 0.000000000000000 5.000000000000000
2  9 4 27 0.000000000000000 5.000000000000000
2  10 4 29 0.000000000000000 5.000000000000000
2  11 6 30 0.000000000000000 5.000000000000000
2  12 1 31 0.000000000000000 5.000000000000000
0

0101000
+107 0 -42 44 *
Ed
 0.000000100000000 1 1 0
1  15 0 2.000000000000000 10.000000000000000
2  39 12 0 2.000000000000000 10.000000000000000
2  40 4 0 2.000000000000000 10.000000000000000
0

0101000
+86 0 -107 36 *
Wi

0101100
-92 4 +47 41 +45 45 +43 45 +41 45 +40 41 +39 4 +85 51 *
Fa
0  0.000000100000000 4 4

0101000
+38 0 *
Ed
 0.000000100000000 1 1 0
1  25 0 0.000000000000000 10.000000000000000
2  68 12 0 0.000000000000000 10.000000000000000
0

0101000
+73 21 -73 36 *
Wi

0101100
+90 0 -36 0 -72 21 +72 36 *
Fa
0  0.000000100000000 20 0

0101000
+35 0 *
Ed
 0.000000100000000 1 1 0
1  26 0 0.000000000000000 20.000000000000000
2  69 21 46 0.000000000000000 20.000000000000000
2  70 21 48 0.000000000000000 20.000000000000000
2  71 17 49 0.000000000000000 20.000000000000000
2  72 4 50 0.000000000000000 20.000000000000000
0

0101000
+48 0 -42 0 *
Wi

0101100
+72 41 +71 41 +40 41 -33 45 +47 41 +89 41 *
Fa
0  0.000000100000000 6 52

0101000
-32 0 *
Ed
 0.000000100000000 1 1 0
1  17 0 2.000000000000000 10.000000000000000
2  43 9 0 2.000000000000000 10.000000000000000
2  44 14 0 2.000000000000000 10.000000000000000
0

0101000
+83 0 -101 36 *
Ed
 0.000000100000000 1 1 0
1  21 0 2.000000000000000 10.000000000000000
2  53 9 0 2.000000000000000 10.000000000000000
2  54 15 0 2.000000000000000 10.000000000000000
0

0101000
+81 0 -99 36 *
Wi

0101100
+80 22 -30 0 +98 36 +29 0 *
Fa
0  0.000000100000000 9 0

0101000
+28 0 *
Wi

0101100
+36 0 -67 0 -39 0 -71 21 +71 36 *
Fa
0  0.000000100000000 12 0

0101000
+26 0 *
Ed
 0.000000100000000 1 1 0
1  27 0 0.000000000000000 10.000000000000000
2  73 14 0 0.000000000000000 10.000000000000000
0

0101000
+58 21 -58 36 *
Wi

0101100
+61 0 +30 0 -24 0 -57 21 +57 36 *
Fa
0  0.000000100000000 14 0

0101000
+23 0 *
Ed
 0.000000100000000 1 1 0
1  28 0 0.000000000000000 10.000000000000000
2  74 15 0 0.000000000000000 10.000000000000000
0

0101000
+56 21 -56 36 *
Wi

0101100
+24 0 -21 0 -55 21 +55 36 *
Fa
0  0.000000100000000 22 0

0101000
+20 0 *
Wi

0101100
+21 0 -51 0 -29 0 -54 21 +54 36 *
Fa
0  0.000000100000000 15 0

0101000
+18 0 *
Ed
 0.000000100000000 1 1 0
1  29 0 0.000000000000000 1.000000000000000
2  75 16 0 0.000000000000000 1.000000000000000
2  76 18 0 0.000000000000000 1.000000000000000
0

0101000
+46 45 -46 53 *
Ed
 0.000000100000000 1 1 0
1  30 0 0.000000000000000 1.000000000000000
2  77 21 0 0.000000000000000 1.000000000000000
2  78 16 0 0.000000000000000 1.000000000000000
0

0101000
+48 45 -48 53 *
Wi

0101100
+16 0 -15 0 -45 45 +45 53 *
Fa
0  0.000000100000000 16 0

0101000
+14 0 *
Ed
 0.000000100000000 1 1 0
1  31 0 0.000000000000000 1.000000000000000
2  79 19 0 0.000000000000000 1.000000000000000
2  80 18 0 0.000000000000000 1.000000000000000
0

0101000
+44 45 -44 53 *
Wi

0101100
+12 0 -16 0 -43 45 +43 53 *
Fa
0  0.000000100000000 18 0

0101000
+11 0 *
Ed
 0.000000100000000 1 1 0
1  32 0 0.000000000000000 1.000000000000000
2  81 21 0 0.000000000000000 1.000000000000000
2  82 19 0 0.000000000000000 1.000000000000000
0

0101000
+42 45 -42 53 *
Wi

0101100
+9 0 -12 0 -41 45 +41 53 *
Fa
0  0.000000100000000 19 0

0101000
+8 0 *
Wi

0101100
+15 0 -9 0 -33 45 +33 53 *
Fa
0  0.000000100000000 21 0

0101000
+6 0 *
Wi

0101100
+33 0 +41 0 +43 0 +45 0 *
Fa
0  0.000000100000000 17 0

0101000
+4 55 *
Sh

0101100
+108 4 -93 4 +87 4 +77 4 +74 38 -69 39 +65 4 +62 38 +59 4 -52 39 
+49 4 +37 0 +34 4 +31 0 +27 4 +25 4 +22 4 +19 4 +17 4 +13 0 
+10 0 +7 0 +5 0 +52 52 -3 54 *
So

0100000
+2 0 *

+1 1 