
CASCADE Topology V1, (c) Matra-Datavision
Locations 72
1
1.000000000000000 0.000000000000000 0.000000000000000 0.000000000000000 
0.000000000000000 1.000000000000000 0.000000000000000 0.000000000000000 
0.000000000000000 0.000000000000000 1.000000000000000 50.000000000000000 
1
1.000000000000000 0.000000000000000 0.000000000000000 0.000000000000000 
0.000000000000000 1.000000000000000 0.000000000000000 0.000000000000000 
0.000000000000000 0.000000000000000 1.000000000000000 0.000000000000000 
1
1.000000000000000 0.000000000000000 0.000000000000000 0.000000000000000 
0.000000000000000 1.000000000000000 0.000000000000000 0.000000000000000 
0.000000000000000 0.000000000000000 1.000000000000000 0.000000000000000 
1
1.000000000000000 0.000000000000000 0.000000000000000 0.000000000000000 
0.000000000000000 1.000000000000000 0.000000000000000 0.000000000000000 
0.000000000000000 0.000000000000000 1.000000000000000 0.000000000000000 
1
1.000000000000000 0.000000000000000 0.000000000000000 0.000000000000000 
0.000000000000000 1.000000000000000 0.000000000000000 0.000000000000000 
0.000000000000000 0.000000000000000 1.000000000000000 0.000000000000000 
1
1.000000000000000 0.000000000000000 0.000000000000000 0.000000000000000 
0.000000000000000 1.000000000000000 0.000000000000000 0.000000000000000 
0.000000000000000 0.000000000000000 1.000000000000000 0.000000000000000 
2  2 1 3 -1 4 1 5 -1 6 1 0
2  6 -1 5 1 4 -1 3 1 2 -1 0
1
1.000000000000000 0.000000000000000 0.000000000000000 0.000000000000000 
0.000000000000000 1.000000000000000 0.000000000000000 0.000000000000000 
0.000000000000000 0.000000000000000 1.000000000000000 0.000000000000000 
2  9 -1 6 -1 5 1 4 -1 3 1 2 -1 0
2  9 -1 0
1
1.000000000000000 0.000000000000000 0.000000000000000 0.000000000000000 
0.000000000000000 1.000000000000000 0.000000000000000 0.000000000000000 
0.000000000000000 0.000000000000000 1.000000000000000 0.000000000000000 
1
1.000000000000000 0.000000000000000 0.000000000000000 0.000000000000000 
0.000000000000000 1.000000000000000 0.000000000000000 0.000000000000000 
0.000000000000000 0.000000000000000 1.000000000000000 0.000000000000000 
1
1.000000000000000 0.000000000000000 0.000000000000000 0.000000000000000 
0.000000000000000 1.000000000000000 0.000000000000000 0.000000000000000 
0.000000000000000 0.000000000000000 1.000000000000000 0.000000000000000 
2  12 1 13 1 14 -1 2 1 3 -1 4 1 5 -1 6 1 0
2  9 -1 6 -1 5 1 4 -1 3 1 2 -1 14 1 13 -1 12 -1 0
1
1.000000000000000 0.000000000000000 0.000000000000000 0.000000000000000 
0.000000000000000 1.000000000000000 0.000000000000000 0.000000000000000 
0.000000000000000 0.000000000000000 1.000000000000000 10.000000000000000 
2  12 1 13 1 14 -1 17 1 2 1 3 -1 4 1 5 -1 6 1 0
2  9 -1 6 -1 5 1 4 -1 3 1 2 -1 17 -1 14 1 13 -1 12 -1 0
2  14 -1 2 1 3 -1 4 1 5 -1 6 1 0
2  14 -1 17 1 2 1 3 -1 4 1 5 -1 6 1 0
2  6 -1 5 1 4 -1 3 1 2 -1 14 1 0
2  4 1 5 -1 6 1 0
2  14 -1 17 1 2 1 3 -1 0
2  6 -1 5 1 4 -1 0
1
1.000000000000000 0.000000000000000 0.000000000000000 0.000000000000000 
0.000000000000000 1.000000000000000 0.000000000000000 0.000000000000000 
0.000000000000000 0.000000000000000 1.000000000000000 0.000000000000000 
1
1.000000000000000 0.000000000000000 0.000000000000000 0.000000000000000 
0.000000000000000 0.000000000000000 -1.000000000000000 89.000000000000000 
0.000000000000000 1.000000000000000 0.000000000000000 0.000000000000000 
2  26 1 27 1 3 -1 4 1 5 -1 6 1 0
2  9 -1 6 -1 5 1 4 -1 3 1 27 -1 26 -1 0
1
1.000000000000000 0.000000000000000 0.000000000000000 0.000000000000000 
0.000000000000000 1.000000000000000 0.000000000000000 0.000000000000000 
0.000000000000000 0.000000000000000 1.000000000000000 0.000000000000000 
2  30 1 14 -1 0
1
1.000000000000000 0.000000000000000 0.000000000000000 0.000000000000000 
0.000000000000000 1.000000000000000 0.000000000000000 0.000000000000000 
0.000000000000000 0.000000000000000 1.000000000000000 0.000000000000000 
1
1.000000000000000 0.000000000000000 0.000000000000000 0.000000000000000 
0.000000000000000 1.000000000000000 0.000000000000000 0.000000000000000 
0.000000000000000 0.000000000000000 1.000000000000000 0.000000000000000 
1
1.000000000000000 0.000000000000000 0.000000000000000 0.000000000000000 
0.000000000000000 1.000000000000000 0.000000000000000 0.000000000000000 
0.000000000000000 0.000000000000000 1.000000000000000 0.000000000000000 
2  32 1 33 1 34 -1 30 1 14 -1 0
2  9 -1 6 -1 5 1 4 -1 3 1 2 -1 14 1 30 -1 34 1 33 -1 32 -1 0
1
1.000000000000000 0.000000000000000 0.000000000000000 0.000000000000000 
0.000000000000000 1.000000000000000 0.000000000000000 0.000000000000000 
0.000000000000000 0.000000000000000 1.000000000000000 2.000000000000000 
2  32 1 33 1 34 -1 37 1 30 1 14 -1 0
2  9 -1 6 -1 5 1 4 -1 3 1 2 -1 14 1 30 -1 37 -1 34 1 33 -1 32 -1 0
2  9 -1 6 -1 5 1 4 -1 3 1 2 -1 14 1 30 -1 0
2  2 1 3 -1 0
2  12 1 13 1 14 -1 17 1 2 1 3 -1 0
2  26 1 27 1 3 -1 0
2  32 1 33 1 34 -1 37 1 30 1 14 -1 2 1 3 -1 0
2  34 -1 30 1 14 -1 0
2  12 1 13 1 14 -1 0
2  9 -1 6 -1 5 1 4 -1 0
1
1.000000000000000 0.000000000000000 0.000000000000000 0.000000000000000 
0.000000000000000 1.000000000000000 0.000000000000000 -1.000000000000000 
0.000000000000000 0.000000000000000 1.000000000000000 0.000000000000000 
2  26 1 27 1 3 -1 48 1 0
2  9 -1 6 -1 5 1 4 -1 48 -1 3 1 27 -1 26 -1 0
2  34 -1 37 1 30 1 14 -1 0
2  30 1 14 -1 2 1 3 -1 4 1 5 -1 6 1 0
2  32 1 33 1 34 -1 0
2  32 1 33 1 34 -1 37 1 0
2  3 -1 48 1 4 1 5 -1 6 1 0
2  26 1 27 1 0
2  2 1 3 -1 4 1 5 -1 0
2  12 1 13 1 14 -1 17 1 2 1 3 -1 4 1 5 -1 0
1
1.000000000000000 0.000000000000000 0.000000000000000 0.000000000000000 
0.000000000000000 1.000000000000000 0.000000000000000 0.000000000000000 
0.000000000000000 0.000000000000000 1.000000000000000 0.000000000000000 
1
-1.000000000000000 0.000000000000000 0.000000000000000 0.000000000000000 
0.000000000000000 0.000000000000000 1.000000000000000 0.000000000000000 
0.000000000000000 1.000000000000000 -0.000000000000000 0.000000000000000 
2  59 1 60 1 5 -1 0
2  9 -1 6 -1 5 1 60 -1 59 -1 0
2  32 1 33 1 34 -1 37 1 30 1 14 -1 2 1 3 -1 4 1 5 -1 0
2  14 -1 17 1 2 1 3 -1 4 1 5 -1 0
2  6 -1 0
2  59 1 60 1 5 -1 6 1 0
2  9 -1 6 -1 0
1
1.000000000000000 0.000000000000000 0.000000000000000 0.000000000000000 
0.000000000000000 1.000000000000000 0.000000000000000 1.000000000000000 
0.000000000000000 0.000000000000000 1.000000000000000 -0.000000000000000 
2  59 1 60 1 5 -1 68 1 0
2  9 -1 6 -1 68 -1 5 1 60 -1 59 -1 0
2  5 -1 68 1 6 1 0
2  59 1 60 1 0
Curve2ds 16
1 -3.14159265358979312 0.00000000000000000 1.00000000000000000 0.00000000000000000 
1 -4.71238898038468967 0.00000000000000000 1.00000000000000000 0.00000000000000000 
1 1.57079632679489656 0.00000000000000000 0.00000000000000000 1.00000000000000000 
1 0.00000000000000000 0.00000000000000000 0.00000000000000000 1.00000000000000000 
1 0.00000000000000000 0.00000000000000000 0.00000000000000000 1.00000000000000000 
1 -3.14159265358979312 30.00000000000000000 1.00000000000000000 0.00000000000000000 
1 1.57079632679489656 0.00000000000000000 0.00000000000000000 1.00000000000000000 
1 -4.71238898038468967 30.00000000000000000 1.00000000000000000 0.00000000000000000 
1 0.00000000000000000 0.00000000000000000 0.00000000000000000 1.00000000000000000 
1 0.00000000000000000 0.00000000000000000 1.00000000000000000 0.00000000000000000 
1 -1.57079632679489656 0.00000000000000000 1.00000000000000000 0.00000000000000000 
1 1.57079632679489656 0.00000000000000000 0.00000000000000000 1.00000000000000000 
1 0.00000000000000000 30.00000000000000000 1.00000000000000000 0.00000000000000000 
1 -1.57079632679489656 30.00000000000000000 1.00000000000000000 0.00000000000000000 
1 1.57079632679489656 0.00000000000000000 0.00000000000000000 1.00000000000000000 
1 0.00000000000000000 0.00000000000000000 0.00000000000000000 1.00000000000000000 
Curves 84
1 42.50000000000000000 91.00000000000000000 0.00000000000000000 0.00000000000000000 0.00000000000000000 1.00000000000000000 
8 3.14159265358979312 4.71238898038468967
2 42.50000000000000000 89.01000000000000512 1.98999999999999955 1.00000000000000000 0.00000000000000000 -0.00000000000000000 0.00000000000000000 0.00000000000000000 1.00000000000000000 0.00000000000000000 -1.00000000000000000 0.00000000000000000 1.98999999999999999
8 4.71238898038468967 6.28318530717958623
2 42.50000000000000000 89.01000000000000512 8.00999999999999979 1.00000000000000000 0.00000000000000000 -0.00000000000000000 0.00000000000000000 0.00000000000000000 1.00000000000000000 0.00000000000000000 -1.00000000000000000 0.00000000000000000 1.98999999999999999
1 42.50000000000000000 89.00000000000000000 0.00000000000000000 0.00000000000000000 1.00000000000000000 0.00000000000000000 
1 42.50000000000000000 89.00000000000000000 0.00000000000000000 0.00000000000000000 1.00000000000000000 0.00000000000000000 
1 42.50000000000000000 89.00000000000000000 0.00000000000000000 0.00000000000000000 0.00000000000000000 1.00000000000000000 
1 42.50000000000000000 89.00000000000000000 0.00000000000000000 0.00000000000000000 0.00000000000000000 1.00000000000000000 
1 42.50000000000000000 91.00000000000000000 1.98999999999999932 1.00000000000000000 0.00000000000000000 0.00000000000000000 
1 42.50000000000000000 91.00000000000000000 8.00999999999999979 1.00000000000000000 0.00000000000000000 0.00000000000000000 
1 72.50000000000000000 91.00000000000000000 0.00000000000000000 0.00000000000000000 0.00000000000000000 1.00000000000000000 
1 42.50000000000000000 89.01000000000000512 -0.00000000000000044 1.00000000000000000 0.00000000000000000 0.00000000000000000 
8 3.14159265358979312 4.71238898038468967
2 72.50000000000000000 89.01000000000000512 1.98999999999999955 1.00000000000000000 0.00000000000000000 -0.00000000000000000 0.00000000000000000 0.00000000000000000 1.00000000000000000 0.00000000000000000 -1.00000000000000000 0.00000000000000000 1.98999999999999999
1 42.50000000000000000 89.01000000000000512 10.00000000000000000 1.00000000000000000 0.00000000000000000 0.00000000000000000 
8 4.71238898038468967 6.28318530717958623
2 72.50000000000000000 89.01000000000000512 8.00999999999999979 1.00000000000000000 0.00000000000000000 -0.00000000000000000 0.00000000000000000 0.00000000000000000 1.00000000000000000 0.00000000000000000 -1.00000000000000000 0.00000000000000000 1.98999999999999999
1 72.50000000000000000 91.00000000000000000 0.00000000000000000 0.00000000000000000 -1.00000000000000000 0.00000000000000000 
1 72.50000000000000000 89.00000000000000000 0.00000000000000000 -1.00000000000000000 0.00000000000000000 0.00000000000000000 
1 72.50000000000000000 91.00000000000000000 0.00000000000000000 0.00000000000000000 -1.00000000000000000 0.00000000000000000 
1 72.50000000000000000 89.00000000000000000 0.00000000000000000 -1.00000000000000000 0.00000000000000000 0.00000000000000000 
1 47.50000000000000000 10.00000000000000000 0.00000000000000000 1.00000000000000000 0.00000000000000000 0.00000000000000000 
1 72.50000000000000000 89.00000000000000000 0.00000000000000000 -1.00000000000000000 0.00000000000000000 0.00000000000000000 
1 0.00000000000000000 89.00000000000000000 0.00000000000000000 1.00000000000000000 0.00000000000000000 0.00000000000000000 
1 0.00000000000000000 89.00000000000000000 0.00000000000000000 1.00000000000000000 0.00000000000000000 0.00000000000000000 
1 0.00000000000000000 89.00000000000000000 0.00000000000000000 0.00000000000000000 0.00000000000000000 1.00000000000000000 
1 47.50000000000000000 7.00000000000000000 0.00000000000000000 0.00000000000000000 1.00000000000000000 0.00000000000000000 
1 67.50000000000000000 7.00000000000000000 0.00000000000000000 -1.00000000000000000 0.00000000000000000 0.00000000000000000 
1 67.50000000000000000 10.00000000000000000 0.00000000000000000 0.00000000000000000 -1.00000000000000000 0.00000000000000000 
1 72.50000000000000000 89.00000000000000000 0.00000000000000000 0.00000000000000000 0.00000000000000000 1.00000000000000000 
1 0.00000000000000000 89.00000000000000000 0.00000000000000000 1.00000000000000000 0.00000000000000000 0.00000000000000000 
1 72.50000000000000000 89.00000000000000000 0.00000000000000000 0.00000000000000000 0.00000000000000000 1.00000000000000000 
1 0.00000000000000000 89.00000000000000000 0.00000000000000000 1.00000000000000000 0.00000000000000000 0.00000000000000000 
1 119.00000000000000000 89.00000000000000000 0.00000000000000000 0.00000000000000000 -1.00000000000000000 0.00000000000000000 
1 119.00000000000000000 0.00000000000000000 0.00000000000000000 -1.00000000000000000 0.00000000000000000 0.00000000000000000 
1 42.50000000000000000 0.00000000000000000 0.00000000000000000 1.00000000000000000 0.00000000000000000 0.00000000000000000 
1 119.00000000000000000 0.00000000000000000 0.00000000000000000 -1.00000000000000000 0.00000000000000000 0.00000000000000000 
1 0.00000000000000000 0.00000000000000000 0.00000000000000000 0.00000000000000000 1.00000000000000000 0.00000000000000000 
1 47.50000000000000000 89.00000000000000000 10.00000000000000000 0.00000000000000000 -1.00000000000000000 0.00000000000000022 
1 67.50000000000000000 89.00000000000000000 10.00000000000000000 0.00000000000000000 -1.00000000000000000 0.00000000000000022 
1 47.50000000000000000 10.00000000000000000 0.00000000000000000 1.00000000000000000 0.00000000000000000 0.00000000000000000 
1 0.00000000000000000 89.00000000000000000 0.00000000000000000 1.00000000000000000 0.00000000000000000 0.00000000000000000 
1 119.00000000000000000 89.00000000000000000 0.00000000000000000 0.00000000000000000 -1.00000000000000000 0.00000000000000000 
1 119.00000000000000000 0.00000000000000000 0.00000000000000000 -1.00000000000000000 0.00000000000000000 0.00000000000000000 
1 119.00000000000000000 0.00000000000000000 0.00000000000000000 -1.00000000000000000 0.00000000000000000 0.00000000000000000 
1 119.00000000000000000 0.00000000000000000 0.00000000000000000 -1.00000000000000000 0.00000000000000000 0.00000000000000000 
1 0.00000000000000000 0.00000000000000000 0.00000000000000000 0.00000000000000000 1.00000000000000000 0.00000000000000000 
1 0.00000000000000000 0.00000000000000000 0.00000000000000000 0.00000000000000000 0.00000000000000000 1.00000000000000000 
1 47.50000000000000000 89.00000000000000000 7.00000000000000000 0.00000000000000000 -1.00000000000000000 0.00000000000000022 
1 47.50000000000000000 7.00000000000000000 0.00000000000000000 0.00000000000000000 1.00000000000000000 0.00000000000000000 
1 67.50000000000000000 89.00000000000000000 7.00000000000000000 0.00000000000000000 -1.00000000000000000 0.00000000000000022 
1 67.50000000000000000 7.00000000000000000 0.00000000000000000 -1.00000000000000000 0.00000000000000000 0.00000000000000000 
1 67.50000000000000000 10.00000000000000000 0.00000000000000000 0.00000000000000000 -1.00000000000000000 0.00000000000000000 
1 119.00000000000000000 89.00000000000000000 0.00000000000000000 0.00000000000000000 0.00000000000000000 1.00000000000000000 
1 119.00000000000000000 0.00000000000000000 0.00000000000000000 0.00000000000000000 0.00000000000000000 1.00000000000000000 
1 72.50000000000000000 0.00000000000000000 0.00000000000000000 0.00000000000000000 0.00000000000000000 1.00000000000000000 
1 72.50000000000000000 0.00000000000000000 0.00000000000000000 0.00000000000000000 -1.00000000000000000 0.00000000000000000 
1 72.50000000000000000 -0.01000000000000045 -0.00000000000000044 -1.00000000000000000 0.00000000000000000 0.00000000000000000 
1 42.50000000000000000 -2.00000000000000000 0.00000000000000000 0.00000000000000000 1.00000000000000000 0.00000000000000000 
1 42.50000000000000000 0.00000000000000000 0.00000000000000000 0.00000000000000000 0.00000000000000000 1.00000000000000000 
1 72.50000000000000000 0.00000000000000000 0.00000000000000000 0.00000000000000000 0.00000000000000000 1.00000000000000000 
1 42.50000000000000000 0.00000000000000000 0.00000000000000000 1.00000000000000000 0.00000000000000000 0.00000000000000000 
1 -67.50000000000000000 7.00000000000000000 0.00000000000000000 0.00000000000000000 1.00000000000000000 0.00000000000000000 
1 -47.50000000000000000 7.00000000000000000 0.00000000000000000 -1.00000000000000000 0.00000000000000000 0.00000000000000000 
1 -47.50000000000000000 10.00000000000000000 0.00000000000000000 0.00000000000000000 -1.00000000000000000 0.00000000000000000 
1 42.50000000000000000 0.00000000000000000 0.00000000000000000 1.00000000000000000 0.00000000000000000 0.00000000000000000 
1 42.50000000000000000 0.00000000000000000 0.00000000000000000 0.00000000000000000 0.00000000000000000 1.00000000000000000 
1 72.50000000000000000 -2.00000000000000000 0.00000000000000000 0.00000000000000000 0.00000000000000000 1.00000000000000000 
8 0.00000000000000000 1.57079632679489656
2 72.50000000000000000 -0.01000000000000045 1.98999999999999955 -1.00000000000000000 0.00000000000000000 0.00000000000000000 0.00000000000000000 0.00000000000000000 -1.00000000000000000 -0.00000000000000000 -1.00000000000000000 -0.00000000000000000 1.98999999999999999
8 1.57079632679489656 3.14159265358979312
2 72.50000000000000000 -0.01000000000000045 8.00999999999999979 -1.00000000000000000 0.00000000000000000 0.00000000000000000 0.00000000000000000 0.00000000000000000 -1.00000000000000000 -0.00000000000000000 -1.00000000000000000 -0.00000000000000000 1.98999999999999999
1 72.50000000000000000 0.00000000000000000 0.00000000000000000 0.00000000000000000 -1.00000000000000000 0.00000000000000000 
1 72.50000000000000000 -2.00000000000000044 1.98999999999999932 -1.00000000000000000 0.00000000000000000 0.00000000000000000 
8 0.00000000000000000 1.57079632679489656
2 42.50000000000000000 -0.01000000000000045 1.98999999999999955 -1.00000000000000000 0.00000000000000000 0.00000000000000000 0.00000000000000000 0.00000000000000000 -1.00000000000000000 -0.00000000000000000 -1.00000000000000000 -0.00000000000000000 1.98999999999999999
1 42.50000000000000000 -2.00000000000000000 0.00000000000000000 0.00000000000000000 0.00000000000000000 1.00000000000000000 
8 1.57079632679489656 3.14159265358979312
2 42.50000000000000000 -0.01000000000000045 8.00999999999999979 -1.00000000000000000 0.00000000000000000 0.00000000000000000 0.00000000000000000 0.00000000000000000 -1.00000000000000000 -0.00000000000000000 -1.00000000000000000 -0.00000000000000000 1.98999999999999999
1 42.50000000000000000 -2.00000000000000000 0.00000000000000000 0.00000000000000000 1.00000000000000000 0.00000000000000000 
1 72.50000000000000000 -0.01000000000000057 10.00000000000000000 -1.00000000000000000 0.00000000000000000 0.00000000000000000 
1 -67.50000000000000000 10.00000000000000000 0.00000000000000000 1.00000000000000000 0.00000000000000000 0.00000000000000000 
1 67.50000000000000000 0.00000000000000155 7.00000000000000000 0.00000000000000000 1.00000000000000000 -0.00000000000000022 
1 67.50000000000000000 0.00000000000000222 10.00000000000000000 0.00000000000000000 1.00000000000000000 -0.00000000000000022 
1 -67.50000000000000000 7.00000000000000000 0.00000000000000000 0.00000000000000000 1.00000000000000000 0.00000000000000000 
1 47.50000000000000000 0.00000000000000155 7.00000000000000000 0.00000000000000000 1.00000000000000000 -0.00000000000000022 
1 -47.50000000000000000 7.00000000000000000 0.00000000000000000 -1.00000000000000000 0.00000000000000000 0.00000000000000000 
1 47.50000000000000000 0.00000000000000222 10.00000000000000000 0.00000000000000000 1.00000000000000000 -0.00000000000000022 
1 -47.50000000000000000 10.00000000000000000 0.00000000000000000 0.00000000000000000 -1.00000000000000000 0.00000000000000000 
1 72.50000000000000000 -2.00000000000000044 8.00999999999999979 -1.00000000000000000 0.00000000000000000 0.00000000000000000 
1 -67.50000000000000000 10.00000000000000000 0.00000000000000000 1.00000000000000000 0.00000000000000000 0.00000000000000000 
Polygon3D 0
PolygonOnTriangulations 0
Surfaces 34
1 42.50000000000000000 89.00000000000000000 0.00000000000000000 -1.00000000000000000 0.00000000000000000 0.00000000000000000 0.00000000000000000 1.00000000000000000 0.00000000000000000 0.00000000000000000 0.00000000000000000 -1.00000000000000000 
2 42.50000000000000000 89.01000000000000512 1.98999999999999955 1.00000000000000000 0.00000000000000000 0.00000000000000000 0.00000000000000000 0.00000000000000000 -1.00000000000000000 -0.00000000000000000 1.00000000000000000 0.00000000000000000 1.98999999999999999
2 42.50000000000000000 89.01000000000000512 8.00999999999999979 1.00000000000000000 0.00000000000000000 0.00000000000000000 -0.00000000000000000 1.00000000000000000 0.00000000000000000 0.00000000000000000 -0.00000000000000000 1.00000000000000000 1.98999999999999999
1 42.50000000000000000 91.00000000000000000 0.00000000000000000 0.00000000000000000 1.00000000000000000 0.00000000000000000 1.00000000000000000 0.00000000000000000 0.00000000000000000 0.00000000000000000 0.00000000000000000 -1.00000000000000000 
1 57.50000000000000000 44.50000000000000000 0.00000000000000000 0.00000000000000000 0.00000000000000000 1.00000000000000000 1.00000000000000000 0.00000000000000000 -0.00000000000000000 -0.00000000000000000 1.00000000000000000 0.00000000000000000 
1 57.50000000000000000 44.50000000000000000 0.00000000000000000 0.00000000000000000 0.00000000000000000 1.00000000000000000 1.00000000000000000 0.00000000000000000 -0.00000000000000000 -0.00000000000000000 1.00000000000000000 0.00000000000000000 
1 0.00000000000000000 89.00000000000000000 0.00000000000000000 0.00000000000000000 1.00000000000000000 0.00000000000000000 1.00000000000000000 0.00000000000000000 0.00000000000000000 0.00000000000000000 0.00000000000000000 -1.00000000000000000 
1 72.50000000000000000 89.00000000000000000 0.00000000000000000 0.00000000000000000 -1.00000000000000000 0.00000000000000000 -1.00000000000000000 0.00000000000000000 0.00000000000000000 -0.00000000000000000 -0.00000000000000000 -1.00000000000000000 
1 72.50000000000000000 91.00000000000000000 0.00000000000000000 1.00000000000000000 0.00000000000000000 0.00000000000000000 0.00000000000000000 -1.00000000000000000 0.00000000000000000 0.00000000000000000 0.00000000000000000 -1.00000000000000000 
1 59.50000000000000000 44.50000000000000000 0.00000000000000000 0.00000000000000000 0.00000000000000000 1.00000000000000000 1.00000000000000000 0.00000000000000000 -0.00000000000000000 -0.00000000000000000 1.00000000000000000 0.00000000000000000 
1 47.50000000000000000 89.00000000000000000 10.00000000000000000 0.00000000000000000 0.00000000000000022 1.00000000000000000 1.00000000000000000 0.00000000000000000 -0.00000000000000000 -0.00000000000000000 1.00000000000000000 -0.00000000000000022 
1 59.50000000000000000 44.50000000000000000 0.00000000000000000 0.00000000000000000 0.00000000000000000 1.00000000000000000 1.00000000000000000 0.00000000000000000 -0.00000000000000000 -0.00000000000000000 1.00000000000000000 0.00000000000000000 
1 0.00000000000000000 0.00000000000000000 0.00000000000000000 -1.00000000000000000 0.00000000000000000 0.00000000000000000 0.00000000000000000 1.00000000000000000 0.00000000000000000 0.00000000000000000 0.00000000000000000 -1.00000000000000000 
1 47.50000000000000000 89.00000000000000000 7.00000000000000000 -1.00000000000000000 0.00000000000000000 0.00000000000000000 0.00000000000000000 0.00000000000000022 1.00000000000000000 0.00000000000000000 1.00000000000000000 -0.00000000000000022 
1 67.50000000000000000 89.00000000000000000 7.00000000000000000 -0.00000000000000000 -0.00000000000000022 -1.00000000000000000 -1.00000000000000000 0.00000000000000000 0.00000000000000000 0.00000000000000000 1.00000000000000000 -0.00000000000000022 
1 67.50000000000000000 89.00000000000000000 10.00000000000000000 1.00000000000000000 0.00000000000000000 0.00000000000000000 0.00000000000000000 -0.00000000000000022 -1.00000000000000000 0.00000000000000000 1.00000000000000000 -0.00000000000000022 
1 0.00000000000000000 89.00000000000000000 0.00000000000000000 0.00000000000000000 1.00000000000000000 0.00000000000000000 1.00000000000000000 0.00000000000000000 0.00000000000000000 0.00000000000000000 0.00000000000000000 -1.00000000000000000 
1 119.00000000000000000 89.00000000000000000 0.00000000000000000 1.00000000000000000 0.00000000000000000 0.00000000000000000 0.00000000000000000 -1.00000000000000000 0.00000000000000000 0.00000000000000000 0.00000000000000000 -1.00000000000000000 
1 119.00000000000000000 0.00000000000000000 0.00000000000000000 0.00000000000000000 -1.00000000000000000 0.00000000000000000 -1.00000000000000000 0.00000000000000000 0.00000000000000000 -0.00000000000000000 -0.00000000000000000 -1.00000000000000000 
1 57.50000000000000000 44.50000000000000000 0.00000000000000000 0.00000000000000000 0.00000000000000000 1.00000000000000000 1.00000000000000000 0.00000000000000000 -0.00000000000000000 -0.00000000000000000 1.00000000000000000 0.00000000000000000 
2 72.50000000000000000 -0.01000000000000045 1.98999999999999955 -1.00000000000000000 0.00000000000000000 0.00000000000000000 0.00000000000000000 0.00000000000000000 -1.00000000000000000 -0.00000000000000000 -1.00000000000000000 -0.00000000000000000 1.98999999999999999
1 119.00000000000000000 0.00000000000000000 0.00000000000000000 0.00000000000000000 -1.00000000000000000 0.00000000000000000 -1.00000000000000000 0.00000000000000000 0.00000000000000000 -0.00000000000000000 -0.00000000000000000 -1.00000000000000000 
1 57.50000000000000000 89.00000000000000000 8.50000000000000000 0.00000000000000000 1.00000000000000000 0.00000000000000000 0.00000000000000000 -0.00000000000000000 1.00000000000000000 1.00000000000000000 0.00000000000000000 -0.00000000000000000 
1 42.50000000000000000 0.00000000000000000 0.00000000000000000 0.00000000000000000 1.00000000000000000 0.00000000000000000 1.00000000000000000 0.00000000000000000 0.00000000000000000 0.00000000000000000 0.00000000000000000 -1.00000000000000000 
1 72.50000000000000000 0.00000000000000000 0.00000000000000000 1.00000000000000000 0.00000000000000000 0.00000000000000000 0.00000000000000000 -1.00000000000000000 0.00000000000000000 0.00000000000000000 0.00000000000000000 -1.00000000000000000 
2 72.50000000000000000 -0.01000000000000045 8.00999999999999979 -1.00000000000000000 0.00000000000000000 0.00000000000000000 0.00000000000000000 -1.00000000000000000 0.00000000000000000 0.00000000000000000 0.00000000000000000 1.00000000000000000 1.98999999999999999
1 72.50000000000000000 -2.00000000000000000 0.00000000000000000 0.00000000000000000 -1.00000000000000000 0.00000000000000000 -1.00000000000000000 0.00000000000000000 0.00000000000000000 -0.00000000000000000 -0.00000000000000000 -1.00000000000000000 
1 42.50000000000000000 -2.00000000000000000 0.00000000000000000 -1.00000000000000000 0.00000000000000000 0.00000000000000000 0.00000000000000000 1.00000000000000000 0.00000000000000000 0.00000000000000000 0.00000000000000000 -1.00000000000000000 
1 57.50000000000000000 44.50000000000000000 0.00000000000000000 0.00000000000000000 0.00000000000000000 1.00000000000000000 1.00000000000000000 0.00000000000000000 -0.00000000000000000 -0.00000000000000000 1.00000000000000000 0.00000000000000000 
1 67.50000000000000000 0.00000000000000155 7.00000000000000000 1.00000000000000000 0.00000000000000000 0.00000000000000000 -0.00000000000000000 0.00000000000000022 1.00000000000000000 0.00000000000000000 -1.00000000000000000 0.00000000000000022 
1 47.50000000000000000 0.00000000000000155 7.00000000000000000 0.00000000000000000 -0.00000000000000022 -1.00000000000000000 1.00000000000000000 0.00000000000000000 0.00000000000000000 0.00000000000000000 -1.00000000000000000 0.00000000000000022 
1 47.50000000000000000 0.00000000000000222 10.00000000000000000 -1.00000000000000000 0.00000000000000000 0.00000000000000000 -0.00000000000000000 -0.00000000000000022 -1.00000000000000000 0.00000000000000000 -1.00000000000000000 0.00000000000000022 
1 67.50000000000000000 0.00000000000000222 10.00000000000000000 0.00000000000000000 0.00000000000000022 1.00000000000000000 -1.00000000000000000 0.00000000000000000 0.00000000000000000 0.00000000000000000 -1.00000000000000000 0.00000000000000022 
1 57.50000000000000000 0.00000000000000189 8.50000000000000000 0.00000000000000000 1.00000000000000000 -0.00000000000000022 0.00000000000000000 0.00000000000000022 1.00000000000000000 1.00000000000000000 -0.00000000000000000 0.00000000000000000 
Triangulations 0

TShapes 206
Ve
0.000000100000000
42.500000000000000 91.000000000000000 1.989999999999999
0 0

0101101
*
Ve
0.000000100000000
42.500000000000000 91.000000000000000 8.010000000000000
0 0

0101101
*
Ed
 0.000000100000000 1 1 0
1  1 0 1.989999999999999 8.010000000000000
0

0101000
+206 10 -205 10 *
Ve
0.000000100000000
42.500000000000000 89.010000000000005 -0.000000000000000
0 0

0101101
*
Ed
 0.000000100000000 1 1 0
1  2 0 3.141592653589793 4.712388980384690
2  1 2 0 3.141592653589793 4.712388980384690
0

0101000
+203 11 -206 11 *
Ve
0.000000100000000
42.500000000000000 89.010000000000005 10.000000000000000
0 0

0101101
*
Ed
 0.000000100000000 1 1 0
1  3 0 4.712388980384690 6.283185307179586
2  2 3 0 4.712388980384690 6.283185307179586
0

0101000
+205 11 -201 11 *
Ve
0.000000100000000
42.500000000000000 89.000000000000000 0.000000000000000
0 0

0101101
*
Ed
 0.000000100000000 1 1 0
1  4 0 0.000000000000000 0.010000000000005
0

0101000
-203 16 +199 16 *
Ve
0.000000100000000
42.500000000000000 89.000000000000000 10.000000000000000
0 0

0101101
*
Ed
 0.000000100000000 1 1 0
1  5 0 0.000000000000000 0.010000000000005
0

0101000
-201 19 +197 19 *
Ve
0.000000100000000
42.500000000000000 89.000000000000000 2.000000000000000
0 0

0101101
*
Ed
 0.000000100000000 1 1 0
1  6 0 0.000000000000000 2.000000000000000
0

0101000
+199 10 -195 10 *
Ed
 0.000000100000000 1 1 0
1  7 0 2.000000000000000 10.000000000000000
0

0101000
+195 10 -197 10 *
Wi

0101100
-204 7 -202 0 -200 0 -198 15 +196 18 +194 7 +193 7 *
Fa
0  0.000000100000000 1 0

0111000
+192 8 *
Ve
0.000000100000000
72.500000000000000 91.000000000000000 1.989999999999999
0 0

0101101
*
Ed
 0.000000100000000 1 1 0
1  8 0 0.000000000000000 30.000000000000000
2  3 2 0 0.000000000000000 30.000000000000000
4 G1 4 7 2 0
0

0101000
+206 11 -190 11 *
Ve
0.000000100000000
72.500000000000000 91.000000000000000 8.010000000000000
0 0

0101101
*
Ed
 0.000000100000000 1 1 0
1  9 0 0.000000000000000 30.000000000000000
2  4 3 0 0.000000000000000 30.000000000000000
4 G1 4 7 3 0
0

0101000
+205 11 -188 11 *
Ed
 0.000000100000000 1 1 0
1  10 0 1.989999999999999 8.010000000000000
0

0101000
+190 10 -188 10 *
Wi

0101100
+204 7 -189 0 +187 0 -186 7 *
Fa
0  0.000000100000000 4 0

0111000
+185 8 *
Ve
0.000000100000000
72.500000000000000 89.010000000000005 -0.000000000000000
0 0

0101101
*
Ed
 0.000000100000000 1 1 0
1  11 0 0.000000000000000 30.000000000000000
2  5 2 0 0.000000000000000 30.000000000000000
4 G1 2 0 5 20
0

0101000
+203 11 -183 11 *
Ed
 0.000000100000000 1 1 0
1  12 0 3.141592653589793 4.712388980384690
2  6 2 0 3.141592653589793 4.712388980384690
0

0101000
+183 11 -190 11 *
Wi

0101100
+202 0 -182 0 +189 0 -181 0 *
Fa
0  0.000000100000000 2 0

0111000
+180 0 *
Ve
0.000000100000000
72.500000000000000 89.010000000000005 10.000000000000000
0 0

0101101
*
Ed
 0.000000100000000 1 1 0
1  13 0 0.000000000000000 30.000000000000000
2  7 3 0 0.000000000000000 30.000000000000000
4 G1 3 0 6 21
0

0101000
+201 11 -178 11 *
Ed
 0.000000100000000 1 1 0
1  14 0 4.712388980384690 6.283185307179586
2  8 3 0 4.712388980384690 6.283185307179586
0

0101000
+188 11 -178 11 *
Wi

0101100
+200 0 -187 0 +177 0 -176 0 *
Fa
0  0.000000100000000 3 0

0111000
+175 0 *
Ve
0.000000100000000
72.500000000000000 89.000000000000000 0.000000000000000
0 0

0101101
*
Ed
 0.000000100000000 1 1 0
1  15 0 1.989999999999995 2.000000000000000
0

0101000
+183 16 -173 16 *
Ed
 0.000000100000000 1 1 0
1  16 0 0.000000000000000 30.000000000000000
0

0101000
+173 16 -199 16 *
Wi

0101100
-172 15 -182 0 -171 15 -198 15 *
Fa
0  0.000000100000000 5 0

0111000
+170 22 *
Ve
0.000000100000000
72.500000000000000 89.000000000000000 10.000000000000000
0 0

0101101
*
Ed
 0.000000100000000 1 1 0
1  17 0 1.989999999999995 2.000000000000000
0

0101000
+178 19 -168 19 *
Ve
0.000000100000000
67.500000000000000 89.000000000000000 10.000000000000000
0 0

0101101
*
Ed
 0.000000100000000 1 1 0
1  18 0 0.000000000000000 5.000000000000000
0

0101000
+168 19 -166 19 *
Ve
0.000000100000000
47.500000000000000 89.000000000000000 10.000000000000000
0 0

0101101
*
Ed
 0.000000100000000 1 1 0
1  19 0 0.000000000000000 20.000000000000000
0

0101000
+164 29 -166 29 *
Ed
 0.000000100000000 1 1 0
1  20 0 25.000000000000000 30.000000000000000
0

0101000
+164 19 -197 19 *
Wi

0101100
-167 18 -177 0 -165 18 -196 18 +163 28 -162 18 *
Fa
0  0.000000100000000 6 24

0111000
+161 25 *
Ve
0.000000100000000
0.000000000000000 89.000000000000000 0.000000000000000
0 0

0101101
*
Ed
 0.000000100000000 1 1 0
1  21 0 0.000000000000000 42.500000000000000
0

0101000
+159 36 -199 36 *
Ve
0.000000100000000
0.000000000000000 89.000000000000000 2.000000000000000
0 0

0101101
*
Ed
 0.000000100000000 1 1 0
1  22 0 0.000000000000000 42.500000000000000
0

0101000
+157 39 -195 39 *
Ed
 0.000000100000000 1 1 0
1  23 0 0.000000000000000 2.000000000000000
0

0101000
+159 40 -157 40 *
Wi

0101100
-158 35 -194 0 +156 38 +155 31 *
Fa
0  0.000000100000000 7 31

0111000
+154 0 *
Ve
0.000000100000000
47.500000000000000 89.000000000000000 7.000000000000000
0 0

0101101
*
Ed
 0.000000100000000 1 1 0
1  24 0 0.000000000000000 3.000000000000000
0

0101000
+152 29 -164 29 *
Ve
0.000000100000000
67.500000000000000 89.000000000000000 7.000000000000000
0 0

0101101
*
Ed
 0.000000100000000 1 1 0
1  25 0 0.000000000000000 20.000000000000000
0

0101000
+150 29 -152 29 *
Ed
 0.000000100000000 1 1 0
1  26 0 0.000000000000000 3.000000000000000
0

0101000
+166 29 -150 29 *
Ve
0.000000100000000
72.500000000000000 89.000000000000000 2.000000000000000
0 0

0101101
*
Ed
 0.000000100000000 1 1 0
1  27 0 2.000000000000000 10.000000000000000
0

0101000
+147 10 -168 10 *
Ed
 0.000000100000000 1 1 0
1  28 0 42.500000000000000 72.500000000000000
0

0101000
+195 39 -147 39 *
Wi

0101100
-193 41 +162 42 +151 43 +149 43 +148 43 +165 42 +146 41 +145 44 *
Fa
0  0.000000100000000 8 41

0111000
+144 0 *
Ed
 0.000000100000000 1 1 0
1  29 0 0.000000000000000 2.000000000000000
0

0101000
+173 10 -147 10 *
Wi

0101100
+186 7 +181 0 +176 0 -172 15 +167 18 -142 7 -146 7 *
Fa
0  0.000000100000000 9 0

0111000
+141 8 *
Ve
0.000000100000000
119.000000000000000 89.000000000000000 0.000000000000000
0 0

0101101
*
Ed
 0.000000100000000 1 1 0
1  30 0 72.500000000000000 119.000000000000000
0

0101000
+173 36 -139 36 *
Ve
0.000000100000000
119.000000000000000 0.000000000000000 0.000000000000000
0 0

0101101
*
Ed
 0.000000100000000 1 1 0
1  31 0 0.000000000000000 89.000000000000000
0

0101000
+139 36 -137 36 *
Ve
0.000000100000000
72.500000000000000 0.000000000000000 0.000000000000000
0 0

0101101
*
Ed
 0.000000100000000 1 1 0
1  32 0 0.000000000000000 46.500000000000000
0

0101000
+137 36 -135 36 *
Ve
0.000000100000000
42.500000000000000 0.000000000000000 0.000000000000000
0 0

0101101
*
Ed
 0.000000100000000 1 1 0
1  33 0 0.000000000000000 30.000000000000000
0

0101000
+133 16 -135 16 *
Ve
0.000000100000000
0.000000000000000 0.000000000000000 0.000000000000000
0 0

0101101
*
Ed
 0.000000100000000 1 1 0
1  34 0 76.500000000000000 119.000000000000000
0

0101000
+133 36 -131 36 *
Ed
 0.000000100000000 1 1 0
1  35 0 0.000000000000000 89.000000000000000
0

0101000
+131 36 -159 36 *
Wi

0101100
+158 35 -171 46 +138 35 +136 35 +134 35 -132 46 +130 35 +129 35 *
Fa
0  0.000000100000000 10 45

0111000
-128 0 *
Ve
0.000000100000000
47.500000000000000 88.000000000000000 10.000000000000000
0 0

0101101
*
Ed
 0.000000100000000 1 1 0
1  36 0 0.000000000000000 1.000000000000000
0

0101000
+164 47 -126 47 *
Ve
0.000000100000000
67.500000000000000 88.000000000000000 10.000000000000000
0 0

0101101
*
Ed
 0.000000100000000 1 1 0
1  37 0 0.000000000000000 1.000000000000000
0

0101000
+166 47 -124 47 *
Ed
 0.000000100000000 1 1 0
1  38 0 0.000000000000000 20.000000000000000
0

0101000
+126 50 -124 50 *
Wi

0101100
+125 0 -123 0 -163 43 +122 49 *
Fa
0  0.000000100000000 11 0

0111000
+121 0 *
Ve
0.000000100000000
119.000000000000000 89.000000000000000 2.000000000000000
0 0

0101101
*
Ed
 0.000000100000000 1 1 0
1  39 0 72.500000000000000 119.000000000000000
0

0101000
+147 39 -119 39 *
Ve
0.000000100000000
119.000000000000000 0.000000000000000 2.000000000000000
0 0

0101101
*
Ed
 0.000000100000000 1 1 0
1  40 0 0.000000000000000 89.000000000000000
0

0101000
+119 39 -117 39 *
Ve
0.000000100000000
72.500000000000000 0.000000000000000 2.000000000000000
0 0

0101101
*
Ed
 0.000000100000000 1 1 0
1  41 0 0.000000000000000 46.500000000000000
0

0101000
+117 39 -115 39 *
Ve
0.000000100000000
42.500000000000000 0.000000000000000 2.000000000000000
0 0

0101101
*
Ed
 0.000000100000000 1 1 0
1  42 0 46.500000000000000 76.500000000000000
0

0101000
+115 39 -113 39 *
Ve
0.000000100000000
0.000000000000000 0.000000000000000 2.000000000000000
0 0

0101101
*
Ed
 0.000000100000000 1 1 0
1  43 0 76.500000000000000 119.000000000000000
0

0101000
+113 39 -111 39 *
Ed
 0.000000100000000 1 1 0
1  44 0 0.000000000000000 89.000000000000000
0

0101000
+111 39 -157 39 *
Wi

0101100
+156 38 +145 38 +118 38 +116 38 +114 38 +112 38 +110 38 +109 38 *
Fa
0  0.000000100000000 12 51

0111000
-108 0 *
Ed
 0.000000100000000 1 1 0
1  45 0 0.000000000000000 2.000000000000000
0

0101000
+131 40 -111 40 *
Wi

0101100
+106 0 -155 0 -129 53 +109 54 *
Fa
0  0.000000100000000 13 0

0111000
+105 0 *
Ve
0.000000100000000
47.500000000000000 88.000000000000000 7.000000000000000
0 0

0101101
*
Ed
 0.000000100000000 1 1 0
1  46 0 0.000000000000000 1.000000000000000
0

0101000
+152 47 -103 47 *
Ed
 0.000000100000000 1 1 0
1  47 0 0.000000000000000 3.000000000000000
0

0101000
+103 50 -126 50 *
Wi

0101100
+102 0 -125 0 -151 43 +101 49 *
Fa
0  0.000000100000000 14 0

0111000
+100 0 *
Ve
0.000000100000000
67.500000000000000 88.000000000000000 7.000000000000000
0 0

0101101
*
Ed
 0.000000100000000 1 1 0
1  48 0 0.000000000000000 1.000000000000000
0

0101000
+150 47 -98 47 *
Ed
 0.000000100000000 1 1 0
1  49 0 0.000000000000000 20.000000000000000
0

0101000
+98 50 -103 50 *
Wi

0101100
+97 0 -102 0 -149 43 +96 49 *
Fa
0  0.000000100000000 15 0

0111000
+95 0 *
Ed
 0.000000100000000 1 1 0
1  50 0 0.000000000000000 3.000000000000000
0

0101000
+124 50 -98 50 *
Wi

0101100
+123 0 -97 0 -148 43 +93 49 *
Fa
0  0.000000100000000 16 0

0111000
+92 0 *
Ed
 0.000000100000000 1 1 0
1  51 0 0.000000000000000 2.000000000000000
0

0101000
+139 40 -119 40 *
Wi

0101100
-138 35 -90 31 +118 38 +142 0 *
Fa
0  0.000000100000000 17 31

0111000
+89 0 *
Ed
 0.000000100000000 1 1 0
1  52 0 0.000000000000000 2.000000000000000
0

0101000
+137 40 -117 40 *
Wi

0101100
+90 0 -87 0 -136 53 +116 54 *
Fa
0  0.000000100000000 18 0

0111000
+86 0 *
Ed
 0.000000100000000 1 1 0
1  53 0 0.000000000000000 2.000000000000000
0

0101000
+135 10 -115 10 *
Wi

0101100
-134 35 -84 0 +114 38 +87 31 *
Fa
0  0.000000100000000 19 31

0111000
+83 0 *
Ve
0.000000100000000
72.500000000000000 -0.010000000000000 -0.000000000000000
0 0

0101101
*
Ed
 0.000000100000000 1 1 0
1  54 0 0.000000000000000 0.010000000000000
0

0101000
-81 16 +135 16 *
Ve
0.000000100000000
42.500000000000000 -0.010000000000000 -0.000000000000000
0 0

0101101
*
Ed
 0.000000100000000 1 1 0
1  55 0 0.000000000000000 30.000000000000000
2  9 21 0 0.000000000000000 30.000000000000000
4 G1 20 20 21 0
0

0101000
+81 11 -79 11 *
Ed
 0.000000100000000 1 1 0
1  56 0 1.990000000000000 2.000000000000000
0

0101000
+79 16 -133 16 *
Wi

0101100
-80 15 -78 0 -132 15 -77 15 *
Fa
0  0.000000100000000 20 0

0111000
+76 22 *
Ed
 0.000000100000000 1 1 0
1  57 0 0.000000000000000 2.000000000000000
0

0101000
+133 10 -113 10 *
Wi

0101100
-130 35 -106 31 +110 38 +74 0 *
Fa
0  0.000000100000000 22 31

0111000
+73 0 *
Wi

0101100
+122 0 +93 0 +96 0 +101 0 *
Fa
0  0.000000100000000 23 0

0111000
+71 56 *
Ve
0.000000100000000
72.500000000000000 0.000000000000000 10.000000000000000
0 0

0101101
*
Ed
 0.000000100000000 1 1 0
1  58 0 2.000000000000000 10.000000000000000
0

0101000
+115 10 -69 10 *
Ve
0.000000100000002
67.500000000000000 0.000000000000002 10.000000000000000
0 0

0101101
*
Ed
 0.000000100000000 1 1 0
1  59 0 25.000000000000000 30.000000000000000
0

0101000
+67 19 -69 19 *
Ve
0.000000100000002
67.500000000000000 0.000000000000002 7.000000000000000
0 0

0101101
*
Ed
 0.000000100000002 1 1 0
1  60 0 0.000000000000000 3.000000000000000
0

0101000
+65 62 -67 62 *
Ve
0.000000100000002
47.500000000000000 0.000000000000002 7.000000000000000
0 0

0101101
*
Ed
 0.000000100000002 1 1 0
1  61 0 0.000000000000000 20.000000000000000
0

0101000
+63 62 -65 62 *
Ve
0.000000100000002
47.500000000000000 0.000000000000002 10.000000000000000
0 0

0101101
*
Ed
 0.000000100000002 1 1 0
1  62 0 0.000000000000000 3.000000000000000
0

0101000
+61 62 -63 62 *
Ve
0.000000100000000
42.500000000000000 0.000000000000000 10.000000000000000
0 0

0101101
*
Ed
 0.000000100000000 1 1 0
1  63 0 0.000000000000000 5.000000000000000
0

0101000
+59 19 -61 19 *
Ed
 0.000000100000000 1 1 0
1  64 0 2.000000000000000 10.000000000000000
0

0101000
+113 10 -59 10 *
Wi

0101100
-68 57 +66 58 +64 61 +62 61 +60 61 +58 58 +57 57 +112 63 *
Fa
0  0.000000100000000 24 57

0111000
+56 0 *
Ve
0.000000100000000
72.500000000000000 -2.000000000000000 1.989999999999999
0 0

0101101
*
Ve
0.000000100000000
72.500000000000000 -2.000000000000000 8.010000000000000
0 0

0101101
*
Ed
 0.000000100000000 1 1 0
1  65 0 1.989999999999999 8.010000000000000
0

0101000
+54 10 -53 10 *
Ed
 0.000000100000000 1 1 0
1  66 0 0.000000000000000 1.570796326794897
2  10 21 0 0.000000000000000 1.570796326794897
0

0101000
+81 11 -54 11 *
Ve
0.000000100000000
72.500000000000000 -0.010000000000001 10.000000000000000
0 0

0101101
*
Ed
 0.000000100000000 1 1 0
1  67 0 1.570796326794897 3.141592653589793
2  11 26 0 1.570796326794897 3.141592653589793
0

0101000
+53 11 -50 11 *
Ed
 0.000000100000000 1 1 0
1  68 0 0.000000000000000 0.010000000000001
0

0101000
-50 19 +69 19 *
Wi

0101100
-52 7 -51 0 -49 0 -80 15 +48 18 +84 7 +68 7 *
Fa
0  0.000000100000000 25 0

0111000
+47 8 *
Ve
0.000000100000000
42.500000000000000 -2.000000000000000 1.989999999999999
0 0

0101101
*
Ed
 0.000000100000000 1 1 0
1  69 0 0.000000000000000 30.000000000000000
2  12 21 0 0.000000000000000 30.000000000000000
4 G1 21 0 27 7
0

0101000
+54 11 -45 11 *
Ed
 0.000000100000000 1 1 0
1  70 0 0.000000000000000 1.570796326794897
2  13 21 0 0.000000000000000 1.570796326794897
0

0101000
+79 11 -45 11 *
Wi

0101100
+51 0 -78 0 +44 0 -43 0 *
Fa
0  0.000000100000000 21 0

0111000
+42 0 *
Ve
0.000000100000000
42.500000000000000 -2.000000000000000 8.010000000000000
0 0

0101101
*
Ed
 0.000000100000000 1 1 0
1  71 0 1.989999999999999 8.010000000000000
0

0101000
+45 10 -40 10 *
Ve
0.000000100000000
42.500000000000000 -0.010000000000001 10.000000000000000
0 0

0101101
*
Ed
 0.000000100000000 1 1 0
1  72 0 1.570796326794897 3.141592653589793
2  14 26 0 1.570796326794897 3.141592653589793
0

0101000
+40 11 -38 11 *
Ed
 0.000000100000000 1 1 0
1  73 0 1.989999999999999 2.000000000000000
0

0101000
+38 19 -59 19 *
Wi

0101100
+39 7 +43 0 +37 0 -77 15 +36 18 -74 7 -57 7 *
Fa
0  0.000000100000000 28 0

0111000
+35 8 *
Ed
 0.000000100000000 1 1 0
1  74 0 0.000000000000000 30.000000000000000
2  15 26 0 0.000000000000000 30.000000000000000
4 G1 29 21 26 0
0

0101000
+50 11 -38 11 *
Ed
 0.000000100000002 1 1 0
1  75 0 0.000000000000000 20.000000000000000
0

0101000
+67 62 -61 62 *
Wi

0101100
-48 18 -33 0 -66 18 -36 18 +32 66 -58 18 *
Fa
0  0.000000100000000 29 64

0111000
+31 65 *
Ve
0.000000100000002
67.500000000000000 1.000000000000002 7.000000000000000
0 0

0101101
*
Ed
 0.000000100000000 1 1 0
1  76 0 0.000000000000000 1.000000000000000
0

0101000
+65 67 -29 67 *
Ve
0.000000100000002
67.500000000000000 1.000000000000002 10.000000000000000
0 0

0101101
*
Ed
 0.000000100000000 1 1 0
1  77 0 0.000000000000000 1.000000000000000
0

0101000
+67 67 -27 67 *
Ed
 0.000000100000002 1 1 0
1  78 0 0.000000000000000 3.000000000000000
0

0101000
+29 70 -27 70 *
Wi

0101100
+28 0 -26 0 -64 61 +25 69 *
Fa
0  0.000000100000000 30 0

0111000
+24 0 *
Ve
0.000000100000002
47.500000000000000 1.000000000000002 7.000000000000000
0 0

0101101
*
Ed
 0.000000100000000 1 1 0
1  79 0 0.000000000000000 1.000000000000000
0

0101000
+63 67 -22 67 *
Ed
 0.000000100000002 1 1 0
1  80 0 0.000000000000000 20.000000000000000
0

0101000
+22 70 -29 70 *
Wi

0101100
+21 0 -28 0 -62 61 +20 69 *
Fa
0  0.000000100000000 31 0

0111000
+19 0 *
Ve
0.000000100000002
47.500000000000000 1.000000000000002 10.000000000000000
0 0

0101101
*
Ed
 0.000000100000000 1 1 0
1  81 0 0.000000000000000 1.000000000000000
0

0101000
+61 67 -17 67 *
Ed
 0.000000100000002 1 1 0
1  82 0 0.000000000000000 3.000000000000000
0

0101000
+17 70 -22 70 *
Wi

0101100
+16 0 -21 0 -60 61 +15 69 *
Fa
0  0.000000100000000 32 0

0111000
+14 0 *
Ed
 0.000000100000000 1 1 0
1  83 0 0.000000000000000 30.000000000000000
2  16 26 0 0.000000000000000 30.000000000000000
4 G1 27 7 26 0
0

0101000
+53 11 -40 11 *
Wi

0101100
+52 7 -44 0 +12 0 -39 7 *
Fa
0  0.000000100000000 27 0

0111000
+11 8 *
Wi

0101100
+49 0 -12 0 +33 0 -37 0 *
Fa
0  0.000000100000000 26 0

0111000
+9 0 *
Ed
 0.000000100000002 1 1 0
1  84 0 0.000000000000000 20.000000000000000
0

0101000
+27 70 -17 70 *
Wi

0101100
+26 0 -16 0 -32 61 +7 69 *
Fa
0  0.000000100000000 33 0

0111000
+6 0 *
Wi

0101100
+7 0 +15 0 +20 0 +25 0 *
Fa
0  0.000000100000000 34 0

0111000
-4 72 *
Sh

0101100
+191 7 +184 7 +179 0 +174 0 -169 20 +160 23 +153 7 +143 23 +140 7 -127 7 
+120 23 +107 7 +104 52 +99 23 +94 23 +91 23 +88 7 +85 52 +82 7 -75 20 
+72 7 -70 55 +55 6 +46 7 +41 0 +34 7 +30 6 +23 6 +18 6 +13 6 
+10 7 +8 0 +5 6 +3 71 *
So

1100000
+2 0 *

+1 1 